<svg xmlns="http://www.w3.org/2000/svg" width="455" height="196" viewBox="0 0 455 196">
  <g id="Grupo_217269" data-name="Grupo 217269" transform="translate(-835 -5294)">
    <g id="Grupo_217268" data-name="Grupo 217268">
      <rect id="Rectángulo_67089" data-name="Rectángulo 67089" width="455" height="196" transform="translate(835 5294)" fill="#fff"/>
      <path id="Intersección_1" data-name="Intersección 1" d="M-1465,11902a327.783,327.783,0,0,1,215-80,327.789,327.789,0,0,1,215,80Z" transform="translate(2312.998 -6412)" fill="#727997"/>
      <g id="Rectángulo_67092" data-name="Rectángulo 67092" transform="translate(856 5305)" fill="#fff" stroke="#000" stroke-width="1">
        <rect width="413" height="49" stroke="none"/>
        <rect x="0.5" y="0.5" width="412" height="48" fill="none"/>
      </g>
      <g id="Rectángulo_67093" data-name="Rectángulo 67093" transform="translate(983 5373)" fill="#fff" stroke="#000" stroke-width="1">
        <rect width="159" height="31" stroke="none"/>
        <rect x="0.5" y="0.5" width="158" height="30" fill="none"/>
      </g>
      <g id="Grupo_214746" data-name="Grupo 214746" transform="translate(198 -1033.855)">
        <path id="Trazado_217315" data-name="Trazado 217315" d="M6.953,13.8H5.445L4.883,17H3.453l.563-3.2H2.242V12.453H4.25l.391-2.219H2.828V8.875H4.883l.57-3.25H6.875L6.3,8.875H7.82l.57-3.25H9.82l-.57,3.25h1.711v1.359H9.008l-.391,2.219h1.75V13.8H8.383L7.82,17H6.391ZM5.68,12.453H7.188l.391-2.219H6.063ZM16.273,17V5.625h3.984a5.232,5.232,0,0,1,3.141.793,2.712,2.712,0,0,1,1.07,2.324,2.57,2.57,0,0,1-.43,1.473,2.482,2.482,0,0,1-1.2.934,2.4,2.4,0,0,1,1.379.883,2.61,2.61,0,0,1,.5,1.625,3,3,0,0,1-1.047,2.484A4.713,4.713,0,0,1,20.7,17Zm2.344-4.953v3.07h2.008a1.938,1.938,0,0,0,1.293-.395,1.353,1.353,0,0,0,.465-1.09,1.428,1.428,0,0,0-1.617-1.586Zm0-1.656h1.734q1.773-.031,1.773-1.414a1.307,1.307,0,0,0-.449-1.113,2.363,2.363,0,0,0-1.418-.34H18.617Zm10.211,4.727H33.8V17h-7.32V5.625h2.344ZM43.992,11.57a6.867,6.867,0,0,1-.594,2.945,4.472,4.472,0,0,1-1.7,1.953,5.021,5.021,0,0,1-5.059.008,4.515,4.515,0,0,1-1.719-1.941,6.67,6.67,0,0,1-.617-2.9V11.07a6.831,6.831,0,0,1,.605-2.957,4.508,4.508,0,0,1,1.711-1.961,5.014,5.014,0,0,1,5.055,0,4.508,4.508,0,0,1,1.711,1.961,6.811,6.811,0,0,1,.605,2.949Zm-2.375-.516a4.787,4.787,0,0,0-.641-2.719,2.263,2.263,0,0,0-3.648-.012,4.732,4.732,0,0,0-.648,2.691v.555a4.847,4.847,0,0,0,.641,2.7,2.243,2.243,0,0,0,3.656.035,4.819,4.819,0,0,0,.641-2.7Zm13.406.516a6.853,6.853,0,0,1-.516,2.77,4.754,4.754,0,0,1-1.43,1.887l1.891,1.484-1.492,1.32-2.422-1.945a5.126,5.126,0,0,1-.859.07,4.732,4.732,0,0,1-2.523-.68,4.515,4.515,0,0,1-1.719-1.941,6.67,6.67,0,0,1-.617-2.9V11.07a6.831,6.831,0,0,1,.605-2.957,4.508,4.508,0,0,1,1.711-1.961,5.014,5.014,0,0,1,5.055,0,4.508,4.508,0,0,1,1.711,1.961,6.811,6.811,0,0,1,.605,2.949Zm-2.375-.516a4.787,4.787,0,0,0-.641-2.719,2.263,2.263,0,0,0-3.648-.012,4.732,4.732,0,0,0-.648,2.691v.555a4.847,4.847,0,0,0,.641,2.7,2.243,2.243,0,0,0,3.656.035,4.819,4.819,0,0,0,.641-2.7Zm12.7-5.43v7.492a3.836,3.836,0,0,1-1.168,2.953,4.5,4.5,0,0,1-3.191,1.086A4.553,4.553,0,0,1,57.828,16.1a3.77,3.77,0,0,1-1.2-2.9V5.625h2.344v7.508a2.167,2.167,0,0,0,.535,1.629,2.054,2.054,0,0,0,1.48.512q1.977,0,2.008-2.078V5.625Zm8.766,6.445h-4.5v3.047H74.9V17H67.273V5.625h7.609v1.9H69.617v2.711h4.5Z" transform="translate(665 6354.355)" fill="#12263f"/>
        <path id="Trazado_217316" data-name="Trazado 217316" d="M10.5,17H8.215l.844-4.875H4.645L3.793,17H1.5L3.48,5.625H5.77l-.8,4.609H9.387l.8-4.609h2.289Zm8.875-2.344H15.41L14.238,17H11.715L17.793,5.625H19.91L22.074,17H19.738Zm-3.031-1.9H19.09l-.641-4.234Zm13.125,1.2q.164-.93-.914-1.422l-1.508-.6q-2.625-1.172-2.492-3.227a2.964,2.964,0,0,1,.625-1.687,3.758,3.758,0,0,1,1.6-1.152,5.67,5.67,0,0,1,2.227-.4,3.857,3.857,0,0,1,2.664.98,3.267,3.267,0,0,1,1,2.543H30.395a1.628,1.628,0,0,0-.34-1.2,1.531,1.531,0,0,0-1.176-.445A2.37,2.37,0,0,0,27.52,7.7a1.458,1.458,0,0,0-.687,1.02q-.148.852,1.141,1.352L29,10.461l.594.273q2.3,1.141,2.156,3.2a3.09,3.09,0,0,1-.645,1.738A3.633,3.633,0,0,1,29.547,16.8a5.565,5.565,0,0,1-2.176.367,4.873,4.873,0,0,1-2.156-.508,3.349,3.349,0,0,1-1.437-1.367,3.54,3.54,0,0,1-.43-1.875l2.289.008q-.109,1.852,1.82,1.883a2.392,2.392,0,0,0,1.375-.367A1.43,1.43,0,0,0,29.473,13.961ZM41.832,17H39.543l.844-4.875H35.973L35.121,17H32.832L34.809,5.625H37.1l-.8,4.609h4.422l.8-4.609H43.8Zm6.844,0V5.625H52.66a5.232,5.232,0,0,1,3.141.793,2.712,2.712,0,0,1,1.07,2.324,2.57,2.57,0,0,1-.43,1.473,2.482,2.482,0,0,1-1.2.934,2.4,2.4,0,0,1,1.379.883,2.61,2.61,0,0,1,.5,1.625,3,3,0,0,1-1.047,2.484A4.713,4.713,0,0,1,53.1,17Zm2.344-4.953v3.07h2.008a1.938,1.938,0,0,0,1.293-.395,1.353,1.353,0,0,0,.465-1.09,1.428,1.428,0,0,0-1.617-1.586Zm0-1.656h1.734q1.773-.031,1.773-1.414a1.307,1.307,0,0,0-.449-1.113,2.363,2.363,0,0,0-1.418-.34H51.02ZM61.23,15.117h4.977V17h-7.32V5.625H61.23ZM76.395,11.57a6.867,6.867,0,0,1-.594,2.945,4.472,4.472,0,0,1-1.7,1.953,5.021,5.021,0,0,1-5.059.008,4.515,4.515,0,0,1-1.719-1.941,6.67,6.67,0,0,1-.617-2.9V11.07a6.831,6.831,0,0,1,.605-2.957,4.508,4.508,0,0,1,1.711-1.961,5.014,5.014,0,0,1,5.055,0,4.508,4.508,0,0,1,1.711,1.961,6.811,6.811,0,0,1,.605,2.949Zm-2.375-.516a4.787,4.787,0,0,0-.641-2.719,2.263,2.263,0,0,0-3.648-.012,4.732,4.732,0,0,0-.648,2.691v.555a4.847,4.847,0,0,0,.641,2.7,2.243,2.243,0,0,0,3.656.035,4.819,4.819,0,0,0,.641-2.7Zm13.406.516a6.853,6.853,0,0,1-.516,2.77,4.754,4.754,0,0,1-1.43,1.887l1.891,1.484-1.492,1.32-2.422-1.945a5.126,5.126,0,0,1-.859.07,4.732,4.732,0,0,1-2.523-.68,4.515,4.515,0,0,1-1.719-1.941,6.67,6.67,0,0,1-.617-2.9V11.07a6.831,6.831,0,0,1,.605-2.957,4.508,4.508,0,0,1,1.711-1.961,5.014,5.014,0,0,1,5.055,0A4.508,4.508,0,0,1,86.82,8.113a6.811,6.811,0,0,1,.605,2.949Zm-2.375-.516a4.787,4.787,0,0,0-.641-2.719,2.263,2.263,0,0,0-3.648-.012,4.732,4.732,0,0,0-.648,2.691v.555a4.847,4.847,0,0,0,.641,2.7,2.243,2.243,0,0,0,3.656.035,4.819,4.819,0,0,0,.641-2.7Zm12.7-5.43v7.492a3.836,3.836,0,0,1-1.168,2.953,4.5,4.5,0,0,1-3.191,1.086A4.553,4.553,0,0,1,90.23,16.1a3.77,3.77,0,0,1-1.2-2.9V5.625h2.344v7.508a2.167,2.167,0,0,0,.535,1.629,2.054,2.054,0,0,0,1.48.512q1.977,0,2.008-2.078V5.625Zm8.766,6.445h-4.5v3.047H107.3V17H99.676V5.625h7.609v1.9H102.02v2.711h4.5ZM30.008,36.992V41H27.664V29.625H32.1a5.134,5.134,0,0,1,2.254.469,3.454,3.454,0,0,1,1.5,1.332,3.714,3.714,0,0,1,.523,1.965,3.266,3.266,0,0,1-1.145,2.637,4.767,4.767,0,0,1-3.168.965Zm0-1.9H32.1a2.059,2.059,0,0,0,1.418-.437,1.591,1.591,0,0,0,.488-1.25,1.876,1.876,0,0,0-.492-1.352,1.839,1.839,0,0,0-1.359-.531H30.008ZM42.2,36.836H40.328V41H37.984V29.625h4.227a4.778,4.778,0,0,1,3.109.9,3.1,3.1,0,0,1,1.094,2.539A3.5,3.5,0,0,1,45.91,35a3.437,3.437,0,0,1-1.527,1.238l2.461,4.648V41H44.328Zm-1.867-1.9h1.891a1.936,1.936,0,0,0,1.367-.449,1.606,1.606,0,0,0,.484-1.238,1.719,1.719,0,0,0-.457-1.266,1.9,1.9,0,0,0-1.4-.461H40.328ZM55.039,36.07h-4.5v3.047H55.82V41H48.2V29.625H55.8v1.9H50.539v2.711h4.5ZM61.4,38.18l2.578-8.555h2.609L62.625,41H60.18L56.234,29.625h2.6ZM70.148,41H67.8V29.625h2.344Zm11.516-5.43a6.867,6.867,0,0,1-.594,2.945,4.472,4.472,0,0,1-1.7,1.953,5.021,5.021,0,0,1-5.059.008,4.515,4.515,0,0,1-1.719-1.941,6.67,6.67,0,0,1-.617-2.9V35.07a6.831,6.831,0,0,1,.605-2.957,4.508,4.508,0,0,1,1.711-1.961,5.014,5.014,0,0,1,5.055,0,4.508,4.508,0,0,1,1.711,1.961,6.811,6.811,0,0,1,.605,2.949Zm-2.375-.516a4.787,4.787,0,0,0-.641-2.719A2.263,2.263,0,0,0,75,32.324a4.732,4.732,0,0,0-.648,2.691v.555a4.847,4.847,0,0,0,.641,2.7,2.243,2.243,0,0,0,3.656.035,4.819,4.819,0,0,0,.641-2.7Z" transform="translate(774 6341.855)" fill="#12263f"/>
        <path id="Trazado_217317" data-name="Trazado 217317" d="M14.148,12.352h-4.5V17H7.3V5.625h7.406v1.9H9.648v2.938h4.5ZM18.563,17H16.219V5.625h2.344Zm6.383-4.164H23.078V17H20.734V5.625h4.227a4.778,4.778,0,0,1,3.109.9,3.1,3.1,0,0,1,1.094,2.539A3.5,3.5,0,0,1,28.66,11a3.437,3.437,0,0,1-1.527,1.238l2.461,4.648V17H27.078Zm-1.867-1.9h1.891a1.936,1.936,0,0,0,1.367-.449A1.606,1.606,0,0,0,26.82,9.25a1.719,1.719,0,0,0-.457-1.266,1.9,1.9,0,0,0-1.4-.461H23.078Zm10.93-5.312,2.922,8.25,2.906-8.25h3.078V17H40.563V13.891L40.8,8.523,37.727,17H36.117L33.055,8.531l.234,5.359V17H30.945V5.625Zm17.375,9.031H47.273L46.492,17H44L48.234,5.625h2.172L54.664,17H52.172Zm-3.477-1.9H50.75L49.32,8.5ZM2.008,41V29.625h3.5a5.315,5.315,0,0,1,2.684.676,4.712,4.712,0,0,1,1.848,1.922,5.928,5.928,0,0,1,.664,2.832v.523a5.945,5.945,0,0,1-.652,2.82,4.672,4.672,0,0,1-1.84,1.914A5.355,5.355,0,0,1,5.531,41Zm2.344-9.477v7.594H5.484a2.545,2.545,0,0,0,2.1-.9,4.06,4.06,0,0,0,.742-2.57v-.6a4.124,4.124,0,0,0-.719-2.629,2.537,2.537,0,0,0-2.1-.895ZM14.9,41H12.555V29.625H14.9ZM26.07,39.563a4.068,4.068,0,0,1-1.789,1.176,7.492,7.492,0,0,1-2.562.418,5.076,5.076,0,0,1-2.59-.645,4.3,4.3,0,0,1-1.719-1.871,6.585,6.585,0,0,1-.621-2.883v-.773a6.994,6.994,0,0,1,.574-2.949,4.248,4.248,0,0,1,1.656-1.906,4.771,4.771,0,0,1,2.535-.66,4.751,4.751,0,0,1,3.164.965,4.123,4.123,0,0,1,1.352,2.809H23.789a2.268,2.268,0,0,0-.691-1.43,2.208,2.208,0,0,0-1.473-.453,2.078,2.078,0,0,0-1.82.9,4.724,4.724,0,0,0-.633,2.672v.727a4.5,4.5,0,0,0,.68,2.7,2.327,2.327,0,0,0,1.992.914,2.6,2.6,0,0,0,1.883-.562V36.75H21.594V35.023H26.07ZM30.461,41H28.117V29.625h2.344ZM41.2,31.523H37.711V41H35.367V31.523H31.93v-1.9H41.2Zm6.82,7.133H43.906L43.125,41H40.633l4.234-11.375h2.172L51.3,41H48.8Zm-3.477-1.9h2.844L45.953,32.5ZM54.7,39.117H59.68V41h-7.32V29.625H54.7Z" transform="translate(915 6341.855)" fill="#12263f"/>
        <path id="Trazado_217318" data-name="Trazado 217318" d="M11.2,17H8.98L5.816,9.414,4.5,17H2.207L4.184,5.625H6.395l3.172,7.6,1.32-7.6h2.281Zm6.617.156a4.008,4.008,0,0,1-2-.535,3.612,3.612,0,0,1-1.367-1.477,5.468,5.468,0,0,1-.582-2.215,8.9,8.9,0,0,1,.273-2.734A7.3,7.3,0,0,1,15.3,7.641a5.256,5.256,0,0,1,1.871-1.648A4.844,4.844,0,0,1,19.5,5.469a3.966,3.966,0,0,1,2.008.543A3.587,3.587,0,0,1,22.855,7.5a5.532,5.532,0,0,1,.563,2.207,9.188,9.188,0,0,1-.3,2.828,7.177,7.177,0,0,1-1.164,2.516,5.216,5.216,0,0,1-1.848,1.594A4.83,4.83,0,0,1,17.816,17.156ZM21.059,11l.063-.742a3.626,3.626,0,0,0-.371-2.109,1.567,1.567,0,0,0-1.363-.75,2.473,2.473,0,0,0-2.27,1.266,7.455,7.455,0,0,0-.949,3.672,3.762,3.762,0,0,0,.367,2.129,1.563,1.563,0,0,0,1.383.777,2.345,2.345,0,0,0,2.031-.957A5.79,5.79,0,0,0,21,11.422Zm11.977,6H30.816L27.652,9.414,26.332,17H24.043L26.02,5.625H28.23l3.172,7.6,1.32-7.6H35Zm11.32-3.8a4.254,4.254,0,0,1-.8,2.09,4.375,4.375,0,0,1-1.75,1.4,5.329,5.329,0,0,1-2.328.465,3.936,3.936,0,0,1-1.961-.52A3.443,3.443,0,0,1,36.2,15.2a5.312,5.312,0,0,1-.543-2.168,10.634,10.634,0,0,1,.2-2.391A7.578,7.578,0,0,1,36.758,8.1a5.666,5.666,0,0,1,1.551-1.758A4.679,4.679,0,0,1,41.2,5.469,3.839,3.839,0,0,1,44,6.559,4.384,4.384,0,0,1,45.137,9.5l-2.281-.008a2.391,2.391,0,0,0-.43-1.578,1.752,1.752,0,0,0-1.336-.531,2.319,2.319,0,0,0-1.926.836,5.027,5.027,0,0,0-1.012,2.555,14.155,14.155,0,0,0-.219,2.445,2.434,2.434,0,0,0,.461,1.52,1.543,1.543,0,0,0,1.18.512,2.356,2.356,0,0,0,1.676-.5,2.625,2.625,0,0,0,.832-1.535Zm8.469-1.133H48.465l-.531,3.047h5.125L52.73,17H45.316L47.293,5.625h7.4l-.336,1.9h-5.1l-.477,2.711h4.375Z" transform="translate(1008 6354.355)" fill="#12263f"/>
        <text id="_" data-name="+" transform="translate(752 6354.355)" fill="#12263f" font-size="16" font-family="Roboto-Bold, Roboto" font-weight="700"><tspan x="-4.367" y="17">+</tspan></text>
        <text id="_2" data-name="+" transform="translate(893 6354.355)" fill="#12263f" font-size="16" font-family="Roboto-Bold, Roboto" font-weight="700"><tspan x="-4.367" y="17">+</tspan></text>
        <text id="_3" data-name="+" transform="translate(986 6354.355)" fill="#12263f" font-size="16" font-family="Roboto-Bold, Roboto" font-weight="700"><tspan x="-4.367" y="17">+</tspan></text>
      </g>
      <path id="Trazado_217319" data-name="Trazado 217319" d="M13.145,12.352h-4.5V17H6.3V5.625h7.406v1.9H8.645v2.938h4.5ZM23.676,5.625v7.492a3.836,3.836,0,0,1-1.168,2.953,4.5,4.5,0,0,1-3.191,1.086A4.553,4.553,0,0,1,16.152,16.1a3.77,3.77,0,0,1-1.2-2.9V5.625H17.3v7.508a2.167,2.167,0,0,0,.535,1.629,2.054,2.054,0,0,0,1.48.512q1.977,0,2.008-2.078V5.625ZM34.848,17H32.5L27.941,9.516V17H25.6V5.625h2.344l4.57,7.5v-7.5h2.336Zm10.977-3.789A4.025,4.025,0,0,1,44.469,16.1a4.76,4.76,0,0,1-3.223,1.055A4.28,4.28,0,0,1,37.8,15.684a6.038,6.038,0,0,1-1.254-4.043v-.7a6.819,6.819,0,0,1,.578-2.891,4.332,4.332,0,0,1,1.652-1.918,5.164,5.164,0,0,1,5.668.387A4.326,4.326,0,0,1,45.84,9.484H43.5a2.376,2.376,0,0,0-.613-1.6,2.271,2.271,0,0,0-1.605-.5,1.991,1.991,0,0,0-1.754.84,4.707,4.707,0,0,0-.6,2.605V11.7a5.038,5.038,0,0,0,.559,2.7,1.954,1.954,0,0,0,1.762.852,2.314,2.314,0,0,0,1.621-.5,2.241,2.241,0,0,0,.613-1.535ZM49.855,17H47.512V5.625h2.344Zm11.516-5.43a6.867,6.867,0,0,1-.594,2.945,4.472,4.472,0,0,1-1.7,1.953,5.021,5.021,0,0,1-5.059.008A4.515,4.515,0,0,1,52.3,14.535a6.67,6.67,0,0,1-.617-2.9V11.07a6.831,6.831,0,0,1,.605-2.957A4.508,4.508,0,0,1,54,6.152a5.014,5.014,0,0,1,5.055,0,4.508,4.508,0,0,1,1.711,1.961,6.811,6.811,0,0,1,.605,2.949ZM59,11.055a4.787,4.787,0,0,0-.641-2.719,2.263,2.263,0,0,0-3.648-.012,4.732,4.732,0,0,0-.648,2.691v.555a4.847,4.847,0,0,0,.641,2.7,2.243,2.243,0,0,0,3.656.035,4.819,4.819,0,0,0,.641-2.7ZM56.98,2.578h2.461L57.277,5H55.441ZM72.324,17H69.98L65.418,9.516V17H63.074V5.625h2.344l4.57,7.5v-7.5h2.336ZM86.5,17H84.215l.844-4.875H80.645L79.793,17H77.5L79.48,5.625H81.77l-.8,4.609h4.422l.8-4.609h2.289Zm8.875-2.344H91.41L90.238,17H87.715L93.793,5.625H95.91L98.074,17H95.738Zm-3.031-1.9H95.09l-.641-4.234Zm13.125,1.2q.164-.93-.914-1.422l-1.508-.6q-2.625-1.172-2.492-3.227a2.964,2.964,0,0,1,.625-1.687,3.758,3.758,0,0,1,1.6-1.152,5.67,5.67,0,0,1,2.227-.4,3.857,3.857,0,0,1,2.664.98,3.267,3.267,0,0,1,1,2.543h-2.281a1.628,1.628,0,0,0-.34-1.2,1.531,1.531,0,0,0-1.176-.445,2.37,2.37,0,0,0-1.359.355,1.458,1.458,0,0,0-.687,1.02q-.148.852,1.141,1.352l1.031.391.594.273q2.3,1.141,2.156,3.2a3.09,3.09,0,0,1-.645,1.738,3.633,3.633,0,0,1-1.562,1.121,5.565,5.565,0,0,1-2.176.367,4.873,4.873,0,0,1-2.156-.508,3.349,3.349,0,0,1-1.437-1.367,3.54,3.54,0,0,1-.43-1.875l2.289.008q-.109,1.852,1.82,1.883a2.392,2.392,0,0,0,1.375-.367A1.43,1.43,0,0,0,105.473,13.961ZM117.832,17h-2.289l.844-4.875h-4.414L111.121,17h-2.289l1.977-11.375H113.1l-.8,4.609h4.422l.8-4.609H119.8Z" transform="translate(1000 5379)" fill="#12263f"/>
      <path id="Trazado_217320" data-name="Trazado 217320" d="M5.07,12.992V17H2.727V5.625H7.164a5.134,5.134,0,0,1,2.254.469,3.454,3.454,0,0,1,1.5,1.332,3.714,3.714,0,0,1,.523,1.965,3.266,3.266,0,0,1-1.145,2.637,4.767,4.767,0,0,1-3.168.965Zm0-1.9H7.164a2.059,2.059,0,0,0,1.418-.437,1.591,1.591,0,0,0,.488-1.25,1.876,1.876,0,0,0-.492-1.352,1.839,1.839,0,0,0-1.359-.531H5.07Zm17.32.477a6.867,6.867,0,0,1-.594,2.945,4.472,4.472,0,0,1-1.7,1.953,5.021,5.021,0,0,1-5.059.008,4.515,4.515,0,0,1-1.719-1.941,6.67,6.67,0,0,1-.617-2.9V11.07a6.831,6.831,0,0,1,.605-2.957A4.508,4.508,0,0,1,15.02,6.152a5.014,5.014,0,0,1,5.055,0,4.508,4.508,0,0,1,1.711,1.961,6.811,6.811,0,0,1,.605,2.949Zm-2.375-.516a4.787,4.787,0,0,0-.641-2.719,2.088,2.088,0,0,0-1.828-.93,2.088,2.088,0,0,0-1.82.918,4.732,4.732,0,0,0-.648,2.691v.555a4.847,4.847,0,0,0,.641,2.7,2.082,2.082,0,0,0,1.844.961,2.064,2.064,0,0,0,1.813-.926,4.819,4.819,0,0,0,.641-2.7Zm9.977,2.961A1.2,1.2,0,0,0,29.523,13a6.148,6.148,0,0,0-1.687-.75,11.963,11.963,0,0,1-1.93-.777,3.153,3.153,0,0,1-1.937-2.82A2.747,2.747,0,0,1,24.488,7,3.389,3.389,0,0,1,25.98,5.875a5.616,5.616,0,0,1,2.184-.406,5.112,5.112,0,0,1,2.172.441,3.458,3.458,0,0,1,1.48,1.246,3.261,3.261,0,0,1,.527,1.828H30a1.534,1.534,0,0,0-.492-1.215,2.023,2.023,0,0,0-1.383-.434,2.162,2.162,0,0,0-1.336.363,1.146,1.146,0,0,0-.477.957,1.1,1.1,0,0,0,.559.93,6.311,6.311,0,0,0,1.645.7,7.106,7.106,0,0,1,2.914,1.492A2.972,2.972,0,0,1,32.344,14a2.737,2.737,0,0,1-1.117,2.316,4.891,4.891,0,0,1-3.008.84,5.808,5.808,0,0,1-2.391-.48,3.783,3.783,0,0,1-1.645-1.316,3.371,3.371,0,0,1-.566-1.937h2.352q0,1.883,2.25,1.883a2.189,2.189,0,0,0,1.3-.34A1.106,1.106,0,0,0,29.992,14.016ZM36.422,17H34.078V5.625h2.344Zm2.172,0V5.625h3.984a5.232,5.232,0,0,1,3.141.793,2.712,2.712,0,0,1,1.07,2.324,2.57,2.57,0,0,1-.43,1.473,2.482,2.482,0,0,1-1.2.934,2.4,2.4,0,0,1,1.379.883,2.61,2.61,0,0,1,.5,1.625A3,3,0,0,1,46,16.141,4.713,4.713,0,0,1,43.016,17Zm2.344-4.953v3.07h2.008a1.938,1.938,0,0,0,1.293-.395,1.353,1.353,0,0,0,.465-1.09,1.428,1.428,0,0,0-1.617-1.586Zm0-1.656h1.734q1.773-.031,1.773-1.414A1.307,1.307,0,0,0,44,7.863a2.363,2.363,0,0,0-1.418-.34H40.938Zm10.211,4.727h4.977V17H48.8V5.625h2.344ZM64.313,12.07h-4.5v3.047h5.281V17H57.469V5.625h7.609v1.9H59.813v2.711h4.5Zm8.055,1.945A1.2,1.2,0,0,0,71.9,13a6.148,6.148,0,0,0-1.687-.75,11.963,11.963,0,0,1-1.93-.777,3.153,3.153,0,0,1-1.937-2.82A2.747,2.747,0,0,1,66.863,7a3.389,3.389,0,0,1,1.492-1.129,5.616,5.616,0,0,1,2.184-.406,5.112,5.112,0,0,1,2.172.441,3.458,3.458,0,0,1,1.48,1.246,3.261,3.261,0,0,1,.527,1.828H72.375a1.534,1.534,0,0,0-.492-1.215A2.023,2.023,0,0,0,70.5,7.336a2.162,2.162,0,0,0-1.336.363,1.146,1.146,0,0,0-.477.957,1.1,1.1,0,0,0,.559.93,6.311,6.311,0,0,0,1.645.7A7.106,7.106,0,0,1,73.8,11.781,2.972,2.972,0,0,1,74.719,14,2.737,2.737,0,0,1,73.6,16.316a4.891,4.891,0,0,1-3.008.84,5.808,5.808,0,0,1-2.391-.48,3.783,3.783,0,0,1-1.645-1.316,3.371,3.371,0,0,1-.566-1.937h2.352q0,1.883,2.25,1.883a2.189,2.189,0,0,0,1.3-.34A1.106,1.106,0,0,0,72.367,14.016ZM17.266,41H14.977l.844-4.875H11.406L10.555,41H8.266l1.977-11.375h2.289l-.8,4.609h4.422l.8-4.609h2.289Zm8.875-2.344H22.172L21,41H18.477l6.078-11.375h2.117L28.836,41H26.5Zm-3.031-1.9h2.742l-.641-4.234Zm13.125,1.2q.164-.93-.914-1.422l-1.508-.6q-2.625-1.172-2.492-3.227a2.964,2.964,0,0,1,.625-1.687,3.758,3.758,0,0,1,1.6-1.152,5.67,5.67,0,0,1,2.227-.4,3.857,3.857,0,0,1,2.664.98,3.267,3.267,0,0,1,1,2.543H37.156a1.628,1.628,0,0,0-.34-1.2,1.531,1.531,0,0,0-1.176-.445,2.37,2.37,0,0,0-1.359.355,1.458,1.458,0,0,0-.687,1.02q-.148.852,1.141,1.352l1.031.391.594.273q2.3,1.141,2.156,3.2a3.09,3.09,0,0,1-.645,1.738A3.633,3.633,0,0,1,36.309,40.8a5.565,5.565,0,0,1-2.176.367,4.873,4.873,0,0,1-2.156-.508,3.349,3.349,0,0,1-1.437-1.367,3.54,3.54,0,0,1-.43-1.875l2.289.008q-.109,1.852,1.82,1.883a2.391,2.391,0,0,0,1.375-.367A1.43,1.43,0,0,0,36.234,37.961ZM48.594,41H46.3l.844-4.875H42.734L41.883,41H39.594L41.57,29.625h2.289l-.8,4.609h4.422l.8-4.609h2.289Zm9.555-4.93H53.789l-.531,3.047h5.125L58.055,41H50.641l1.977-11.375h7.4l-.336,1.9h-5.1L54.1,34.234h4.375ZM65.7,37.961q.164-.93-.914-1.422l-1.508-.6q-2.625-1.172-2.492-3.227a2.964,2.964,0,0,1,.625-1.687,3.758,3.758,0,0,1,1.6-1.152,5.67,5.67,0,0,1,2.227-.4,3.857,3.857,0,0,1,2.664.98,3.267,3.267,0,0,1,1,2.543H66.625a1.628,1.628,0,0,0-.34-1.2,1.531,1.531,0,0,0-1.176-.445,2.37,2.37,0,0,0-1.359.355,1.458,1.458,0,0,0-.687,1.02q-.148.852,1.141,1.352l1.031.391.594.273q2.3,1.141,2.156,3.2a3.09,3.09,0,0,1-.645,1.738A3.633,3.633,0,0,1,65.777,40.8a5.565,5.565,0,0,1-2.176.367,4.873,4.873,0,0,1-2.156-.508,3.349,3.349,0,0,1-1.437-1.367,3.54,3.54,0,0,1-.43-1.875l2.289.008q-.109,1.852,1.82,1.883a2.392,2.392,0,0,0,1.375-.367A1.43,1.43,0,0,0,65.7,37.961Z" transform="translate(976 5432)" fill="#fff"/>
      <g id="Elipse_5053" data-name="Elipse 5053" transform="translate(1083 5419)" fill="#ff8900" stroke="#5f6686" stroke-width="3">
        <circle cx="34.5" cy="34.5" r="34.5" stroke="none"/>
        <circle cx="34.5" cy="34.5" r="33" fill="none"/>
      </g>
      <path id="Trazado_217321" data-name="Trazado 217321" d="M9.276,11.689l3.11-6.932H14.52L9.956,14H8.013L6.35,4.758h2Zm9.553.406H15.6L14.653,14H12.6l4.938-9.242h1.72L21.02,14h-1.9Zm-2.463-1.542h2.228l-.521-3.44Zm10.664.978q.133-.755-.743-1.155l-1.225-.489q-2.133-.952-2.025-2.622a2.408,2.408,0,0,1,.508-1.371,3.053,3.053,0,0,1,1.3-.936,4.607,4.607,0,0,1,1.809-.327,3.134,3.134,0,0,1,2.165.8,2.655,2.655,0,0,1,.813,2.066H27.78a1.322,1.322,0,0,0-.276-.978,1.244,1.244,0,0,0-.955-.362,1.926,1.926,0,0,0-1.1.289,1.185,1.185,0,0,0-.559.828q-.121.692.927,1.1l.838.317.482.222a2.623,2.623,0,0,1,1.752,2.6,2.511,2.511,0,0,1-.524,1.412,2.952,2.952,0,0,1-1.27.911,4.522,4.522,0,0,1-1.768.3,3.96,3.96,0,0,1-1.752-.413A2.721,2.721,0,0,1,22.4,12.61a2.877,2.877,0,0,1-.349-1.523l1.86.006q-.089,1.5,1.479,1.53a1.943,1.943,0,0,0,1.117-.3A1.162,1.162,0,0,0,27.031,11.531ZM37.073,14h-1.86l.686-3.961H32.312L31.62,14H29.76l1.606-9.242h1.86L32.572,8.5h3.593l.647-3.745h1.86Zm7.763-4.005H41.294l-.432,2.476h4.164L44.76,14H38.736l1.606-9.242h6.011L46.08,6.3H41.935l-.387,2.2H45.1Zm6.138,1.536q.133-.755-.743-1.155l-1.225-.489q-2.133-.952-2.025-2.622a2.408,2.408,0,0,1,.508-1.371,3.053,3.053,0,0,1,1.3-.936A4.607,4.607,0,0,1,50.6,4.631a3.134,3.134,0,0,1,2.165.8,2.655,2.655,0,0,1,.813,2.066H51.723a1.322,1.322,0,0,0-.276-.978,1.244,1.244,0,0,0-.955-.362,1.926,1.926,0,0,0-1.1.289,1.185,1.185,0,0,0-.559.828q-.121.692.927,1.1l.838.317.482.222a2.623,2.623,0,0,1,1.752,2.6,2.511,2.511,0,0,1-.524,1.412,2.952,2.952,0,0,1-1.27.911,4.522,4.522,0,0,1-1.768.3,3.96,3.96,0,0,1-1.752-.413,2.721,2.721,0,0,1-1.168-1.111A2.877,2.877,0,0,1,46,11.086l1.86.006q-.089,1.5,1.479,1.53a1.943,1.943,0,0,0,1.117-.3A1.162,1.162,0,0,0,50.974,11.531ZM6.994,29.708l2.095-6.951h2.12L7.991,32H6L2.8,22.758H4.912Zm10.3.387H13.958L13.323,32H11.3l3.44-9.242H16.5L19.963,32H17.938Zm-2.825-1.542h2.311l-1.162-3.459Zm1.542-8.271h2L16.256,22.25H14.764ZM22.73,30.47h4.043V32H20.826V22.758h1.9ZM29.89,32h-1.9V22.758h1.9Zm1.765,0V22.758H34.5a4.319,4.319,0,0,1,2.18.549,3.829,3.829,0,0,1,1.5,1.562,4.816,4.816,0,0,1,.54,2.3v.425a4.83,4.83,0,0,1-.53,2.292A3.8,3.8,0,0,1,36.7,31.441,4.351,4.351,0,0,1,34.518,32Zm1.9-7.7v6.17h.92a2.068,2.068,0,0,0,1.708-.73,3.3,3.3,0,0,0,.6-2.088v-.489a3.351,3.351,0,0,0-.584-2.136A2.061,2.061,0,0,0,34.5,24.3ZM47.7,27.588a5.579,5.579,0,0,1-.482,2.393,3.633,3.633,0,0,1-1.381,1.587,4.08,4.08,0,0,1-4.11.006A3.669,3.669,0,0,1,40.326,30a5.42,5.42,0,0,1-.5-2.358v-.457a5.55,5.55,0,0,1,.492-2.4,3.663,3.663,0,0,1,1.39-1.593,4.074,4.074,0,0,1,4.107,0A3.663,3.663,0,0,1,47.2,24.78a5.534,5.534,0,0,1,.492,2.4Zm-1.93-.419a3.889,3.889,0,0,0-.521-2.209,1.839,1.839,0,0,0-2.964-.01,3.845,3.845,0,0,0-.527,2.187v.451a3.938,3.938,0,0,0,.521,2.2,1.823,1.823,0,0,0,2.971.029,3.915,3.915,0,0,0,.521-2.193Zm8.106,2.406a.977.977,0,0,0-.381-.828,5,5,0,0,0-1.371-.609,9.72,9.72,0,0,1-1.568-.632,2.562,2.562,0,0,1-1.574-2.292,2.232,2.232,0,0,1,.422-1.336,2.753,2.753,0,0,1,1.212-.917,4.563,4.563,0,0,1,1.774-.33,4.154,4.154,0,0,1,1.765.359A2.81,2.81,0,0,1,55.354,24a2.649,2.649,0,0,1,.428,1.485h-1.9a1.246,1.246,0,0,0-.4-.987,1.644,1.644,0,0,0-1.124-.352,1.756,1.756,0,0,0-1.085.3.931.931,0,0,0-.387.778.892.892,0,0,0,.454.755,5.128,5.128,0,0,0,1.336.571A5.773,5.773,0,0,1,55.04,27.76a2.415,2.415,0,0,1,.743,1.8,2.224,2.224,0,0,1-.908,1.882,3.974,3.974,0,0,1-2.444.682,4.719,4.719,0,0,1-1.942-.39,3.074,3.074,0,0,1-1.336-1.07,2.739,2.739,0,0,1-.46-1.574H50.6q0,1.53,1.828,1.53a1.778,1.778,0,0,0,1.06-.276A.9.9,0,0,0,53.872,29.575Z" transform="translate(1088 5437)" fill="#12263f"/>
      <g id="Grupo_214747" data-name="Grupo 214747" transform="translate(245.999 -1019.741)">
        <path id="Trazado_180004" data-name="Trazado 180004" d="M-7924.291-5724.464h7.323" transform="translate(-4907.465 14297.488) rotate(90)" fill="none" stroke="#12263f" stroke-width="2"/>
        <path id="Polígono_7" data-name="Polígono 7" d="M9,0l9,14H0Z" transform="translate(825.999 6390.743) rotate(180)" fill="#12263f"/>
      </g>
      <g id="Grupo_214748" data-name="Grupo 214748" transform="translate(245.999 -969.197)">
        <path id="Trazado_180004-2" data-name="Trazado 180004" d="M-7924.291-5724.464h7.323" transform="translate(-4907.465 14297.488) rotate(90)" fill="none" stroke="#12263f" stroke-width="2"/>
        <path id="Polígono_7-2" data-name="Polígono 7" d="M9,0l9,14H0Z" transform="translate(825.999 6390.743) rotate(180)" fill="#12263f"/>
      </g>
    </g>
  </g>
</svg>
