<svg xmlns="http://www.w3.org/2000/svg" width="455" height="203" viewBox="0 0 455 203">
  <g id="Grupo_217267" data-name="Grupo 217267" transform="translate(-310 -6582)">
    <rect id="Rectángulo_67088" data-name="Rectángulo 67088" width="455" height="196" transform="translate(310 6582)" fill="#fff"/>
    <g id="Grupo_214750" data-name="Grupo 214750" transform="translate(-5902.709 7476.998) rotate(-90)">
      <path id="Trazado_180004" data-name="Trazado 180004" d="M0,0H19.42" transform="translate(817 6361.101) rotate(90)" fill="none" stroke="#2754ba" stroke-width="2"/>
      <path id="Polígono_7" data-name="Polígono 7" d="M9,0l9,14H0Z" transform="translate(825.999 6383.352) rotate(180)" fill="#2754ba"/>
    </g>
    <g id="Grupo_214752" data-name="Grupo 214752" transform="translate(-5766.743 7476.998) rotate(-90)">
      <path id="Trazado_180004-2" data-name="Trazado 180004" d="M0,0H19.42" transform="translate(817 6361.101) rotate(90)" fill="none" stroke="#1b3f5e" stroke-width="2"/>
      <path id="Polígono_7-2" data-name="Polígono 7" d="M9,0l9,14H0Z" transform="translate(825.999 6383.352) rotate(180)" fill="#1b3f5e"/>
    </g>
    <g id="Grupo_214753" data-name="Grupo 214753" transform="translate(-5628.352 7476.998) rotate(-90)">
      <path id="Trazado_180004-3" data-name="Trazado 180004" d="M0,0H19.42" transform="translate(817 6361.101) rotate(90)" fill="none" stroke="#1b3f5e" stroke-width="2"/>
      <path id="Polígono_7-3" data-name="Polígono 7" d="M9,0l9,14H0Z" transform="translate(825.999 6383.352) rotate(180)" fill="#1b3f5e"/>
    </g>
    <g id="Grupo_214751" data-name="Grupo 214751" transform="translate(-6041.101 7476.998) rotate(-90)">
      <path id="Trazado_180004-4" data-name="Trazado 180004" d="M0,0H19.42" transform="translate(817 6361.101) rotate(90)" fill="none" stroke="#3156b4" stroke-width="2"/>
      <path id="Polígono_7-4" data-name="Polígono 7" d="M9,0l9,14H0Z" transform="translate(825.999 6383.352) rotate(180)" fill="#2754ba"/>
    </g>
    <g id="Rectángulo_67095" data-name="Rectángulo 67095" transform="translate(348 6596)" fill="#fff" stroke="#3156b4" stroke-width="5">
      <rect width="107" height="139" stroke="none"/>
      <rect x="2.5" y="2.5" width="102" height="134" fill="none"/>
    </g>
    <g id="Rectángulo_67098" data-name="Rectángulo 67098" transform="translate(484 6596)" fill="#fff" stroke="#ef8933" stroke-width="5">
      <rect width="107" height="139" stroke="none"/>
      <rect x="2.5" y="2.5" width="102" height="134" fill="none"/>
    </g>
    <g id="Rectángulo_67099" data-name="Rectángulo 67099" transform="translate(620 6596)" fill="#fff" stroke="#ef8933" stroke-width="5">
      <rect width="107" height="139" stroke="none"/>
      <rect x="2.5" y="2.5" width="102" height="134" fill="none"/>
    </g>
    <text id="HASH" transform="translate(361 6706)" fill="#2754ba" font-size="18" font-family="Roboto-BlackItalic, Roboto" font-weight="800" font-style="italic"><tspan x="0" y="19">HASH</tspan></text>
    <text id="HASH-2" data-name="HASH" transform="translate(633 6706)" fill="#1b3f5e" font-size="18" font-family="Roboto-BlackItalic, Roboto" font-weight="800" font-style="italic"><tspan x="0" y="19">HASH</tspan></text>
    <text id="HASH-3" data-name="HASH" transform="translate(500 6706)" fill="#1b3f5e" font-size="18" font-family="Roboto-BlackItalic, Roboto" font-weight="800" font-style="italic"><tspan x="0" y="19">HASH</tspan></text>
    <g id="Grupo_214756" data-name="Grupo 214756" transform="translate(6 1178)">
      <g id="Elipse_5055" data-name="Elipse 5055" transform="translate(494 5451)" fill="#c7b8df" stroke="#000" stroke-width="2">
        <circle cx="7.5" cy="7.5" r="7.5" stroke="none"/>
        <circle cx="7.5" cy="7.5" r="6.5" fill="none"/>
      </g>
      <text id="T-A37" transform="translate(514 5451)" fill="#12263f" font-size="13" font-family="Roboto-Bold, Roboto" font-weight="700"><tspan x="0" y="14">T-A37</tspan></text>
    </g>
    <g id="Grupo_214755" data-name="Grupo 214755" transform="translate(6 1181)">
      <g id="Elipse_5054" data-name="Elipse 5054" transform="translate(494 5471)" fill="#1b3f5e" stroke="#000" stroke-width="2">
        <circle cx="7.5" cy="7.5" r="7.5" stroke="none"/>
        <circle cx="7.5" cy="7.5" r="6.5" fill="none"/>
      </g>
      <text id="T-4B8" transform="translate(514 5471)" fill="#1b3f5e" font-size="13" font-family="Roboto-Bold, Roboto" font-weight="700"><tspan x="0" y="14">T-4B8</tspan></text>
    </g>
    <g id="Grupo_214754" data-name="Grupo 214754" transform="translate(6 1184)">
      <g id="Elipse_5056" data-name="Elipse 5056" transform="translate(494 5491)" fill="#c7b8df" stroke="#000" stroke-width="2">
        <circle cx="7.5" cy="7.5" r="7.5" stroke="none"/>
        <circle cx="7.5" cy="7.5" r="6.5" fill="none"/>
      </g>
      <text id="T-5Z1" transform="translate(514 5491)" fill="#12263f" font-size="13" font-family="Roboto-Bold, Roboto" font-weight="700"><tspan x="0" y="14">T-5Z1</tspan></text>
    </g>
    <g id="Grupo_214759" data-name="Grupo 214759" transform="translate(34 1188)">
      <g id="Grupo_214758" data-name="Grupo 214758">
        <text id="TRANSACCIÓN_EDITADA" data-name="TRANSACCIÓN EDITADA" transform="translate(367 5561)" fill="#12263f" font-size="13" font-family="Roboto-Bold, Roboto" font-weight="700"><tspan x="0" y="14">TRANSACCIÓN </tspan><tspan x="0" y="32">EDITADA</tspan></text>
        <g id="Elipse_5054-2" data-name="Elipse 5054" transform="translate(348 5561)" fill="#1b3f5e" stroke="#000" stroke-width="2">
          <circle cx="7.5" cy="7.5" r="7.5" stroke="none"/>
          <circle cx="7.5" cy="7.5" r="6.5" fill="none"/>
        </g>
      </g>
      <g id="Grupo_214757" data-name="Grupo 214757">
        <text id="BLOQUE_INVÁLIDO" data-name="BLOQUE INVÁLIDO" transform="translate(548 5561)" fill="#12263f" font-size="13" font-family="Roboto-Bold, Roboto" font-weight="700"><tspan x="0" y="14">BLOQUE INVÁLIDO</tspan></text>
        <g id="Rectángulo_67100" data-name="Rectángulo 67100" transform="translate(530 5561)" fill="#fff" stroke="#ef8933" stroke-width="2">
          <rect width="15" height="15" stroke="none"/>
          <rect x="1" y="1" width="13" height="13" fill="none"/>
        </g>
      </g>
    </g>
  </g>
</svg>
