<svg xmlns="http://www.w3.org/2000/svg" width="455" height="196" viewBox="0 0 455 196">
  <g id="Grupo_217270" data-name="Grupo 217270" transform="translate(-895 -5296)">
    <rect id="Rectángulo_67089" data-name="Rectángulo 67089" width="455" height="196" transform="translate(895 5296)" fill="#fff"/>
    <path id="Intersección_1" data-name="Intersección 1" d="M-1465,11902a327.783,327.783,0,0,1,215-80,327.789,327.789,0,0,1,215,80Z" transform="translate(2372.998 -6410)" fill="#727997"/>
    <g id="Rectángulo_67092" data-name="Rectángulo 67092" transform="translate(916 5307)" fill="#fff" stroke="#000" stroke-width="1">
      <rect width="413" height="49" stroke="none"/>
      <rect x="0.5" y="0.5" width="412" height="48" fill="none"/>
    </g>
    <g id="Rectángulo_67093" data-name="Rectángulo 67093" transform="translate(1043 5375)" fill="#fff" stroke="#000" stroke-width="1">
      <rect width="159" height="31" stroke="none"/>
      <rect x="0.5" y="0.5" width="158" height="30" fill="none"/>
    </g>
    <g id="Grupo_214746" data-name="Grupo 214746" transform="translate(258 -1031.855)">
      <path id="Trazado_217335" data-name="Trazado 217335" d="M6.953,13.8H5.445L4.883,17H3.453l.563-3.2H2.242V12.453H4.25l.391-2.219H2.828V8.875H4.883l.57-3.25H6.875L6.3,8.875H7.82l.57-3.25H9.82l-.57,3.25h1.711v1.359H9.008l-.391,2.219h1.75V13.8H8.383L7.82,17H6.391ZM5.68,12.453H7.188l.391-2.219H6.063ZM16.273,17V5.625h3.984a5.232,5.232,0,0,1,3.141.793,2.712,2.712,0,0,1,1.07,2.324,2.57,2.57,0,0,1-.43,1.473,2.482,2.482,0,0,1-1.2.934,2.4,2.4,0,0,1,1.379.883,2.61,2.61,0,0,1,.5,1.625,3,3,0,0,1-1.047,2.484A4.713,4.713,0,0,1,20.7,17Zm2.344-4.953v3.07h2.008a1.938,1.938,0,0,0,1.293-.395,1.353,1.353,0,0,0,.465-1.09,1.428,1.428,0,0,0-1.617-1.586Zm0-1.656h1.734q1.773-.031,1.773-1.414a1.307,1.307,0,0,0-.449-1.113,2.363,2.363,0,0,0-1.418-.34H18.617Zm10.211,4.727H33.8V17h-7.32V5.625h2.344ZM43.992,11.57a6.867,6.867,0,0,1-.594,2.945,4.472,4.472,0,0,1-1.7,1.953,5.021,5.021,0,0,1-5.059.008,4.515,4.515,0,0,1-1.719-1.941,6.67,6.67,0,0,1-.617-2.9V11.07a6.831,6.831,0,0,1,.605-2.957,4.508,4.508,0,0,1,1.711-1.961,5.014,5.014,0,0,1,5.055,0,4.508,4.508,0,0,1,1.711,1.961,6.811,6.811,0,0,1,.605,2.949Zm-2.375-.516a4.787,4.787,0,0,0-.641-2.719,2.263,2.263,0,0,0-3.648-.012,4.732,4.732,0,0,0-.648,2.691v.555a4.847,4.847,0,0,0,.641,2.7,2.243,2.243,0,0,0,3.656.035,4.819,4.819,0,0,0,.641-2.7Zm13.406.516a6.853,6.853,0,0,1-.516,2.77,4.754,4.754,0,0,1-1.43,1.887l1.891,1.484-1.492,1.32-2.422-1.945a5.126,5.126,0,0,1-.859.07,4.732,4.732,0,0,1-2.523-.68,4.515,4.515,0,0,1-1.719-1.941,6.67,6.67,0,0,1-.617-2.9V11.07a6.831,6.831,0,0,1,.605-2.957,4.508,4.508,0,0,1,1.711-1.961,5.014,5.014,0,0,1,5.055,0,4.508,4.508,0,0,1,1.711,1.961,6.811,6.811,0,0,1,.605,2.949Zm-2.375-.516a4.787,4.787,0,0,0-.641-2.719,2.263,2.263,0,0,0-3.648-.012,4.732,4.732,0,0,0-.648,2.691v.555a4.847,4.847,0,0,0,.641,2.7,2.243,2.243,0,0,0,3.656.035,4.819,4.819,0,0,0,.641-2.7Zm12.7-5.43v7.492a3.836,3.836,0,0,1-1.168,2.953,4.5,4.5,0,0,1-3.191,1.086A4.553,4.553,0,0,1,57.828,16.1a3.77,3.77,0,0,1-1.2-2.9V5.625h2.344v7.508a2.167,2.167,0,0,0,.535,1.629,2.054,2.054,0,0,0,1.48.512q1.977,0,2.008-2.078V5.625Zm8.766,6.445h-4.5v3.047H74.9V17H67.273V5.625h7.609v1.9H69.617v2.711h4.5Z" transform="translate(665 6354.355)" fill="#12263f"/>
      <path id="Trazado_217336" data-name="Trazado 217336" d="M11.105,17H8.762V12.125H4.191V17H1.848V5.625H4.191v4.609h4.57V5.625h2.344Zm8.609-2.344H15.605L14.824,17H12.332L16.566,5.625h2.172L23,17H20.5Zm-3.477-1.9h2.844L17.652,8.5Zm13.719,1.258A1.2,1.2,0,0,0,29.488,13a6.148,6.148,0,0,0-1.687-.75,11.963,11.963,0,0,1-1.93-.777,3.153,3.153,0,0,1-1.937-2.82A2.747,2.747,0,0,1,24.453,7a3.389,3.389,0,0,1,1.492-1.129,5.616,5.616,0,0,1,2.184-.406A5.112,5.112,0,0,1,30.3,5.91a3.458,3.458,0,0,1,1.48,1.246,3.261,3.261,0,0,1,.527,1.828H29.965a1.534,1.534,0,0,0-.492-1.215,2.023,2.023,0,0,0-1.383-.434,2.162,2.162,0,0,0-1.336.363,1.146,1.146,0,0,0-.477.957,1.1,1.1,0,0,0,.559.93,6.311,6.311,0,0,0,1.645.7,7.106,7.106,0,0,1,2.914,1.492A2.972,2.972,0,0,1,32.309,14a2.737,2.737,0,0,1-1.117,2.316,4.891,4.891,0,0,1-3.008.84,5.808,5.808,0,0,1-2.391-.48,3.783,3.783,0,0,1-1.645-1.316,3.371,3.371,0,0,1-.566-1.937h2.352q0,1.883,2.25,1.883a2.189,2.189,0,0,0,1.3-.34A1.106,1.106,0,0,0,29.957,14.016ZM43.152,17H40.809V12.125h-4.57V17H33.895V5.625h2.344v4.609h4.57V5.625h2.344Zm6.031,0V5.625h3.984a5.232,5.232,0,0,1,3.141.793,2.712,2.712,0,0,1,1.07,2.324,2.57,2.57,0,0,1-.43,1.473,2.482,2.482,0,0,1-1.2.934,2.4,2.4,0,0,1,1.379.883,2.61,2.61,0,0,1,.5,1.625,3,3,0,0,1-1.047,2.484A4.713,4.713,0,0,1,53.605,17Zm2.344-4.953v3.07h2.008a1.938,1.938,0,0,0,1.293-.395,1.353,1.353,0,0,0,.465-1.09,1.428,1.428,0,0,0-1.617-1.586Zm0-1.656h1.734q1.773-.031,1.773-1.414a1.307,1.307,0,0,0-.449-1.113,2.363,2.363,0,0,0-1.418-.34H51.527Zm10.211,4.727h4.977V17h-7.32V5.625h2.344ZM76.9,11.57a6.867,6.867,0,0,1-.594,2.945,4.472,4.472,0,0,1-1.7,1.953,5.021,5.021,0,0,1-5.059.008,4.515,4.515,0,0,1-1.719-1.941,6.67,6.67,0,0,1-.617-2.9V11.07a6.831,6.831,0,0,1,.605-2.957,4.508,4.508,0,0,1,1.711-1.961,5.014,5.014,0,0,1,5.055,0A4.508,4.508,0,0,1,76.3,8.113a6.811,6.811,0,0,1,.605,2.949Zm-2.375-.516a4.787,4.787,0,0,0-.641-2.719,2.263,2.263,0,0,0-3.648-.012,4.732,4.732,0,0,0-.648,2.691v.555a4.847,4.847,0,0,0,.641,2.7,2.243,2.243,0,0,0,3.656.035,4.819,4.819,0,0,0,.641-2.7Zm13.406.516a6.853,6.853,0,0,1-.516,2.77,4.754,4.754,0,0,1-1.43,1.887l1.891,1.484-1.492,1.32-2.422-1.945a5.126,5.126,0,0,1-.859.07,4.732,4.732,0,0,1-2.523-.68,4.515,4.515,0,0,1-1.719-1.941,6.67,6.67,0,0,1-.617-2.9V11.07a6.831,6.831,0,0,1,.605-2.957,4.508,4.508,0,0,1,1.711-1.961,5.014,5.014,0,0,1,5.055,0,4.508,4.508,0,0,1,1.711,1.961,6.811,6.811,0,0,1,.605,2.949Zm-2.375-.516a4.787,4.787,0,0,0-.641-2.719,2.263,2.263,0,0,0-3.648-.012,4.732,4.732,0,0,0-.648,2.691v.555a4.847,4.847,0,0,0,.641,2.7,2.243,2.243,0,0,0,3.656.035,4.819,4.819,0,0,0,.641-2.7Zm12.7-5.43v7.492a3.836,3.836,0,0,1-1.168,2.953A4.5,4.5,0,0,1,93.9,17.156,4.553,4.553,0,0,1,90.738,16.1a3.77,3.77,0,0,1-1.2-2.9V5.625h2.344v7.508a2.167,2.167,0,0,0,.535,1.629,2.054,2.054,0,0,0,1.48.512q1.977,0,2.008-2.078V5.625Zm8.766,6.445h-4.5v3.047h5.281V17h-7.625V5.625h7.609v1.9h-5.266v2.711h4.5ZM30.008,36.992V41H27.664V29.625H32.1a5.134,5.134,0,0,1,2.254.469,3.454,3.454,0,0,1,1.5,1.332,3.714,3.714,0,0,1,.523,1.965,3.266,3.266,0,0,1-1.145,2.637,4.767,4.767,0,0,1-3.168.965Zm0-1.9H32.1a2.059,2.059,0,0,0,1.418-.437,1.591,1.591,0,0,0,.488-1.25,1.876,1.876,0,0,0-.492-1.352,1.839,1.839,0,0,0-1.359-.531H30.008ZM42.2,36.836H40.328V41H37.984V29.625h4.227a4.778,4.778,0,0,1,3.109.9,3.1,3.1,0,0,1,1.094,2.539A3.5,3.5,0,0,1,45.91,35a3.437,3.437,0,0,1-1.527,1.238l2.461,4.648V41H44.328Zm-1.867-1.9h1.891a1.936,1.936,0,0,0,1.367-.449,1.606,1.606,0,0,0,.484-1.238,1.719,1.719,0,0,0-.457-1.266,1.9,1.9,0,0,0-1.4-.461H40.328ZM55.039,36.07h-4.5v3.047H55.82V41H48.2V29.625H55.8v1.9H50.539v2.711h4.5ZM61.4,38.18l2.578-8.555h2.609L62.625,41H60.18L56.234,29.625h2.6ZM70.148,41H67.8V29.625h2.344Zm11.516-5.43a6.867,6.867,0,0,1-.594,2.945,4.472,4.472,0,0,1-1.7,1.953,5.021,5.021,0,0,1-5.059.008,4.515,4.515,0,0,1-1.719-1.941,6.67,6.67,0,0,1-.617-2.9V35.07a6.831,6.831,0,0,1,.605-2.957,4.508,4.508,0,0,1,1.711-1.961,5.014,5.014,0,0,1,5.055,0,4.508,4.508,0,0,1,1.711,1.961,6.811,6.811,0,0,1,.605,2.949Zm-2.375-.516a4.787,4.787,0,0,0-.641-2.719A2.263,2.263,0,0,0,75,32.324a4.732,4.732,0,0,0-.648,2.691v.555a4.847,4.847,0,0,0,.641,2.7,2.243,2.243,0,0,0,3.656.035,4.819,4.819,0,0,0,.641-2.7Z" transform="translate(774 6341.855)" fill="#12263f"/>
      <path id="Trazado_217337" data-name="Trazado 217337" d="M14.148,12.352h-4.5V17H7.3V5.625h7.406v1.9H9.648v2.938h4.5ZM18.563,17H16.219V5.625h2.344Zm6.383-4.164H23.078V17H20.734V5.625h4.227a4.778,4.778,0,0,1,3.109.9,3.1,3.1,0,0,1,1.094,2.539A3.5,3.5,0,0,1,28.66,11a3.437,3.437,0,0,1-1.527,1.238l2.461,4.648V17H27.078Zm-1.867-1.9h1.891a1.936,1.936,0,0,0,1.367-.449A1.606,1.606,0,0,0,26.82,9.25a1.719,1.719,0,0,0-.457-1.266,1.9,1.9,0,0,0-1.4-.461H23.078Zm10.93-5.312,2.922,8.25,2.906-8.25h3.078V17H40.563V13.891L40.8,8.523,37.727,17H36.117L33.055,8.531l.234,5.359V17H30.945V5.625Zm17.375,9.031H47.273L46.492,17H44L48.234,5.625h2.172L54.664,17H52.172Zm-3.477-1.9H50.75L49.32,8.5ZM2.008,41V29.625h3.5a5.315,5.315,0,0,1,2.684.676,4.712,4.712,0,0,1,1.848,1.922,5.928,5.928,0,0,1,.664,2.832v.523a5.945,5.945,0,0,1-.652,2.82,4.672,4.672,0,0,1-1.84,1.914A5.355,5.355,0,0,1,5.531,41Zm2.344-9.477v7.594H5.484a2.545,2.545,0,0,0,2.1-.9,4.06,4.06,0,0,0,.742-2.57v-.6a4.124,4.124,0,0,0-.719-2.629,2.537,2.537,0,0,0-2.1-.895ZM14.9,41H12.555V29.625H14.9ZM26.07,39.563a4.068,4.068,0,0,1-1.789,1.176,7.492,7.492,0,0,1-2.562.418,5.076,5.076,0,0,1-2.59-.645,4.3,4.3,0,0,1-1.719-1.871,6.585,6.585,0,0,1-.621-2.883v-.773a6.994,6.994,0,0,1,.574-2.949,4.248,4.248,0,0,1,1.656-1.906,4.771,4.771,0,0,1,2.535-.66,4.751,4.751,0,0,1,3.164.965,4.123,4.123,0,0,1,1.352,2.809H23.789a2.268,2.268,0,0,0-.691-1.43,2.208,2.208,0,0,0-1.473-.453,2.078,2.078,0,0,0-1.82.9,4.724,4.724,0,0,0-.633,2.672v.727a4.5,4.5,0,0,0,.68,2.7,2.327,2.327,0,0,0,1.992.914,2.6,2.6,0,0,0,1.883-.562V36.75H21.594V35.023H26.07ZM30.461,41H28.117V29.625h2.344ZM41.2,31.523H37.711V41H35.367V31.523H31.93v-1.9H41.2Zm6.82,7.133H43.906L43.125,41H40.633l4.234-11.375h2.172L51.3,41H48.8Zm-3.477-1.9h2.844L45.953,32.5ZM54.7,39.117H59.68V41h-7.32V29.625H54.7Z" transform="translate(915 6341.855)" fill="#12263f"/>
      <path id="Trazado_217338" data-name="Trazado 217338" d="M11.711,17H9.367L4.8,9.516V17H2.461V5.625H4.8l4.57,7.5v-7.5h2.336ZM23.1,11.57a6.867,6.867,0,0,1-.594,2.945,4.472,4.472,0,0,1-1.7,1.953,5.021,5.021,0,0,1-5.059.008,4.515,4.515,0,0,1-1.719-1.941,6.67,6.67,0,0,1-.617-2.9V11.07a6.831,6.831,0,0,1,.605-2.957A4.508,4.508,0,0,1,15.73,6.152a5.014,5.014,0,0,1,5.055,0A4.508,4.508,0,0,1,22.5,8.113a6.811,6.811,0,0,1,.605,2.949Zm-2.375-.516a4.787,4.787,0,0,0-.641-2.719,2.263,2.263,0,0,0-3.648-.012,4.732,4.732,0,0,0-.648,2.691v.555a4.847,4.847,0,0,0,.641,2.7,2.243,2.243,0,0,0,3.656.035,4.819,4.819,0,0,0,.641-2.7ZM34.055,17H31.711L27.148,9.516V17H24.8V5.625h2.344l4.57,7.5v-7.5h2.336Zm10.977-3.789A4.025,4.025,0,0,1,43.676,16.1a4.76,4.76,0,0,1-3.223,1.055,4.28,4.28,0,0,1-3.441-1.473,6.038,6.038,0,0,1-1.254-4.043v-.7a6.819,6.819,0,0,1,.578-2.891,4.332,4.332,0,0,1,1.652-1.918,5.164,5.164,0,0,1,5.668.387,4.326,4.326,0,0,1,1.391,2.961H42.7a2.376,2.376,0,0,0-.613-1.6,2.271,2.271,0,0,0-1.605-.5,1.991,1.991,0,0,0-1.754.84,4.707,4.707,0,0,0-.6,2.605V11.7a5.038,5.038,0,0,0,.559,2.7,1.954,1.954,0,0,0,1.762.852,2.314,2.314,0,0,0,1.621-.5,2.241,2.241,0,0,0,.613-1.535Zm8.383-1.141h-4.5v3.047H54.2V17H46.57V5.625H54.18v1.9H48.914v2.711h4.5Z" transform="translate(1008 6354.355)" fill="#12263f"/>
      <text id="_" data-name="+" transform="translate(752 6354.355)" fill="#12263f" font-size="16" font-family="Roboto-Bold, Roboto" font-weight="700"><tspan x="-4.367" y="17">+</tspan></text>
      <text id="_2" data-name="+" transform="translate(893 6354.355)" fill="#12263f" font-size="16" font-family="Roboto-Bold, Roboto" font-weight="700"><tspan x="-4.367" y="17">+</tspan></text>
      <text id="_3" data-name="+" transform="translate(986 6354.355)" fill="#12263f" font-size="16" font-family="Roboto-Bold, Roboto" font-weight="700"><tspan x="-4.367" y="17">+</tspan></text>
    </g>
    <path id="Trazado_217339" data-name="Trazado 217339" d="M12.656,12.352h-4.5V17H5.813V5.625h7.406v1.9H8.156v2.938h4.5ZM23.188,5.625v7.492A3.836,3.836,0,0,1,22.02,16.07a4.5,4.5,0,0,1-3.191,1.086A4.553,4.553,0,0,1,15.664,16.1a3.77,3.77,0,0,1-1.2-2.9V5.625h2.344v7.508a2.167,2.167,0,0,0,.535,1.629,2.054,2.054,0,0,0,1.48.512q1.977,0,2.008-2.078V5.625ZM34.359,17H32.016L27.453,9.516V17H25.109V5.625h2.344l4.57,7.5v-7.5h2.336Zm10.977-3.789A4.025,4.025,0,0,1,43.98,16.1a4.76,4.76,0,0,1-3.223,1.055,4.28,4.28,0,0,1-3.441-1.473,6.038,6.038,0,0,1-1.254-4.043v-.7a6.819,6.819,0,0,1,.578-2.891,4.332,4.332,0,0,1,1.652-1.918,5.164,5.164,0,0,1,5.668.387,4.326,4.326,0,0,1,1.391,2.961H43.008a2.376,2.376,0,0,0-.613-1.6,2.271,2.271,0,0,0-1.605-.5,1.991,1.991,0,0,0-1.754.84,4.707,4.707,0,0,0-.6,2.605V11.7a5.038,5.038,0,0,0,.559,2.7,1.954,1.954,0,0,0,1.762.852,2.314,2.314,0,0,0,1.621-.5,2.241,2.241,0,0,0,.613-1.535ZM49.367,17H47.023V5.625h2.344Zm11.516-5.43a6.867,6.867,0,0,1-.594,2.945,4.472,4.472,0,0,1-1.7,1.953,5.021,5.021,0,0,1-5.059.008,4.515,4.515,0,0,1-1.719-1.941,6.67,6.67,0,0,1-.617-2.9V11.07A6.831,6.831,0,0,1,51.8,8.113a4.508,4.508,0,0,1,1.711-1.961,5.014,5.014,0,0,1,5.055,0,4.508,4.508,0,0,1,1.711,1.961,6.811,6.811,0,0,1,.605,2.949Zm-2.375-.516a4.787,4.787,0,0,0-.641-2.719,2.263,2.263,0,0,0-3.648-.012,4.732,4.732,0,0,0-.648,2.691v.555a4.847,4.847,0,0,0,.641,2.7,2.243,2.243,0,0,0,3.656.035,4.819,4.819,0,0,0,.641-2.7ZM56.492,2.578h2.461L56.789,5H54.953ZM71.836,17H69.492L64.93,9.516V17H62.586V5.625H64.93l4.57,7.5v-7.5h2.336Zm15.289,0H84.781V12.125h-4.57V17H77.867V5.625h2.344v4.609h4.57V5.625h2.344Zm8.609-2.344H91.625L90.844,17H88.352L92.586,5.625h2.172L99.016,17H96.523Zm-3.477-1.9H95.1L93.672,8.5Zm13.719,1.258a1.2,1.2,0,0,0-.469-1.02,6.148,6.148,0,0,0-1.687-.75,11.963,11.963,0,0,1-1.93-.777,3.153,3.153,0,0,1-1.937-2.82A2.747,2.747,0,0,1,100.473,7a3.389,3.389,0,0,1,1.492-1.129,5.616,5.616,0,0,1,2.184-.406,5.112,5.112,0,0,1,2.172.441,3.458,3.458,0,0,1,1.48,1.246,3.261,3.261,0,0,1,.527,1.828h-2.344a1.534,1.534,0,0,0-.492-1.215,2.023,2.023,0,0,0-1.383-.434,2.162,2.162,0,0,0-1.336.363,1.146,1.146,0,0,0-.477.957,1.1,1.1,0,0,0,.559.93,6.311,6.311,0,0,0,1.645.7,7.106,7.106,0,0,1,2.914,1.492A2.972,2.972,0,0,1,108.328,14a2.737,2.737,0,0,1-1.117,2.316,4.891,4.891,0,0,1-3.008.84,5.808,5.808,0,0,1-2.391-.48,3.783,3.783,0,0,1-1.645-1.316,3.371,3.371,0,0,1-.566-1.937h2.352q0,1.883,2.25,1.883a2.189,2.189,0,0,0,1.3-.34A1.106,1.106,0,0,0,105.977,14.016ZM119.172,17h-2.344V12.125h-4.57V17h-2.344V5.625h2.344v4.609h4.57V5.625h2.344Z" transform="translate(1060 5381)" fill="#12263f"/>
    <path id="Trazado_217340" data-name="Trazado 217340" d="M5.07,12.992V17H2.727V5.625H7.164a5.134,5.134,0,0,1,2.254.469,3.454,3.454,0,0,1,1.5,1.332,3.714,3.714,0,0,1,.523,1.965,3.266,3.266,0,0,1-1.145,2.637,4.767,4.767,0,0,1-3.168.965Zm0-1.9H7.164a2.059,2.059,0,0,0,1.418-.437,1.591,1.591,0,0,0,.488-1.25,1.876,1.876,0,0,0-.492-1.352,1.839,1.839,0,0,0-1.359-.531H5.07Zm17.32.477a6.867,6.867,0,0,1-.594,2.945,4.472,4.472,0,0,1-1.7,1.953,5.021,5.021,0,0,1-5.059.008,4.515,4.515,0,0,1-1.719-1.941,6.67,6.67,0,0,1-.617-2.9V11.07a6.831,6.831,0,0,1,.605-2.957A4.508,4.508,0,0,1,15.02,6.152a5.014,5.014,0,0,1,5.055,0,4.508,4.508,0,0,1,1.711,1.961,6.811,6.811,0,0,1,.605,2.949Zm-2.375-.516a4.787,4.787,0,0,0-.641-2.719,2.088,2.088,0,0,0-1.828-.93,2.088,2.088,0,0,0-1.82.918,4.732,4.732,0,0,0-.648,2.691v.555a4.847,4.847,0,0,0,.641,2.7,2.082,2.082,0,0,0,1.844.961,2.064,2.064,0,0,0,1.813-.926,4.819,4.819,0,0,0,.641-2.7Zm9.977,2.961A1.2,1.2,0,0,0,29.523,13a6.148,6.148,0,0,0-1.687-.75,11.963,11.963,0,0,1-1.93-.777,3.153,3.153,0,0,1-1.937-2.82A2.747,2.747,0,0,1,24.488,7,3.389,3.389,0,0,1,25.98,5.875a5.616,5.616,0,0,1,2.184-.406,5.112,5.112,0,0,1,2.172.441,3.458,3.458,0,0,1,1.48,1.246,3.261,3.261,0,0,1,.527,1.828H30a1.534,1.534,0,0,0-.492-1.215,2.023,2.023,0,0,0-1.383-.434,2.162,2.162,0,0,0-1.336.363,1.146,1.146,0,0,0-.477.957,1.1,1.1,0,0,0,.559.93,6.311,6.311,0,0,0,1.645.7,7.106,7.106,0,0,1,2.914,1.492A2.972,2.972,0,0,1,32.344,14a2.737,2.737,0,0,1-1.117,2.316,4.891,4.891,0,0,1-3.008.84,5.808,5.808,0,0,1-2.391-.48,3.783,3.783,0,0,1-1.645-1.316,3.371,3.371,0,0,1-.566-1.937h2.352q0,1.883,2.25,1.883a2.189,2.189,0,0,0,1.3-.34A1.106,1.106,0,0,0,29.992,14.016ZM36.422,17H34.078V5.625h2.344Zm2.172,0V5.625h3.984a5.232,5.232,0,0,1,3.141.793,2.712,2.712,0,0,1,1.07,2.324,2.57,2.57,0,0,1-.43,1.473,2.482,2.482,0,0,1-1.2.934,2.4,2.4,0,0,1,1.379.883,2.61,2.61,0,0,1,.5,1.625A3,3,0,0,1,46,16.141,4.713,4.713,0,0,1,43.016,17Zm2.344-4.953v3.07h2.008a1.938,1.938,0,0,0,1.293-.395,1.353,1.353,0,0,0,.465-1.09,1.428,1.428,0,0,0-1.617-1.586Zm0-1.656h1.734q1.773-.031,1.773-1.414A1.307,1.307,0,0,0,44,7.863a2.363,2.363,0,0,0-1.418-.34H40.938Zm10.211,4.727h4.977V17H48.8V5.625h2.344ZM64.313,12.07h-4.5v3.047h5.281V17H57.469V5.625h7.609v1.9H59.813v2.711h4.5Zm8.055,1.945A1.2,1.2,0,0,0,71.9,13a6.148,6.148,0,0,0-1.687-.75,11.963,11.963,0,0,1-1.93-.777,3.153,3.153,0,0,1-1.937-2.82A2.747,2.747,0,0,1,66.863,7a3.389,3.389,0,0,1,1.492-1.129,5.616,5.616,0,0,1,2.184-.406,5.112,5.112,0,0,1,2.172.441,3.458,3.458,0,0,1,1.48,1.246,3.261,3.261,0,0,1,.527,1.828H72.375a1.534,1.534,0,0,0-.492-1.215A2.023,2.023,0,0,0,70.5,7.336a2.162,2.162,0,0,0-1.336.363,1.146,1.146,0,0,0-.477.957,1.1,1.1,0,0,0,.559.93,6.311,6.311,0,0,0,1.645.7A7.106,7.106,0,0,1,73.8,11.781,2.972,2.972,0,0,1,74.719,14,2.737,2.737,0,0,1,73.6,16.316a4.891,4.891,0,0,1-3.008.84,5.808,5.808,0,0,1-2.391-.48,3.783,3.783,0,0,1-1.645-1.316,3.371,3.371,0,0,1-.566-1.937h2.352q0,1.883,2.25,1.883a2.189,2.189,0,0,0,1.3-.34A1.106,1.106,0,0,0,72.367,14.016ZM17.68,41H15.336V36.125h-4.57V41H8.422V29.625h2.344v4.609h4.57V29.625H17.68Zm8.609-2.344H22.18L21.4,41H18.906l4.234-11.375h2.172L29.57,41H27.078Zm-3.477-1.9h2.844L24.227,32.5Zm13.719,1.258A1.2,1.2,0,0,0,36.063,37a6.148,6.148,0,0,0-1.687-.75,11.963,11.963,0,0,1-1.93-.777,3.153,3.153,0,0,1-1.937-2.82A2.747,2.747,0,0,1,31.027,31a3.389,3.389,0,0,1,1.492-1.129,5.616,5.616,0,0,1,2.184-.406,5.112,5.112,0,0,1,2.172.441,3.458,3.458,0,0,1,1.48,1.246,3.261,3.261,0,0,1,.527,1.828H36.539a1.534,1.534,0,0,0-.492-1.215,2.023,2.023,0,0,0-1.383-.434,2.162,2.162,0,0,0-1.336.363,1.146,1.146,0,0,0-.477.957,1.1,1.1,0,0,0,.559.93,6.311,6.311,0,0,0,1.645.7,7.106,7.106,0,0,1,2.914,1.492A2.972,2.972,0,0,1,38.883,38a2.737,2.737,0,0,1-1.117,2.316,4.891,4.891,0,0,1-3.008.84,5.808,5.808,0,0,1-2.391-.48,3.783,3.783,0,0,1-1.645-1.316,3.371,3.371,0,0,1-.566-1.937h2.352q0,1.883,2.25,1.883a2.189,2.189,0,0,0,1.3-.34A1.106,1.106,0,0,0,36.531,38.016ZM49.727,41H47.383V36.125h-4.57V41H40.469V29.625h2.344v4.609h4.57V29.625h2.344Zm8.891-4.93h-4.5v3.047H59.4V41H51.773V29.625h7.609v1.9H54.117v2.711h4.5Zm8.055,1.945A1.2,1.2,0,0,0,66.2,37a6.148,6.148,0,0,0-1.687-.75,11.963,11.963,0,0,1-1.93-.777,3.153,3.153,0,0,1-1.937-2.82A2.747,2.747,0,0,1,61.168,31a3.389,3.389,0,0,1,1.492-1.129,5.616,5.616,0,0,1,2.184-.406,5.112,5.112,0,0,1,2.172.441,3.458,3.458,0,0,1,1.48,1.246,3.261,3.261,0,0,1,.527,1.828H66.68a1.534,1.534,0,0,0-.492-1.215,2.023,2.023,0,0,0-1.383-.434,2.162,2.162,0,0,0-1.336.363,1.146,1.146,0,0,0-.477.957,1.1,1.1,0,0,0,.559.93,6.311,6.311,0,0,0,1.645.7,7.106,7.106,0,0,1,2.914,1.492A2.972,2.972,0,0,1,69.023,38a2.737,2.737,0,0,1-1.117,2.316,4.891,4.891,0,0,1-3.008.84,5.808,5.808,0,0,1-2.391-.48,3.783,3.783,0,0,1-1.645-1.316,3.371,3.371,0,0,1-.566-1.937h2.352q0,1.883,2.25,1.883a2.189,2.189,0,0,0,1.3-.34A1.106,1.106,0,0,0,66.672,38.016Z" transform="translate(1036 5434)" fill="#fff"/>
    <g id="Elipse_5053" data-name="Elipse 5053" transform="translate(1143 5421)" fill="#ff8900" stroke="#5f6686" stroke-width="3">
      <circle cx="34.5" cy="34.5" r="34.5" stroke="none"/>
      <circle cx="34.5" cy="34.5" r="33" fill="none"/>
    </g>
    <path id="Trazado_217341" data-name="Trazado 217341" d="M9.115,11.708l2.095-6.951h2.12L10.111,14H8.124L4.919,4.758H7.032Zm9.826.387H15.6L14.967,14H12.942l3.44-9.242h1.765L21.607,14H19.582Zm-2.825-1.542h2.311L17.265,7.094Zm11.146,1.022a.977.977,0,0,0-.381-.828,5,5,0,0,0-1.371-.609,9.72,9.72,0,0,1-1.568-.632,2.562,2.562,0,0,1-1.574-2.292,2.232,2.232,0,0,1,.422-1.336A2.753,2.753,0,0,1,24,4.961a4.563,4.563,0,0,1,1.774-.33,4.154,4.154,0,0,1,1.765.359A2.81,2.81,0,0,1,28.745,6a2.649,2.649,0,0,1,.428,1.485h-1.9a1.246,1.246,0,0,0-.4-.987,1.644,1.644,0,0,0-1.124-.352,1.756,1.756,0,0,0-1.085.3.931.931,0,0,0-.387.778.892.892,0,0,0,.454.755,5.128,5.128,0,0,0,1.336.571A5.773,5.773,0,0,1,28.43,9.76a2.415,2.415,0,0,1,.743,1.8,2.224,2.224,0,0,1-.908,1.882,3.974,3.974,0,0,1-2.444.682,4.719,4.719,0,0,1-1.942-.39,3.074,3.074,0,0,1-1.336-1.07,2.739,2.739,0,0,1-.46-1.574h1.911q0,1.53,1.828,1.53a1.778,1.778,0,0,0,1.06-.276A.9.9,0,0,0,27.262,11.575ZM37.984,14h-1.9V10.039H32.366V14h-1.9V4.758h1.9V8.5h3.713V4.758h1.9Zm7.224-4.005H41.551V12.47h4.291V14h-6.2V4.758h6.183V6.3H41.551V8.5h3.656Zm6.544,1.581a.977.977,0,0,0-.381-.828A5,5,0,0,0,50,10.137a9.72,9.72,0,0,1-1.568-.632,2.562,2.562,0,0,1-1.574-2.292,2.232,2.232,0,0,1,.422-1.336,2.753,2.753,0,0,1,1.212-.917,4.563,4.563,0,0,1,1.774-.33,4.154,4.154,0,0,1,1.765.359A2.81,2.81,0,0,1,53.234,6a2.649,2.649,0,0,1,.428,1.485h-1.9a1.246,1.246,0,0,0-.4-.987,1.644,1.644,0,0,0-1.124-.352,1.756,1.756,0,0,0-1.085.3.931.931,0,0,0-.387.778.892.892,0,0,0,.454.755,5.128,5.128,0,0,0,1.336.571A5.773,5.773,0,0,1,52.92,9.76a2.415,2.415,0,0,1,.743,1.8,2.224,2.224,0,0,1-.908,1.882,3.974,3.974,0,0,1-2.444.682,4.719,4.719,0,0,1-1.942-.39,3.074,3.074,0,0,1-1.336-1.07,2.739,2.739,0,0,1-.46-1.574h1.911q0,1.53,1.828,1.53a1.778,1.778,0,0,0,1.06-.276A.9.9,0,0,0,51.752,11.575ZM6.994,29.708l2.095-6.951h2.12L7.991,32H6L2.8,22.758H4.912Zm10.3.387H13.958L13.323,32H11.3l3.44-9.242H16.5L19.963,32H17.938Zm-2.825-1.542h2.311l-1.162-3.459Zm1.542-8.271h2L16.256,22.25H14.764ZM22.73,30.47h4.043V32H20.826V22.758h1.9ZM29.89,32h-1.9V22.758h1.9Zm1.765,0V22.758H34.5a4.319,4.319,0,0,1,2.18.549,3.829,3.829,0,0,1,1.5,1.562,4.816,4.816,0,0,1,.54,2.3v.425a4.83,4.83,0,0,1-.53,2.292A3.8,3.8,0,0,1,36.7,31.441,4.351,4.351,0,0,1,34.518,32Zm1.9-7.7v6.17h.92a2.068,2.068,0,0,0,1.708-.73,3.3,3.3,0,0,0,.6-2.088v-.489a3.351,3.351,0,0,0-.584-2.136A2.061,2.061,0,0,0,34.5,24.3ZM47.7,27.588a5.579,5.579,0,0,1-.482,2.393,3.633,3.633,0,0,1-1.381,1.587,4.08,4.08,0,0,1-4.11.006A3.669,3.669,0,0,1,40.326,30a5.42,5.42,0,0,1-.5-2.358v-.457a5.55,5.55,0,0,1,.492-2.4,3.663,3.663,0,0,1,1.39-1.593,4.074,4.074,0,0,1,4.107,0A3.663,3.663,0,0,1,47.2,24.78a5.534,5.534,0,0,1,.492,2.4Zm-1.93-.419a3.889,3.889,0,0,0-.521-2.209,1.839,1.839,0,0,0-2.964-.01,3.845,3.845,0,0,0-.527,2.187v.451a3.938,3.938,0,0,0,.521,2.2,1.823,1.823,0,0,0,2.971.029,3.915,3.915,0,0,0,.521-2.193Zm8.106,2.406a.977.977,0,0,0-.381-.828,5,5,0,0,0-1.371-.609,9.72,9.72,0,0,1-1.568-.632,2.562,2.562,0,0,1-1.574-2.292,2.232,2.232,0,0,1,.422-1.336,2.753,2.753,0,0,1,1.212-.917,4.563,4.563,0,0,1,1.774-.33,4.154,4.154,0,0,1,1.765.359A2.81,2.81,0,0,1,55.354,24a2.649,2.649,0,0,1,.428,1.485h-1.9a1.246,1.246,0,0,0-.4-.987,1.644,1.644,0,0,0-1.124-.352,1.756,1.756,0,0,0-1.085.3.931.931,0,0,0-.387.778.892.892,0,0,0,.454.755,5.128,5.128,0,0,0,1.336.571A5.773,5.773,0,0,1,55.04,27.76a2.415,2.415,0,0,1,.743,1.8,2.224,2.224,0,0,1-.908,1.882,3.974,3.974,0,0,1-2.444.682,4.719,4.719,0,0,1-1.942-.39,3.074,3.074,0,0,1-1.336-1.07,2.739,2.739,0,0,1-.46-1.574H50.6q0,1.53,1.828,1.53a1.778,1.778,0,0,0,1.06-.276A.9.9,0,0,0,53.872,29.575Z" transform="translate(1148 5439)" fill="#12263f"/>
    <g id="Grupo_214747" data-name="Grupo 214747" transform="translate(305.999 -1017.741)">
      <path id="Trazado_180004" data-name="Trazado 180004" d="M-7924.291-5724.464h7.323" transform="translate(-4907.465 14297.488) rotate(90)" fill="none" stroke="#12263f" stroke-width="2"/>
      <path id="Polígono_7" data-name="Polígono 7" d="M9,0l9,14H0Z" transform="translate(825.999 6390.743) rotate(180)" fill="#12263f"/>
    </g>
    <g id="Grupo_214748" data-name="Grupo 214748" transform="translate(305.999 -967.197)">
      <path id="Trazado_180004-2" data-name="Trazado 180004" d="M-7924.291-5724.464h7.323" transform="translate(-4907.465 14297.488) rotate(90)" fill="none" stroke="#12263f" stroke-width="2"/>
      <path id="Polígono_7-2" data-name="Polígono 7" d="M9,0l9,14H0Z" transform="translate(825.999 6390.743) rotate(180)" fill="#12263f"/>
    </g>
  </g>
</svg>
