<svg xmlns="http://www.w3.org/2000/svg" width="455" height="199" viewBox="0 0 455 199">
  <g id="Grupo_217271" data-name="Grupo 217271" transform="translate(-310 -5294)">
    <rect id="Rectángulo_67088" data-name="Rectángulo 67088" width="455" height="196" transform="translate(310 5294)" fill="#fff"/>
    <path id="Trazado_180004" data-name="Trazado 180004" d="M0,0H19.42" transform="translate(458.391 5371.999)" fill="none" stroke="#2754ba" stroke-width="2"/>
    <path id="Polígono_7" data-name="Polígono 7" d="M9,0l9,14H0Z" transform="translate(480.642 5362.999) rotate(90)" fill="#2754ba"/>
    <path id="Trazado_180004-2" data-name="Trazado 180004" d="M0,0H19.42" transform="translate(594.358 5371.999)" fill="none" stroke="#1b3f5e" stroke-width="2"/>
    <path id="Polígono_7-2" data-name="Polígono 7" d="M9,0l9,14H0Z" transform="translate(616.609 5362.999) rotate(90)" fill="#1b3f5e"/>
    <path id="Trazado_180004-3" data-name="Trazado 180004" d="M0,0H19.42" transform="translate(732.749 5371.999)" fill="none" stroke="#1b3f5e" stroke-width="2"/>
    <path id="Polígono_7-3" data-name="Polígono 7" d="M9,0l9,14H0Z" transform="translate(755 5362.999) rotate(90)" fill="#1b3f5e"/>
    <path id="Trazado_180004-4" data-name="Trazado 180004" d="M0,0H19.42" transform="translate(320 5371.999)" fill="none" stroke="#3156b4" stroke-width="2"/>
    <path id="Polígono_7-4" data-name="Polígono 7" d="M9,0l9,14H0Z" transform="translate(342.251 5362.999) rotate(90)" fill="#2754ba"/>
    <g id="Rectángulo_67095" data-name="Rectángulo 67095" transform="translate(348 5308)" fill="#fff" stroke="#3156b4" stroke-width="5">
      <rect width="107" height="139" stroke="none"/>
      <rect x="2.5" y="2.5" width="102" height="134" fill="none"/>
    </g>
    <g id="Rectángulo_67098" data-name="Rectángulo 67098" transform="translate(484 5308)" fill="#fff" stroke="#ef8933" stroke-width="5">
      <rect width="107" height="139" stroke="none"/>
      <rect x="2.5" y="2.5" width="102" height="134" fill="none"/>
    </g>
    <g id="Rectángulo_67099" data-name="Rectángulo 67099" transform="translate(620 5308)" fill="#fff" stroke="#ef8933" stroke-width="5">
      <rect width="107" height="139" stroke="none"/>
      <rect x="2.5" y="2.5" width="102" height="134" fill="none"/>
    </g>
    <path id="Trazado_217327" data-name="Trazado 217327" d="M11.663,19H8.6V13.656H4.052V19H.967V6.2H4.052v5.08H8.6V6.2h3.067Zm9.378-2.391H16.813L16.075,19h-3.3L17.473,6.2h2.9L25.1,19H21.788Zm-3.489-2.382H20.3l-1.38-4.438ZM32.634,15.6a1.268,1.268,0,0,0-.479-1.055,5.954,5.954,0,0,0-1.683-.782,16.147,16.147,0,0,1-1.969-.782q-2.487-1.222-2.487-3.357a3.011,3.011,0,0,1,.62-1.876A4.008,4.008,0,0,1,28.389,6.48a6.823,6.823,0,0,1,2.549-.453,5.969,5.969,0,0,1,2.474.492,3.917,3.917,0,0,1,1.7,1.4A3.661,3.661,0,0,1,35.719,10H32.643a1.547,1.547,0,0,0-.479-1.213,1.867,1.867,0,0,0-1.3-.431,2.106,2.106,0,0,0-1.305.365,1.074,1.074,0,0,0,.048,1.819,6.65,6.65,0,0,0,1.854.826,11.36,11.36,0,0,1,2.18.918,3.663,3.663,0,0,1,2.074,3.3,3.125,3.125,0,0,1-1.266,2.637,5.629,5.629,0,0,1-3.472.958,6.888,6.888,0,0,1-2.817-.558,4.247,4.247,0,0,1-1.9-1.529,3.985,3.985,0,0,1-.637-2.237h3.094a1.963,1.963,0,0,0,.532,1.516,2.513,2.513,0,0,0,1.727.488,1.985,1.985,0,0,0,1.208-.33A1.088,1.088,0,0,0,32.634,15.6ZM48,19H44.93V13.656H40.386V19H37.3V6.2h3.085v5.08H44.93V6.2H48Z" transform="translate(361 5418)" fill="#2754ba"/>
    <path id="Trazado_217332" data-name="Trazado 217332" d="M11.663,19H8.6V13.656H4.052V19H.967V6.2H4.052v5.08H8.6V6.2h3.067Zm9.378-2.391H16.813L16.075,19h-3.3L17.473,6.2h2.9L25.1,19H21.788Zm-3.489-2.382H20.3l-1.38-4.438ZM32.634,15.6a1.268,1.268,0,0,0-.479-1.055,5.954,5.954,0,0,0-1.683-.782,16.147,16.147,0,0,1-1.969-.782q-2.487-1.222-2.487-3.357a3.011,3.011,0,0,1,.62-1.876A4.008,4.008,0,0,1,28.389,6.48a6.823,6.823,0,0,1,2.549-.453,5.969,5.969,0,0,1,2.474.492,3.917,3.917,0,0,1,1.7,1.4A3.661,3.661,0,0,1,35.719,10H32.643a1.547,1.547,0,0,0-.479-1.213,1.867,1.867,0,0,0-1.3-.431,2.106,2.106,0,0,0-1.305.365,1.074,1.074,0,0,0,.048,1.819,6.65,6.65,0,0,0,1.854.826,11.36,11.36,0,0,1,2.18.918,3.663,3.663,0,0,1,2.074,3.3,3.125,3.125,0,0,1-1.266,2.637,5.629,5.629,0,0,1-3.472.958,6.888,6.888,0,0,1-2.817-.558,4.247,4.247,0,0,1-1.9-1.529,3.985,3.985,0,0,1-.637-2.237h3.094a1.963,1.963,0,0,0,.532,1.516,2.513,2.513,0,0,0,1.727.488,1.985,1.985,0,0,0,1.208-.33A1.088,1.088,0,0,0,32.634,15.6ZM48,19H44.93V13.656H40.386V19H37.3V6.2h3.085v5.08H44.93V6.2H48Z" transform="translate(633 5418)" fill="#1b3f5e"/>
    <path id="Trazado_217331" data-name="Trazado 217331" d="M11.663,19H8.6V13.656H4.052V19H.967V6.2H4.052v5.08H8.6V6.2h3.067Zm9.378-2.391H16.813L16.075,19h-3.3L17.473,6.2h2.9L25.1,19H21.788Zm-3.489-2.382H20.3l-1.38-4.438ZM32.634,15.6a1.268,1.268,0,0,0-.479-1.055,5.954,5.954,0,0,0-1.683-.782,16.147,16.147,0,0,1-1.969-.782q-2.487-1.222-2.487-3.357a3.011,3.011,0,0,1,.62-1.876A4.008,4.008,0,0,1,28.389,6.48a6.823,6.823,0,0,1,2.549-.453,5.969,5.969,0,0,1,2.474.492,3.917,3.917,0,0,1,1.7,1.4A3.661,3.661,0,0,1,35.719,10H32.643a1.547,1.547,0,0,0-.479-1.213,1.867,1.867,0,0,0-1.3-.431,2.106,2.106,0,0,0-1.305.365,1.074,1.074,0,0,0,.048,1.819,6.65,6.65,0,0,0,1.854.826,11.36,11.36,0,0,1,2.18.918,3.663,3.663,0,0,1,2.074,3.3,3.125,3.125,0,0,1-1.266,2.637,5.629,5.629,0,0,1-3.472.958,6.888,6.888,0,0,1-2.817-.558,4.247,4.247,0,0,1-1.9-1.529,3.985,3.985,0,0,1-.637-2.237h3.094a1.963,1.963,0,0,0,.532,1.516,2.513,2.513,0,0,0,1.727.488,1.985,1.985,0,0,0,1.208-.33A1.088,1.088,0,0,0,32.634,15.6ZM48,19H44.93V13.656H40.386V19H37.3V6.2h3.085v5.08H44.93V6.2H48Z" transform="translate(500 5418)" fill="#1b3f5e"/>
    <g id="Elipse_5055" data-name="Elipse 5055" transform="translate(500 5341)" fill="#c7b8df" stroke="#000" stroke-width="2">
      <circle cx="7.5" cy="7.5" r="7.5" stroke="none"/>
      <circle cx="7.5" cy="7.5" r="6.5" fill="none"/>
    </g>
    <path id="Trazado_217328" data-name="Trazado 217328" d="M7.782,6.3H4.951V14h-1.9V6.3H.254V4.758H7.782Zm2.806,4.481H7.014V9.3h3.574ZM17.4,12.1H14.06L13.425,14H11.4l3.44-9.242h1.765L20.065,14H18.04Zm-2.825-1.542h2.311L15.723,7.094ZM22.6,8.566h.978a1.377,1.377,0,0,0,1.035-.349,1.279,1.279,0,0,0,.336-.927,1.131,1.131,0,0,0-.333-.87A1.292,1.292,0,0,0,23.7,6.11a1.354,1.354,0,0,0-.882.289.923.923,0,0,0-.355.752H20.624a2.256,2.256,0,0,1,.39-1.3,2.6,2.6,0,0,1,1.092-.9,3.644,3.644,0,0,1,1.546-.324,3.456,3.456,0,0,1,2.3.7,2.393,2.393,0,0,1,.832,1.933,1.945,1.945,0,0,1-.387,1.168,2.516,2.516,0,0,1-1.016.819,2.3,2.3,0,0,1,1.165.838,2.273,2.273,0,0,1,.384,1.32,2.433,2.433,0,0,1-.9,1.974,3.611,3.611,0,0,1-2.377.743,3.424,3.424,0,0,1-2.263-.73,2.384,2.384,0,0,1-.879-1.93h1.834a1.063,1.063,0,0,0,.39.851,1.629,1.629,0,0,0,1.987-.016,1.194,1.194,0,0,0,.371-.917Q25.092,10,23.569,10H22.6ZM34.474,5.782,30.9,14H28.964l3.58-7.763h-4.6V4.758h6.525Z" transform="translate(520 5341)" fill="#12263f"/>
    <g id="Elipse_5054" data-name="Elipse 5054" transform="translate(500 5364)" fill="#1b3f5e" stroke="#000" stroke-width="2">
      <circle cx="7.5" cy="7.5" r="7.5" stroke="none"/>
      <circle cx="7.5" cy="7.5" r="6.5" fill="none"/>
    </g>
    <path id="Trazado_217329" data-name="Trazado 217329" d="M7.782,6.3H4.951V14h-1.9V6.3H.254V4.758H7.782Zm2.806,4.481H7.014V9.3h3.574Zm6.824-.26h1.047V12H17.412v2H15.577V12h-3.79l-.083-1.155,3.853-6.087h1.854Zm-3.878,0h2.044V7.259l-.121.209ZM19.64,14V4.758h3.237a4.251,4.251,0,0,1,2.552.644,2.2,2.2,0,0,1,.87,1.888,2.088,2.088,0,0,1-.349,1.2,2.017,2.017,0,0,1-.971.759,1.951,1.951,0,0,1,1.12.717,2.121,2.121,0,0,1,.409,1.32,2.439,2.439,0,0,1-.851,2.019,3.829,3.829,0,0,1-2.425.7Zm1.9-4.024V12.47h1.631a1.574,1.574,0,0,0,1.051-.321,1.1,1.1,0,0,0,.378-.885A1.161,1.161,0,0,0,23.29,9.976Zm0-1.346h1.409q1.441-.025,1.441-1.149a1.062,1.062,0,0,0-.365-.9A1.92,1.92,0,0,0,22.877,6.3H21.544ZM33.763,7.214a2.15,2.15,0,0,1-.336,1.193,2.421,2.421,0,0,1-.927.832,2.68,2.68,0,0,1,1.066.892,2.288,2.288,0,0,1,.394,1.336,2.422,2.422,0,0,1-.838,1.946,3.4,3.4,0,0,1-2.279.714,3.414,3.414,0,0,1-2.285-.717,2.416,2.416,0,0,1-.844-1.942,2.3,2.3,0,0,1,.394-1.339,2.632,2.632,0,0,1,1.06-.889,2.4,2.4,0,0,1-.924-.832,2.165,2.165,0,0,1-.333-1.193A2.4,2.4,0,0,1,28.7,5.332a3.1,3.1,0,0,1,2.139-.7,3.12,3.12,0,0,1,2.136.7A2.386,2.386,0,0,1,33.763,7.214Zm-1.644,4.12a1.331,1.331,0,0,0-.349-.965,1.4,1.4,0,0,0-1.873,0,1.328,1.328,0,0,0-.349.968,1.328,1.328,0,0,0,.343.952,1.432,1.432,0,0,0,1.888.013A1.325,1.325,0,0,0,32.119,11.334ZM31.929,7.3a1.27,1.27,0,0,0-.286-.866,1.162,1.162,0,0,0-1.606-.01,1.262,1.262,0,0,0-.286.876,1.326,1.326,0,0,0,.286.889,1.13,1.13,0,0,0,1.609,0A1.336,1.336,0,0,0,31.929,7.3Z" transform="translate(520 5364)" fill="#1b3f5e"/>
    <g id="Elipse_5056" data-name="Elipse 5056" transform="translate(500 5387)" fill="#c7b8df" stroke="#000" stroke-width="2">
      <circle cx="7.5" cy="7.5" r="7.5" stroke="none"/>
      <circle cx="7.5" cy="7.5" r="6.5" fill="none"/>
    </g>
    <path id="Trazado_217330" data-name="Trazado 217330" d="M7.782,6.3H4.951V14h-1.9V6.3H.254V4.758H7.782Zm2.806,4.481H7.014V9.3h3.574Zm1.669-1.327.533-4.7h5.18v1.53H14.295l-.229,1.987a2.908,2.908,0,0,1,1.39-.349,2.664,2.664,0,0,1,2.069.819,3.271,3.271,0,0,1,.749,2.292,3.351,3.351,0,0,1-.378,1.6,2.666,2.666,0,0,1-1.082,1.1,3.379,3.379,0,0,1-1.663.39,3.588,3.588,0,0,1-1.555-.34,2.758,2.758,0,0,1-1.133-.955,2.6,2.6,0,0,1-.441-1.4h1.815a1.356,1.356,0,0,0,.4.9,1.278,1.278,0,0,0,.9.321A1.128,1.128,0,0,0,16.1,12.2a2.073,2.073,0,0,0,.336-1.266,1.714,1.714,0,0,0-.387-1.206,1.421,1.421,0,0,0-1.1-.419,1.588,1.588,0,0,0-1.06.343l-.178.165Zm9.4,3.015h4.659V14h-7.04V12.883L23.848,6.3H19.284V4.758h6.932V5.85ZM31.776,14H29.942V6.929l-2.19.679V6.116L31.58,4.745h.2Z" transform="translate(520 5387)" fill="#12263f"/>
    <path id="Trazado_217333" data-name="Trazado 217333" d="M7.782,6.3H4.951V14h-1.9V6.3H.254V4.758H7.782Zm4.507,4.316H10.772V14h-1.9V4.758H12.3a3.882,3.882,0,0,1,2.526.73,2.519,2.519,0,0,1,.889,2.063,2.843,2.843,0,0,1-.409,1.577,2.792,2.792,0,0,1-1.241,1.006l2,3.777V14H14.022ZM10.772,9.074h1.536a1.573,1.573,0,0,0,1.111-.365A1.3,1.3,0,0,0,13.813,7.7a1.4,1.4,0,0,0-.371-1.028A1.543,1.543,0,0,0,12.3,6.3h-1.53ZM22.382,12.1H19.043L18.408,14H16.383l3.44-9.242h1.765L25.048,14H23.023Zm-2.825-1.542h2.311L20.706,7.094ZM33.427,14h-1.9L27.815,7.919V14h-1.9V4.758h1.9l3.713,6.094V4.758h1.9Zm6.456-2.425a.977.977,0,0,0-.381-.828,5,5,0,0,0-1.371-.609,9.72,9.72,0,0,1-1.568-.632,2.562,2.562,0,0,1-1.574-2.292,2.232,2.232,0,0,1,.422-1.336,2.753,2.753,0,0,1,1.212-.917,4.563,4.563,0,0,1,1.774-.33,4.154,4.154,0,0,1,1.765.359A2.81,2.81,0,0,1,41.365,6a2.649,2.649,0,0,1,.428,1.485h-1.9a1.246,1.246,0,0,0-.4-.987,1.644,1.644,0,0,0-1.124-.352,1.756,1.756,0,0,0-1.085.3.931.931,0,0,0-.387.778.892.892,0,0,0,.454.755,5.128,5.128,0,0,0,1.336.571A5.773,5.773,0,0,1,41.05,9.76a2.415,2.415,0,0,1,.743,1.8,2.224,2.224,0,0,1-.908,1.882,3.974,3.974,0,0,1-2.444.682,4.719,4.719,0,0,1-1.942-.39,3.074,3.074,0,0,1-1.336-1.07,2.739,2.739,0,0,1-.46-1.574h1.911q0,1.53,1.828,1.53a1.778,1.778,0,0,0,1.06-.276A.9.9,0,0,0,39.882,11.575ZM48.3,12.1H44.96L44.326,14H42.3l3.44-9.242h1.765L50.965,14H48.94Zm-2.825-1.542h2.311L46.624,7.094Zm13.609.368a3.27,3.27,0,0,1-1.1,2.349,3.868,3.868,0,0,1-2.618.857,3.478,3.478,0,0,1-2.8-1.2,4.906,4.906,0,0,1-1.019-3.285V9.081a5.54,5.54,0,0,1,.47-2.349,3.52,3.52,0,0,1,1.343-1.558,4.2,4.2,0,0,1,4.605.314A3.515,3.515,0,0,1,59.1,7.894h-1.9a1.93,1.93,0,0,0-.5-1.3,1.845,1.845,0,0,0-1.3-.4,1.618,1.618,0,0,0-1.425.682,3.824,3.824,0,0,0-.486,2.117v.7a4.093,4.093,0,0,0,.454,2.19,1.588,1.588,0,0,0,1.431.692,1.88,1.88,0,0,0,1.317-.4,1.821,1.821,0,0,0,.5-1.247Zm8.506,0a3.27,3.27,0,0,1-1.1,2.349,3.868,3.868,0,0,1-2.618.857,3.478,3.478,0,0,1-2.8-1.2,4.906,4.906,0,0,1-1.019-3.285V9.081a5.54,5.54,0,0,1,.47-2.349,3.52,3.52,0,0,1,1.343-1.558,4.2,4.2,0,0,1,4.605.314A3.515,3.515,0,0,1,67.6,7.894H65.7a1.93,1.93,0,0,0-.5-1.3,1.845,1.845,0,0,0-1.3-.4,1.618,1.618,0,0,0-1.425.682,3.824,3.824,0,0,0-.486,2.117v.7a4.093,4.093,0,0,0,.454,2.19,1.588,1.588,0,0,0,1.431.692,1.88,1.88,0,0,0,1.317-.4,1.821,1.821,0,0,0,.5-1.247ZM70.865,14h-1.9V4.758h1.9Zm9.356-4.412a5.579,5.579,0,0,1-.482,2.393,3.633,3.633,0,0,1-1.381,1.587,4.08,4.08,0,0,1-4.11.006A3.669,3.669,0,0,1,72.852,12a5.42,5.42,0,0,1-.5-2.358V9.182a5.55,5.55,0,0,1,.492-2.4,3.663,3.663,0,0,1,1.39-1.593,4.074,4.074,0,0,1,4.107,0A3.663,3.663,0,0,1,79.73,6.78a5.534,5.534,0,0,1,.492,2.4Zm-1.93-.419a3.889,3.889,0,0,0-.521-2.209,1.839,1.839,0,0,0-2.964-.01,3.845,3.845,0,0,0-.527,2.187v.451a3.938,3.938,0,0,0,.521,2.2,1.823,1.823,0,0,0,2.971.029,3.915,3.915,0,0,0,.521-2.193ZM76.654,2.282h2L76.9,4.25H75.4ZM89.121,14h-1.9L83.51,7.919V14h-1.9V4.758h1.9l3.713,6.094V4.758h1.9ZM6.386,27.995H2.729V30.47H7.021V32H.825V22.758H7.008V24.3H2.729v2.2H6.386ZM8.138,32V22.758h2.844a4.319,4.319,0,0,1,2.18.549,3.829,3.829,0,0,1,1.5,1.562,4.816,4.816,0,0,1,.54,2.3v.425a4.83,4.83,0,0,1-.53,2.292,3.8,3.8,0,0,1-1.495,1.555A4.351,4.351,0,0,1,11,32Zm1.9-7.7v6.17h.92a2.068,2.068,0,0,0,1.708-.73,3.3,3.3,0,0,0,.6-2.088v-.489a3.351,3.351,0,0,0-.584-2.136,2.061,2.061,0,0,0-1.708-.727ZM18.611,32h-1.9V22.758h1.9Zm8.722-7.7H24.5V32H22.6V24.3H19.8V22.758h7.528Zm5.542,5.8H29.536L28.9,32H26.876l3.44-9.242h1.765L35.541,32H33.516ZM30.05,28.553H32.36L31.2,25.094ZM36.4,32V22.758h2.844a4.319,4.319,0,0,1,2.18.549,3.829,3.829,0,0,1,1.5,1.562,4.816,4.816,0,0,1,.54,2.3v.425a4.83,4.83,0,0,1-.53,2.292,3.8,3.8,0,0,1-1.495,1.555A4.351,4.351,0,0,1,39.267,32Zm1.9-7.7v6.17h.92a2.068,2.068,0,0,0,1.708-.73,3.3,3.3,0,0,0,.6-2.088v-.489a3.351,3.351,0,0,0-.584-2.136,2.061,2.061,0,0,0-1.708-.727ZM50.07,30.1H46.731L46.1,32H44.072l3.44-9.242h1.765L52.736,32H50.711Zm-2.825-1.542h2.311l-1.162-3.459Z" transform="translate(401 5461)" fill="#12263f"/>
    <g id="Elipse_5054-2" data-name="Elipse 5054" transform="translate(382 5461)" fill="#1b3f5e" stroke="#000" stroke-width="2">
      <circle cx="7.5" cy="7.5" r="7.5" stroke="none"/>
      <circle cx="7.5" cy="7.5" r="6.5" fill="none"/>
    </g>
    <path id="Trazado_217334" data-name="Trazado 217334" d="M.825,14V4.758H4.063A4.251,4.251,0,0,1,6.614,5.4a2.2,2.2,0,0,1,.87,1.888,2.088,2.088,0,0,1-.349,1.2,2.017,2.017,0,0,1-.971.759,1.951,1.951,0,0,1,1.12.717,2.121,2.121,0,0,1,.409,1.32A2.439,2.439,0,0,1,6.843,13.3a3.829,3.829,0,0,1-2.425.7Zm1.9-4.024V12.47H4.361a1.574,1.574,0,0,0,1.051-.321,1.1,1.1,0,0,0,.378-.885A1.161,1.161,0,0,0,4.475,9.976Zm0-1.346H4.139Q5.58,8.6,5.58,7.481a1.062,1.062,0,0,0-.365-.9A1.92,1.92,0,0,0,4.063,6.3H2.729Zm8.3,3.84h4.043V14H9.122V4.758h1.9ZM23.347,9.588a5.579,5.579,0,0,1-.482,2.393,3.633,3.633,0,0,1-1.381,1.587,4.08,4.08,0,0,1-4.11.006A3.669,3.669,0,0,1,15.977,12a5.42,5.42,0,0,1-.5-2.358V9.182a5.55,5.55,0,0,1,.492-2.4,3.663,3.663,0,0,1,1.39-1.593,4.074,4.074,0,0,1,4.107,0,3.663,3.663,0,0,1,1.39,1.593,5.534,5.534,0,0,1,.492,2.4Zm-1.93-.419A3.889,3.889,0,0,0,20.9,6.96a1.839,1.839,0,0,0-2.964-.01,3.845,3.845,0,0,0-.527,2.187v.451a3.938,3.938,0,0,0,.521,2.2,1.823,1.823,0,0,0,2.971.029,3.915,3.915,0,0,0,.521-2.193Zm10.893.419a5.568,5.568,0,0,1-.419,2.25,3.863,3.863,0,0,1-1.162,1.533l1.536,1.206L31.053,15.65,29.085,14.07a4.165,4.165,0,0,1-.7.057,3.845,3.845,0,0,1-2.05-.552A3.669,3.669,0,0,1,24.94,12a5.42,5.42,0,0,1-.5-2.358V9.182a5.55,5.55,0,0,1,.492-2.4,3.663,3.663,0,0,1,1.39-1.593,4.074,4.074,0,0,1,4.107,0,3.663,3.663,0,0,1,1.39,1.593,5.534,5.534,0,0,1,.492,2.4Zm-1.93-.419a3.889,3.889,0,0,0-.521-2.209,1.839,1.839,0,0,0-2.964-.01,3.845,3.845,0,0,0-.527,2.187v.451a3.938,3.938,0,0,0,.521,2.2,1.823,1.823,0,0,0,2.971.029A3.915,3.915,0,0,0,30.38,9.62ZM40.7,4.758v6.087a3.117,3.117,0,0,1-.949,2.4,3.659,3.659,0,0,1-2.593.882,3.7,3.7,0,0,1-2.571-.857,3.063,3.063,0,0,1-.971-2.355V4.758h1.9v6.1a1.761,1.761,0,0,0,.435,1.323,1.669,1.669,0,0,0,1.2.416q1.606,0,1.631-1.688V4.758Zm7.122,5.237H44.167V12.47h4.291V14h-6.2V4.758h6.183V6.3H44.167V8.5h3.656ZM54.837,14h-1.9V4.758h1.9Zm9.28,0h-1.9L58.506,7.919V14H56.6V4.758h1.9l3.713,6.094V4.758h1.9ZM69.2,11.708l2.095-6.951h2.12L70.192,14H68.206L65,4.758h2.114Zm10.3.387H76.159L75.524,14H73.5l3.44-9.242H78.7L82.164,14H80.139Zm-2.825-1.542h2.311L77.822,7.094Zm1.542-8.271h2L78.457,4.25H76.965ZM84.932,12.47h4.043V14H83.027V4.758h1.9ZM92.092,14h-1.9V4.758h1.9Zm1.765,0V4.758H96.7a4.319,4.319,0,0,1,2.18.549,3.829,3.829,0,0,1,1.5,1.562,4.816,4.816,0,0,1,.54,2.3v.425a4.83,4.83,0,0,1-.53,2.292A3.8,3.8,0,0,1,98.9,13.441,4.351,4.351,0,0,1,96.719,14Zm1.9-7.7v6.17h.92a2.068,2.068,0,0,0,1.708-.73,3.3,3.3,0,0,0,.6-2.088V9.163a3.351,3.351,0,0,0-.584-2.136A2.061,2.061,0,0,0,96.7,6.3ZM109.9,9.588a5.579,5.579,0,0,1-.482,2.393,3.633,3.633,0,0,1-1.381,1.587,4.08,4.08,0,0,1-4.11.006,3.669,3.669,0,0,1-1.4-1.577,5.42,5.42,0,0,1-.5-2.358V9.182a5.55,5.55,0,0,1,.492-2.4,3.663,3.663,0,0,1,1.39-1.593,4.074,4.074,0,0,1,4.107,0,3.663,3.663,0,0,1,1.39,1.593,5.534,5.534,0,0,1,.492,2.4Zm-1.93-.419a3.889,3.889,0,0,0-.521-2.209,1.839,1.839,0,0,0-2.964-.01,3.845,3.845,0,0,0-.527,2.187v.451a3.938,3.938,0,0,0,.521,2.2,1.823,1.823,0,0,0,2.971.029,3.915,3.915,0,0,0,.521-2.193Z" transform="translate(582 5461)" fill="#12263f"/>
    <g id="Rectángulo_67100" data-name="Rectángulo 67100" transform="translate(564 5461)" fill="#fff" stroke="#ef8933" stroke-width="2">
      <rect width="15" height="15" stroke="none"/>
      <rect x="1" y="1" width="13" height="13" fill="none"/>
    </g>
  </g>
</svg>
