<svg xmlns="http://www.w3.org/2000/svg" xmlns:xlink="http://www.w3.org/1999/xlink" width="101" height="101" viewBox="0 0 101 101">
  <defs>
    <clipPath id="clip-path">
      <rect id="Rect치ngulo_66250" data-name="Rect치ngulo 66250" width="82.474" height="80.544" fill="none"/>
    </clipPath>
  </defs>
  <g id="Grupo_217269" data-name="Grupo 217269" transform="translate(-743 -1527)">
    <g id="Rect치ngulo_66251" data-name="Rect치ngulo 66251" transform="translate(743 1527)" fill="#ffd800" stroke="#f7ce48" stroke-width="2">
      <rect width="101" height="101" rx="16" stroke="none"/>
      <rect x="1" y="1" width="99" height="99" rx="15" fill="none"/>
    </g>
    <g id="Grupo_151141" data-name="Grupo 151141" transform="translate(752 1535.184)">
      <g id="Grupo_151140" data-name="Grupo 151140" clip-path="url(#clip-path)">
        <path id="Trazado_174333" data-name="Trazado 174333" d="M347.506,280.613c-3.992-2.276-7.952-4.608-11.951-6.872-1.015-.575-1.007-.59-1.845.132l-.061-.014c-.117.393-.464.685-.5,1.116q3.927,2.233,7.853,4.467c1.694.967,3.38,1.947,5.07,2.921a8.88,8.88,0,0,1,.139,2.911q.015,6.595.036,13.19a.647.647,0,0,1-.378.633q-4.392,2.512-8.778,5.036h0c-1.658.992-3.3,2.014-5.033,2.871-.324.021-.541-.209-.788-.351q-6.005-3.451-12-6.918c-1.116-.644-1.121-.645-1.784.384l.017.022c-.152,1.033-.157,1.042.842,1.622,4.331,2.514,8.687,4.985,13,7.528a1.254,1.254,0,0,0,1.417-.037q2.777-1.617,5.559-3.224c3.126-1.815,6.27-3.6,9.386-5.433.281-.165.57-.445.952-.2V281.07c-.473.073-.8-.255-1.155-.457" transform="translate(-266.187 -229.198)"/>
        <path id="Trazado_174334" data-name="Trazado 174334" d="M417.918,272.172c0,.019-.012.036-.017.055l.061.014c.838-.722.83-.707,1.845-.132,4,2.264,7.959,4.6,11.951,6.872.355.2.682.53,1.155.457l-13.248-7.646c-1.057-.61-1.058-.609-1.746.381" transform="translate(-350.439 -227.565)"/>
        <path id="Trazado_174335" data-name="Trazado 174335" d="M346.182,439.813c-3.116,1.833-6.26,3.618-9.386,5.433q-2.779,1.613-5.559,3.224a1.255,1.255,0,0,1-1.417.037c-4.314-2.543-8.67-5.013-13-7.528-1-.58-.993-.589-.842-1.622l-.017-.022-.006.01h0c-.528,1.072-.527,1.07.551,1.691q6.676,3.849,13.345,7.71a1.115,1.115,0,0,0,1.289.011q7.213-4.2,14.452-8.362a4.937,4.937,0,0,1,1.543-.785c-.381-.244-.671.036-.952.2" transform="translate(-264.66 -368.415)"/>
        <path id="Trazado_174336" data-name="Trazado 174336" d="M361.885,393.884h0" transform="translate(-303.463 -330.299)"/>
        <path id="Trazado_174337" data-name="Trazado 174337" d="M182.3,379.3a.467.467,0,0,1,.531-.349c.477.014.955.019,1.433.028.881-.013,1.762-.051,2.641-.03.457.011.615-.137.581-.591-.045-.61-.04-1.225-.056-1.837-1.491,0-2.982,0-4.473.011-.315,0-.538-.024-.674-.388a4.7,4.7,0,0,0-2.9-2.762h0a15.289,15.289,0,0,0-4.479-.077,4.25,4.25,0,0,0-3.516,2.7c-.145.327-.232.581-.7.579s-.559-.255-.708-.581a4.209,4.209,0,0,0-3.774-2.691c-1.723-.081-3.48-.272-5.133.488h0a5.118,5.118,0,0,0-1.991,2.442c-.129.387-.425.335-.715.335-1.258,0-2.517.026-3.774,0-.523-.012-.755.09-.752.691.01,1.734-.019,1.735,1.712,1.735.4,0,.805.025,1.2,0,1.272-.1,2.463-.149,2.954,1.451.18.587.831.893,1.331,1.267.272-.126.514.021.764.092a10.322,10.322,0,0,0,5.166.071,3.915,3.915,0,0,0,2.659-2.157c.231-.448.377-.957,1.048-.941.6.014.81.436,1.039.867a4.131,4.131,0,0,0,3.987,2.34c1.229-.016,2.458-.013,3.687-.014a.548.548,0,0,1,.091.075A4.616,4.616,0,0,0,182.3,379.3m-16.2-.813c.046,1.065.921.164,1.294.6-1.016,1.171-4.682,1.171-5.645-.043.4-.175,1.056.148,1.17-.16a6.07,6.07,0,0,0,.095-1.736c.056-1.143-.906-.277-1.229-.658.872-1.17,4.574-1.2,5.657.01-.434.171-1.13-.153-1.253.171a4.746,4.746,0,0,0-.09,1.814m12.211-1.3a5.337,5.337,0,0,1,0,.963c-.053.563.036.953.746.819.135-.026.351-.064.383.161.026.179-.132.275-.261.371-.844.631-4.37.418-5.138-.313-.03-.028-.03-.089-.043-.134,1.262-.2,1.262-.2,1.243-1.852-.007-.561-.007-.561-1.312-.728a1.69,1.69,0,0,1,1.405-.8c.961-.058,1.927-.04,2.89-.019a2.3,2.3,0,0,1,.764.22c.221.089.5.216.448.492s-.363.2-.548.169c-.556-.082-.619.21-.58.651" transform="translate(-129.007 -312.935)"/>
        <path id="Trazado_174338" data-name="Trazado 174338" d="M216.807,411.043c-1.229,0-2.458,0-3.687.014a4.131,4.131,0,0,1-3.986-2.34c-.229-.432-.439-.853-1.039-.868-.67-.016-.816.493-1.048.941a3.915,3.915,0,0,1-2.659,2.157,10.325,10.325,0,0,1-5.166-.071c-.249-.071-.491-.218-.764-.092l.051.038c1.644.816,3.4.58,5.124.49a4.22,4.22,0,0,0,3.766-2.7c.148-.323.23-.593.7-.586.444.007.561.211.714.559a4.139,4.139,0,0,0,3.368,2.652,15.536,15.536,0,0,0,4.635-.088l.081-.032a.558.558,0,0,0-.091-.075" transform="translate(-166.422 -342.01)"/>
        <path id="Trazado_174339" data-name="Trazado 174339" d="M303.692,147.006a.873.873,0,0,1-1-.552c-.585-1.08-1.232-2.128-1.821-3.206-.217-.4-.375-.533-.837-.265-1.584.92-1.6.9-.683,2.492q.678,1.182,1.355,2.364c.129.226.291.42.044.71a4.309,4.309,0,0,0-.957,3.953,13.046,13.046,0,0,0,2.324,4.182,4.11,4.11,0,0,0,3.825,1.438.774.774,0,0,1,.908.41c.237.409-.034.578-.211.823a4.159,4.159,0,0,0-.661,4.107,12.2,12.2,0,0,0,2.677,4.339,4.955,4.955,0,0,0,3.239.978c.561-.212.855.041,1.117.536.586,1.107,1.239,2.178,1.845,3.275.185.336.325.443.724.229,1.686-.906,1.7-.888.734-2.567a21.3,21.3,0,0,0-1.124-1.935,1.047,1.047,0,0,1,.22-1.668,5.439,5.439,0,0,0,.551-3.039c-.04-.009-.08-.017-.121-.024a18.563,18.563,0,0,0-1.744-3.431,4.3,4.3,0,0,0-4.255-2.33,1.029,1.029,0,0,1-1.116-.444c-.289-.488-.078-.848.2-1.244a4.1,4.1,0,0,0,.3-4.479,20.956,20.956,0,0,0-1.861-3.1,1.761,1.761,0,0,1-.385-.645,4.373,4.373,0,0,0-3.281-.913m4.674,14.311c.251.376.564,1.042.695,1.008a9.4,9.4,0,0,0,1.566-.768c1.074-.514-.206-.971-.013-1.457,1.426.2,3.207,3.247,2.841,4.882-.576-.023-.278-1.208-1.1-.855a5.706,5.706,0,0,0-1.455.842c-.634.54.4.82.265,1.305-1.522-.277-3.362-3.44-2.8-4.957m-3.836-11.871c1.527.356,3.3,3.482,2.819,4.927-.531-.077-.249-1.163-1.031-.869a9.35,9.35,0,0,0-1.324.747c-.931.538.261.925.093,1.408-1.528-.279-3.362-3.47-2.821-4.929.394.248.415,1.04.8.979a4.561,4.561,0,0,0,1.613-.842c.854-.562-.318-.885-.148-1.42" transform="translate(-250.512 -119.785)"/>
        <path id="Trazado_174340" data-name="Trazado 174340" d="M350.146,174.923a20.969,20.969,0,0,1,1.861,3.1,4.1,4.1,0,0,1-.3,4.479c-.276.4-.487.756-.2,1.243a1.028,1.028,0,0,0,1.116.444,4.3,4.3,0,0,1,4.255,2.33,18.558,18.558,0,0,1,1.744,3.431c.041.006.081.015.121.024,0-.012,0-.023-.005-.035a11.245,11.245,0,0,0-1.807-3.726,4.3,4.3,0,0,0-4.453-2.232.732.732,0,0,1-.852-.368c-.221-.371-.059-.559.144-.831a4.115,4.115,0,0,0,.726-4.087,12.268,12.268,0,0,0-2.656-4.348l-.084-.064a1.758,1.758,0,0,0,.385.645" transform="translate(-293.299 -146.144)"/>
        <path id="Trazado_174341" data-name="Trazado 174341" d="M100.789,166.72a1.448,1.448,0,0,0,.224.423c.833.76.557,1.478.018,2.275s-.969,1.665-1.446,2.5a.819.819,0,0,0-.112.212c-.22,1.037.838.828,1.25,1.252.242.249.576.49.874-.076.611-1.16,1.306-2.275,1.931-3.428a.717.717,0,0,1,.87-.45,4.675,4.675,0,0,0,3.465-.975,13.258,13.258,0,0,0,2.529-4.052,4.2,4.2,0,0,0-.614-4.387c-.205-.276-.361-.469-.14-.835a.675.675,0,0,1,.768-.369,4.519,4.519,0,0,0,4.744-2.58,12.539,12.539,0,0,0,1.619-3.378,5.512,5.512,0,0,0-.577-3.019,1.193,1.193,0,0,1-.158-1.835c.606-.877,1.06-1.857,1.619-2.769.273-.444.306-.686-.228-.981-1.524-.844-1.506-.871-2.39.656-.294.509-.6,1.011-.9,1.516a6.864,6.864,0,0,0-.32.638.932.932,0,0,1-1.175.632,4.443,4.443,0,0,0-3.085.838.651.651,0,0,1-.217.49,12.99,12.99,0,0,0-1.788,2.761,4.523,4.523,0,0,0,.061,5.217.933.933,0,0,1,.133,1.052.953.953,0,0,1-1.027.469,4.372,4.372,0,0,0-4.435,2.437c-.631,1.09-1.213,2.2-1.735,3.343l-.094.016a6.073,6.073,0,0,0,.335,2.406m11.15-16.529c.177.486-1.064.831-.114,1.4a6.058,6.058,0,0,0,1.394.772c.665.182.5-.718.939-.9.6,1.335-1.212,4.541-2.778,4.911-.081-.011-.084-.041-.046-.11.578-1.073.577-1.073-.494-1.678-.963-.544-.963-.544-1.655.453-.7-1.29,1.29-4.751,2.754-4.853m-8.986,14.242c.76-1.372,1.124-3.08,2.857-3.761.242.63-.995.926-.11,1.5,1.506.98,1.514.967,2.416-.11.515,1.456-1.26,4.562-2.815,4.927-.077-.015-.056-.042-.033-.112.128-.386.7-.826.426-1.087a4.7,4.7,0,0,0-1.861-1.053c-.3-.088-.4.6-.779,1.007a1.4,1.4,0,0,1-.1-1.312" transform="translate(-83.39 -120.481)"/>
        <path id="Trazado_174342" data-name="Trazado 174342" d="M105.8,189.524c.522-1.144,1.1-2.253,1.735-3.343a4.372,4.372,0,0,1,4.435-2.437.953.953,0,0,0,1.027-.469.934.934,0,0,0-.133-1.052,4.523,4.523,0,0,1-.061-5.217,13.006,13.006,0,0,1,1.788-2.761.65.65,0,0,0,.217-.489l-.079.051h0a12.444,12.444,0,0,0-2.376,3.584,4.356,4.356,0,0,0,.333,4.9c.208.294.388.5.155.906s-.5.366-.861.33a4.184,4.184,0,0,0-4.121,1.8,13.562,13.562,0,0,0-2.153,4.177c0,.012,0,.023,0,.035l.094-.016" transform="translate(-88.638 -145.707)"/>
        <path id="Trazado_174343" data-name="Trazado 174343" d="M30.605,298.976q-3.927,2.259-7.859,4.508-2.321,1.356-4.644,2.709c-.148.086-.3.272-.492.068h0q-6.751-3.893-13.505-7.785c-.311-.179-.551-.333-.549-.778.024-5.284.025-10.568.031-15.852h0a13.973,13.973,0,0,1,2.432-1.5c3.207-1.871,6.431-3.715,9.648-5.569,1.082-.624,1.107-.643.528-1.684a.6.6,0,0,1-.131-.032c-.407-.612-.847-.606-1.476-.239q-6.259,3.649-12.546,7.249a1.212,1.212,0,0,0-.684,1.165q.012,8.736,0,17.472a1.32,1.32,0,0,0,.845,1.234c3.732,2.122,7.439,4.288,11.164,6.423,1.234.707,2.471,1.41,3.689,2.143a1.3,1.3,0,0,0,1.487,0c4.469-2.564,8.906-5.182,13.4-7.71.619-.349.875-.729.627-1.4.012-.02.023-.04.035-.06-.662-1.123-.709-1.094-1.988-.358" transform="translate(-1.134 -228.565)"/>
        <path id="Trazado_174344" data-name="Trazado 174344" d="M31.425,297.6c.248.673-.008,1.054-.627,1.4-4.489,2.528-8.926,5.146-13.4,7.71a1.3,1.3,0,0,1-1.487,0c-1.218-.733-2.455-1.436-3.689-2.143-3.725-2.135-7.432-4.3-11.164-6.423a1.32,1.32,0,0,1-.845-1.234q.025-8.736,0-17.472a1.212,1.212,0,0,1,.684-1.165q6.294-3.588,12.546-7.249c.63-.367,1.069-.373,1.476.239a.6.6,0,0,0,.131.031l-.044-.08c-.593-.974-.592-.973-1.6-.393Q7.027,274.517.63,278.2A1.038,1.038,0,0,0,0,279.24q.04,8.929,0,17.858A.986.986,0,0,0,.56,298.1q7.761,4.446,15.5,8.939a1.041,1.041,0,0,0,1.225-.008q6.931-4.039,13.9-8.015c.686-.39.907-.715.359-1.344l-.078-.133c-.012.02-.022.04-.035.06" transform="translate(0 -226.775)"/>
        <path id="Trazado_174345" data-name="Trazado 174345" d="M156.186,26.2q.013-6.814.029-13.629a12.978,12.978,0,0,1,2.489-1.551c3.509-2.052,7.057-4.037,10.543-6.124a1.745,1.745,0,0,1,2.4.116l12.861,7.424c.055,1.155.15,2.31.157,3.465.021,3.56.006,7.121.01,10.682,0,.32.033.639.051.959h0l1.054.023c1.169-.175,1.122-1.029,1.117-1.939q-.037-6.638,0-13.276a1.677,1.677,0,0,0-.955-1.669q-7.365-4.217-14.7-8.487a1.448,1.448,0,0,0-1.637-.029q-7.44,4.329-14.907,8.61a1.342,1.342,0,0,0-.714,1.317c.014,4.72.032,9.441-.015,14.16a1.125,1.125,0,0,0,.974,1.275c.007.013.012.026.019.038,1.213-.074,1.213-.09,1.216-1.367" transform="translate(-129.121 -1.618)"/>
        <path id="Trazado_174346" data-name="Trazado 174346" d="M343.177,85.011l.009.013v-.017l-.009,0" transform="translate(-287.778 -71.284)"/>
        <path id="Trazado_174347" data-name="Trazado 174347" d="M153.791,25.914a1.125,1.125,0,0,1-.974-1.275c.047-4.72.029-9.44.015-14.16a1.342,1.342,0,0,1,.714-1.317q7.464-4.288,14.907-8.61a1.448,1.448,0,0,1,1.637.029q7.331,4.276,14.7,8.487a1.677,1.677,0,0,1,.955,1.669q-.042,6.637,0,13.275c0,.911.052,1.764-1.117,1.939h.048c1.2-.067,1.2-.067,1.2-1.264,0-4.826-.01-9.653.013-14.479a1.123,1.123,0,0,0-.644-1.134Q177.558,4.665,169.9.207a1.115,1.115,0,0,0-1.288,0q-7.661,4.461-15.355,8.864a1.158,1.158,0,0,0-.658,1.192c.024,4.8.013,9.6.013,14.4,0,1.225,0,1.225,1.159,1.3l.044,0c-.007-.013-.012-.026-.019-.038" transform="translate(-127.961 0)"/>
        <path id="Trazado_174348" data-name="Trazado 174348" d="M141.647,358.577a1.7,1.7,0,0,0-1.909-1.074c-.961.059-1.929.013-2.893.01-.626,0-.909-.277-.946-.919-.106-1.843-.015-1.957,1.85-1.958.8,0,1.608-.02,2.411.006a1.217,1.217,0,0,0,1.286-.74,4.22,4.22,0,0,1,1.793-1.9c.047-.026.1-.049.143-.074q0-.943.009-1.886c-1.5-.018-1.287.174-1.3-1.347,0-.41,0-.821,0-1.37a.281.281,0,0,0-.026-.02c-1.355.772-2.594,1.473-3.828,2.184-1.62.933-3.227,1.889-4.859,2.8a.994.994,0,0,0-.63.984c.02,4.073.01,8.145.013,12.218a1.023,1.023,0,0,0,.064.548l.066-.038c2.7-1.594,5.427-3.133,8.133-4.711,1.109-.647,1.551-.505,1.793.651a13.716,13.716,0,0,0,.521-1.9,2.287,2.287,0,0,1-1.688-1.465" transform="translate(-111.314 -291.241)" fill="#78767f"/>
        <path id="Trazado_174349" data-name="Trazado 174349" d="M195.124,428.094c.014.065.027.13.039.2.647-.574.535-1.348.55-2.088l-.067-.012a13.69,13.69,0,0,1-.521,1.9" transform="translate(-163.625 -357.394)" fill="#78767f"/>
        <path id="Trazado_174350" data-name="Trazado 174350" d="M158.259,382.764c-.491-1.6-1.683-1.547-2.954-1.451-.4.03-.8,0-1.2,0-1.731,0-1.7,0-1.712-1.735,0-.6.229-.7.752-.691,1.258.028,2.516.005,3.774,0,.29,0,.586.052.715-.335a5.118,5.118,0,0,1,1.991-2.442h0v-.173c-.048.025-.1.048-.143.074a4.222,4.222,0,0,0-1.793,1.9,1.217,1.217,0,0,1-1.286.74c-.8-.026-1.608-.006-2.412-.006-1.865,0-1.956.115-1.85,1.958.037.642.32.917.946.919.965,0,1.932.049,2.893-.01a1.7,1.7,0,0,1,1.909,1.074,2.287,2.287,0,0,0,1.688,1.465l.008-.023.009,0c-.5-.375-1.151-.68-1.331-1.267" transform="translate(-127.553 -315.257)" fill="#78767f"/>
        <path id="Trazado_174351" data-name="Trazado 174351" d="M198.361,426.035l-.008.023.067.011-.051-.038-.009,0" transform="translate(-166.333 -357.258)" fill="#78767f"/>
        <path id="Trazado_174352" data-name="Trazado 174352" d="M141.418,431.932c-2.707,1.578-5.436,3.118-8.133,4.711l-.066.038a.431.431,0,0,0,.107.121q3.93-2.254,7.859-4.508c1.28-.736,1.326-.765,1.988.358.013-.023.027-.046.039-.069-.242-1.156-.684-1.3-1.793-.651" transform="translate(-111.713 -361.884)" fill="#78767f"/>
        <path id="Trazado_174353" data-name="Trazado 174353" d="M194.881,438.026l.078.133c-.012-.071-.025-.137-.039-.2-.012.023-.026.046-.039.069" transform="translate(-163.421 -367.258)" fill="#78767f"/>
        <path id="Trazado_174354" data-name="Trazado 174354" d="M294.783,97.508a1.894,1.894,0,0,1-.176-1.167q-.009-5.174,0-10.347c0-.227-.014-.454-.034-.681-1.179.67-2.282,1.29-3.377,1.919-1.693.973-3.374,1.965-5.075,2.923a1.308,1.308,0,0,0-.81,1.3c.041,3.917.017,7.835.026,11.753,0,.306-.123.653.184.9.311-.181.572-.23.744.193a4,4,0,0,0,.374.6c.453-.264.917-.512,1.355-.8a.384.384,0,0,1,.3-.083,4.3,4.3,0,0,1,.771-3.481.952.952,0,0,0,.007-1.18c-.578-.966-1.15-1.939-1.671-2.937-.384-.736-.327-.956.409-1.355,1.622-.878,1.388-1.139,2.4.57.382.647.791,1.281,1.115,1.957a1.478,1.478,0,0,0,1.647.975,3.627,3.627,0,0,1,1.951.388,1.662,1.662,0,0,1,.788.594,7.127,7.127,0,0,1,.151-2,.95.95,0,0,1-1.077-.05" transform="translate(-239.252 -71.541)" fill="#78767f"/>
        <path id="Trazado_174355" data-name="Trazado 174355" d="M349.734,162.825a.978.978,0,0,1,.088.184,7.012,7.012,0,0,0,.168-2.245c-.035.025-.071.045-.106.065a7.128,7.128,0,0,0-.151,2" transform="translate(-293.277 -134.812)" fill="#78767f"/>
        <path id="Trazado_174356" data-name="Trazado 174356" d="M304.571,146.068a3.629,3.629,0,0,0-1.951-.388,1.478,1.478,0,0,1-1.647-.976c-.324-.675-.733-1.31-1.115-1.957-1.01-1.709-.775-1.447-2.4-.57-.736.4-.794.619-.409,1.355.522,1,1.093,1.971,1.671,2.937a.952.952,0,0,1-.007,1.18,4.3,4.3,0,0,0-.771,3.481.422.422,0,0,1,.239.236,4.309,4.309,0,0,1,.957-3.953c.247-.29.085-.483-.044-.71q-.675-1.184-1.355-2.365c-.914-1.593-.9-1.572.683-2.492.461-.268.619-.133.837.265.589,1.078,1.236,2.125,1.821,3.206a.872.872,0,0,0,1,.552,4.375,4.375,0,0,1,3.281.913c0-.015-.008-.03-.01-.045s0-.05.006-.075a1.662,1.662,0,0,0-.788-.594" transform="translate(-248.902 -118.649)" fill="#78767f"/>
        <path id="Trazado_174357" data-name="Trazado 174357" d="M349.7,173.608c0,.016.007.03.01.045l.084.064a.989.989,0,0,0-.088-.184c0,.025,0,.05-.006.075" transform="translate(-293.245 -145.52)" fill="#78767f"/>
        <path id="Trazado_174358" data-name="Trazado 174358" d="M342.978,97.237h0c-.362-.224-.195-.584-.2-.878-.012-3.723-.008-7.446-.008-11.31l-.009-.013-.079.045c.02.227.035.453.034.681q-.009,5.174,0,10.348a1.9,1.9,0,0,0,.176,1.167.95.95,0,0,0,1.077.05c.007-.02.014-.04.022-.06l.036-.006-1.054-.023h0" transform="translate(-287.367 -71.309)" fill="#78767f"/>
        <path id="Trazado_174359" data-name="Trazado 174359" d="M350.691,160.763c-.008.02-.015.04-.022.06.035-.02.071-.041.106-.066h-.048l-.036.006" transform="translate(-294.061 -134.806)" fill="#78767f"/>
        <path id="Trazado_174360" data-name="Trazado 174360" d="M162.959,84.654A1.7,1.7,0,0,0,164.9,83.52l.093-.158a1.792,1.792,0,0,1-.015-.419q0-5.063,0-10.127c0-.262-.054-.542.167-.759-.548-.326-1.074-.7-1.648-.964-.608-.284-.705-.61-.283-1.12a1.607,1.607,0,0,0,.171-.357l-1.695-.909a.563.563,0,0,0-.021.277c.012,4.349,0,8.7.007,13.042,0,.241.006.483-.01.724-.067.99-.515,1.248-1.46.845.3.627.015,1.347.293,1.978,0,.017,0,.033.007.049a2.754,2.754,0,0,1,2.452-.968" transform="translate(-134.346 -57.616)" fill="#006def"/>
        <path id="Trazado_174361" data-name="Trazado 174361" d="M160.1,162.785c-.278-.631.01-1.351-.293-1.978l-.057-.024c0,.393-.027.79.013,1.179.034.33-.215.757.269.966h0c.024-.033.049-.063.074-.095,0-.016,0-.032-.007-.049" transform="translate(-133.941 -134.829)" fill="#006def"/>
        <path id="Trazado_174362" data-name="Trazado 174362" d="M165.152,160.947a.932.932,0,0,0,1.175-.632,6.86,6.86,0,0,1,.32-.638.466.466,0,0,1-.1-.2l-.093.158a1.7,1.7,0,0,1-1.943,1.134,2.753,2.753,0,0,0-2.452.968c0,.015,0,.029,0,.044a4.443,4.443,0,0,1,3.085-.838" transform="translate(-135.9 -133.735)" fill="#006def"/>
        <path id="Trazado_174363" data-name="Trazado 174363" d="M161.678,173.487c-.025.031-.05.062-.074.095l.079-.051c0-.014,0-.029,0-.044" transform="translate(-135.516 -145.481)" fill="#006def"/>
        <path id="Trazado_174364" data-name="Trazado 174364" d="M161.6,82.049c.016-.241.011-.483.01-.724,0-4.346.005-8.693-.007-13.042a.561.561,0,0,1,.02-.277l-.252-.135h0q-.015,6.815-.029,13.629c0,1.277,0,1.293-1.216,1.367l.013.027c.945.4,1.393.145,1.46-.845" transform="translate(-134.279 -56.915)" fill="#006def"/>
        <path id="Trazado_174365" data-name="Trazado 174365" d="M159.9,160.767l-.044,0,.057.024-.013-.026" transform="translate(-134.049 -134.814)" fill="#006def"/>
        <path id="Trazado_174366" data-name="Trazado 174366" d="M29.117,273.885c-3.658,2.137-7.335,4.241-11,6.372-.434.253-.985.381-1.238.88l1.689.909h0c.687-1.021.685-1.018,1.809-.369,3.167,1.83,6.354,3.625,9.489,5.506a1.426,1.426,0,0,0,2.021-.164c-1.761-1.216-3.673-2.179-5.512-3.264-2-1.18-4.013-2.336-6.134-3.568l6.549-3.786c1.321-.763,2.639-1.531,3.965-2.284.182-.1.362-.281.582-.257a2.837,2.837,0,0,1-.138-2.316,3.9,3.9,0,0,0-1.365.5,1.039,1.039,0,0,1-.562.2c.809.682.774,1.1-.159,1.646" transform="translate(-14.158 -227.71)" fill="#88878f"/>
        <path id="Trazado_174367" data-name="Trazado 174367" d="M93.684,271.077a3.892,3.892,0,0,1,1.366-.5c.006-.013.011-.025.018-.038a.681.681,0,0,0-.868.022c-.381.228-.785.418-1.179.624.036.029.069.057.1.085a1.038,1.038,0,0,0,.562-.2" transform="translate(-78.004 -226.744)" fill="#88878f"/>
        <path id="Trazado_174368" data-name="Trazado 174368" d="M104.695,273.846a.457.457,0,0,1,.216.087,6.072,6.072,0,0,1-.336-2.406l-.017,0a2.837,2.837,0,0,0,.138,2.316" transform="translate(-87.511 -227.694)" fill="#88878f"/>
        <path id="Trazado_174369" data-name="Trazado 174369" d="M105.61,271.346c0-.012,0-.023,0-.035-.006.013-.011.025-.018.038l.017,0" transform="translate(-88.547 -227.513)" fill="#88878f"/>
        <path id="Trazado_174370" data-name="Trazado 174370" d="M27.274,277.494c-3.217,1.854-6.441,3.7-9.648,5.569a13.957,13.957,0,0,0-2.432,1.5h0l.272.146c.253-.5.8-.628,1.238-.88,3.661-2.131,7.339-4.235,11-6.372.933-.545.968-.965.159-1.646-.019,0-.038,0-.058-.005.58,1.04.555,1.06-.528,1.684" transform="translate(-12.741 -231.286)" fill="#88878f"/>
        <path id="Trazado_174371" data-name="Trazado 174371" d="M93.122,275.4c-.034-.028-.066-.056-.1-.085l.044.08a.558.558,0,0,0,.058.005" transform="translate(-78.004 -230.872)" fill="#88878f"/>
        <path id="Trazado_174372" data-name="Trazado 174372" d="M315.177,414.227q6.059,3.459,12.09,6.966a2.467,2.467,0,0,0,.935.41q-.015-.516-.031-1.033h0c-3.166-1.833-6.317-3.694-9.51-5.479a1.734,1.734,0,0,1-1.091-1.867c.084-.959.031-1.929.022-2.9a1.879,1.879,0,0,1-.258-.013,1.685,1.685,0,0,0-1.987,1.033,2.983,2.983,0,0,1-2.51,1.837.312.312,0,0,1,.082.221,2.3,2.3,0,0,0,.714,1.562c.273-1.183.532-1.318,1.544-.741" transform="translate(-262.336 -344.05)" fill="#006def"/>
        <path id="Trazado_174373" data-name="Trazado 174373" d="M312.978,430.047a2.3,2.3,0,0,1-.714-1.562.312.312,0,0,0-.082-.221c-.035,0-.069.005-.1.006-.06.777-.056,1.522.9,1.792h0l0-.014" transform="translate(-261.681 -359.129)" fill="#006def"/>
        <path id="Trazado_174374" data-name="Trazado 174374" d="M331.4,439.967q-6.04-3.492-12.09-6.966c-1.012-.578-1.271-.442-1.544.741l0,0c.663-1.029.668-1.028,1.783-.384q6,3.461,12,6.918c.247.142.464.373.788.351h0q0-.127-.008-.254a2.469,2.469,0,0,1-.935-.41" transform="translate(-266.47 -362.824)" fill="#006def"/>
        <path id="Trazado_174375" data-name="Trazado 174375" d="M317.753,439.314l0,0,0,.014h0l.006-.01" transform="translate(-266.452 -368.392)" fill="#006def"/>
        <path id="Trazado_174376" data-name="Trazado 174376" d="M315.221,410.224a1.685,1.685,0,0,1,1.987-1.033,1.853,1.853,0,0,0,.258.013c0-.078,0-.155,0-.233-.478-.009-.956-.014-1.433-.028a.467.467,0,0,0-.531.349,4.617,4.617,0,0,1-2.814,2.744l.024.026a2.983,2.983,0,0,0,2.51-1.837" transform="translate(-262.209 -342.926)" fill="#006def"/>
        <path id="Trazado_174377" data-name="Trazado 174377" d="M312.268,428.1l-.081.032c.036,0,.07,0,.1-.006l-.024-.026" transform="translate(-261.791 -358.994)" fill="#006def"/>
        <path id="Trazado_174378" data-name="Trazado 174378" d="M403.914,272.672a4.966,4.966,0,0,1-.564,1.836,10.613,10.613,0,0,0,1.809-1c0-.012-.011-.022-.015-.035a1.221,1.221,0,0,1,.514-1.117c-.686-.162-1.242-.651-1.927-.817.336.322.239.723.184,1.129" transform="translate(-338.237 -227.708)" fill="#87868e"/>
        <path id="Trazado_174379" data-name="Trazado 174379" d="M407.377,271.919c.02-.015.038-.031.059-.045-.686-.252-1.157-1.042-2.035-.817.018.015.033.03.049.045.685.166,1.241.655,1.927.817" transform="translate(-339.957 -227.267)" fill="#87868e"/>
        <path id="Trazado_174380" data-name="Trazado 174380" d="M414.443,277.723c0,.013.01.023.016.035l.045-.026c.031-.431.378-.723.5-1.116l-.042-.009a1.221,1.221,0,0,0-.514,1.117" transform="translate(-347.537 -231.954)" fill="#87868e"/>
        <path id="Trazado_174381" data-name="Trazado 174381" d="M417.683,276.38c.005-.018.013-.036.017-.055-.021.014-.039.03-.059.045l.042.009" transform="translate(-350.221 -231.718)" fill="#87868e"/>
        <path id="Trazado_174382" data-name="Trazado 174382" d="M402.021,274.522c.073-.018.144-.041.215-.065a4.968,4.968,0,0,0,.564-1.835c.055-.406.152-.807-.184-1.129l-.043-.01a5.438,5.438,0,0,1-.551,3.039" transform="translate(-337.123 -227.658)" fill="#87868e"/>
        <path id="Trazado_174383" data-name="Trazado 174383" d="M405.45,271.31c-.016-.015-.031-.03-.049-.045,0,.012,0,.023.006.035l.043.01" transform="translate(-339.957 -227.475)" fill="#87868e"/>
        <path id="Trazado_174384" data-name="Trazado 174384" d="M352.171,284.9a1.314,1.314,0,0,0-.059,1.839c.576.87,1.036,1.814,1.575,2.709a.705.705,0,0,1-.27,1.125c-1.717,1.125-1.71,1.141-2.716-.648-.394-.7-.8-1.392-1.191-2.1a1.014,1.014,0,0,0-1.1-.616c-.087.005-.173.008-.259.009l-5.772,3.388c1.768,1.025,3.468,2.016,5.173,3,2,1.149,4,2.285,6,3.435a1.237,1.237,0,0,0,.737.267l9.348-5.377c.9-.517.9-.518,1.435.387a3.738,3.738,0,0,0,1.718-.91,20.616,20.616,0,0,0-3.131-1.9c-3.027-1.767-6.057-3.528-9.109-5.253a1.039,1.039,0,0,1-.509-.408,2.349,2.349,0,0,1-1.866,1.052" transform="translate(-287.108 -238.027)" fill="#c5c4c9"/>
        <path id="Trazado_174385" data-name="Trazado 174385" d="M415.113,284.028c3.052,1.725,6.082,3.486,9.109,5.253a20.619,20.619,0,0,1,3.131,1.9c.072-.069.143-.141.21-.217-1.69-.974-3.376-1.954-5.07-2.921q-3.923-2.24-7.853-4.467l-.037.044a1.038,1.038,0,0,0,.509.408" transform="translate(-347.675 -237.798)" fill="#c5c4c9"/>
        <path id="Trazado_174386" data-name="Trazado 174386" d="M378.392,292.632a1.014,1.014,0,0,1,1.1.616c.386.7.8,1.4,1.191,2.1,1.006,1.789,1,1.773,2.716.648a.705.705,0,0,0,.27-1.125c-.539-.895-1-1.838-1.575-2.709a1.314,1.314,0,0,1,.06-1.839c-.054,0-.109,0-.165-.009a1.047,1.047,0,0,0-.22,1.668,21.274,21.274,0,0,1,1.124,1.935c.961,1.679.952,1.661-.734,2.567-.4.214-.538.107-.724-.229-.606-1.1-1.259-2.168-1.845-3.275-.262-.494-.556-.749-1.117-.536l-.34.2c.086,0,.172,0,.259-.009" transform="translate(-317.091 -243.445)" fill="#c5c4c9"/>
        <path id="Trazado_174387" data-name="Trazado 174387" d="M403.066,284.781l-.023.026a2.35,2.35,0,0,0,1.866-1.052l-.008-.018a10.618,10.618,0,0,1-1.809,1c-.009.016-.017.032-.026.048" transform="translate(-337.98 -237.933)" fill="#c5c4c9"/>
        <path id="Trazado_174388" data-name="Trazado 174388" d="M414.563,283.62l.037-.044-.045.026.008.018" transform="translate(-347.633 -237.798)" fill="#c5c4c9"/>
        <path id="Trazado_174389" data-name="Trazado 174389" d="M402.209,289.957c.009-.016.017-.032.026-.048-.071.023-.141.047-.215.065.056.005.111.008.165.009l.023-.026" transform="translate(-337.123 -243.109)" fill="#c5c4c9"/>
        <path id="Trazado_174390" data-name="Trazado 174390" d="M437.947,354.028c.016,2.755.007,5.509.007,8.264q2.473-1.406,4.944-2.813a3.052,3.052,0,0,0,.264-.181c.244-.175-.088-.675.351-.7.64-.04,1.284-.015,1.926-.007a.292.292,0,0,1,.2.109,2.515,2.515,0,0,1-.492,2.281q-3.592,2.108-7.186,4.213c.081.494-.145,1.023.094,1.5l.155-.089c2.607-1.542,5.233-3.048,7.861-4.55a1.728,1.728,0,0,0,1.02-1.71c-.037-4.078-.014-8.156-.02-12.234-2.859,1.663-5.712,3.335-8.584,4.975a.929.929,0,0,0-.535.946m5.314-2.62c0-1.042-.153-.879,1.234-.895,1.182,0,1.191,0,1.177,1.521-.009,1.067.172.9-1.4.89-1.208,0-1.007.24-1.014-1.517m-.017,4.789c.085-1.908-.112-1.717.814-1.618.554.059,1.626-.715,1.627.723,0,1.646.015,1.646-1.277,1.658-.428-.108-1.216.392-1.164-.763" transform="translate(-367.24 -291.912)" fill="#787680"/>
        <path id="Trazado_174391" data-name="Trazado 174391" d="M447.676,359.729a1.727,1.727,0,0,1-1.02,1.71c-2.628,1.5-5.254,3.008-7.861,4.55l-.155.089a.978.978,0,0,0,.1.158q4.388-2.52,8.778-5.036a.647.647,0,0,0,.378-.633q-.029-6.595-.036-13.19l-.2.118c.006,4.078-.016,8.156.02,12.234" transform="translate(-367.83 -291.3)" fill="#787680"/>
        <path id="Trazado_174392" data-name="Trazado 174392" d="M420.013,332.021c.625,1.087.59,1.105-.578,1.78-3.272,1.891-6.535,3.8-9.819,5.668a1.061,1.061,0,0,0-.608,1.081c.021,3.783.012,7.567.014,11.35,0,1.243,0,1.243-1.186,1.314h0q0,.37,0,.74a1.01,1.01,0,0,1,.191.289,1.6,1.6,0,0,1,.033.856c1.623-.762,3.114-1.757,4.668-2.643-.456-.355-.172-.9-.205-1.365a1.039,1.039,0,0,1,.093-.234c-.714-.411-.845-1.241-1.259-1.865-.109-.164.164-.228.28-.306.349-.235.713-.449,1.071-.671a.609.609,0,0,1-.077-.05,1.864,1.864,0,0,1-.135-.943c0-2.33.015-4.66-.012-6.99a1.57,1.57,0,0,1,.863-1.566c2.635-1.487,5.224-3.054,7.861-4.538a1.332,1.332,0,0,1,.617-.254,19.86,19.86,0,0,0-.07-2.6,2.3,2.3,0,0,1-1.739.943" transform="translate(-341.997 -277.632)" fill="#57565c"/>
        <path id="Trazado_174393" data-name="Trazado 174393" d="M494.124,332.221a.566.566,0,0,1,.2.034,8.876,8.876,0,0,0-.139-2.911,1.248,1.248,0,0,1-.134.28,19.83,19.83,0,0,1,.07,2.6" transform="translate(-414.299 -276.178)" fill="#57565c"/>
        <path id="Trazado_174394" data-name="Trazado 174394" d="M408.252,466.153a.942.942,0,0,1-.187.34c1.735-.857,3.376-1.879,5.033-2.871a1,1,0,0,1-.179-.112c-1.554.885-3.045,1.88-4.668,2.643" transform="translate(-342.191 -388.686)" fill="#57565c"/>
        <path id="Trazado_174395" data-name="Trazado 174395" d="M408.018,473.076a1.018,1.018,0,0,0-.191-.289v.2h0q.015.517.031,1.033l.011,0c.062-.028.122-.059.183-.088a1.6,1.6,0,0,0-.033-.856" transform="translate(-341.991 -396.465)" fill="#57565c"/>
        <path id="Trazado_174396" data-name="Trazado 174396" d="M408.029,479.968l-.011,0,.008.254a.944.944,0,0,0,.187-.34c-.061.029-.122.06-.183.088" transform="translate(-342.152 -402.413)" fill="#57565c"/>
        <path id="Trazado_174397" data-name="Trazado 174397" d="M482.994,331.7a2.3,2.3,0,0,0,1.739-.943h0c-.025-.022-.051-.041-.077-.062a3.739,3.739,0,0,1-1.718.91l.055.1" transform="translate(-404.978 -277.306)" fill="#57565c"/>
        <path id="Trazado_174398" data-name="Trazado 174398" d="M493.579,329.562c.025.021.052.04.077.062h0a1.246,1.246,0,0,0,.134-.28c-.068.076-.138.148-.21.217" transform="translate(-413.901 -276.179)" fill="#57565c"/>
        <path id="Trazado_174399" data-name="Trazado 174399" d="M436.763,453.657h0c-.035-.017-.067-.036-.1-.055a1.042,1.042,0,0,0-.093.234c.034.464-.251,1.01.205,1.365l.081-.046c-.239-.475-.012-1-.094-1.5" transform="translate(-366.047 -380.377)" fill="#57565c"/>
        <path id="Trazado_174400" data-name="Trazado 174400" d="M445.344,347.418c-2.637,1.484-5.226,3.051-7.861,4.538a1.57,1.57,0,0,0-.863,1.566c.027,2.33.008,4.66.012,6.99a1.865,1.865,0,0,0,.135.943.653.653,0,0,0,.077.05l.006,0c0-2.755.01-5.51-.007-8.264a.928.928,0,0,1,.535-.946c2.872-1.639,5.725-3.312,8.584-4.975,0-.048,0-.1,0-.144,0,0,0-.005,0-.008a1.336,1.336,0,0,0-.617.254" transform="translate(-366.136 -291.121)" fill="#57565c"/>
        <path id="Trazado_174401" data-name="Trazado 174401" d="M494.489,347.172v.144l.2-.118a.567.567,0,0,0-.2-.034s0,.005,0,.008" transform="translate(-414.664 -291.121)" fill="#57565c"/>
        <path id="Trazado_174402" data-name="Trazado 174402" d="M438.22,463.222l-.081.046a.992.992,0,0,0,.179.112.979.979,0,0,1-.1-.158" transform="translate(-367.41 -388.444)" fill="#57565c"/>
        <path id="Trazado_174403" data-name="Trazado 174403" d="M304.042,201.453a.422.422,0,0,0-.239-.236c.016.078.034.157.054.235a.955.955,0,0,1,.185,0" transform="translate(-254.76 -168.735)" fill="#fefefe"/>
        <path id="Trazado_174404" data-name="Trazado 174404" d="M352.768,370.806c-1.181-.055-1.183-.07-1.183-1.316q0-5.711-.005-11.422c0-.336.061-.655-.35-.887-3.006-1.691-6-3.411-8.992-5.122h0c0,1.977.01,3.955-.022,5.931-.006.343.059.539.236.64.726,0,1.451,0,2.177.011.339,0,.711-.05.943.307a.994.994,0,0,1,.077.229c.321,2.085.1,2.348-1.994,2.346-.4,0-.8.007-1.205-.01-.025,0-.051,0-.076-.006a1.947,1.947,0,0,1,.063.674c.007.749.044,1.5-.009,2.246a1.533,1.533,0,0,0,.913,1.6c2.959,1.665,5.881,3.4,8.834,5.074a3.194,3.194,0,0,1,.539.352.793.793,0,0,1,.057-.65" transform="translate(-286.97 -295.226)" fill="#57a3fe"/>
        <path id="Trazado_174405" data-name="Trazado 174405" d="M342.507,395.656c.4.016.8.009,1.205.01,2.092,0,2.315-.262,1.994-2.346a1,1,0,0,0-.078-.229c-.232-.356-.6-.3-.943-.307-.725-.009-1.451-.011-2.177-.011a1.008,1.008,0,0,0,.491.092,8.513,8.513,0,0,1,2.447.087h0c.016.613.011,1.227.056,1.837.033.454-.125.6-.581.591-.88-.021-1.761.017-2.641.03a.7.7,0,0,1,.147.238c.026,0,.051,0,.076.006" transform="translate(-287.029 -329.368)" fill="#57a3fe"/>
        <path id="Trazado_174406" data-name="Trazado 174406" d="M352.07,420.164c-2.952-1.678-5.875-3.408-8.834-5.074a1.533,1.533,0,0,1-.913-1.6c.053-.745.016-1.5.009-2.246a1.947,1.947,0,0,0-.063-.674c-.048,0-.1,0-.146-.005.009.967.062,1.937-.022,2.9a1.733,1.733,0,0,0,1.091,1.867c3.193,1.786,6.343,3.647,9.51,5.48-.034-.1-.067-.193-.093-.29a3.191,3.191,0,0,0-.539-.352" transform="translate(-286.867 -344.286)" fill="#57a3fe"/>
        <path id="Trazado_174407" data-name="Trazado 174407" d="M342.283,409.121c0,.078,0,.155,0,.233.049,0,.1,0,.146,0a.7.7,0,0,0-.147-.238" transform="translate(-287.028 -343.077)" fill="#57a3fe"/>
        <path id="Trazado_174408" data-name="Trazado 174408" d="M407.025,468.84a1.262,1.262,0,0,1,.094.093q0-.37,0-.74l-.041,0a.792.792,0,0,0-.057.65" transform="translate(-341.283 -392.61)" fill="#57a3fe"/>
        <path id="Trazado_174409" data-name="Trazado 174409" d="M407.342,472.306a1.28,1.28,0,0,0-.094-.092c.026.1.06.194.093.29h0c0-.066,0-.132,0-.2" transform="translate(-341.506 -395.985)" fill="#57a3fe"/>
        <path id="Trazado_174410" data-name="Trazado 174410" d="M317.21,340.077a41.21,41.21,0,0,1,.08-6.064.614.614,0,0,1,.136-.139v0h0a16.737,16.737,0,0,0-1.553-.932c-.587-.276-.748-.58-.3-1.1a1.806,1.806,0,0,0,.185-.349l-1.873-1.115h-.035a25.41,25.41,0,0,0-.089,3.77c-.027,1.242-.01,1.269-1.126,1.357a.617.617,0,0,1,.058.074,2.232,2.232,0,0,1-.062,1.78,4.561,4.561,0,0,1,2.816,2.42,1.147,1.147,0,0,0,1.162.673h.751a.484.484,0,0,1-.145-.37" transform="translate(-262.16 -277.04)" fill="#006cef"/>
        <path id="Trazado_174411" data-name="Trazado 174411" d="M320.1,376.9c-.9-.09-1.809-.031-2.714-.032a.74.74,0,0,1-.509-.147h-.751a1.147,1.147,0,0,1-1.162-.673,4.561,4.561,0,0,0-2.816-2.42,1.516,1.516,0,0,1-.091.132h0a4.7,4.7,0,0,1,2.9,2.762c.135.364.359.391.674.388,1.491-.012,2.981-.01,4.473-.011h0" transform="translate(-261.683 -313.312)" fill="#006cef"/>
        <path id="Trazado_174412" data-name="Trazado 174412" d="M312.223,362.215a.6.6,0,0,0-.058-.074l-.071.006q-.011.911-.022,1.822l.09.027a2.232,2.232,0,0,0,.062-1.78" transform="translate(-261.693 -303.681)" fill="#006cef"/>
        <path id="Trazado_174413" data-name="Trazado 174413" d="M312.151,373.488l-.09-.026,0,.159h0a1.548,1.548,0,0,0,.091-.132" transform="translate(-261.683 -313.174)" fill="#006cef"/>
        <path id="Trazado_174414" data-name="Trazado 174414" d="M340.833,358c.033-1.977.019-3.954.022-5.931a.611.611,0,0,0-.136.139,41.21,41.21,0,0,0-.08,6.064.484.484,0,0,0,.145.37h.284c-.178-.1-.242-.3-.237-.64" transform="translate(-285.589 -295.233)" fill="#006cef"/>
        <path id="Trazado_174415" data-name="Trazado 174415" d="M361.9,393.891h0" transform="translate(-303.481 -330.305)" fill="#006cef"/>
        <path id="Trazado_174416" data-name="Trazado 174416" d="M342.43,392.922c.9,0,1.81-.058,2.713.032a8.508,8.508,0,0,0-2.447-.087,1.008,1.008,0,0,1-.491-.092h-.284a.739.739,0,0,0,.509.147" transform="translate(-286.725 -329.369)" fill="#006cef"/>
        <path id="Trazado_174417" data-name="Trazado 174417" d="M324.893,299.335c.586,1.111.561,1.114-.57,1.789-1.375.82-2.821,1.521-4.126,2.458l.032.019c.826-.051,1.353.541,1.931,1.022.6-.954.633-.936,1.69-.326,3.083,1.781,6.2,3.507,9.232,5.368a1.882,1.882,0,0,0,2.42.04,1.548,1.548,0,0,1-.654-.25c-3.45-1.95-6.863-3.963-10.308-5.922-.186-.106-.364-.226-.54-.348-.331-.227-.35-.509-.01-.691,1.821-.978,3.5-2.217,5.41-3.032a5.031,5.031,0,0,1-2.823-.991l-.032-.025a2.027,2.027,0,0,1-1.651.886" transform="translate(-268.508 -250.27)" fill="#88878f"/>
        <path id="Trazado_174418" data-name="Trazado 174418" d="M359.55,297.638a5.031,5.031,0,0,0,2.823.991c.162-.069.325-.136.491-.2a4.955,4.955,0,0,1-3.239-.978c-.033.057-.07.108-.107.161l.032.025" transform="translate(-301.481 -249.434)" fill="#88878f"/>
        <path id="Trazado_174419" data-name="Trazado 174419" d="M342.412,307.772c-.339.182-.32.464.01.691.177.122.354.242.54.348,3.445,1.958,6.858,3.972,10.308,5.922a1.548,1.548,0,0,0,.654.25c.061-.048.121-.1.182-.154a1.239,1.239,0,0,1-.737-.267c-2-1.151-4-2.287-6-3.435-1.705-.981-3.4-1.972-5.173-3l5.772-3.388h-.15c-1.91.815-3.589,2.054-5.41,3.032" transform="translate(-286.93 -255.546)" fill="#88878f"/>
        <path id="Trazado_174420" data-name="Trazado 174420" d="M377.351,303.708l.341-.2c-.166.063-.329.13-.491.2h.15" transform="translate(-316.309 -254.513)" fill="#88878f"/>
        <path id="Trazado_174421" data-name="Trazado 174421" d="M349.129,299.107a2.027,2.027,0,0,0,1.651-.886c-.02-.014-.037-.03-.057-.044a5.061,5.061,0,0,1-1.626.873l.031.058" transform="translate(-292.743 -250.042)" fill="#88878f"/>
        <path id="Trazado_174422" data-name="Trazado 174422" d="M359.225,297.613c.036-.052.073-.1.107-.161l-.163.117c.019.015.037.03.056.044" transform="translate(-301.188 -249.434)" fill="#88878f"/>
        <path id="Trazado_174423" data-name="Trazado 174423" d="M320.4,330.356l1.873,1.115.058-.092c-.578-.481-1.106-1.073-1.931-1.022" transform="translate(-268.676 -277.024)" fill="#88878f"/>
        <path id="Trazado_174424" data-name="Trazado 174424" d="M60.962,294.522c1-.576,1-.575,1.606.4a7.892,7.892,0,0,0,1.921-1.117c-1.465-.862-2.9-1.773-4.407-2.565-.72-.38-.77-.72-.3-1.286a1.127,1.127,0,0,0,.147-.283,1.8,1.8,0,0,1-1.657-.89,4.622,4.622,0,0,1-3.232,1.019,1.136,1.136,0,0,0-1.207.7c-.5.946-1.049,1.869-1.588,2.8-.425.731-.686.795-1.43.381-1.562-.868-1.552-.864-.68-2.423.419-.749.864-1.482,1.3-2.219a.95.95,0,0,0-.06-1.3,2.158,2.158,0,0,1-.418-.771c-3.591,1.955-7.1,4.061-10.752,6.133.948.606,1.831,1.1,2.7,1.6q3.892,2.258,7.792,4.5c.309.178.705.29.821.707,1.646-.925,3.3-1.844,4.937-2.78,1.5-.858,3-1.736,4.5-2.6" transform="translate(-33.72 -240.636)" fill="#c5c4c9"/>
        <path id="Trazado_174425" data-name="Trazado 174425" d="M99.892,287.288a.95.95,0,0,1,.06,1.3c-.438.737-.883,1.47-1.3,2.219-.873,1.559-.882,1.555.68,2.423.744.414,1,.349,1.429-.381.539-.927,1.086-1.85,1.588-2.8a1.136,1.136,0,0,1,1.207-.7,4.623,4.623,0,0,0,3.232-1.019c-.029-.053-.057-.108-.082-.167a4.676,4.676,0,0,1-3.465.975.717.717,0,0,0-.87.45c-.624,1.153-1.32,2.268-1.931,3.428-.3.566-.632.325-.874.076-.412-.424-1.47-.215-1.25-1.252a.819.819,0,0,1,.112-.212c.477-.837.908-1.707,1.446-2.5s.816-1.515-.018-2.275a1.45,1.45,0,0,1-.224-.423l-.155.085a2.162,2.162,0,0,0,.418.771" transform="translate(-82.23 -240.193)" fill="#c5c4c9"/>
        <path id="Trazado_174426" data-name="Trazado 174426" d="M48.609,298.289q-3.9-2.24-7.792-4.5c-.872-.506-1.754-1-2.7-1.6,3.656-2.072,7.162-4.178,10.752-6.133-.019-.052-.037-.1-.054-.156l-.006-.017c-.22-.024-.4.154-.582.257-1.326.753-2.644,1.521-3.965,2.284l-6.549,3.786c2.121,1.233,4.135,2.389,6.134,3.568,1.839,1.085,3.75,2.048,5.512,3.264L49.43,299c-.116-.417-.511-.529-.821-.707" transform="translate(-31.623 -239.727)" fill="#c5c4c9"/>
        <path id="Trazado_174427" data-name="Trazado 174427" d="M106.505,286.063l.155-.085a.457.457,0,0,0-.216-.087l.006.017q.026.078.054.156" transform="translate(-89.262 -239.739)" fill="#c5c4c9"/>
        <path id="Trazado_174428" data-name="Trazado 174428" d="M153.771,298.886c.01-.022.019-.045.03-.066a4.169,4.169,0,0,1-1.631-.867h0l-.055.043a1.8,1.8,0,0,0,1.657.89" transform="translate(-127.558 -249.854)" fill="#c5c4c9"/>
        <path id="Trazado_174429" data-name="Trazado 174429" d="M151.744,297.313h0c-.046-.04-.093-.08-.138-.123.025.059.053.114.082.167l.055-.043" transform="translate(-127.133 -249.214)" fill="#c5c4c9"/>
        <path id="Trazado_174430" data-name="Trazado 174430" d="M201.29,109.178h0q.009-.4.017-.8h0a1.187,1.187,0,0,0-.319-.023c-.767.156-.856-.237-.851-.891.027-3.919,0-7.837.026-11.756a1.116,1.116,0,0,0-.643-1.139c-2.877-1.618-5.734-3.274-8.6-4.917a.9.9,0,0,1,.026.3c-.029,2.924,0,5.847-.01,8.769a18.336,18.336,0,0,1-.057,1.924c.386-.658.771-1.318,1.134-1.989a.822.822,0,0,1,1.256-.4c.071.037.142.073.213.111,1.393.75,1.428.871.664,2.244a20.531,20.531,0,0,1-1.084,1.866c-.516.732-.706,1.4.046,2.078.011.021.019.042.029.062a17.792,17.792,0,0,1,2.81,1.536c1.8.982,3.561,2.016,5.34,3.029" transform="translate(-160.067 -75.176)" fill="#57a3fe"/>
        <path id="Trazado_174431" data-name="Trazado 174431" d="M192.765,148.467c-.752-.678-.562-1.346-.046-2.078a20.6,20.6,0,0,0,1.084-1.866c.764-1.372.729-1.493-.664-2.244-.07-.038-.142-.073-.213-.111a.822.822,0,0,0-1.256.4c-.363.671-.748,1.331-1.134,1.989-.017.16-.038.319-.067.478.3-.505.606-1.007.9-1.516.883-1.527.866-1.5,2.39-.656.534.3.5.537.227.981-.559.911-1.013,1.891-1.619,2.769a1.193,1.193,0,0,0,.158,1.835c.092.024.181.052.27.082-.01-.021-.019-.042-.029-.062" transform="translate(-159.721 -119.093)" fill="#57a3fe"/>
        <path id="Trazado_174432" data-name="Trazado 174432" d="M189.976,98.556c.006-2.922-.019-5.845.01-8.769a.906.906,0,0,0-.026-.3l-.053-.031h0c-.221.216-.167.5-.167.759q0,5.063,0,10.127a1.792,1.792,0,0,0,.015.419l.165-.281a18.336,18.336,0,0,0,.057-1.924" transform="translate(-159.105 -75.016)" fill="#57a3fe"/>
        <path id="Trazado_174433" data-name="Trazado 174433" d="M189.861,158.022a.463.463,0,0,0,.1.2c.029-.159.05-.318.067-.478l-.165.281" transform="translate(-159.212 -132.277)" fill="#57a3fe"/>
        <path id="Trazado_174434" data-name="Trazado 174434" d="M209.073,186.542q2.126,1.213,4.26,2.414-.005-.687-.01-1.374c-.208.138-.429-.015-.625-.129-2.493-1.445-5.021-2.829-7.467-4.353a5.271,5.271,0,0,1,.431,2.754c-.005.026-.012.052-.017.079a2.753,2.753,0,0,1,1.637.933c.67-.966.687-.955,1.792-.325" transform="translate(-172.1 -153.542)" fill="#006def"/>
        <path id="Trazado_174435" data-name="Trazado 174435" d="M203.944,184.879c.005-.026.012-.052.017-.079a5.271,5.271,0,0,0-.431-2.754c-.109-.068-.219-.134-.327-.2a5.511,5.511,0,0,1,.577,3.019c.056,0,.109.011.164.017" transform="translate(-170.4 -152.488)" fill="#006def"/>
        <path id="Trazado_174436" data-name="Trazado 174436" d="M209.321,201.628l.031-.045a2.751,2.751,0,0,0-1.637-.933c0,.022-.01.044-.015.067l1.621.911" transform="translate(-174.171 -168.259)" fill="#006def"/>
        <path id="Trazado_174437" data-name="Trazado 174437" d="M206.942,200.561c-.054-.006-.107-.015-.164-.017l.149.084c0-.022.01-.044.015-.067" transform="translate(-173.398 -168.17)" fill="#006def"/>
        <path id="Trazado_174438" data-name="Trazado 174438" d="M213.026,186.952v-.037h0c-1.778-1.012-3.544-2.047-5.34-3.029a17.792,17.792,0,0,0-2.81-1.537c.02.04.038.081.057.121,2.446,1.524,4.975,2.908,7.467,4.353.2.114.417.267.625.129" transform="translate(-171.804 -152.912)" fill="#006def"/>
        <path id="Trazado_174439" data-name="Trazado 174439" d="M203.473,181.926c-.089-.03-.179-.057-.27-.082.109.068.218.135.327.2-.019-.04-.037-.081-.057-.121" transform="translate(-170.4 -152.489)" fill="#006def"/>
        <path id="Trazado_174440" data-name="Trazado 174440" d="M196.883,363.217c-.223,0-.445,0-.666.017a1.7,1.7,0,0,0,.278.025.233.233,0,0,1,.15.1.463.463,0,0,1,.238-.138" transform="translate(-164.542 -304.583)" fill="#57565c"/>
        <path id="Trazado_174441" data-name="Trazado 174441" d="M117.148,332.847c0-.814-.013-1.629-.022-2.443,0-.23.083-.486-.084-.691a3.035,3.035,0,0,1-1.929,1.145c.549,1.047.52,1.065-.555,1.685-3.248,1.871-6.488,3.755-9.747,5.605a1.238,1.238,0,0,0-.724,1.256c.035,3.752.017,7.5.017,11.257,0,1.312,0,1.312-1.285,1.364h0q0,.413,0,.827h0a3.378,3.378,0,0,1,0,1.093c.368.067.657-.2.949-.376,1.28-.755,2.572-1.491,3.862-2.23-.238-.139-.191-.442-.192-.676-.024-4.023-.016-8.045-.011-12.068a1.32,1.32,0,0,1,.727-1.241c2.651-1.522,5.294-3.059,7.947-4.578.425-.243.7-.325.866-.222l.026-.015v.035a.5.5,0,0,1,.157.274" transform="translate(-86.219 -276.488)" fill="#57565c"/>
        <path id="Trazado_174442" data-name="Trazado 174442" d="M103.136,465.914c-.292.172-.581.443-.949.376a.886.886,0,0,1-.123.237h0c.195.2.344.017.492-.068q2.325-1.35,4.644-2.709a.554.554,0,0,1-.2-.066c-1.29.739-2.581,1.475-3.862,2.23" transform="translate(-85.588 -388.832)" fill="#57565c"/>
        <path id="Trazado_174443" data-name="Trazado 174443" d="M140.013,347.3c-2.653,1.519-5.3,3.056-7.947,4.578a1.32,1.32,0,0,0-.727,1.241c0,4.023-.012,8.046.011,12.068,0,.234-.046.537.193.676l.1-.055a1.023,1.023,0,0,1-.064-.548c0-4.073.007-8.146-.013-12.218a.993.993,0,0,1,.63-.983c1.632-.91,3.239-1.866,4.859-2.8,1.234-.71,2.473-1.411,3.828-2.184-.169-.1-.441-.021-.866.222" transform="translate(-110.133 -291.017)" fill="#57565c"/>
        <path id="Trazado_174444" data-name="Trazado 174444" d="M191.794,350.022a1.721,1.721,0,0,1-.278-.025l-.069,0c-.513.037-.7-.131-.689-.666s.013-1.085.012-1.628a.5.5,0,0,0-.157-.274c0,.549,0,.96,0,1.37.017,1.521-.192,1.329,1.3,1.347.008-.011.018-.021.027-.031a.232.232,0,0,0-.15-.1" transform="translate(-159.841 -291.345)" fill="#57565c"/>
        <path id="Trazado_174445" data-name="Trazado 174445" d="M132.83,463.467h0a.428.428,0,0,1-.107-.121l-.1.055a.555.555,0,0,0,.2.066" transform="translate(-111.218 -388.548)" fill="#57565c"/>
        <path id="Trazado_174446" data-name="Trazado 174446" d="M199.962,363.222c-.285,0-.571-.005-.856-.006a.463.463,0,0,0-.238.138l.015.016c.349-.121.747.092,1.079-.148" transform="translate(-166.765 -304.582)" fill="#57565c"/>
        <path id="Trazado_174447" data-name="Trazado 174447" d="M198.729,364.073a.407.407,0,0,0-.027.031l.042-.015-.015-.015" transform="translate(-166.626 -305.301)" fill="#57565c"/>
        <path id="Trazado_174448" data-name="Trazado 174448" d="M178.7,330.464l.046.087a3.035,3.035,0,0,0,1.929-1.145.462.462,0,0,0-.054-.059,7.887,7.887,0,0,1-1.921,1.117" transform="translate(-149.852 -276.181)" fill="#57565c"/>
        <path id="Trazado_174449" data-name="Trazado 174449" d="M30.132,354.254c0-.036,0-.072,0-.109l-1.392-.845q-3.237-1.838-6.474-3.676c-.627-.356-1.248-.725-1.88-1.073-.292-.161-.58-.3-.508-.713-.059-.053-.11-.134-.178-.155-1.811-.555-2.207-1.861-1.89-3.548.354-.357.809-.2,1.2-.163.724.062.974-.207.869-.9a3.281,3.281,0,0,1,.008-.557c-.026-.007-.051-.015-.077-.021-.649-.143-1.617.283-1.895-.192-.328-.56-.092-1.449-.1-2.195.355-.356.809-.2,1.2-.163.724.062.974-.208.869-.9a3.281,3.281,0,0,1,.008-.557c-.026-.007-.051-.015-.077-.021-.65-.143-1.616.283-1.9-.193-.328-.56-.093-1.45-.1-2.2.353-.364.806-.186,1.2-.168.626.029.976-.11.877-.819-.015-.109.094-.235.145-.354h0a17.749,17.749,0,0,0-1.76-1.033c-.635-.286-.67-.609-.272-1.1a1.423,1.423,0,0,0,.159-.328l-.022.025a3.684,3.684,0,0,1-1.689-.886c-.007.017-.015.032-.021.05-.036,5.019,0,10.037-.024,15.055a1.466,1.466,0,0,0,.9,1.38q6.422,3.686,12.83,7.394l.036.017a7.012,7.012,0,0,1-.036-1.057" transform="translate(-13.754 -277.914)" fill="#006def"/>
        <path id="Trazado_174450" data-name="Trazado 174450" d="M28.957,354.156q-6.416-3.693-12.83-7.395a1.466,1.466,0,0,1-.9-1.38c.028-5.018-.012-10.036.024-15.055.006-.017.014-.033.021-.05-.081-.071-.161-.143-.239-.219h0c-.007,5.284-.007,10.568-.031,15.852,0,.445.238.6.549.777q6.755,3.888,13.505,7.785h0a2.451,2.451,0,0,1-.062-.3l-.036-.017" transform="translate(-12.579 -276.776)" fill="#006def"/>
        <path id="Trazado_174451" data-name="Trazado 174451" d="M18.37,331.925l.022-.024c0-.008.007-.017.011-.025l-1.689-.909c-.012.023-.022.048-.033.072a3.684,3.684,0,0,0,1.689.886" transform="translate(-13.988 -277.538)" fill="#006def"/>
        <path id="Trazado_174452" data-name="Trazado 174452" d="M15.469,330.205l-.272-.146c.078.076.158.148.24.219.01-.025.021-.049.032-.072" transform="translate(-12.744 -276.778)" fill="#006def"/>
        <path id="Trazado_174453" data-name="Trazado 174453" d="M101.441,472.335a7.012,7.012,0,0,0,.036,1.057.732.732,0,0,0,.185.061,3.376,3.376,0,0,0,0-1.093h0l-.221-.134c0,.036,0,.072,0,.108" transform="translate(-85.063 -395.995)" fill="#006def"/>
        <path id="Trazado_174454" data-name="Trazado 174454" d="M101.681,479.445a2.45,2.45,0,0,0,.062.3.886.886,0,0,0,.123-.237.74.74,0,0,1-.185-.062" transform="translate(-85.267 -402.048)" fill="#006def"/>
        <path id="Trazado_174455" data-name="Trazado 174455" d="M190.253,28.2l11.7,6.816q3.923-2.236,7.846-4.473c.648-.37,1.314-.715,1.934-1.127.49-.325.837-.388,1.065.256a1.54,1.54,0,0,0,.221.326,8.459,8.459,0,0,0,1.684-.937,2.331,2.331,0,0,0-.876-.618c-3.933-2.3-7.9-4.537-11.827-6.85-.028-.023-.055-.042-.083-.063-1.727.843-3.337,1.895-5.009,2.835-2.19,1.23-4.354,2.507-6.654,3.835m4.9.4c-.582.37-1.177.721-1.682,1.028-.26.036-.354-.046-.424-.17-.277-.486-.55-.975-.831-1.459-.272-.468.142-.619.4-.667.589-.109.95-1.149,1.661-.514a5.529,5.529,0,0,1,.866,1.426c.066.114.152.265.008.357m5.251-5.827a.744.744,0,0,1,.815.016q3.5,2.037,7.005,4.06c.2.117.457.2.422.579a18.548,18.548,0,0,1-1.02,1.646c-.168.222-.44-.062-.632-.171q-2.859-1.621-5.706-3.265c-.259-.149-.491-.319-.8-.1-.248.175-.391,0-.505-.2-.066-.116-.12-.239-.188-.355-.839-1.437-.835-1.429.609-2.206m-2.985,1.77c.205-.047.285.1.368.239.327.545.952,1.133.811,1.671-.169.644-1.1.751-1.656,1.152-.176.126-.292.048-.379-.124-.073-.143-.162-.278-.232-.422-.233-.473-.885-1.051-.684-1.351.338-.505,1.063-.751,1.626-1.1a.878.878,0,0,1,.147-.061" transform="translate(-159.54 -18.054)" fill="#c5c4c9"/>
        <path id="Trazado_174456" data-name="Trazado 174456" d="M262.587,21.188c3.925,2.313,7.894,4.551,11.827,6.85a2.332,2.332,0,0,1,.876.618c.079-.059.156-.12.232-.184L262.66,21.047l-.156.078c.027.021.055.04.083.063" transform="translate(-220.128 -17.649)" fill="#c5c4c9"/>
        <path id="Trazado_174457" data-name="Trazado 174457" d="M267.762,69.789c.531,1.06.494,1.071-.607,1.706-3.271,1.887-6.528,3.8-9.81,5.662a1.049,1.049,0,0,0-.6,1.074c.02,3.78.011,7.56.011,11.34,0,1.3,0,1.326-1.212,1.373a.743.743,0,0,1,.061.7.553.553,0,0,1-.122.131,1.342,1.342,0,0,1,.154,1.245.8.8,0,0,1-.073.1c1.71-.81,3.308-1.818,4.928-2.788a1.786,1.786,0,0,0-.247-.088,1.93,1.93,0,0,1-.163-1.021c0-3.781.015-7.563-.015-11.344a1.832,1.832,0,0,1,1.06-1.8q3.359-1.9,6.692-3.855c.347-.2.7-.4,1.053-.588s.554-.263.681-.226a8.146,8.146,0,0,1-.057-2.482c-.009-.024-.021-.043-.032-.065a3.072,3.072,0,0,1-1.7.922" transform="translate(-214.236 -57.75)" fill="#57565c"/>
        <path id="Trazado_174458" data-name="Trazado 174458" d="M341.858,67.4a8.144,8.144,0,0,0,.057,2.482.168.168,0,0,1,.089.063l.009-.005v.018a1.373,1.373,0,0,1,.087.649c0,3.594,0,7.187.007,10.781,0,.251-.122.535.109.759-.018-.32-.051-.639-.051-.959,0-3.56.011-7.121-.01-10.682-.007-1.155-.1-2.31-.157-3.465a1.683,1.683,0,0,1-.172.295c.01.022.023.041.032.065" transform="translate(-286.605 -56.218)" fill="#57565c"/>
        <path id="Trazado_174459" data-name="Trazado 174459" d="M292.667,84.831c-.357.185-.706.385-1.054.588q-3.331,1.952-6.692,3.855a1.832,1.832,0,0,0-1.06,1.8c.03,3.781.011,7.562.015,11.344a1.93,1.93,0,0,0,.163,1.021,1.757,1.757,0,0,1,.247.088l.017-.01c-.307-.25-.183-.6-.184-.9-.008-3.918.016-7.836-.026-11.753a1.308,1.308,0,0,1,.81-1.3c1.7-.958,3.383-1.95,5.075-2.923,1.1-.63,2.2-1.25,3.377-1.919q0-.054-.01-.107c-.126-.037-.335.048-.681.226" transform="translate(-238.038 -70.94)" fill="#57565c"/>
        <path id="Trazado_174460" data-name="Trazado 174460" d="M342.625,84.648c0,.036.007.072.01.107l.079-.045a.169.169,0,0,0-.089-.062" transform="translate(-287.315 -70.983)" fill="#57565c"/>
        <path id="Trazado_174461" data-name="Trazado 174461" d="M343.17,96.543c-.01-3.593-.005-7.187-.007-10.781a1.372,1.372,0,0,0-.087-.649c0,3.864,0,7.587.008,11.31,0,.294-.167.654.2.878h0c-.231-.224-.109-.508-.109-.759" transform="translate(-287.668 -71.374)" fill="#57565c"/>
        <path id="Trazado_174462" data-name="Trazado 174462" d="M255.5,206.331a.743.743,0,0,0-.061-.7l-.062,0q-.008.4-.017.8h0l.019.022a.555.555,0,0,0,.122-.131" transform="translate(-214.136 -172.438)" fill="#57565c"/>
        <path id="Trazado_174463" data-name="Trazado 174463" d="M255.532,212.013a1.342,1.342,0,0,0-.154-1.245l-.019.015q.005.687.01,1.374l.089-.044a.8.8,0,0,0,.073-.1" transform="translate(-214.136 -176.744)" fill="#57565c"/>
        <path id="Trazado_174464" data-name="Trazado 174464" d="M255.358,210.629v.037l.019-.015-.019-.022" transform="translate(-214.136 -176.627)" fill="#57565c"/>
        <path id="Trazado_174465" data-name="Trazado 174465" d="M331.324,69.215a3.072,3.072,0,0,0,1.7-.922.877.877,0,0,0-.06-.111,8.458,8.458,0,0,1-1.684.937l.048.1" transform="translate(-277.798 -57.175)" fill="#57565c"/>
        <path id="Trazado_174466" data-name="Trazado 174466" d="M341.766,67.335a1.694,1.694,0,0,0,.172-.295c-.076.064-.153.125-.232.184a.958.958,0,0,1,.06.111" transform="translate(-286.544 -56.218)" fill="#57565c"/>
        <path id="Trazado_174467" data-name="Trazado 174467" d="M173.182,27.728c3.174,1.832,6.373,3.622,9.506,5.521a1.5,1.5,0,0,0,2.025-.1c-1.46-.711-2.84-1.566-4.239-2.383-2.243-1.309-4.521-2.556-6.744-3.9-.849-.513-.879-.7-.054-1.177q5.245-3.042,10.508-6.05a1.7,1.7,0,0,1,.379-.192,1.79,1.79,0,0,0-1.98.148c-4.095,2.426-8.236,4.773-12.355,7.158a1.318,1.318,0,0,0-.429.326,4,4,0,0,1,1.644.934l.021.044c.645-.953.665-.943,1.717-.336" transform="translate(-142.388 -16.115)" fill="#88878f"/>
        <path id="Trazado_174468" data-name="Trazado 174468" d="M168.157,25.828a1.318,1.318,0,0,1,.429-.326c4.119-2.385,8.26-4.732,12.355-7.158a1.79,1.79,0,0,1,1.98-.148.419.419,0,0,1,.357.06,1.745,1.745,0,0,0-2.4-.116c-3.487,2.088-7.035,4.073-10.543,6.124a12.979,12.979,0,0,0-2.489,1.55,1.634,1.634,0,0,1,.316.014" transform="translate(-140.746 -14.857)" fill="#88878f"/>
        <path id="Trazado_174469" data-name="Trazado 174469" d="M171.11,68.894a4,4,0,0,0-1.645-.934.478.478,0,0,0-.064.121l1.695.909.035-.052-.021-.044" transform="translate(-142.055 -56.989)" fill="#88878f"/>
        <path id="Trazado_174470" data-name="Trazado 174470" d="M167.841,67.859h0l.252.135a.473.473,0,0,1,.064-.121,1.622,1.622,0,0,0-.316-.014" transform="translate(-140.746 -56.903)" fill="#88878f"/>
        <path id="Trazado_174471" data-name="Trazado 174471" d="M190.693,26.921c-.826.479-.8.664.054,1.176,2.223,1.343,4.5,2.59,6.744,3.9,1.4.817,2.779,1.672,4.239,2.383.029-.025.057-.05.086-.077l-11.7-6.816c2.3-1.329,4.464-2.6,6.654-3.835,1.673-.94,3.283-1.991,5.01-2.835a2.309,2.309,0,0,0-.2-.137,1.7,1.7,0,0,0-.379.192q-5.264,3.008-10.508,6.05" transform="translate(-159.405 -17.341)" fill="#88878f"/>
        <path id="Trazado_174472" data-name="Trazado 174472" d="M261.256,20.594a2.309,2.309,0,0,1,.2.137c.052-.026.1-.053.156-.078a.419.419,0,0,0-.357-.06" transform="translate(-219.082 -17.255)" fill="#88878f"/>
        <path id="Trazado_174473" data-name="Trazado 174473" d="M227.84,202.466q-1.876,1.069-3.748,2.144c-.206.119-.427.337-.688.109-.257.215-.514-.066-.74-.192-1.215-.677-2.439-1.341-3.62-2.077-.576-.359-1.078-.623-1.527.138a.2.2,0,0,1-.186.066c-.428,1.089.376,1.412,1.124,1.818,1.412.767,2.793,1.594,4.174,2.415a1.469,1.469,0,0,0,1.7-.05c1.519-.9,3.039-1.81,4.593-2.653.588-.319.89-.646.562-1.308a.207.207,0,0,1,.021-.183h-.012a4.152,4.152,0,0,0-1.084-.82c-.041.338-.329.457-.57.594" transform="translate(-182.147 -169.284)"/>
        <path id="Trazado_174474" data-name="Trazado 174474" d="M286.586,201.093a4.154,4.154,0,0,1,1.084.82h.012a.483.483,0,0,1,.025-.044,3.972,3.972,0,0,1-.374-.6c-.172-.423-.433-.374-.744-.192,0,.006,0,.011,0,.016" transform="translate(-240.322 -168.504)"/>
        <path id="Trazado_174475" data-name="Trazado 174475" d="M227.881,206.933c.328.662.026.989-.562,1.308-1.554.842-3.074,1.749-4.593,2.653a1.47,1.47,0,0,1-1.7.05c-1.381-.821-2.761-1.648-4.174-2.415-.747-.406-1.552-.728-1.124-1.818h-.034a1.119,1.119,0,0,1-.122.29c-.454.559-.336.862.321,1.214,1.812.972,3.581,2.027,5.349,3.08a.982.982,0,0,0,1.159.009c1.651-.988,3.326-1.934,4.992-2.9,1.064-.614,1.079-.626.559-1.654-.016,0-.032,0-.048,0a.207.207,0,0,0-.021.183" transform="translate(-180.543 -173.341)"/>
        <path id="Trazado_174476" data-name="Trazado 174476" d="M293.422,206.732l-.024-.047c-.009.014-.017.029-.025.043.016,0,.032,0,.048,0" transform="translate(-246.015 -173.32)"/>
        <path id="Trazado_174477" data-name="Trazado 174477" d="M217.937,202.494a.2.2,0,0,0,.186-.066c.45-.761.952-.5,1.528-.138,1.181.735,2.4,1.4,3.62,2.077.226.126.482.407.74.192l-.025-.021q-2.13-1.206-4.26-2.414c-1.1-.63-1.121-.642-1.792.325l.014.014c0,.011-.007.021-.011.032" transform="translate(-182.753 -169.123)"/>
        <path id="Trazado_174478" data-name="Trazado 174478" d="M217.774,206.477c0-.011.007-.021.011-.032l-.014-.014-.031.045h.034" transform="translate(-182.59 -173.107)"/>
        <path id="Trazado_174479" data-name="Trazado 174479" d="M255.573,204.686c.262.229.482.011.688-.109q1.87-1.079,3.748-2.144c.241-.137.529-.257.57-.594l-.014-.006c-1.62.97-3.218,1.978-4.928,2.788a.534.534,0,0,1-.065.065" transform="translate(-214.316 -169.251)"/>
        <path id="Trazado_174480" data-name="Trazado 174480" d="M286.515,201.786c0-.006,0-.01,0-.016l-.017.01.014.006" transform="translate(-240.251 -169.198)"/>
        <path id="Trazado_174481" data-name="Trazado 174481" d="M255.51,219.1l-.089.044.025.021a.546.546,0,0,0,.065-.065" transform="translate(-214.188 -183.733)"/>
        <path id="Trazado_174482" data-name="Trazado 174482" d="M182.632,74.078c2.493,1.463,4.99,2.92,7.514,4.329a1.9,1.9,0,0,1,1.072,1.879c-.03,3.613.007,7.227-.029,10.84-.007.741.131,1.245.925,1.385.015.018.027.036.039.053,1.027-.2,1.041-.94,1.031-1.813-.041-3.516.007-7.033-.034-10.548a1.826,1.826,0,0,1,1.033-1.8q4.562-2.645,9.148-5.249c.755-.427,1.274-.832,1.033-1.726l-.006,0c-.873-.673-.873-.673-1.915-.082q-4.112,2.334-8.193,4.723a1.718,1.718,0,0,1-1.037.363,1.165,1.165,0,0,1-1.726.448c-1.694-.91-3.336-1.912-5-2.87-1.69-.971-3.4-1.9-5.056-2.938-.514-.322-.906-.433-1.246.183a.29.29,0,0,1-.231.12.155.155,0,0,1,.007.061c-.129,1.081-.129,1.078.851,1.648.343.2.762.337.892.728a1.192,1.192,0,0,1,.931.269" transform="translate(-150.857 -59.378)"/>
        <path id="Trazado_174483" data-name="Trazado 174483" d="M179.475,76.736c-.129-.391-.548-.529-.892-.728-.98-.569-.981-.567-.851-1.648a.155.155,0,0,0-.007-.062l-.052.006a1.61,1.61,0,0,1-.171.357c-.422.51-.325.836.283,1.12.574.268,1.1.638,1.648.964.014,0,.028-.006.042-.01" transform="translate(-148.632 -62.305)"/>
        <path id="Trazado_174484" data-name="Trazado 174484" d="M200.315,95.36c-.023,3.919,0,7.837-.026,11.756,0,.654.084,1.047.851.891a1.194,1.194,0,0,1,.319.023h0l.056-.012c-.013-.018-.024-.036-.039-.053-.794-.139-.933-.644-.925-1.385.036-3.613,0-7.227.029-10.84a1.9,1.9,0,0,0-1.072-1.879c-2.524-1.409-5.021-2.866-7.514-4.328a1.192,1.192,0,0,0-.931-.269c0,.013.008.027.012.041,2.863,1.644,5.72,3.3,8.6,4.917a1.116,1.116,0,0,1,.643,1.139" transform="translate(-160.22 -74.833)"/>
        <path id="Trazado_174485" data-name="Trazado 174485" d="M190.857,89.438c0-.014-.007-.027-.012-.041-.014,0-.027.005-.042.01h0l.053.031" transform="translate(-160.003 -74.966)"/>
        <path id="Trazado_174486" data-name="Trazado 174486" d="M273.272,69.395c-.229-.643-.576-.581-1.065-.256-.621.412-1.286.757-1.934,1.127q-3.922,2.238-7.846,4.473c-.018.032-.038.061-.056.09a1.717,1.717,0,0,0,1.037-.363q4.078-2.393,8.193-4.723c1.042-.591,1.042-.591,1.915.082l.006,0c-.009-.034-.017-.067-.028-.1a1.549,1.549,0,0,1-.221-.326" transform="translate(-220.016 -57.777)"/>
        <path id="Trazado_174487" data-name="Trazado 174487" d="M257.029,94.362c0-3.78.009-7.56-.011-11.34a1.049,1.049,0,0,1,.6-1.074c3.282-1.866,6.54-3.776,9.811-5.662,1.1-.635,1.138-.646.607-1.706l-.02.006c.241.894-.278,1.3-1.033,1.726q-4.59,2.6-9.148,5.249a1.825,1.825,0,0,0-1.032,1.8c.04,3.516-.007,7.033.033,10.548.01.874,0,1.615-1.031,1.813l.007.009c1.209-.047,1.212-.07,1.212-1.373" transform="translate(-214.515 -62.54)"/>
        <path id="Trazado_174488" data-name="Trazado 174488" d="M255.521,205.574l-.056.012.063,0-.007-.009" transform="translate(-214.225 -172.388)"/>
        <path id="Trazado_174489" data-name="Trazado 174489" d="M331.276,73.984c.011.035.019.068.028.1l.02-.006-.048-.1" transform="translate(-277.798 -62.041)"/>
        <path id="Trazado_174490" data-name="Trazado 174490" d="M180.365,70c.34-.616.732-.5,1.246-.183,1.652,1.035,3.365,1.968,5.056,2.938,1.667.957,3.309,1.96,5,2.87a1.165,1.165,0,0,0,1.725-.448h0l-.027-.014a1.5,1.5,0,0,1-2.025.1c-3.134-1.9-6.332-3.689-9.506-5.521-1.052-.607-1.072-.617-1.717.336a.352.352,0,0,1,.017.046.29.29,0,0,0,.231-.12" transform="translate(-151.041 -58.123)"/>
        <path id="Trazado_174491" data-name="Trazado 174491" d="M179.934,74.016l-.035.052.052-.006a.353.353,0,0,0-.017-.046" transform="translate(-150.858 -62.068)"/>
        <path id="Trazado_174492" data-name="Trazado 174492" d="M262.272,105.068h0c-.029.027-.058.052-.086.077l.027.014h0c.019-.03.038-.059.056-.09" transform="translate(-219.861 -88.107)"/>
        <path id="Trazado_174493" data-name="Trazado 174493" d="M27.714,335.767c.359.184.851.3.953.8l8.955,5.186c.277.234.135.55.136.823q.016,5.77.007,11.539c0,1.121,0,1.134,1.1,1.117,1.085-.166,1.142-.9,1.129-1.829-.05-3.533,0-7.068-.034-10.6a1.757,1.757,0,0,1,1-1.734c3.208-1.832,6.385-3.718,9.616-5.507.754-.418.614-.935.576-1.507-.865-.688-.868-.674-1.916-.069q-4.2,2.42-8.395,4.842c-.236.136-.467.341-.77.195-.57.841-1.058.92-2.042.353-3.065-1.765-6.136-3.52-9.183-5.315-.774-.456-1.432-.829-2.139-.008-.38.983.263,1.344,1,1.721" transform="translate(-22.308 -279.688)"/>
        <path id="Trazado_174494" data-name="Trazado 174494" d="M27.3,332.369c.708-.821,1.365-.448,2.139.008,3.047,1.8,6.118,3.551,9.183,5.315.984.567,1.471.488,2.042-.353l-.037-.019a1.426,1.426,0,0,1-2.021.164c-3.136-1.881-6.323-3.676-9.489-5.506-1.124-.649-1.122-.652-1.809.369h0l-.007.021" transform="translate(-22.892 -278.01)"/>
        <path id="Trazado_174495" data-name="Trazado 174495" d="M110.857,337.02q4.2-2.424,8.395-4.842c1.048-.6,1.051-.619,1.916.069,0-.026,0-.052,0-.078-.607-.972-.608-.974-1.606-.4-1.5.867-2.994,1.745-4.5,2.6-1.641.935-3.291,1.854-4.937,2.78l0,.005-.037.054c.3.146.535-.059.77-.195" transform="translate(-92.316 -277.886)"/>
        <path id="Trazado_174496" data-name="Trazado 174496" d="M109.929,367.155l0-.005-.073.041.038.019.037-.054" transform="translate(-92.12 -307.881)"/>
        <path id="Trazado_174497" data-name="Trazado 174497" d="M114.881,336.748c.038.573.178,1.09-.576,1.508-3.231,1.789-6.409,3.675-9.616,5.507a1.757,1.757,0,0,0-1,1.734c.033,3.533-.016,7.068.034,10.6.013.93-.044,1.663-1.129,1.829h.037c1.285-.052,1.285-.052,1.285-1.364,0-3.752.017-7.505-.017-11.257a1.238,1.238,0,0,1,.724-1.256c3.259-1.851,6.5-3.734,9.748-5.605,1.075-.62,1.1-.638.555-1.685l-.022.005-.019-.015" transform="translate(-86.029 -282.387)"/>
        <path id="Trazado_174498" data-name="Trazado 174498" d="M178.7,336.345l.019.015.022-.005-.046-.087c0,.026,0,.052,0,.078" transform="translate(-149.852 -281.983)"/>
        <path id="Trazado_174499" data-name="Trazado 174499" d="M25.217,338.167a17.719,17.719,0,0,1,1.76,1.033h0l.083.048c-.1-.491-.594-.611-.953-.8-.736-.376-1.38-.738-1-1.721l0,0a1.424,1.424,0,0,1-.159.328c-.4.494-.362.817.272,1.1" transform="translate(-20.7 -282.373)"/>
        <path id="Trazado_174500" data-name="Trazado 174500" d="M27.282,336.62l.007-.021-.011.025,0,0" transform="translate(-22.875 -282.262)"/>
        <path id="Trazado_174501" data-name="Trazado 174501" d="M341.677,339.733c-2.071-1.224-4.167-2.4-6.245-3.616-1.2-.7-2.433-1.346-3.61-2.085-.562-.353-1-.451-1.375.212a.172.172,0,0,1-.128.071c.042.411-.265.672-.43.966.622.535,1.592.583,2.012,1.429h0c.234-.167.49-.023.715.1,2.751,1.563,5.486,3.152,8.221,4.741a1.485,1.485,0,0,1,.624,1.472q0,4.746,0,9.491c0,.349.028.7-.005,1.045-.083.857-.044,1.63.981,1.884h0c.954-.228,1.016-.9,1.005-1.747-.044-3.48.006-6.961-.035-10.441a1.938,1.938,0,0,1,1.079-1.94q4.494-2.575,8.98-5.163c.777-.446,1.61-.787,1.167-1.889h-.006c-.528-.629-1.026-.533-1.713-.131-2.739,1.6-5.493,3.185-8.238,4.779a2.859,2.859,0,0,1-.873.39.816.816,0,0,1-.1.008,1.44,1.44,0,0,1-2.033.417" transform="translate(-276.636 -279.878)"/>
        <path id="Trazado_174502" data-name="Trazado 174502" d="M415.6,337.633a2.862,2.862,0,0,0,.873-.39c2.745-1.594,5.5-3.174,8.238-4.779.687-.4,1.185-.5,1.713.131h.006c-.013-.033-.024-.064-.039-.1-.537-.906-.537-.9-1.435-.387l-9.349,5.377c-.033.055-.067.106-.1.155a.778.778,0,0,0,.1-.008" transform="translate(-348.428 -278.203)"/>
        <path id="Trazado_174503" data-name="Trazado 174503" d="M418.656,338.812q-4.492,2.578-8.98,5.163a1.938,1.938,0,0,0-1.079,1.94c.041,3.48-.009,6.961.035,10.441.011.846-.051,1.519-1.005,1.747h0l.037.01h0c1.187-.071,1.186-.071,1.186-1.314,0-3.784.007-7.567-.014-11.35a1.061,1.061,0,0,1,.608-1.081c3.284-1.87,6.547-3.777,9.819-5.668,1.168-.675,1.2-.693.578-1.78l-.016,0c.443,1.1-.39,1.443-1.167,1.889" transform="translate(-341.823 -282.532)"/>
        <path id="Trazado_174504" data-name="Trazado 174504" d="M482.994,336.421l-.055-.1c.016.034.026.065.039.1l.016,0" transform="translate(-404.978 -282.032)"/>
        <path id="Trazado_174505" data-name="Trazado 174505" d="M351.92,368.52c.034-.345.006-.7.005-1.045q0-4.746,0-9.491a1.485,1.485,0,0,0-.624-1.472c-2.735-1.59-5.47-3.179-8.221-4.741-.225-.128-.481-.272-.715-.1,3,1.711,5.986,3.431,8.992,5.122.411.232.35.55.35.887q.005,5.711.005,11.422c0,1.246,0,1.26,1.183,1.316l0-.008c-1.025-.254-1.064-1.028-.981-1.884" transform="translate(-287.098 -294.833)"/>
        <path id="Trazado_174506" data-name="Trazado 174506" d="M407.605,468.138l0,.008.041,0h0l-.037-.01" transform="translate(-341.802 -392.567)"/>
        <path id="Trazado_174507" data-name="Trazado 174507" d="M329.376,338.185c.165-.293.472-.555.43-.966a.564.564,0,0,1-.09.009,1.8,1.8,0,0,1-.185.349c-.445.525-.283.829.3,1.1a16.717,16.717,0,0,1,1.553.932c-.42-.845-1.39-.894-2.012-1.429" transform="translate(-276.122 -282.782)"/>
        <path id="Trazado_174508" data-name="Trazado 174508" d="M343.282,337.823c-3.033-1.861-6.149-3.588-9.232-5.368-1.057-.61-1.09-.629-1.69.326l.023.019c0,.022.006.043.008.064a.173.173,0,0,0,.128-.071c.372-.663.813-.565,1.375-.212,1.177.739,2.41,1.384,3.61,2.085,2.077,1.213,4.174,2.392,6.245,3.616a1.44,1.44,0,0,0,2.033-.417.729.729,0,0,1-.08,0,1.882,1.882,0,0,1-2.42-.04" transform="translate(-278.707 -278.426)"/>
        <path id="Trazado_174509" data-name="Trazado 174509" d="M415.087,367.389c.035-.049.07-.1.1-.156-.061.056-.122.107-.183.154a.755.755,0,0,0,.08,0" transform="translate(-348.012 -307.951)"/>
        <path id="Trazado_174510" data-name="Trazado 174510" d="M332.081,336.722l-.023-.019L332,336.8a.585.585,0,0,0,.09-.009c0-.021,0-.042-.008-.064" transform="translate(-278.405 -282.349)"/>
        <path id="Trazado_174511" data-name="Trazado 174511" d="M433.688,419.634q2.875-1.675,5.755-3.342c.318-.185.732-.335.753-.765.023-.472.3-1.052-.268-1.378a1.775,1.775,0,0,0-1.807.4,1.882,1.882,0,0,1-.587.535c-1.352.759-2.68,1.559-4.028,2.323-.241.136-.492.348-.791.183a.744.744,0,0,1-.526.553c-.642.263-.587.647-.264,1.131.245.366.462.751.721,1.108a2.612,2.612,0,0,1,1.042-.745" transform="translate(-362.003 -347.201)" fill="#fefefe"/>
        <path id="Trazado_174512" data-name="Trazado 174512" d="M438.467,416.486c1.349-.764,2.677-1.564,4.029-2.323a1.884,1.884,0,0,0,.587-.535,1.775,1.775,0,0,1,1.807-.4c.57.326.292.906.268,1.378-.021.43-.435.58-.753.765q-2.876,1.673-5.755,3.342a2.61,2.61,0,0,0-1.042.745c.025.034.047.069.073.1q3.593-2.106,7.186-4.213a2.515,2.515,0,0,0,.492-2.281.292.292,0,0,0-.2-.109c-.642-.008-1.286-.033-1.926.007-.44.028-.108.528-.351.7a3.017,3.017,0,0,1-.264.181q-2.471,1.408-4.944,2.813v.006c.3.165.55-.047.791-.183" transform="translate(-366.964 -346.284)" fill="#fefefe"/>
        <path id="Trazado_174513" data-name="Trazado 174513" d="M430.074,437.686c-.323-.484-.378-.868.264-1.131a.743.743,0,0,0,.526-.553l0,0c-.358.222-.721.436-1.071.671-.115.077-.389.141-.28.306.414.624.545,1.454,1.259,1.865.009-.016.017-.032.027-.047-.259-.357-.476-.742-.721-1.108" transform="translate(-360.153 -365.617)" fill="#fefefe"/>
        <path id="Trazado_174514" data-name="Trazado 174514" d="M437.541,453.411h0c-.025-.033-.048-.068-.073-.1-.009.015-.018.031-.027.047.032.019.065.038.1.055" transform="translate(-366.826 -380.131)" fill="#fefefe"/>
        <path id="Trazado_174515" data-name="Trazado 174515" d="M438.01,435.977l-.006,0,0,0a.041.041,0,0,1,0-.006" transform="translate(-367.297 -365.597)" fill="#fefefe"/>
        <path id="Trazado_174516" data-name="Trazado 174516" d="M471.893,365.419c1.569.006,1.388.177,1.4-.89.013-1.521,0-1.521-1.177-1.521-1.388.016-1.239-.148-1.234.895.008,1.757-.194,1.512,1.014,1.517" transform="translate(-394.858 -304.407)" fill="#fdfdfd"/>
        <path id="Trazado_174517" data-name="Trazado 174517" d="M471.966,389.769c1.292-.013,1.279-.013,1.277-1.658,0-1.438-1.073-.664-1.627-.723-.925-.1-.728-.29-.814,1.618-.052,1.155.736.655,1.164.763" transform="translate(-394.799 -324.721)" fill="#fdfdfd"/>
        <path id="Trazado_174518" data-name="Trazado 174518" d="M168.313,310.69a1.335,1.335,0,0,0,.135-.779c0-1.577-.024-3.154.012-4.73a1.477,1.477,0,0,0-.865-1.479c-1.507-.809-2.977-1.685-4.439-2.57-.62-.375-1.094-.46-1.542.18H161.6a.144.144,0,0,1,.011.148c-.6.825-.026,1.13.6,1.488,1.118.637,2.24,1.268,3.345,1.927.245.147.563.224.607.583l0,.006c.441.142.313.566.324.876.039,1.143.032,2.288.009,3.431-.013.642.223.93.884.9a1.919,1.919,0,0,1,.883.075.429.429,0,0,0,.055-.056" transform="translate(-135.31 -252.276)"/>
        <path id="Trazado_174519" data-name="Trazado 174519" d="M162.625,299.586c.449-.64.923-.555,1.542-.18,1.462.885,2.933,1.761,4.439,2.57a1.477,1.477,0,0,1,.865,1.479c-.036,1.576-.01,3.153-.012,4.73a1.333,1.333,0,0,1-.135.779.41.41,0,0,1-.055.056.848.848,0,0,1,.25.17c.2-.17.1-.4.1-.6.008-1.87-.014-3.74.017-5.609a.98.98,0,0,0-.6-.994c-1.652-.921-3.283-1.878-4.922-2.82-.975-.561-.976-.56-1.557.349a.335.335,0,0,1,.047.07h.015" transform="translate(-136.32 -250.55)"/>
        <path id="Trazado_174520" data-name="Trazado 174520" d="M164.042,307.3c-1.1-.66-2.227-1.291-3.344-1.928-.627-.357-1.2-.663-.6-1.488a.143.143,0,0,0-.011-.148l-.077,0a1.128,1.128,0,0,1-.147.283c-.474.567-.424.907.3,1.286,1.5.792,2.941,1.7,4.406,2.565a.807.807,0,0,1,.081.022l0-.006c-.044-.359-.362-.437-.607-.583" transform="translate(-133.796 -254.703)"/>
        <path id="Trazado_174521" data-name="Trazado 174521" d="M162.456,303.394a.334.334,0,0,0-.047-.07c-.01.022-.02.044-.03.066l.077,0" transform="translate(-136.166 -254.358)"/>
        <path id="Trazado_174522" data-name="Trazado 174522" d="M193.056,334.764a1.919,1.919,0,0,0-.883-.075c-.66.031-.9-.257-.883-.9.023-1.143.03-2.288-.009-3.432-.011-.31.116-.734-.324-.876l-.027.037c.168.205.082.461.085.691.009.814.02,1.629.022,2.443a2.565,2.565,0,0,1,.067.563,2.674,2.674,0,0,1,0,.4c-.079.661,0,1.207.68,1.326.222-.014.444-.018.666-.017.2-.053.44-.025.606-.164" transform="translate(-160.108 -276.295)"/>
        <path id="Trazado_174523" data-name="Trazado 174523" d="M191.6,350.1a2.671,2.671,0,0,0,0-.4,2.563,2.563,0,0,0-.067-.563c0,.543,0,1.085-.012,1.628s.176.7.689.666l.069,0c-.684-.12-.759-.665-.68-1.326" transform="translate(-160.6 -292.77)"/>
        <path id="Trazado_174524" data-name="Trazado 174524" d="M200.345,362.364c.285,0,.571.007.856.006a.846.846,0,0,0-.25-.17c-.166.14-.4.112-.606.164" transform="translate(-168.003 -303.73)"/>
        <path id="Trazado_174525" data-name="Trazado 174525" d="M190.6,329.347a.452.452,0,0,1,.054.059c.009-.012.018-.024.027-.037-.025-.008-.051-.016-.08-.022" transform="translate(-159.829 -276.181)"/>
        <path id="Trazado_174526" data-name="Trazado 174526" d="M307.982,305.96h0c.034-.428.415-.524.7-.7,1.138-.7,2.312-1.335,3.464-2.008.553-.323.928-.635.478-1.3a.247.247,0,0,1,0-.24h-.007c-.517-.6-1.038-.523-1.669-.119-1.444.923-2.95,1.748-4.453,2.572a1.448,1.448,0,0,0-.855,1.474c.046,1.391.034,2.786,0,4.178-.014.642.088,1.119.859,1.144a.381.381,0,0,1,.257.128c.772-.229.909-.8.863-1.546-.056-.9-.019-1.8-.009-2.7a1.393,1.393,0,0,1,.181-.84,1.744,1.744,0,0,1,.192-.026C307.981,305.974,307.981,305.967,307.982,305.96Z" transform="translate(-256.293 -252.647)"/>
        <path id="Trazado_174527" data-name="Trazado 174527" d="M305.829,309.139a.381.381,0,0,0-.257-.128c-.771-.026-.873-.5-.859-1.144.03-1.392.042-2.787,0-4.178a1.448,1.448,0,0,1,.856-1.474c1.5-.824,3.008-1.649,4.453-2.572.632-.4,1.152-.476,1.669.119h.007a.468.468,0,0,1,.031-.063c-.586-.925-.586-.926-1.567-.36-1.685.971-3.362,1.958-5.06,2.906a.97.97,0,0,0-.568,1c.035,1.522.014,3.045.015,4.568,0,1.232,0,1.232,1.224,1.341l.06-.018" transform="translate(-255.369 -250.692)"/>
        <path id="Trazado_174528" data-name="Trazado 174528" d="M313.436,331.246c-.01.9-.046,1.8.009,2.7.046.747-.091,1.317-.863,1.546l.011.013c1.117-.088,1.1-.115,1.126-1.357a25.433,25.433,0,0,1,.089-3.77,1.759,1.759,0,0,0-.191.026,1.393,1.393,0,0,0-.181.84" transform="translate(-262.122 -277.047)"/>
        <path id="Trazado_174529" data-name="Trazado 174529" d="M312.268,362.062l-.06.018.071-.006-.011-.013" transform="translate(-261.808 -303.614)"/>
        <path id="Trazado_174530" data-name="Trazado 174530" d="M324.834,304.186c.451.663.075.975-.478,1.3-1.153.673-2.326,1.311-3.464,2.008-.281.172-.661.268-.7.7,1.305-.937,2.751-1.638,4.126-2.458,1.131-.675,1.156-.678.57-1.789-.021,0-.041,0-.062.005a.248.248,0,0,0,0,.241" transform="translate(-268.507 -254.875)"/>
        <path id="Trazado_174531" data-name="Trazado 174531" d="M348.966,303.64l-.031-.058a.463.463,0,0,0-.031.063c.021,0,.041,0,.062-.005" transform="translate(-292.58 -254.575)"/>
        <path id="Trazado_174532" data-name="Trazado 174532" d="M98.879,468.662a1.084,1.084,0,0,1,.136-.534,1.691,1.691,0,0,1-.642.159,2.464,2.464,0,0,1,.507.375" transform="translate(-82.492 -392.558)" fill="#54a2fe"/>
        <path id="Trazado_174533" data-name="Trazado 174533" d="M93.864,465.835c.088.053.178.1.27.153a.963.963,0,0,1-.116-.3.35.35,0,0,1-.153.152" transform="translate(-78.712 -390.508)" fill="#54a2fe"/>
        <path id="Trazado_174534" data-name="Trazado 174534" d="M101.51,468.5a1.614,1.614,0,0,1,.215.262h0q0-.414,0-.827h0l-.075.031a1.084,1.084,0,0,0-.136.534" transform="translate(-85.123 -392.396)" fill="#54a2fe"/>
        <path id="Trazado_174535" data-name="Trazado 174535" d="M93.745,467.025a.51.51,0,0,1-.458-.249c-.091-.049-.182-.1-.27-.152a.675.675,0,0,1-.163.06l1.392.845q0-.064.005-.128a2.476,2.476,0,0,0-.507-.375" transform="translate(-77.865 -391.297)" fill="#54a2fe"/>
        <path id="Trazado_174536" data-name="Trazado 174536" d="M101.479,471.561l.22.134a1.62,1.62,0,0,0-.215-.262q0,.064-.005.128" transform="translate(-85.097 -395.33)" fill="#54a2fe"/>
        <path id="Trazado_174537" data-name="Trazado 174537" d="M94.966,396.8q0-5.77-.007-11.539c0-.273.142-.589-.136-.823,0,4.155,0,8.31-.009,12.465,0,.2.094.461,0,.65a.972.972,0,0,0,.116.3c.153.082.309.162.458.249a1.688,1.688,0,0,0,.642-.159c.005-.009.009-.018.015-.026l.023,0c-1.1.017-1.1,0-1.1-1.117" transform="translate(-79.507 -322.382)" fill="#54a2fe"/>
        <path id="Trazado_174538" data-name="Trazado 174538" d="M102.367,467.94c-.006.009-.01.018-.015.026l.075-.031h-.037l-.023,0" transform="translate(-85.829 -392.396)" fill="#54a2fe"/>
        <path id="Trazado_174539" data-name="Trazado 174539" d="M95.991,467.817c-.15-.087-.305-.167-.458-.249a.51.51,0,0,0,.458.249" transform="translate(-80.111 -392.089)" fill="#54a2fe"/>
        <path id="Trazado_174540" data-name="Trazado 174540" d="M44.693,359.655a2.794,2.794,0,0,1,.074-1.016,1.971,1.971,0,0,0-.846-.688q-3.686-2.137-7.377-4.266a1.7,1.7,0,0,1-.536-.352c-.045.625-.085.909-.312,1.043a.338.338,0,0,1,.275.178,3.8,3.8,0,0,1,.05,2.168c-.008.05-.114.085-.2.123l.014.012c.322,1.018.226,1.449-.5,1.608l.285,0c.18,0,.429-.06.443.2a8.658,8.658,0,0,1-.04,2.078c-.01.053-.114.088-.2.126l0,0c.328.98.245,1.423-.423,1.6.466-.009.815.1.709.859-.056.4.4.463.653.613,2.127,1.24,4.258,2.475,6.4,3.681.424.238.5.409.247.85-.889,1.572-.866,1.576-2.416.7-1.684-.956-3.375-1.9-5.064-2.849a1.75,1.75,0,0,0,.634.564c2.693,1.532,5.384,3.068,8.055,4.639.145-3.955.021-7.912.069-11.868" transform="translate(-29.629 -296.295)" fill="#57a3fe"/>
        <path id="Trazado_174541" data-name="Trazado 174541" d="M27.283,375.1l-.014-.012c-.021.009-.04.018-.057.027a3.3,3.3,0,0,0-.008.557c.1.691-.145.961-.869.9-.388-.033-.842-.194-1.2.163l1.646-.025c.725-.159.822-.59.5-1.608" transform="translate(-21.08 -314.537)" fill="#57a3fe"/>
        <path id="Trazado_174542" data-name="Trazado 174542" d="M25.994,353.339c.349.032.828-.114,1.14-.063.227-.134.267-.417.312-1.043a.548.548,0,0,1-.1-.212c-.051.118-.161.245-.145.354.1.709-.251.848-.877.819-.393-.018-.846-.2-1.2.168a7.017,7.017,0,0,1,.87-.022" transform="translate(-21.068 -295.194)" fill="#57a3fe"/>
        <path id="Trazado_174543" data-name="Trazado 174543" d="M26.851,401.619c.668-.175.751-.619.423-1.6l0,0c-.021.009-.042.019-.06.029a3.3,3.3,0,0,0-.008.557c.1.691-.145.961-.869.9-.388-.033-.842-.194-1.2.163.455-.007.912,0,1.365-.027.119-.008.236-.017.347-.019" transform="translate(-21.081 -335.443)" fill="#57a3fe"/>
        <path id="Trazado_174544" data-name="Trazado 174544" d="M38.708,433.826a1.75,1.75,0,0,1-.634-.564l-.178-.1c-.072.41.216.553.508.713.632.348,1.253.716,1.88,1.073q3.237,1.839,6.474,3.676c0-.053,0-.106,0-.159-2.671-1.57-5.362-3.106-8.055-4.639" transform="translate(-31.769 -363.237)" fill="#57a3fe"/>
        <path id="Trazado_174545" data-name="Trazado 174545" d="M39.416,352.481a1.7,1.7,0,0,0,.536.352q3.687,2.135,7.377,4.265a1.972,1.972,0,0,1,.846.688.925.925,0,0,1,.178-.284L39.4,352.317a.9.9,0,0,1,.019.145v.019" transform="translate(-33.038 -295.443)" fill="#57a3fe"/>
        <path id="Trazado_174546" data-name="Trazado 174546" d="M38.986,352.212a.9.9,0,0,0-.019-.145l-.083-.048h0a.548.548,0,0,0,.1.212v-.019" transform="translate(-32.607 -295.193)" fill="#57a3fe"/>
        <path id="Trazado_174547" data-name="Trazado 174547" d="M93.138,387.324a3.253,3.253,0,0,0-.065-1.034.954.954,0,0,0-.046-.088,2.8,2.8,0,0,0-.074,1.016c-.048,3.956.076,7.912-.069,11.868l.028.016c.042.029.086.056.13.082a.349.349,0,0,0,.153-.152,2.531,2.531,0,0,1-.05-.529c-.014-3.726,0-7.453-.008-11.179" transform="translate(-77.89 -323.857)" fill="#57a3fe"/>
        <path id="Trazado_174548" data-name="Trazado 174548" d="M93.017,466.11c-.044-.027-.088-.054-.13-.083l-.028-.016c0,.053,0,.106,0,.159a.671.671,0,0,0,.163-.06" transform="translate(-77.865 -390.783)" fill="#57a3fe"/>
        <path id="Trazado_174549" data-name="Trazado 174549" d="M93.815,384.814a3.249,3.249,0,0,1,.065,1.034c.005,3.726-.006,7.453.008,11.179a2.521,2.521,0,0,0,.05.529c.1-.189,0-.449,0-.65.014-4.155.009-8.31.009-12.465a.927.927,0,0,0-.178.284.958.958,0,0,1,.046.088" transform="translate(-78.632 -322.382)" fill="#57a3fe"/>
        <path id="Trazado_174550" data-name="Trazado 174550" d="M28.852,415.059c1.645.947,3.3,1.879,4.945,2.826.77.443.776.431,1.336-.538.414-.716.4-.8-.359-1.232-1.951-1.113-3.894-2.239-5.844-3.354-.423-.242-.845-.471-.9-1.039-.042-.442-.381-.433-.715-.456a8.715,8.715,0,0,1-1.081-.014l-.019.013a1.928,1.928,0,0,0,.844,2.741,2.91,2.91,0,0,1,.9.659c.013.031.028.06.043.089.337-.088.586.154.848.3" transform="translate(-21.775 -344.864)" fill="#fefefe"/>
        <path id="Trazado_174551" data-name="Trazado 174551" d="M26.752,413.8a2.905,2.905,0,0,0-.9-.659,1.928,1.928,0,0,1-.844-2.741l.019-.013a1.063,1.063,0,0,1-.4-.166c-.317,1.687.079,2.993,1.89,3.548.069.021.119.1.178.155a.665.665,0,0,1,.1-.035c-.015-.029-.03-.058-.043-.089" transform="translate(-20.566 -344.001)" fill="#fefefe"/>
        <path id="Trazado_174552" data-name="Trazado 174552" d="M36.957,415.936c.25-.442.177-.612-.247-.85-2.147-1.206-4.278-2.441-6.4-3.681-.257-.15-.709-.216-.653-.613.107-.759-.243-.868-.709-.859a3.475,3.475,0,0,1-.723.092,1,1,0,0,0-.586.121,8.68,8.68,0,0,0,1.081.014c.333.024.673.014.715.456.054.567.476.8.9,1.039,1.95,1.115,3.893,2.241,5.844,3.354.761.434.773.515.359,1.232-.56.969-.567.981-1.337.538-1.646-.946-3.3-1.879-4.945-2.826-.262-.151-.511-.392-.848-.3a1.428,1.428,0,0,0,.076.134c1.688.949,3.38,1.893,5.064,2.849,1.551.88,1.528.876,2.416-.7" transform="translate(-23.172 -343.757)" fill="#fefefe"/>
        <path id="Trazado_174553" data-name="Trazado 174553" d="M26.129,410.027a3.477,3.477,0,0,0,.723-.092c-.111,0-.228.011-.347.019-.453.032-.91.02-1.365.027a1.058,1.058,0,0,0,.4.166,1.008,1.008,0,0,1,.586-.121" transform="translate(-21.082 -343.759)" fill="#fefefe"/>
        <path id="Trazado_174554" data-name="Trazado 174554" d="M38.131,433.082a1.425,1.425,0,0,1-.076-.134.659.659,0,0,0-.1.035l.178.1" transform="translate(-31.826 -363.057)" fill="#fefefe"/>
        <path id="Trazado_174555" data-name="Trazado 174555" d="M27.666,361.49a4.092,4.092,0,0,1-1.019-.026.533.533,0,0,0-.066.08,1.131,1.131,0,0,0-.092.467c-.016,1.384-.062,1.533,1.257,1.453a.882.882,0,0,1,.6.157c.051-.456.086-.913.095-1.373.011-.56-.241-.757-.777-.758" transform="translate(-22.209 -303.113)" fill="#fcfdfe"/>
        <path id="Trazado_174556" data-name="Trazado 174556" d="M26.229,362.508c-1.319.08-1.273-.07-1.257-1.453a1.136,1.136,0,0,1,.092-.467.544.544,0,0,1,.066-.08,1.045,1.045,0,0,1-.382-.184c.01.747-.225,1.636.1,2.2.279.476,1.245.051,1.895.193.026.006.052.014.078.02,0-.023,0-.046.007-.069a.881.881,0,0,0-.6-.157" transform="translate(-20.692 -302.157)" fill="#fcfdfe"/>
        <path id="Trazado_174557" data-name="Trazado 174557" d="M29.441,362.139a3.8,3.8,0,0,0-.05-2.168.338.338,0,0,0-.275-.178,2.088,2.088,0,0,1-.9.133c-.251.008-.531-.066-.731.137a4.093,4.093,0,0,0,1.019.026c.537,0,.788.2.777.758-.009.461-.044.917-.095,1.373.017.013.034.027.05.042.088-.038.194-.073.2-.123" transform="translate(-23.051 -301.712)" fill="#fcfdfe"/>
        <path id="Trazado_174558" data-name="Trazado 174558" d="M26.237,359.87a2.085,2.085,0,0,0,.9-.133c-.312-.051-.79.1-1.14.063a7.006,7.006,0,0,0-.87.022,1.042,1.042,0,0,0,.382.184c.2-.2.48-.129.731-.137" transform="translate(-21.068 -301.656)" fill="#fcfdfe"/>
        <path id="Trazado_174559" data-name="Trazado 174559" d="M37.987,374.826c0,.023,0,.046-.007.069.017-.009.037-.018.057-.027-.016-.015-.033-.029-.05-.042" transform="translate(-31.849 -314.318)" fill="#fcfdfe"/>
        <path id="Trazado_174560" data-name="Trazado 174560" d="M27.736,386.465a5.838,5.838,0,0,1-1.067-.023.484.484,0,0,0-.053.051,1.32,1.32,0,0,0-.142.776c-.021,1.1-.017,1.1,1.08,1.155a1.388,1.388,0,0,1,.781.172,11.235,11.235,0,0,0,.091-1.456c0-.48-.229-.658-.691-.675" transform="translate(-22.196 -324.059)" fill="#fcfdfe"/>
        <path id="Trazado_174561" data-name="Trazado 174561" d="M26.055,387.448c-1.1-.054-1.1-.057-1.08-1.155a1.32,1.32,0,0,1,.142-.776.472.472,0,0,1,.053-.051,1.077,1.077,0,0,1-.414-.188c.009.746-.226,1.635.1,2.2.278.475,1.245.05,1.895.192.026.006.052.014.077.021,0-.022,0-.045.008-.067a1.388,1.388,0,0,0-.781-.172" transform="translate(-20.697 -323.083)" fill="#fcfdfe"/>
        <path id="Trazado_174562" data-name="Trazado 174562" d="M29.624,387.343a8.658,8.658,0,0,0,.04-2.078c-.014-.265-.263-.207-.444-.2l-.285,0a3.751,3.751,0,0,1-.617.071.928.928,0,0,0-.614.142,5.823,5.823,0,0,0,1.067.023c.462.017.686.194.691.675a11.206,11.206,0,0,1-.091,1.456c.017.012.035.024.052.038.087-.038.191-.073.2-.126" transform="translate(-23.232 -322.894)" fill="#fcfdfe"/>
        <path id="Trazado_174563" data-name="Trazado 174563" d="M26.166,385.194a3.758,3.758,0,0,0,.617-.071l-1.646.025a1.079,1.079,0,0,0,.415.188.927.927,0,0,1,.614-.142" transform="translate(-21.079 -322.953)" fill="#fcfdfe"/>
        <path id="Trazado_174564" data-name="Trazado 174564" d="M37.988,399.782c0,.022,0,.045-.008.067.018-.01.038-.019.06-.029-.017-.015-.035-.026-.052-.038" transform="translate(-31.849 -335.245)" fill="#fcfdfe"/>
        <path id="Trazado_174565" data-name="Trazado 174565" d="M246.624,31.189c.114.2.257.379.505.2.31-.218.541-.048.8.1q2.848,1.641,5.706,3.265c.192.109.465.394.633.171a18.528,18.528,0,0,0,1.02-1.646c.035-.38-.22-.462-.422-.579q-3.5-2.03-7.005-4.06a.744.744,0,0,0-.815-.016c-1.444.776-1.448.768-.609,2.206.067.115.122.238.188.355" transform="translate(-206.179 -23.912)" fill="#fefefe"/>
        <path id="Trazado_174566" data-name="Trazado 174566" d="M204.033,53.212c-.711-.634-1.072.405-1.661.514-.261.048-.674.2-.4.667.281.484.555.972.831,1.459.07.124.164.207.424.17.506-.307,1.1-.658,1.682-1.028.144-.092.058-.243-.007-.357a5.534,5.534,0,0,0-.866-1.426" transform="translate(-169.291 -44.451)" fill="#fefefe"/>
        <path id="Trazado_174567" data-name="Trazado 174567" d="M223.486,41.3c-.2.3.452.879.684,1.351.071.144.16.279.232.422.087.172.2.25.379.124.559-.4,1.487-.508,1.656-1.152.141-.538-.484-1.127-.811-1.671-.083-.138-.163-.287-.368-.239a.877.877,0,0,0-.147.061c-.563.353-1.288.6-1.626,1.1" transform="translate(-187.377 -33.652)" fill="#fefefe"/>
      </g>
    </g>
  </g>
</svg>
