<svg xmlns="http://www.w3.org/2000/svg" xmlns:xlink="http://www.w3.org/1999/xlink" width="101" height="101" viewBox="0 0 101 101">
  <defs>
    <clipPath id="clip-path">
      <rect id="Rect치ngulo_66256" data-name="Rect치ngulo 66256" width="76.425" height="76.41" fill="none"/>
    </clipPath>
  </defs>
  <g id="Grupo_217271" data-name="Grupo 217271" transform="translate(-743 -1892)">
    <g id="Rect치ngulo_66254" data-name="Rect치ngulo 66254" transform="translate(743 1892)" fill="#ffd800" stroke="#f7ce48" stroke-width="2">
      <rect width="101" height="101" rx="16" stroke="none"/>
      <rect x="1" y="1" width="99" height="99" rx="15" fill="none"/>
    </g>
    <g id="Grupo_151145" data-name="Grupo 151145" transform="translate(754.788 1904.295)">
      <g id="Grupo_151144" data-name="Grupo 151144" clip-path="url(#clip-path)">
        <path id="Trazado_174588" data-name="Trazado 174588" d="M178.079,67.368l0,0,0,.006s0,0,0-.007" transform="translate(-138.902 -52.548)" fill="#fefefe"/>
        <path id="Trazado_174589" data-name="Trazado 174589" d="M178.775,23.9h-.024l.029.025c0-.007,0-.014,0-.02l-.006,0" transform="translate(-139.429 -18.641)" fill="#fefefe"/>
        <path id="Trazado_174590" data-name="Trazado 174590" d="M59.39,4.083a35.372,35.372,0,0,0-16.9-4,27.785,27.785,0,0,1,.807,4.45,1.909,1.909,0,0,0,.167.786h0A33.852,33.852,0,0,1,57.417,9.1a34.741,34.741,0,0,1,6.257,4.31,32.883,32.883,0,0,1,8.512,11.507,29.923,29.923,0,0,1,2.557,9.435,30.614,30.614,0,0,1,.307,3.989A34.314,34.314,0,0,1,71.87,52.27a32.822,32.822,0,0,1-7.338,10.074,32.228,32.228,0,0,1-15.983,8.173,31.244,31.244,0,0,1-7.071.643,33.608,33.608,0,0,1-12-2.613,32.583,32.583,0,0,1-11.714-8.375,31.64,31.64,0,0,1-6.935-12.417c-.139-.479-.1-.714.448-.787a36.784,36.784,0,0,0,8.584-2.333A40.977,40.977,0,0,0,27.882,40.2a1.754,1.754,0,0,0,.617-.646c-.729-.217-.733-.557-.367-1.2q6.78-11.922,13.5-23.877c.2-.352.4-.7.661-1.151l.991,1.563,0,0c.143-2.268.434-4.526.353-6.808a19.968,19.968,0,0,1-.18-2.73l-.029-.025a33.281,33.281,0,0,0-12.26,1.95A33.2,33.2,0,0,0,12.342,24.641a29.88,29.88,0,0,0-2.618,9.247c-.113,1.055-.269,2.108-.317,3.166a33.861,33.861,0,0,0,1.035,9.481c.108.449.034.562-.414.621a32.1,32.1,0,0,1-4.73.313,1.591,1.591,0,0,0,.167.875A38.2,38.2,0,0,0,40.015,76.4,37.228,37.228,0,0,0,58.36,72.929a38.052,38.052,0,0,0,21.392-42.22C77.258,18.643,70.352,9.736,59.39,4.083" transform="translate(-4.115 -0.066)" fill="#006def"/>
        <path id="Trazado_174591" data-name="Trazado 174591" d="M178.866,23.9v0h-.006l.006,0" transform="translate(-139.514 -18.642)" fill="#006def"/>
        <path id="Trazado_174592" data-name="Trazado 174592" d="M2.031,47.183c1.046.05,2.071-.174,3.113-.205.926-.027,1.043-.223.826-1.134A32.9,32.9,0,0,1,9.294,22a32.873,32.873,0,0,1,20.567-15.9A30.314,30.314,0,0,1,38.395,5.04a1.407,1.407,0,0,1,.927.218h.024l-.038-.029A.6.6,0,0,1,39,4.769c-.143-1.411-.438-2.8-.688-4.19a.792.792,0,0,1,.064-.557,30.424,30.424,0,0,0-7.51.685A37.807,37.807,0,0,0,5.389,18.676a37.042,37.042,0,0,0-5.328,17.5A34.913,34.913,0,0,0,1.184,47.4a1,1,0,0,1,.846-.221" transform="translate(0 0)" fill="#2487fe"/>
        <path id="Trazado_174593" data-name="Trazado 174593" d="M174.092.657c.25,1.393.545,2.779.688,4.19a.6.6,0,0,0,.306.46l.038.029h.005a1.909,1.909,0,0,1-.167-.786A27.786,27.786,0,0,0,174.156.1a.792.792,0,0,0-.064.557" transform="translate(-135.778 -0.078)" fill="#2487fe"/>
        <path id="Trazado_174594" data-name="Trazado 174594" d="M10.113,64.944c.448-.06.522-.172.414-.621a33.871,33.871,0,0,1-1.035-9.481c.047-1.058.2-2.111.317-3.166a29.874,29.874,0,0,1,2.618-9.247A33.2,33.2,0,0,1,31.261,25.061a33.281,33.281,0,0,1,12.26-1.95,1.407,1.407,0,0,0-.927-.218,30.323,30.323,0,0,0-8.534,1.066,32.872,32.872,0,0,0-20.567,15.9A32.9,32.9,0,0,0,10.167,63.7c.218.911.1,1.106-.825,1.134-1.041.031-2.067.255-3.113.205a1,1,0,0,0-.846.221,32.168,32.168,0,0,0,4.73-.313" transform="translate(-4.199 -17.853)" fill="#2487fe"/>
        <path id="Trazado_174595" data-name="Trazado 174595" d="M178.883,23.9h0Z" transform="translate(-139.531 -18.642)" fill="#2487fe"/>
        <path id="Trazado_174596" data-name="Trazado 174596" d="M68.917,42.8q4.029,7.157,8.086,14.3c.291.511.325.719-.318.96-4.48,1.683-8.944,3.411-13.408,5.137a1.394,1.394,0,0,1-1.094-.016Q55.948,60.762,49.7,58.382c-.229-.088-.47-.148-.707-.217A.347.347,0,0,1,49,58.2c-.072.427-.41.631-.721.853A38.382,38.382,0,0,1,32.32,65.728c-.951.167-1.01.227-.693,1.177A32.76,32.76,0,0,0,51.859,87.668a33.323,33.323,0,0,0,8.43,1.753A32.165,32.165,0,0,0,71.67,88.227,31.41,31.41,0,0,0,83.3,82.084,32.245,32.245,0,0,0,93.543,67.155a32.744,32.744,0,0,0,1.6-8.624,32.691,32.691,0,0,0-16.2-29.979,32.536,32.536,0,0,0-12.884-4.218c-.731-.084-1.519.1-2.167-.414,0,.007,0,.013,0,.02a.857.857,0,0,1,.1.1,6.609,6.609,0,0,1,.3,2.09,34.726,34.726,0,0,1-.37,7.083c-.062.161-.127.241-.2.266v.007c1.735,3.1,3.461,6.214,5.206,9.313M79.594,62.356C78.441,63.695,77.321,65,76.2,66.3q-6.434,7.43-12.862,14.866c-.428.5-.659.615-1.15.044Q54.242,71.985,46.257,62.8c-.116-.134-.3-.24-.266-.551,1.113.419,2.207.825,3.3,1.242q6.44,2.466,12.875,4.947a1.482,1.482,0,0,0,1.169,0q7.7-2.97,15.408-5.906a1.206,1.206,0,0,1,.855-.173" transform="translate(-24.535 -18.658)" fill="#005ecd"/>
        <path id="Trazado_174597" data-name="Trazado 174597" d="M178.289,33.284a34.742,34.742,0,0,0,.37-7.083,6.6,6.6,0,0,0-.3-2.09.823.823,0,0,0-.1-.1,19.932,19.932,0,0,0,.18,2.73c.081,2.282-.211,4.54-.353,6.808.069-.025.134-.1.2-.266" transform="translate(-138.916 -18.73)" fill="#005ecd"/>
        <path id="Trazado_174598" data-name="Trazado 174598" d="M65.105,24.321a32.535,32.535,0,0,1,12.884,4.218,32.691,32.691,0,0,1,16.2,29.979,32.734,32.734,0,0,1-1.6,8.624A32.244,32.244,0,0,1,82.351,82.071a31.41,31.41,0,0,1-11.629,6.143A32.16,32.16,0,0,1,59.34,89.409a33.305,33.305,0,0,1-8.43-1.753A32.76,32.76,0,0,1,30.678,66.893c-.317-.951-.258-1.011.693-1.177a38.383,38.383,0,0,0,15.957-6.674c.31-.222.649-.427.72-.853a.326.326,0,0,0-.006-.035l-.072-.021a1.752,1.752,0,0,1-.617.646,40.969,40.969,0,0,1-8.017,4.438,36.79,36.79,0,0,1-8.584,2.333c-.544.073-.587.308-.448.787A31.64,31.64,0,0,0,37.24,78.753a32.587,32.587,0,0,0,11.714,8.375,33.609,33.609,0,0,0,12,2.613,31.243,31.243,0,0,0,7.071-.643A32.228,32.228,0,0,0,84,80.924,32.822,32.822,0,0,0,91.342,70.85a34.314,34.314,0,0,0,3.18-13.931,30.654,30.654,0,0,0-.307-3.989A29.929,29.929,0,0,0,91.658,43.5a32.891,32.891,0,0,0-8.512-11.507,34.75,34.75,0,0,0-6.257-4.31A33.852,33.852,0,0,0,62.939,23.9v0c.647.509,1.435.329,2.167.414" transform="translate(-23.586 -18.646)" fill="#005ecd"/>
        <path id="Trazado_174599" data-name="Trazado 174599" d="M178.885,23.9h0" transform="translate(-139.533 -18.642)" fill="#005ecd"/>
        <path id="Trazado_174600" data-name="Trazado 174600" d="M123.466,63.474c-.209-.242-.28-.594-.679-.8-2.395,4.182-4.734,8.385-7.108,12.568s-4.718,8.405-7.13,12.6c.113.222.5.2.568.488.3-.187.585,0,.862.108,3.992,1.531,7.988,3.053,11.976,4.6a2.239,2.239,0,0,0,1.737.05q6.4-2.477,12.823-4.911c.556-.211.629-.425.33-.951-4.284-7.526-8.518-15.081-12.787-22.615-.155-.273-.423-.533-.21-.9l0-.005c-.117.039-.244-.081-.378-.236" transform="translate(-84.671 -48.889)" fill="#bcdafe"/>
        <path id="Trazado_174601" data-name="Trazado 174601" d="M108.762,86.459c-.071-.284-.455-.266-.568-.488,2.412-4.2,4.752-8.412,7.13-12.6s4.713-8.386,7.108-12.568c.4.2.47.555.679.8.134.155.261.275.378.236L122.5,60.27c-.258.45-.462.8-.661,1.151q-6.744,11.943-13.5,23.877c-.366.643-.363.983.366,1.2h0a.6.6,0,0,1,.063-.039" transform="translate(-84.315 -47.012)" fill="#bcdafe"/>
        <path id="Trazado_174602" data-name="Trazado 174602" d="M124.335,97.092a1.394,1.394,0,0,0,1.094.016c4.464-1.727,8.928-3.454,13.408-5.137.642-.241.608-.45.318-.96q-4.064-7.137-8.086-14.3c-1.744-3.1-3.471-6.208-5.206-9.313-.213.365.055.625.21.9,4.27,7.534,8.5,15.089,12.787,22.615.3.526.227.74-.33.951q-6.421,2.431-12.823,4.911a2.239,2.239,0,0,1-1.737-.05c-3.988-1.543-7.984-3.065-11.976-4.6-.276-.106-.557-.295-.861-.108a.348.348,0,0,1,.009.06c.237.069.477.129.707.217q6.246,2.389,12.486,4.794" transform="translate(-86.686 -52.574)" fill="#bcdafe"/>
        <path id="Trazado_174603" data-name="Trazado 174603" d="M110.911,179.321a.591.591,0,0,0-.063.039l.072.021a.407.407,0,0,0-.009-.06" transform="translate(-86.463 -139.873)" fill="#bcdafe"/>
        <path id="Trazado_174604" data-name="Trazado 174604" d="M113.69,204.327q-6.43-2.493-12.875-4.947c-1.089-.417-2.182-.823-3.3-1.242-.035.312.15.417.266.551q7.966,9.2,15.926,18.414c.491.571.722.453,1.151-.044q6.412-7.449,12.862-14.866c1.126-1.3,2.246-2.6,3.4-3.943a1.206,1.206,0,0,0-.855.173q-7.708,2.943-15.408,5.906a1.482,1.482,0,0,1-1.169,0" transform="translate(-76.064 -154.55)" fill="#bcdafe"/>
      </g>
    </g>
  </g>
</svg>
