<svg xmlns="http://www.w3.org/2000/svg" xmlns:xlink="http://www.w3.org/1999/xlink" width="101" height="101" viewBox="0 0 101 101">
  <defs>
    <clipPath id="clip-path">
      <rect id="Rect치ngulo_66258" data-name="Rect치ngulo 66258" width="79.71" height="21.506" fill="none"/>
    </clipPath>
  </defs>
  <g id="Grupo_217274" data-name="Grupo 217274" transform="translate(-743 -2379)">
    <g id="Rect치ngulo_66259" data-name="Rect치ngulo 66259" transform="translate(743 2379)" fill="#ffd800" stroke="#f7ce48" stroke-width="2">
      <rect width="101" height="101" rx="16" stroke="none"/>
      <rect x="1" y="1" width="99" height="99" rx="15" fill="none"/>
    </g>
    <g id="Grupo_151149" data-name="Grupo 151149" transform="translate(754 2419)">
      <g id="Grupo_151148" data-name="Grupo 151148" clip-path="url(#clip-path)">
        <path id="Trazado_174606" data-name="Trazado 174606" d="M292.236,10.127c0-2.349-.019-4.6.014-6.854.008-.544-.168-.688-.672-.646a7.578,7.578,0,0,1-1.391,0c-.563-.057-.738.1-.736.706.026,6.473.016,12.945.016,19.418,0,.11.009.222,0,.331-.026.283.091.394.38.384.486-.016.972,0,1.459,0,1.081-.011.913.116.932-.9,0-.2.023-.408.038-.659a7.392,7.392,0,0,0,10.239-.407,8.135,8.135,0,0,0,.344-10.558,7.482,7.482,0,0,0-10.622-.81m4.777,11.116a5.046,5.046,0,0,1-4.982-5.377,4.944,4.944,0,0,1,4.913-5.079,5.224,5.224,0,0,1,5.224,5.223,5.085,5.085,0,0,1-5.154,5.232" transform="translate(-251.003 -2.268)" fill="#39298b"/>
        <path id="Trazado_174607" data-name="Trazado 174607" d="M500.794,46.9c0-1.342,0-1.342-1.347-1.342-1.363,0-1.363,0-1.416,1.33a.812.812,0,0,1-.066.173,7.414,7.414,0,0,0-10.226.431,8.083,8.083,0,0,0-.545,10.294,7.357,7.357,0,0,0,10.841,1c0,.438.026.744-.006,1.043-.05.458.108.631.582.594a9.719,9.719,0,0,1,1.525,0c.512.041.674-.114.671-.654-.024-4.288-.013-8.575-.013-12.863m-7.443,11.29a5.177,5.177,0,0,1-5.256-5.25,5.093,5.093,0,0,1,5.135-5.205A5.034,5.034,0,0,1,498.2,53a4.89,4.89,0,0,1-4.85,5.19" transform="translate(-421.097 -39.213)" fill="#39298b"/>
        <path id="Trazado_174608" data-name="Trazado 174608" d="M21.531,58.744c-.535-.262-1.083-.5-1.6-.8-.455-.268-.694-.237-1.029.245-1.756,2.523-3.939,2.98-6.592,1.438-.687-.4-1.347-.842-2.034-1.241a7.1,7.1,0,0,0-4.038-1.072C3.3,57.49,1.51,59.323.071,61.652c-.166.268-.017.342.178.438.535.262,1.09.493,1.594.806.477.3.7.2,1.029-.26,1.761-2.512,3.961-2.966,6.6-1.413.627.369,1.232.777,1.863,1.14a7.862,7.862,0,0,0,3.9,1.152c.372-.045.746-.072,1.115-.137,2.526-.444,4.074-2.137,5.346-4.186.154-.249.039-.35-.165-.45" transform="translate(0 -49.689)" fill="#39298b"/>
        <path id="Trazado_174609" data-name="Trazado 174609" d="M21.811,1.452A17.073,17.073,0,0,1,20.156.624c-.457-.279-.674-.192-.979.248-1.745,2.516-3.93,2.987-6.588,1.455-.745-.429-1.458-.915-2.209-1.334A7.134,7.134,0,0,0,6.786,0,6.124,6.124,0,0,0,3.295,1.067,10.574,10.574,0,0,0,.471,4.1c-.306.456-.188.625.256.806a7.114,7.114,0,0,1,1.3.652c.515.346.786.232,1.139-.267C4.913,2.82,7.118,2.374,9.723,3.91c.836.493,1.65,1.027,2.509,1.475a6.745,6.745,0,0,0,3.709.778c2.851-.227,4.605-1.992,6.005-4.263.143-.233.1-.339-.135-.448" transform="translate(-0.26 0)" fill="#39298b"/>
        <path id="Trazado_174610" data-name="Trazado 174610" d="M21.838,116.091a10.284,10.284,0,0,1-1.358-.688c-.61-.41-.957-.342-1.4.3a4.308,4.308,0,0,1-3.943,2.139,5.876,5.876,0,0,1-2.707-1,23.043,23.043,0,0,0-2.753-1.585,6.49,6.49,0,0,0-7.456,1.366,14.562,14.562,0,0,0-1.626,2c-.322.451-.374.736.24.95a5.885,5.885,0,0,1,1.243.618c.5.322.768.268,1.133-.256,1.706-2.448,3.92-2.911,6.5-1.42.631.364,1.232.779,1.863,1.144a7.559,7.559,0,0,0,3.958,1.159c.287-.018.574-.03.86-.058a4.475,4.475,0,0,0,.521-.093c2.391-.527,3.87-2.173,5.09-4.141.154-.248.042-.345-.17-.446" transform="translate(-0.313 -99.416)" fill="#39298c"/>
        <path id="Trazado_174611" data-name="Trazado 174611" d="M200.258,2.651a11.289,11.289,0,0,1-1.79,0c-.523-.041-.615.165-.612.641.02,3.249.011,6.5.011,9.747,0,3.227.021,6.454-.017,9.68-.008.664.194.85.816.779a11.856,11.856,0,0,1,1.326-.01c.865,0,.866,0,.866-.834q0-6.332,0-12.664c0-2.232-.013-4.465.01-6.7,0-.473-.084-.685-.61-.642" transform="translate(-171.568 -2.294)" fill="#3a2a8c"/>
        <path id="Trazado_174612" data-name="Trazado 174612" d="M426.985,48.1c.024-.39-.09-.55-.5-.562-2.009-.057-3.894.186-5.289,2.134,0-.691-.015-1.195.006-1.7.013-.311-.085-.43-.408-.42-.662.02-1.328.038-1.988-.005-.49-.032-.575.162-.57.6.022,1.921.009,3.843.009,5.765,0,2.628.014,5.257-.012,7.885-.005.509.145.657.634.617a8.345,8.345,0,0,1,1.523,0c.615.063.824-.1.811-.771-.046-2.429-.036-4.859,0-7.288a3.878,3.878,0,0,1,2.068-3.6,5.45,5.45,0,0,1,3.2-.648c.41.038.557-.069.528-.491a11.893,11.893,0,0,1,0-1.523" transform="translate(-362.674 -41.218)" fill="#39298c"/>
        <path id="Trazado_174613" data-name="Trazado 174613" d="M246.183,47.762c-.64.023-1.283.033-1.922,0-.44-.025-.554.123-.55.554.021,2.275.01,4.551.01,6.826,0,2.3.014,4.6-.011,6.893-.005.475.139.61.6.583.639-.037,1.282-.025,1.922,0,.352.012.454-.125.453-.463q-.012-6.959,0-13.918c0-.4-.145-.481-.5-.469" transform="translate(-211.336 -41.413)" fill="#39298c"/>
        <path id="Trazado_174614" data-name="Trazado 174614" d="M245.286,5.713h.066c1.4,0,1.4,0,1.4-1.406,0-1.541,0-1.541-1.53-1.541-1.427,0-1.427,0-1.427,1.441,0,1.506,0,1.506,1.493,1.506" transform="translate(-211.409 -2.399)" fill="#3a2a8c"/>
      </g>
    </g>
  </g>
</svg>
