<svg xmlns="http://www.w3.org/2000/svg" width="400" height="316" viewBox="0 0 400 316">
  <g id="Grupo_217268" data-name="Grupo 217268" transform="translate(-1020 -3792)">
    <g id="Rectángulo_66249" data-name="Rectángulo 66249" transform="translate(1050 3792)" fill="#fff" stroke="#f08e35" stroke-width="2">
      <rect width="370" height="316" rx="24" stroke="none"/>
      <rect x="1" y="1" width="368" height="314" rx="23" fill="none"/>
    </g>
    <circle id="Elipse_5014" data-name="Elipse 5014" cx="30.5" cy="30.5" r="30.5" transform="translate(1020 3816)" fill="#1b3f5e"/>
    <path id="Trazado_217317" data-name="Trazado 217317" d="M21.33,9.364v3.882h-.22a7.411,7.411,0,0,0-4.548,1.326,5.6,5.6,0,0,0-2.19,3.684,5.773,5.773,0,0,1,4.219-1.641A5.385,5.385,0,0,1,23,18.637a8.153,8.153,0,0,1,1.641,5.3,7.466,7.466,0,0,1-.959,3.735A6.846,6.846,0,0,1,21,30.333a7.7,7.7,0,0,1-3.816.959,7.961,7.961,0,0,1-4.058-1.033,7.1,7.1,0,0,1-2.783-2.952,9.719,9.719,0,0,1-1.025-4.424V20.907a12.312,12.312,0,0,1,1.414-5.925,10.248,10.248,0,0,1,4.036-4.124,11.538,11.538,0,0,1,5.815-1.494Zm-4.453,11.03a2.824,2.824,0,0,0-1.641.454,2.883,2.883,0,0,0-.981,1.113v1.479q0,4.043,2.8,4.043a2.27,2.27,0,0,0,1.882-1.011,4.119,4.119,0,0,0,.754-2.534,4.043,4.043,0,0,0-.769-2.556A2.46,2.46,0,0,0,16.877,20.395Z" transform="translate(1033 3829)" fill="#fff"/>
  </g>
</svg>
