<svg xmlns="http://www.w3.org/2000/svg" width="400" height="316" viewBox="0 0 400 316">
  <g id="Grupo_217267" data-name="Grupo 217267" transform="translate(-600 -3792)">
    <g id="Rectángulo_66243" data-name="Rectángulo 66243" transform="translate(630 3792)" fill="#fff" stroke="#f08e35" stroke-width="2">
      <rect width="370" height="316" rx="24" stroke="none"/>
      <rect x="1" y="1" width="368" height="314" rx="23" fill="none"/>
    </g>
    <circle id="Elipse_4913" data-name="Elipse 4913" cx="30.5" cy="30.5" r="30.5" transform="translate(600 3816)" fill="#1b3f5e"/>
    <path id="Trazado_217318" data-name="Trazado 217318" d="M9.7,20.582,11,9.672H23.469V13.51H15.017l-.483,4.237a5.822,5.822,0,0,1,1.384-.544,6.316,6.316,0,0,1,1.677-.235,6.257,6.257,0,0,1,4.885,1.882,7.582,7.582,0,0,1,1.707,5.281,7.569,7.569,0,0,1-.916,3.713A6.293,6.293,0,0,1,20.7,30.4a8.116,8.116,0,0,1-3.911.894,8.733,8.733,0,0,1-3.765-.827A6.754,6.754,0,0,1,10.271,28.2a5.513,5.513,0,0,1-.981-3.257H14.24a2.8,2.8,0,0,0,.747,1.856,2.371,2.371,0,0,0,1.772.687q2.49,0,2.49-3.684,0-3.406-3.047-3.406a3.04,3.04,0,0,0-2.578,1.111Z" transform="translate(613 3829)" fill="#fff"/>
  </g>
</svg>
