<svg xmlns="http://www.w3.org/2000/svg" width="400" height="316" viewBox="0 0 400 316">
  <g id="Grupo_217267" data-name="Grupo 217267" transform="translate(-1021 -3426)">
    <g id="Rectángulo_66242" data-name="Rectángulo 66242" transform="translate(1051 3426)" fill="#fff" stroke="#f08e35" stroke-width="2">
      <rect width="370" height="316" rx="24" stroke="none"/>
      <rect x="1" y="1" width="368" height="314" rx="23" fill="none"/>
    </g>
    <circle id="Elipse_4911" data-name="Elipse 4911" cx="30.5" cy="30.5" r="30.5" transform="translate(1021 3450)" fill="#1b3f5e"/>
    <path id="Trazado_217316" data-name="Trazado 217316" d="M13.918,18.271h2.329q2.769,0,2.769-2.71a2.343,2.343,0,0,0-.659-1.721,2.5,2.5,0,0,0-1.86-.667,2.676,2.676,0,0,0-1.707.571,1.743,1.743,0,0,0-.725,1.421H9.128a5.053,5.053,0,0,1,.938-3,6.191,6.191,0,0,1,2.6-2.058,8.89,8.89,0,0,1,3.655-.74,8.735,8.735,0,0,1,5.6,1.626,5.405,5.405,0,0,1,2.036,4.468,4.505,4.505,0,0,1-.842,2.6,6,6,0,0,1-2.454,1.985,5.734,5.734,0,0,1,2.666,1.868,4.919,4.919,0,0,1,.967,3.1,5.5,5.5,0,0,1-2.2,4.57,9.12,9.12,0,0,1-5.771,1.714,9.458,9.458,0,0,1-3.889-.8,6.093,6.093,0,0,1-2.717-2.212,5.751,5.751,0,0,1-.923-3.215h4.966a2.223,2.223,0,0,0,.791,1.7,2.793,2.793,0,0,0,1.948.718,2.925,2.925,0,0,0,2.08-.725,2.424,2.424,0,0,0,.776-1.853,2.833,2.833,0,0,0-.806-2.285,3.368,3.368,0,0,0-2.227-.674h-2.4Z" transform="translate(1034 3463)" fill="#fff"/>
  </g>
</svg>
