<svg xmlns="http://www.w3.org/2000/svg" xmlns:xlink="http://www.w3.org/1999/xlink" width="471" height="263" viewBox="0 0 471 263">
  <defs>
    <clipPath id="clip-path">
      <rect id="Rectángulo_66685" data-name="Rectángulo 66685" width="30.404" height="34.597" fill="#ccac00"/>
    </clipPath>
    <clipPath id="clip-path-5">
      <rect id="Rectángulo_66696" data-name="Rectángulo 66696" width="30.404" height="34.598" fill="#ccac00"/>
    </clipPath>
  </defs>
  <g id="Grupo_217273" data-name="Grupo 217273" transform="translate(5747 2467)">
    <g id="Grupo_216494" data-name="Grupo 216494" transform="translate(-13.306 -504)">
      <g id="Grupo_213051" data-name="Grupo 213051" transform="translate(-6764.694 -12174.436)">
        <g id="Grupo_213022" data-name="Grupo 213022" transform="translate(25.875 1144)">
          <g id="Grupo_212956" data-name="Grupo 212956" transform="translate(1187.298 9149.106)">
            <g id="Grupo_212921" data-name="Grupo 212921" transform="translate(2.378 1.586)">
              <g id="Grupo_212920" data-name="Grupo 212920" transform="translate(0 1.585)">
                <g id="Rectángulo_66683" data-name="Rectángulo 66683" transform="translate(13.514 13.464)" fill="none" stroke="#243f5b" stroke-width="1">
                  <rect width="65.008" height="65.008" stroke="none"/>
                  <rect x="0.5" y="0.5" width="64.008" height="64.008" fill="none"/>
                </g>
                <g id="Rectángulo_66684" data-name="Rectángulo 66684" transform="translate(0.051 45.968) rotate(-45)" fill="none" stroke="#243f5b" stroke-width="1">
                  <rect width="65.008" height="65.008" stroke="none"/>
                  <rect x="0.5" y="0.5" width="64.008" height="64.008" fill="none"/>
                </g>
                <path id="Trazado_210442" data-name="Trazado 210442" d="M-7500.695-2909.491l31.985,13.944,13.32,32.032-13.32,31.753-31.985,13.342-32.119-13.342-13.385-31.753,13.385-32.032Z" transform="translate(7546.714 2909.491)" fill="none" stroke="#243f5b" stroke-width="1"/>
                <path id="Trazado_210443" data-name="Trazado 210443" d="M-7517.562-2818.431v-91.042" transform="translate(7563.482 2909.502)" fill="none" stroke="#243f5b" stroke-width="1"/>
                <path id="Trazado_210444" data-name="Trazado 210444" d="M-7473.233-2901l-64.354,64.48" transform="translate(7551.755 2914.464)" fill="none" stroke="#243f5b" stroke-width="1"/>
                <path id="Trazado_210445" data-name="Trazado 210445" d="M-7455.2-2880.5h-91.324" transform="translate(7546.523 2926.468)" fill="none" stroke="#243f5b" stroke-width="1"/>
                <path id="Trazado_210446" data-name="Trazado 210446" d="M-7474.293-2836.815l-63.421-63.682" transform="translate(7551.68 2914.759)" fill="none" stroke="#243f5b" stroke-width="1"/>
              </g>
              <g id="Elipse_5015" data-name="Elipse 5015" fill="none" stroke="#3156b4" stroke-width="1">
                <circle cx="46.774" cy="46.774" r="46.774" stroke="none"/>
                <circle cx="46.774" cy="46.774" r="46.274" fill="none"/>
              </g>
            </g>
            <g id="Grupo_212922" data-name="Grupo 212922" transform="translate(45.188)">
              <circle id="Elipse_5016" data-name="Elipse 5016" cx="3.964" cy="3.964" r="3.964" fill="#5079d6"/>
              <circle id="Elipse_5017" data-name="Elipse 5017" cx="3.964" cy="3.964" r="3.964" transform="translate(0 90.377)" fill="#5079d6"/>
            </g>
            <g id="Grupo_212923" data-name="Grupo 212923" transform="translate(98.304 45.188) rotate(90)">
              <circle id="Elipse_5016-2" data-name="Elipse 5016" cx="3.964" cy="3.964" r="3.964" transform="translate(0 0)" fill="#5079d6"/>
              <circle id="Elipse_5017-2" data-name="Elipse 5017" cx="3.964" cy="3.964" r="3.964" transform="translate(0 90.377)" fill="#5079d6"/>
            </g>
            <g id="Grupo_212924" data-name="Grupo 212924" transform="translate(81.105 11.593) rotate(45)">
              <circle id="Elipse_5016-3" data-name="Elipse 5016" cx="3.964" cy="3.964" r="3.964" transform="translate(0 0)" fill="#5079d6"/>
              <circle id="Elipse_5017-3" data-name="Elipse 5017" cx="3.964" cy="3.964" r="3.964" transform="translate(0 90.377)" fill="#5079d6"/>
            </g>
            <g id="Grupo_212925" data-name="Grupo 212925" transform="translate(86.711 81.106) rotate(135)">
              <circle id="Elipse_5016-4" data-name="Elipse 5016" cx="3.964" cy="3.964" r="3.964" transform="translate(0 0)" fill="#5079d6"/>
              <circle id="Elipse_5017-4" data-name="Elipse 5017" cx="3.964" cy="3.964" r="3.964" transform="translate(0 90.377)" fill="#5079d6"/>
            </g>
          </g>
          <g id="Grupo_212955" data-name="Grupo 212955" transform="translate(1289.566 9122.269)">
            <g id="Grupo_212930" data-name="Grupo 212930" transform="translate(0)" clip-path="url(#clip-path)">
              <path id="Trazado_210450" data-name="Trazado 210450" d="M76.054.171a9.711,9.711,0,0,0-2.361.681,8.981,8.981,0,0,0-3.955,3.364,8.7,8.7,0,0,0-1.446,5.319A8.8,8.8,0,0,0,70.8,15.356a9,9,0,0,0,12.766.262,8.59,8.59,0,0,0,2.677-5.177,8.769,8.769,0,0,0-2.426-7.562A8.8,8.8,0,0,0,78.376.152c-.1-.013-.242.022-.25-.152H76.369c-.031.191-.2.152-.315.171m1.272,1.856A7.095,7.095,0,1,1,70.22,9.093a7.105,7.105,0,0,1,7.106-7.066" transform="translate(-62.113)" fill="#ccac00"/>
              <path id="Trazado_210451" data-name="Trazado 210451" d="M67.583,10.645A9.118,9.118,0,1,0,78.982.323C78.454.179,77.91.139,77.384,0c.008.174.151.139.25.152a8.8,8.8,0,0,1,5.44,2.727A8.769,8.769,0,0,1,85.5,10.44a8.589,8.589,0,0,1-2.677,5.177,9,9,0,0,1-12.766-.262,8.8,8.8,0,0,1-2.507-5.822A8.7,8.7,0,0,1,69,4.216,8.981,8.981,0,0,1,72.951.852,9.711,9.711,0,0,1,75.313.171c.116-.019.284.02.315-.171-.476.106-.958.19-1.427.321a9.1,9.1,0,0,0-6.618,10.323" transform="translate(-61.372)" fill="#ccac00"/>
              <path id="Trazado_210452" data-name="Trazado 210452" d="M17.373,224.417c-1.441-.017-2.882-.01-4.324,0a12.61,12.61,0,0,0-4.324.783A13.363,13.363,0,0,0,0,237.52a1.053,1.053,0,0,0,1.207,1.219h28.07a1.029,1.029,0,0,0,1.127-1.131,13.964,13.964,0,0,0-.192-2.115,13.259,13.259,0,0,0-12.84-11.075m10.579,12.3c-4.256-.016-8.511-.01-12.767-.01s-8.511,0-12.767.007c-.282,0-.353-.055-.322-.345a11.268,11.268,0,0,1,9.448-9.809,11.448,11.448,0,0,1,1.85-.124c1.609.027,3.224-.1,4.827.06a10.933,10.933,0,0,1,8.8,5.853,11.082,11.082,0,0,1,1.273,3.953c.042.295.019.416-.346.415" transform="translate(0 -204.141)" fill="#ccac00"/>
            </g>
          </g>
          <g id="Grupo_212964" data-name="Grupo 212964" transform="translate(1155.726 9119.097)">
            <g id="Grupo_212930-2" data-name="Grupo 212930" transform="translate(0)" clip-path="url(#clip-path)">
              <path id="Trazado_210450-2" data-name="Trazado 210450" d="M76.054.171a9.711,9.711,0,0,0-2.361.681,8.981,8.981,0,0,0-3.955,3.364,8.7,8.7,0,0,0-1.446,5.319A8.8,8.8,0,0,0,70.8,15.356a9,9,0,0,0,12.766.262,8.59,8.59,0,0,0,2.677-5.177,8.769,8.769,0,0,0-2.426-7.562A8.8,8.8,0,0,0,78.376.152c-.1-.013-.242.022-.25-.152H76.369c-.031.191-.2.152-.315.171m1.272,1.856A7.095,7.095,0,1,1,70.22,9.093a7.105,7.105,0,0,1,7.106-7.066" transform="translate(-62.113)" fill="#ccac00"/>
              <path id="Trazado_210451-2" data-name="Trazado 210451" d="M67.583,10.645A9.118,9.118,0,1,0,78.982.323C78.454.179,77.91.139,77.384,0c.008.174.151.139.25.152a8.8,8.8,0,0,1,5.44,2.727A8.769,8.769,0,0,1,85.5,10.44a8.589,8.589,0,0,1-2.677,5.177,9,9,0,0,1-12.766-.262,8.8,8.8,0,0,1-2.507-5.822A8.7,8.7,0,0,1,69,4.216,8.981,8.981,0,0,1,72.951.852,9.711,9.711,0,0,1,75.313.171c.116-.019.284.02.315-.171-.476.106-.958.19-1.427.321a9.1,9.1,0,0,0-6.618,10.323" transform="translate(-61.372)" fill="#ccac00"/>
              <path id="Trazado_210452-2" data-name="Trazado 210452" d="M17.373,224.417c-1.441-.017-2.882-.01-4.324,0a12.61,12.61,0,0,0-4.324.783A13.363,13.363,0,0,0,0,237.52a1.053,1.053,0,0,0,1.207,1.219h28.07a1.029,1.029,0,0,0,1.127-1.131,13.964,13.964,0,0,0-.192-2.115,13.259,13.259,0,0,0-12.84-11.075m10.579,12.3c-4.256-.016-8.511-.01-12.767-.01s-8.511,0-12.767.007c-.282,0-.353-.055-.322-.345a11.268,11.268,0,0,1,9.448-9.809,11.448,11.448,0,0,1,1.85-.124c1.609.027,3.224-.1,4.827.06a10.933,10.933,0,0,1,8.8,5.853,11.082,11.082,0,0,1,1.273,3.953c.042.295.019.416-.346.415" transform="translate(0 -204.141)" fill="#ccac00"/>
            </g>
          </g>
          <g id="Grupo_212966" data-name="Grupo 212966" transform="translate(1155.726 9232.009)">
            <g id="Grupo_212930-3" data-name="Grupo 212930" transform="translate(0)" clip-path="url(#clip-path)">
              <path id="Trazado_210450-3" data-name="Trazado 210450" d="M76.054.171a9.711,9.711,0,0,0-2.361.681,8.981,8.981,0,0,0-3.955,3.364,8.7,8.7,0,0,0-1.446,5.319A8.8,8.8,0,0,0,70.8,15.356a9,9,0,0,0,12.766.262,8.59,8.59,0,0,0,2.677-5.177,8.769,8.769,0,0,0-2.426-7.562A8.8,8.8,0,0,0,78.376.152c-.1-.013-.242.022-.25-.152H76.369c-.031.191-.2.152-.315.171m1.272,1.856A7.095,7.095,0,1,1,70.22,9.093a7.105,7.105,0,0,1,7.106-7.066" transform="translate(-62.113)" fill="#ccac00"/>
              <path id="Trazado_210451-3" data-name="Trazado 210451" d="M67.583,10.645A9.118,9.118,0,1,0,78.982.323C78.454.179,77.91.139,77.384,0c.008.174.151.139.25.152a8.8,8.8,0,0,1,5.44,2.727A8.769,8.769,0,0,1,85.5,10.44a8.589,8.589,0,0,1-2.677,5.177,9,9,0,0,1-12.766-.262,8.8,8.8,0,0,1-2.507-5.822A8.7,8.7,0,0,1,69,4.216,8.981,8.981,0,0,1,72.951.852,9.711,9.711,0,0,1,75.313.171c.116-.019.284.02.315-.171-.476.106-.958.19-1.427.321a9.1,9.1,0,0,0-6.618,10.323" transform="translate(-61.372)" fill="#ccac00"/>
              <path id="Trazado_210452-3" data-name="Trazado 210452" d="M17.373,224.417c-1.441-.017-2.882-.01-4.324,0a12.61,12.61,0,0,0-4.324.783A13.363,13.363,0,0,0,0,237.52a1.053,1.053,0,0,0,1.207,1.219h28.07a1.029,1.029,0,0,0,1.127-1.131,13.964,13.964,0,0,0-.192-2.115,13.259,13.259,0,0,0-12.84-11.075m10.579,12.3c-4.256-.016-8.511-.01-12.767-.01s-8.511,0-12.767.007c-.282,0-.353-.055-.322-.345a11.268,11.268,0,0,1,9.448-9.809,11.448,11.448,0,0,1,1.85-.124c1.609.027,3.224-.1,4.827.06a10.933,10.933,0,0,1,8.8,5.853,11.082,11.082,0,0,1,1.273,3.953c.042.295.019.416-.346.415" transform="translate(0 -204.141)" fill="#ccac00"/>
            </g>
          </g>
          <g id="Grupo_212962" data-name="Grupo 212962" transform="translate(1288.634 9232.009)">
            <g id="Grupo_212930-4" data-name="Grupo 212930" transform="translate(0)" clip-path="url(#clip-path)">
              <path id="Trazado_210450-4" data-name="Trazado 210450" d="M76.054.171a9.711,9.711,0,0,0-2.361.681,8.981,8.981,0,0,0-3.955,3.364,8.7,8.7,0,0,0-1.446,5.319A8.8,8.8,0,0,0,70.8,15.356a9,9,0,0,0,12.766.262,8.59,8.59,0,0,0,2.677-5.177,8.769,8.769,0,0,0-2.426-7.562A8.8,8.8,0,0,0,78.376.152c-.1-.013-.242.022-.25-.152H76.369c-.031.191-.2.152-.315.171m1.272,1.856A7.095,7.095,0,1,1,70.22,9.093a7.105,7.105,0,0,1,7.106-7.066" transform="translate(-62.113)" fill="#ccac00"/>
              <path id="Trazado_210451-4" data-name="Trazado 210451" d="M67.583,10.645A9.118,9.118,0,1,0,78.982.323C78.454.179,77.91.139,77.384,0c.008.174.151.139.25.152a8.8,8.8,0,0,1,5.44,2.727A8.769,8.769,0,0,1,85.5,10.44a8.589,8.589,0,0,1-2.677,5.177,9,9,0,0,1-12.766-.262,8.8,8.8,0,0,1-2.507-5.822A8.7,8.7,0,0,1,69,4.216,8.981,8.981,0,0,1,72.951.852,9.711,9.711,0,0,1,75.313.171c.116-.019.284.02.315-.171-.476.106-.958.19-1.427.321a9.1,9.1,0,0,0-6.618,10.323" transform="translate(-61.372)" fill="#ccac00"/>
              <path id="Trazado_210452-4" data-name="Trazado 210452" d="M17.373,224.417c-1.441-.017-2.882-.01-4.324,0a12.61,12.61,0,0,0-4.324.783A13.363,13.363,0,0,0,0,237.52a1.053,1.053,0,0,0,1.207,1.219h28.07a1.029,1.029,0,0,0,1.127-1.131,13.964,13.964,0,0,0-.192-2.115,13.259,13.259,0,0,0-12.84-11.075m10.579,12.3c-4.256-.016-8.511-.01-12.767-.01s-8.511,0-12.767.007c-.282,0-.353-.055-.322-.345a11.268,11.268,0,0,1,9.448-9.809,11.448,11.448,0,0,1,1.85-.124c1.609.027,3.224-.1,4.827.06a10.933,10.933,0,0,1,8.8,5.853,11.082,11.082,0,0,1,1.273,3.953c.042.295.019.416-.346.415" transform="translate(0 -204.141)" fill="#ccac00"/>
            </g>
          </g>
          <g id="Grupo_212960" data-name="Grupo 212960" transform="translate(1289.334 9197.806) rotate(-45)">
            <path id="Trazado_210453" data-name="Trazado 210453" d="M8.348,7.313,0,0" transform="translate(0.001 0.702)" fill="none" stroke="#f08e35" stroke-width="1"/>
            <path id="Trazado_210454" data-name="Trazado 210454" d="M0,6.671V.535L5.942,0" transform="translate(0 0)" fill="none" stroke="#f08e35" stroke-width="1"/>
          </g>
          <g id="Grupo_212967" data-name="Grupo 212967" transform="translate(1177.557 9203.476) rotate(-135)">
            <path id="Trazado_210453-2" data-name="Trazado 210453" d="M8.349,0,0,7.313" transform="translate(0 0)" fill="none" stroke="#f08e35" stroke-width="1"/>
            <path id="Trazado_210454-2" data-name="Trazado 210454" d="M0,0V6.136l5.943.535" transform="translate(0 1.343)" fill="none" stroke="#f08e35" stroke-width="1"/>
          </g>
          <g id="Grupo_212958" data-name="Grupo 212958" transform="translate(1273.878 9160.257) rotate(-90)">
            <path id="Trazado_210453-3" data-name="Trazado 210453" d="M8.348,7.313,0,0" transform="translate(0.001 0.702)" fill="none" stroke="#f08e35" stroke-width="1"/>
            <path id="Trazado_210454-3" data-name="Trazado 210454" d="M0,6.671V.535L5.942,0" transform="translate(0 0)" fill="none" stroke="#f08e35" stroke-width="1"/>
          </g>
          <g id="Grupo_212968" data-name="Grupo 212968" transform="translate(1198.846 9243.304) rotate(180)">
            <path id="Trazado_210453-4" data-name="Trazado 210453" d="M8.349,0,0,7.313" transform="translate(0)" fill="none" stroke="#f08e35" stroke-width="1"/>
            <path id="Trazado_210454-4" data-name="Trazado 210454" d="M0,0V6.136l5.943.535" transform="translate(0 1.343)" fill="none" stroke="#f08e35" stroke-width="1"/>
          </g>
          <g id="Grupo_212961" data-name="Grupo 212961" transform="translate(1236.432 9144.55) rotate(-135)">
            <path id="Trazado_210453-5" data-name="Trazado 210453" d="M8.348,7.313,0,0" transform="translate(0.001 0.702)" fill="none" stroke="#f08e35" stroke-width="1"/>
            <path id="Trazado_210454-5" data-name="Trazado 210454" d="M0,6.671V.535L5.942,0" transform="translate(0 0)" fill="none" stroke="#f08e35" stroke-width="1"/>
          </g>
          <g id="Grupo_212969" data-name="Grupo 212969" transform="translate(1242.098 9256.327) rotate(135)">
            <path id="Trazado_210453-6" data-name="Trazado 210453" d="M8.349,0,0,7.313" transform="translate(0 0)" fill="none" stroke="#f08e35" stroke-width="1"/>
            <path id="Trazado_210454-6" data-name="Trazado 210454" d="M0,0V6.136l5.943.535" transform="translate(0 1.343)" fill="none" stroke="#f08e35" stroke-width="1"/>
          </g>
          <g id="Grupo_212970" data-name="Grupo 212970" transform="translate(1198.88 9160.007) rotate(180)">
            <path id="Trazado_210453-7" data-name="Trazado 210453" d="M8.348,7.313,0,0" transform="translate(0.001 0.702)" fill="none" stroke="#f08e35" stroke-width="1"/>
            <path id="Trazado_210454-7" data-name="Trazado 210454" d="M0,6.671V.535L5.942,0" transform="translate(0 0)" fill="none" stroke="#f08e35" stroke-width="1"/>
          </g>
          <g id="Grupo_212963" data-name="Grupo 212963" transform="translate(1281.926 9235.036) rotate(90)">
            <path id="Trazado_210453-8" data-name="Trazado 210453" d="M8.349,0,0,7.313" transform="translate(0)" fill="none" stroke="#f08e35" stroke-width="1"/>
            <path id="Trazado_210454-8" data-name="Trazado 210454" d="M0,0V6.136l5.943.535" transform="translate(0 1.343)" fill="none" stroke="#f08e35" stroke-width="1"/>
          </g>
          <g id="Grupo_212971" data-name="Grupo 212971" transform="translate(1140.523 9180.933)">
            <g id="Grupo_212972" data-name="Grupo 212972" transform="translate(0 0)" clip-path="url(#clip-path-5)">
              <path id="Trazado_210458" data-name="Trazado 210458" d="M17.6.083,5.392,9.464c-.423.324-.253,1.2.232,1.2H30.038c.485,0,.654-.876.232-1.2L18.063.083a.366.366,0,0,0-.464,0" transform="translate(-2.629 0)" fill="#ccac00"/>
              <path id="Trazado_210459" data-name="Trazado 210459" d="M29.768,19.134H4.6c-.394,0-.716-.439-.716-.975s.322-.974.716-.974H29.768c.394,0,.717.438.717.974s-.323.975-.717.975" transform="translate(-1.982 -5.742)" fill="#ccac00"/>
              <rect id="Rectángulo_66687" data-name="Rectángulo 66687" width="1.873" height="14.553" transform="translate(4.271 14.12)" fill="#ccac00"/>
              <rect id="Rectángulo_66688" data-name="Rectángulo 66688" width="1.873" height="14.553" transform="translate(8.269 14.12)" fill="#ccac00"/>
              <rect id="Rectángulo_66689" data-name="Rectángulo 66689" width="1.873" height="14.553" transform="translate(12.267 14.12)" fill="#ccac00"/>
              <rect id="Rectángulo_66690" data-name="Rectángulo 66690" width="1.873" height="14.553" transform="translate(16.265 14.12)" fill="#ccac00"/>
              <rect id="Rectángulo_66691" data-name="Rectángulo 66691" width="1.873" height="14.553" transform="translate(20.263 14.12)" fill="#ccac00"/>
              <rect id="Rectángulo_66692" data-name="Rectángulo 66692" width="1.873" height="14.553" transform="translate(24.26 14.12)" fill="#ccac00"/>
              <path id="Trazado_210460" data-name="Trazado 210460" d="M29.768,46.3H4.6c-.394,0-.716-.439-.716-.975s.322-.974.716-.974H29.768c.394,0,.717.439.717.974s-.323.975-.717.975" transform="translate(-1.982 -14.818)" fill="#ccac00"/>
              <path id="Trazado_210461" data-name="Trazado 210461" d="M29.689,50.98H.717c-.394,0-.716-.438-.716-.974v0c0-.535.322-.974.716-.974H29.689c.394,0,.716.438.716.974v0c0,.535-.322.974-.716.974" transform="translate(-0.001 -16.383)" fill="#ccac00"/>
              <rect id="Rectángulo_66693" data-name="Rectángulo 66693" width="1.873" height="14.553" transform="translate(4.271 14.12)" fill="#ccac00"/>
              <rect id="Rectángulo_66694" data-name="Rectángulo 66694" width="1.873" height="14.553" transform="translate(8.269 14.12)" fill="#ccac00"/>
              <rect id="Rectángulo_66695" data-name="Rectángulo 66695" width="1.873" height="14.553" transform="translate(12.267 14.12)" fill="#ccac00"/>
              <path id="Trazado_210462" data-name="Trazado 210462" d="M17.818,0A.381.381,0,0,0,17.6.084L5.392,9.464c-.423.324-.253,1.2.232,1.2H17.818Z" transform="translate(-2.629 -0.001)" fill="#ccac00"/>
              <path id="Trazado_210463" data-name="Trazado 210463" d="M17.17,17.185H4.6c-.394,0-.717.439-.717.975s.323.974.717.974H17.17Z" transform="translate(-1.981 -5.742)" fill="#ccac00"/>
              <path id="Trazado_210464" data-name="Trazado 210464" d="M17.17,44.348H4.6c-.394,0-.717.439-.717.975s.323.974.717.974H17.17Z" transform="translate(-1.981 -14.818)" fill="#ccac00"/>
              <path id="Trazado_210465" data-name="Trazado 210465" d="M15.189,49.031H.716C.322,49.031,0,49.469,0,50v0c0,.535.322.974.716.974H15.189Z" transform="translate(0 -16.383)" fill="#ccac00"/>
            </g>
          </g>
          <g id="Elipse_5020" data-name="Elipse 5020" transform="translate(1123.53 9083.138)" fill="none" stroke="#2754ba" stroke-width="2">
            <circle cx="115.298" cy="115.298" r="115.298" stroke="none"/>
            <circle cx="115.298" cy="115.298" r="114.298" fill="none"/>
          </g>
          <g id="Grupo_213016" data-name="Grupo 213016" transform="translate(1221.248 9096.899)">
            <g id="Grupo_212972-2" data-name="Grupo 212972" transform="translate(0 0)" clip-path="url(#clip-path-5)">
              <path id="Trazado_210458-2" data-name="Trazado 210458" d="M17.6.083,5.392,9.464c-.423.324-.253,1.2.232,1.2H30.038c.485,0,.654-.876.232-1.2L18.063.083a.366.366,0,0,0-.464,0" transform="translate(-2.629 0)" fill="#ccac00"/>
              <path id="Trazado_210459-2" data-name="Trazado 210459" d="M29.768,19.134H4.6c-.394,0-.716-.439-.716-.975s.322-.974.716-.974H29.768c.394,0,.717.438.717.974s-.323.975-.717.975" transform="translate(-1.982 -5.742)" fill="#ccac00"/>
              <rect id="Rectángulo_66687-2" data-name="Rectángulo 66687" width="1.873" height="14.553" transform="translate(4.271 14.12)" fill="#ccac00"/>
              <rect id="Rectángulo_66688-2" data-name="Rectángulo 66688" width="1.873" height="14.553" transform="translate(8.269 14.12)" fill="#ccac00"/>
              <rect id="Rectángulo_66689-2" data-name="Rectángulo 66689" width="1.873" height="14.553" transform="translate(12.267 14.12)" fill="#ccac00"/>
              <rect id="Rectángulo_66690-2" data-name="Rectángulo 66690" width="1.873" height="14.553" transform="translate(16.265 14.12)" fill="#ccac00"/>
              <rect id="Rectángulo_66691-2" data-name="Rectángulo 66691" width="1.873" height="14.553" transform="translate(20.263 14.12)" fill="#ccac00"/>
              <rect id="Rectángulo_66692-2" data-name="Rectángulo 66692" width="1.873" height="14.553" transform="translate(24.26 14.12)" fill="#ccac00"/>
              <path id="Trazado_210460-2" data-name="Trazado 210460" d="M29.768,46.3H4.6c-.394,0-.716-.439-.716-.975s.322-.974.716-.974H29.768c.394,0,.717.439.717.974s-.323.975-.717.975" transform="translate(-1.982 -14.818)" fill="#ccac00"/>
              <path id="Trazado_210461-2" data-name="Trazado 210461" d="M29.689,50.98H.717c-.394,0-.716-.438-.716-.974v0c0-.535.322-.974.716-.974H29.689c.394,0,.716.438.716.974v0c0,.535-.322.974-.716.974" transform="translate(-0.001 -16.383)" fill="#ccac00"/>
              <rect id="Rectángulo_66693-2" data-name="Rectángulo 66693" width="1.873" height="14.553" transform="translate(4.271 14.12)" fill="#ccac00"/>
              <rect id="Rectángulo_66694-2" data-name="Rectángulo 66694" width="1.873" height="14.553" transform="translate(8.269 14.12)" fill="#ccac00"/>
              <rect id="Rectángulo_66695-2" data-name="Rectángulo 66695" width="1.873" height="14.553" transform="translate(12.267 14.12)" fill="#ccac00"/>
              <path id="Trazado_210462-2" data-name="Trazado 210462" d="M17.818,0A.381.381,0,0,0,17.6.084L5.392,9.464c-.423.324-.253,1.2.232,1.2H17.818Z" transform="translate(-2.629 -0.001)" fill="#ccac00"/>
              <path id="Trazado_210463-2" data-name="Trazado 210463" d="M17.17,17.185H4.6c-.394,0-.717.439-.717.975s.323.974.717.974H17.17Z" transform="translate(-1.981 -5.742)" fill="#ccac00"/>
              <path id="Trazado_210464-2" data-name="Trazado 210464" d="M17.17,44.348H4.6c-.394,0-.717.439-.717.975s.323.974.717.974H17.17Z" transform="translate(-1.981 -14.818)" fill="#ccac00"/>
              <path id="Trazado_210465-2" data-name="Trazado 210465" d="M15.189,49.031H.716C.322,49.031,0,49.469,0,50v0c0,.535.322.974.716.974H15.189Z" transform="translate(0 -16.383)" fill="#ccac00"/>
            </g>
          </g>
          <g id="Grupo_213017" data-name="Grupo 213017" transform="translate(1305.421 9180.96)">
            <g id="Grupo_212972-3" data-name="Grupo 212972" transform="translate(0 0)" clip-path="url(#clip-path-5)">
              <path id="Trazado_210458-3" data-name="Trazado 210458" d="M17.6.083,5.392,9.464c-.423.324-.253,1.2.232,1.2H30.038c.485,0,.654-.876.232-1.2L18.063.083a.366.366,0,0,0-.464,0" transform="translate(-2.629 0)" fill="#ccac00"/>
              <path id="Trazado_210459-3" data-name="Trazado 210459" d="M29.768,19.134H4.6c-.394,0-.716-.439-.716-.975s.322-.974.716-.974H29.768c.394,0,.717.438.717.974s-.323.975-.717.975" transform="translate(-1.982 -5.742)" fill="#ccac00"/>
              <rect id="Rectángulo_66687-3" data-name="Rectángulo 66687" width="1.873" height="14.553" transform="translate(4.271 14.12)" fill="#ccac00"/>
              <rect id="Rectángulo_66688-3" data-name="Rectángulo 66688" width="1.873" height="14.553" transform="translate(8.269 14.12)" fill="#ccac00"/>
              <rect id="Rectángulo_66689-3" data-name="Rectángulo 66689" width="1.873" height="14.553" transform="translate(12.267 14.12)" fill="#ccac00"/>
              <rect id="Rectángulo_66690-3" data-name="Rectángulo 66690" width="1.873" height="14.553" transform="translate(16.265 14.12)" fill="#ccac00"/>
              <rect id="Rectángulo_66691-3" data-name="Rectángulo 66691" width="1.873" height="14.553" transform="translate(20.263 14.12)" fill="#ccac00"/>
              <rect id="Rectángulo_66692-3" data-name="Rectángulo 66692" width="1.873" height="14.553" transform="translate(24.26 14.12)" fill="#ccac00"/>
              <path id="Trazado_210460-3" data-name="Trazado 210460" d="M29.768,46.3H4.6c-.394,0-.716-.439-.716-.975s.322-.974.716-.974H29.768c.394,0,.717.439.717.974s-.323.975-.717.975" transform="translate(-1.982 -14.818)" fill="#ccac00"/>
              <path id="Trazado_210461-3" data-name="Trazado 210461" d="M29.689,50.98H.717c-.394,0-.716-.438-.716-.974v0c0-.535.322-.974.716-.974H29.689c.394,0,.716.438.716.974v0c0,.535-.322.974-.716.974" transform="translate(-0.001 -16.383)" fill="#ccac00"/>
              <rect id="Rectángulo_66693-3" data-name="Rectángulo 66693" width="1.873" height="14.553" transform="translate(4.271 14.12)" fill="#ccac00"/>
              <rect id="Rectángulo_66694-3" data-name="Rectángulo 66694" width="1.873" height="14.553" transform="translate(8.269 14.12)" fill="#ccac00"/>
              <rect id="Rectángulo_66695-3" data-name="Rectángulo 66695" width="1.873" height="14.553" transform="translate(12.267 14.12)" fill="#ccac00"/>
              <path id="Trazado_210462-3" data-name="Trazado 210462" d="M17.818,0A.381.381,0,0,0,17.6.084L5.392,9.464c-.423.324-.253,1.2.232,1.2H17.818Z" transform="translate(-2.629 -0.001)" fill="#ccac00"/>
              <path id="Trazado_210463-3" data-name="Trazado 210463" d="M17.17,17.185H4.6c-.394,0-.717.439-.717.975s.323.974.717.974H17.17Z" transform="translate(-1.981 -5.742)" fill="#ccac00"/>
              <path id="Trazado_210464-3" data-name="Trazado 210464" d="M17.17,44.348H4.6c-.394,0-.717.439-.717.975s.323.974.717.974H17.17Z" transform="translate(-1.981 -14.818)" fill="#ccac00"/>
              <path id="Trazado_210465-3" data-name="Trazado 210465" d="M15.189,49.031H.716C.322,49.031,0,49.469,0,50v0c0,.535.322.974.716.974H15.189Z" transform="translate(0 -16.383)" fill="#ccac00"/>
            </g>
          </g>
          <g id="Grupo_213018" data-name="Grupo 213018" transform="translate(1221.248 9265.481)">
            <g id="Grupo_212972-4" data-name="Grupo 212972" transform="translate(0 0)" clip-path="url(#clip-path-5)">
              <path id="Trazado_210458-4" data-name="Trazado 210458" d="M17.6.083,5.392,9.464c-.423.324-.253,1.2.232,1.2H30.038c.485,0,.654-.876.232-1.2L18.063.083a.366.366,0,0,0-.464,0" transform="translate(-2.629 0)" fill="#ccac00"/>
              <path id="Trazado_210459-4" data-name="Trazado 210459" d="M29.768,19.134H4.6c-.394,0-.716-.439-.716-.975s.322-.974.716-.974H29.768c.394,0,.717.438.717.974s-.323.975-.717.975" transform="translate(-1.982 -5.742)" fill="#ccac00"/>
              <rect id="Rectángulo_66687-4" data-name="Rectángulo 66687" width="1.873" height="14.553" transform="translate(4.271 14.12)" fill="#ccac00"/>
              <rect id="Rectángulo_66688-4" data-name="Rectángulo 66688" width="1.873" height="14.553" transform="translate(8.269 14.12)" fill="#ccac00"/>
              <rect id="Rectángulo_66689-4" data-name="Rectángulo 66689" width="1.873" height="14.553" transform="translate(12.267 14.12)" fill="#ccac00"/>
              <rect id="Rectángulo_66690-4" data-name="Rectángulo 66690" width="1.873" height="14.553" transform="translate(16.265 14.12)" fill="#ccac00"/>
              <rect id="Rectángulo_66691-4" data-name="Rectángulo 66691" width="1.873" height="14.553" transform="translate(20.263 14.12)" fill="#ccac00"/>
              <rect id="Rectángulo_66692-4" data-name="Rectángulo 66692" width="1.873" height="14.553" transform="translate(24.26 14.12)" fill="#ccac00"/>
              <path id="Trazado_210460-4" data-name="Trazado 210460" d="M29.768,46.3H4.6c-.394,0-.716-.439-.716-.975s.322-.974.716-.974H29.768c.394,0,.717.439.717.974s-.323.975-.717.975" transform="translate(-1.982 -14.818)" fill="#ccac00"/>
              <path id="Trazado_210461-4" data-name="Trazado 210461" d="M29.689,50.98H.717c-.394,0-.716-.438-.716-.974v0c0-.535.322-.974.716-.974H29.689c.394,0,.716.438.716.974v0c0,.535-.322.974-.716.974" transform="translate(-0.001 -16.383)" fill="#ccac00"/>
              <rect id="Rectángulo_66693-4" data-name="Rectángulo 66693" width="1.873" height="14.553" transform="translate(4.271 14.12)" fill="#ccac00"/>
              <rect id="Rectángulo_66694-4" data-name="Rectángulo 66694" width="1.873" height="14.553" transform="translate(8.269 14.12)" fill="#ccac00"/>
              <rect id="Rectángulo_66695-4" data-name="Rectángulo 66695" width="1.873" height="14.553" transform="translate(12.267 14.12)" fill="#ccac00"/>
              <path id="Trazado_210462-4" data-name="Trazado 210462" d="M17.818,0A.381.381,0,0,0,17.6.084L5.392,9.464c-.423.324-.253,1.2.232,1.2H17.818Z" transform="translate(-2.629 -0.001)" fill="#ccac00"/>
              <path id="Trazado_210463-4" data-name="Trazado 210463" d="M17.17,17.185H4.6c-.394,0-.717.439-.717.975s.323.974.717.974H17.17Z" transform="translate(-1.981 -5.742)" fill="#ccac00"/>
              <path id="Trazado_210464-4" data-name="Trazado 210464" d="M17.17,44.348H4.6c-.394,0-.717.439-.717.975s.323.974.717.974H17.17Z" transform="translate(-1.981 -14.818)" fill="#ccac00"/>
              <path id="Trazado_210465-4" data-name="Trazado 210465" d="M15.189,49.031H.716C.322,49.031,0,49.469,0,50v0c0,.535.322.974.716.974H15.189Z" transform="translate(0 -16.383)" fill="#ccac00"/>
            </g>
          </g>
        </g>
      </g>
      <g id="Rectángulo_66709" data-name="Rectángulo 66709" transform="translate(-5733.694 -1761)" fill="none" stroke="#f08e35" stroke-width="1">
        <rect width="126" height="53" stroke="none"/>
        <rect x="0.5" y="0.5" width="125" height="52" fill="none"/>
      </g>
      <g id="Rectángulo_66711" data-name="Rectángulo 66711" transform="translate(-5388.694 -1777)" fill="none" stroke="#f08e35" stroke-width="1">
        <rect width="126" height="77" stroke="none"/>
        <rect x="0.5" y="0.5" width="125" height="76" fill="none"/>
      </g>
      <g id="Rectángulo_66710" data-name="Rectángulo 66710" transform="translate(-5733.694 -1963)" fill="none" stroke="#f08e35" stroke-width="1">
        <rect width="126" height="53" stroke="none"/>
        <rect x="0.5" y="0.5" width="125" height="52" fill="none"/>
      </g>
      <g id="Rectángulo_66707" data-name="Rectángulo 66707" transform="translate(-5406.694 -1963)" fill="none" stroke="#f08e35" stroke-width="1">
        <rect width="106" height="30" stroke="none"/>
        <rect x="0.5" y="0.5" width="105" height="29" fill="none"/>
      </g>
      <path id="Trazado_217323" data-name="Trazado 217323" d="M27.66,5.625l3.719,9.281L35.1,5.625h1.945V17h-1.5V12.57l.141-4.781L31.949,17H30.8L27.074,7.813l.148,4.758V17h-1.5V5.625ZM39.082,12.7a4.993,4.993,0,0,1,.488-2.234A3.643,3.643,0,0,1,40.93,8.93a3.7,3.7,0,0,1,1.988-.539,3.565,3.565,0,0,1,2.793,1.2,4.6,4.6,0,0,1,1.066,3.18v.1a5.036,5.036,0,0,1-.473,2.215,3.589,3.589,0,0,1-1.352,1.527,3.743,3.743,0,0,1-2.02.547,3.556,3.556,0,0,1-2.785-1.2A4.575,4.575,0,0,1,39.082,12.8Zm1.453.172a3.616,3.616,0,0,0,.652,2.258,2.211,2.211,0,0,0,3.5-.012,3.955,3.955,0,0,0,.648-2.418,3.61,3.61,0,0,0-.66-2.254,2.1,2.1,0,0,0-1.754-.863,2.075,2.075,0,0,0-1.727.852A3.925,3.925,0,0,0,40.535,12.867ZM43.574,5h1.75L43.23,7.3l-1.164,0Zm4.664,7.7a4.952,4.952,0,0,1,.922-3.129,3.137,3.137,0,0,1,4.766-.168V5h1.445V17H54.043l-.07-.906a2.943,2.943,0,0,1-2.414,1.063,2.887,2.887,0,0,1-2.395-1.2,5.008,5.008,0,0,1-.926-3.141Zm1.445.164a3.749,3.749,0,0,0,.594,2.25,1.92,1.92,0,0,0,1.641.813A2.108,2.108,0,0,0,53.926,14.7V10.813a2.125,2.125,0,0,0-1.992-1.2,1.929,1.929,0,0,0-1.656.82A4.128,4.128,0,0,0,49.684,12.867Zm13.148,3.3a3.07,3.07,0,0,1-2.477.992,2.628,2.628,0,0,1-2.059-.785,3.4,3.4,0,0,1-.715-2.324v-5.5h1.445v5.461q0,1.922,1.563,1.922a2.163,2.163,0,0,0,2.2-1.234V8.547h1.445V17H62.863ZM68,17H66.559V5H68Zm1.93-4.3a4.993,4.993,0,0,1,.488-2.234A3.643,3.643,0,0,1,71.781,8.93a3.7,3.7,0,0,1,1.988-.539,3.565,3.565,0,0,1,2.793,1.2,4.6,4.6,0,0,1,1.066,3.18v.1a5.036,5.036,0,0,1-.473,2.215A3.589,3.589,0,0,1,75.8,16.609a3.743,3.743,0,0,1-2.02.547A3.556,3.556,0,0,1,71,15.961,4.575,4.575,0,0,1,69.934,12.8Zm1.453.172a3.616,3.616,0,0,0,.652,2.258,2.211,2.211,0,0,0,3.5-.012,3.955,3.955,0,0,0,.648-2.418,3.61,3.61,0,0,0-.66-2.254,2.1,2.1,0,0,0-1.754-.863,2.075,2.075,0,0,0-1.727.852A3.925,3.925,0,0,0,71.387,12.867Zm12.977,1.891a1.064,1.064,0,0,0-.441-.91,4.249,4.249,0,0,0-1.539-.559,7.277,7.277,0,0,1-1.742-.562,2.479,2.479,0,0,1-.953-.781,1.869,1.869,0,0,1-.309-1.078,2.193,2.193,0,0,1,.879-1.758A3.432,3.432,0,0,1,82.5,8.391a3.532,3.532,0,0,1,2.332.742,2.357,2.357,0,0,1,.895,1.9H84.277a1.3,1.3,0,0,0-.5-1.023,1.888,1.888,0,0,0-1.27-.43,1.976,1.976,0,0,0-1.234.344,1.082,1.082,0,0,0-.445.9.877.877,0,0,0,.414.789,5.1,5.1,0,0,0,1.5.508,7.8,7.8,0,0,1,1.754.578,2.558,2.558,0,0,1,1,.809,1.988,1.988,0,0,1,.324,1.152,2.163,2.163,0,0,1-.906,1.816,3.8,3.8,0,0,1-2.352.684,4.257,4.257,0,0,1-1.8-.359,2.922,2.922,0,0,1-1.223-1A2.42,2.42,0,0,1,79.09,14.4h1.445a1.5,1.5,0,0,0,.582,1.152,2.258,2.258,0,0,0,1.434.426,2.331,2.331,0,0,0,1.316-.332A1.02,1.02,0,0,0,84.363,14.758ZM33.59,36.867a5.062,5.062,0,0,1-.883,3.109,2.829,2.829,0,0,1-2.391,1.18,3.1,3.1,0,0,1-2.422-.977v4.07H26.449v-11.7h1.32l.07.938a2.977,2.977,0,0,1,2.453-1.094,2.882,2.882,0,0,1,2.41,1.148,5.117,5.117,0,0,1,.887,3.2ZM32.145,36.7a3.735,3.735,0,0,0-.609-2.258,1.963,1.963,0,0,0-1.672-.828,2.125,2.125,0,0,0-1.969,1.164V38.82a2.129,2.129,0,0,0,1.984,1.156,1.954,1.954,0,0,0,1.652-.824A4.077,4.077,0,0,0,32.145,36.7Zm8.5,3.461a3.07,3.07,0,0,1-2.477.992,2.628,2.628,0,0,1-2.059-.785,3.4,3.4,0,0,1-.715-2.324v-5.5H36.84v5.461q0,1.922,1.563,1.922a2.163,2.163,0,0,0,2.2-1.234V32.547h1.445V41H40.676ZM39.473,29h1.75l-2.094,2.3-1.164,0ZM51.4,36.867a5.026,5.026,0,0,1-.891,3.113,2.846,2.846,0,0,1-2.391,1.176,2.947,2.947,0,0,1-2.477-1.133l-.07.977H44.246V29h1.445v4.477a2.93,2.93,0,0,1,2.414-1.086,2.863,2.863,0,0,1,2.418,1.164,5.177,5.177,0,0,1,.879,3.188ZM49.957,36.7a3.906,3.906,0,0,0-.57-2.281,1.888,1.888,0,0,0-1.641-.8,2.122,2.122,0,0,0-2.055,1.328V38.6a2.181,2.181,0,0,0,2.07,1.328,1.878,1.878,0,0,0,1.617-.8A4.153,4.153,0,0,0,49.957,36.7ZM54.793,41H53.348V29h1.445Zm3.883,0H57.23V32.547h1.445ZM57.113,30.3a.863.863,0,0,1,.215-.594.807.807,0,0,1,.637-.242.819.819,0,0,1,.641.242.854.854,0,0,1,.219.594.826.826,0,0,1-.219.586.834.834,0,0,1-.641.234.821.821,0,0,1-.637-.234A.834.834,0,0,1,57.113,30.3Zm7.266,9.672a2.082,2.082,0,0,0,1.352-.469,1.649,1.649,0,0,0,.641-1.172h1.367a2.621,2.621,0,0,1-.5,1.383,3.293,3.293,0,0,1-1.23,1.047,3.55,3.55,0,0,1-1.629.391A3.482,3.482,0,0,1,61.633,40a4.59,4.59,0,0,1-1.02-3.152v-.242a5.089,5.089,0,0,1,.453-2.2,3.451,3.451,0,0,1,1.3-1.492,3.7,3.7,0,0,1,2-.531,3.39,3.39,0,0,1,2.363.852,3.043,3.043,0,0,1,1,2.211H66.371a1.992,1.992,0,0,0-.621-1.348,1.932,1.932,0,0,0-1.379-.527,2.023,2.023,0,0,0-1.707.793,3.724,3.724,0,0,0-.605,2.293v.273a3.65,3.65,0,0,0,.6,2.25A2.033,2.033,0,0,0,64.379,39.977Zm4.6-3.281a4.993,4.993,0,0,1,.488-2.234,3.643,3.643,0,0,1,1.359-1.531,3.7,3.7,0,0,1,1.988-.539,3.565,3.565,0,0,1,2.793,1.2,4.6,4.6,0,0,1,1.066,3.18v.1a5.036,5.036,0,0,1-.473,2.215,3.589,3.589,0,0,1-1.352,1.527,3.743,3.743,0,0,1-2.02.547,3.556,3.556,0,0,1-2.785-1.2A4.575,4.575,0,0,1,68.98,36.8Zm1.453.172a3.616,3.616,0,0,0,.652,2.258,2.211,2.211,0,0,0,3.5-.012A3.955,3.955,0,0,0,75.23,36.7a3.61,3.61,0,0,0-.66-2.254,2.1,2.1,0,0,0-1.754-.863,2.075,2.075,0,0,0-1.727.852A3.925,3.925,0,0,0,70.434,36.867ZM83.41,38.758a1.064,1.064,0,0,0-.441-.91,4.249,4.249,0,0,0-1.539-.559,7.277,7.277,0,0,1-1.742-.562,2.479,2.479,0,0,1-.953-.781,1.869,1.869,0,0,1-.309-1.078,2.193,2.193,0,0,1,.879-1.758,3.432,3.432,0,0,1,2.246-.719,3.532,3.532,0,0,1,2.332.742,2.357,2.357,0,0,1,.895,1.9H83.324a1.3,1.3,0,0,0-.5-1.023,1.888,1.888,0,0,0-1.27-.43,1.976,1.976,0,0,0-1.234.344,1.082,1.082,0,0,0-.445.9.877.877,0,0,0,.414.789,5.1,5.1,0,0,0,1.5.508,7.8,7.8,0,0,1,1.754.578,2.558,2.558,0,0,1,1,.809,1.988,1.988,0,0,1,.324,1.152,2.163,2.163,0,0,1-.906,1.816,3.8,3.8,0,0,1-2.352.684,4.257,4.257,0,0,1-1.8-.359,2.922,2.922,0,0,1-1.223-1,2.42,2.42,0,0,1-.441-1.395h1.445a1.5,1.5,0,0,0,.582,1.152,2.258,2.258,0,0,0,1.434.426,2.331,2.331,0,0,0,1.316-.332A1.02,1.02,0,0,0,83.41,38.758Z" transform="translate(-5725.694 -1756)" fill="#12263f"/>
      <path id="Trazado_217322" data-name="Trazado 217322" d="M27.66,5.625l3.719,9.281L35.1,5.625h1.945V17h-1.5V12.57l.141-4.781L31.949,17H30.8L27.074,7.813l.148,4.758V17h-1.5V5.625ZM39.082,12.7a4.993,4.993,0,0,1,.488-2.234A3.643,3.643,0,0,1,40.93,8.93a3.7,3.7,0,0,1,1.988-.539,3.565,3.565,0,0,1,2.793,1.2,4.6,4.6,0,0,1,1.066,3.18v.1a5.036,5.036,0,0,1-.473,2.215,3.589,3.589,0,0,1-1.352,1.527,3.743,3.743,0,0,1-2.02.547,3.556,3.556,0,0,1-2.785-1.2A4.575,4.575,0,0,1,39.082,12.8Zm1.453.172a3.616,3.616,0,0,0,.652,2.258,2.211,2.211,0,0,0,3.5-.012,3.955,3.955,0,0,0,.648-2.418,3.61,3.61,0,0,0-.66-2.254,2.1,2.1,0,0,0-1.754-.863,2.075,2.075,0,0,0-1.727.852A3.925,3.925,0,0,0,40.535,12.867ZM43.574,5h1.75L43.23,7.3l-1.164,0Zm4.664,7.7a4.952,4.952,0,0,1,.922-3.129,3.137,3.137,0,0,1,4.766-.168V5h1.445V17H54.043l-.07-.906a2.943,2.943,0,0,1-2.414,1.063,2.887,2.887,0,0,1-2.395-1.2,5.008,5.008,0,0,1-.926-3.141Zm1.445.164a3.749,3.749,0,0,0,.594,2.25,1.92,1.92,0,0,0,1.641.813A2.108,2.108,0,0,0,53.926,14.7V10.813a2.125,2.125,0,0,0-1.992-1.2,1.929,1.929,0,0,0-1.656.82A4.128,4.128,0,0,0,49.684,12.867Zm13.148,3.3a3.07,3.07,0,0,1-2.477.992,2.628,2.628,0,0,1-2.059-.785,3.4,3.4,0,0,1-.715-2.324v-5.5h1.445v5.461q0,1.922,1.563,1.922a2.163,2.163,0,0,0,2.2-1.234V8.547h1.445V17H62.863ZM68,17H66.559V5H68Zm1.93-4.3a4.993,4.993,0,0,1,.488-2.234A3.643,3.643,0,0,1,71.781,8.93a3.7,3.7,0,0,1,1.988-.539,3.565,3.565,0,0,1,2.793,1.2,4.6,4.6,0,0,1,1.066,3.18v.1a5.036,5.036,0,0,1-.473,2.215A3.589,3.589,0,0,1,75.8,16.609a3.743,3.743,0,0,1-2.02.547A3.556,3.556,0,0,1,71,15.961,4.575,4.575,0,0,1,69.934,12.8Zm1.453.172a3.616,3.616,0,0,0,.652,2.258,2.211,2.211,0,0,0,3.5-.012,3.955,3.955,0,0,0,.648-2.418,3.61,3.61,0,0,0-.66-2.254,2.1,2.1,0,0,0-1.754-.863,2.075,2.075,0,0,0-1.727.852A3.925,3.925,0,0,0,71.387,12.867Zm12.977,1.891a1.064,1.064,0,0,0-.441-.91,4.249,4.249,0,0,0-1.539-.559,7.277,7.277,0,0,1-1.742-.562,2.479,2.479,0,0,1-.953-.781,1.869,1.869,0,0,1-.309-1.078,2.193,2.193,0,0,1,.879-1.758A3.432,3.432,0,0,1,82.5,8.391a3.532,3.532,0,0,1,2.332.742,2.357,2.357,0,0,1,.895,1.9H84.277a1.3,1.3,0,0,0-.5-1.023,1.888,1.888,0,0,0-1.27-.43,1.976,1.976,0,0,0-1.234.344,1.082,1.082,0,0,0-.445.9.877.877,0,0,0,.414.789,5.1,5.1,0,0,0,1.5.508,7.8,7.8,0,0,1,1.754.578,2.558,2.558,0,0,1,1,.809,1.988,1.988,0,0,1,.324,1.152,2.163,2.163,0,0,1-.906,1.816,3.8,3.8,0,0,1-2.352.684,4.257,4.257,0,0,1-1.8-.359,2.922,2.922,0,0,1-1.223-1A2.42,2.42,0,0,1,79.09,14.4h1.445a1.5,1.5,0,0,0,.582,1.152,2.258,2.258,0,0,0,1.434.426,2.331,2.331,0,0,0,1.316-.332A1.02,1.02,0,0,0,84.363,14.758ZM10.031,33.844a4.331,4.331,0,0,0-.711-.055A1.9,1.9,0,0,0,7.391,35v6H5.945V32.547H7.352l.023.977a2.251,2.251,0,0,1,2.016-1.133,1.477,1.477,0,0,1,.641.109Zm4.836,7.313a3.693,3.693,0,0,1-2.8-1.129,4.19,4.19,0,0,1-1.078-3.02v-.266a5.073,5.073,0,0,1,.48-2.246,3.748,3.748,0,0,1,1.344-1.547,3.378,3.378,0,0,1,1.871-.559,3.166,3.166,0,0,1,2.563,1.086,4.7,4.7,0,0,1,.914,3.109v.6H12.438a3,3,0,0,0,.73,2.02,2.3,2.3,0,0,0,1.777.77,2.517,2.517,0,0,0,1.3-.312,3.259,3.259,0,0,0,.93-.828l.883.688A3.55,3.55,0,0,1,14.867,41.156Zm-.18-7.578a1.928,1.928,0,0,0-1.469.637A3.1,3.1,0,0,0,12.484,36h4.234v-.109a2.753,2.753,0,0,0-.594-1.707A1.815,1.815,0,0,0,14.688,33.578Zm10.07,5.18a1.064,1.064,0,0,0-.441-.91,4.249,4.249,0,0,0-1.539-.559,7.277,7.277,0,0,1-1.742-.562,2.479,2.479,0,0,1-.953-.781,1.869,1.869,0,0,1-.309-1.078,2.193,2.193,0,0,1,.879-1.758,3.432,3.432,0,0,1,2.246-.719,3.532,3.532,0,0,1,2.332.742,2.357,2.357,0,0,1,.895,1.9H24.672a1.3,1.3,0,0,0-.5-1.023,1.888,1.888,0,0,0-1.27-.43,1.976,1.976,0,0,0-1.234.344,1.082,1.082,0,0,0-.445.9.877.877,0,0,0,.414.789,5.1,5.1,0,0,0,1.5.508,7.8,7.8,0,0,1,1.754.578,2.558,2.558,0,0,1,1,.809,1.988,1.988,0,0,1,.324,1.152,2.163,2.163,0,0,1-.906,1.816,3.8,3.8,0,0,1-2.352.684,4.257,4.257,0,0,1-1.8-.359,2.922,2.922,0,0,1-1.223-1,2.42,2.42,0,0,1-.441-1.395H20.93a1.5,1.5,0,0,0,.582,1.152,2.258,2.258,0,0,0,1.434.426,2.331,2.331,0,0,0,1.316-.332A1.02,1.02,0,0,0,24.758,38.758ZM30.047,30.5v2.047h1.578v1.117H30.047v5.249a1.173,1.173,0,0,0,.211.763.888.888,0,0,0,.719.254,3.5,3.5,0,0,0,.688-.094V41a4.215,4.215,0,0,1-1.109.155,1.8,1.8,0,0,1-1.461-.586,2.517,2.517,0,0,1-.492-1.664V33.664H27.063V32.547H28.6V30.5ZM37.4,33.844a4.331,4.331,0,0,0-.711-.055A1.9,1.9,0,0,0,34.758,35v6H33.313V32.547h1.406l.023.977a2.251,2.251,0,0,1,2.016-1.133,1.477,1.477,0,0,1,.641.109ZM40.3,41H38.852V32.547H40.3ZM38.734,30.3a.863.863,0,0,1,.215-.594.807.807,0,0,1,.637-.242.819.819,0,0,1,.641.242.854.854,0,0,1,.219.594.826.826,0,0,1-.219.586.834.834,0,0,1-.641.234.821.821,0,0,1-.637-.234A.834.834,0,0,1,38.734,30.3Zm5.242,2.242.047,1.063a3.08,3.08,0,0,1,2.531-1.219q2.68,0,2.7,3.023V41H47.813V35.406a1.946,1.946,0,0,0-.418-1.352,1.675,1.675,0,0,0-1.277-.437,2.086,2.086,0,0,0-1.234.375,2.546,2.546,0,0,0-.828.984V41H42.609V32.547ZM51.094,36.7a4.968,4.968,0,0,1,.914-3.145,3.151,3.151,0,0,1,4.836-.074l.07-.937h1.32V40.8a3.439,3.439,0,0,1-.973,2.586,3.589,3.589,0,0,1-2.613.945,4.348,4.348,0,0,1-1.789-.391,3.08,3.08,0,0,1-1.336-1.07l.75-.867a2.826,2.826,0,0,0,2.273,1.148,2.214,2.214,0,0,0,1.645-.594,2.269,2.269,0,0,0,.59-1.672v-.727a2.971,2.971,0,0,1-2.367,1,2.887,2.887,0,0,1-2.4-1.2A5.224,5.224,0,0,1,51.094,36.7Zm1.453.164a3.79,3.79,0,0,0,.586,2.246,1.9,1.9,0,0,0,1.641.816,2.117,2.117,0,0,0,2.008-1.242V34.828a2.142,2.142,0,0,0-1.992-1.211,1.921,1.921,0,0,0-1.648.82A4.128,4.128,0,0,0,52.547,36.867ZM61.984,41H60.539V32.547h1.445ZM60.422,30.3a.863.863,0,0,1,.215-.594.807.807,0,0,1,.637-.242.819.819,0,0,1,.641.242.854.854,0,0,1,.219.594.826.826,0,0,1-.219.586.834.834,0,0,1-.641.234.821.821,0,0,1-.637-.234A.834.834,0,0,1,60.422,30.3Zm3.523,6.4a4.952,4.952,0,0,1,.922-3.129,3.137,3.137,0,0,1,4.766-.168V29h1.445V41H69.75l-.07-.906a2.943,2.943,0,0,1-2.414,1.063,2.887,2.887,0,0,1-2.395-1.2,5.008,5.008,0,0,1-.926-3.141Zm1.445.164a3.749,3.749,0,0,0,.594,2.25,1.92,1.92,0,0,0,1.641.813A2.108,2.108,0,0,0,69.633,38.7V34.813a2.125,2.125,0,0,0-1.992-1.2,1.929,1.929,0,0,0-1.656.82A4.128,4.128,0,0,0,65.391,36.867Zm7.547-.172a4.993,4.993,0,0,1,.488-2.234,3.643,3.643,0,0,1,1.359-1.531,3.7,3.7,0,0,1,1.988-.539,3.565,3.565,0,0,1,2.793,1.2,4.6,4.6,0,0,1,1.066,3.18v.1a5.036,5.036,0,0,1-.473,2.215,3.589,3.589,0,0,1-1.352,1.527,3.743,3.743,0,0,1-2.02.547A3.556,3.556,0,0,1,74,39.961,4.575,4.575,0,0,1,72.938,36.8Zm1.453.172a3.616,3.616,0,0,0,.652,2.258,2.211,2.211,0,0,0,3.5-.012,3.955,3.955,0,0,0,.648-2.418,3.61,3.61,0,0,0-.66-2.254,2.1,2.1,0,0,0-1.754-.863,2.075,2.075,0,0,0-1.727.852A3.925,3.925,0,0,0,74.391,36.867Zm12.977,1.891a1.064,1.064,0,0,0-.441-.91,4.249,4.249,0,0,0-1.539-.559,7.277,7.277,0,0,1-1.742-.562,2.479,2.479,0,0,1-.953-.781,1.869,1.869,0,0,1-.309-1.078,2.193,2.193,0,0,1,.879-1.758,3.432,3.432,0,0,1,2.246-.719,3.532,3.532,0,0,1,2.332.742,2.357,2.357,0,0,1,.895,1.9H87.281a1.3,1.3,0,0,0-.5-1.023,1.888,1.888,0,0,0-1.27-.43,1.976,1.976,0,0,0-1.234.344,1.082,1.082,0,0,0-.445.9.877.877,0,0,0,.414.789,5.1,5.1,0,0,0,1.5.508,7.8,7.8,0,0,1,1.754.578,2.558,2.558,0,0,1,1,.809,1.988,1.988,0,0,1,.324,1.152,2.163,2.163,0,0,1-.906,1.816,3.8,3.8,0,0,1-2.352.684,4.257,4.257,0,0,1-1.8-.359,2.922,2.922,0,0,1-1.223-1,2.42,2.42,0,0,1-.441-1.395h1.445a1.5,1.5,0,0,0,.582,1.152,2.258,2.258,0,0,0,1.434.426,2.331,2.331,0,0,0,1.316-.332A1.02,1.02,0,0,0,87.367,38.758ZM99.875,41a3.036,3.036,0,0,1-.2-.891,3.225,3.225,0,0,1-2.406,1.047,2.984,2.984,0,0,1-2.051-.707,2.288,2.288,0,0,1-.8-1.793,2.39,2.39,0,0,1,1-2.051,4.733,4.733,0,0,1,2.824-.73h1.406v-.664A1.623,1.623,0,0,0,99.2,34a1.821,1.821,0,0,0-1.336-.449,2.107,2.107,0,0,0-1.3.391,1.151,1.151,0,0,0-.523.945H94.586a2,2,0,0,1,.449-1.223,3.066,3.066,0,0,1,1.219-.934,4.1,4.1,0,0,1,1.691-.344,3.342,3.342,0,0,1,2.289.73,2.635,2.635,0,0,1,.859,2.012v3.891a4.757,4.757,0,0,0,.3,1.852V41Zm-2.4-1.1a2.54,2.54,0,0,0,1.289-.352,2.127,2.127,0,0,0,.883-.914V36.9H98.516q-2.656,0-2.656,1.555a1.316,1.316,0,0,0,.453,1.063A1.742,1.742,0,0,0,97.477,39.9ZM104.93,41h-1.445V29h1.445ZM37.715,60.867a5.062,5.062,0,0,1-.883,3.109,2.829,2.829,0,0,1-2.391,1.18,3.1,3.1,0,0,1-2.422-.977v4.07H30.574v-11.7h1.32l.07.938a2.977,2.977,0,0,1,2.453-1.094,2.882,2.882,0,0,1,2.41,1.148,5.117,5.117,0,0,1,.887,3.2ZM36.27,60.7a3.735,3.735,0,0,0-.609-2.258,1.963,1.963,0,0,0-1.672-.828,2.125,2.125,0,0,0-1.969,1.164V62.82A2.129,2.129,0,0,0,34,63.977a1.954,1.954,0,0,0,1.652-.824A4.077,4.077,0,0,0,36.27,60.7Zm8.5,3.461a3.07,3.07,0,0,1-2.477.992,2.628,2.628,0,0,1-2.059-.785,3.4,3.4,0,0,1-.715-2.324v-5.5h1.445v5.461q0,1.922,1.563,1.922a2.163,2.163,0,0,0,2.2-1.234V56.547h1.445V65H44.8ZM43.6,53h1.75l-2.094,2.3-1.164,0Zm11.93,7.867a5.026,5.026,0,0,1-.891,3.113,2.846,2.846,0,0,1-2.391,1.176,2.947,2.947,0,0,1-2.477-1.133L49.7,65H48.371V53h1.445v4.477a2.93,2.93,0,0,1,2.414-1.086,2.863,2.863,0,0,1,2.418,1.164,5.177,5.177,0,0,1,.879,3.188ZM54.082,60.7a3.906,3.906,0,0,0-.57-2.281,1.888,1.888,0,0,0-1.641-.8,2.122,2.122,0,0,0-2.055,1.328V62.6a2.181,2.181,0,0,0,2.07,1.328,1.878,1.878,0,0,0,1.617-.8A4.153,4.153,0,0,0,54.082,60.7ZM58.918,65H57.473V53h1.445ZM62.8,65H61.355V56.547H62.8ZM61.238,54.3a.863.863,0,0,1,.215-.594.807.807,0,0,1,.637-.242.819.819,0,0,1,.641.242.854.854,0,0,1,.219.594.826.826,0,0,1-.219.586.834.834,0,0,1-.641.234.821.821,0,0,1-.637-.234A.834.834,0,0,1,61.238,54.3ZM68.5,63.977a2.082,2.082,0,0,0,1.352-.469,1.649,1.649,0,0,0,.641-1.172h1.367a2.621,2.621,0,0,1-.5,1.383,3.293,3.293,0,0,1-1.23,1.047,3.55,3.55,0,0,1-1.629.391A3.482,3.482,0,0,1,65.758,64a4.59,4.59,0,0,1-1.02-3.152v-.242a5.089,5.089,0,0,1,.453-2.2,3.451,3.451,0,0,1,1.3-1.492,3.7,3.7,0,0,1,2-.531,3.39,3.39,0,0,1,2.363.852,3.043,3.043,0,0,1,1,2.211H70.5a1.992,1.992,0,0,0-.621-1.348,1.932,1.932,0,0,0-1.379-.527,2.023,2.023,0,0,0-1.707.793,3.724,3.724,0,0,0-.605,2.293v.273a3.65,3.65,0,0,0,.6,2.25A2.033,2.033,0,0,0,68.5,63.977Zm4.6-3.281a4.993,4.993,0,0,1,.488-2.234,3.643,3.643,0,0,1,1.359-1.531,3.7,3.7,0,0,1,1.988-.539,3.565,3.565,0,0,1,2.793,1.2,4.6,4.6,0,0,1,1.066,3.18v.1a5.036,5.036,0,0,1-.473,2.215,3.589,3.589,0,0,1-1.352,1.527,3.743,3.743,0,0,1-2.02.547,3.556,3.556,0,0,1-2.785-1.2A4.575,4.575,0,0,1,73.105,60.8Zm1.453.172a3.616,3.616,0,0,0,.652,2.258,2.211,2.211,0,0,0,3.5-.012,3.955,3.955,0,0,0,.648-2.418,3.61,3.61,0,0,0-.66-2.254,2.1,2.1,0,0,0-1.754-.863,2.075,2.075,0,0,0-1.727.852A3.925,3.925,0,0,0,74.559,60.867Z" transform="translate(-5380.694 -1772)" fill="#12263f"/>
      <path id="Trazado_217320" data-name="Trazado 217320" d="M27.66,5.625l3.719,9.281L35.1,5.625h1.945V17h-1.5V12.57l.141-4.781L31.949,17H30.8L27.074,7.813l.148,4.758V17h-1.5V5.625ZM39.082,12.7a4.993,4.993,0,0,1,.488-2.234A3.643,3.643,0,0,1,40.93,8.93a3.7,3.7,0,0,1,1.988-.539,3.565,3.565,0,0,1,2.793,1.2,4.6,4.6,0,0,1,1.066,3.18v.1a5.036,5.036,0,0,1-.473,2.215,3.589,3.589,0,0,1-1.352,1.527,3.743,3.743,0,0,1-2.02.547,3.556,3.556,0,0,1-2.785-1.2A4.575,4.575,0,0,1,39.082,12.8Zm1.453.172a3.616,3.616,0,0,0,.652,2.258,2.211,2.211,0,0,0,3.5-.012,3.955,3.955,0,0,0,.648-2.418,3.61,3.61,0,0,0-.66-2.254,2.1,2.1,0,0,0-1.754-.863,2.075,2.075,0,0,0-1.727.852A3.925,3.925,0,0,0,40.535,12.867ZM43.574,5h1.75L43.23,7.3l-1.164,0Zm4.664,7.7a4.952,4.952,0,0,1,.922-3.129,3.137,3.137,0,0,1,4.766-.168V5h1.445V17H54.043l-.07-.906a2.943,2.943,0,0,1-2.414,1.063,2.887,2.887,0,0,1-2.395-1.2,5.008,5.008,0,0,1-.926-3.141Zm1.445.164a3.749,3.749,0,0,0,.594,2.25,1.92,1.92,0,0,0,1.641.813A2.108,2.108,0,0,0,53.926,14.7V10.813a2.125,2.125,0,0,0-1.992-1.2,1.929,1.929,0,0,0-1.656.82A4.128,4.128,0,0,0,49.684,12.867Zm13.148,3.3a3.07,3.07,0,0,1-2.477.992,2.628,2.628,0,0,1-2.059-.785,3.4,3.4,0,0,1-.715-2.324v-5.5h1.445v5.461q0,1.922,1.563,1.922a2.163,2.163,0,0,0,2.2-1.234V8.547h1.445V17H62.863ZM68,17H66.559V5H68Zm1.93-4.3a4.993,4.993,0,0,1,.488-2.234A3.643,3.643,0,0,1,71.781,8.93a3.7,3.7,0,0,1,1.988-.539,3.565,3.565,0,0,1,2.793,1.2,4.6,4.6,0,0,1,1.066,3.18v.1a5.036,5.036,0,0,1-.473,2.215A3.589,3.589,0,0,1,75.8,16.609a3.743,3.743,0,0,1-2.02.547A3.556,3.556,0,0,1,71,15.961,4.575,4.575,0,0,1,69.934,12.8Zm1.453.172a3.616,3.616,0,0,0,.652,2.258,2.211,2.211,0,0,0,3.5-.012,3.955,3.955,0,0,0,.648-2.418,3.61,3.61,0,0,0-.66-2.254,2.1,2.1,0,0,0-1.754-.863,2.075,2.075,0,0,0-1.727.852A3.925,3.925,0,0,0,71.387,12.867Zm12.977,1.891a1.064,1.064,0,0,0-.441-.91,4.249,4.249,0,0,0-1.539-.559,7.277,7.277,0,0,1-1.742-.562,2.479,2.479,0,0,1-.953-.781,1.869,1.869,0,0,1-.309-1.078,2.193,2.193,0,0,1,.879-1.758A3.432,3.432,0,0,1,82.5,8.391a3.532,3.532,0,0,1,2.332.742,2.357,2.357,0,0,1,.895,1.9H84.277a1.3,1.3,0,0,0-.5-1.023,1.888,1.888,0,0,0-1.27-.43,1.976,1.976,0,0,0-1.234.344,1.082,1.082,0,0,0-.445.9.877.877,0,0,0,.414.789,5.1,5.1,0,0,0,1.5.508,7.8,7.8,0,0,1,1.754.578,2.558,2.558,0,0,1,1,.809,1.988,1.988,0,0,1,.324,1.152,2.163,2.163,0,0,1-.906,1.816,3.8,3.8,0,0,1-2.352.684,4.257,4.257,0,0,1-1.8-.359,2.922,2.922,0,0,1-1.223-1A2.42,2.42,0,0,1,79.09,14.4h1.445a1.5,1.5,0,0,0,.582,1.152,2.258,2.258,0,0,0,1.434.426,2.331,2.331,0,0,0,1.316-.332A1.02,1.02,0,0,0,84.363,14.758ZM33.23,36.867a5.062,5.062,0,0,1-.883,3.109,2.829,2.829,0,0,1-2.391,1.18,3.1,3.1,0,0,1-2.422-.977v4.07H26.09v-11.7h1.32l.07.938a2.977,2.977,0,0,1,2.453-1.094,2.882,2.882,0,0,1,2.41,1.148,5.117,5.117,0,0,1,.887,3.2ZM31.785,36.7a3.735,3.735,0,0,0-.609-2.258,1.963,1.963,0,0,0-1.672-.828,2.125,2.125,0,0,0-1.969,1.164V38.82a2.129,2.129,0,0,0,1.984,1.156,1.954,1.954,0,0,0,1.652-.824A4.077,4.077,0,0,0,31.785,36.7Zm7.367-2.859a4.331,4.331,0,0,0-.711-.055A1.9,1.9,0,0,0,36.512,35v6H35.066V32.547h1.406l.023.977a2.251,2.251,0,0,1,2.016-1.133,1.477,1.477,0,0,1,.641.109ZM42.051,41H40.605V32.547h1.445ZM40.488,30.3a.863.863,0,0,1,.215-.594.807.807,0,0,1,.637-.242.819.819,0,0,1,.641.242.854.854,0,0,1,.219.594.826.826,0,0,1-.219.586.834.834,0,0,1-.641.234.821.821,0,0,1-.637-.234A.834.834,0,0,1,40.488,30.3Zm6.664,8.734,2.094-6.492h1.477L47.691,41h-1.1l-3.062-8.453H45ZM57.215,41a3.036,3.036,0,0,1-.2-.891,3.225,3.225,0,0,1-2.406,1.047,2.984,2.984,0,0,1-2.051-.707,2.287,2.287,0,0,1-.8-1.793,2.39,2.39,0,0,1,1-2.051,4.733,4.733,0,0,1,2.824-.73h1.406v-.664A1.623,1.623,0,0,0,56.535,34a1.821,1.821,0,0,0-1.336-.449,2.107,2.107,0,0,0-1.3.391,1.151,1.151,0,0,0-.523.945H51.926a2,2,0,0,1,.449-1.223,3.066,3.066,0,0,1,1.219-.934,4.1,4.1,0,0,1,1.691-.344,3.342,3.342,0,0,1,2.289.73,2.635,2.635,0,0,1,.859,2.012v3.891a4.757,4.757,0,0,0,.3,1.852V41Zm-2.4-1.1a2.54,2.54,0,0,0,1.289-.352,2.127,2.127,0,0,0,.883-.914V36.9H55.855q-2.656,0-2.656,1.555a1.316,1.316,0,0,0,.453,1.063A1.742,1.742,0,0,0,54.816,39.9Zm5.531-3.2a4.952,4.952,0,0,1,.922-3.129,3.137,3.137,0,0,1,4.766-.168V29H67.48V41H66.152l-.07-.906a2.943,2.943,0,0,1-2.414,1.063,2.887,2.887,0,0,1-2.395-1.2,5.008,5.008,0,0,1-.926-3.141Zm1.445.164a3.749,3.749,0,0,0,.594,2.25,1.919,1.919,0,0,0,1.641.813A2.108,2.108,0,0,0,66.035,38.7V34.813a2.125,2.125,0,0,0-1.992-1.2,1.929,1.929,0,0,0-1.656.82A4.128,4.128,0,0,0,61.793,36.867ZM69.34,36.7a4.993,4.993,0,0,1,.488-2.234,3.643,3.643,0,0,1,1.359-1.531,3.7,3.7,0,0,1,1.988-.539,3.565,3.565,0,0,1,2.793,1.2,4.6,4.6,0,0,1,1.066,3.18v.1a5.036,5.036,0,0,1-.473,2.215,3.589,3.589,0,0,1-1.352,1.527,3.743,3.743,0,0,1-2.02.547,3.556,3.556,0,0,1-2.785-1.2A4.575,4.575,0,0,1,69.34,36.8Zm1.453.172a3.616,3.616,0,0,0,.652,2.258,2.211,2.211,0,0,0,3.5-.012A3.955,3.955,0,0,0,75.59,36.7a3.61,3.61,0,0,0-.66-2.254,2.1,2.1,0,0,0-1.754-.863,2.075,2.075,0,0,0-1.727.852A3.925,3.925,0,0,0,70.793,36.867ZM83.77,38.758a1.064,1.064,0,0,0-.441-.91,4.249,4.249,0,0,0-1.539-.559,7.277,7.277,0,0,1-1.742-.562,2.479,2.479,0,0,1-.953-.781,1.869,1.869,0,0,1-.309-1.078,2.193,2.193,0,0,1,.879-1.758,3.432,3.432,0,0,1,2.246-.719,3.532,3.532,0,0,1,2.332.742,2.357,2.357,0,0,1,.895,1.9H83.684a1.3,1.3,0,0,0-.5-1.023,1.888,1.888,0,0,0-1.27-.43,1.976,1.976,0,0,0-1.234.344,1.082,1.082,0,0,0-.445.9.877.877,0,0,0,.414.789,5.1,5.1,0,0,0,1.5.508,7.8,7.8,0,0,1,1.754.578,2.558,2.558,0,0,1,1,.809,1.988,1.988,0,0,1,.324,1.152,2.163,2.163,0,0,1-.906,1.816,3.8,3.8,0,0,1-2.352.684,4.257,4.257,0,0,1-1.8-.359,2.922,2.922,0,0,1-1.223-1A2.42,2.42,0,0,1,78.5,38.4h1.445a1.5,1.5,0,0,0,.582,1.152,2.258,2.258,0,0,0,1.434.426,2.331,2.331,0,0,0,1.316-.332A1.02,1.02,0,0,0,83.77,38.758Z" transform="translate(-5725.694 -1958)" fill="#12263f"/>
      <path id="Trazado_217321" data-name="Trazado 217321" d="M9.438,12.4H6.766V17H5.258V5.625H9.023A4.457,4.457,0,0,1,11.98,6.5a3.148,3.148,0,0,1,1.035,2.547,3.062,3.062,0,0,1-.574,1.852,3.428,3.428,0,0,1-1.6,1.18l2.672,4.828V17H11.906ZM6.766,11.172h2.3a2.6,2.6,0,0,0,1.777-.579,1.959,1.959,0,0,0,.66-1.55,2.062,2.062,0,0,0-.629-1.62,2.663,2.663,0,0,0-1.816-.571h-2.3ZM18.4,17.156a3.693,3.693,0,0,1-2.8-1.129,4.19,4.19,0,0,1-1.078-3.02v-.266A5.073,5.073,0,0,1,15,10.5a3.748,3.748,0,0,1,1.344-1.547,3.378,3.378,0,0,1,1.871-.559,3.166,3.166,0,0,1,2.563,1.086,4.7,4.7,0,0,1,.914,3.109v.6H15.969a3,3,0,0,0,.73,2.02,2.3,2.3,0,0,0,1.777.77,2.517,2.517,0,0,0,1.3-.312,3.259,3.259,0,0,0,.93-.828l.883.688A3.55,3.55,0,0,1,18.4,17.156Zm-.18-7.578a1.928,1.928,0,0,0-1.469.637A3.1,3.1,0,0,0,16.016,12H20.25v-.109a2.753,2.753,0,0,0-.594-1.707A1.815,1.815,0,0,0,18.219,9.578Zm4.8,3.125a4.952,4.952,0,0,1,.922-3.129A3.137,3.137,0,0,1,28.7,9.406V5h1.445V17H28.82l-.07-.906a2.943,2.943,0,0,1-2.414,1.063,2.887,2.887,0,0,1-2.395-1.2,5.008,5.008,0,0,1-.926-3.141Zm1.445.164a3.749,3.749,0,0,0,.594,2.25,1.92,1.92,0,0,0,1.641.813A2.108,2.108,0,0,0,28.7,14.7V10.813a2.125,2.125,0,0,0-1.992-1.2,1.929,1.929,0,0,0-1.656.82A4.128,4.128,0,0,0,24.461,12.867Zm15.281,3.109a2.082,2.082,0,0,0,1.352-.469,1.649,1.649,0,0,0,.641-1.172H43.1a2.621,2.621,0,0,1-.5,1.383,3.293,3.293,0,0,1-1.23,1.047,3.55,3.55,0,0,1-1.629.391A3.482,3.482,0,0,1,37,16a4.59,4.59,0,0,1-1.02-3.152v-.242a5.089,5.089,0,0,1,.453-2.2,3.451,3.451,0,0,1,1.3-1.492,3.7,3.7,0,0,1,2-.531,3.39,3.39,0,0,1,2.363.852,3.043,3.043,0,0,1,1,2.211H41.734a1.992,1.992,0,0,0-.621-1.348,1.932,1.932,0,0,0-1.379-.527,2.023,2.023,0,0,0-1.707.793,3.724,3.724,0,0,0-.605,2.293v.273a3.65,3.65,0,0,0,.6,2.25A2.033,2.033,0,0,0,39.742,15.977Zm8.492,1.18a3.693,3.693,0,0,1-2.8-1.129,4.19,4.19,0,0,1-1.078-3.02v-.266a5.073,5.073,0,0,1,.48-2.246,3.748,3.748,0,0,1,1.344-1.547,3.378,3.378,0,0,1,1.871-.559,3.166,3.166,0,0,1,2.563,1.086,4.7,4.7,0,0,1,.914,3.109v.6H45.8a3,3,0,0,0,.73,2.02,2.3,2.3,0,0,0,1.777.77,2.517,2.517,0,0,0,1.3-.312,3.259,3.259,0,0,0,.93-.828l.883.688A3.55,3.55,0,0,1,48.234,17.156Zm-.18-7.578a1.928,1.928,0,0,0-1.469.637A3.1,3.1,0,0,0,45.852,12h4.234v-.109a2.753,2.753,0,0,0-.594-1.707A1.815,1.815,0,0,0,48.055,9.578Zm9.234.266a4.331,4.331,0,0,0-.711-.055A1.9,1.9,0,0,0,54.648,11v6H53.2V8.547h1.406l.023.977a2.251,2.251,0,0,1,2.016-1.133,1.477,1.477,0,0,1,.641.109Zm5.414,0a4.331,4.331,0,0,0-.711-.055A1.9,1.9,0,0,0,60.063,11v6H58.617V8.547h1.406l.023.977a2.251,2.251,0,0,1,2.016-1.133A1.477,1.477,0,0,1,62.7,8.5ZM68.938,17a3.036,3.036,0,0,1-.2-.891,3.225,3.225,0,0,1-2.406,1.047,2.984,2.984,0,0,1-2.051-.707,2.287,2.287,0,0,1-.8-1.793,2.39,2.39,0,0,1,1-2.051,4.733,4.733,0,0,1,2.824-.73h1.406v-.664A1.623,1.623,0,0,0,68.258,10a1.821,1.821,0,0,0-1.336-.449,2.108,2.108,0,0,0-1.3.391,1.151,1.151,0,0,0-.523.945H63.648A2,2,0,0,1,64.1,9.668a3.066,3.066,0,0,1,1.219-.934,4.1,4.1,0,0,1,1.691-.344,3.342,3.342,0,0,1,2.289.73,2.635,2.635,0,0,1,.859,2.012v3.891a4.757,4.757,0,0,0,.3,1.852V17Zm-2.4-1.1a2.54,2.54,0,0,0,1.289-.352,2.127,2.127,0,0,0,.883-.914V12.9H67.578q-2.656,0-2.656,1.555a1.316,1.316,0,0,0,.453,1.063A1.742,1.742,0,0,0,66.539,15.9Zm5.531-3.2a4.952,4.952,0,0,1,.922-3.129,3.137,3.137,0,0,1,4.766-.168V5H79.2V17H77.875l-.07-.906a2.943,2.943,0,0,1-2.414,1.063A2.887,2.887,0,0,1,73,15.953a5.008,5.008,0,0,1-.926-3.141Zm1.445.164a3.749,3.749,0,0,0,.594,2.25,1.92,1.92,0,0,0,1.641.813A2.108,2.108,0,0,0,77.758,14.7V10.813a2.125,2.125,0,0,0-1.992-1.2,1.929,1.929,0,0,0-1.656.82A4.128,4.128,0,0,0,73.516,12.867ZM86.664,17a3.036,3.036,0,0,1-.2-.891,3.225,3.225,0,0,1-2.406,1.047A2.984,2.984,0,0,1,82,16.449a2.288,2.288,0,0,1-.8-1.793,2.39,2.39,0,0,1,1-2.051,4.733,4.733,0,0,1,2.824-.73h1.406v-.664A1.623,1.623,0,0,0,85.984,10a1.821,1.821,0,0,0-1.336-.449,2.108,2.108,0,0,0-1.3.391,1.151,1.151,0,0,0-.523.945H81.375a2,2,0,0,1,.449-1.223,3.066,3.066,0,0,1,1.219-.934,4.1,4.1,0,0,1,1.691-.344,3.342,3.342,0,0,1,2.289.73,2.635,2.635,0,0,1,.859,2.012v3.891a4.757,4.757,0,0,0,.3,1.852V17Zm-2.4-1.1a2.54,2.54,0,0,0,1.289-.352,2.127,2.127,0,0,0,.883-.914V12.9H85.3q-2.656,0-2.656,1.555a1.316,1.316,0,0,0,.453,1.063A1.742,1.742,0,0,0,84.266,15.9Z" transform="translate(-5399.694 -1957)" fill="#12263f"/>
      <g id="Grupo_213044" data-name="Grupo 213044" transform="translate(-5421.694 -1973.703)">
        <path id="Trazado_210453-9" data-name="Trazado 210453" d="M15.728,0,0,14.095" transform="translate(0.001 39.906)" fill="none" stroke="#f08e35" stroke-width="1"/>
        <path id="Trazado_210454-9" data-name="Trazado 210454" d="M0,0V6.136l5.942.535" transform="translate(0 48.031)" fill="none" stroke="#f08e35" stroke-width="1"/>
      </g>
      <g id="Grupo_213052" data-name="Grupo 213052" transform="translate(-5457.514 -1815.174) rotate(-17)">
        <path id="Trazado_210453-10" data-name="Trazado 210453" d="M67.37,60.372,0,0" transform="translate(0.001 0.702)" fill="none" stroke="#f08e35" stroke-width="1"/>
        <path id="Trazado_210454-10" data-name="Trazado 210454" d="M0,6.671V.535L5.942,0" transform="translate(0 0)" fill="none" stroke="#f08e35" stroke-width="1"/>
      </g>
      <g id="Grupo_213046" data-name="Grupo 213046" transform="translate(-5591.354 -1849.251) rotate(180)">
        <path id="Trazado_210453-11" data-name="Trazado 210453" d="M17.027,60.874,0,0" transform="translate(0.001 0.702)" fill="none" stroke="#f08e35" stroke-width="1"/>
        <path id="Trazado_210454-11" data-name="Trazado 210454" d="M0,6.671V.535L5.942,0" transform="matrix(0.883, 0.469, -0.469, 0.883, -0.086, -0.004)" fill="none" stroke="#f08e35" stroke-width="1"/>
      </g>
      <g id="Grupo_213048" data-name="Grupo 213048" transform="translate(-5596.117 -1722.022) rotate(-167)">
        <path id="Trazado_210453-12" data-name="Trazado 210453" d="M20.833,0,0,19.682" transform="translate(0.001 34.319)" fill="none" stroke="#f08e35" stroke-width="1"/>
        <path id="Trazado_210454-12" data-name="Trazado 210454" d="M0,0V6.136l5.942.535" transform="translate(0 48.031)" fill="none" stroke="#f08e35" stroke-width="1"/>
      </g>
      <g id="Grupo_216490" data-name="Grupo 216490" transform="translate(-5517.562 -1848.934)">
        <path id="Trazado_210447" data-name="Trazado 210447" d="M15.322,0,1.357,8.116l14.056,8.116L29.379,8.116Z" transform="translate(-1.22 0)" fill="#ff8900"/>
        <path id="Trazado_210448" data-name="Trazado 210448" d="M139,88.289l-.137,17.524L152.831,97.7l.137-17.524Z" transform="translate(-124.809 -72.058)" fill="#2754ba"/>
        <path id="Trazado_210449" data-name="Trazado 210449" d="M0,97.7l14.056,8.116.137-17.524L.137,80.175Z" transform="translate(0 -72.06)" fill="#5079d6"/>
      </g>
    </g>
  </g>
</svg>
