<svg xmlns="http://www.w3.org/2000/svg" xmlns:xlink="http://www.w3.org/1999/xlink" width="174.365" height="99.418" viewBox="0 0 174.365 99.418">
  <defs>
    <clipPath id="clip-path">
      <rect id="Rectángulo_66653" data-name="Rectángulo 66653" width="99.439" height="99.418" fill="none"/>
    </clipPath>
  </defs>
  <g id="Grupo_217273" data-name="Grupo 217273" transform="translate(-1041.28 -5496.387)">
    <g id="Grupo_152926" data-name="Grupo 152926" transform="translate(1041.28 5496.387)">
      <g id="Grupo_152925" data-name="Grupo 152925" clip-path="url(#clip-path)">
        <path id="Trazado_179711" data-name="Trazado 179711" d="M1.052,312.85q9.281,5.428,18.579,10.828a1.765,1.765,0,0,0,1,.406,1.584,1.584,0,0,1-.041-.572q0-12.428.011-24.856h0a35.649,35.649,0,0,1-4.116-2.295c-4.208-2.423-8.411-4.856-12.583-7.34a17.881,17.881,0,0,1-3.658-2.3A.478.478,0,0,1,0,286.605v26.024c.426-.287.735.036,1.052.221m5.742-6.523c.18-2.251.06-4.527.035-6.791-.007-.643.093-.832.726-.45,1.854,1.117,3.733,2.191,5.6,3.284.275.161.579.283.578.7-.006,3.093,0,6.187,0,9.465-1.755-1.02-3.309-2.068-4.986-2.853a2.959,2.959,0,0,1-1.951-3.35" transform="translate(0 -225.041)" fill="#f9ab2b"/>
        <path id="Trazado_179712" data-name="Trazado 179712" d="M19.9,418.809c.262.152.505.582.908.215a.507.507,0,0,1-.177-.231,1.767,1.767,0,0,1-1-.406q-9.3-5.4-18.579-10.828c-.316-.185-.626-.509-1.052-.222.387-.01.649.264.947.438q9.477,5.513,18.951,11.033" transform="translate(0 -319.751)" fill="#f9ab2b"/>
        <path id="Trazado_179713" data-name="Trazado 179713" d="M.2,286.674h0l-.2-.069a.478.478,0,0,0,.242.113L.2,286.674" transform="translate(0 -225.041)" fill="#f9ab2b"/>
        <path id="Trazado_179714" data-name="Trazado 179714" d="M157.024.755Q147.7,6.19,138.383,11.638a1.922,1.922,0,0,0-.7.536c1.538,1.067,3.207,1.918,4.813,2.872q5.551,3.3,11.157,6.5a43.342,43.342,0,0,0,4.19,2.353c1.762-.8,3.369-1.876,5.037-2.843q7.482-4.335,14.934-8.721a1.639,1.639,0,0,0,.177-.124,1.746,1.746,0,0,0-.727-.592Q168.622,6.587,160,1.528c-.712-.419-1.66-.584-1.983-1.527h-.388c.089.481-.315.587-.6.754m1.19,7.4c2.138,1.263,4.285,2.511,6.576,3.848-2.283,1.33-4.4,2.56-6.512,3.8-.232.136-.454.26-.719.106-2.193-1.28-4.385-2.562-6.681-3.9,2.269-1.327,4.411-2.572,6.544-3.833a.682.682,0,0,1,.793-.012" transform="translate(-108.105 -0.001)" fill="#fec019"/>
        <path id="Trazado_179715" data-name="Trazado 179715" d="M234.337,1.527Q242.954,6.6,251.6,11.622a1.749,1.749,0,0,1,.728.592c.093-.073.184-.151.278-.224h0c-.265-.178-.521-.371-.8-.532-4.56-2.663-9.133-5.3-13.68-7.989-1.933-1.141-3.944-2.155-5.773-3.47.323.943,1.271,1.109,1.983,1.527" transform="translate(-182.444)" fill="#fec019"/>
        <path id="Trazado_179716" data-name="Trazado 179716" d="M136.329,11.972h0c.1.069.193.134.29.2a1.922,1.922,0,0,1,.7-.535Q146.647,6.2,155.964.754c.287-.167.691-.273.6-.754a56.313,56.313,0,0,1-5.116,3.094c-5.032,2.975-10.08,5.921-15.123,8.878" transform="translate(-107.045)" fill="#fec019"/>
        <path id="Trazado_179717" data-name="Trazado 179717" d="M235.579,67.486c-1,.585-1.993,1.194-3.012,1.753a2.319,2.319,0,0,1-1.057.416q0,12.8-.006,25.6,5.607-3.236,11.215-6.471,1.675-.966,3.356-1.924c-.72-1.215-1.422-2.441-2.17-3.639-.263-.422-.251-.661.2-.907.788-.426,1.591-1.3,2.315-1.227.68.065.962,1.309,1.434,2.024.423.643.834,1.294,1.251,1.941.967-.579,2.3-.944,2.8-1.8s.166-2.2.171-3.323q.026-6.595.035-13.19a1.222,1.222,0,0,1-.241-.421c-.19-2.034-.044-4.072-.088-6.107-.016-.724.017-1.449-.038-2.171a3.322,3.322,0,0,1-.62.36c-5.168,3.05-10.36,6.059-15.543,9.084m9.183,10.851c-.855.575-1.741,1.106-2.555,1.616a.434.434,0,0,1-.442-.265c-.4-.662-.8-1.33-1.218-1.98-.192-.3-.111-.468.162-.62.141-.078.277-.166.414-.251,2.29-1.414,2.292-1.415,3.52,1,.079.155.327.362.119.5" transform="translate(-181.776 -45.574)" fill="#e9732d"/>
        <path id="Trazado_179718" data-name="Trazado 179718" d="M325.721,56.3c.055.721.023,1.446.038,2.171.044,2.035-.1,4.073.088,6.107a1.218,1.218,0,0,0,.241.421c0-.063,0-.127,0-.19-.011-2.653-.016-5.307-.039-7.96,0-.341.128-.713-.135-1.024a.6.6,0,0,1-.194.477" transform="translate(-255.755 -43.832)" fill="#e9732d"/>
        <path id="Trazado_179719" data-name="Trazado 179719" d="M232.588,68.312c1.019-.559,2.009-1.167,3.012-1.753,5.183-3.025,10.375-6.034,15.543-9.084a3.314,3.314,0,0,0,.62-.359c0-.019,0-.038,0-.057a.833.833,0,0,0-.081-.2,1.61,1.61,0,0,1-.177.124q-7.463,4.367-14.934,8.721c-1.668.966-3.275,2.043-5.037,2.843v.179a2.318,2.318,0,0,0,1.057-.416" transform="translate(-181.797 -44.648)" fill="#e9732d"/>
        <path id="Trazado_179720" data-name="Trazado 179720" d="M325.329,56.044a.851.851,0,0,1,.081.2c0,.019,0,.038,0,.057a.6.6,0,0,0,.194-.477h0c-.094.072-.184.151-.278.224" transform="translate(-255.447 -43.83)" fill="#e9732d"/>
        <path id="Trazado_179721" data-name="Trazado 179721" d="M291.741,324.181q.007-12.433.018-24.866c-2.517-1.239-4.87-2.769-7.3-4.162-4.14-2.373-8.241-4.815-12.358-7.228l-.832-.489c-.22.324-.111.689-.111,1.033q-.012,8.021-.005,16.043c2.027.012,4.055.05,6.082.019.646-.01.8.2.8.816.02,2.655.04,2.651-2.639,2.657-1.415,0-2.83.027-4.246.041,0,1.417.033,2.835-.016,4.25a1.24,1.24,0,0,0,.728,1.287c3.038,1.75,6.051,3.546,9.071,5.328.042,0,.085-.007.129-.006a15.248,15.248,0,0,1,3.911,2.046c1.992,1.117,3.963,2.272,5.921,3.451a1.457,1.457,0,0,0,.885.333,1.561,1.561,0,0,1-.041-.552M283.258,308h-.1c-1.706,0-1.706,0-1.706-1.729s0-1.729,1.7-1.729c1.762,0,1.762,0,1.762,1.766,0,1.693,0,1.693-1.655,1.693" transform="translate(-212.892 -225.694)" fill="#f9ab2b"/>
        <path id="Trazado_179722" data-name="Trazado 179722" d="M327.623,439.76a1.455,1.455,0,0,1-.885-.333c-1.957-1.178-3.929-2.334-5.921-3.451a15.258,15.258,0,0,0-3.911-2.046c-.044,0-.087,0-.129.006l.312.185c.314.162.635.312.941.489,2.985,1.735,5.965,3.479,8.955,5.207.241.139.467.526.83.183h0a.5.5,0,0,1-.191-.241" transform="translate(-248.732 -340.721)" fill="#f9ab2b"/>
        <path id="Trazado_179723" data-name="Trazado 179723" d="M116.719,312.218c-.048-1.415-.015-2.833-.015-4.25-2-.014-4.01-.056-6.015-.026-.688.01-.866-.213-.868-.88-.007-2.593-.029-2.589,2.517-2.594,1.455,0,2.911-.021,4.366-.033q0-8.044-.006-16.089c0-.331.121-.694-.129-1l-.034-.012c-1.954,1.352-4.066,2.441-6.106,3.649-4.461,2.639-8.951,5.229-13.427,7.843a2.6,2.6,0,0,1-.8.391.993.993,0,0,1,.157.347,7.623,7.623,0,0,1,.077,1.551q.006,11.357.006,22.714a5.366,5.366,0,0,1-.039.76c1.837-.943,3.577-2.054,5.366-3.078,1.257-.719,2.506-1.455,3.752-2.194a2.943,2.943,0,0,1,1.25-.491l.116.024c3.033-1.788,6.058-3.59,9.109-5.346a1.242,1.242,0,0,0,.728-1.289m-12.05-4.291c-1.725,0-1.725,0-1.725-1.72,0-1.739,0-1.739,1.694-1.739,1.766,0,1.766,0,1.766,1.757,0,1.7,0,1.7-1.735,1.7" transform="translate(-75.534 -225.617)" fill="#e9732d"/>
        <path id="Trazado_179724" data-name="Trazado 179724" d="M107.289,433.94a2.94,2.94,0,0,0-1.25.491c-1.246.739-2.495,1.474-3.752,2.194-1.789,1.024-3.529,2.136-5.366,3.078a2.576,2.576,0,0,1-.058.3c.284-.144.576-.276.851-.435q4.71-2.717,9.416-5.441l.275-.162c-.038-.008-.077-.017-.116-.024" transform="translate(-76.056 -340.728)" fill="#e9732d"/>
        <path id="Trazado_179725" data-name="Trazado 179725" d="M96.1,368.026a5.4,5.4,0,0,0,.039-.76q-.014-11.357-.006-22.714A7.623,7.623,0,0,0,96.057,343a.985.985,0,0,0-.157-.347c-.021,0-.042.009-.064.012h0q-.007,12.428-.011,24.856a1.58,1.58,0,0,0,.041.572.849.849,0,0,0,.157-.026l.078-.041" transform="translate(-75.237 -269.051)" fill="#e9732d"/>
        <path id="Trazado_179726" data-name="Trazado 179726" d="M96.194,460.814a.843.843,0,0,1-.157.026.509.509,0,0,0,.177.231,2.535,2.535,0,0,0,.058-.3l-.078.041" transform="translate(-75.408 -361.797)" fill="#e9732d"/>
        <path id="Trazado_179727" data-name="Trazado 179727" d="M291.953,232.446c-1.028.659-2.113,1.23-3.174,1.838.624,1.054,1.226,2.121,1.881,3.154.271.427.233.651-.212.894-.793.432-1.6,1.322-2.325,1.252-.678-.066-.949-1.336-1.444-2.047-.331-.475-.63-.971-.944-1.458q-6.335,3.7-12.668,7.411c-.263.154-.513.331-.767.5.323-.067.614.232.883.391,2.62,1.542,5.252,3.064,7.878,4.6,3.6,2.1,7.2,4.219,10.813,6.3a2.445,2.445,0,0,1,.86.639c1.828-.842,3.5-1.958,5.239-2.961,4.991-2.882,9.956-5.808,14.93-8.719a1.2,1.2,0,0,0-.545-.438c-2.274-1.349-4.566-2.666-6.849-4a2.113,2.113,0,0,1-.947-.8c0-.029-.006-.058-.01-.087-3.712-2.148-7.429-4.287-11.127-6.459a1.215,1.215,0,0,0-1.473-.018m1.892,10.695c-.3.729-1.525,1.071-2.336,1.6-.249.162-.41.12-.55-.121-.468-.8-1.464-1.768-1.28-2.375.261-.861,1.584-1.163,2.441-1.722a1.5,1.5,0,0,1,.2-.089c.059.053.129.109.19.173a.669.669,0,0,1,.112.158c.412.828,1.514,1.678,1.224,2.378" transform="translate(-213.81 -182.328)" fill="#fec019"/>
        <path id="Trazado_179728" data-name="Trazado 179728" d="M422.458,263.565a2.118,2.118,0,0,0,.947.8c2.283,1.332,4.576,2.649,6.849,4a1.2,1.2,0,0,1,.545.438l.268-.157h0c-.259-.18-.507-.377-.777-.537q-3.847-2.277-7.7-4.543l-.142-.082c0,.029.006.058.01.087" transform="translate(-331.705 -206.882)" fill="#fec019"/>
        <path id="Trazado_179729" data-name="Trazado 179729" d="M271.776,287.121l.831.489c4.117,2.413,8.218,4.855,12.358,7.228,2.43,1.393,4.783,2.923,7.3,4.162l.057-.027a2.447,2.447,0,0,0-.86-.639c-3.615-2.083-7.211-4.2-10.813-6.3-2.626-1.533-5.258-3.055-7.878-4.6-.269-.158-.56-.458-.883-.391l-.113.076h0" transform="translate(-213.398 -225.378)" fill="#fec019"/>
        <path id="Trazado_179730" data-name="Trazado 179730" d="M368.434,300.567c-.243.142-.493.33-.79.2a1.037,1.037,0,0,1,.109.263,6.255,6.255,0,0,1,.08,1.352c0,7.677-.006,15.354.008,23.031a5.3,5.3,0,0,1-.036.649c.011-.005.022-.007.033-.013,5.582-3.192,11.112-6.468,16.668-9.7.81-.471,1.618-.946,2.434-1.405a1.6,1.6,0,0,0,.9-1.558c-.026-8.056,0-16.111-.026-24.165a2.786,2.786,0,0,1-.449.288c-6.294,3.716-12.621,7.374-18.935,11.056m12.222,10.393q-2.787,1.565-5.524,3.219c-.655.4-.783.253-.776-.462.028-2.748.019-5.5,0-8.245a1,1,0,0,1,.536-1.021q2.866-1.625,5.691-3.319c.578-.346.7-.192.691.416-.025,1.422-.008,2.845-.008,4.268,0,1.326-.022,2.652.011,3.977a1.121,1.121,0,0,1-.625,1.167" transform="translate(-288.673 -227.097)" fill="#e9732d"/>
        <path id="Trazado_179731" data-name="Trazado 179731" d="M388.223,287.877c.031,8.053,0,16.109.026,24.164a1.6,1.6,0,0,1-.9,1.558c-.816.459-1.624.934-2.434,1.405-5.556,3.233-11.086,6.509-16.668,9.7-.012.006-.022.008-.034.014-.013.1-.028.208-.05.312a2.854,2.854,0,0,0,.353-.148q9.7-5.653,19.4-11.294a1.192,1.192,0,0,0,.606-1.257q-.015-11.932-.01-23.863c0-.32-.044-.64-.067-.96h0a.65.65,0,0,1-.218.368" transform="translate(-289.078 -225.75)" fill="#e9732d"/>
        <path id="Trazado_179732" data-name="Trazado 179732" d="M367.372,344.407a6.228,6.228,0,0,0-.08-1.352,1.028,1.028,0,0,0-.109-.263.641.641,0,0,1-.1-.053q-.01,12.433-.018,24.866a1.56,1.56,0,0,0,.041.552.763.763,0,0,0,.241-.071,5.339,5.339,0,0,0,.036-.649c-.014-7.677,0-15.354-.008-23.031" transform="translate(-288.212 -269.118)" fill="#e9732d"/>
        <path id="Trazado_179733" data-name="Trazado 179733" d="M367.27,460.809a.5.5,0,0,0,.191.241c.022-.1.037-.207.05-.312a.765.765,0,0,1-.241.071" transform="translate(-288.379 -361.77)" fill="#e9732d"/>
        <path id="Trazado_179734" data-name="Trazado 179734" d="M367.43,299.919c.017.025.031.053.046.08.3.125.546-.063.79-.2,6.314-3.681,12.641-7.34,18.935-11.056a2.785,2.785,0,0,0,.449-.288v-.064a.564.564,0,0,0-.05-.148c-4.974,2.91-9.939,5.837-14.931,8.719-1.737,1-3.411,2.119-5.239,2.961" transform="translate(-288.505 -226.324)" fill="#e9732d"/>
        <path id="Trazado_179735" data-name="Trazado 179735" d="M461.377,287.813c0,.021,0,.043,0,.064a.652.652,0,0,0,.218-.369l-.268.157a.567.567,0,0,1,.05.148" transform="translate(-362.232 -225.75)" fill="#e9732d"/>
        <path id="Trazado_179736" data-name="Trazado 179736" d="M367.266,342.691c-.015-.027-.029-.055-.046-.08l-.057.027a.617.617,0,0,0,.1.053" transform="translate(-288.295 -269.017)" fill="#e9732d"/>
        <path id="Trazado_179737" data-name="Trazado 179737" d="M316.847,100.5c0,4.527-.043,9.055.026,13.581a2.476,2.476,0,0,1-1.587,2.673c-.446.186-.831.5-1.289.665a.869.869,0,0,1-.389.034c2.451,4.144,4.946,8.261,7.538,12.319.007-.017.01-.032.018-.049,1.1-.721,2.252-1.372,3.4-2.023a1.085,1.085,0,0,1,1.18.029c3.569,2.062,7.114,4.164,10.689,6.216a2.031,2.031,0,0,1,.541.445c-.188-1.624-.264-3.257-.449-4.883a39.5,39.5,0,0,0-3.125-11.451,40.75,40.75,0,0,0-8.866-12.835,38.226,38.226,0,0,0-7.011-5.471,5.434,5.434,0,0,1-.8-.513,4.081,4.081,0,0,1,.12,1.263" transform="translate(-246.245 -77.92)" fill="#d6e5ea"/>
        <path id="Trazado_179738" data-name="Trazado 179738" d="M328.377,98.5a38.226,38.226,0,0,1,7.011,5.471,40.75,40.75,0,0,1,8.866,12.835,39.5,39.5,0,0,1,3.125,11.451c.185,1.626.261,3.259.449,4.883a1.9,1.9,0,0,1,.156.209c-.46-15.579-7.227-27.528-20.551-35.7a1.741,1.741,0,0,1,.149.341,5.434,5.434,0,0,0,.8.513" transform="translate(-257.099 -76.674)" fill="#d6e5ea"/>
        <path id="Trazado_179739" data-name="Trazado 179739" d="M316.249,115.048c-.494.853-1.83,1.218-2.8,1.8l.034.057a.869.869,0,0,0,.389-.034c.457-.165.843-.479,1.288-.665a2.476,2.476,0,0,0,1.587-2.673c-.069-4.526-.027-9.054-.026-13.581a4.074,4.074,0,0,0-.12-1.263,1.471,1.471,0,0,1-.149-.151q-.016,6.6-.035,13.19c0,1.128.325,2.469-.171,3.323" transform="translate(-246.121 -77.369)" fill="#d6e5ea"/>
        <path id="Trazado_179740" data-name="Trazado 179740" d="M327.58,97.99a1.745,1.745,0,0,0-.149-.341c0,.063,0,.127,0,.19a1.5,1.5,0,0,0,.149.151" transform="translate(-257.098 -76.674)" fill="#d6e5ea"/>
        <path id="Trazado_179741" data-name="Trazado 179741" d="M363.988,237.4c-3.575-2.052-7.12-4.154-10.689-6.216a1.085,1.085,0,0,0-1.18-.029c-1.147.652-2.293,1.3-3.4,2.023-.009.017-.012.033-.018.049l.067.106h0c1.061-.608,2.146-1.179,3.174-1.838a1.216,1.216,0,0,1,1.473.018c3.7,2.172,7.415,4.31,11.127,6.459,0-.043-.009-.085-.014-.127a2.028,2.028,0,0,0-.541-.445" transform="translate(-273.8 -181.374)" fill="#d6e5ea"/>
        <path id="Trazado_179742" data-name="Trazado 179742" d="M422.4,263.013l.142.082a1.874,1.874,0,0,0-.156-.209c0,.042.009.085.014.127" transform="translate(-331.652 -206.417)" fill="#d6e5ea"/>
        <path id="Trazado_179743" data-name="Trazado 179743" d="M174.184,389.334a1.922,1.922,0,0,1-1.17-2.007c.069-1,0-2,.023-3a1.435,1.435,0,0,1,.194-.949H156.269a1.277,1.277,0,0,1,.183.816c.023,1.164,0,2.328.012,3.491a1.481,1.481,0,0,1-.812,1.423c-2.855,1.649-5.689,3.332-8.547,4.978a2.253,2.253,0,0,1-.608.2,27.631,27.631,0,0,1,3.533,1.455,40.836,40.836,0,0,0,17.033,2.665,38.886,38.886,0,0,0,15.043-3.818,3.469,3.469,0,0,1,.8-.321,28.8,28.8,0,0,1-3.861-2.13c-1.636-.9-3.213-1.917-4.859-2.806" transform="translate(-115.029 -301.028)" fill="#d6e5ea"/>
        <path id="Trazado_179744" data-name="Trazado 179744" d="M181.464,434.078a3.468,3.468,0,0,0-.8.32,38.887,38.887,0,0,1-15.043,3.818,40.837,40.837,0,0,1-17.033-2.665,27.663,27.663,0,0,0-3.533-1.455,1.7,1.7,0,0,0-.394.137,11.6,11.6,0,0,1,2.654,1.135,42.2,42.2,0,0,0,19.655,2.988,44.562,44.562,0,0,0,11.779-2.777,16.7,16.7,0,0,1,3.195-1.343c-.164-.047-.324-.1-.481-.159" transform="translate(-113.589 -340.837)" fill="#d6e5ea"/>
        <path id="Trazado_179745" data-name="Trazado 179745" d="M270.182,387.63c.048-1.415.015-2.833.016-4.25h-.06a1.436,1.436,0,0,0-.194.949c-.022,1,.046,2-.023,3a1.923,1.923,0,0,0,1.17,2.007c1.645.889,3.223,1.9,4.859,2.806a28.825,28.825,0,0,0,3.861,2.13,1.466,1.466,0,0,1,.169-.025c-3.02-1.782-6.032-3.578-9.07-5.328a1.24,1.24,0,0,1-.728-1.287" transform="translate(-211.935 -301.029)" fill="#d6e5ea"/>
        <path id="Trazado_179746" data-name="Trazado 179746" d="M315.989,433.987c.158.058.318.112.481.159l-.312-.184a1.461,1.461,0,0,0-.169.025" transform="translate(-248.114 -340.746)" fill="#d6e5ea"/>
        <path id="Trazado_179747" data-name="Trazado 179747" d="M155.215,389.109a1.481,1.481,0,0,0,.812-1.423c-.016-1.163.01-2.328-.012-3.491a1.277,1.277,0,0,0-.183-.816h-.07c0,1.417-.032,2.835.015,4.25a1.241,1.241,0,0,1-.728,1.289c-3.051,1.756-6.076,3.558-9.109,5.346l.119.025a2.253,2.253,0,0,0,.608-.2c2.857-1.646,5.692-3.328,8.547-4.978" transform="translate(-114.592 -301.028)" fill="#d6e5ea"/>
        <path id="Trazado_179748" data-name="Trazado 179748" d="M144.938,434.051l-.275.162a1.7,1.7,0,0,1,.394-.137l-.119-.025" transform="translate(-113.589 -340.815)" fill="#d6e5ea"/>
        <path id="Trazado_179749" data-name="Trazado 179749" d="M135.476,82.178a1.536,1.536,0,0,0,.975,1.64c.7.326,1.344.764,2.013,1.153.752-1.2,1.527-2.379,2.246-3.595.268-.454.483-.59.952-.262a19.886,19.886,0,0,0,1.809,1.111c.448.248.468.487.2.912-.749,1.2-1.449,2.427-2.169,3.643q6.995,4.058,13.991,8.115a5.876,5.876,0,0,0,.541.256,1.064,1.064,0,0,1-.185-.3,6.024,6.024,0,0,1-.082-1.356q0-11.215,0-22.43a2.591,2.591,0,0,1,.217-1.524,20.947,20.947,0,0,1-3.976-2.159c-5.22-3.036-10.447-6.061-15.642-9.139a3.731,3.731,0,0,1-.542-.3c-.08,2.344-.01,4.686-.035,7.028a5.574,5.574,0,0,1-.079,1.25,1.142,1.142,0,0,1-.25.444c.011,5.17.043,10.34.009,15.51m7.35-4.231c.459-.734.908-1.475,1.361-2.214.074-.12.178-.175.412-.121.768.477,1.614,1,2.454,1.528a.241.241,0,0,1,.061.339,2.009,2.009,0,0,1-.144.249c-.492.7-.756,1.978-1.434,2.037-.885.076-1.691-.89-2.553-1.372-.192-.107-.3-.216-.156-.447" transform="translate(-106.368 -45.499)" fill="#f9ab2b"/>
        <path id="Trazado_179750" data-name="Trazado 179750" d="M135.465,64.932a1.143,1.143,0,0,0,.25-.444,5.588,5.588,0,0,0,.08-1.25c.024-2.342-.046-4.684.035-7.028a.512.512,0,0,1-.179-.475c-.273.3-.144.675-.147,1.014-.022,2.664-.028,5.327-.039,7.991h0q0,.1,0,.192" transform="translate(-106.366 -43.763)" fill="#f9ab2b"/>
        <path id="Trazado_179751" data-name="Trazado 179751" d="M137.163,56.943a3.72,3.72,0,0,0,.542.3c5.2,3.078,10.422,6.1,15.642,9.139a20.941,20.941,0,0,0,3.976,2.159,1.184,1.184,0,0,1,.111-.145,43.312,43.312,0,0,1-4.19-2.353q-5.6-3.216-11.157-6.5c-1.606-.954-3.275-1.805-4.814-2.873a.83.83,0,0,0-.11.241c0,.011,0,.022,0,.033" transform="translate(-107.7 -44.496)" fill="#f9ab2b"/>
        <path id="Trazado_179752" data-name="Trazado 179752" d="M136.495,56.209c0-.011,0-.022,0-.033a.83.83,0,0,1,.11-.241c-.1-.067-.194-.132-.29-.2h0a.512.512,0,0,0,.179.475" transform="translate(-107.032 -43.762)" fill="#f9ab2b"/>
        <path id="Trazado_179753" data-name="Trazado 179753" d="M229.96,113.468q-.011,11.215,0,22.43a6.038,6.038,0,0,0,.082,1.356,1.067,1.067,0,0,0,.185.3l.059.026h0q0-12.8.006-25.6h-.011c-.034-.011-.066-.024-.1-.035a2.591,2.591,0,0,0-.217,1.524" transform="translate(-180.554 -87.898)" fill="#f9ab2b"/>
        <path id="Trazado_179754" data-name="Trazado 179754" d="M231.115,111.451h.011v-.179a1.272,1.272,0,0,0-.111.144c.034.011.066.025.1.035" transform="translate(-181.392 -87.37)" fill="#f9ab2b"/>
        <path id="Trazado_179755" data-name="Trazado 179755" d="M41.122,244.454c.287-.165.593-.489.945-.377l.017-.012q-4.874-2.881-9.749-5.76c-1.251-.738-2.508-1.467-3.763-2.2-.664,1.058-1.347,2.1-1.981,3.179-.256.433-.466.483-.878.2-.734-.511-1.911-.82-2.153-1.486-.251-.691.761-1.5,1.182-2.273.258-.477.528-.947.793-1.42-1.034-.591-2.088-1.15-3.092-1.787a1.292,1.292,0,0,0-1.558-.019c-3.688,2.176-7.4,4.307-11.108,6.452-.007.023-.011.046-.02.069a2.48,2.48,0,0,1-1.18.962c-2.124,1.229-4.232,2.484-6.358,3.709a2.114,2.114,0,0,1-.859.348,47.047,47.047,0,0,1,4.2,2.372c5.072,2.963,10.153,5.911,15.216,8.89a2.922,2.922,0,0,1,.935.636,23.576,23.576,0,0,1,4.115-2.564c5.093-2.98,10.177-5.975,15.294-8.914m-17.956.356c-.089.138-.233.043-.341-.02-.194-.112-.391-.223-.574-.353-.645-.456-1.872-.729-1.851-1.325.028-.816.817-1.607,1.288-2.4.095-.16.195-.346.447-.19.818.507,1.643,1,2.46,1.512.07.044.1.154.159.25-.529.847-1.051,1.694-1.587,2.53" transform="translate(-1.068 -182.355)" fill="#fec019"/>
        <path id="Trazado_179756" data-name="Trazado 179756" d="M1.865,268.19c2.126-1.225,4.234-2.48,6.358-3.709a2.481,2.481,0,0,0,1.18-.962c.009-.023.013-.046.02-.069l-.161.093L.91,268.493h0l.1.045a2.117,2.117,0,0,0,.859-.348" transform="translate(-0.715 -206.86)" fill="#fec019"/>
        <path id="Trazado_179757" data-name="Trazado 179757" d="M20.6,298.4c-5.063-2.979-10.144-5.927-15.216-8.89a46.912,46.912,0,0,0-4.2-2.372l-.034,0-.016,0a17.88,17.88,0,0,0,3.658,2.3c4.172,2.484,8.374,4.918,12.583,7.34a35.645,35.645,0,0,0,4.116,2.295h0l.047-.04a2.924,2.924,0,0,0-.935-.636" transform="translate(-0.885 -225.456)" fill="#fec019"/>
        <path id="Trazado_179758" data-name="Trazado 179758" d="M1.007,286.97l-.1-.045.046.044.016,0,.034,0" transform="translate(-0.715 -225.293)" fill="#fec019"/>
        <path id="Trazado_179759" data-name="Trazado 179759" d="M110.363,290.9c2.04-1.207,4.152-2.3,6.106-3.649-.352-.112-.659.212-.946.377-5.117,2.939-10.2,5.934-15.294,8.914a23.6,23.6,0,0,0-4.115,2.564c.006.009.011.019.018.028a2.6,2.6,0,0,0,.8-.391c4.476-2.614,8.966-5.2,13.427-7.843" transform="translate(-75.469 -225.533)" fill="#fec019"/>
        <path id="Trazado_179760" data-name="Trazado 179760" d="M95.945,342.526l-.046.039c.022,0,.043-.008.064-.012-.006-.009-.011-.019-.018-.027" transform="translate(-75.3 -268.95)" fill="#fec019"/>
        <path id="Trazado_179761" data-name="Trazado 179761" d="M51.807,127.793a1.182,1.182,0,0,1,1.36-.095c1.083.707,2.274,1.234,3.32,2a.635.635,0,0,1,.029.067q3.177-5.143,6.351-10.289c.411-.667.792-1.353,1.185-2.031a.822.822,0,0,1-.364-.028c-3.467-1.777-2.831-1.369-2.859-4.4-.038-4.174-.009-8.348-.01-12.522a4.074,4.074,0,0,1,.12-1.266,5.364,5.364,0,0,1-.689.452,38.8,38.8,0,0,0-7.649,6.061A40.965,40.965,0,0,0,41.5,127.086a51.12,51.12,0,0,0-.712,6.727,4.317,4.317,0,0,1-.043.525,3.4,3.4,0,0,1,.684-.467c3.449-2.047,6.935-4.03,10.383-6.078" transform="translate(-31.99 -77.918)" fill="#d6e5ea"/>
        <path id="Trazado_179762" data-name="Trazado 179762" d="M40,133.1a4.409,4.409,0,0,0,.043-.525,51.156,51.156,0,0,1,.712-6.727,40.965,40.965,0,0,1,11.106-21.339,38.792,38.792,0,0,1,7.649-6.061,5.441,5.441,0,0,0,.689-.452,1.74,1.74,0,0,1,.148-.339c-13.321,8.178-20.108,20.117-20.55,35.707a1.188,1.188,0,0,1,.2-.263" transform="translate(-31.247 -76.679)" fill="#d6e5ea"/>
        <path id="Trazado_179763" data-name="Trazado 179763" d="M134.146,99.962c0,4.174-.029,8.349.01,12.522.028,3.028-.608,2.62,2.859,4.4a.82.82,0,0,0,.364.029l.033-.058c-.669-.389-1.315-.828-2.013-1.153a1.537,1.537,0,0,1-.975-1.64c.034-5.17,0-10.34-.009-15.51a1.457,1.457,0,0,1-.149.147,4.068,4.068,0,0,0-.12,1.266" transform="translate(-105.316 -77.38)" fill="#d6e5ea"/>
        <path id="Trazado_179764" data-name="Trazado 179764" d="M134.923,97.848q0-.1,0-.192h0a1.746,1.746,0,0,0-.148.339,1.5,1.5,0,0,0,.149-.147" transform="translate(-105.824 -76.679)" fill="#d6e5ea"/>
        <path id="Trazado_179765" data-name="Trazado 179765" d="M53.212,231.478c1,.637,2.059,1.2,3.092,1.787h0l.059-.1a.674.674,0,0,0-.029-.067c-1.046-.767-2.237-1.295-3.32-2a1.183,1.183,0,0,0-1.36.094c-3.448,2.048-6.934,4.032-10.382,6.078a3.393,3.393,0,0,0-.684.468,1.354,1.354,0,0,1-.042.169c3.706-2.145,7.42-4.276,11.108-6.452a1.292,1.292,0,0,1,1.558.019" transform="translate(-31.837 -181.321)" fill="#d6e5ea"/>
        <path id="Trazado_179766" data-name="Trazado 179766" d="M39.956,262.831a1.392,1.392,0,0,0,.042-.169,1.176,1.176,0,0,0-.2.262l.162-.093" transform="translate(-31.246 -206.241)" fill="#d6e5ea"/>
        <path id="Trazado_179767" data-name="Trazado 179767" d="M33.508,354.583c1.677.785,3.23,1.833,4.986,2.853,0-3.278,0-6.371,0-9.465,0-.412-.3-.535-.578-.7-1.868-1.093-3.748-2.168-5.6-3.284-.634-.381-.733-.193-.726.45.025,2.265.145,4.541-.035,6.791a2.959,2.959,0,0,0,1.951,3.35" transform="translate(-24.763 -269.947)" fill="#047fa6"/>
        <path id="Trazado_179768" data-name="Trazado 179768" d="M199.12,41.361c2.3,1.342,4.489,2.624,6.681,3.9.265.155.487.03.719-.106,2.113-1.236,4.229-2.466,6.512-3.8-2.29-1.338-4.438-2.585-6.576-3.848a.682.682,0,0,0-.793.012c-2.133,1.261-4.275,2.507-6.544,3.833" transform="translate(-156.348 -29.362)" fill="#0092b9"/>
        <path id="Trazado_179769" data-name="Trazado 179769" d="M142.13,214.465q.006,7.06,0,14.121a2.68,2.68,0,0,1-.207,1.415h16.886a2.388,2.388,0,0,1-.209-1.286q-.008-7.184,0-14.367a2.943,2.943,0,0,1,.161-1.239.807.807,0,0,1,.271-.224c.022-.318.264-.468.506-.607,4.167-2.4,8.289-4.873,12.469-7.249a1.193,1.193,0,0,1,.451-.165.718.718,0,0,1,.084.012c-2.451-4.151-4.954-8.27-7.545-12.334-.008.02-.012.039-.022.06-2.167,1.466-4.488,2.675-6.73,4.016-2.271,1.358-4.568,2.673-6.858,4-.312.18-.7.561-1.032.256-.333.2-.609-.017-.863-.168-4.518-2.676-9.088-5.264-13.589-7.97a.689.689,0,0,1-.142-.13c-.01-.021-.015-.04-.023-.061q-3.381,5.481-6.759,10.963c-.277.45-.531.914-.794,1.373.021-.008.042-.017.064-.025a11.866,11.866,0,0,1,2.8,1.494q4.77,2.763,9.525,5.553c.418.245,1,.361,1.1.99.007.008.011.016.017.023a.786.786,0,0,1,.288.213,3.238,3.238,0,0,1,.159,1.336" transform="translate(-100.648 -151.183)" fill="#d6e5ea"/>
        <path id="Trazado_179770" data-name="Trazado 179770" d="M231.392,200.6c.331.3.72-.076,1.032-.256,2.29-1.326,4.587-2.641,6.858-4,2.242-1.341,4.562-2.55,6.73-4.016.01-.021.014-.04.022-.06l-.048-.076h0q-1.678.962-3.356,1.924-5.608,3.234-11.215,6.471h0c-.008.005-.016.007-.024.012" transform="translate(-181.688 -150.905)" fill="#d6e5ea"/>
        <path id="Trazado_179771" data-name="Trazado 179771" d="M270.2,287.246a.806.806,0,0,0-.27.224,2.943,2.943,0,0,0-.162,1.239q-.007,7.184,0,14.367a2.386,2.386,0,0,0,.209,1.286h.1q0-8.022.005-16.043c0-.344-.109-.709.111-1.033h0c0-.015,0-.027,0-.041" transform="translate(-211.82 -225.545)" fill="#d6e5ea"/>
        <path id="Trazado_179772" data-name="Trazado 179772" d="M191.479,303.063q.008-7.06,0-14.121a3.24,3.24,0,0,0-.159-1.336.785.785,0,0,0-.288-.213c.25.3.129.664.129,1q.014,8.045.006,16.089h.1a2.681,2.681,0,0,0,.207-1.415" transform="translate(-149.999 -225.66)" fill="#d6e5ea"/>
        <path id="Trazado_179773" data-name="Trazado 179773" d="M285.219,249.909a1.193,1.193,0,0,0-.451.165c-4.18,2.375-8.3,4.851-12.469,7.249-.242.139-.483.289-.506.607a.47.47,0,0,1,.109-.036c.253-.171.5-.348.767-.5q6.332-3.71,12.668-7.411l-.035-.059a.718.718,0,0,0-.084-.012" transform="translate(-213.412 -196.228)" fill="#d6e5ea"/>
        <path id="Trazado_179774" data-name="Trazado 179774" d="M271.775,287.156h0l.113-.076a.47.47,0,0,0-.109.036c0,.014,0,.026,0,.041" transform="translate(-213.397 -225.414)" fill="#d6e5ea"/>
        <path id="Trazado_179775" data-name="Trazado 179775" d="M163.368,192.321a.7.7,0,0,0,.142.13c4.5,2.706,9.071,5.294,13.589,7.97.254.151.53.369.863.168-.012-.011-.024-.026-.035-.038a5.883,5.883,0,0,1-.541-.256q-7-4.054-13.991-8.115l-.05.081c.008.02.012.04.023.061" transform="translate(-128.258 -150.898)" fill="#d6e5ea"/>
        <path id="Trazado_179776" data-name="Trazado 179776" d="M231.229,231.15c.012.013.023.028.035.038.008,0,.016-.007.024-.012l-.059-.026" transform="translate(-181.56 -181.498)" fill="#d6e5ea"/>
        <path id="Trazado_179777" data-name="Trazado 179777" d="M140.466,256.919q-4.755-2.79-9.525-5.553a11.871,11.871,0,0,0-2.8-1.494c-.023.007-.043.017-.065.025l-.029.05c1.254.733,2.512,1.462,3.763,2.2q4.877,2.877,9.749,5.76c-.092-.628-.677-.744-1.1-.989" transform="translate(-100.544 -196.199)" fill="#d6e5ea"/>
        <path id="Trazado_179778" data-name="Trazado 179778" d="M293.185,173.01c2.187,3.575,4.386,7.143,6.557,10.728.187.309.452.6.337,1.011.324.073.486.354.664.61.256.37.445.783.7,1.151.362.515.505,1.447,1.1,1.473.723.032,1.33-.687,1.984-1.083.425-.257.239-.6.053-.919-.421-.722-.874-1.425-1.284-2.153-.148-.262-.369-.514-.288-.836-.356-.064-.485-.386-.651-.657q-3.284-5.374-6.57-10.747c-.189-.309-.459-.606-.329-1.016a1.3,1.3,0,0,1-.717-.674c-.516-.821-1.019-1.651-1.5-2.494-.294-.52-.591-.649-1.164-.33-1.875,1.044-1.886,1.021-.787,2.839q.452.747.919,1.484a1.148,1.148,0,0,1,.3.948c.375.058.505.389.675.667" transform="translate(-228.141 -131.05)" fill="#0092b9"/>
        <path id="Trazado_179779" data-name="Trazado 179779" d="M290.838,171.083a1.147,1.147,0,0,0-.3-.947q-.468-.737-.919-1.484c-1.1-1.818-1.088-1.8.787-2.839.573-.319.87-.19,1.164.33.477.844.98,1.674,1.5,2.494a1.3,1.3,0,0,0,.717.674c0-.016.006-.031.013-.047h0c-.417-.647-.827-1.3-1.251-1.941-.471-.716-.754-1.959-1.434-2.024-.724-.07-1.528.8-2.315,1.227-.455.246-.467.485-.2.907.748,1.2,1.45,2.424,2.17,3.639a.667.667,0,0,1,.072.011" transform="translate(-226.468 -129.79)" fill="#0092b9"/>
        <path id="Trazado_179780" data-name="Trazado 179780" d="M337.789,241.817c-.08.322.141.574.288.836.41.728.864,1.431,1.284,2.153.186.319.371.662-.053.919-.655.4-1.261,1.115-1.984,1.084-.59-.026-.733-.958-1.1-1.473-.259-.368-.448-.781-.7-1.151-.177-.256-.34-.537-.664-.61,0,.018-.006.034-.013.052.313.487.613.984.944,1.458.5.711.766,1.981,1.444,2.047.726.07,1.532-.819,2.325-1.252.445-.243.483-.467.212-.894-.656-1.033-1.258-2.1-1.881-3.154h0a.67.67,0,0,1-.1-.014" transform="translate(-262.921 -189.874)" fill="#0092b9"/>
        <path id="Trazado_179781" data-name="Trazado 179781" d="M313.6,185.01q3.282,5.375,6.57,10.747c.165.271.3.593.651.657a.706.706,0,0,1,.035-.092c-2.592-4.058-5.087-8.175-7.538-12.319l-.047-.01c-.13.41.141.707.33,1.016" transform="translate(-245.95 -144.471)" fill="#0092b9"/>
        <path id="Trazado_179782" data-name="Trazado 179782" d="M313.392,183.822l.047.01-.034-.057h0c-.006.016-.008.031-.013.047" transform="translate(-246.074 -144.3)" fill="#0092b9"/>
        <path id="Trazado_179783" data-name="Trazado 179783" d="M348.643,241.494h0l-.067-.106a.688.688,0,0,0-.035.092.663.663,0,0,0,.1.014" transform="translate(-273.674 -189.537)" fill="#0092b9"/>
        <path id="Trazado_179784" data-name="Trazado 179784" d="M307.151,204.646c.114-.406-.15-.7-.337-1.011-2.171-3.585-4.37-7.153-6.557-10.728-.17-.278-.3-.609-.675-.667-.006.021-.015.043-.024.065,2.591,4.065,5.094,8.184,7.545,12.334.016,0,.033,0,.048.007" transform="translate(-235.212 -150.946)" fill="#0092b9"/>
        <path id="Trazado_179785" data-name="Trazado 179785" d="M299.383,192.264c.009-.022.018-.044.024-.065a.65.65,0,0,0-.072-.011h0l.048.076" transform="translate(-235.037 -150.905)" fill="#0092b9"/>
        <path id="Trazado_179786" data-name="Trazado 179786" d="M334.684,249.964l.035.059c.006-.018.008-.034.013-.052-.015,0-.032,0-.048-.007" transform="translate(-262.793 -196.271)" fill="#0092b9"/>
        <path id="Trazado_179787" data-name="Trazado 179787" d="M273.792,142.028c-.137.085-.273.173-.414.251-.274.151-.355.324-.163.62.422.65.816,1.318,1.218,1.98a.434.434,0,0,0,.442.265c.815-.51,1.7-1.041,2.555-1.616.208-.14-.04-.347-.119-.5-1.228-2.412-1.23-2.412-3.52-1" transform="translate(-214.445 -110.765)" fill="#0192b9"/>
        <path id="Trazado_179788" data-name="Trazado 179788" d="M183.688,367.441q-7.28.017-14.56,0a1.573,1.573,0,0,1-1.216-.294,1.717,1.717,0,0,1-1.219.278c-1.421.017-2.842.027-4.263,0-.8-.016-1.066.32-1.075,1.1-.02,1.8-.049,1.779,1.792,1.813a29.373,29.373,0,0,1,4.54.114.713.713,0,0,1,.212.155,1.668,1.668,0,0,1,1.239-.287q7.27-.015,14.54,0a1.662,1.662,0,0,1,1.242.289.767.767,0,0,1,.177-.142,30.664,30.664,0,0,1,4.538-.136c.387-.017.775.012,1.162-.022.31-.028.577-.122.615-.49a7.547,7.547,0,0,0-.008-1.835c-.083-.586-.571-.535-.98-.541-1.42-.021-2.841,0-4.262-.013a1.85,1.85,0,0,1-1.263-.272,1.587,1.587,0,0,1-1.209.287" transform="translate(-126.692 -288.283)" fill="#0093b9"/>
        <path id="Trazado_179789" data-name="Trazado 179789" d="M272.231,367.256c1.421.015,2.842-.008,4.262.013.409.006.9-.045.98.541a7.55,7.55,0,0,1,.008,1.835c-.038.368-.3.462-.615.49-.386.035-.775.005-1.162.022a30.687,30.687,0,0,0-4.538.135.768.768,0,0,0-.177.142c.011.011.023.018.034.029,1.415-.014,2.83-.037,4.246-.041,2.679-.006,2.659,0,2.639-2.657,0-.619-.157-.826-.8-.816-2.026.031-4.054-.008-6.081-.019-.018.021-.038.035-.057.053a1.849,1.849,0,0,0,1.263.272" transform="translate(-212.763 -288.112)" fill="#0093b9"/>
        <path id="Trazado_179790" data-name="Trazado 179790" d="M166.327,370.277a29.431,29.431,0,0,0-4.54-.114c-1.841-.033-1.812-.008-1.792-1.812.009-.777.275-1.113,1.075-1.1,1.42.028,2.842.018,4.263,0a1.717,1.717,0,0,0,1.219-.278c-.017-.016-.034-.029-.05-.047-1.455.011-2.911.029-4.366.032-2.546.005-2.524,0-2.517,2.595,0,.667.179.89.868.88,2-.03,4.01.012,6.015.026.012-.012.025-.02.037-.032a.707.707,0,0,0-.212-.155" transform="translate(-125.332 -288.112)" fill="#0093b9"/>
        <path id="Trazado_179791" data-name="Trazado 179791" d="M207.616,381.87q-7.27-.015-14.54,0a1.668,1.668,0,0,0-1.239.287c.01.011.023.021.032.032h16.962c.008-.01.016-.02.025-.029a1.661,1.661,0,0,0-1.242-.289" transform="translate(-150.631 -299.837)" fill="#0093b9"/>
        <path id="Trazado_179792" data-name="Trazado 179792" d="M270.955,383.273h.06c-.011-.011-.023-.019-.034-.029l-.025.029" transform="translate(-212.753 -300.922)" fill="#0093b9"/>
        <path id="Trazado_179793" data-name="Trazado 179793" d="M191.663,383.263h.07c-.009-.011-.022-.021-.032-.032-.012.011-.025.02-.037.032" transform="translate(-150.493 -300.912)" fill="#0093b9"/>
        <path id="Trazado_179794" data-name="Trazado 179794" d="M191.948,366.931c-.017.018-.036.03-.053.046a1.575,1.575,0,0,0,1.216.294q7.28.017,14.56,0a1.587,1.587,0,0,0,1.209-.287c-.009-.007-.018-.012-.027-.02s-.012-.022-.018-.033H191.948" transform="translate(-150.675 -288.112)" fill="#0093b9"/>
        <path id="Trazado_179795" data-name="Trazado 179795" d="M270.776,366.963c.009.008.018.013.027.02.019-.018.039-.033.057-.053h-.1c.007.011.011.022.018.033" transform="translate(-212.598 -288.112)" fill="#0093b9"/>
        <path id="Trazado_179796" data-name="Trazado 179796" d="M191.767,366.931h-.1c.016.018.033.03.05.047.018-.016.036-.028.053-.046" transform="translate(-150.494 -288.112)" fill="#0093b9"/>
        <path id="Trazado_179797" data-name="Trazado 179797" d="M320.885,367.087c-1.7,0-1.7,0-1.7,1.729s0,1.729,1.706,1.729h.1c1.655,0,1.655,0,1.655-1.693,0-1.765,0-1.765-1.762-1.765" transform="translate(-250.626 -288.236)" fill="#0293b8"/>
        <path id="Trazado_179798" data-name="Trazado 179798" d="M129.3,367.085c-1.694,0-1.694,0-1.694,1.739,0,1.72,0,1.72,1.725,1.72s1.735,0,1.735-1.7c0-1.758,0-1.758-1.766-1.758" transform="translate(-100.197 -288.234)" fill="#0292b8"/>
        <path id="Trazado_179799" data-name="Trazado 179799" d="M355.949,270.675c-.061-.064-.131-.12-.19-.173a1.473,1.473,0,0,0-.2.089c-.858.559-2.181.861-2.442,1.722-.184.607.812,1.57,1.28,2.375.14.241.3.283.55.121.81-.527,2.034-.869,2.336-1.6.29-.7-.812-1.55-1.224-2.378a.672.672,0,0,0-.112-.158" transform="translate(-277.25 -212.397)" fill="#0193b9"/>
        <path id="Trazado_179800" data-name="Trazado 179800" d="M405.805,348.683c0-1.423-.017-2.846.008-4.268.01-.609-.114-.762-.691-.416q-2.826,1.693-5.691,3.319a1,1,0,0,0-.536,1.021c.015,2.748.024,5.5,0,8.245-.007.715.121.859.776.462q2.735-1.655,5.524-3.219a1.121,1.121,0,0,0,.625-1.167c-.033-1.325-.011-2.651-.011-3.977" transform="translate(-313.208 -269.964)" fill="#06687e"/>
        <path id="Trazado_179801" data-name="Trazado 179801" d="M111.242,183.552c2.17-3.585,4.369-7.153,6.558-10.728.169-.276.3-.607.671-.665-.1-.36.124-.646.291-.943.493-.871,1.065-1.7,1.572-2.558a.655.655,0,0,0-.252-1.044c-2.338-1.406-1.738-1.276-2.917.584-.346.545-.7,1.084-1.034,1.638a1.052,1.052,0,0,1-.61.547c.133.37-.1.651-.271.934q-3.331,5.456-6.668,10.909c-.152.249-.286.528-.61.574.087.314-.13.565-.275.824-.411.73-.847,1.447-1.292,2.157a.679.679,0,0,0,.285,1.105c2.305,1.318,1.617,1.365,2.892-.606.389-.6.567-1.395,1.326-1.7-.123-.415.146-.714.336-1.027" transform="translate(-83.409 -130.866)" fill="#0092b9"/>
        <path id="Trazado_179802" data-name="Trazado 179802" d="M149.435,169.044a1.052,1.052,0,0,0,.61-.547c.332-.554.688-1.093,1.034-1.638,1.18-1.86.58-1.991,2.917-.584a.655.655,0,0,1,.253,1.044c-.508.863-1.079,1.686-1.573,2.558-.168.3-.4.583-.291.943a.678.678,0,0,1,.076-.012c.72-1.216,1.42-2.445,2.169-3.643.266-.426.246-.665-.2-.912a19.912,19.912,0,0,1-1.809-1.111c-.468-.328-.684-.192-.952.262-.719,1.216-1.494,2.4-2.246,3.595.007.016.009.031.015.046" transform="translate(-117.324 -129.526)" fill="#0092b9"/>
        <path id="Trazado_179803" data-name="Trazado 179803" d="M109.572,243.555c-.758.308-.937,1.1-1.326,1.7-1.276,1.971-.587,1.924-2.892.606a.679.679,0,0,1-.285-1.105c.445-.71.88-1.427,1.292-2.157.146-.259.363-.51.275-.824a.636.636,0,0,1-.093.009c-.265.473-.535.943-.793,1.42-.421.777-1.434,1.582-1.182,2.273.242.666,1.419.975,2.153,1.486.412.287.622.237.878-.2.634-1.075,1.318-2.121,1.981-3.179,0-.012,0-.024-.009-.036" transform="translate(-82.076 -189.842)" fill="#0092b9"/>
        <path id="Trazado_179804" data-name="Trazado 179804" d="M114.826,195.815q3.327-5.459,6.668-10.909c.173-.284.4-.564.272-.934-.016,0-.031.009-.048.012-.393.678-.774,1.363-1.185,2.031q-3.169,5.149-6.351,10.288a.665.665,0,0,1,.035.086c.324-.046.459-.325.61-.574" transform="translate(-89.655 -144.454)" fill="#0092b9"/>
        <path id="Trazado_179805" data-name="Trazado 179805" d="M149.3,183.757h0l-.033.058c.017,0,.032-.008.048-.012-.006-.015-.008-.03-.015-.046" transform="translate(-117.202 -144.285)" fill="#0092b9"/>
        <path id="Trazado_179806" data-name="Trazado 179806" d="M114,241.462a.643.643,0,0,0-.035-.086l-.059.1h0a.636.636,0,0,0,.093-.009" transform="translate(-89.439 -189.528)" fill="#0092b9"/>
        <path id="Trazado_179807" data-name="Trazado 179807" d="M134.787,192.9c-2.188,3.575-4.387,7.142-6.558,10.728-.189.313-.459.612-.336,1.027l.037-.014c.263-.459.517-.923.794-1.373q3.375-5.484,6.759-10.963c-.009-.023-.019-.047-.026-.069-.372.059-.5.389-.671.665" transform="translate(-100.398 -150.941)" fill="#0092b9"/>
        <path id="Trazado_179808" data-name="Trazado 179808" d="M163.248,192.26l.05-.081a.69.69,0,0,0-.076.012c.007.023.017.046.026.069" transform="translate(-128.161 -150.898)" fill="#0092b9"/>
        <path id="Trazado_179809" data-name="Trazado 179809" d="M128.045,249.987l-.037.014c0,.012,0,.024.009.036h0l.029-.05" transform="translate(-100.511 -196.289)" fill="#0092b9"/>
        <path id="Trazado_179810" data-name="Trazado 179810" d="M169.641,142.9c.862.481,1.668,1.448,2.553,1.372.677-.058.941-1.332,1.434-2.037a2.061,2.061,0,0,0,.144-.249.241.241,0,0,0-.061-.339c-.841-.529-1.686-1.051-2.454-1.528-.234-.054-.338,0-.412.121-.453.738-.9,1.479-1.361,2.214-.144.231-.035.34.156.447" transform="translate(-133.027 -110)" fill="#0193b9"/>
        <path id="Trazado_179811" data-name="Trazado 179811" d="M94.2,272.066c-.817-.509-1.642-1.006-2.46-1.512-.252-.156-.352.03-.447.19-.471.8-1.259,1.588-1.288,2.4-.021.6,1.207.869,1.851,1.325.183.13.38.24.574.353.108.063.252.158.341.02.536-.837,1.058-1.683,1.587-2.53-.059-.1-.088-.206-.159-.25" transform="translate(-70.668 -212.392)" fill="#0193b9"/>
      </g>
    </g>
    <g id="Grupo_152933" data-name="Grupo 152933" transform="translate(778.646 -43.001)">
      <path id="Trazado_180001" data-name="Trazado 180001" d="M-7924.291-5724.464h31.068" transform="translate(8312 11316.062)" fill="none" stroke="#3156b4" stroke-width="4"/>
      <path id="Polígono_5" data-name="Polígono 5" d="M13,0,26,22H0Z" transform="translate(437 5578.097) rotate(90)" fill="#2754ba"/>
    </g>
  </g>
</svg>
