<svg xmlns="http://www.w3.org/2000/svg" xmlns:xlink="http://www.w3.org/1999/xlink" width="177.701" height="99.418" viewBox="0 0 177.701 99.418">
  <defs>
    <clipPath id="clip-path">
      <rect id="Rectángulo_66646" data-name="Rectángulo 66646" width="99.402" height="99.418" fill="none"/>
    </clipPath>
  </defs>
  <g id="Grupo_217270" data-name="Grupo 217270" transform="translate(-459.299 -5496.387)">
    <g id="Grupo_152911" data-name="Grupo 152911" transform="translate(459.299 5496.387)">
      <g id="Grupo_152910" data-name="Grupo 152910" clip-path="url(#clip-path)">
        <path id="Trazado_179434" data-name="Trazado 179434" d="M84.426,294.411a52.609,52.609,0,0,0,4.712-5.475,43.046,43.046,0,0,0,6.2-12.051,27.705,27.705,0,0,0,1.627-8.473l-1.54-.047c-1.1.016-2.2.044-3.294.045q-10.958.006-21.917,0c-.386,0-.771-.04-1.157-.061-7.392.041-14.784.09-22.176-.026h0c-1.6.6-2.919,1.469-3.349,3.28a4.864,4.864,0,0,0-.134,1.14q0,3.576,0,7.151A44.609,44.609,0,0,0,53,288.953,49.615,49.615,0,0,0,73.581,297.5c1.126.2,2.262.335,3.4.477a3.381,3.381,0,0,1,1.161.15h2.135c1.391-1.233,2.87-2.382,4.151-3.721" transform="translate(-32.137 -198.713)" fill="#3fbfdc"/>
        <path id="Trazado_179435" data-name="Trazado 179435" d="M191.609,297.454a47.488,47.488,0,0,0,13.543-3.172,49.648,49.648,0,0,0,23.176-18.7,9.761,9.761,0,0,0,.778-1.341c.047-.077.092-.156.139-.233a14.611,14.611,0,0,0-.077-2.3,4.7,4.7,0,0,0-2.951-3.529q-10.16-.022-20.32-.05a1.869,1.869,0,0,1-1.13-.125h0l-.377-.027c-.7.176-1.446-.123-2.139.177.415.437.251,1.015.186,1.532a38.653,38.653,0,0,1-2.91,10.509,43.318,43.318,0,0,1-8.757,13.135c-1.261,1.3-2.56,2.541-3.918,3.732a5.34,5.34,0,0,1-1.3.815h5.435c0-.446.359-.4.619-.42" transform="translate(-137.418 -198.455)" fill="#5dd4e4"/>
        <path id="Trazado_179436" data-name="Trazado 179436" d="M221.832,311.3a49.169,49.169,0,0,0,19.512-14.674,23.042,23.042,0,0,0,3.42-5h0c0-.13,0-.26,0-.39-.047.077-.092.156-.14.233a9.78,9.78,0,0,1-.778,1.341,49.649,49.649,0,0,1-23.176,18.7,47.486,47.486,0,0,1-13.543,3.172c-.26.021-.623-.026-.619.42a6.871,6.871,0,0,1,2.451-.35,48.226,48.226,0,0,0,12.877-3.449" transform="translate(-152.933 -215.678)" fill="#5dd4e4"/>
        <path id="Trazado_179437" data-name="Trazado 179437" d="M190.77,293.833a43.311,43.311,0,0,0,8.757-13.135,38.633,38.633,0,0,0,2.91-10.509c.066-.517.229-1.094-.186-1.532l-.008,0a27.7,27.7,0,0,1-1.627,8.473,43.039,43.039,0,0,1-6.2,12.051,52.6,52.6,0,0,1-4.712,5.475c-1.281,1.338-2.76,2.487-4.151,3.721a5.334,5.334,0,0,0,1.3-.815c1.357-1.191,2.657-2.436,3.918-3.732" transform="translate(-137.418 -198.962)" fill="#5dd4e4"/>
        <path id="Trazado_179438" data-name="Trazado 179438" d="M.459,122.521a51.383,51.383,0,0,0,3.256,13.39,52.57,52.57,0,0,0,3.835,7.66,15.133,15.133,0,0,1,.1-2.423,4.538,4.538,0,0,1,2.839-3.386l0-.01c-.734-.015-1.47-.059-2.2-.034-.554.019-.73-.19-.72-.732.028-1.455.009-2.91.009-4.365,0-6.531.06-13.064-.03-19.594-.035-2.558.964-4.239,3.308-5.157l0-.011c-.345-.01-.691-.026-1.036-.026-2.239,0-2.237,0-2.24-2.289q-.008-6.858-.021-13.716c-.945,1.8-2.013,3.533-2.85,5.4A49.562,49.562,0,0,0,.642,111.7c-.069.576-.176,1.146-.215,1.727-.018.26.009.619-.427.621v7.57c.551.1.419.566.459.908" transform="translate(0 -68.005)" fill="#574d70"/>
        <path id="Trazado_179439" data-name="Trazado 179439" d="M.427,112.523c.039-.581.146-1.151.215-1.727A49.554,49.554,0,0,1,4.7,96.327c.837-1.866,1.905-3.6,2.85-5.4q0-.157,0-.315h0A2.416,2.416,0,0,0,7.3,90.9,49.46,49.46,0,0,0,.563,109.27,26.164,26.164,0,0,1,0,113.144c.437,0,.41-.36.427-.621" transform="translate(0 -67.106)" fill="#574d70"/>
        <path id="Trazado_179440" data-name="Trazado 179440" d="M.193,207.142a47.572,47.572,0,0,0,1.564,8.738,45.891,45.891,0,0,0,5.787,13.1q.005-.187.006-.374a52.6,52.6,0,0,1-3.835-7.66,51.388,51.388,0,0,1-3.256-13.39c-.039-.342.092-.808-.459-.908.23.1.177.316.193.5" transform="translate(0 -153.035)" fill="#574d70"/>
        <path id="Trazado_179441" data-name="Trazado 179441" d="M49.359,17.907c.08,1.42.015,1.4-1.352,1.51-2.821.218-4.675,1.84-4.661,4.933.038,8.308.013,16.615.013,24.923l3.293.064h0c3.1-.011,6.195-.026,9.292-.031q12.149-.02,24.3-.032,2.6-2.214,5-4.653A42.717,42.717,0,0,0,94.568,30.1a33.261,33.261,0,0,0,2.353-9.894c.038-.558.324-.58.753-.615.712-.057,1.453.214,2.138-.158l-.014-.018c-2.6.008-5.206-.015-7.807.043-.826.018-1.18-.166-1.1-1.06a6.075,6.075,0,0,0-.152-2.209,4.5,4.5,0,0,0-4.236-3.365c-3.233-.032-6.467-.036-9.7.007a4.594,4.594,0,0,0-4.135,4.155c-.031.768.337,1.765-.153,2.248-.566.559-1.6.18-2.421.2-1.745.033-3.493-.033-5.237.029-.865.031-1.239-.184-1.134-1.112a5.3,5.3,0,0,0-1.653-4.59c-.057.008-.113.017-.171.02-3.033-1.166-6.2-.491-9.3-.673-.117-.006-.234-.009-.351-.013-.38.324-.917.41-1.293.753a4.8,4.8,0,0,0-1.6,4.064" transform="translate(-32.101 -9.478)" fill="#3ac083"/>
        <path id="Trazado_179442" data-name="Trazado 179442" d="M77.671,13.167c.117,0,.234.008.351.013,3.1.183,6.27-.493,9.3.673.058,0,.114-.013.171-.02-.039-.038-.077-.077-.117-.115h0a6.773,6.773,0,0,0-2.542-.815c-2.314,0-4.627.012-6.94.019a1.157,1.157,0,0,1-.223.245" transform="translate(-57.521 -9.556)" fill="#3ac083"/>
        <path id="Trazado_179443" data-name="Trazado 179443" d="M206.052,38.281l-.006.006-.035.018c.155.232-.162.3-.377.359a5.521,5.521,0,0,1-1.45.063c-.5-.005-.753.173-.812.717a40.466,40.466,0,0,1-6.556,17.768A48.069,48.069,0,0,1,187.2,67.8a4.231,4.231,0,0,1-.459.344l5.126.059,6.408-.011h0l6.57.014,3.708,0,13.973,0L226.8,68.2c.839-.007,1.682-.064,2.516-.006.768.053.8-.343.8-.935-.016-4.681-.009-9.362-.008-14.043,0-.347.008-.694.014-1.042-.067-.126-.134-.251-.2-.377-.212-2.055-.052-4.117-.1-6.175-.019-.9.011-1.8-.008-2.7a4.2,4.2,0,0,0-4.144-4.337,2.741,2.741,0,0,1-1.41-.228c-.017-.023-.029-.046-.044-.07l-14.3,0-3.872,0" transform="translate(-138.3 -28.35)" fill="#52d0a4"/>
        <path id="Trazado_179444" data-name="Trazado 179444" d="M331.256,38.352a2.738,2.738,0,0,0,1.41.227,4.2,4.2,0,0,1,4.144,4.337c.019.9-.011,1.8.008,2.7.044,2.058-.116,4.119.1,6.174.066.126.133.251.2.377,0-.1,0-.209.006-.314h0q-.01-4.54-.022-9.08a4.345,4.345,0,0,0-3.509-4.342,16.687,16.687,0,0,0-2.3-.154h-.073c.015.023.027.047.044.07" transform="translate(-245.288 -28.351)" fill="#52d0a4"/>
        <path id="Trazado_179445" data-name="Trazado 179445" d="M186.331,67.875a48.062,48.062,0,0,0,9.611-10.593A40.463,40.463,0,0,0,202.5,39.513c.059-.544.308-.722.812-.717a5.519,5.519,0,0,0,1.45-.063c.215-.056.532-.126.377-.359-.685.372-1.426.1-2.137.158-.429.035-.715.057-.753.615a33.257,33.257,0,0,1-2.353,9.894,42.718,42.718,0,0,1-9.329,14.52q-2.4,2.443-5,4.653l.306,0a4.231,4.231,0,0,0,.459-.344" transform="translate(-137.426 -28.42)" fill="#52d0a4"/>
        <path id="Trazado_179446" data-name="Trazado 179446" d="M346.449,107.366c0,1.69-.208,1.883-1.913,1.846-.374-.008-.748-.029-1.122-.033,1.984.974,2.772,2.642,2.748,5-.079,7.754-.025,15.509-.031,23.264,0,1.5.206,1.293-1.359,1.317-.415.006-.831.017-1.247.026a4.806,4.806,0,0,1,2.776,5.592,49.33,49.33,0,0,0,2.458-46.556c-.731-1.558-1.594-3.041-2.409-4.552a6.674,6.674,0,0,1,.108,1.306c-.011,4.264,0,8.527-.008,12.791" transform="translate(-254.324 -69.072)" fill="#574d70"/>
        <path id="Trazado_179447" data-name="Trazado 179447" d="M356.584,95.855a49.331,49.331,0,0,1-2.458,46.556c-.039.209-.085.421-.145.637.183-.26.387-.508.546-.782A49.279,49.279,0,0,0,359.1,101.5a40.948,40.948,0,0,0-5.122-10.89,4.188,4.188,0,0,1,.194.689c.815,1.511,1.678,2.994,2.409,4.552" transform="translate(-262.15 -67.107)" fill="#574d70"/>
        <path id="Trazado_179448" data-name="Trazado 179448" d="M342.7,268.719l-.4.009h0a4.7,4.7,0,0,1,2.95,3.529,14.637,14.637,0,0,1,.078,2.3c.05-.082.1-.165.148-.247a4.806,4.806,0,0,0-2.776-5.592" transform="translate(-253.498 -199.007)" fill="#574d70"/>
        <path id="Trazado_179449" data-name="Trazado 179449" d="M353.97,290.523c0,.13,0,.26,0,.39h0c.059-.216.106-.428.145-.637-.05.082-.1.165-.148.247" transform="translate(-262.142 -214.972)" fill="#574d70"/>
        <path id="Trazado_179450" data-name="Trazado 179450" d="M344.459,106.906c0,.592-.034.988-.8.935-.835-.058-1.677,0-2.517.006.209.079.4.167.59.259.374,0,.748.024,1.122.033,1.7.038,1.91-.156,1.913-1.846.008-4.264,0-8.528.008-12.791a6.678,6.678,0,0,0-.108-1.306q-.1-.187-.2-.375c-.007.347-.014.694-.015,1.042,0,4.681-.008,9.363.008,14.044" transform="translate(-252.64 -68.001)" fill="#574d70"/>
        <path id="Trazado_179451" data-name="Trazado 179451" d="M353.957,90.927q.1.188.2.375a4.223,4.223,0,0,0-.194-.689h0q0,.157-.006.314" transform="translate(-262.132 -67.106)" fill="#574d70"/>
        <path id="Trazado_179452" data-name="Trazado 179452" d="M117.593,7.17a5.583,5.583,0,0,1,.3,2.387c-.019.637.228.951.9.948,2.164-.008,4.328-.013,6.493,0,.718.005.99-.32.959-1a10.139,10.139,0,0,1,.012-1.065,4.8,4.8,0,0,1,4.514-4.509q4.795-.128,9.593,0a4.752,4.752,0,0,1,4.684,4.843c.046,1.827-.021,1.73,1.783,1.73s3.618,0,5.427,0a3.186,3.186,0,0,1,1.242.131.876.876,0,0,1,.161.159h.049l-.008-.006a22.265,22.265,0,0,1,.039-2.774,4.945,4.945,0,0,1,1.6-2.878,5.5,5.5,0,0,1-1.242-.416,49.507,49.507,0,0,0-36.321-.229,10.075,10.075,0,0,1-1.7.623c.876.379,1.169,1.249,1.512,2.055" transform="translate(-85.967 -0.859)" fill="#574d70"/>
        <path id="Trazado_179453" data-name="Trazado 179453" d="M117.047,3.633a49.507,49.507,0,0,1,36.321.229,5.513,5.513,0,0,0,1.242.416c.043-.042.084-.085.128-.126h0a49.355,49.355,0,0,0-39.654.009h0a2.106,2.106,0,0,1,.258.094,10.075,10.075,0,0,0,1.7-.623" transform="translate(-85.229 0.001)" fill="#574d70"/>
        <path id="Trazado_179454" data-name="Trazado 179454" d="M117.193,17.457c-.105.927.269,1.143,1.134,1.112,1.744-.062,3.492,0,5.237-.028.825-.016,1.855.363,2.421-.2.489-.484.122-1.48.153-2.248a4.593,4.593,0,0,1,4.135-4.155c3.232-.043,6.466-.04,9.7-.007a4.5,4.5,0,0,1,4.236,3.365,6.075,6.075,0,0,1,.152,2.209c-.083.894.271,1.078,1.1,1.06,2.6-.057,5.2-.035,7.807-.043a.887.887,0,0,0-.161-.158,3.18,3.18,0,0,0-1.242-.131c-1.809,0-3.618,0-5.427,0s-1.737.1-1.783-1.73a4.752,4.752,0,0,0-4.684-4.843q-4.794-.13-9.593,0a4.8,4.8,0,0,0-4.514,4.509,10.146,10.146,0,0,0-.012,1.066c.031.681-.241,1.007-.959,1-2.164-.016-4.328-.011-6.493,0-.675,0-.922-.312-.9-.948a5.583,5.583,0,0,0-.3-2.387c-.343-.805-.636-1.676-1.512-2.055-.046.009-.094.015-.141.021a5.3,5.3,0,0,1,1.653,4.59" transform="translate(-85.566 -8.589)" fill="#574d70"/>
        <path id="Trazado_179455" data-name="Trazado 179455" d="M115.345,16.14a2.064,2.064,0,0,0-.258-.094c.04.038.078.077.117.115.047-.006.094-.012.141-.021" transform="translate(-85.231 -11.883)" fill="#574d70"/>
        <path id="Trazado_179456" data-name="Trazado 179456" d="M32.708,50.1l.313-.049a1.82,1.82,0,0,1-.215-1.154q-.012-12.026,0-24.052c.006-2.694,1.551-4.388,4.332-4.861,1.645-.279,1.645-.279,1.68-1.957a4.357,4.357,0,0,1,2.814-4.184c-.664-.017-1.329-.012-1.992.027A4.215,4.215,0,0,0,35.5,18.191c-.02.69.184,1.418-.254,2.061-.67.383-1.45.033-2.132.326a4.143,4.143,0,0,0-3.417,4.394c-.015,2.446,0,4.893,0,7.339a5.477,5.477,0,0,1-.087,1.345c-.037.073-.076.144-.113.217a2.22,2.22,0,0,1,.223,1.431c.012,4.314,0,8.628.008,12.942,0,1.482.022,1.491,1.515,1.516a2.49,2.49,0,0,1,1.408.224.748.748,0,0,1,.042.11h.027" transform="translate(-21.836 -10.244)" fill="#31ae7d"/>
        <path id="Trazado_179457" data-name="Trazado 179457" d="M29.31,32.935A5.477,5.477,0,0,0,29.4,31.59c0-2.446-.01-4.893,0-7.339a4.143,4.143,0,0,1,3.417-4.394c.683-.294,1.463.056,2.132-.327.439-.643.234-1.371.254-2.061a4.215,4.215,0,0,1,4.148-4.321c.662-.04,1.327-.045,1.992-.027.183-.082.373-.161.575-.232-.807-.011-1.614-.032-2.421-.031a4.467,4.467,0,0,0-4.366,3.133,13.591,13.591,0,0,0-.2,3.451c-.682.432-1.433.118-2.148.2h0a4.2,4.2,0,0,0-3.664,4.183c-.026,3.068-.021,6.137-.029,9.2h0a1.138,1.138,0,0,1,.1.123c.037-.072.076-.144.113-.217" transform="translate(-21.548 -9.522)" fill="#31ae7d"/>
        <path id="Trazado_179458" data-name="Trazado 179458" d="M30.945,106.977c-1.493-.025-1.513-.034-1.515-1.516,0-4.314,0-8.628-.008-12.942a2.22,2.22,0,0,0-.223-1.431l-.1.192q.011,6.858.021,13.716c0,2.287,0,2.286,2.24,2.289.345,0,.691.017,1.036.026a.737.737,0,0,0-.042-.11,2.489,2.489,0,0,0-1.408-.224" transform="translate(-21.549 -67.457)" fill="#31ae7d"/>
        <path id="Trazado_179459" data-name="Trazado 179459" d="M29.2,90.736a1.062,1.062,0,0,0-.1-.123c0,.1,0,.21,0,.315l.1-.192" transform="translate(-21.548 -67.106)" fill="#31ae7d"/>
        <path id="Trazado_179460" data-name="Trazado 179460" d="M48.274,18.054c-.035,1.678-.035,1.678-1.68,1.957-2.781.472-4.325,2.166-4.332,4.86q-.03,12.026,0,24.052a1.818,1.818,0,0,0,.215,1.154l.073-.011c0-8.308.025-16.615-.013-24.922-.015-3.093,1.84-4.715,4.661-4.933,1.367-.106,1.433-.09,1.352-1.51a4.794,4.794,0,0,1,1.6-4.064c.377-.343.913-.429,1.293-.754-.117,0-.234-.01-.351-.013a4.357,4.357,0,0,0-2.814,4.184" transform="translate(-31.289 -10.272)" fill="#31ae7d"/>
        <path id="Trazado_179461" data-name="Trazado 179461" d="M76.668,13.221a1.157,1.157,0,0,0,.223-.245c-.2.071-.391.15-.575.232.117,0,.234.009.351.013" transform="translate(-56.519 -9.61)" fill="#31ae7d"/>
        <path id="Trazado_179462" data-name="Trazado 179462" d="M276.043,18.781c.019.386.01.774.006,1.162l.085,0c4.4-.064,8.794-.019,13.191-.023a1.73,1.73,0,0,1,.958.2,2.972,2.972,0,0,1-.149-1.411c-.038-3.081-1.722-4.783-4.785-4.8-2.059-.012-4.117,0-6.175,0-.091-.006-.182-.008-.273-.013a13.606,13.606,0,0,0-1.686,1.148,4.862,4.862,0,0,0-1.17,3.734" transform="translate(-204.424 -10.293)" fill="#3ac084"/>
        <path id="Trazado_179463" data-name="Trazado 179463" d="M287.084,13.12c.091,0,.182.007.273.013,2.059,0,4.117-.013,6.175,0,3.064.018,4.747,1.719,4.785,4.8a2.971,2.971,0,0,0,.15,1.411,1.106,1.106,0,0,1,.138.1c0-.711.006-1.423-.016-2.133a4.5,4.5,0,0,0-4.376-4.441c-2.293-.056-4.589,0-6.883.009a1.963,1.963,0,0,1-.246.24" transform="translate(-212.608 -9.515)" fill="#3ac084"/>
        <path id="Trazado_179464" data-name="Trazado 179464" d="M276.176,37.091h-.085c0,.095,0,.19,0,.284l14.3,0c-.022-.034-.046-.067-.065-.1a1.73,1.73,0,0,0-.958-.2c-4.4,0-8.794-.041-13.191.023" transform="translate(-204.465 -27.443)" fill="#3ac084"/>
        <path id="Trazado_179465" data-name="Trazado 179465" d="M331.028,37.99h.073a1.091,1.091,0,0,0-.138-.1c.018.035.042.068.065.1" transform="translate(-245.104 -28.059)" fill="#3ac084"/>
        <path id="Trazado_179466" data-name="Trazado 179466" d="M261.368,18.868a1.586,1.586,0,0,1-.258,1.279h.014l.128-.121a14.76,14.76,0,0,1,3.67-.16c-.675-2.608.251-5.111,2.534-6.064a10.941,10.941,0,0,0-4.565.708h-.005a.808.808,0,0,1-.236.463,5.054,5.054,0,0,0-1.282,3.894" transform="translate(-193.372 -10.216)" fill="#31af7d"/>
        <path id="Trazado_179467" data-name="Trazado 179467" d="M267.942,13.746h.005a10.937,10.937,0,0,1,4.565-.708,4.856,4.856,0,0,1,.638-.221c-1.787-.065-3.591-.248-5.213.787h0a.569.569,0,0,1,0,.142" transform="translate(-198.429 -9.451)" fill="#31af7d"/>
        <path id="Trazado_179468" data-name="Trazado 179468" d="M264.963,37.1a14.772,14.772,0,0,0-3.67.16l-.128.121,3.872,0c-.029-.095-.049-.189-.074-.283" transform="translate(-193.413 -27.45)" fill="#31af7d"/>
        <path id="Trazado_179469" data-name="Trazado 179469" d="M261.076,19.373a22.353,22.353,0,0,0-.039,2.774,1.586,1.586,0,0,0,.258-1.279,5.054,5.054,0,0,1,1.282-3.894.807.807,0,0,0,.236-.464c-.045,0-.088-.009-.132-.016a4.944,4.944,0,0,0-1.6,2.878" transform="translate(-193.3 -12.216)" fill="#31af7d"/>
        <path id="Trazado_179470" data-name="Trazado 179470" d="M267.444,16.134c.044.006.088.012.132.016a.583.583,0,0,0,0-.142h0c-.044.041-.085.085-.128.126" transform="translate(-198.063 -11.855)" fill="#31af7d"/>
        <path id="Trazado_179471" data-name="Trazado 179471" d="M275.189,19.89h.076c0-.387.013-.775-.006-1.161a4.863,4.863,0,0,1,1.171-3.734,13.606,13.606,0,0,1,1.686-1.148c-.131-.006-.262-.015-.392-.018-2.283.953-3.209,3.456-2.534,6.063" transform="translate(-203.639 -10.24)" fill="#31af7d"/>
        <path id="Trazado_179472" data-name="Trazado 179472" d="M285.964,13.214a1.963,1.963,0,0,0,.246-.24,4.858,4.858,0,0,0-.638.221c.13,0,.262.012.392.019" transform="translate(-211.488 -9.608)" fill="#31af7d"/>
        <path id="Trazado_179473" data-name="Trazado 179473" d="M275.881,37.195H275.8c.024.094.045.188.074.283,0-.095,0-.189,0-.284" transform="translate(-204.255 -27.546)" fill="#31af7d"/>
        <path id="Trazado_179474" data-name="Trazado 179474" d="M45.479,38.235c-.709.141-1.457-.138-2.148.2.7-.259,1.454.1,2.148-.2" transform="translate(-32.09 -28.316)" fill="#3ac083"/>
        <path id="Trazado_179475" data-name="Trazado 179475" d="M45.478,38.235c-.694.3-1.449-.059-2.148.2h0c.714-.082,1.466.232,2.148-.2" transform="translate(-32.089 -28.316)" fill="#3ac083"/>
        <path id="Trazado_179476" data-name="Trazado 179476" d="M84.762,159.67a20.55,20.55,0,0,0,.866-5.626c-1.455.05-2.909.023-4.364.014a1.427,1.427,0,0,1-.958-.218,1.791,1.791,0,0,1-.441.159,4.7,4.7,0,0,1-.966.071q-16.113,0-32.226,0a4.211,4.211,0,0,0-.594-.043,4.893,4.893,0,0,0-2.8,4.944c.086,8.178.043,16.357.049,24.536l2.914.03c.233-.09.475-.174.732-.25,7,.121,14,.02,21,.053a9.328,9.328,0,0,1,.967.014H69.2c1.443-1.36,2.986-2.61,4.373-4.037A43.732,43.732,0,0,0,84.762,159.67" transform="translate(-32.052 -113.93)" fill="#ec55a8"/>
        <path id="Trazado_179477" data-name="Trazado 179477" d="M77.4,267.4a9.325,9.325,0,0,0-.967-.014c-7-.033-14,.068-21-.053-.257.075-.5.16-.732.25l.551.006h0c7.392.116,14.784.067,22.177.026.076-.073.153-.143.229-.216H77.4" transform="translate(-40.512 -197.984)" fill="#ec55a8"/>
        <path id="Trazado_179478" data-name="Trazado 179478" d="M54.666,153.74q16.113.024,32.226,0a4.7,4.7,0,0,0,.966-.071,1.791,1.791,0,0,0,.441-.159.858.858,0,0,1-.114-.114q-12.149.016-24.3.032c-3.1,0-6.195.021-9.292.031-.184.073-.356.152-.524.235a4.172,4.172,0,0,1,.594.043" transform="translate(-40.044 -113.604)" fill="#ec55a8"/>
        <path id="Trazado_179479" data-name="Trazado 179479" d="M186.962,153.741c1.455.009,2.909.036,4.364-.014,0-.086,0-.171,0-.257l-5.126-.059c-.063.04-.126.077-.192.111a1.428,1.428,0,0,0,.958.218" transform="translate(-137.75 -113.613)" fill="#ec55a8"/>
        <path id="Trazado_179480" data-name="Trazado 179480" d="M185.68,153.513c.066-.034.13-.071.192-.111l-.306,0a.858.858,0,0,0,.114.114" transform="translate(-137.426 -113.604)" fill="#ec55a8"/>
        <path id="Trazado_179481" data-name="Trazado 179481" d="M170.079,157.7h0a5.164,5.164,0,0,0-2.645-3.059c-.218,0-.437,0-.656,0-2.087.019-4.173.035-6.26-.005a2.387,2.387,0,0,1,.048,1.327,41.705,41.705,0,0,1-7.213,18.225,47.191,47.191,0,0,1-8.345,9.139,5.7,5.7,0,0,1-.808.612c8.117-.033,16.233-.007,24.35-.015a12.578,12.578,0,0,1,1.353.026l.174,0,0-26.25h0" transform="translate(-106.792 -114.52)" fill="#f385c2"/>
        <path id="Trazado_179482" data-name="Trazado 179482" d="M168.5,267.545a12.576,12.576,0,0,0-1.353-.026c-8.117.007-16.234-.018-24.35.014a2.2,2.2,0,0,1-.49.216c.385.021.771.061,1.157.061q10.958.005,21.917,0c1.1,0,2.2-.029,3.294-.045v-.219l-.174,0" transform="translate(-105.392 -198.115)" fill="#f385c2"/>
        <path id="Trazado_179483" data-name="Trazado 179483" d="M206.662,153.865c2.087.04,4.173.025,6.26.006l.656,0a5.823,5.823,0,0,0-.662-.278h0l-6.408.011a1.2,1.2,0,0,1,.155.258" transform="translate(-152.934 -113.749)" fill="#f385c2"/>
        <path id="Trazado_179484" data-name="Trazado 179484" d="M152.609,174.182a41.705,41.705,0,0,0,7.213-18.225,2.385,2.385,0,0,0-.048-1.327l-.151,0h0a20.55,20.55,0,0,1-.866,5.626A43.73,43.73,0,0,1,147.568,179.9c-1.387,1.427-2.929,2.677-4.373,4.037h.261a5.672,5.672,0,0,0,.808-.611,47.184,47.184,0,0,0,8.345-9.139" transform="translate(-106.047 -114.513)" fill="#f385c2"/>
        <path id="Trazado_179485" data-name="Trazado 179485" d="M142.54,267.591c-.076.072-.154.143-.229.215a2.195,2.195,0,0,0,.49-.216h-.261" transform="translate(-105.392 -198.171)" fill="#f385c2"/>
        <path id="Trazado_179486" data-name="Trazado 179486" d="M206.512,153.895l.151,0a1.2,1.2,0,0,0-.155-.259c0,.086,0,.171,0,.257h0" transform="translate(-152.935 -113.781)" fill="#f385c2"/>
        <path id="Trazado_179487" data-name="Trazado 179487" d="M247.891,158.527a3.988,3.988,0,0,1,2.248-3.675c.16-.087.325-.166.491-.243-1.048-.018-2.1.072-3.145.01l-.658,0a4.9,4.9,0,0,0-2.536,2.835c.055.168.107.34.154.517a8.433,8.433,0,0,1,.063,1.355q0,11.576-.005,23.152a2.936,2.936,0,0,1-.15,1.45,3.673,3.673,0,0,1,1.227.114,1.177,1.177,0,0,1,.167.145c.183-.581.694-.4,1.091-.442a4.592,4.592,0,0,1,1.028.015l.024,0c0-8.413-.016-16.825,0-25.237" transform="translate(-180.916 -114.498)" fill="#ecc41c"/>
        <path id="Trazado_179488" data-name="Trazado 179488" d="M245.325,267.746a3.673,3.673,0,0,0-1.227-.114,1.205,1.205,0,0,1-.149.22l1.54.046,0-.007a1.177,1.177,0,0,0-.167-.145" transform="translate(-180.663 -198.201)" fill="#ecc41c"/>
        <path id="Trazado_179489" data-name="Trazado 179489" d="M252.038,266.887l-.024,0a4.577,4.577,0,0,0-1.028-.015c-.4.046-.908-.139-1.091.442l0,0c.693-.3,1.435,0,2.139-.177q0-.126,0-.253" transform="translate(-185.066 -197.621)" fill="#ecc41c"/>
        <path id="Trazado_179490" data-name="Trazado 179490" d="M249.885,268.646l.008,0,0,0,0,.008" transform="translate(-185.059 -198.947)" fill="#ecc41c"/>
        <path id="Trazado_179491" data-name="Trazado 179491" d="M254.722,153.9c1.048.062,2.1-.028,3.145-.01.182-.085.365-.167.545-.253l-3.708,0a5.88,5.88,0,0,0-.64.263l.658,0" transform="translate(-188.154 -113.782)" fill="#ecc41c"/>
        <path id="Trazado_179492" data-name="Trazado 179492" d="M244.249,190.614q.014-11.576.005-23.152a8.463,8.463,0,0,0-.063-1.355c-.047-.177-.1-.348-.154-.517-.028.076-.061.147-.087.225h0q0,13.125,0,26.25h.149a2.937,2.937,0,0,0,.15-1.451" transform="translate(-180.663 -122.632)" fill="#ecc41c"/>
        <path id="Trazado_179493" data-name="Trazado 179493" d="M243.949,267.642v.219a1.205,1.205,0,0,0,.149-.22h-.149" transform="translate(-180.663 -198.209)" fill="#ecc41c"/>
        <path id="Trazado_179494" data-name="Trazado 179494" d="M32.045,268.927a4.476,4.476,0,0,0-2.3,4.524,1.543,1.543,0,0,1-.145,1.013,27.329,27.329,0,0,0,2.78,4.1,9.116,9.116,0,0,1,.56.84c-.1-2.35-.091-4.7-.012-7.049a4.259,4.259,0,0,1,2.868-3.942,4.7,4.7,0,0,1-2.63-.137c-.218.174-.5.07-.739.152l-.02.01c.122.24-.181.388-.367.493" transform="translate(-21.924 -198.676)" fill="#129abc"/>
        <path id="Trazado_179495" data-name="Trazado 179495" d="M42.26,272.388c-.079,2.347-.086,4.7.012,7.049a4.9,4.9,0,0,1,.238.456q0-3.576,0-7.151a4.867,4.867,0,0,1,.134-1.14c.43-1.811,1.75-2.681,3.349-3.28-.288.034-.577.081-.866.124a4.259,4.259,0,0,0-2.868,3.942" transform="translate(-31.252 -198.713)" fill="#129abc"/>
        <path id="Trazado_179496" data-name="Trazado 179496" d="M32,296.237a27.275,27.275,0,0,1-2.78-4.1.832.832,0,0,1-.136.153h0a24.965,24.965,0,0,0,3.482,4.972c0-.063,0-.125-.006-.188a9.173,9.173,0,0,0-.56-.84" transform="translate(-21.536 -216.352)" fill="#129abc"/>
        <path id="Trazado_179497" data-name="Trazado 179497" d="M42.485,311.357c.077.089.153.18.231.268a4.932,4.932,0,0,0-.238-.456c0,.063,0,.125.006.188" transform="translate(-31.459 -230.445)" fill="#129abc"/>
        <path id="Trazado_179498" data-name="Trazado 179498" d="M29.227,274.925a1.543,1.543,0,0,0,.145-1.013,4.476,4.476,0,0,1,2.3-4.524c.186-.105.489-.253.367-.493a4.539,4.539,0,0,0-2.839,3.386,15.133,15.133,0,0,0-.1,2.423c.038.063.074.126.113.188l.017.033" transform="translate(-21.547 -199.137)" fill="#129abc"/>
        <path id="Trazado_179499" data-name="Trazado 179499" d="M29.2,291.473c-.038-.062-.075-.126-.113-.188,0,.125,0,.25-.006.374a.822.822,0,0,0,.136-.153l-.017-.034" transform="translate(-21.535 -215.719)" fill="#129abc"/>
        <path id="Trazado_179500" data-name="Trazado 179500" d="M43.352,268.208a4.7,4.7,0,0,0,2.63.137q.154-.067.315-.13l-2.914-.03c-.01.009-.02.015-.031.023" transform="translate(-32.105 -198.612)" fill="#129abc"/>
        <path id="Trazado_179501" data-name="Trazado 179501" d="M53.8,268.3q-.161.062-.315.13c.288-.043.577-.09.865-.124h0L53.8,268.3" transform="translate(-39.613 -198.697)" fill="#129abc"/>
        <path id="Trazado_179502" data-name="Trazado 179502" d="M283.5,183.933c.65-.012.946-.275.941-.929-.007-.776,0-1.552,0-2.328,0-6.984-.041-13.969.025-20.953.021-2.186-.631-3.852-2.632-4.873a.9.9,0,0,1-.313-.228h-.025c-1.448.031-2.9.036-4.346-.005h-.029c-.27,1.717-.456,3.442-.862,5.146a41.6,41.6,0,0,1-4.665,11.492,48.9,48.9,0,0,1-9.059,10.991c-.632.588-1.339,1.094-2.024,1.625a2.816,2.816,0,0,0,.773.043q9.577,0,19.154,0a5.7,5.7,0,0,1,1.155.074c.1.038.2.082.3.124a2.978,2.978,0,0,1,1.609-.181" transform="translate(-192.927 -114.506)" fill="#fee483"/>
        <path id="Trazado_179503" data-name="Trazado 179503" d="M280.928,267.5a5.7,5.7,0,0,0-1.155-.074q-9.577-.006-19.154,0a2.816,2.816,0,0,1-.773-.043c-.077.06-.156.119-.232.18h0a1.87,1.87,0,0,0,1.13.125q10.16.033,20.32.05a1.2,1.2,0,0,1,.16-.112c-.1-.042-.194-.086-.3-.124" transform="translate(-192.264 -198.018)" fill="#fee483"/>
        <path id="Trazado_179504" data-name="Trazado 179504" d="M324.564,153.863c1.449.041,2.9.036,4.346.005h.025a.424.424,0,0,1-.091-.269l-4.269.013c-.014.084-.026.168-.039.252h.029" transform="translate(-240.343 -113.752)" fill="#fee483"/>
        <path id="Trazado_179505" data-name="Trazado 179505" d="M344.707,182.859c.007-7.755-.047-15.51.031-23.264.024-2.356-.763-4.025-2.748-5-.166,0-.333,0-.5.009a.906.906,0,0,0,.313.228c2,1.021,2.652,2.687,2.632,4.873-.066,6.984-.024,13.969-.025,20.953,0,.776-.008,1.552,0,2.328.005.655-.291.917-.94.929a2.979,2.979,0,0,0-1.609.181c.08.035.163.067.24.1.416-.01.831-.02,1.247-.027,1.565-.024,1.358.183,1.359-1.317" transform="translate(-252.901 -114.49)" fill="#fee483"/>
        <path id="Trazado_179506" data-name="Trazado 179506" d="M342.7,268.424c-.077-.037-.16-.069-.241-.1a1.2,1.2,0,0,0-.16.112h0l.4-.009" transform="translate(-253.498 -198.712)" fill="#fee483"/>
        <path id="Trazado_179507" data-name="Trazado 179507" d="M341.731,153.858c-.187-.092-.381-.18-.59-.259a.425.425,0,0,0,.091.269c.166-.009.332-.011.5-.009" transform="translate(-252.641 -113.752)" fill="#fee483"/>
        <path id="Trazado_179508" data-name="Trazado 179508" d="M259.637,183.27a46.274,46.274,0,0,0,12.208-15.464,35.88,35.88,0,0,0,3.581-12.5,1.512,1.512,0,0,1,.188-.683c-4.561.055-9.122.023-13.683.021-.051,0-.1,0-.153-.007a1.614,1.614,0,0,1-.646.412,4.126,4.126,0,0,0-2.253,3.975q.009,11.664,0,23.328a3.164,3.164,0,0,1-.139,1.435,2.214,2.214,0,0,1,.3.05,2.1,2.1,0,0,1,.6-.568" transform="translate(-191.615 -114.511)" fill="#fedd56"/>
        <path id="Trazado_179509" data-name="Trazado 179509" d="M258.308,267.045a1.251,1.251,0,0,1-.15.241h0l.378.026h0a.691.691,0,0,1,.072-.218,2.215,2.215,0,0,0-.3-.05" transform="translate(-191.185 -197.767)" fill="#fedd56"/>
        <path id="Trazado_179510" data-name="Trazado 179510" d="M270.456,153.908c.051,0,.1,0,.153.007,4.561,0,9.122.034,13.683-.021a.9.9,0,0,1,.233-.253l-13.973,0a.591.591,0,0,1-.1.269" transform="translate(-200.293 -113.782)" fill="#fedd56"/>
        <path id="Trazado_179511" data-name="Trazado 179511" d="M258.426,182.347q.012-11.664,0-23.328a4.127,4.127,0,0,1,2.253-3.975,1.614,1.614,0,0,0,.646-.412c-.15-.008-.3-.013-.449-.016-.166.077-.33.156-.491.243a3.989,3.989,0,0,0-2.247,3.675c-.019,8.412-.006,16.825,0,25.237.051,0,.1.007.151.012a3.163,3.163,0,0,0,.138-1.435" transform="translate(-191.165 -114.504)" fill="#fedd56"/>
        <path id="Trazado_179512" data-name="Trazado 179512" d="M258.308,267.011c-.05,0-.1-.011-.151-.012v.253h0a1.252,1.252,0,0,0,.15-.241" transform="translate(-191.185 -197.733)" fill="#fedd56"/>
        <path id="Trazado_179513" data-name="Trazado 179513" d="M269.173,153.908a.591.591,0,0,0,.1-.269c-.181.086-.364.169-.545.253.15,0,.3.008.449.016" transform="translate(-199.011 -113.782)" fill="#fedd56"/>
        <path id="Trazado_179514" data-name="Trazado 179514" d="M271.136,171.256a41.6,41.6,0,0,0,4.665-11.492c.406-1.7.592-3.429.862-5.146l-.194,0a1.513,1.513,0,0,0-.188.684,35.875,35.875,0,0,1-3.581,12.5,46.274,46.274,0,0,1-12.208,15.464,2.1,2.1,0,0,0-.6.568c.024.006.048.009.072.015s.059.015.088.023c.685-.531,1.392-1.037,2.024-1.625a48.881,48.881,0,0,0,9.059-10.991" transform="translate(-192.471 -114.507)" fill="#fedd56"/>
        <path id="Trazado_179515" data-name="Trazado 179515" d="M259.759,267.251c-.024-.006-.048-.009-.072-.015a.685.685,0,0,0-.072.218c.077-.061.155-.12.232-.18a.887.887,0,0,1-.088-.023" transform="translate(-192.265 -197.909)" fill="#fedd56"/>
        <path id="Trazado_179516" data-name="Trazado 179516" d="M323.789,153.9l.194,0c.013-.084.026-.168.039-.252a.9.9,0,0,0-.233.253" transform="translate(-239.791 -113.788)" fill="#fedd56"/>
        <path id="Trazado_179517" data-name="Trazado 179517" d="M32.9,183.468a.6.6,0,0,1,.7-.19,1.942,1.942,0,0,1-.254-1.263q-.01-11.883,0-23.765a5,5,0,0,1,.132-1.348,4.2,4.2,0,0,1,2.487-3.079,5.216,5.216,0,0,1-2.286-.176.992.992,0,0,1-.078-.09.262.262,0,0,1-.339.018l-.024.01c.1.369-.29.43-.5.548a4.617,4.617,0,0,0-2.5,4.458c.057,7.6.024,15.2.022,22.8,0,1.79,0,1.77,1.673,1.754a1.877,1.877,0,0,1,.76.123.666.666,0,0,1,.183.195H32.9" transform="translate(-22.396 -113.72)" fill="#da428e"/>
        <path id="Trazado_179518" data-name="Trazado 179518" d="M31.825,183.354a1.872,1.872,0,0,0-.76-.123c-1.676.016-1.674.036-1.673-1.754,0-7.6.035-15.2-.022-22.8a4.618,4.618,0,0,1,2.5-4.458c.212-.119.6-.179.5-.548-2.344.918-3.343,2.6-3.308,5.157.09,6.53.03,13.063.03,19.594,0,1.455.019,2.91-.009,4.365-.01.543.166.751.72.732.733-.025,1.469.019,2.2.034a.666.666,0,0,0-.183-.194" transform="translate(-21.524 -113.801)" fill="#da428e"/>
        <path id="Trazado_179519" data-name="Trazado 179519" d="M46.556,153.46l-3.293-.064a.4.4,0,0,1-.047.042.992.992,0,0,0,.078.09,5.217,5.217,0,0,0,2.286.176,4.472,4.472,0,0,1,.976-.244" transform="translate(-32.006 -113.602)" fill="#da428e"/>
        <path id="Trazado_179520" data-name="Trazado 179520" d="M41.909,153.488h0a.262.262,0,0,0,.339-.018c-.008-.01-.019-.02-.026-.03l-.313.049" transform="translate(-31.037 -113.633)" fill="#da428e"/>
        <path id="Trazado_179521" data-name="Trazado 179521" d="M43.117,153.406c.008.01.018.02.026.03a.36.36,0,0,0,.047-.042l-.073.011" transform="translate(-31.931 -113.601)" fill="#da428e"/>
        <path id="Trazado_179522" data-name="Trazado 179522" d="M42.5,159.49a4.893,4.893,0,0,1,2.8-4.944c-.15,0-.3,0-.452.01a4.2,4.2,0,0,0-2.487,3.079,5.013,5.013,0,0,0-.132,1.348q-.006,11.883,0,23.765a1.941,1.941,0,0,0,.253,1.263l.064.016c-.006-8.179.037-16.358-.049-24.536" transform="translate(-31.271 -114.453)" fill="#da428e"/>
        <path id="Trazado_179523" data-name="Trazado 179523" d="M52.78,153.877c.167-.082.34-.162.523-.235a4.479,4.479,0,0,0-.976.244c.151-.007.3-.011.452-.009" transform="translate(-38.753 -113.784)" fill="#da428e"/>
        <path id="Trazado_179524" data-name="Trazado 179524" d="M41.21,268.021a.6.6,0,0,0-.7.19c.239-.082.52.022.739-.152l-.01,0c-.009-.011-.015-.023-.024-.034" transform="translate(-29.997 -198.463)" fill="#da428e"/>
        <path id="Trazado_179525" data-name="Trazado 179525" d="M43.222,268.126c.009.011.015.023.024.034l.01,0c.01-.008.021-.013.031-.023l-.064-.015" transform="translate(-32.009 -198.568)" fill="#da428e"/>
        <path id="Trazado_179526" data-name="Trazado 179526" d="M237.57,157.369a3.4,3.4,0,0,1,2.292-2.7q-2.294.01-4.588,0a4.14,4.14,0,0,1,2.3,2.7" transform="translate(-174.239 -114.543)" fill="#584d70"/>
        <path id="Trazado_179527" data-name="Trazado 179527" d="M236.85,153.872a5.53,5.53,0,0,1,.927-.264l-6.57-.014h0a4.381,4.381,0,0,1,1.055.279q2.294.011,4.588,0" transform="translate(-171.227 -113.748)" fill="#584d70"/>
        <path id="Trazado_179528" data-name="Trazado 179528" d="M234.154,154.665h-.393a5.164,5.164,0,0,1,2.645,3.059c.009-.122.025-.24.044-.357a4.139,4.139,0,0,0-2.3-2.7" transform="translate(-173.118 -114.541)" fill="#584d70"/>
        <path id="Trazado_179529" data-name="Trazado 179529" d="M232.263,153.873a4.381,4.381,0,0,0-1.055-.279,5.849,5.849,0,0,1,.662.278h.393" transform="translate(-171.227 -113.748)" fill="#584d70"/>
        <path id="Trazado_179530" data-name="Trazado 179530" d="M244.123,157.366c.015.043.029.088.043.132a4.9,4.9,0,0,1,2.536-2.835h-.286a3.4,3.4,0,0,0-2.292,2.7" transform="translate(-180.792 -114.54)" fill="#584d70"/>
        <path id="Trazado_179531" data-name="Trazado 179531" d="M253.246,153.912a5.88,5.88,0,0,1,.64-.263,5.5,5.5,0,0,0-.927.264h.286" transform="translate(-187.336 -113.789)" fill="#584d70"/>
        <path id="Trazado_179532" data-name="Trazado 179532" d="M243.954,165.438c.026-.078.059-.149.087-.225-.014-.044-.028-.089-.043-.132-.019.116-.035.235-.044.357" transform="translate(-180.667 -122.255)" fill="#584d70"/>
      </g>
    </g>
    <g id="Grupo_152930" data-name="Grupo 152930" transform="translate(200 -43.001)">
      <path id="Trazado_180001" data-name="Trazado 180001" d="M-7924.291-5724.464h31.068" transform="translate(8312 11316.062)" fill="none" stroke="#3156b4" stroke-width="4"/>
      <path id="Polígono_5" data-name="Polígono 5" d="M13,0,26,22H0Z" transform="translate(437 5578.097) rotate(90)" fill="#2754ba"/>
    </g>
  </g>
</svg>
