<svg xmlns="http://www.w3.org/2000/svg" xmlns:xlink="http://www.w3.org/1999/xlink" width="171.354" height="99.418" viewBox="0 0 171.354 99.418">
  <defs>
    <clipPath id="clip-path">
      <rect id="Rectángulo_66648" data-name="Rectángulo 66648" width="99.418" height="99.418" fill="none"/>
    </clipPath>
  </defs>
  <g id="Grupo_217272" data-name="Grupo 217272" transform="translate(-847.291 -5496.387)">
    <g id="Grupo_152915" data-name="Grupo 152915" transform="translate(847.291 5496.387)">
      <g id="Grupo_152914" data-name="Grupo 152914" clip-path="url(#clip-path)">
        <path id="Trazado_179697" data-name="Trazado 179697" d="M99.418,49.708A49.709,49.709,0,1,0,49.709,99.418,49.709,49.709,0,0,0,99.418,49.708" transform="translate(0 0.001)" fill="#86d008"/>
        <path id="Trazado_179698" data-name="Trazado 179698" d="M103.935,57.782a46.152,46.152,0,1,0-46.152,46.152,46.152,46.152,0,0,0,46.152-46.152" transform="translate(-8.073 -8.073)" fill="#fff"/>
        <path id="Trazado_179699" data-name="Trazado 179699" d="M111.183,70.741a40.441,40.441,0,1,0-40.441,40.441,40.441,40.441,0,0,0,40.441-40.441" transform="translate(-21.032 -21.032)" fill="#86d008"/>
        <path id="Trazado_179700" data-name="Trazado 179700" d="M165.756,95.5c-.008-.238-.015-.475-.028-.712-.006-.126-.016-.252-.024-.378-.013-.221-.026-.442-.043-.662-.01-.131-.024-.26-.035-.39-.018-.214-.036-.429-.058-.642-.013-.129-.03-.258-.044-.387-.024-.213-.047-.427-.074-.639-.016-.126-.035-.25-.052-.375-.03-.215-.058-.429-.091-.643-.019-.121-.04-.242-.06-.363-.035-.216-.07-.433-.109-.648-.021-.115-.044-.23-.066-.345-.042-.22-.083-.439-.128-.657-.023-.11-.048-.218-.072-.328-.048-.223-.1-.445-.147-.667-.024-.1-.05-.2-.075-.308-.055-.226-.109-.453-.168-.678-.025-.1-.052-.192-.078-.288-.062-.23-.124-.459-.189-.688-.026-.09-.054-.18-.08-.27-.069-.233-.138-.466-.211-.7-.026-.083-.054-.166-.081-.249-.076-.237-.153-.473-.234-.708-.026-.077-.054-.153-.081-.229-.084-.24-.169-.48-.257-.718-.026-.07-.053-.139-.079-.209q-.138-.366-.281-.728c-.025-.063-.051-.126-.077-.188-.1-.247-.2-.493-.306-.737l-.075-.171q-.162-.374-.331-.744c-.023-.05-.047-.1-.07-.15q-.175-.379-.357-.753c-.021-.044-.044-.087-.065-.132q-.188-.382-.384-.759l-.06-.114q-.2-.384-.41-.764l-.055-.1q-.215-.386-.436-.767l-.05-.084q-.227-.387-.462-.769l-.043-.069q-.24-.388-.489-.77l-.037-.056q-.253-.388-.515-.769l-.03-.044q-.267-.387-.542-.767l-.023-.031q-.28-.385-.568-.764l-.017-.022q-.292-.383-.592-.758L156.9,71.6q-.3-.379-.616-.749l-.008-.009q-.315-.373-.638-.739l0,0q-.979-1.106-2.035-2.139l-44.645,53.356L122.8,137.242c.842.053,1.69.082,2.545.082a40.384,40.384,0,0,0,32.688-16.63c4.756-7.627,7.754-16.084,7.754-23.812q0-.527-.013-1.052c0-.112-.009-.223-.013-.334" transform="translate(-75.631 -47.173)" fill="#5dad07"/>
        <path id="Trazado_179701" data-name="Trazado 179701" d="M88.041,108.338a8.982,8.982,0,0,1-4.678-1.317,9.137,9.137,0,0,1-2.763-2.635c-.087-.13-.173-.262-.262-.406-.106-.138-.2-.273-.282-.4-.875-1.406-1.738-2.851-2.573-4.248A90.682,90.682,0,0,0,69.37,87.257c-.064-.076-.292-.3-.458-.461-1.239-1.211-2.937-2.87-2.694-4.834a3.019,3.019,0,0,1,1.544-2.256,4.993,4.993,0,0,1,2.564-.589,19.647,19.647,0,0,1,4.371.69l.421.1a31.953,31.953,0,0,1,11.215,5.284c1.152-1.717,2.259-3.317,3.356-4.848,8.279-11.559,15.686-19.425,24.016-25.5a71.286,71.286,0,0,1,7.53-4.8,55.784,55.784,0,0,1,8.155-3.718,2.156,2.156,0,0,1,2.37,3.422l-1.241,1.465c-1.45,1.709-2.819,3.324-4.161,4.981-1.851,2.27-3.485,4.367-5,6.419C114.7,71.607,108.945,81.5,103.384,91.069c-2.471,4.252-5.026,8.648-7.634,12.919l-.024.039a8.938,8.938,0,0,1-7.685,4.312Z" transform="translate(-45.948 -32.07)" fill="#86d008"/>
        <path id="Trazado_179702" data-name="Trazado 179702" d="M125.437,43.588a.1.1,0,0,1,.091.065.1.1,0,0,1-.018.1c-1.855,2.2-3.68,4.321-5.426,6.476s-3.44,4.3-5.057,6.493c-9.7,13.091-17.233,27.641-25.709,41.524l-.024.04a6.932,6.932,0,0,1-9.533,2.308,7.055,7.055,0,0,1-2.134-2.037c-.094-.138-.183-.28-.27-.423a3.274,3.274,0,0,1-.228-.317c-3.47-5.579-6.606-11.519-10.859-16.557-.69-.818-3.967-3.382-2.146-4.443a3.1,3.1,0,0,1,1.527-.309,20.667,20.667,0,0,1,4.324.737,30.081,30.081,0,0,1,10.514,4.973c.493.373,1,.742,1.48,1.13l.185.154c1.462-2.224,2.968-4.438,4.536-6.628,6.721-9.383,14.176-18.194,23.556-25.038a69,69,0,0,1,7.312-4.658,53.944,53.944,0,0,1,7.847-3.579.1.1,0,0,1,.032-.006m-47,55.679a.609.609,0,0,0-.075-.074l-.262-.247-.012-.012c.123.132.214.216.27.268a.735.735,0,0,0,.079.065m47-59.8a4.2,4.2,0,0,0-1.41.243,57.754,57.754,0,0,0-8.447,3.847l-.007,0-.007,0a73.326,73.326,0,0,0-7.749,4.937A90.13,90.13,0,0,0,94.433,60.616,147.657,147.657,0,0,0,83.34,74.47c-.735,1.026-1.475,2.083-2.229,3.184a33.139,33.139,0,0,0-10.2-4.425l-.406-.1a21.312,21.312,0,0,0-4.857-.748,6.97,6.97,0,0,0-3.6.869A5.1,5.1,0,0,0,59.5,77.035c-.368,2.976,1.927,5.219,3.3,6.56.121.118.283.277.348.345a88.118,88.118,0,0,1,7.894,11.769c.84,1.405,1.707,2.858,2.591,4.279.1.161.211.323.332.486.085.135.168.262.25.385l0,.007.005.007a11.2,11.2,0,0,0,3.391,3.232,11.051,11.051,0,0,0,15.195-3.679l.024-.04c2.619-4.289,5.18-8.7,7.656-12.956,5.533-9.519,11.253-19.363,17.847-28.261,1.5-2.03,3.113-4.1,4.939-6.341l0-.005,0-.005c1.328-1.64,2.691-3.247,4.134-4.949q.616-.727,1.238-1.462l0,0,0,0a4.216,4.216,0,0,0-3.228-6.928" transform="translate(-41.273 -27.397)" fill="#fff"/>
      </g>
    </g>
    <g id="Grupo_152932" data-name="Grupo 152932" transform="translate(581.645 -43.001)">
      <path id="Trazado_180001" data-name="Trazado 180001" d="M-7924.291-5724.464h31.068" transform="translate(8312 11316.062)" fill="none" stroke="#3156b4" stroke-width="4"/>
      <path id="Polígono_5" data-name="Polígono 5" d="M13,0,26,22H0Z" transform="translate(437 5578.097) rotate(90)" fill="#2754ba"/>
    </g>
  </g>
</svg>
