<svg xmlns="http://www.w3.org/2000/svg" width="1328.002" height="868.85" viewBox="0 0 1328.002 868.85">
  <g id="Grupo_217275" data-name="Grupo 217275" transform="translate(-159.999 -8371.29)">
    <path id="Sustracción_2" data-name="Sustracción 2" d="M8185.005,12568.852H8185V11700c21.859,4.736,54.542,9.191,97.145,13.24,42.058,4,92.87,7.521,151.025,10.465,58.683,2.971,123.6,5.283,192.939,6.871,71.586,1.639,146.578,2.47,222.893,2.47s151.308-.831,222.888-2.47c69.237-1.584,134.153-3.9,192.945-6.871,58.182-2.944,109-6.465,151.028-10.465,42.609-4.05,75.292-8.5,97.139-13.24v868.661c-.11-2.145-4.648-4.288-13.49-6.369-8.719-2.054-21.736-4.074-38.689-6.007-16.647-1.9-37.245-3.725-61.221-5.436-23.767-1.7-51.046-3.289-81.08-4.736-60.988-2.938-132-5.246-211.06-6.858-81.894-1.669-168.852-2.515-258.46-2.515s-176.566.846-258.459,2.515c-79.061,1.612-150.071,3.92-211.06,6.858-30.034,1.447-57.313,3.041-81.081,4.736-23.976,1.711-44.573,3.54-61.22,5.436-16.951,1.932-29.969,3.953-38.69,6.007-8.951,2.108-13.49,4.278-13.49,6.448,0,.033,0,.068,0,.108Z" transform="translate(-8025 -3328.712)" fill="#252630"/>
    <g id="Grupo_213306" data-name="Grupo 213306" transform="translate(594.236 8429)" opacity="0.1">
      <g id="Grupo_213123" data-name="Grupo 213123" transform="translate(432.731 223.029)" opacity="0.1">
        <path id="Trazado_210564" data-name="Trazado 210564" d="M1017.05,364.4l46.821-22.974L1038.138,289.8Z" transform="translate(-1017.05 -289.8)" fill="#fff"/>
      </g>
      <g id="Grupo_213124" data-name="Grupo 213124" transform="translate(74.53 590.871)" opacity="0.2">
        <path id="Trazado_210565" data-name="Trazado 210565" d="M625.081,721.4,614.64,710.562,640.7,703.04Z" transform="translate(-614.64 -703.04)" fill="#fff"/>
      </g>
      <g id="Grupo_213125" data-name="Grupo 213125" transform="translate(216.561 474.734)" opacity="0.2">
        <path id="Trazado_210566" data-name="Trazado 210566" d="M774.2,597.574,804.358,612.5l8.492-39.932Z" transform="translate(-774.2 -572.57)" fill="#fff"/>
      </g>
      <g id="Grupo_213126" data-name="Grupo 213126" transform="translate(520.536 60.821)" opacity="0.3">
        <rect id="Rectángulo_66716" data-name="Rectángulo 66716" width="51.788" height="0.614" transform="translate(0 22.01) rotate(-25.151)" fill="#fff"/>
      </g>
      <g id="Grupo_213127" data-name="Grupo 213127" transform="translate(1.287 599.51)" opacity="0.75">
        <rect id="Rectángulo_66717" data-name="Rectángulo 66717" width="0.614" height="82.026" transform="translate(0 0.556) rotate(-64.78)" fill="#fff"/>
      </g>
      <g id="Grupo_213128" data-name="Grupo 213128" transform="translate(75.585 625.565)" opacity="0.3">
        <rect id="Rectángulo_66718" data-name="Rectángulo 66718" width="67.268" height="0.614" transform="matrix(0.991, -0.132, 0.132, 0.991, 0, 8.906)" fill="#fff"/>
      </g>
      <g id="Grupo_213129" data-name="Grupo 213129" transform="translate(451.567 436.378)" opacity="0.1">
        <path id="Trazado_210567" data-name="Trazado 210567" d="M1038.21,537.518c.739,2.7,12.409,52.5,12.409,52.5l25.7-60.539Z" transform="translate(-1038.21 -529.48)" fill="#fff"/>
      </g>
      <g id="Grupo_213130" data-name="Grupo 213130" transform="translate(501.441 337.118)" opacity="0.05">
        <path id="Trazado_210568" data-name="Trazado 210568" d="M1094.24,452.605l63.921,6.293-18.8-40.929Z" transform="translate(-1094.24 -417.97)" fill="#fff"/>
      </g>
      <g id="Grupo_213131" data-name="Grupo 213131" transform="translate(623.782 275.325)" opacity="0.05">
        <path id="Trazado_210569" data-name="Trazado 210569" d="M1231.68,430.425l6.552-81.875,21.817,35.944Z" transform="translate(-1231.68 -348.55)" fill="#fff"/>
      </g>
      <g id="Grupo_213132" data-name="Grupo 213132" transform="translate(695.341 168.953)" opacity="0.2">
        <path id="Trazado_210570" data-name="Trazado 210570" d="M1312.07,284.622l6.774-55.572,19.218,53.052Z" transform="translate(-1312.07 -229.05)" fill="#fff"/>
      </g>
      <g id="Grupo_213133" data-name="Grupo 213133" transform="translate(568.228 115.874)" opacity="0.1">
        <path id="Trazado_210571" data-name="Trazado 210571" d="M1172.991,231.774l-3.721-58.856,81.448-3.5Z" transform="translate(-1169.27 -169.42)" fill="#fff"/>
      </g>
      <g id="Grupo_213134" data-name="Grupo 213134" transform="translate(348.417 482.63)" opacity="0.2">
        <path id="Trazado_210572" data-name="Trazado 210572" d="M922.33,626.25,968.973,642.5,957.936,581.44Z" transform="translate(-922.33 -581.44)" fill="#fff"/>
      </g>
      <g id="Grupo_213135" data-name="Grupo 213135" transform="translate(390.992 348.743)" opacity="0.2">
        <path id="Trazado_210573" data-name="Trazado 210573" d="M970.16,461.09l47.168,10.041-9.079-40.1Z" transform="translate(-970.16 -431.03)" fill="#fff"/>
      </g>
      <g id="Grupo_213136" data-name="Grupo 213136" transform="translate(531.804 267.972)" opacity="0.1">
        <path id="Trazado_210574" data-name="Trazado 210574" d="M1128.35,364.2l26.3-23.909-11.545,69.146Z" transform="translate(-1128.35 -340.29)" fill="#fff"/>
      </g>
      <g id="Grupo_213137" data-name="Grupo 213137" transform="translate(676.016 281.965)" opacity="0.1">
        <path id="Trazado_210575" data-name="Trazado 210575" d="M1290.36,357.63l18.275,30.968,48.753-32.588Z" transform="translate(-1290.36 -356.01)" fill="#fff"/>
      </g>
      <g id="Grupo_213138" data-name="Grupo 213138" transform="translate(426.022 345.675)">
        <path id="Trazado_210576" data-name="Trazado 210576" d="M1014.851,428.586a3.069,3.069,0,1,1-4.335-.2A3.068,3.068,0,0,1,1014.851,428.586Z" transform="translate(-1009.513 -427.583)" fill="#fff"/>
      </g>
      <g id="Grupo_213139" data-name="Grupo 213139" transform="translate(444.693 435.581)">
        <path id="Trazado_210577" data-name="Trazado 210577" d="M1041.163,530.592a6.137,6.137,0,1,1-8.67-.41A6.145,6.145,0,0,1,1041.163,530.592Z" transform="translate(-1030.489 -528.585)" fill="#fff"/>
      </g>
      <g id="Grupo_213140" data-name="Grupo 213140" transform="translate(167.749 527.689)">
        <path id="Trazado_210578" data-name="Trazado 210578" d="M726.918,633.484a4.342,4.342,0,1,1-6.133-.294A4.346,4.346,0,0,1,726.918,633.484Z" transform="translate(-719.364 -632.061)" fill="#fff"/>
      </g>
      <g id="Grupo_213141" data-name="Grupo 213141" transform="translate(688.148 308.411)">
        <circle id="Elipse_5031" data-name="Elipse 5031" cx="6.142" cy="6.142" r="6.142" transform="translate(0)" fill="#fff"/>
      </g>
      <g id="Grupo_213142" data-name="Grupo 213142" transform="translate(498.372 368.681)">
        <path id="Trazado_210579" data-name="Trazado 210579" d="M1096.131,454.436a3.069,3.069,0,1,1-4.335-.2A3.068,3.068,0,0,1,1096.131,454.436Z" transform="translate(-1090.792 -453.428)" fill="#fff"/>
      </g>
      <g id="Grupo_213143" data-name="Grupo 213143" transform="translate(568.88 175.159)">
        <path id="Trazado_210580" data-name="Trazado 210580" d="M1175.341,237.026a3.069,3.069,0,1,1-4.335-.2A3.068,3.068,0,0,1,1175.341,237.026Z" transform="translate(-1170.002 -236.022)" fill="#fff"/>
      </g>
      <g id="Grupo_213144" data-name="Grupo 213144" transform="translate(627.274 272.252)">
        <path id="Trazado_210581" data-name="Trazado 210581" d="M1240.941,346.106a3.069,3.069,0,1,1-4.335-.2A3.068,3.068,0,0,1,1240.941,346.106Z" transform="translate(-1235.603 -345.098)" fill="#fff"/>
      </g>
      <g id="Grupo_213145" data-name="Grupo 213145" transform="translate(644.768 110.957)">
        <path id="Trazado_210582" data-name="Trazado 210582" d="M1263.8,165.5a4.909,4.909,0,1,1-6.934-.329A4.911,4.911,0,0,1,1263.8,165.5Z" transform="translate(-1255.256 -163.896)" fill="#fff"/>
      </g>
      <g id="Grupo_213146" data-name="Grupo 213146" transform="translate(563.52 376.204)">
        <path id="Trazado_210583" data-name="Trazado 210583" d="M1167.185,462.485a1.84,1.84,0,1,1-2.6-.125A1.834,1.834,0,0,1,1167.185,462.485Z" transform="translate(-1163.98 -461.88)" fill="#fff"/>
      </g>
      <g id="Grupo_213147" data-name="Grupo 213147" transform="translate(672.914 280.381)">
        <circle id="Elipse_5032" data-name="Elipse 5032" cx="3.071" cy="3.071" r="3.071" transform="translate(0 6.14) rotate(-88.287)" fill="#fff"/>
      </g>
      <g id="Grupo_213148" data-name="Grupo 213148" transform="translate(543.499 334.045)">
        <path id="Trazado_210584" data-name="Trazado 210584" d="M1146.928,419.531a3.068,3.068,0,1,1-.427-4.317A3.067,3.067,0,0,1,1146.928,419.531Z" transform="translate(-1141.488 -414.518)" fill="#fff"/>
      </g>
      <g id="Grupo_213149" data-name="Grupo 213149" transform="translate(484.952 326.263)">
        <path id="Trazado_210585" data-name="Trazado 210585" d="M1083.33,412.794a4.295,4.295,0,1,1-.6-6.044A4.295,4.295,0,0,1,1083.33,412.794Z" transform="translate(-1075.715 -405.775)" fill="#fff"/>
      </g>
      <g id="Grupo_213150" data-name="Grupo 213150" transform="translate(390.819 436.631)">
        <path id="Trazado_210586" data-name="Trazado 210586" d="M973.228,532.769a1.841,1.841,0,1,1-.258-2.59A1.847,1.847,0,0,1,973.228,532.769Z" transform="translate(-969.965 -529.765)" fill="#fff"/>
      </g>
      <g id="Grupo_213151" data-name="Grupo 213151" transform="translate(460.902 493.852)">
        <path id="Trazado_210587" data-name="Trazado 210587" d="M1054.139,599.061a3.067,3.067,0,1,1-.427-4.317A3.066,3.066,0,0,1,1054.139,599.061Z" transform="translate(-1048.698 -594.048)" fill="#fff"/>
      </g>
      <g id="Grupo_213152" data-name="Grupo 213152" transform="translate(243.646 511.593)">
        <path id="Trazado_210588" data-name="Trazado 210588" d="M810.069,618.991a3.068,3.068,0,1,1-.427-4.317A3.067,3.067,0,0,1,810.069,618.991Z" transform="translate(-804.628 -613.978)" fill="#fff"/>
      </g>
      <g id="Grupo_213153" data-name="Grupo 213153" transform="translate(97.52 587.798)">
        <path id="Trazado_210589" data-name="Trazado 210589" d="M645.909,704.6a3.068,3.068,0,1,1-.427-4.317A3.067,3.067,0,0,1,645.909,704.6Z" transform="translate(-640.468 -699.588)" fill="#fff"/>
      </g>
      <g id="Grupo_213154" data-name="Grupo 213154" transform="translate(510.185 232.009)">
        <path id="Trazado_210590" data-name="Trazado 210590" d="M1109.4,300.9a3.069,3.069,0,1,1-4.335-.2A3.068,3.068,0,0,1,1109.4,300.9Z" transform="translate(-1104.063 -299.888)" fill="#fff"/>
      </g>
      <g id="Grupo_213155" data-name="Grupo 213155" transform="translate(564.465 58.035)">
        <path id="Trazado_210591" data-name="Trazado 210591" d="M1170.381,105.446a3.069,3.069,0,1,1-4.335-.2A3.068,3.068,0,0,1,1170.381,105.446Z" transform="translate(-1165.042 -104.442)" fill="#fff"/>
      </g>
      <g id="Grupo_213156" data-name="Grupo 213156" transform="translate(587.821 233.295)">
        <path id="Trazado_210592" data-name="Trazado 210592" d="M1194.485,301.936a1.84,1.84,0,1,1-2.6-.125A1.834,1.834,0,0,1,1194.485,301.936Z" transform="translate(-1191.28 -301.334)" fill="#fff"/>
      </g>
      <g id="Grupo_213157" data-name="Grupo 213157" transform="translate(692.281 221.461)">
        <path id="Trazado_210593" data-name="Trazado 210593" d="M1313.971,289.046a3.069,3.069,0,1,1-4.335-.2A3.069,3.069,0,0,1,1313.971,289.046Z" transform="translate(-1308.633 -288.039)" fill="#fff"/>
      </g>
      <g id="Grupo_213158" data-name="Grupo 213158" transform="translate(391.992 540.63)">
        <path id="Trazado_210594" data-name="Trazado 210594" d="M976.621,647.606a3.069,3.069,0,1,1-4.335-.2A3.068,3.068,0,0,1,976.621,647.606Z" transform="translate(-971.283 -646.598)" fill="#fff"/>
      </g>
      <g id="Grupo_213159" data-name="Grupo 213159" transform="translate(292.011 543.398)">
        <path id="Trazado_210595" data-name="Trazado 210595" d="M864.3,650.716a3.069,3.069,0,1,1-4.335-.2A3.068,3.068,0,0,1,864.3,650.716Z" transform="translate(-858.963 -649.708)" fill="#fff"/>
      </g>
      <g id="Grupo_213160" data-name="Grupo 213160" transform="translate(152.401 583.944)">
        <path id="Trazado_210596" data-name="Trazado 210596" d="M707.461,696.266a3.069,3.069,0,1,1-4.335-.2A3.068,3.068,0,0,1,707.461,696.266Z" transform="translate(-702.122 -695.259)" fill="#fff"/>
      </g>
      <g id="Grupo_213161" data-name="Grupo 213161" transform="translate(0 598.428)">
        <path id="Trazado_210597" data-name="Trazado 210597" d="M533.349,711.984a1.4,1.4,0,1,1-1.976-.1A1.412,1.412,0,0,1,533.349,711.984Z" transform="translate(-530.912 -711.529)" fill="#fff"/>
      </g>
      <g id="Grupo_213162" data-name="Grupo 213162" transform="translate(310.31 506.922)">
        <path id="Trazado_210598" data-name="Trazado 210598" d="M882.725,609.335a1.84,1.84,0,1,1-2.6-.125A1.834,1.834,0,0,1,882.725,609.335Z" transform="translate(-879.52 -608.73)" fill="#fff"/>
      </g>
      <g id="Grupo_213163" data-name="Grupo 213163" transform="translate(127.297 523.455)">
        <path id="Trazado_210599" data-name="Trazado 210599" d="M677.125,627.906a1.84,1.84,0,1,1-2.6-.125A1.834,1.834,0,0,1,677.125,627.906Z" transform="translate(-673.92 -627.304)" fill="#fff"/>
      </g>
      <g id="Grupo_213164" data-name="Grupo 213164" transform="translate(83.129 607.395)">
        <path id="Trazado_210600" data-name="Trazado 210600" d="M627.5,722.206a1.84,1.84,0,1,1-2.6-.125A1.834,1.834,0,0,1,627.5,722.206Z" transform="translate(-624.3 -721.604)" fill="#fff"/>
      </g>
      <g id="Grupo_213165" data-name="Grupo 213165" transform="translate(345.357 524.37)">
        <path id="Trazado_210601" data-name="Trazado 210601" d="M924.231,629.336a3.069,3.069,0,1,1-4.335-.2A3.068,3.068,0,0,1,924.231,629.336Z" transform="translate(-918.893 -628.332)" fill="#fff"/>
      </g>
      <g id="Grupo_213166" data-name="Grupo 213166" transform="translate(328.474 468.502)">
        <path id="Trazado_210602" data-name="Trazado 210602" d="M907.407,566.976a4.3,4.3,0,1,1-6.071-.294A4.295,4.295,0,0,1,907.407,566.976Z" transform="translate(-899.926 -565.569)" fill="#fff"/>
      </g>
      <g id="Grupo_213167" data-name="Grupo 213167" transform="translate(380.954 479.561)">
        <path id="Trazado_210603" data-name="Trazado 210603" d="M964.221,579a3.069,3.069,0,1,1-4.335-.2A3.068,3.068,0,0,1,964.221,579Z" transform="translate(-958.883 -577.992)" fill="#fff"/>
      </g>
      <g id="Grupo_213168" data-name="Grupo 213168" transform="translate(486.596 433.309)">
        <path id="Trazado_210604" data-name="Trazado 210604" d="M1082.9,527.036a3.069,3.069,0,1,1-4.335-.2A3.068,3.068,0,0,1,1082.9,527.036Z" transform="translate(-1077.563 -526.033)" fill="#fff"/>
      </g>
      <g id="Grupo_213169" data-name="Grupo 213169" transform="translate(435.092 385.776)">
        <path id="Trazado_210605" data-name="Trazado 210605" d="M1025.041,473.636a3.069,3.069,0,1,1-4.335-.2A3.068,3.068,0,0,1,1025.041,473.636Z" transform="translate(-1019.703 -472.633)" fill="#fff"/>
      </g>
      <g id="Grupo_213170" data-name="Grupo 213170" transform="translate(476.493 271.585)">
        <path id="Trazado_210606" data-name="Trazado 210606" d="M1071.551,345.356a3.069,3.069,0,1,1-4.335-.2A3.068,3.068,0,0,1,1071.551,345.356Z" transform="translate(-1066.212 -344.349)" fill="#fff"/>
      </g>
      <g id="Grupo_213171" data-name="Grupo 213171" transform="translate(505.634 155.109)">
        <path id="Trazado_210607" data-name="Trazado 210607" d="M1102.155,214.1a1.84,1.84,0,1,1-2.6-.125A1.834,1.834,0,0,1,1102.155,214.1Z" transform="translate(-1098.95 -213.498)" fill="#fff"/>
      </g>
      <g id="Grupo_213172" data-name="Grupo 213172" transform="translate(430.889 295.789)">
        <path id="Trazado_210608" data-name="Trazado 210608" d="M1018.185,372.145a1.84,1.84,0,1,1-2.6-.125A1.834,1.834,0,0,1,1018.185,372.145Z" transform="translate(-1014.98 -371.54)" fill="#fff"/>
      </g>
      <g id="Grupo_213173" data-name="Grupo 213173" transform="translate(341.296 409.129)">
        <path id="Trazado_210609" data-name="Trazado 210609" d="M917.535,499.466a1.84,1.84,0,1,1-2.6-.125A1.834,1.834,0,0,1,917.535,499.466Z" transform="translate(-914.33 -498.868)" fill="#fff"/>
      </g>
      <g id="Grupo_213174" data-name="Grupo 213174" transform="translate(685.246 383.023)">
        <path id="Trazado_210610" data-name="Trazado 210610" d="M1303.934,470.145a1.84,1.84,0,1,1-2.6-.125A1.834,1.834,0,0,1,1303.934,470.145Z" transform="translate(-1300.73 -469.54)" fill="#fff"/>
      </g>
      <g id="Grupo_213175" data-name="Grupo 213175" transform="translate(822.079 296.546)">
        <path id="Trazado_210611" data-name="Trazado 210611" d="M1457.655,373a1.84,1.84,0,1,1-2.6-.125A1.834,1.834,0,0,1,1457.655,373Z" transform="translate(-1454.45 -372.39)" fill="#fff"/>
      </g>
      <g id="Grupo_213176" data-name="Grupo 213176" transform="translate(544.48 466.883)">
        <path id="Trazado_210612" data-name="Trazado 210612" d="M1145.795,564.355a1.84,1.84,0,1,1-2.6-.125A1.834,1.834,0,0,1,1145.795,564.355Z" transform="translate(-1142.59 -563.75)" fill="#fff"/>
      </g>
      <g id="Grupo_213177" data-name="Grupo 213177" transform="translate(638.47 442.772)">
        <path id="Trazado_210613" data-name="Trazado 210613" d="M1251.385,537.266a1.84,1.84,0,1,1-2.6-.125A1.834,1.834,0,0,1,1251.385,537.266Z" transform="translate(-1248.18 -536.664)" fill="#fff"/>
      </g>
      <g id="Grupo_213178" data-name="Grupo 213178" transform="translate(243.14 542.967)">
        <path id="Trazado_210614" data-name="Trazado 210614" d="M807.265,649.826a1.84,1.84,0,1,1-2.6-.125A1.834,1.834,0,0,1,807.265,649.826Z" transform="translate(-804.06 -649.224)" fill="#fff"/>
      </g>
      <g id="Grupo_213179" data-name="Grupo 213179" transform="translate(406.25 226.37)">
        <path id="Trazado_210615" data-name="Trazado 210615" d="M990.5,294.156a1.84,1.84,0,1,1-2.6-.125A1.834,1.834,0,0,1,990.5,294.156Z" transform="translate(-987.3 -293.554)" fill="#fff"/>
      </g>
      <g id="Grupo_213180" data-name="Grupo 213180" transform="translate(604.342 426.773)">
        <path id="Trazado_210616" data-name="Trazado 210616" d="M1213.045,519.3a1.84,1.84,0,1,1-2.6-.125A1.834,1.834,0,0,1,1213.045,519.3Z" transform="translate(-1209.84 -518.69)" fill="#fff"/>
      </g>
      <g id="Grupo_213181" data-name="Grupo 213181" transform="translate(281.826 390.774)">
        <path id="Trazado_210617" data-name="Trazado 210617" d="M850.725,478.846a1.84,1.84,0,1,1-2.6-.125A1.834,1.834,0,0,1,850.725,478.846Z" transform="translate(-847.52 -478.248)" fill="#fff"/>
      </g>
      <g id="Grupo_213182" data-name="Grupo 213182" transform="translate(296.308 641.547)">
        <path id="Trazado_210618" data-name="Trazado 210618" d="M866.995,760.575a1.84,1.84,0,1,1-2.6-.125A1.834,1.834,0,0,1,866.995,760.575Z" transform="translate(-863.79 -759.97)" fill="#fff"/>
      </g>
      <g id="Grupo_213183" data-name="Grupo 213183" transform="translate(438.562 582.101)">
        <path id="Trazado_210619" data-name="Trazado 210619" d="M1026.8,693.786a1.84,1.84,0,1,1-2.6-.125A1.834,1.834,0,0,1,1026.8,693.786Z" transform="translate(-1023.6 -693.188)" fill="#fff"/>
      </g>
      <g id="Grupo_213184" data-name="Grupo 213184" transform="translate(235.458 564.001)">
        <path id="Trazado_210620" data-name="Trazado 210620" d="M798.634,673.456a1.84,1.84,0,1,1-2.6-.125A1.834,1.834,0,0,1,798.634,673.456Z" transform="translate(-795.43 -672.854)" fill="#fff"/>
      </g>
      <g id="Grupo_213185" data-name="Grupo 213185" transform="translate(97.077 547.254)">
        <path id="Trazado_210621" data-name="Trazado 210621" d="M643.175,654.645a1.84,1.84,0,1,1-2.6-.125A1.834,1.834,0,0,1,643.175,654.645Z" transform="translate(-639.97 -654.04)" fill="#fff"/>
      </g>
      <g id="Grupo_213186" data-name="Grupo 213186" transform="translate(231.114 456.059)">
        <path id="Trazado_210622" data-name="Trazado 210622" d="M793.755,552.2a1.84,1.84,0,1,1-2.6-.125A1.834,1.834,0,0,1,793.755,552.2Z" transform="translate(-790.55 -551.59)" fill="#fff"/>
      </g>
      <g id="Grupo_213187" data-name="Grupo 213187" transform="translate(506.684 56.407)">
        <path id="Trazado_210623" data-name="Trazado 210623" d="M1103.335,103.216a1.84,1.84,0,1,1-2.6-.125A1.834,1.834,0,0,1,1103.335,103.216Z" transform="translate(-1100.13 -102.614)" fill="#fff"/>
      </g>
      <g id="Grupo_213188" data-name="Grupo 213188" transform="translate(518.826 81.295)">
        <path id="Trazado_210624" data-name="Trazado 210624" d="M1116.975,131.176a1.84,1.84,0,1,1-2.6-.125A1.834,1.834,0,0,1,1116.975,131.176Z" transform="translate(-1113.77 -130.574)" fill="#fff"/>
      </g>
      <g id="Grupo_213189" data-name="Grupo 213189" transform="translate(444.145 135.61)">
        <path id="Trazado_210625" data-name="Trazado 210625" d="M1032.007,191.991a1.229,1.229,0,1,1-1.736-.08A1.235,1.235,0,0,1,1032.007,191.991Z" transform="translate(-1029.873 -191.592)" fill="#fff"/>
      </g>
      <g id="Grupo_213190" data-name="Grupo 213190" transform="translate(482.786 114.585)">
        <path id="Trazado_210626" data-name="Trazado 210626" d="M1075.417,168.371a1.229,1.229,0,1,1-1.736-.08A1.235,1.235,0,0,1,1075.417,168.371Z" transform="translate(-1073.282 -167.972)" fill="#fff"/>
      </g>
      <g id="Grupo_213191" data-name="Grupo 213191" transform="translate(293.453 313.676)">
        <path id="Trazado_210627" data-name="Trazado 210627" d="M862.717,392.04a1.229,1.229,0,1,1-1.736-.08A1.218,1.218,0,0,1,862.717,392.04Z" transform="translate(-860.582 -391.635)" fill="#fff"/>
      </g>
      <g id="Grupo_213192" data-name="Grupo 213192" transform="translate(612.239 164.008)">
        <path id="Trazado_210628" data-name="Trazado 210628" d="M1220.847,223.9a1.229,1.229,0,1,1-1.736-.08A1.218,1.218,0,0,1,1220.847,223.9Z" transform="translate(-1218.712 -223.495)" fill="#fff"/>
      </g>
      <g id="Grupo_213193" data-name="Grupo 213193" transform="translate(349.852 347.357)">
        <path id="Trazado_210629" data-name="Trazado 210629" d="M926.077,429.871a1.229,1.229,0,1,1-1.736-.08A1.234,1.234,0,0,1,926.077,429.871Z" transform="translate(-923.942 -429.472)" fill="#fff"/>
      </g>
      <g id="Grupo_213194" data-name="Grupo 213194" transform="translate(392.481 575.09)">
        <path id="Trazado_210630" data-name="Trazado 210630" d="M973.967,685.711a1.229,1.229,0,1,1-1.736-.08A1.235,1.235,0,0,1,973.967,685.711Z" transform="translate(-971.832 -685.312)" fill="#fff"/>
      </g>
      <g id="Grupo_213195" data-name="Grupo 213195" transform="translate(319.276 618.651)">
        <path id="Trazado_210631" data-name="Trazado 210631" d="M891.727,734.65a1.229,1.229,0,1,1-1.736-.08A1.235,1.235,0,0,1,891.727,734.65Z" transform="translate(-889.592 -734.249)" fill="#fff"/>
      </g>
      <g id="Grupo_213196" data-name="Grupo 213196" transform="translate(174.833 610.235)">
        <path id="Trazado_210632" data-name="Trazado 210632" d="M729.457,725.2a1.229,1.229,0,1,1-1.736-.08A1.218,1.218,0,0,1,729.457,725.2Z" transform="translate(-727.322 -724.795)" fill="#fff"/>
      </g>
      <g id="Grupo_213197" data-name="Grupo 213197" transform="translate(54.957 578.909)">
        <path id="Trazado_210633" data-name="Trazado 210633" d="M594.787,690a1.229,1.229,0,1,1-1.736-.08A1.234,1.234,0,0,1,594.787,690Z" transform="translate(-592.652 -689.602)" fill="#fff"/>
      </g>
      <g id="Grupo_213198" data-name="Grupo 213198" transform="translate(73.366 597.406)">
        <path id="Trazado_210634" data-name="Trazado 210634" d="M615.467,710.781a1.229,1.229,0,1,1-1.736-.08A1.234,1.234,0,0,1,615.467,710.781Z" transform="translate(-613.332 -710.382)" fill="#fff"/>
      </g>
      <g id="Grupo_213199" data-name="Grupo 213199" transform="translate(214.155 497.315)">
        <path id="Trazado_210635" data-name="Trazado 210635" d="M775.808,598.75a2.476,2.476,0,1,1-3.5-.169A2.477,2.477,0,0,1,775.808,598.75Z" transform="translate(-771.498 -597.938)" fill="#fff"/>
      </g>
      <g id="Grupo_213200" data-name="Grupo 213200" transform="translate(183.788 547.772)">
        <path id="Trazado_210636" data-name="Trazado 210636" d="M739.517,655.021a1.229,1.229,0,1,1-1.736-.08A1.235,1.235,0,0,1,739.517,655.021Z" transform="translate(-737.382 -654.622)" fill="#fff"/>
      </g>
      <g id="Grupo_213201" data-name="Grupo 213201" transform="translate(123.919 599.171)">
        <path id="Trazado_210637" data-name="Trazado 210637" d="M673.263,712.957a1.8,1.8,0,1,1-2.546-.125A1.8,1.8,0,0,1,673.263,712.957Z" transform="translate(-670.125 -712.365)" fill="#fff"/>
      </g>
      <g id="Grupo_213202" data-name="Grupo 213202" transform="translate(306.262 451.494)">
        <path id="Trazado_210638" data-name="Trazado 210638" d="M877.107,546.861a1.229,1.229,0,1,1-1.736-.08A1.234,1.234,0,0,1,877.107,546.861Z" transform="translate(-874.972 -546.462)" fill="#fff"/>
      </g>
      <g id="Grupo_213203" data-name="Grupo 213203" transform="translate(514.515 97.782)">
        <path id="Trazado_210639" data-name="Trazado 210639" d="M1110,149.3a.611.611,0,1,1-.864-.044A.617.617,0,0,1,1110,149.3Z" transform="translate(-1108.928 -149.095)" fill="#fff"/>
      </g>
      <g id="Grupo_213204" data-name="Grupo 213204" transform="translate(358.064 282.017)">
        <path id="Trazado_210640" data-name="Trazado 210640" d="M934.238,356.275a.611.611,0,1,1-.863-.044A.6.6,0,0,1,934.238,356.275Z" transform="translate(-933.168 -356.068)" fill="#fff"/>
      </g>
      <g id="Grupo_213205" data-name="Grupo 213205" transform="translate(388.658 338.298)">
        <path id="Trazado_210641" data-name="Trazado 210641" d="M968.608,419.5a.611.611,0,1,1-.863-.045A.616.616,0,0,1,968.608,419.5Z" transform="translate(-967.538 -419.295)" fill="#fff"/>
      </g>
      <g id="Grupo_213206" data-name="Grupo 213206" transform="translate(242.853 380.428)">
        <path id="Trazado_210642" data-name="Trazado 210642" d="M804.808,466.825a.611.611,0,1,1-.863-.044A.616.616,0,0,1,804.808,466.825Z" transform="translate(-803.738 -466.625)" fill="#fff"/>
      </g>
      <g id="Grupo_213207" data-name="Grupo 213207" transform="translate(490.277 577.265)">
        <path id="Trazado_210643" data-name="Trazado 210643" d="M1082.768,687.955a.611.611,0,1,1-.863-.045A.616.616,0,0,1,1082.768,687.955Z" transform="translate(-1081.698 -687.755)" fill="#fff"/>
      </g>
      <g id="Grupo_213208" data-name="Grupo 213208" transform="translate(270.991 470.804)">
        <path id="Trazado_210644" data-name="Trazado 210644" d="M836.418,568.355a.611.611,0,1,1-.863-.044A.616.616,0,0,1,836.418,568.355Z" transform="translate(-835.348 -568.155)" fill="#fff"/>
      </g>
      <g id="Grupo_213209" data-name="Grupo 213209" transform="translate(288.535 590.377)">
        <path id="Trazado_210645" data-name="Trazado 210645" d="M856.128,702.685a.611.611,0,1,1-.863-.044A.616.616,0,0,1,856.128,702.685Z" transform="translate(-855.058 -702.485)" fill="#fff"/>
      </g>
      <g id="Grupo_213210" data-name="Grupo 213210" transform="translate(190.415 466.728)">
        <path id="Trazado_210646" data-name="Trazado 210646" d="M745.9,563.775a.611.611,0,1,1-.864-.044A.616.616,0,0,1,745.9,563.775Z" transform="translate(-744.828 -563.575)" fill="#fff"/>
      </g>
      <g id="Grupo_213211" data-name="Grupo 213211" transform="translate(138.081 439.916)">
        <path id="Trazado_210647" data-name="Trazado 210647" d="M687,533.566a.614.614,0,1,1-.855.151A.615.615,0,0,1,687,533.566Z" transform="translate(-686.035 -533.455)" fill="#fff"/>
      </g>
      <g id="Grupo_213212" data-name="Grupo 213212" transform="translate(134.824 497.557)">
        <path id="Trazado_210648" data-name="Trazado 210648" d="M683.341,598.317a.614.614,0,1,1-.855.151A.623.623,0,0,1,683.341,598.317Z" transform="translate(-682.375 -598.21)" fill="#fff"/>
      </g>
      <g id="Grupo_213213" data-name="Grupo 213213" transform="translate(66.959 545.434)">
        <path id="Trazado_210649" data-name="Trazado 210649" d="M607.1,652.106a.614.614,0,1,1-.855.151A.614.614,0,0,1,607.1,652.106Z" transform="translate(-606.135 -651.995)" fill="#fff"/>
      </g>
      <g id="Grupo_213214" data-name="Grupo 213214" transform="translate(155.181 656.87)">
        <path id="Trazado_210650" data-name="Trazado 210650" d="M706.211,777.3a.614.614,0,1,1-.855.151A.614.614,0,0,1,706.211,777.3Z" transform="translate(-705.245 -777.185)" fill="#fff"/>
      </g>
      <g id="Grupo_213215" data-name="Grupo 213215" transform="translate(59.5 481.272)">
        <path id="Trazado_210651" data-name="Trazado 210651" d="M598.721,580.026a.614.614,0,1,1-.855.151A.615.615,0,0,1,598.721,580.026Z" transform="translate(-597.755 -579.915)" fill="#fff"/>
      </g>
      <g id="Grupo_213216" data-name="Grupo 213216" transform="translate(18.823 575.087)">
        <path id="Trazado_210652" data-name="Trazado 210652" d="M553.128,685.514a.611.611,0,1,1-.863-.044A.6.6,0,0,1,553.128,685.514Z" transform="translate(-552.058 -685.308)" fill="#fff"/>
      </g>
      <g id="Grupo_213217" data-name="Grupo 213217" transform="translate(89.491 577.265)">
        <path id="Trazado_210653" data-name="Trazado 210653" d="M632.518,687.955a.611.611,0,1,1-.863-.045A.616.616,0,0,1,632.518,687.955Z" transform="translate(-631.448 -687.755)" fill="#fff"/>
      </g>
      <g id="Grupo_213218" data-name="Grupo 213218" transform="translate(36.029 633.451)">
        <path id="Trazado_210654" data-name="Trazado 210654" d="M572.458,751.075a.611.611,0,1,1-.863-.044A.617.617,0,0,1,572.458,751.075Z" transform="translate(-571.388 -750.875)" fill="#fff"/>
      </g>
      <g id="Grupo_213219" data-name="Grupo 213219" transform="translate(7.429 619.556)">
        <path id="Trazado_210655" data-name="Trazado 210655" d="M540.328,735.465a.611.611,0,1,1-.863-.045A.617.617,0,0,1,540.328,735.465Z" transform="translate(-539.258 -735.265)" fill="#fff"/>
      </g>
      <g id="Grupo_213220" data-name="Grupo 213220" transform="translate(102.683 643.385)">
        <path id="Trazado_210656" data-name="Trazado 210656" d="M647.338,762.235a.611.611,0,1,1-.863-.044A.616.616,0,0,1,647.338,762.235Z" transform="translate(-646.268 -762.035)" fill="#fff"/>
      </g>
      <g id="Grupo_213221" data-name="Grupo 213221" transform="translate(283.569 441.866)">
        <path id="Trazado_210657" data-name="Trazado 210657" d="M850.548,535.845a.611.611,0,1,1-.863-.045A.615.615,0,0,1,850.548,535.845Z" transform="translate(-849.478 -535.646)" fill="#fff"/>
      </g>
      <g id="Grupo_213222" data-name="Grupo 213222" transform="translate(425.074 263.535)">
        <path id="Trazado_210658" data-name="Trazado 210658" d="M1009.518,335.505a.611.611,0,1,1-.864-.044A.616.616,0,0,1,1009.518,335.505Z" transform="translate(-1008.448 -335.305)" fill="#fff"/>
      </g>
      <g id="Grupo_213223" data-name="Grupo 213223" transform="translate(482.853 159.424)">
        <path id="Trazado_210659" data-name="Trazado 210659" d="M1074.428,218.545a.611.611,0,1,1-.863-.045A.617.617,0,0,1,1074.428,218.545Z" transform="translate(-1073.358 -218.345)" fill="#fff"/>
      </g>
      <g id="Grupo_213224" data-name="Grupo 213224" transform="translate(461.036 190.848)">
        <path id="Trazado_210660" data-name="Trazado 210660" d="M1049.918,253.855a.611.611,0,1,1-.863-.045A.6.6,0,0,1,1049.918,253.855Z" transform="translate(-1048.848 -253.648)" fill="#fff"/>
      </g>
      <g id="Grupo_213225" data-name="Grupo 213225" transform="translate(397.07 188.799)">
        <path id="Trazado_210661" data-name="Trazado 210661" d="M978.058,251.545a.611.611,0,1,1-.863-.044A.616.616,0,0,1,978.058,251.545Z" transform="translate(-976.988 -251.345)" fill="#fff"/>
      </g>
      <g id="Grupo_213226" data-name="Grupo 213226" transform="translate(522.927 23.644)">
        <path id="Trazado_210662" data-name="Trazado 210662" d="M1119.448,66.015a.611.611,0,1,1-.863-.045A.6.6,0,0,1,1119.448,66.015Z" transform="translate(-1118.378 -65.808)" fill="#fff"/>
      </g>
      <g id="Grupo_213227" data-name="Grupo 213227" transform="translate(570.942 284.999)">
        <path id="Trazado_210663" data-name="Trazado 210663" d="M1173.388,359.625a.611.611,0,1,1-.863-.045A.6.6,0,0,1,1173.388,359.625Z" transform="translate(-1172.318 -359.418)" fill="#fff"/>
      </g>
      <g id="Grupo_213228" data-name="Grupo 213228" transform="translate(534.268 54.21)">
        <path id="Trazado_210664" data-name="Trazado 210664" d="M1132.188,100.345a.611.611,0,1,1-.863-.045A.616.616,0,0,1,1132.188,100.345Z" transform="translate(-1131.118 -100.145)" fill="#fff"/>
      </g>
      <g id="Grupo_213229" data-name="Grupo 213229" transform="translate(590.756 52.351)">
        <path id="Trazado_210665" data-name="Trazado 210665" d="M1195.648,98.265a.611.611,0,1,1-.863-.045A.6.6,0,0,1,1195.648,98.265Z" transform="translate(-1194.578 -98.058)" fill="#fff"/>
      </g>
      <g id="Grupo_213230" data-name="Grupo 213230" transform="translate(666.947 453.616)">
        <path id="Trazado_210666" data-name="Trazado 210666" d="M1281.239,549.045a.611.611,0,1,1-.908.819.607.607,0,0,1,.044-.864A.616.616,0,0,1,1281.239,549.045Z" transform="translate(-1280.172 -548.845)" fill="#fff"/>
      </g>
      <g id="Grupo_213231" data-name="Grupo 213231" transform="translate(551.706 501.054)">
        <path id="Trazado_210667" data-name="Trazado 210667" d="M1151.778,602.345a.611.611,0,1,1-.863-.045A.6.6,0,0,1,1151.778,602.345Z" transform="translate(-1150.708 -602.138)" fill="#fff"/>
      </g>
      <g id="Grupo_213232" data-name="Grupo 213232" transform="translate(572.695)">
        <path id="Trazado_210668" data-name="Trazado 210668" d="M1175.358,39.445a.611.611,0,1,1-.863-.044A.616.616,0,0,1,1175.358,39.445Z" transform="translate(-1174.288 -39.245)" fill="#fff"/>
      </g>
      <g id="Grupo_213233" data-name="Grupo 213233" transform="translate(464.828 65.345)">
        <path id="Trazado_210669" data-name="Trazado 210669" d="M1054.178,112.855a.611.611,0,1,1-.863-.045A.616.616,0,0,1,1054.178,112.855Z" transform="translate(-1053.108 -112.655)" fill="#fff"/>
      </g>
      <g id="Grupo_213234" data-name="Grupo 213234" transform="translate(638.352 418.776)">
        <path id="Trazado_210670" data-name="Trazado 210670" d="M1249.118,509.905a.611.611,0,1,1-.863-.044A.616.616,0,0,1,1249.118,509.905Z" transform="translate(-1248.048 -509.705)" fill="#fff"/>
      </g>
      <g id="Grupo_213235" data-name="Grupo 213235" transform="translate(331.939 404.409)">
        <path id="Trazado_210671" data-name="Trazado 210671" d="M904.888,493.765a.611.611,0,1,1-.863-.045A.616.616,0,0,1,904.888,493.765Z" transform="translate(-903.818 -493.565)" fill="#fff"/>
      </g>
      <g id="Grupo_213236" data-name="Grupo 213236" transform="translate(187.95 572.28)">
        <path id="Trazado_210672" data-name="Trazado 210672" d="M743.128,682.356a.611.611,0,1,1-.863-.045A.616.616,0,0,1,743.128,682.356Z" transform="translate(-742.058 -682.156)" fill="#fff"/>
      </g>
      <g id="Grupo_213237" data-name="Grupo 213237" transform="translate(16.864 662.276)">
        <path id="Trazado_210673" data-name="Trazado 210673" d="M550.928,783.465a.611.611,0,1,1-.863-.045A.6.6,0,0,1,550.928,783.465Z" transform="translate(-549.858 -783.258)" fill="#fff"/>
      </g>
      <g id="Grupo_213238" data-name="Grupo 213238" transform="translate(584.422 449.628)">
        <path id="Trazado_210674" data-name="Trazado 210674" d="M1188.528,544.565a.611.611,0,0,1-.908.819.608.608,0,0,1,.045-.863A.616.616,0,0,1,1188.528,544.565Z" transform="translate(-1187.462 -544.365)" fill="#fff"/>
      </g>
      <g id="Grupo_213239" data-name="Grupo 213239" transform="translate(517.542 466.733)">
        <path id="Trazado_210675" data-name="Trazado 210675" d="M1113.4,563.785a.611.611,0,1,1-.863-.045A.608.608,0,0,1,1113.4,563.785Z" transform="translate(-1112.328 -563.581)" fill="#fff"/>
      </g>
      <g id="Grupo_213240" data-name="Grupo 213240" transform="translate(488.408 499.985)">
        <path id="Trazado_210676" data-name="Trazado 210676" d="M1080.668,601.145a.611.611,0,1,1-.863-.045A.6.6,0,0,1,1080.668,601.145Z" transform="translate(-1079.598 -600.938)" fill="#fff"/>
      </g>
      <g id="Grupo_213241" data-name="Grupo 213241" transform="translate(319.58 567.713)">
        <path id="Trazado_210677" data-name="Trazado 210677" d="M890.3,677.074a.616.616,0,1,1-.321.81A.618.618,0,0,1,890.3,677.074Z" transform="translate(-889.934 -677.024)" fill="#fff"/>
      </g>
      <g id="Grupo_213242" data-name="Grupo 213242" transform="translate(383.643 610.466)">
        <path id="Trazado_210678" data-name="Trazado 210678" d="M962.274,725.1a.616.616,0,1,1-.32.81A.617.617,0,0,1,962.274,725.1Z" transform="translate(-961.904 -725.054)" fill="#fff"/>
      </g>
      <g id="Grupo_213243" data-name="Grupo 213243" transform="translate(247.001 614.427)">
        <path id="Trazado_210679" data-name="Trazado 210679" d="M808.765,729.554a.616.616,0,1,1-.321.81A.629.629,0,0,1,808.765,729.554Z" transform="translate(-808.398 -729.504)" fill="#fff"/>
      </g>
      <g id="Grupo_213244" data-name="Grupo 213244" transform="translate(229.88 662.023)">
        <path id="Trazado_210680" data-name="Trazado 210680" d="M789.534,783.024a.616.616,0,1,1-.32.81A.617.617,0,0,1,789.534,783.024Z" transform="translate(-789.164 -782.974)" fill="#fff"/>
      </g>
      <g id="Grupo_213245" data-name="Grupo 213245" transform="translate(450.947 550.328)">
        <path id="Trazado_210681" data-name="Trazado 210681" d="M1037.884,657.544a.616.616,0,1,1-.32.81A.618.618,0,0,1,1037.884,657.544Z" transform="translate(-1037.514 -657.494)" fill="#fff"/>
      </g>
      <g id="Grupo_213246" data-name="Grupo 213246" transform="translate(284.553 528.831)">
        <path id="Trazado_210682" data-name="Trazado 210682" d="M850.954,633.394a.616.616,0,1,1-.32.81A.617.617,0,0,1,850.954,633.394Z" transform="translate(-850.584 -633.344)" fill="#fff"/>
      </g>
      <g id="Grupo_213247" data-name="Grupo 213247" transform="translate(209.291 588.266)">
        <path id="Trazado_210683" data-name="Trazado 210683" d="M766.4,700.164a.616.616,0,1,1-.321.81A.617.617,0,0,1,766.4,700.164Z" transform="translate(-766.034 -700.114)" fill="#fff"/>
      </g>
      <g id="Grupo_213248" data-name="Grupo 213248" transform="translate(401.249 304.392)">
        <path id="Trazado_210684" data-name="Trazado 210684" d="M983.817,381.61a1.229,1.229,0,1,1-1.736-.08A1.218,1.218,0,0,1,983.817,381.61Z" transform="translate(-981.682 -381.205)" fill="#fff"/>
      </g>
      <g id="Grupo_213249" data-name="Grupo 213249" transform="translate(527.647 186.177)">
        <path id="Trazado_210685" data-name="Trazado 210685" d="M1126.885,249.005a1.84,1.84,0,1,1-2.6-.125A1.834,1.834,0,0,1,1126.885,249.005Z" transform="translate(-1123.68 -248.4)" fill="#fff"/>
      </g>
      <g id="Grupo_213250" data-name="Grupo 213250" transform="translate(451.976 221.187)">
        <path id="Trazado_210686" data-name="Trazado 210686" d="M1041.875,288.335a1.84,1.84,0,1,1-2.6-.125A1.834,1.834,0,0,1,1041.875,288.335Z" transform="translate(-1038.67 -287.73)" fill="#fff"/>
      </g>
      <g id="Grupo_213251" data-name="Grupo 213251" transform="translate(140.213 623.804)">
        <path id="Trazado_210687" data-name="Trazado 210687" d="M691.635,740.636a1.84,1.84,0,1,1-2.6-.125A1.834,1.834,0,0,1,691.635,740.636Z" transform="translate(-688.43 -740.038)" fill="#fff"/>
      </g>
      <g id="Grupo_213252" data-name="Grupo 213252" transform="translate(168.181 487.686)">
        <path id="Trazado_210688" data-name="Trazado 210688" d="M723.055,587.725a1.84,1.84,0,1,1-2.6-.125A1.834,1.834,0,0,1,723.055,587.725Z" transform="translate(-719.85 -587.12)" fill="#fff"/>
      </g>
      <g id="Grupo_213253" data-name="Grupo 213253" transform="translate(74.085 633.23)">
        <path id="Trazado_210689" data-name="Trazado 210689" d="M617.345,751.226a1.84,1.84,0,1,1-2.6-.125A1.834,1.834,0,0,1,617.345,751.226Z" transform="translate(-614.14 -750.628)" fill="#fff"/>
      </g>
      <g id="Grupo_213254" data-name="Grupo 213254" transform="translate(51.359 607.021)">
        <path id="Trazado_210690" data-name="Trazado 210690" d="M591.815,721.786a1.84,1.84,0,1,1-2.6-.125A1.834,1.834,0,0,1,591.815,721.786Z" transform="translate(-588.61 -721.184)" fill="#fff"/>
      </g>
      <g id="Grupo_213255" data-name="Grupo 213255" transform="translate(389.15 376.961)">
        <path id="Trazado_210691" data-name="Trazado 210691" d="M971.295,463.335a1.84,1.84,0,1,1-2.6-.125A1.834,1.834,0,0,1,971.295,463.335Z" transform="translate(-968.09 -462.73)" fill="#fff"/>
      </g>
      <g id="Grupo_213256" data-name="Grupo 213256" transform="translate(253.368 472.889)">
        <path id="Trazado_210692" data-name="Trazado 210692" d="M818.754,571.1a1.84,1.84,0,1,1-2.6-.125A1.834,1.834,0,0,1,818.754,571.1Z" transform="translate(-815.55 -570.498)" fill="#fff"/>
      </g>
      <g id="Grupo_213257" data-name="Grupo 213257" transform="translate(538.422 424.454)">
        <path id="Trazado_210693" data-name="Trazado 210693" d="M1139.047,519.089a1.841,1.841,0,1,1-.258-2.59A1.847,1.847,0,0,1,1139.047,519.089Z" transform="translate(-1135.785 -516.085)" fill="#fff"/>
      </g>
      <g id="Grupo_213258" data-name="Grupo 213258" transform="translate(650.312 309.43)">
        <path id="Trazado_210694" data-name="Trazado 210694" d="M1264.747,389.869a1.841,1.841,0,1,1-.258-2.59A1.846,1.846,0,0,1,1264.747,389.869Z" transform="translate(-1261.485 -386.865)" fill="#fff"/>
      </g>
      <g id="Grupo_213259" data-name="Grupo 213259" transform="translate(603.731 26.161)">
        <path id="Trazado_210695" data-name="Trazado 210695" d="M1212.417,71.639a1.841,1.841,0,1,1-.258-2.59A1.846,1.846,0,0,1,1212.417,71.639Z" transform="translate(-1209.155 -68.635)" fill="#fff"/>
      </g>
      <g id="Grupo_213260" data-name="Grupo 213260" transform="translate(637.51 66.429)">
        <path id="Trazado_210696" data-name="Trazado 210696" d="M1252.441,114.876a3.069,3.069,0,1,1-4.335-.2A3.068,3.068,0,0,1,1252.441,114.876Z" transform="translate(-1247.102 -113.872)" fill="#fff"/>
      </g>
      <g id="Grupo_213261" data-name="Grupo 213261" transform="translate(699.046 165.881)">
        <path id="Trazado_210697" data-name="Trazado 210697" d="M1321.571,226.606a3.069,3.069,0,1,1-4.335-.2A3.068,3.068,0,0,1,1321.571,226.606Z" transform="translate(-1316.232 -225.598)" fill="#fff"/>
      </g>
      <g id="Grupo_213262" data-name="Grupo 213262" transform="translate(620.722 354.128)">
        <path id="Trazado_210698" data-name="Trazado 210698" d="M1233.581,438.086a3.069,3.069,0,1,1-4.335-.2A3.068,3.068,0,0,1,1233.581,438.086Z" transform="translate(-1228.243 -437.078)" fill="#fff"/>
      </g>
      <g id="Grupo_213263" data-name="Grupo 213263" transform="translate(555.039 264.9)">
        <path id="Trazado_210699" data-name="Trazado 210699" d="M1159.791,337.846a3.069,3.069,0,1,1-4.335-.2A3.068,3.068,0,0,1,1159.791,337.846Z" transform="translate(-1154.452 -336.839)" fill="#fff"/>
      </g>
      <g id="Grupo_213264" data-name="Grupo 213264" transform="translate(605.189 399.688)">
        <path id="Trazado_210700" data-name="Trazado 210700" d="M1216.131,489.266a3.069,3.069,0,1,1-4.335-.2A3.068,3.068,0,0,1,1216.131,489.266Z" transform="translate(-1210.793 -488.262)" fill="#fff"/>
      </g>
      <g id="Grupo_213265" data-name="Grupo 213265" transform="translate(739.974 278.893)">
        <path id="Trazado_210701" data-name="Trazado 210701" d="M1367.551,353.566a3.069,3.069,0,1,1-4.335-.2A3.069,3.069,0,0,1,1367.551,353.566Z" transform="translate(-1362.213 -352.559)" fill="#fff"/>
      </g>
      <g id="Grupo_213266" data-name="Grupo 213266" transform="translate(739.307 322.914)">
        <path id="Trazado_210702" data-name="Trazado 210702" d="M1366.8,403.016a3.069,3.069,0,1,1-4.335-.2A3.068,3.068,0,0,1,1366.8,403.016Z" transform="translate(-1361.462 -402.012)" fill="#fff"/>
      </g>
      <g id="Grupo_213267" data-name="Grupo 213267" transform="translate(565.168 116.306)">
        <path id="Trazado_210703" data-name="Trazado 210703" d="M1171.171,170.907a3.069,3.069,0,1,1-4.335-.2A3.068,3.068,0,0,1,1171.171,170.907Z" transform="translate(-1165.833 -169.906)" fill="#fff"/>
      </g>
      <g id="Grupo_213268" data-name="Grupo 213268" transform="translate(657.494 187.755)">
        <path id="Trazado_210704" data-name="Trazado 210704" d="M1274.891,251.176a3.069,3.069,0,1,1-4.335-.2A3.068,3.068,0,0,1,1274.891,251.176Z" transform="translate(-1269.552 -250.172)" fill="#fff"/>
      </g>
      <g id="Grupo_213269" data-name="Grupo 213269" transform="translate(245.811 60.738)" opacity="0.3">
        <path id="Trazado_210705" data-name="Trazado 210705" d="M957.992,590.7,856.24,593.524l-.08-.053-49.1-32.285.872-.08,65.274-5.884,20.607-35.944,48.4-11.234,11.59-23.3,19.6,16.067,39.1-9.071-13.459-56.355,15.586-4.21-24.781-35.846.4-.125,60.093-18.159,20.651-18.773L1039.476,320.3l44.97,25.734,34.618-31.466,7.406-48.032-52.26,15.693-5.83-78.964,65.149,21.506-6.311,40.9,37.119-11.154-35.312-88.676,39.727-1.709-40.635-56.657.685.08,73.045,8.394,115.639-2.448-.018.329L1304.5,330.22l-41.409-114.347-52.3-52.937-40.875,1.763,52.394,73.054-57.138,17.162,9.614,24.15,82.24-8.136-.143.445-19.378,59.194-.134.053L1132.958,373.8l54.219,31.03-80.335-20.892,24.728-10.228-47.044-26.918-12.693,11.536,55.483,66.85-64.606-6.365-47.1,12.72,35.8,51.8-.436.107-37.742,8.759,12.489,52.3L973.25,501.483l-30.621,7.1-32.535,65.434Zm-101.583,2.2,98.218-2.724L909.239,574.35l.151-.311,32.464-65.292L894.214,519.8,873.58,555.791l-.16.018-64.562,5.821Zm117.6-91.613,50.7,41.552-12.07-50.525Zm39.095-9.7,37.306-8.661-35.419-51.237L999.776,435.8Zm-70.107,16.272,29.66-6.89-18.64-15.275Zm72.253-76.873,47.418-12.809.053.009,63.173,6.222-54.512-65.684-20.74,18.853-.062.018-59.755,18.061Zm93.527-47.2,74.113,19.272-50.64-28.983Zm60.716-219.7,41.552-1.789.1.1,52.492,53.124.027.062,40.422,111.615,12.773-213.082-115.015,2.43-72.4-8.314ZM1085.016,346.34l47.275,27.06L1237.016,330.1l19.138-58.473-81.127,8.02,17.393,43.67L1150.1,281.494l24.052-2.377-9.569-24.034-37.448,11.251-7.486,48.53-.08.071Zm66.44-64.366,39.3,38.837-16.37-41.107ZM1042.129,322.5l29.33,35.339,12.524-11.385Zm122.813-68.176L1221.3,237.4l-52.118-72.68-39.264,1.691Zm-90.163,27.087,51.806-15.56,6.276-40.671-63.788-21.052Z" transform="translate(-807.06 -107.48)" fill="#fff"/>
      </g>
      <g id="Grupo_213270" data-name="Grupo 213270" transform="translate(294.501 508.346)">
        <path id="Trazado_210706" data-name="Trazado 210706" d="M916.45,629.477l-54.69,19.512,17.509-38.659.285.151Zm-53.542,18.444L914.9,629.37l-35.356-18.2Z" transform="translate(-861.76 -610.33)" fill="#fff"/>
      </g>
      <g id="Grupo_213271" data-name="Grupo 213271" transform="translate(348.177 482.443)">
        <path id="Trazado_210707" data-name="Trazado 210707" d="M922.541,626.414l-.481-.383,35.606-44.8.481.383Z" transform="translate(-922.06 -581.23)" fill="#fff"/>
      </g>
      <g id="Grupo_213272" data-name="Grupo 213272" transform="translate(254.534 410.582)" opacity="0.3">
        <path id="Trazado_210708" data-name="Trazado 210708" d="M874.319,598.941,816.86,564.6l52.768-22.218L905.393,500.5l.223.116,48.931,26.953-.294.543-48.717-26.838L870,542.9l-.062.027L818.213,564.7l56.417,33.719Z" transform="translate(-816.86 -500.5)" fill="#fff"/>
      </g>
      <g id="Grupo_213273" data-name="Grupo 213273" transform="translate(332.35 234.254)" opacity="0.6">
        <path id="Trazado_210709" data-name="Trazado 210709" d="M966.777,612.375l-11.082-61.322-50.551-9.694,15.515,54.156-.587.169L904.28,540.567l51.949,9.961.035.2,10.958,60.6,68.443-46.465,25.645-60.423,6.1-33.469L963.546,507.312l.739-.81-1.664-59.7.124-.1,37.947-29.935-.071-.338.294.1L1051.679,342l9.818,56.657,12.062,40.724,44.6-34.235-33.541-102.74,45.557,33.407,72.645,7.4-.267.418-65.034,102.811-.1.036-69.333,24.256-6.186,33.905-25.734,60.619-.071.053Zm101.414-142.316,68.9-24.105,64.651-102.215-71.825-7.317-.071-.054-44.089-32.33,33.086,101.334-.169.134-45.032,34.564ZM965.638,505.932l101.885-35.65,5.492-30.176-71.585-22.761,8.991,39.736-.107.116Zm-2.4-58.829,1.638,58.758,44.881-48.949-8.928-39.469Zm38.267-30.372,71.407,22.707L1060.883,398.8l-9.569-55.2Z" transform="translate(-904.28 -302.41)" fill="#fff"/>
      </g>
      <g id="Grupo_213274" data-name="Grupo 213274" transform="translate(488.445 376.943)">
        <path id="Trazado_210710" data-name="Trazado 210710" d="M1131.66,512.327l-.142.027L1079.64,522.7l1.042-.8,76.792-59.185Zm-49.572,9.266,49.162-9.809,24.39-46.875Z" transform="translate(-1079.64 -462.71)" fill="#fff"/>
      </g>
      <g id="Grupo_213275" data-name="Grupo 213275" transform="translate(605.374 27.768)">
        <path id="Trazado_210711" data-name="Trazado 210711" d="M1245.965,112.366c-11.607-13.94-33.852-40.546-34.965-41.454l.392-.472c1.433,1.175,33.674,39.887,35.045,41.534Z" transform="translate(-1211 -70.44)" fill="#fff"/>
      </g>
      <g id="Grupo_213276" data-name="Grupo 213276" transform="translate(630.075 275.164)">
        <path id="Trazado_210712" data-name="Trazado 210712" d="M1302.7,387.919l-18.061-30.6-23.856,27.674-.214-.356-21.818-35.944.525-.321,21.595,35.588,23.865-27.692,18.489,31.342Z" transform="translate(-1238.75 -348.37)" fill="#fff"/>
      </g>
      <g id="Grupo_213277" data-name="Grupo 213277" transform="translate(695.118 224.329)">
        <path id="Trazado_210713" data-name="Trazado 210713" d="M1359.514,349.092c-.454-.552-45.655-55.18-47.694-57.423l.454-.409c2.047,2.252,47.258,56.9,47.712,57.441Z" transform="translate(-1311.82 -291.26)" fill="#fff"/>
      </g>
      <g id="Grupo_213278" data-name="Grupo 213278" transform="translate(546.242 115.829)" opacity="0.8">
        <path id="Trazado_210714" data-name="Trazado 210714" d="M1206.755,456.752,1163.45,431.8l-.044-.089-18.835-41.018.018-.089,11.563-69.244.063-.062,31.3-32.846-17.527-56.6.588-.178,17.633,56.933-31.484,33.042-11.51,68.959,18.719,40.76,42.486,24.47,15.435-45.264,28.466-46.091.187.018,42.024,3.276,47.792-31.947-66,1.6-46.376-8.394.534-.418,64.731-50.578L1258.6,244.516l-.009-.107-10.9-74.959.614-.08,10.869,74.852,34.965,33.87-64.749,50.6,44.97,8.127,68.06-1.647L1292.7,368.414l-42.059-3.285L1222.4,410.874Z" transform="translate(-1144.57 -169.37)" fill="#fff"/>
      </g>
      <g id="Grupo_213279" data-name="Grupo 213279" transform="translate(546.384 274.675)">
        <path id="Trazado_210715" data-name="Trazado 210715" d="M1222.422,430.568l-.187.062-58.429,20.847-.2-.579,58.242-20.776,6.48-81.012L1145.1,410.5l-.365-.49,84.314-62.194Z" transform="translate(-1144.73 -347.82)" fill="#fff"/>
      </g>
      <g id="Grupo_213280" data-name="Grupo 213280" transform="translate(567.223 27.679)">
        <path id="Trazado_210716" data-name="Trazado 210716" d="M1416.2,255.854l-120.284,11.679,6.747-55.376-41.124,21.648-.1-.018-89.317-12.693.552-.445,77.585-62.239-8.973-45.735-72.431,49.946-.712-59L1206.4,70.34l.142.018,75.537,12.649-.107.605-75.4-12.622-37.822,32.917.694,57.548,72.252-49.812,9.222,47.008-.142.116-77.176,61.918,87.813,12.489,41.988-22.111-.071.587-6.721,55.2,119.519-11.6Z" transform="translate(-1168.14 -70.34)" fill="#fff"/>
      </g>
      <g id="Grupo_213281" data-name="Grupo 213281" transform="translate(589.04 190.085)">
        <path id="Trazado_210717" data-name="Trazado 210717" d="M1233.623,338.137l-.338-.338-40.635-40.163,72.119-44.845Zm-39.994-40.386,39.745,39.282,30.2-82.774Z" transform="translate(-1192.65 -252.79)" fill="#fff"/>
      </g>
      <g id="Grupo_213282" data-name="Grupo 213282" transform="translate(649.57 90.086)">
        <path id="Trazado_210718" data-name="Trazado 210718" d="M1401.364,249.074l-88.542-29.562,21.479-78.1-73.446,25.111-.2-.579L1335.2,140.45l-21.63,78.662,87.99,29.384Z" transform="translate(-1260.65 -140.45)" fill="#fff"/>
      </g>
      <g id="Grupo_213283" data-name="Grupo 213283" transform="translate(307.301 378.474)">
        <path id="Trazado_210719" data-name="Trazado 210719" d="M901.83,559.319l-25.69-20.4.383-.481,24.871,19.752,10.3-61.446.116-.071,47.961-32.241.125.027,47.169,10.041-.133.605-47.035-10.014-47.631,32.018Z" transform="translate(-876.14 -464.43)" fill="#fff"/>
      </g>
      <g id="Grupo_213284" data-name="Grupo 213284" transform="translate(462.693 313.058)" opacity="0.3">
        <path id="Trazado_210720" data-name="Trazado 210720" d="M1134.143,547.427l-.062-.409-83.371,28.547,77.4-71.656.062-.018,46.688-16.156,36.727-52.874.053-.036L1284.2,390.94,1196.5,480.862l-61.918,65.951Zm-80.878,26.615L1134,546.4l-5.946-41.605Zm75.35-69.662,5.911,41.409,39.736-57.209Zm46.634-16.138-38.285,55.118,58.233-62.016Zm.6-.855,20.26-7.014,84.3-86.424-68.389,41.365Z" transform="translate(-1050.71 -390.94)" fill="#fff"/>
      </g>
      <g id="Grupo_213285" data-name="Grupo 213285" transform="translate(432.437 222.183)" opacity="0.3">
        <path id="Trazado_210721" data-name="Trazado 210721" d="M1017.308,364.387l-.588-.169,21.3-75.368,26.09,52.331-.543.276-25.386-50.916Z" transform="translate(-1016.72 -288.85)" fill="#fff"/>
      </g>
      <g id="Grupo_213286" data-name="Grupo 213286" transform="translate(428.779 118.847)" opacity="0.6">
        <path id="Trazado_210722" data-name="Trazado 210722" d="M1013.224,402.675l-.614-.045,3.658-51.29.16-.08,46.768-22.948,33.309-39.13-59.417-12.044,54.058-66.538,61.188-37.84.036.507,3.721,58.99-.1.1-58.7,56.853-33.709,39.6-.054.027-46.661,22.9ZM1038.2,276.737l58.776,11.919,58.482-56.64-3.676-58.2L1091.512,211.1Z" transform="translate(-1012.61 -172.76)" fill="#fff"/>
      </g>
      <g id="Grupo_213287" data-name="Grupo 213287" transform="translate(507.174 82.591)">
        <path id="Trazado_210723" data-name="Trazado 210723" d="M1101.285,206.446l-.605-.107,13.281-74.309,47.961,36.54-.374.49-47.16-35.935Z" transform="translate(-1100.68 -132.03)" fill="#fff"/>
      </g>
      <g id="Grupo_213288" data-name="Grupo 213288" transform="translate(608.187 314.259)" opacity="0.3">
        <path id="Trazado_210724" data-name="Trazado 210724" d="M1293.214,463.172l-78.911,17.91-.142-.6L1292.9,462.62l54.859-58.429-47.569-11.3.142-.6,48.593,11.554-.356.383Z" transform="translate(-1214.16 -392.29)" fill="#fff"/>
      </g>
      <g id="Grupo_213289" data-name="Grupo 213289" transform="translate(651.875 311.135)">
        <path id="Trazado_210725" data-name="Trazado 210725" d="M1298.641,463.632l-35.4-74.585.552-.267,34.466,72.609,7.086-69.217.614.062Z" transform="translate(-1263.24 -388.78)" fill="#fff"/>
      </g>
      <g id="Grupo_213290" data-name="Grupo 213290" transform="translate(742.055 203.446)" opacity="0.5">
        <path id="Trazado_210726" data-name="Trazado 210726" d="M1446.514,363.027l-81.964,27.746.685-44.552.053-.08,55.055-78.341.507.356-55,78.261-.667,43.492,81.136-27.461Z" transform="translate(-1364.55 -267.8)" fill="#fff"/>
      </g>
      <g id="Grupo_213291" data-name="Grupo 213291" transform="translate(394.854 441.606)">
        <rect id="Rectángulo_66719" data-name="Rectángulo 66719" width="116.226" height="0.614" transform="translate(0 102.011) rotate(-61.367)" fill="#fff"/>
      </g>
      <g id="Grupo_213292" data-name="Grupo 213292" transform="translate(390.706 297.487)" opacity="0.3">
        <rect id="Rectángulo_66720" data-name="Rectángulo 66720" width="91.275" height="0.614" transform="translate(0 81.171) rotate(-62.787)" fill="#fff"/>
      </g>
      <g id="Grupo_213293" data-name="Grupo 213293" transform="translate(75.446 437.873)" opacity="0.8">
        <path id="Trazado_210727" data-name="Trazado 210727" d="M1004.136,590.506l-80.255-14.34,8.572-43.8-59.372,34.03H873l-77.318,1.923L787.156,608.4l-30.345-15.017-44.64,32.7L641.413,684.06,666.6,694.2l-50.587,34.119-.338-.507L665.3,694.332,640.22,684.246l.4-.329L711.8,625.6l44.952-32.935.169.08,29.8,14.75,8.465-39.78,77.727-1.941,60.4-34.617L924.6,575.667l79.65,14.233Z" transform="translate(-615.67 -531.16)" fill="#fff"/>
      </g>
      <g id="Grupo_213294" data-name="Grupo 213294" transform="translate(74.343 598.17)" opacity="0.3">
        <rect id="Rectángulo_66721" data-name="Rectángulo 66721" width="0.614" height="15.052" transform="translate(0 0.426) rotate(-43.898)" fill="#fff"/>
      </g>
      <g id="Grupo_213295" data-name="Grupo 213295" transform="translate(1.351 525.178)" opacity="0.75">
        <path id="Trazado_210728" data-name="Trazado 210728" d="M673.57,730.307l-.285-.08-57.281-16.619-31.921-.178-51.655-9.24.107-.605,51.61,9.24,31.947.169.036.009,57.049,16.557,13.041-38.472L659.934,629.48l.57-.24,26.375,61.82-.036.116Z" transform="translate(-532.43 -629.24)" fill="#fff"/>
      </g>
      <g id="Grupo_213296" data-name="Grupo 213296" transform="translate(169.712 489.51)" opacity="0.3">
        <path id="Trazado_210729" data-name="Trazado 210729" d="M796.8,644.768l-73.472-12.293-.009-.249L721.57,589.2l.614-.027,1.736,42.78,72.974,12.213Z" transform="translate(-721.57 -589.17)" fill="#fff"/>
      </g>
      <g id="Grupo_213297" data-name="Grupo 213297" transform="translate(125.268 514.265)">
        <path id="Trazado_210730" data-name="Trazado 210730" d="M688.41,728.755l-16.77-25.191,29.944-14.055,16.307-54.494.178-.044,75.35-17.99-1.736,30.247,49.777,1.647-.026.614-50.4-1.665,1.718-30.051-74.371,17.749L702.1,689.945l-.125.062-29.428,13.815,16.37,24.594Z" transform="translate(-671.64 -616.98)" fill="#fff"/>
      </g>
      <g id="Grupo_213298" data-name="Grupo 213298" transform="translate(155.23 544.503)" opacity="0.3">
        <path id="Trazado_210731" data-name="Trazado 210731" d="M705.781,693.65l-.481-.383,29.624-38.116.134-.009,59.978-4.192.044.614-59.844,4.175Z" transform="translate(-705.3 -650.95)" fill="#fff"/>
      </g>
      <g id="Grupo_213299" data-name="Grupo 213299" transform="translate(52.516 590.666)" opacity="0.3">
        <path id="Trazado_210732" data-name="Trazado 210732" d="M613.116,747.513l-23.206-26.4,21.88-10.851.276.552L590.9,721.307l22,25.022,9.2-25.1.036-.045,15.613-18.373.472.4-15.586,18.328Z" transform="translate(-589.91 -702.81)" fill="#fff"/>
      </g>
      <g id="Grupo_213300" data-name="Grupo 213300" transform="translate(129.095 524.991)" opacity="0.3">
        <path id="Trazado_210733" data-name="Trazado 210733" d="M731.609,653.224l-12.72-16.761-42.949-6.827.089-.605,43.2,6.872.071.1,12.8,16.85Z" transform="translate(-675.94 -629.03)" fill="#fff"/>
      </g>
      <g id="Grupo_213301" data-name="Grupo 213301" transform="translate(100.298 525.157)">
        <rect id="Rectángulo_66722" data-name="Rectángulo 66722" width="71.514" height="0.614" transform="translate(0 65.571) rotate(-66.478)" fill="#fff"/>
      </g>
      <g id="Grupo_213302" data-name="Grupo 213302" transform="translate(128.944 474.173)" opacity="0.3">
        <path id="Trazado_210734" data-name="Trazado 210734" d="M763.44,597.834l-46.51-10.2L676.171,623.3l-.4-.463,40.991-35.872.089.018,86.62-15.043Zm-45.005-10.5,44.89,9.845L800.6,573.053Z" transform="translate(-675.77 -571.94)" fill="#fff"/>
      </g>
      <g id="Grupo_213303" data-name="Grupo 213303" transform="translate(1.405 590.577)" opacity="0.75">
        <path id="Trazado_210735" data-name="Trazado 210735" d="M631.759,703.3l-26.135,7.531L532.5,712.261l-.009-.614,73.081-1.424,26.019-7.513Z" transform="translate(-532.49 -702.71)" fill="#fff"/>
      </g>
      <g id="Grupo_213304" data-name="Grupo 213304" transform="translate(129.14 525.294)" opacity="0.1">
        <path id="Trazado_210736" data-name="Trazado 210736" d="M675.99,629.37l43.074,6.845-29.74,24.417Z" transform="translate(-675.99 -629.37)" fill="#fff"/>
      </g>
      <g id="Grupo_213305" data-name="Grupo 213305" transform="translate(453.69 177.968)" opacity="0.3">
        <rect id="Rectángulo_66723" data-name="Rectángulo 66723" width="126.338" height="0.614" transform="translate(0 44.799) rotate(-20.769)" fill="#fff"/>
      </g>
    </g>
  </g>
</svg>
