<svg id="Grupo_213038" data-name="Grupo 213038" xmlns="http://www.w3.org/2000/svg" xmlns:xlink="http://www.w3.org/1999/xlink" width="46.611" height="49.409" viewBox="0 0 46.611 49.409">
  <defs>
    <clipPath id="clip-path">
      <rect id="Rectángulo_66681" data-name="Rectángulo 66681" width="46.611" height="49.409" fill="#ff8900"/>
    </clipPath>
  </defs>
  <g id="Grupo_212913" data-name="Grupo 212913" clip-path="url(#clip-path)">
    <path id="Trazado_210421" data-name="Trazado 210421" d="M23.6.445Q19.155,3.034,14.693,5.6c-1.912,1.1-3.835,2.185-5.725,3.325A1.058,1.058,0,0,1,7.589,8.84a3.663,3.663,0,0,0-4.1-.325A3.681,3.681,0,0,0,1.383,12.1,3.755,3.755,0,0,0,3.82,15.625c.605.262.638.283.638.967,0,5.687.012,11.375-.012,17.062a1.631,1.631,0,0,0,.942,1.613c4.982,2.84,9.938,5.725,14.909,8.584a.692.692,0,0,1,.409.815A3.75,3.75,0,0,0,22.5,48.682a3.654,3.654,0,0,0,4.077.021,3.719,3.719,0,0,0,1.855-3.859.957.957,0,0,1,.554-1.089c4.919-2.821,9.815-5.679,14.745-8.48a1.588,1.588,0,0,0,.9-1.581c-.028-5.639-.008-11.278-.026-16.917a1.076,1.076,0,0,1,.747-1.2,3.838,3.838,0,0,0,2.3-4.378,3.915,3.915,0,0,0-3.89-3.135,3.641,3.641,0,0,0-2.4.9.735.735,0,0,1-.989.077q-3.7-2.144-7.4-4.282Q29.206,2.582,25.439.408c-.168-.1-.409-.138-.417-.407h-.967c-.011.287-.272.34-.451.444M5.315,14.118a2.126,2.126,0,1,1,2.108-2.132,2.133,2.133,0,0,1-2.108,2.132M24.542,47.477a2.127,2.127,0,1,1,.049-4.253,2.127,2.127,0,0,1-.049,4.253M43.832,9.866a2.126,2.126,0,0,1-.01,4.252,2.126,2.126,0,1,1,.01-4.252M24.24,2.162a.561.561,0,0,1,.653.012q7.343,4.253,14.7,8.485a.431.431,0,0,1,.248.558,4.021,4.021,0,0,0,2.685,4.618c.247.088.322.185.322.434q-.009,8.557,0,17.114a.458.458,0,0,1-.269.453q-7.416,4.271-14.825,8.556a.347.347,0,0,1-.486-.048,3.993,3.993,0,0,0-5.406-.016.373.373,0,0,1-.528.048Q13.949,38.1,6.549,33.847a.552.552,0,0,1-.289-.584q.007-4.206,0-8.412c0-2.8.007-5.608-.008-8.412,0-.35.065-.522.431-.653a3.978,3.978,0,0,0,2.586-4.533.48.48,0,0,1,.269-.607Q16.9,6.418,24.24,2.162" transform="translate(-1.246 -0.001)" fill="#ff8900"/>
    <path id="Trazado_210422" data-name="Trazado 210422" d="M22.336.316Q14.906,4.609,7.477,8.906a.651.651,0,0,1-.89-.054A3.817,3.817,0,0,0,2.206,8.4a3.817,3.817,0,0,0-2.2,3.872,3.839,3.839,0,0,0,2.612,3.5.6.6,0,0,1,.471.675c-.015,5.817,0,11.635-.021,17.452a1.366,1.366,0,0,0,.793,1.348c1.49.825,2.954,1.7,4.429,2.549q5.365,3.1,10.735,6.189c.275.158.395.3.3.629A3.288,3.288,0,0,0,19.32,46.1a4.054,4.054,0,0,0,7.978-1.44.526.526,0,0,1,.3-.678c5.016-2.883,10.018-5.79,15.042-8.659a1.586,1.586,0,0,0,.9-1.582c-.025-5.753-.01-11.506-.022-17.259a.636.636,0,0,1,.488-.718A3.815,3.815,0,0,0,46.6,12.254a4.035,4.035,0,0,0-6.656-3.33.494.494,0,0,1-.694.041C37.139,7.737,35.021,6.52,32.907,5.3Q28.339,2.651,23.775,0c.008.268.249.31.417.407q3.766,2.176,7.534,4.348,3.7,2.138,7.4,4.282a.735.735,0,0,0,.989-.077,3.642,3.642,0,0,1,2.4-.9A3.915,3.915,0,0,1,46.4,11.2a3.838,3.838,0,0,1-2.3,4.378,1.076,1.076,0,0,0-.747,1.2c.018,5.639,0,11.278.026,16.917a1.588,1.588,0,0,1-.9,1.581c-4.93,2.8-9.827,5.659-14.745,8.48a.957.957,0,0,0-.554,1.089A3.719,3.719,0,0,1,25.329,48.7a3.654,3.654,0,0,1-4.077-.021,3.75,3.75,0,0,1-1.794-4.015.692.692,0,0,0-.409-.815c-4.972-2.858-9.927-5.744-14.909-8.584A1.631,1.631,0,0,1,3.2,33.654c.024-5.687.014-11.375.012-17.062,0-.684-.033-.706-.638-.967A3.755,3.755,0,0,1,.136,12.1,3.681,3.681,0,0,1,2.243,8.515a3.662,3.662,0,0,1,4.1.325,1.058,1.058,0,0,0,1.379.083C9.61,7.783,11.534,6.7,13.446,5.6Q17.9,3.028,22.356.445c.179-.1.44-.157.451-.444a1.27,1.27,0,0,1-.471.315" transform="translate(0.001 -0.001)" fill="#ff8900"/>
    <path id="Trazado_210423" data-name="Trazado 210423" d="M99.222,100.6q6.186,3.555,12.357,7.137a1.263,1.263,0,0,0,1.4,0q6.171-3.581,12.357-7.136a1.209,1.209,0,0,0,.674-1.171c-.017-2.385-.007-4.769-.007-7.154s-.01-4.769.007-7.154a1.208,1.208,0,0,0-.676-1.169q-6.186-3.555-12.357-7.136a1.263,1.263,0,0,0-1.4,0Q105.406,80.4,99.22,83.959a1.221,1.221,0,0,0-.685,1.167q.013,7.154,0,14.308a1.223,1.223,0,0,0,.687,1.167m12.821-21.812a.443.443,0,0,1,.518.029q5.233,3.029,10.47,6.046c0,.154-.138.171-.224.221q-5.109,2.956-10.22,5.908a.491.491,0,0,1-.568.027q-5.167-3-10.345-5.982a2.3,2.3,0,0,1-.191-.145c3.553-2.051,7.059-4.072,10.56-6.1m-11.567,7.972a.961.961,0,0,1,.042-.158c1.225.709,2.4,1.393,3.585,2.075,2.449,1.414,4.907,2.813,7.343,4.251a1.446,1.446,0,0,0,1.649.01c3.481-2.037,6.98-4.045,10.473-6.061.137-.079.277-.151.413-.226.146.109.082.248.082.363q.006,5.849.006,11.7a.518.518,0,0,1-.269.546q-5.186,2.973-10.358,5.971a2.009,2.009,0,0,1-.2.081V104.4c0-1.08,0-2.159,0-3.239,0-.711-.367-1.145-.953-1.149a1.006,1.006,0,0,0-.978,1.136c0,1.367,0,2.735,0,4.1-.191.037-.294-.089-.412-.157q-5.055-2.912-10.106-5.83c-.194-.112-.319-.209-.318-.468q.014-6.018.008-12.037" transform="translate(-88.967 -69.17)" fill="#ff8900"/>
    <path id="Trazado_210424" data-name="Trazado 210424" d="M231,274.784a.966.966,0,0,0,.049-1.931.966.966,0,1,0-.049,1.931" transform="translate(-207.717 -246.359)" fill="#ff8900"/>
  </g>
</svg>
