<svg xmlns="http://www.w3.org/2000/svg" xmlns:xlink="http://www.w3.org/1999/xlink" width="332.286" height="202.719" viewBox="0 0 332.286 202.719">
  <defs>
    <clipPath id="clip-path">
      <rect id="Rectángulo_66685" data-name="Rectángulo 66685" width="30.404" height="34.597" fill="#2754ba"/>
    </clipPath>
  </defs>
  <g id="Grupo_217269" data-name="Grupo 217269" transform="translate(-1010 -8068.641)">
    <g id="Grupo_217268" data-name="Grupo 217268">
      <g id="Grupo_213019" data-name="Grupo 213019" transform="translate(4.875 -137.29)">
        <g id="Grupo_212928" data-name="Grupo 212928" transform="translate(1188.883 8258.071)">
          <g id="Grupo_212921" data-name="Grupo 212921" transform="translate(2.345 2.115)">
            <g id="Grupo_212920" data-name="Grupo 212920" transform="translate(0.033 1.122)">
              <g id="Rectángulo_66683" data-name="Rectángulo 66683" transform="translate(13.514 13.464)" fill="none" stroke="#243f5b" stroke-width="1">
                <rect width="65.008" height="65.008" stroke="none"/>
                <rect x="0.5" y="0.5" width="64.008" height="64.008" fill="none"/>
              </g>
              <g id="Rectángulo_66684" data-name="Rectángulo 66684" transform="translate(0.051 45.968) rotate(-45)" fill="none" stroke="#243f5b" stroke-width="1">
                <rect width="65.008" height="65.008" stroke="none"/>
                <rect x="0.5" y="0.5" width="64.008" height="64.008" fill="none"/>
              </g>
              <path id="Trazado_210442" data-name="Trazado 210442" d="M-7500.695-2909.491l31.985,13.944,13.32,32.032-13.32,31.753-31.985,13.342-32.119-13.342-13.385-31.753,13.385-32.032Z" transform="translate(7546.714 2909.491)" fill="none" stroke="#243f5b" stroke-width="1"/>
              <path id="Trazado_210443" data-name="Trazado 210443" d="M-7517.562-2818.431v-91.042" transform="translate(7563.482 2909.502)" fill="none" stroke="#243f5b" stroke-width="1"/>
              <path id="Trazado_210444" data-name="Trazado 210444" d="M-7473.233-2901l-64.354,64.48" transform="translate(7551.755 2914.464)" fill="none" stroke="#243f5b" stroke-width="1"/>
              <path id="Trazado_210445" data-name="Trazado 210445" d="M-7455.2-2880.5h-91.324" transform="translate(7546.523 2926.468)" fill="none" stroke="#243f5b" stroke-width="1"/>
              <path id="Trazado_210446" data-name="Trazado 210446" d="M-7474.293-2836.815l-63.421-63.682" transform="translate(7551.68 2914.759)" fill="none" stroke="#243f5b" stroke-width="1"/>
            </g>
            <g id="Elipse_5015" data-name="Elipse 5015" transform="translate(0)" fill="none" stroke="#3156b4" stroke-width="1">
              <circle cx="46.542" cy="46.542" r="46.542" stroke="none"/>
              <circle cx="46.542" cy="46.542" r="46.042" fill="none"/>
            </g>
          </g>
          <g id="Grupo_212922" data-name="Grupo 212922" transform="translate(45.714 0)">
            <ellipse id="Elipse_5016" data-name="Elipse 5016" cx="3.702" cy="4.231" rx="3.702" ry="4.231" transform="translate(0)" fill="#5079d6"/>
            <circle id="Elipse_5017" data-name="Elipse 5017" cx="3.702" cy="3.702" r="3.702" transform="translate(0 90.969)" fill="#5079d6"/>
          </g>
          <g id="Grupo_212923" data-name="Grupo 212923" transform="translate(98.304 45.255) rotate(90)">
            <circle id="Elipse_5016-2" data-name="Elipse 5016" cx="3.964" cy="3.964" r="3.964" transform="translate(0 0)" fill="#5079d6"/>
            <circle id="Elipse_5017-2" data-name="Elipse 5017" cx="3.964" cy="3.964" r="3.964" transform="translate(0 90.377)" fill="#5079d6"/>
          </g>
          <g id="Grupo_212924" data-name="Grupo 212924" transform="translate(81.105 11.659) rotate(45)">
            <circle id="Elipse_5016-3" data-name="Elipse 5016" cx="3.964" cy="3.964" r="3.964" transform="translate(0 0)" fill="#5079d6"/>
            <circle id="Elipse_5017-3" data-name="Elipse 5017" cx="3.964" cy="3.964" r="3.964" transform="translate(0 90.377)" fill="#5079d6"/>
          </g>
          <g id="Grupo_212925" data-name="Grupo 212925" transform="translate(86.711 81.173) rotate(135)">
            <circle id="Elipse_5016-4" data-name="Elipse 5016" cx="3.964" cy="3.964" r="3.964" transform="translate(0 0)" fill="#5079d6"/>
            <circle id="Elipse_5017-4" data-name="Elipse 5017" cx="3.964" cy="3.964" r="3.964" transform="translate(0 90.377)" fill="#5079d6"/>
          </g>
        </g>
        <g id="Grupo_212931" data-name="Grupo 212931" transform="translate(1142.109 8289.965)">
          <g id="Grupo_212930" data-name="Grupo 212930" transform="translate(0)" clip-path="url(#clip-path)">
            <path id="Trazado_210450" data-name="Trazado 210450" d="M76.054.171a9.711,9.711,0,0,0-2.361.681,8.981,8.981,0,0,0-3.955,3.364,8.7,8.7,0,0,0-1.446,5.319A8.8,8.8,0,0,0,70.8,15.356a9,9,0,0,0,12.766.262,8.59,8.59,0,0,0,2.677-5.177,8.769,8.769,0,0,0-2.426-7.562A8.8,8.8,0,0,0,78.376.152c-.1-.013-.242.022-.25-.152H76.369c-.031.191-.2.152-.315.171m1.272,1.856A7.095,7.095,0,1,1,70.22,9.093a7.105,7.105,0,0,1,7.106-7.066" transform="translate(-62.113)" fill="#2754ba"/>
            <path id="Trazado_210451" data-name="Trazado 210451" d="M67.583,10.645A9.118,9.118,0,1,0,78.982.323C78.454.179,77.91.139,77.384,0c.008.174.151.139.25.152a8.8,8.8,0,0,1,5.44,2.727A8.769,8.769,0,0,1,85.5,10.44a8.589,8.589,0,0,1-2.677,5.177,9,9,0,0,1-12.766-.262,8.8,8.8,0,0,1-2.507-5.822A8.7,8.7,0,0,1,69,4.216,8.981,8.981,0,0,1,72.951.852,9.711,9.711,0,0,1,75.313.171c.116-.019.284.02.315-.171-.476.106-.958.19-1.427.321a9.1,9.1,0,0,0-6.618,10.323" transform="translate(-61.372)" fill="#2754ba"/>
            <path id="Trazado_210452" data-name="Trazado 210452" d="M17.373,224.417c-1.441-.017-2.882-.01-4.324,0a12.61,12.61,0,0,0-4.324.783A13.363,13.363,0,0,0,0,237.52a1.053,1.053,0,0,0,1.207,1.219h28.07a1.029,1.029,0,0,0,1.127-1.131,13.964,13.964,0,0,0-.192-2.115,13.259,13.259,0,0,0-12.84-11.075m10.579,12.3c-4.256-.016-8.511-.01-12.767-.01s-8.511,0-12.767.007c-.282,0-.353-.055-.322-.345a11.268,11.268,0,0,1,9.448-9.809,11.448,11.448,0,0,1,1.85-.124c1.609.027,3.224-.1,4.827.06a10.933,10.933,0,0,1,8.8,5.853,11.082,11.082,0,0,1,1.273,3.953c.042.295.019.416-.346.415" transform="translate(0 -204.141)" fill="#2754ba"/>
          </g>
        </g>
        <g id="Grupo_212932" data-name="Grupo 212932" transform="translate(1307.007 8289.965)">
          <g id="Grupo_212930-2" data-name="Grupo 212930" clip-path="url(#clip-path)">
            <path id="Trazado_210450-2" data-name="Trazado 210450" d="M76.054.171a9.711,9.711,0,0,0-2.361.681,8.981,8.981,0,0,0-3.955,3.364,8.7,8.7,0,0,0-1.446,5.319A8.8,8.8,0,0,0,70.8,15.356a9,9,0,0,0,12.766.262,8.59,8.59,0,0,0,2.677-5.177,8.769,8.769,0,0,0-2.426-7.562A8.8,8.8,0,0,0,78.376.152c-.1-.013-.242.022-.25-.152H76.369c-.031.191-.2.152-.315.171m1.272,1.856A7.095,7.095,0,1,1,70.22,9.093a7.105,7.105,0,0,1,7.106-7.066" transform="translate(-62.113)" fill="#2754ba"/>
            <path id="Trazado_210451-2" data-name="Trazado 210451" d="M67.583,10.645A9.118,9.118,0,1,0,78.982.323C78.454.179,77.91.139,77.384,0c.008.174.151.139.25.152a8.8,8.8,0,0,1,5.44,2.727A8.769,8.769,0,0,1,85.5,10.44a8.589,8.589,0,0,1-2.677,5.177,9,9,0,0,1-12.766-.262,8.8,8.8,0,0,1-2.507-5.822A8.7,8.7,0,0,1,69,4.216,8.981,8.981,0,0,1,72.951.852,9.711,9.711,0,0,1,75.313.171c.116-.019.284.02.315-.171-.476.106-.958.19-1.427.321a9.1,9.1,0,0,0-6.618,10.323" transform="translate(-61.372)" fill="#2754ba"/>
            <path id="Trazado_210452-2" data-name="Trazado 210452" d="M17.373,224.417c-1.441-.017-2.882-.01-4.324,0a12.61,12.61,0,0,0-4.324.783A13.363,13.363,0,0,0,0,237.52a1.053,1.053,0,0,0,1.207,1.219h28.07a1.029,1.029,0,0,0,1.127-1.131,13.964,13.964,0,0,0-.192-2.115,13.259,13.259,0,0,0-12.84-11.075m10.579,12.3c-4.256-.016-8.511-.01-12.767-.01s-8.511,0-12.767.007c-.282,0-.353-.055-.322-.345a11.268,11.268,0,0,1,9.448-9.809,11.448,11.448,0,0,1,1.85-.124c1.609.027,3.224-.1,4.827.06a10.933,10.933,0,0,1,8.8,5.853,11.082,11.082,0,0,1,1.273,3.953c.042.295.019.416-.346.415" transform="translate(0 -204.141)" fill="#2754ba"/>
          </g>
        </g>
        <g id="Grupo_212933" data-name="Grupo 212933" transform="translate(1291.152 8231.3)">
          <g id="Grupo_212930-3" data-name="Grupo 212930" transform="translate(0)" clip-path="url(#clip-path)">
            <path id="Trazado_210450-3" data-name="Trazado 210450" d="M76.054.171a9.711,9.711,0,0,0-2.361.681,8.981,8.981,0,0,0-3.955,3.364,8.7,8.7,0,0,0-1.446,5.319A8.8,8.8,0,0,0,70.8,15.356a9,9,0,0,0,12.766.262,8.59,8.59,0,0,0,2.677-5.177,8.769,8.769,0,0,0-2.426-7.562A8.8,8.8,0,0,0,78.376.152c-.1-.013-.242.022-.25-.152H76.369c-.031.191-.2.152-.315.171m1.272,1.856A7.095,7.095,0,1,1,70.22,9.093a7.105,7.105,0,0,1,7.106-7.066" transform="translate(-62.113)" fill="#2754ba"/>
            <path id="Trazado_210451-3" data-name="Trazado 210451" d="M67.583,10.645A9.118,9.118,0,1,0,78.982.323C78.454.179,77.91.139,77.384,0c.008.174.151.139.25.152a8.8,8.8,0,0,1,5.44,2.727A8.769,8.769,0,0,1,85.5,10.44a8.589,8.589,0,0,1-2.677,5.177,9,9,0,0,1-12.766-.262,8.8,8.8,0,0,1-2.507-5.822A8.7,8.7,0,0,1,69,4.216,8.981,8.981,0,0,1,72.951.852,9.711,9.711,0,0,1,75.313.171c.116-.019.284.02.315-.171-.476.106-.958.19-1.427.321a9.1,9.1,0,0,0-6.618,10.323" transform="translate(-61.372)" fill="#2754ba"/>
            <path id="Trazado_210452-3" data-name="Trazado 210452" d="M17.373,224.417c-1.441-.017-2.882-.01-4.324,0a12.61,12.61,0,0,0-4.324.783A13.363,13.363,0,0,0,0,237.52a1.053,1.053,0,0,0,1.207,1.219h28.07a1.029,1.029,0,0,0,1.127-1.131,13.964,13.964,0,0,0-.192-2.115,13.259,13.259,0,0,0-12.84-11.075m10.579,12.3c-4.256-.016-8.511-.01-12.767-.01s-8.511,0-12.767.007c-.282,0-.353-.055-.322-.345a11.268,11.268,0,0,1,9.448-9.809,11.448,11.448,0,0,1,1.85-.124c1.609.027,3.224-.1,4.827.06a10.933,10.933,0,0,1,8.8,5.853,11.082,11.082,0,0,1,1.273,3.953c.042.295.019.416-.346.415" transform="translate(0 -204.141)" fill="#2754ba"/>
          </g>
        </g>
        <g id="Grupo_212934" data-name="Grupo 212934" transform="translate(1222.833 8205.931)">
          <g id="Grupo_212930-4" data-name="Grupo 212930" transform="translate(0)" clip-path="url(#clip-path)">
            <path id="Trazado_210450-4" data-name="Trazado 210450" d="M76.054.171a9.711,9.711,0,0,0-2.361.681,8.981,8.981,0,0,0-3.955,3.364,8.7,8.7,0,0,0-1.446,5.319A8.8,8.8,0,0,0,70.8,15.356a9,9,0,0,0,12.766.262,8.59,8.59,0,0,0,2.677-5.177,8.769,8.769,0,0,0-2.426-7.562A8.8,8.8,0,0,0,78.376.152c-.1-.013-.242.022-.25-.152H76.369c-.031.191-.2.152-.315.171m1.272,1.856A7.095,7.095,0,1,1,70.22,9.093a7.105,7.105,0,0,1,7.106-7.066" transform="translate(-62.113)" fill="#2754ba"/>
            <path id="Trazado_210451-4" data-name="Trazado 210451" d="M67.583,10.645A9.118,9.118,0,1,0,78.982.323C78.454.179,77.91.139,77.384,0c.008.174.151.139.25.152a8.8,8.8,0,0,1,5.44,2.727A8.769,8.769,0,0,1,85.5,10.44a8.589,8.589,0,0,1-2.677,5.177,9,9,0,0,1-12.766-.262,8.8,8.8,0,0,1-2.507-5.822A8.7,8.7,0,0,1,69,4.216,8.981,8.981,0,0,1,72.951.852,9.711,9.711,0,0,1,75.313.171c.116-.019.284.02.315-.171-.476.106-.958.19-1.427.321a9.1,9.1,0,0,0-6.618,10.323" transform="translate(-61.372)" fill="#2754ba"/>
            <path id="Trazado_210452-4" data-name="Trazado 210452" d="M17.373,224.417c-1.441-.017-2.882-.01-4.324,0a12.61,12.61,0,0,0-4.324.783A13.363,13.363,0,0,0,0,237.52a1.053,1.053,0,0,0,1.207,1.219h28.07a1.029,1.029,0,0,0,1.127-1.131,13.964,13.964,0,0,0-.192-2.115,13.259,13.259,0,0,0-12.84-11.075m10.579,12.3c-4.256-.016-8.511-.01-12.767-.01s-8.511,0-12.767.007c-.282,0-.353-.055-.322-.345a11.268,11.268,0,0,1,9.448-9.809,11.448,11.448,0,0,1,1.85-.124c1.609.027,3.224-.1,4.827.06a10.933,10.933,0,0,1,8.8,5.853,11.082,11.082,0,0,1,1.273,3.953c.042.295.019.416-.346.415" transform="translate(0 -204.141)" fill="#2754ba"/>
          </g>
        </g>
        <g id="Grupo_212938" data-name="Grupo 212938" transform="translate(1157.311 8228.129)">
          <g id="Grupo_212930-5" data-name="Grupo 212930" clip-path="url(#clip-path)">
            <path id="Trazado_210450-5" data-name="Trazado 210450" d="M76.054.171a9.711,9.711,0,0,0-2.361.681,8.981,8.981,0,0,0-3.955,3.364,8.7,8.7,0,0,0-1.446,5.319A8.8,8.8,0,0,0,70.8,15.356a9,9,0,0,0,12.766.262,8.59,8.59,0,0,0,2.677-5.177,8.769,8.769,0,0,0-2.426-7.562A8.8,8.8,0,0,0,78.376.152c-.1-.013-.242.022-.25-.152H76.369c-.031.191-.2.152-.315.171m1.272,1.856A7.095,7.095,0,1,1,70.22,9.093a7.105,7.105,0,0,1,7.106-7.066" transform="translate(-62.113)" fill="#2754ba"/>
            <path id="Trazado_210451-5" data-name="Trazado 210451" d="M67.583,10.645A9.118,9.118,0,1,0,78.982.323C78.454.179,77.91.139,77.384,0c.008.174.151.139.25.152a8.8,8.8,0,0,1,5.44,2.727A8.769,8.769,0,0,1,85.5,10.44a8.589,8.589,0,0,1-2.677,5.177,9,9,0,0,1-12.766-.262,8.8,8.8,0,0,1-2.507-5.822A8.7,8.7,0,0,1,69,4.216,8.981,8.981,0,0,1,72.951.852,9.711,9.711,0,0,1,75.313.171c.116-.019.284.02.315-.171-.476.106-.958.19-1.427.321a9.1,9.1,0,0,0-6.618,10.323" transform="translate(-61.372)" fill="#2754ba"/>
            <path id="Trazado_210452-5" data-name="Trazado 210452" d="M17.373,224.417c-1.441-.017-2.882-.01-4.324,0a12.61,12.61,0,0,0-4.324.783A13.363,13.363,0,0,0,0,237.52a1.053,1.053,0,0,0,1.207,1.219h28.07a1.029,1.029,0,0,0,1.127-1.131,13.964,13.964,0,0,0-.192-2.115,13.259,13.259,0,0,0-12.84-11.075m10.579,12.3c-4.256-.016-8.511-.01-12.767-.01s-8.511,0-12.767.007c-.282,0-.353-.055-.322-.345a11.268,11.268,0,0,1,9.448-9.809,11.448,11.448,0,0,1,1.85-.124c1.609.027,3.224-.1,4.827.06a10.933,10.933,0,0,1,8.8,5.853,11.082,11.082,0,0,1,1.273,3.953c.042.295.019.416-.346.415" transform="translate(0 -204.141)" fill="#2754ba"/>
          </g>
        </g>
        <g id="Grupo_212935" data-name="Grupo 212935" transform="translate(1222.833 8374.053)">
          <g id="Grupo_212930-6" data-name="Grupo 212930" transform="translate(0)" clip-path="url(#clip-path)">
            <path id="Trazado_210450-6" data-name="Trazado 210450" d="M76.054.171a9.711,9.711,0,0,0-2.361.681,8.981,8.981,0,0,0-3.955,3.364,8.7,8.7,0,0,0-1.446,5.319A8.8,8.8,0,0,0,70.8,15.356a9,9,0,0,0,12.766.262,8.59,8.59,0,0,0,2.677-5.177,8.769,8.769,0,0,0-2.426-7.562A8.8,8.8,0,0,0,78.376.152c-.1-.013-.242.022-.25-.152H76.369c-.031.191-.2.152-.315.171m1.272,1.856A7.095,7.095,0,1,1,70.22,9.093a7.105,7.105,0,0,1,7.106-7.066" transform="translate(-62.113)" fill="#2754ba"/>
            <path id="Trazado_210451-6" data-name="Trazado 210451" d="M67.583,10.645A9.118,9.118,0,1,0,78.982.323C78.454.179,77.91.139,77.384,0c.008.174.151.139.25.152a8.8,8.8,0,0,1,5.44,2.727A8.769,8.769,0,0,1,85.5,10.44a8.589,8.589,0,0,1-2.677,5.177,9,9,0,0,1-12.766-.262,8.8,8.8,0,0,1-2.507-5.822A8.7,8.7,0,0,1,69,4.216,8.981,8.981,0,0,1,72.951.852,9.711,9.711,0,0,1,75.313.171c.116-.019.284.02.315-.171-.476.106-.958.19-1.427.321a9.1,9.1,0,0,0-6.618,10.323" transform="translate(-61.372)" fill="#2754ba"/>
            <path id="Trazado_210452-6" data-name="Trazado 210452" d="M17.373,224.417c-1.441-.017-2.882-.01-4.324,0a12.61,12.61,0,0,0-4.324.783A13.363,13.363,0,0,0,0,237.52a1.053,1.053,0,0,0,1.207,1.219h28.07a1.029,1.029,0,0,0,1.127-1.131,13.964,13.964,0,0,0-.192-2.115,13.259,13.259,0,0,0-12.84-11.075m10.579,12.3c-4.256-.016-8.511-.01-12.767-.01s-8.511,0-12.767.007c-.282,0-.353-.055-.322-.345a11.268,11.268,0,0,1,9.448-9.809,11.448,11.448,0,0,1,1.85-.124c1.609.027,3.224-.1,4.827.06a10.933,10.933,0,0,1,8.8,5.853,11.082,11.082,0,0,1,1.273,3.953c.042.295.019.416-.346.415" transform="translate(0 -204.141)" fill="#2754ba"/>
          </g>
        </g>
        <g id="Grupo_212936" data-name="Grupo 212936" transform="translate(1157.311 8341.041)">
          <g id="Grupo_212930-7" data-name="Grupo 212930" clip-path="url(#clip-path)">
            <path id="Trazado_210450-7" data-name="Trazado 210450" d="M76.054.171a9.711,9.711,0,0,0-2.361.681,8.981,8.981,0,0,0-3.955,3.364,8.7,8.7,0,0,0-1.446,5.319A8.8,8.8,0,0,0,70.8,15.356a9,9,0,0,0,12.766.262,8.59,8.59,0,0,0,2.677-5.177,8.769,8.769,0,0,0-2.426-7.562A8.8,8.8,0,0,0,78.376.152c-.1-.013-.242.022-.25-.152H76.369c-.031.191-.2.152-.315.171m1.272,1.856A7.095,7.095,0,1,1,70.22,9.093a7.105,7.105,0,0,1,7.106-7.066" transform="translate(-62.113)" fill="#2754ba"/>
            <path id="Trazado_210451-7" data-name="Trazado 210451" d="M67.583,10.645A9.118,9.118,0,1,0,78.982.323C78.454.179,77.91.139,77.384,0c.008.174.151.139.25.152a8.8,8.8,0,0,1,5.44,2.727A8.769,8.769,0,0,1,85.5,10.44a8.589,8.589,0,0,1-2.677,5.177,9,9,0,0,1-12.766-.262,8.8,8.8,0,0,1-2.507-5.822A8.7,8.7,0,0,1,69,4.216,8.981,8.981,0,0,1,72.951.852,9.711,9.711,0,0,1,75.313.171c.116-.019.284.02.315-.171-.476.106-.958.19-1.427.321a9.1,9.1,0,0,0-6.618,10.323" transform="translate(-61.372)" fill="#2754ba"/>
            <path id="Trazado_210452-7" data-name="Trazado 210452" d="M17.373,224.417c-1.441-.017-2.882-.01-4.324,0a12.61,12.61,0,0,0-4.324.783A13.363,13.363,0,0,0,0,237.52a1.053,1.053,0,0,0,1.207,1.219h28.07a1.029,1.029,0,0,0,1.127-1.131,13.964,13.964,0,0,0-.192-2.115,13.259,13.259,0,0,0-12.84-11.075m10.579,12.3c-4.256-.016-8.511-.01-12.767-.01s-8.511,0-12.767.007c-.282,0-.353-.055-.322-.345a11.268,11.268,0,0,1,9.448-9.809,11.448,11.448,0,0,1,1.85-.124c1.609.027,3.224-.1,4.827.06a10.933,10.933,0,0,1,8.8,5.853,11.082,11.082,0,0,1,1.273,3.953c.042.295.019.416-.346.415" transform="translate(0 -204.141)" fill="#2754ba"/>
          </g>
        </g>
        <g id="Grupo_212937" data-name="Grupo 212937" transform="translate(1290.219 8341.041)">
          <g id="Grupo_212930-8" data-name="Grupo 212930" transform="translate(0)" clip-path="url(#clip-path)">
            <path id="Trazado_210450-8" data-name="Trazado 210450" d="M76.054.171a9.711,9.711,0,0,0-2.361.681,8.981,8.981,0,0,0-3.955,3.364,8.7,8.7,0,0,0-1.446,5.319A8.8,8.8,0,0,0,70.8,15.356a9,9,0,0,0,12.766.262,8.59,8.59,0,0,0,2.677-5.177,8.769,8.769,0,0,0-2.426-7.562A8.8,8.8,0,0,0,78.376.152c-.1-.013-.242.022-.25-.152H76.369c-.031.191-.2.152-.315.171m1.272,1.856A7.095,7.095,0,1,1,70.22,9.093a7.105,7.105,0,0,1,7.106-7.066" transform="translate(-62.113)" fill="#2754ba"/>
            <path id="Trazado_210451-8" data-name="Trazado 210451" d="M67.583,10.645A9.118,9.118,0,1,0,78.982.323C78.454.179,77.91.139,77.384,0c.008.174.151.139.25.152a8.8,8.8,0,0,1,5.44,2.727A8.769,8.769,0,0,1,85.5,10.44a8.589,8.589,0,0,1-2.677,5.177,9,9,0,0,1-12.766-.262,8.8,8.8,0,0,1-2.507-5.822A8.7,8.7,0,0,1,69,4.216,8.981,8.981,0,0,1,72.951.852,9.711,9.711,0,0,1,75.313.171c.116-.019.284.02.315-.171-.476.106-.958.19-1.427.321a9.1,9.1,0,0,0-6.618,10.323" transform="translate(-61.372)" fill="#2754ba"/>
            <path id="Trazado_210452-8" data-name="Trazado 210452" d="M17.373,224.417c-1.441-.017-2.882-.01-4.324,0a12.61,12.61,0,0,0-4.324.783A13.363,13.363,0,0,0,0,237.52a1.053,1.053,0,0,0,1.207,1.219h28.07a1.029,1.029,0,0,0,1.127-1.131,13.964,13.964,0,0,0-.192-2.115,13.259,13.259,0,0,0-12.84-11.075m10.579,12.3c-4.256-.016-8.511-.01-12.767-.01s-8.511,0-12.767.007c-.282,0-.353-.055-.322-.345a11.268,11.268,0,0,1,9.448-9.809,11.448,11.448,0,0,1,1.85-.124c1.609.027,3.224-.1,4.827.06a10.933,10.933,0,0,1,8.8,5.853,11.082,11.082,0,0,1,1.273,3.953c.042.295.019.416-.346.415" transform="translate(0 -204.141)" fill="#2754ba"/>
          </g>
        </g>
        <g id="Grupo_212941" data-name="Grupo 212941" transform="translate(1290.92 8306.839) rotate(-45)">
          <path id="Trazado_210453" data-name="Trazado 210453" d="M8.348,7.313,0,0" transform="translate(0.001 0.702)" fill="none" stroke="#f08e35" stroke-width="1"/>
          <path id="Trazado_210454" data-name="Trazado 210454" d="M0,6.671V.535L5.942,0" transform="translate(0 0)" fill="none" stroke="#f08e35" stroke-width="1"/>
        </g>
        <g id="Grupo_212942" data-name="Grupo 212942" transform="translate(1179.142 8312.507) rotate(-135)">
          <path id="Trazado_210453-2" data-name="Trazado 210453" d="M8.349,0,0,7.313" transform="translate(0 0)" fill="none" stroke="#f08e35" stroke-width="1"/>
          <path id="Trazado_210454-2" data-name="Trazado 210454" d="M0,0V6.136l5.943.535" transform="translate(0 1.343)" fill="none" stroke="#f08e35" stroke-width="1"/>
        </g>
        <g id="Grupo_212943" data-name="Grupo 212943" transform="translate(1275.464 8269.288) rotate(-90)">
          <path id="Trazado_210453-3" data-name="Trazado 210453" d="M8.348,7.313,0,0" transform="translate(0.001 0.702)" fill="none" stroke="#f08e35" stroke-width="1"/>
          <path id="Trazado_210454-3" data-name="Trazado 210454" d="M0,6.671V.535L5.942,0" transform="translate(0 0)" fill="none" stroke="#f08e35" stroke-width="1"/>
        </g>
        <g id="Grupo_212944" data-name="Grupo 212944" transform="translate(1200.432 8352.335) rotate(180)">
          <path id="Trazado_210453-4" data-name="Trazado 210453" d="M8.349,0,0,7.313" transform="translate(0)" fill="none" stroke="#f08e35" stroke-width="1"/>
          <path id="Trazado_210454-4" data-name="Trazado 210454" d="M0,0V6.136l5.943.535" transform="translate(0 1.343)" fill="none" stroke="#f08e35" stroke-width="1"/>
        </g>
        <g id="Grupo_212945" data-name="Grupo 212945" transform="translate(1238.017 8253.582) rotate(-135)">
          <path id="Trazado_210453-5" data-name="Trazado 210453" d="M8.348,7.313,0,0" transform="translate(0.001 0.702)" fill="none" stroke="#f08e35" stroke-width="1"/>
          <path id="Trazado_210454-5" data-name="Trazado 210454" d="M0,6.671V.535L5.942,0" transform="translate(0 0)" fill="none" stroke="#f08e35" stroke-width="1"/>
        </g>
        <g id="Grupo_212946" data-name="Grupo 212946" transform="translate(1243.684 8365.359) rotate(135)">
          <path id="Trazado_210453-6" data-name="Trazado 210453" d="M8.349,0,0,7.313" transform="translate(0 0)" fill="none" stroke="#f08e35" stroke-width="1"/>
          <path id="Trazado_210454-6" data-name="Trazado 210454" d="M0,0V6.136l5.943.535" transform="translate(0 1.343)" fill="none" stroke="#f08e35" stroke-width="1"/>
        </g>
        <g id="Grupo_212947" data-name="Grupo 212947" transform="translate(1200.466 8269.039) rotate(180)">
          <path id="Trazado_210453-7" data-name="Trazado 210453" d="M8.348,7.313,0,0" transform="translate(0.001 0.702)" fill="none" stroke="#f08e35" stroke-width="1"/>
          <path id="Trazado_210454-7" data-name="Trazado 210454" d="M0,6.671V.535L5.942,0" transform="translate(0 0)" fill="none" stroke="#f08e35" stroke-width="1"/>
        </g>
        <g id="Grupo_212948" data-name="Grupo 212948" transform="translate(1283.512 8344.067) rotate(90)">
          <path id="Trazado_210453-8" data-name="Trazado 210453" d="M8.349,0,0,7.313" transform="translate(0)" fill="none" stroke="#f08e35" stroke-width="1"/>
          <path id="Trazado_210454-8" data-name="Trazado 210454" d="M0,0V6.136l5.943.535" transform="translate(0 1.343)" fill="none" stroke="#f08e35" stroke-width="1"/>
        </g>
      </g>
      <g id="Trazado_216939" data-name="Trazado 216939" transform="translate(1010 8075)" fill="none">
        <path d="M0,0H126V30H0Z" stroke="none"/>
        <path d="M 1 1 L 1 29 L 125 29 L 125 1 L 1 1 M 0 0 L 126 0 L 126 30 L 0 30 L 0 0 Z" stroke="none" fill="#f08e35"/>
      </g>
      <path id="Trazado_217329" data-name="Trazado 217329" d="M2.828,15.773H8.219V17H1.32V5.625H2.828Zm10.383,1.383a3.693,3.693,0,0,1-2.8-1.129,4.19,4.19,0,0,1-1.078-3.02v-.266a5.073,5.073,0,0,1,.48-2.246A3.748,3.748,0,0,1,11.16,8.949a3.378,3.378,0,0,1,1.871-.559,3.166,3.166,0,0,1,2.563,1.086,4.7,4.7,0,0,1,.914,3.109v.6H10.781a3,3,0,0,0,.73,2.02,2.3,2.3,0,0,0,1.777.77,2.517,2.517,0,0,0,1.3-.312,3.259,3.259,0,0,0,.93-.828l.883.688A3.55,3.55,0,0,1,13.211,17.156Zm-.18-7.578a1.928,1.928,0,0,0-1.469.637A3.1,3.1,0,0,0,10.828,12h4.234v-.109a2.753,2.753,0,0,0-.594-1.707A1.815,1.815,0,0,0,13.031,9.578Zm4.8,3.125a4.952,4.952,0,0,1,.922-3.129,3.137,3.137,0,0,1,4.766-.168V5h1.445V17H23.633l-.07-.906a2.943,2.943,0,0,1-2.414,1.063,2.887,2.887,0,0,1-2.395-1.2,5.008,5.008,0,0,1-.926-3.141Zm1.445.164a3.749,3.749,0,0,0,.594,2.25,1.92,1.92,0,0,0,1.641.813A2.108,2.108,0,0,0,23.516,14.7V10.813a2.125,2.125,0,0,0-1.992-1.2,1.929,1.929,0,0,0-1.656.82A4.128,4.128,0,0,0,19.273,12.867Zm7.586-.164a4.968,4.968,0,0,1,.914-3.145,3.151,3.151,0,0,1,4.836-.074l.07-.937H34V16.8a3.439,3.439,0,0,1-.973,2.586,3.589,3.589,0,0,1-2.613.945,4.348,4.348,0,0,1-1.789-.391,3.08,3.08,0,0,1-1.336-1.07l.75-.867a2.826,2.826,0,0,0,2.273,1.148,2.214,2.214,0,0,0,1.645-.594,2.269,2.269,0,0,0,.59-1.672v-.727a2.971,2.971,0,0,1-2.367,1,2.887,2.887,0,0,1-2.4-1.2A5.224,5.224,0,0,1,26.859,12.7Zm1.453.164a3.79,3.79,0,0,0,.586,2.246,1.9,1.9,0,0,0,1.641.816,2.117,2.117,0,0,0,2.008-1.242V10.828a2.142,2.142,0,0,0-1.992-1.211,1.921,1.921,0,0,0-1.648.82A4.128,4.128,0,0,0,28.313,12.867Zm11.375,4.289a3.693,3.693,0,0,1-2.8-1.129,4.19,4.19,0,0,1-1.078-3.02v-.266a5.073,5.073,0,0,1,.48-2.246,3.748,3.748,0,0,1,1.344-1.547,3.378,3.378,0,0,1,1.871-.559A3.166,3.166,0,0,1,42.07,9.477a4.7,4.7,0,0,1,.914,3.109v.6H37.258a3,3,0,0,0,.73,2.02,2.3,2.3,0,0,0,1.777.77,2.517,2.517,0,0,0,1.3-.312,3.259,3.259,0,0,0,.93-.828l.883.688A3.55,3.55,0,0,1,39.688,17.156Zm-.18-7.578a1.928,1.928,0,0,0-1.469.637A3.1,3.1,0,0,0,37.3,12h4.234v-.109a2.753,2.753,0,0,0-.594-1.707A1.815,1.815,0,0,0,39.508,9.578Zm9.234.266a4.331,4.331,0,0,0-.711-.055A1.9,1.9,0,0,0,46.1,11v6H44.656V8.547h1.406l.023.977A2.251,2.251,0,0,1,48.1,8.391a1.477,1.477,0,0,1,.641.109ZM59.25,17a3.036,3.036,0,0,1-.2-.891,3.225,3.225,0,0,1-2.406,1.047,2.984,2.984,0,0,1-2.051-.707,2.287,2.287,0,0,1-.8-1.793,2.39,2.39,0,0,1,1-2.051,4.733,4.733,0,0,1,2.824-.73h1.406v-.664A1.623,1.623,0,0,0,58.57,10a1.821,1.821,0,0,0-1.336-.449,2.107,2.107,0,0,0-1.3.391,1.151,1.151,0,0,0-.523.945H53.961a2,2,0,0,1,.449-1.223,3.066,3.066,0,0,1,1.219-.934,4.1,4.1,0,0,1,1.691-.344,3.342,3.342,0,0,1,2.289.73,2.635,2.635,0,0,1,.859,2.012v3.891a4.757,4.757,0,0,0,.3,1.852V17Zm-2.4-1.1a2.54,2.54,0,0,0,1.289-.352,2.127,2.127,0,0,0,.883-.914V12.9H57.891q-2.656,0-2.656,1.555a1.316,1.316,0,0,0,.453,1.063A1.742,1.742,0,0,0,56.852,15.9Zm13.039-3.031A5.026,5.026,0,0,1,69,15.98a2.846,2.846,0,0,1-2.391,1.176,2.947,2.947,0,0,1-2.477-1.133l-.07.977H62.734V5H64.18V9.477a2.93,2.93,0,0,1,2.414-1.086,2.863,2.863,0,0,1,2.418,1.164,5.177,5.177,0,0,1,.879,3.188ZM68.445,12.7a3.906,3.906,0,0,0-.57-2.281,1.888,1.888,0,0,0-1.641-.8,2.122,2.122,0,0,0-2.055,1.328V14.6a2.181,2.181,0,0,0,2.07,1.328,1.878,1.878,0,0,0,1.617-.8A4.153,4.153,0,0,0,68.445,12.7ZM73.281,17H71.836V8.547h1.445ZM71.719,6.3a.863.863,0,0,1,.215-.594.807.807,0,0,1,.637-.242.819.819,0,0,1,.641.242.854.854,0,0,1,.219.594.826.826,0,0,1-.219.586.834.834,0,0,1-.641.234.821.821,0,0,1-.637-.234A.834.834,0,0,1,71.719,6.3ZM79.1,17.156a3.693,3.693,0,0,1-2.8-1.129,4.19,4.19,0,0,1-1.078-3.02v-.266a5.073,5.073,0,0,1,.48-2.246,3.748,3.748,0,0,1,1.344-1.547,3.378,3.378,0,0,1,1.871-.559,3.166,3.166,0,0,1,2.563,1.086,4.7,4.7,0,0,1,.914,3.109v.6H76.672a3,3,0,0,0,.73,2.02,2.3,2.3,0,0,0,1.777.77,2.517,2.517,0,0,0,1.3-.312,3.259,3.259,0,0,0,.93-.828l.883.688A3.55,3.55,0,0,1,79.1,17.156Zm-.18-7.578a1.928,1.928,0,0,0-1.469.637A3.1,3.1,0,0,0,76.719,12h4.234v-.109a2.753,2.753,0,0,0-.594-1.707A1.815,1.815,0,0,0,78.922,9.578Zm9.234.266a4.331,4.331,0,0,0-.711-.055A1.9,1.9,0,0,0,85.516,11v6H84.07V8.547h1.406l.023.977a2.251,2.251,0,0,1,2.016-1.133,1.477,1.477,0,0,1,.641.109ZM91.836,6.5V8.547h1.578V9.664H91.836v5.249a1.173,1.173,0,0,0,.211.763.888.888,0,0,0,.719.254,3.5,3.5,0,0,0,.688-.094V17a4.215,4.215,0,0,1-1.109.155,1.8,1.8,0,0,1-1.461-.586,2.517,2.517,0,0,1-.492-1.664V9.664H88.852V8.547h1.539V6.5Zm2.727,6.2a4.993,4.993,0,0,1,.488-2.234A3.643,3.643,0,0,1,96.41,8.93,3.7,3.7,0,0,1,98.4,8.391a3.565,3.565,0,0,1,2.793,1.2,4.6,4.6,0,0,1,1.066,3.18v.1a5.036,5.036,0,0,1-.473,2.215,3.589,3.589,0,0,1-1.352,1.527,3.743,3.743,0,0,1-2.02.547,3.556,3.556,0,0,1-2.785-1.2A4.575,4.575,0,0,1,94.563,12.8Zm1.453.172a3.616,3.616,0,0,0,.652,2.258,2.211,2.211,0,0,0,3.5-.012,3.955,3.955,0,0,0,.648-2.418,3.61,3.61,0,0,0-.66-2.254A2.1,2.1,0,0,0,98.4,9.578a2.075,2.075,0,0,0-1.727.852A3.925,3.925,0,0,0,96.016,12.867Z" transform="translate(1018 8081)" fill="#12263f"/>
      <g id="Grupo_213023" data-name="Grupo 213023" transform="translate(1194.341 8158.749) rotate(180)">
        <path id="Trazado_210453-9" data-name="Trazado 210453" d="M59.34,54,0,0" transform="translate(0.001 0.702)" fill="none" stroke="#f08e35" stroke-width="1"/>
        <path id="Trazado_210454-9" data-name="Trazado 210454" d="M0,6.671V.535L5.942,0" transform="translate(0 0)" fill="none" stroke="#f08e35" stroke-width="1"/>
      </g>
      <g id="Grupo_216483" data-name="Grupo 216483" transform="translate(1227.719 8153.243)">
        <path id="Trazado_210447" data-name="Trazado 210447" d="M15.322,0,1.357,8.116l14.056,8.116L29.379,8.116Z" transform="translate(-1.22 0)" fill="#ff8900"/>
        <path id="Trazado_210448" data-name="Trazado 210448" d="M139,88.289l-.137,17.524L152.831,97.7l.137-17.524Z" transform="translate(-124.809 -72.058)" fill="#2754ba"/>
        <path id="Trazado_210449" data-name="Trazado 210449" d="M0,97.7l14.056,8.116.137-17.524L.137,80.175Z" transform="translate(0 -72.06)" fill="#5079d6"/>
      </g>
    </g>
  </g>
</svg>
