<svg xmlns="http://www.w3.org/2000/svg" width="1200.5" height="546.076" viewBox="0 0 1200.5 546.076">
  <g id="Grupo_217267" data-name="Grupo 217267" transform="translate(-193 -3464.873)">
    <path id="Path" d="M0,61.714c0,2.964,3.679,5.366,8.216,5.366H181.784c4.537,0,8.216-2.4,8.216-5.366V0H0Z" transform="translate(330 3621.35)" fill="#d4e0f7"/>
    <path id="Path-2" data-name="Path" d="M0,61.714c0,2.964,3.679,5.366,8.216,5.366H181.784c4.537,0,8.216-2.4,8.216-5.366V0H0Z" transform="translate(1066 3621.35)" fill="#d4e0f7"/>
    <path id="Path-3" data-name="Path" d="M0,61.714c0,2.964,3.679,5.366,8.216,5.366H181.784c4.537,0,8.216-2.4,8.216-5.366V0H0Z" transform="translate(468 3754.869)" fill="#d4e0f7"/>
    <path id="Path-4" data-name="Path" d="M0,61.714c0,2.964,3.679,5.366,8.216,5.366H181.784c4.537,0,8.216-2.4,8.216-5.366V0H0Z" transform="translate(1203.5 3754.869)" fill="#d4e0f7"/>
    <path id="Path-5" data-name="Path" d="M0,61.714c0,2.964,3.679,5.366,8.216,5.366H181.784c4.537,0,8.216-2.4,8.216-5.366V0H0Z" transform="translate(1068 3943.869)" fill="#d4e0f7"/>
    <path id="Path-6" data-name="Path" d="M0,61.714c0,2.964,3.679,5.366,8.216,5.366H181.784c4.537,0,8.216-2.4,8.216-5.366V0H0Z" transform="translate(193 3754.869)" fill="#d4e0f7"/>
    <path id="Path-7" data-name="Path" d="M0,61.714c0,2.964,3.679,5.366,8.216,5.366H181.784c4.537,0,8.216-2.4,8.216-5.366V0H0Z" transform="translate(928.5 3754.869)" fill="#d4e0f7"/>
    <path id="Path-8" data-name="Path" d="M0,61.714c0,2.964,3.679,5.366,8.216,5.366H181.784c4.537,0,8.216-2.4,8.216-5.366V0H0Z" transform="translate(793 3943.869)" fill="#d4e0f7"/>
    <g id="Grupo_213612" data-name="Grupo 213612" transform="translate(-60 1030.35)">
      <path id="Path-9" data-name="Path" d="M0,8A8.111,8.111,0,0,1,8.216,0H181.784A8.111,8.111,0,0,1,190,8V29H0Z" transform="translate(390 2557)" fill="#c1deff"/>
      <circle id="Oval" cx="4.32" cy="4.32" r="4.32" transform="translate(401 2566.68)" fill="#fff"/>
      <circle id="Oval-2" data-name="Oval" cx="4.32" cy="4.32" r="4.32" transform="translate(414.68 2566.68)" fill="#fff"/>
      <circle id="Oval-3" data-name="Oval" cx="4.32" cy="4.32" r="4.32" transform="translate(429.448 2566.68)" fill="#fff"/>
    </g>
    <g id="Grupo_213631" data-name="Grupo 213631" transform="translate(676 1030.35)">
      <path id="Path-10" data-name="Path" d="M0,8A8.111,8.111,0,0,1,8.216,0H181.784A8.111,8.111,0,0,1,190,8V29H0Z" transform="translate(390 2557)" fill="#c1deff"/>
      <circle id="Oval-4" data-name="Oval" cx="4.32" cy="4.32" r="4.32" transform="translate(401 2566.68)" fill="#fff"/>
      <circle id="Oval-5" data-name="Oval" cx="4.32" cy="4.32" r="4.32" transform="translate(414.68 2566.68)" fill="#fff"/>
      <circle id="Oval-6" data-name="Oval" cx="4.32" cy="4.32" r="4.32" transform="translate(429.448 2566.68)" fill="#fff"/>
    </g>
    <g id="Grupo_213629" data-name="Grupo 213629" transform="translate(78 1163.869)">
      <path id="Path-11" data-name="Path" d="M0,8A8.111,8.111,0,0,1,8.216,0H181.784A8.111,8.111,0,0,1,190,8V29H0Z" transform="translate(390 2557)" fill="#c1deff"/>
      <circle id="Oval-7" data-name="Oval" cx="4.32" cy="4.32" r="4.32" transform="translate(401 2566.68)" fill="#fff"/>
      <circle id="Oval-8" data-name="Oval" cx="4.32" cy="4.32" r="4.32" transform="translate(414.68 2566.68)" fill="#fff"/>
      <circle id="Oval-9" data-name="Oval" cx="4.32" cy="4.32" r="4.32" transform="translate(429.448 2566.68)" fill="#fff"/>
    </g>
    <g id="Grupo_213632" data-name="Grupo 213632" transform="translate(813.5 1163.869)">
      <path id="Path-12" data-name="Path" d="M0,8A8.111,8.111,0,0,1,8.216,0H181.784A8.111,8.111,0,0,1,190,8V29H0Z" transform="translate(390 2557)" fill="#c1deff"/>
      <circle id="Oval-10" data-name="Oval" cx="4.32" cy="4.32" r="4.32" transform="translate(401 2566.68)" fill="#fff"/>
      <circle id="Oval-11" data-name="Oval" cx="4.32" cy="4.32" r="4.32" transform="translate(414.68 2566.68)" fill="#fff"/>
      <circle id="Oval-12" data-name="Oval" cx="4.32" cy="4.32" r="4.32" transform="translate(429.448 2566.68)" fill="#fff"/>
    </g>
    <g id="Grupo_213645" data-name="Grupo 213645" transform="translate(678 1352.869)">
      <path id="Path-13" data-name="Path" d="M0,8A8.111,8.111,0,0,1,8.216,0H181.784A8.111,8.111,0,0,1,190,8V29H0Z" transform="translate(390 2557)" fill="#c1deff"/>
      <circle id="Oval-13" data-name="Oval" cx="4.32" cy="4.32" r="4.32" transform="translate(401 2566.68)" fill="#fff"/>
      <circle id="Oval-14" data-name="Oval" cx="4.32" cy="4.32" r="4.32" transform="translate(414.68 2566.68)" fill="#fff"/>
      <circle id="Oval-15" data-name="Oval" cx="4.32" cy="4.32" r="4.32" transform="translate(429.448 2566.68)" fill="#fff"/>
    </g>
    <g id="Grupo_213630" data-name="Grupo 213630" transform="translate(-197 1163.869)">
      <path id="Path-14" data-name="Path" d="M0,8A8.111,8.111,0,0,1,8.216,0H181.784A8.111,8.111,0,0,1,190,8V29H0Z" transform="translate(390 2557)" fill="#c1deff"/>
      <circle id="Oval-16" data-name="Oval" cx="4.32" cy="4.32" r="4.32" transform="translate(401 2566.68)" fill="#fff"/>
      <circle id="Oval-17" data-name="Oval" cx="4.32" cy="4.32" r="4.32" transform="translate(414.68 2566.68)" fill="#fff"/>
      <circle id="Oval-18" data-name="Oval" cx="4.32" cy="4.32" r="4.32" transform="translate(429.448 2566.68)" fill="#fff"/>
    </g>
    <g id="Grupo_213633" data-name="Grupo 213633" transform="translate(538.5 1163.869)">
      <path id="Path-15" data-name="Path" d="M0,8A8.111,8.111,0,0,1,8.216,0H181.784A8.111,8.111,0,0,1,190,8V29H0Z" transform="translate(390 2557)" fill="#c1deff"/>
      <circle id="Oval-19" data-name="Oval" cx="4.32" cy="4.32" r="4.32" transform="translate(401 2566.68)" fill="#fff"/>
      <circle id="Oval-20" data-name="Oval" cx="4.32" cy="4.32" r="4.32" transform="translate(414.68 2566.68)" fill="#fff"/>
      <circle id="Oval-21" data-name="Oval" cx="4.32" cy="4.32" r="4.32" transform="translate(429.448 2566.68)" fill="#fff"/>
    </g>
    <g id="Grupo_213646" data-name="Grupo 213646" transform="translate(403 1352.869)">
      <path id="Path-16" data-name="Path" d="M0,8A8.111,8.111,0,0,1,8.216,0H181.784A8.111,8.111,0,0,1,190,8V29H0Z" transform="translate(390 2557)" fill="#c1deff"/>
      <circle id="Oval-22" data-name="Oval" cx="4.32" cy="4.32" r="4.32" transform="translate(401 2566.68)" fill="#fff"/>
      <circle id="Oval-23" data-name="Oval" cx="4.32" cy="4.32" r="4.32" transform="translate(414.68 2566.68)" fill="#fff"/>
      <circle id="Oval-24" data-name="Oval" cx="4.32" cy="4.32" r="4.32" transform="translate(429.448 2566.68)" fill="#fff"/>
    </g>
    <g id="Grupo_213628" data-name="Grupo 213628" transform="translate(203 5.945)">
      <path id="Path-17" data-name="Path" d="M0,61.714c0,2.964,3.679,5.366,8.216,5.366H181.784c4.537,0,8.216-2.4,8.216-5.366V0H0Z" transform="translate(495 3492.928)" fill="#d4e0f7"/>
      <g id="Grupo_213605" data-name="Grupo 213605" transform="translate(105 901.928)">
        <path id="Path-18" data-name="Path" d="M0,8A8.111,8.111,0,0,1,8.216,0H181.784A8.111,8.111,0,0,1,190,8V29H0Z" transform="translate(390 2557)" fill="#78b5fa"/>
        <circle id="Oval-25" data-name="Oval" cx="4.32" cy="4.32" r="4.32" transform="translate(401 2566.68)" fill="#ffdd78"/>
        <circle id="Oval-26" data-name="Oval" cx="4.32" cy="4.32" r="4.32" transform="translate(414.68 2566.68)" fill="#ffdd78"/>
        <circle id="Oval-27" data-name="Oval" cx="4.32" cy="4.32" r="4.32" transform="translate(429.448 2566.68)" fill="#ffdd78"/>
      </g>
      <path id="Trazado_217315" data-name="Trazado 217315" d="M11.773,14.737a4.528,4.528,0,0,1-1.525,3.252,5.355,5.355,0,0,1-3.625,1.187,4.816,4.816,0,0,1-3.872-1.657,6.793,6.793,0,0,1-1.411-4.548v-.782a7.671,7.671,0,0,1,.65-3.252A4.874,4.874,0,0,1,3.85,6.779a5.207,5.207,0,0,1,2.808-.751,5.217,5.217,0,0,1,3.568,1.187,4.866,4.866,0,0,1,1.564,3.331H9.154a2.673,2.673,0,0,0-.69-1.8,2.555,2.555,0,0,0-1.806-.558,2.24,2.24,0,0,0-1.973.945,5.3,5.3,0,0,0-.672,2.931v.967a5.667,5.667,0,0,0,.628,3.032,2.2,2.2,0,0,0,1.982.958,2.6,2.6,0,0,0,1.824-.558,2.521,2.521,0,0,0,.69-1.727Zm6.908-2.865a6.9,6.9,0,0,0-.914-.07,1.86,1.86,0,0,0-1.89.976V19h-2.54V9.49h2.4l.07,1.134a2.354,2.354,0,0,1,2.118-1.31,2.662,2.662,0,0,1,.791.114ZM22.584,19H20.035V9.49h2.549Zm-2.7-11.971a1.251,1.251,0,0,1,.382-.94,1.648,1.648,0,0,1,2.079,0,1.244,1.244,0,0,1,.387.94,1.247,1.247,0,0,1-.391.949,1.629,1.629,0,0,1-2.065,0A1.247,1.247,0,0,1,19.886,7.029Zm13.351,7.3a5.7,5.7,0,0,1-1,3.52,3.2,3.2,0,0,1-2.694,1.323,2.963,2.963,0,0,1-2.329-1v4.482h-2.54V9.49h2.355l.088.932a2.985,2.985,0,0,1,2.408-1.107,3.22,3.22,0,0,1,2.733,1.3,5.858,5.858,0,0,1,.976,3.586Zm-2.54-.185a3.743,3.743,0,0,0-.47-2.048,1.532,1.532,0,0,0-1.367-.721,1.663,1.663,0,0,0-1.644.914v3.894a1.692,1.692,0,0,0,1.661.94Q30.7,17.128,30.7,14.148Zm7.154-7V9.49h1.626v1.863H37.851V16.1a1.133,1.133,0,0,0,.2.756,1.015,1.015,0,0,0,.773.229,4.051,4.051,0,0,0,.747-.062v1.925a5.229,5.229,0,0,1-1.538.229,2.425,2.425,0,0,1-2.725-2.7V11.354H33.922V9.49H35.31V7.152Zm2.382,7a5.64,5.64,0,0,1,.545-2.522,3.989,3.989,0,0,1,1.569-1.714,4.577,4.577,0,0,1,2.377-.606,4.33,4.33,0,0,1,3.142,1.178,4.727,4.727,0,0,1,1.358,3.2l.018.65a4.97,4.97,0,0,1-1.222,3.511,4.735,4.735,0,0,1-6.561,0,5.058,5.058,0,0,1-1.226-3.586Zm2.54.18a3.555,3.555,0,0,0,.51,2.073,1.831,1.831,0,0,0,2.9.009,3.89,3.89,0,0,0,.519-2.267,3.519,3.519,0,0,0-.519-2.06,1.686,1.686,0,0,0-1.459-.731,1.658,1.658,0,0,0-1.441.726A3.955,3.955,0,0,0,42.772,14.338Zm7.664-.163a5.573,5.573,0,0,1,1.042-3.524,3.375,3.375,0,0,1,2.808-1.336,2.96,2.96,0,0,1,2.435,1.072l.105-.9h2.3v9.193a4.064,4.064,0,0,1-.567,2.171,3.641,3.641,0,0,1-1.6,1.406,5.608,5.608,0,0,1-2.408.483,5.215,5.215,0,0,1-2.039-.417,3.619,3.619,0,0,1-1.5-1.077L52.142,19.7a2.975,2.975,0,0,0,2.3,1.063,2.178,2.178,0,0,0,1.573-.541,2.027,2.027,0,0,0,.563-1.534v-.51a2.938,2.938,0,0,1-2.312.993,3.366,3.366,0,0,1-2.773-1.34,5.572,5.572,0,0,1-1.059-3.555Zm2.54.189a3.47,3.47,0,0,0,.519,2.029,1.65,1.65,0,0,0,1.424.735,1.764,1.764,0,0,0,1.661-.871V12.251a1.76,1.76,0,0,0-1.644-.871,1.66,1.66,0,0,0-1.437.748A3.911,3.911,0,0,0,52.976,14.364Zm13.447-2.492a6.9,6.9,0,0,0-.914-.07,1.86,1.86,0,0,0-1.89.976V19H61.08V9.49h2.4l.07,1.134a2.354,2.354,0,0,1,2.118-1.31,2.662,2.662,0,0,1,.791.114ZM72.893,19a2.821,2.821,0,0,1-.255-.853,3.073,3.073,0,0,1-2.4,1.028,3.376,3.376,0,0,1-2.316-.809A2.6,2.6,0,0,1,67,16.328a2.687,2.687,0,0,1,1.121-2.32,5.529,5.529,0,0,1,3.239-.817h1.169v-.545a1.567,1.567,0,0,0-.338-1.055,1.331,1.331,0,0,0-1.068-.4,1.513,1.513,0,0,0-1.006.308,1.045,1.045,0,0,0-.365.844h-2.54a2.551,2.551,0,0,1,.51-1.529,3.37,3.37,0,0,1,1.441-1.1,5.253,5.253,0,0,1,2.092-.4,4.15,4.15,0,0,1,2.791.883,3.09,3.09,0,0,1,1.033,2.483V16.8a4.546,4.546,0,0,0,.378,2.048V19Zm-2.1-1.767a2.188,2.188,0,0,0,1.037-.25,1.645,1.645,0,0,0,.7-.672V14.676h-.949q-1.907,0-2.03,1.318l-.009.149a1.017,1.017,0,0,0,.334.782A1.3,1.3,0,0,0,70.792,17.233ZM77.726,19V11.354H76.311V9.49h1.415V8.682A3.283,3.283,0,0,1,78.645,6.2a3.557,3.557,0,0,1,2.571-.883,5.938,5.938,0,0,1,1.292.176L82.481,7.46a3.238,3.238,0,0,0-.773-.079q-1.433,0-1.433,1.345V9.49h1.89v1.863h-1.89V19Zm8.5,0h-2.54V9.49h2.54ZM85.478,5.632h2.769L85.812,8.356H83.747ZM93.925,19a2.821,2.821,0,0,1-.255-.853,3.073,3.073,0,0,1-2.4,1.028,3.376,3.376,0,0,1-2.316-.809,2.6,2.6,0,0,1-.918-2.039,2.687,2.687,0,0,1,1.121-2.32A5.529,5.529,0,0,1,92.4,13.19h1.169v-.545a1.567,1.567,0,0,0-.338-1.055,1.331,1.331,0,0,0-1.068-.4,1.513,1.513,0,0,0-1.006.308,1.045,1.045,0,0,0-.365.844h-2.54a2.551,2.551,0,0,1,.51-1.529,3.37,3.37,0,0,1,1.441-1.1,5.253,5.253,0,0,1,2.092-.4,4.15,4.15,0,0,1,2.791.883,3.09,3.09,0,0,1,1.033,2.483V16.8a4.546,4.546,0,0,0,.378,2.048V19Zm-2.1-1.767a2.188,2.188,0,0,0,1.037-.25,1.645,1.645,0,0,0,.7-.672V14.676h-.949q-1.907,0-2.03,1.318l-.009.149a1.017,1.017,0,0,0,.334.782A1.3,1.3,0,0,0,91.824,17.233Z" transform="translate(541 3511.357)" fill="#12263f"/>
    </g>
    <path id="Trazado_217316" data-name="Trazado 217316" d="M30.393,14.737a4.528,4.528,0,0,1-1.525,3.252,5.355,5.355,0,0,1-3.625,1.187,4.816,4.816,0,0,1-3.872-1.657,6.793,6.793,0,0,1-1.411-4.548v-.782a7.671,7.671,0,0,1,.65-3.252A4.874,4.874,0,0,1,22.47,6.779a5.207,5.207,0,0,1,2.808-.751,5.217,5.217,0,0,1,3.568,1.187,4.866,4.866,0,0,1,1.564,3.331H27.774a2.673,2.673,0,0,0-.69-1.8,2.555,2.555,0,0,0-1.806-.558,2.24,2.24,0,0,0-1.973.945,5.3,5.3,0,0,0-.672,2.931v.967a5.667,5.667,0,0,0,.628,3.032,2.2,2.2,0,0,0,1.982.958,2.6,2.6,0,0,0,1.824-.558,2.521,2.521,0,0,0,.69-1.727ZM34.638,19H32.089V5.5h2.549Zm7.6,0a2.821,2.821,0,0,1-.255-.853,3.073,3.073,0,0,1-2.4,1.028,3.376,3.376,0,0,1-2.316-.809,2.6,2.6,0,0,1-.918-2.039,2.687,2.687,0,0,1,1.121-2.32,5.529,5.529,0,0,1,3.239-.817H41.88v-.545a1.567,1.567,0,0,0-.338-1.055,1.331,1.331,0,0,0-1.068-.4,1.513,1.513,0,0,0-1.006.308,1.045,1.045,0,0,0-.365.844h-2.54a2.551,2.551,0,0,1,.51-1.529,3.37,3.37,0,0,1,1.441-1.1,5.253,5.253,0,0,1,2.092-.4A4.15,4.15,0,0,1,43.4,10.2a3.09,3.09,0,0,1,1.033,2.483V16.8a4.546,4.546,0,0,0,.378,2.048V19Zm-2.1-1.767a2.188,2.188,0,0,0,1.037-.25,1.645,1.645,0,0,0,.7-.672V14.676h-.949q-1.907,0-2.03,1.318l-.009.149a1.017,1.017,0,0,0,.334.782A1.3,1.3,0,0,0,40.14,17.233ZM41.107,5.5h2.769L41.441,8.225H39.375ZM51.531,16.372a.818.818,0,0,0-.461-.734,5.241,5.241,0,0,0-1.481-.479Q46.2,14.447,46.2,12.276a2.613,2.613,0,0,1,1.05-2.114,4.237,4.237,0,0,1,2.747-.848,4.56,4.56,0,0,1,2.9.853,2.687,2.687,0,0,1,1.085,2.215h-2.54a1.229,1.229,0,0,0-.352-.9,1.488,1.488,0,0,0-1.1-.356,1.52,1.52,0,0,0-.993.29.916.916,0,0,0-.352.738.783.783,0,0,0,.4.681,4.114,4.114,0,0,0,1.349.448,11.019,11.019,0,0,1,1.6.426A2.628,2.628,0,0,1,54,16.267a2.481,2.481,0,0,1-1.116,2.1,4.815,4.815,0,0,1-2.883.8,5.029,5.029,0,0,1-2.123-.426,3.561,3.561,0,0,1-1.455-1.169,2.716,2.716,0,0,1-.527-1.6h2.408a1.326,1.326,0,0,0,.5,1.037,1.987,1.987,0,0,0,1.248.36,1.839,1.839,0,0,0,1.1-.277A.861.861,0,0,0,51.531,16.372ZM58.316,19H55.767V9.49h2.549Zm-2.7-11.971A1.251,1.251,0,0,1,56,6.089a1.648,1.648,0,0,1,2.079,0,1.244,1.244,0,0,1,.387.94,1.247,1.247,0,0,1-.391.949,1.629,1.629,0,0,1-2.065,0A1.247,1.247,0,0,1,55.618,7.029Zm8.745,10.1a1.666,1.666,0,0,0,1.143-.387,1.355,1.355,0,0,0,.457-1.028h2.382a3.258,3.258,0,0,1-.527,1.771A3.48,3.48,0,0,1,66.4,18.732a4.442,4.442,0,0,1-1.991.444,4.129,4.129,0,0,1-3.217-1.3A5.13,5.13,0,0,1,60.012,14.3v-.167a5.071,5.071,0,0,1,1.169-3.507,4.08,4.08,0,0,1,3.208-1.31A4,4,0,0,1,67.25,10.33a3.594,3.594,0,0,1,1.094,2.7H65.962a1.745,1.745,0,0,0-.457-1.206,1.7,1.7,0,0,0-2.5.183,3.749,3.749,0,0,0-.453,2.1v.264A3.8,3.8,0,0,0,63,16.485,1.549,1.549,0,0,0,64.363,17.128ZM75.305,19a2.821,2.821,0,0,1-.255-.853,3.073,3.073,0,0,1-2.4,1.028,3.376,3.376,0,0,1-2.316-.809,2.6,2.6,0,0,1-.918-2.039,2.687,2.687,0,0,1,1.121-2.32,5.529,5.529,0,0,1,3.239-.817h1.169v-.545a1.567,1.567,0,0,0-.338-1.055,1.331,1.331,0,0,0-1.068-.4,1.513,1.513,0,0,0-1.006.308,1.045,1.045,0,0,0-.365.844h-2.54a2.551,2.551,0,0,1,.51-1.529,3.37,3.37,0,0,1,1.441-1.1,5.253,5.253,0,0,1,2.092-.4,4.15,4.15,0,0,1,2.791.883,3.09,3.09,0,0,1,1.033,2.483V16.8a4.546,4.546,0,0,0,.378,2.048V19Zm-2.1-1.767a2.188,2.188,0,0,0,1.037-.25,1.645,1.645,0,0,0,.7-.672V14.676H74q-1.907,0-2.03,1.318l-.009.149a1.017,1.017,0,0,0,.334.782A1.3,1.3,0,0,0,73.2,17.233Z" transform="translate(376 3639.779)" fill="#12263f"/>
    <path id="Trazado_217320" data-name="Trazado 217320" d="M17.368,6.2l3.287,9.281L23.924,6.2h3.463V19H24.742V15.5l.264-6.038L21.551,19H19.741L16.3,9.473l.264,6.029V19H13.922V6.2Zm11.76,7.954a5.64,5.64,0,0,1,.545-2.522,3.989,3.989,0,0,1,1.569-1.714,4.577,4.577,0,0,1,2.377-.606,4.33,4.33,0,0,1,3.142,1.178,4.727,4.727,0,0,1,1.358,3.2l.018.65a4.97,4.97,0,0,1-1.222,3.511,4.247,4.247,0,0,1-3.278,1.323,4.268,4.268,0,0,1-3.283-1.318,5.058,5.058,0,0,1-1.226-3.586Zm2.54.18a3.555,3.555,0,0,0,.51,2.073,1.831,1.831,0,0,0,2.9.009,3.89,3.89,0,0,0,.519-2.267,3.519,3.519,0,0,0-.519-2.06,1.686,1.686,0,0,0-1.459-.731,1.658,1.658,0,0,0-1.441.726A3.955,3.955,0,0,0,31.667,14.338Zm7.638-.163a5.731,5.731,0,0,1,1-3.542,3.237,3.237,0,0,1,2.729-1.318,2.913,2.913,0,0,1,2.294,1.037V5.5h2.549V19H45.58l-.123-1.011a2.989,2.989,0,0,1-2.443,1.187,3.228,3.228,0,0,1-2.694-1.323A5.916,5.916,0,0,1,39.305,14.175Zm2.54.189a3.754,3.754,0,0,0,.466,2.051,1.517,1.517,0,0,0,1.354.713,1.7,1.7,0,0,0,1.661-.995V12.375a1.675,1.675,0,0,0-1.644-.995Q41.845,11.38,41.845,14.364ZM54.22,19.176a4.668,4.668,0,0,1-3.406-1.283A4.561,4.561,0,0,1,49.5,14.474v-.246a5.745,5.745,0,0,1,.554-2.562,4.064,4.064,0,0,1,1.569-1.74,4.4,4.4,0,0,1,2.316-.611,3.947,3.947,0,0,1,3.072,1.23,5,5,0,0,1,1.121,3.489v1.037H52.076a2.36,2.36,0,0,0,.743,1.494,2.245,2.245,0,0,0,1.569.563,2.742,2.742,0,0,0,2.294-1.063l1.248,1.4a3.813,3.813,0,0,1-1.547,1.261A5.075,5.075,0,0,1,54.22,19.176Zm-.29-7.813a1.587,1.587,0,0,0-1.226.512,2.651,2.651,0,0,0-.6,1.466h3.533v-.2a1.891,1.891,0,0,0-.457-1.311A1.638,1.638,0,0,0,53.93,11.362Zm10.986.51A6.9,6.9,0,0,0,64,11.8a1.86,1.86,0,0,0-1.89.976V19h-2.54V9.49h2.4l.07,1.134a2.354,2.354,0,0,1,2.118-1.31,2.662,2.662,0,0,1,.791.114Zm3.56-2.382.079,1.1a3.32,3.32,0,0,1,2.733-1.274,2.759,2.759,0,0,1,2.25.888,4.142,4.142,0,0,1,.756,2.654V19h-2.54V12.918a1.648,1.648,0,0,0-.352-1.173,1.574,1.574,0,0,0-1.169-.365,1.747,1.747,0,0,0-1.608.914V19h-2.54V9.49ZM81.73,19a2.821,2.821,0,0,1-.255-.853,3.073,3.073,0,0,1-2.4,1.028,3.376,3.376,0,0,1-2.316-.809,2.6,2.6,0,0,1-.918-2.039,2.687,2.687,0,0,1,1.121-2.32A5.529,5.529,0,0,1,80.2,13.19H81.37v-.545a1.567,1.567,0,0,0-.338-1.055,1.331,1.331,0,0,0-1.068-.4,1.513,1.513,0,0,0-1.006.308,1.045,1.045,0,0,0-.365.844h-2.54a2.551,2.551,0,0,1,.51-1.529A3.37,3.37,0,0,1,78,9.714a5.253,5.253,0,0,1,2.092-.4,4.15,4.15,0,0,1,2.791.883,3.09,3.09,0,0,1,1.033,2.483V16.8a4.546,4.546,0,0,0,.378,2.048V19Zm-2.1-1.767a2.188,2.188,0,0,0,1.037-.25,1.645,1.645,0,0,0,.7-.672V14.676H80.42q-1.907,0-2.03,1.318l-.009.149a1.017,1.017,0,0,0,.334.782A1.3,1.3,0,0,0,79.629,17.233Z" transform="translate(1112 3639.779)" fill="#12263f"/>
    <path id="Trazado_217318" data-name="Trazado 217318" d="M14.942,14.016A1.2,1.2,0,0,0,14.474,13a6.148,6.148,0,0,0-1.687-.75,11.963,11.963,0,0,1-1.93-.777,3.153,3.153,0,0,1-1.938-2.82A2.747,2.747,0,0,1,9.438,7a3.389,3.389,0,0,1,1.492-1.129,5.616,5.616,0,0,1,2.184-.406,5.112,5.112,0,0,1,2.172.441,3.458,3.458,0,0,1,1.48,1.246,3.261,3.261,0,0,1,.527,1.828H14.95a1.534,1.534,0,0,0-.492-1.215,2.023,2.023,0,0,0-1.383-.434,2.162,2.162,0,0,0-1.336.363,1.146,1.146,0,0,0-.477.957,1.1,1.1,0,0,0,.559.93,6.311,6.311,0,0,0,1.645.7,7.106,7.106,0,0,1,2.914,1.492A2.972,2.972,0,0,1,17.294,14a2.737,2.737,0,0,1-1.117,2.316,4.891,4.891,0,0,1-3.008.84,5.808,5.808,0,0,1-2.391-.48,3.783,3.783,0,0,1-1.645-1.316,3.371,3.371,0,0,1-.566-1.937h2.352q0,1.883,2.25,1.883a2.189,2.189,0,0,0,1.3-.34A1.106,1.106,0,0,0,14.942,14.016Zm8.852,2.125a2.831,2.831,0,0,1-2.312,1.016,2.67,2.67,0,0,1-2.074-.781,3.335,3.335,0,0,1-.73-2.289V8.547h2.258v5.467q0,1.322,1.2,1.322a1.63,1.63,0,0,0,1.578-.8V8.547h2.266V17H23.856Zm8.469-1.477a.727.727,0,0,0-.41-.652,4.659,4.659,0,0,0-1.316-.426q-3.016-.633-3.016-2.562a2.323,2.323,0,0,1,.934-1.879A3.766,3.766,0,0,1,30.9,8.391a4.053,4.053,0,0,1,2.574.758,2.388,2.388,0,0,1,.965,1.969H32.177a1.092,1.092,0,0,0-.312-.8A1.322,1.322,0,0,0,30.888,10a1.351,1.351,0,0,0-.883.258.814.814,0,0,0-.312.656.7.7,0,0,0,.355.605,3.657,3.657,0,0,0,1.2.4,9.8,9.8,0,0,1,1.422.379,2.336,2.336,0,0,1,1.789,2.273,2.2,2.2,0,0,1-.992,1.871,4.28,4.28,0,0,1-2.562.715,4.47,4.47,0,0,1-1.887-.379,3.166,3.166,0,0,1-1.293-1.039,2.414,2.414,0,0,1-.469-1.426H29.4a1.179,1.179,0,0,0,.445.922,1.766,1.766,0,0,0,1.109.32,1.635,1.635,0,0,0,.98-.246A.766.766,0,0,0,32.263,14.664Zm6.352-8.2V8.547h1.445V10.2H38.614v4.219a1.007,1.007,0,0,0,.18.672.9.9,0,0,0,.688.2,3.6,3.6,0,0,0,.664-.055v1.711a4.648,4.648,0,0,1-1.367.2,2.156,2.156,0,0,1-2.422-2.4V10.2H35.122V8.547h1.234V6.469ZM43.7,17H41.434V8.547H43.7ZM41.3,6.359a1.112,1.112,0,0,1,.34-.836,1.465,1.465,0,0,1,1.848,0,1.105,1.105,0,0,1,.344.836,1.108,1.108,0,0,1-.348.844,1.448,1.448,0,0,1-1.836,0A1.108,1.108,0,0,1,41.3,6.359Zm6.961.109V8.547h1.445V10.2H48.263v4.219a1.007,1.007,0,0,0,.18.672.9.9,0,0,0,.688.2,3.6,3.6,0,0,0,.664-.055v1.711a4.648,4.648,0,0,1-1.367.2A2.156,2.156,0,0,1,46,14.758V10.2H44.77V8.547H46V6.469Zm7.766,9.672a2.831,2.831,0,0,1-2.312,1.016,2.67,2.67,0,0,1-2.074-.781,3.335,3.335,0,0,1-.73-2.289V8.547h2.258v5.467q0,1.322,1.2,1.322a1.63,1.63,0,0,0,1.578-.8V8.547h2.266V17H56.091Zm7.406-.8a1.481,1.481,0,0,0,1.016-.344,1.2,1.2,0,0,0,.406-.914h2.117a2.9,2.9,0,0,1-.469,1.574,3.093,3.093,0,0,1-1.262,1.109,3.949,3.949,0,0,1-1.77.395A3.67,3.67,0,0,1,60.614,16a4.56,4.56,0,0,1-1.047-3.184v-.148a4.508,4.508,0,0,1,1.039-3.117,3.627,3.627,0,0,1,2.852-1.164,3.555,3.555,0,0,1,2.543.9,3.2,3.2,0,0,1,.973,2.4H64.856a1.551,1.551,0,0,0-.406-1.072,1.51,1.51,0,0,0-2.223.163,3.333,3.333,0,0,0-.4,1.866v.235a3.375,3.375,0,0,0,.4,1.878A1.377,1.377,0,0,0,63.434,15.336ZM70.645,17H68.38V8.547h2.266Zm-2.4-10.641a1.112,1.112,0,0,1,.34-.836,1.465,1.465,0,0,1,1.848,0,1.105,1.105,0,0,1,.344.836,1.108,1.108,0,0,1-.348.844,1.448,1.448,0,0,1-1.836,0A1.108,1.108,0,0,1,68.247,6.359ZM72.153,12.7a5.013,5.013,0,0,1,.484-2.242A3.546,3.546,0,0,1,74.032,8.93a4.069,4.069,0,0,1,2.113-.539,3.849,3.849,0,0,1,2.793,1.047,4.2,4.2,0,0,1,1.207,2.844l.016.578a4.418,4.418,0,0,1-1.086,3.121,4.209,4.209,0,0,1-5.832,0,4.5,4.5,0,0,1-1.09-3.187Zm2.258.16a3.16,3.16,0,0,0,.453,1.843,1.628,1.628,0,0,0,2.578.008,3.457,3.457,0,0,0,.461-2.015,3.128,3.128,0,0,0-.461-1.831,1.5,1.5,0,0,0-1.3-.649,1.474,1.474,0,0,0-1.281.646A3.516,3.516,0,0,0,74.411,12.856ZM76.591,5h2.461L76.888,7.422H75.052ZM83.63,8.547l.07.977a2.951,2.951,0,0,1,2.43-1.133,2.453,2.453,0,0,1,2,.789,3.682,3.682,0,0,1,.672,2.359V17H86.544V11.594a1.465,1.465,0,0,0-.312-1.043,1.4,1.4,0,0,0-1.039-.324,1.553,1.553,0,0,0-1.43.813V17H81.5V8.547Z" transform="translate(514 3773.299)" fill="#12263f"/>
    <path id="Trazado_217321" data-name="Trazado 217321" d="M17.2,14.656H13.095L12.313,17H9.821L14.056,5.625h2.172L20.485,17H17.993Zm-3.477-1.9h2.844L15.142,8.5Zm12.25,1.906a.727.727,0,0,0-.41-.652,4.659,4.659,0,0,0-1.316-.426q-3.016-.633-3.016-2.562a2.323,2.323,0,0,1,.934-1.879,3.766,3.766,0,0,1,2.441-.754,4.053,4.053,0,0,1,2.574.758,2.388,2.388,0,0,1,.965,1.969H25.892a1.092,1.092,0,0,0-.312-.8A1.322,1.322,0,0,0,24.6,10a1.351,1.351,0,0,0-.883.258.814.814,0,0,0-.312.656.7.7,0,0,0,.355.605,3.657,3.657,0,0,0,1.2.4,9.8,9.8,0,0,1,1.422.379,2.336,2.336,0,0,1,1.789,2.273,2.2,2.2,0,0,1-.992,1.871,4.28,4.28,0,0,1-2.562.715,4.47,4.47,0,0,1-1.887-.379,3.166,3.166,0,0,1-1.293-1.039,2.414,2.414,0,0,1-.469-1.426H23.11a1.179,1.179,0,0,0,.445.922,1.766,1.766,0,0,0,1.109.32,1.635,1.635,0,0,0,.98-.246A.766.766,0,0,0,25.977,14.664ZM32.009,17H29.743V8.547h2.266ZM29.61,6.359a1.112,1.112,0,0,1,.34-.836,1.465,1.465,0,0,1,1.848,0,1.105,1.105,0,0,1,.344.836,1.108,1.108,0,0,1-.348.844,1.448,1.448,0,0,1-1.836,0A1.108,1.108,0,0,1,29.61,6.359Zm6.375,2.188.07.945a2.971,2.971,0,0,1,2.43-1.1A2.255,2.255,0,0,1,40.727,9.68a2.9,2.9,0,0,1,2.539-1.289,2.521,2.521,0,0,1,2.047.8,3.681,3.681,0,0,1,.672,2.41V17H43.72V11.609a1.61,1.61,0,0,0-.281-1.051,1.246,1.246,0,0,0-.992-.332,1.409,1.409,0,0,0-1.406.969l.008,5.8H38.79V11.617a1.59,1.59,0,0,0-.289-1.062,1.259,1.259,0,0,0-.984-.328,1.463,1.463,0,0,0-1.391.8V17H33.868V8.547ZM51.61,17.156a4.15,4.15,0,0,1-3.027-1.141,4.054,4.054,0,0,1-1.168-3.039v-.219a5.106,5.106,0,0,1,.492-2.277A3.612,3.612,0,0,1,49.3,8.934a3.914,3.914,0,0,1,2.059-.543,3.508,3.508,0,0,1,2.73,1.094,4.444,4.444,0,0,1,1,3.1v.922H49.7a2.1,2.1,0,0,0,.66,1.328,2,2,0,0,0,1.395.5,2.437,2.437,0,0,0,2.039-.945l1.109,1.242a3.389,3.389,0,0,1-1.375,1.121A4.511,4.511,0,0,1,51.61,17.156Zm-.258-6.945a1.411,1.411,0,0,0-1.09.455,2.357,2.357,0,0,0-.535,1.3h3.141v-.181a1.681,1.681,0,0,0-.406-1.165A1.456,1.456,0,0,0,51.352,10.211ZM51.556,5h2.461L51.852,7.422H50.017Zm7.516,1.469V8.547h1.445V10.2H59.071v4.219a1.007,1.007,0,0,0,.18.672.9.9,0,0,0,.688.2,3.6,3.6,0,0,0,.664-.055v1.711a4.648,4.648,0,0,1-1.367.2,2.156,2.156,0,0,1-2.422-2.4V10.2H55.579V8.547h1.234V6.469Zm7.453,4.2a6.134,6.134,0,0,0-.812-.062,1.654,1.654,0,0,0-1.68.867V17H61.774V8.547h2.133l.063,1.008a2.092,2.092,0,0,1,1.883-1.164,2.366,2.366,0,0,1,.7.1ZM69.993,17H67.727V8.547h2.266Zm-2.4-10.641a1.112,1.112,0,0,1,.34-.836,1.465,1.465,0,0,1,1.848,0,1.105,1.105,0,0,1,.344.836,1.108,1.108,0,0,1-.348.844,1.448,1.448,0,0,1-1.836,0A1.108,1.108,0,0,1,67.595,6.359Zm7.773,8.977a1.481,1.481,0,0,0,1.016-.344,1.2,1.2,0,0,0,.406-.914h2.117a2.9,2.9,0,0,1-.469,1.574,3.093,3.093,0,0,1-1.262,1.109,3.949,3.949,0,0,1-1.77.395A3.67,3.67,0,0,1,72.548,16,4.56,4.56,0,0,1,71.5,12.82v-.148A4.508,4.508,0,0,1,72.54,9.555a3.627,3.627,0,0,1,2.852-1.164,3.555,3.555,0,0,1,2.543.9,3.2,3.2,0,0,1,.973,2.4H76.79a1.551,1.551,0,0,0-.406-1.072,1.51,1.51,0,0,0-2.223.163,3.333,3.333,0,0,0-.4,1.866v.235a3.375,3.375,0,0,0,.4,1.878A1.377,1.377,0,0,0,75.368,15.336ZM85.095,17a2.507,2.507,0,0,1-.227-.758,2.732,2.732,0,0,1-2.133.914,3,3,0,0,1-2.059-.719,2.312,2.312,0,0,1-.816-1.812,2.389,2.389,0,0,1,1-2.062,4.915,4.915,0,0,1,2.879-.727h1.039v-.484a1.393,1.393,0,0,0-.3-.937,1.183,1.183,0,0,0-.949-.352,1.345,1.345,0,0,0-.895.273.929.929,0,0,0-.324.75H80.048A2.268,2.268,0,0,1,80.5,9.727a3,3,0,0,1,1.281-.98,4.669,4.669,0,0,1,1.859-.355,3.689,3.689,0,0,1,2.48.785,2.747,2.747,0,0,1,.918,2.207v3.664a4.041,4.041,0,0,0,.336,1.82V17Zm-1.867-1.57a1.945,1.945,0,0,0,.922-.223,1.462,1.462,0,0,0,.625-.6V13.156h-.844q-1.7,0-1.8,1.172l-.008.133a.9.9,0,0,0,.3.7A1.153,1.153,0,0,0,83.227,15.43Z" transform="translate(1249.5 3773.299)" fill="#12263f"/>
    <path id="Trazado_217322" data-name="Trazado 217322" d="M39.184,11.977H34.411V17h-1.5V5.625h7.047V6.852H34.411v3.9h4.773ZM43.1,17H41.653V5H43.1Zm7.531-.836a3.07,3.07,0,0,1-2.477.992,2.628,2.628,0,0,1-2.059-.785,3.4,3.4,0,0,1-.715-2.324v-5.5h1.445v5.461q0,1.922,1.563,1.922a2.163,2.163,0,0,0,2.2-1.234V8.547h1.445V17H50.661Zm5.094-7.617v9.43q0,2.438-2.211,2.438a2.7,2.7,0,0,1-.883-.14V19.125a2.794,2.794,0,0,0,.656.063.982.982,0,0,0,.738-.262,1.3,1.3,0,0,0,.254-.911V8.547ZM54.13,6.3a.867.867,0,0,1,.215-.59.79.79,0,0,1,.629-.246.819.819,0,0,1,.641.242.854.854,0,0,1,.219.594.826.826,0,0,1-.219.586.834.834,0,0,1-.641.234.808.808,0,0,1-.633-.234A.843.843,0,0,1,54.13,6.3ZM57.669,12.7a4.993,4.993,0,0,1,.488-2.234A3.643,3.643,0,0,1,59.517,8.93,3.7,3.7,0,0,1,61.5,8.391a3.565,3.565,0,0,1,2.793,1.2,4.6,4.6,0,0,1,1.066,3.18v.1a5.036,5.036,0,0,1-.473,2.215,3.589,3.589,0,0,1-1.352,1.527,3.743,3.743,0,0,1-2.02.547,3.556,3.556,0,0,1-2.785-1.2A4.575,4.575,0,0,1,57.669,12.8Zm1.453.172a3.616,3.616,0,0,0,.652,2.258,2.211,2.211,0,0,0,3.5-.012,3.955,3.955,0,0,0,.648-2.418,3.61,3.61,0,0,0-.66-2.254A2.1,2.1,0,0,0,61.5,9.578a2.075,2.075,0,0,0-1.727.852A3.925,3.925,0,0,0,59.122,12.867Z" transform="translate(1114 3962.299)" fill="#12263f"/>
    <path id="Trazado_217317" data-name="Trazado 217317" d="M17.641,7.523H14.156V17H11.813V7.523H8.375v-1.9h9.266Zm5.43,3.141a6.134,6.134,0,0,0-.812-.062,1.654,1.654,0,0,0-1.68.867V17H18.32V8.547h2.133l.063,1.008A2.092,2.092,0,0,1,22.4,8.391a2.366,2.366,0,0,1,.7.1ZM28.82,17a2.507,2.507,0,0,1-.227-.758,2.732,2.732,0,0,1-2.133.914,3,3,0,0,1-2.059-.719,2.312,2.312,0,0,1-.816-1.812,2.389,2.389,0,0,1,1-2.062,4.915,4.915,0,0,1,2.879-.727H28.5v-.484a1.393,1.393,0,0,0-.3-.937,1.183,1.183,0,0,0-.949-.352,1.345,1.345,0,0,0-.895.273.929.929,0,0,0-.324.75H23.773a2.268,2.268,0,0,1,.453-1.359,3,3,0,0,1,1.281-.98,4.669,4.669,0,0,1,1.859-.355,3.689,3.689,0,0,1,2.48.785,2.747,2.747,0,0,1,.918,2.207v3.664a4.041,4.041,0,0,0,.336,1.82V17Zm-1.867-1.57a1.945,1.945,0,0,0,.922-.223,1.462,1.462,0,0,0,.625-.6V13.156h-.844q-1.7,0-1.8,1.172l-.008.133a.9.9,0,0,0,.3.7A1.153,1.153,0,0,0,26.953,15.43Zm7.625-6.883.07.977a2.951,2.951,0,0,1,2.43-1.133,2.453,2.453,0,0,1,2,.789,3.682,3.682,0,0,1,.672,2.359V17H37.492V11.594a1.465,1.465,0,0,0-.312-1.043,1.4,1.4,0,0,0-1.039-.324,1.553,1.553,0,0,0-1.43.813V17H32.453V8.547Zm11.461,6.117a.727.727,0,0,0-.41-.652,4.659,4.659,0,0,0-1.316-.426Q41.3,12.953,41.3,11.023a2.323,2.323,0,0,1,.934-1.879,3.766,3.766,0,0,1,2.441-.754,4.053,4.053,0,0,1,2.574.758,2.388,2.388,0,0,1,.965,1.969H45.953a1.092,1.092,0,0,0-.312-.8A1.322,1.322,0,0,0,44.664,10a1.351,1.351,0,0,0-.883.258.814.814,0,0,0-.312.656.7.7,0,0,0,.355.605,3.657,3.657,0,0,0,1.2.4,9.8,9.8,0,0,1,1.422.379,2.336,2.336,0,0,1,1.789,2.273,2.2,2.2,0,0,1-.992,1.871,4.28,4.28,0,0,1-2.562.715,4.47,4.47,0,0,1-1.887-.379A3.166,3.166,0,0,1,41.5,15.738a2.414,2.414,0,0,1-.469-1.426h2.141a1.179,1.179,0,0,0,.445.922,1.766,1.766,0,0,0,1.109.32,1.635,1.635,0,0,0,.98-.246A.766.766,0,0,0,46.039,14.664ZM57.3,12.852a5.07,5.07,0,0,1-.887,3.129,2.843,2.843,0,0,1-2.395,1.176,2.633,2.633,0,0,1-2.07-.891V20.25H49.688V8.547h2.094l.078.828A2.654,2.654,0,0,1,54,8.391a2.862,2.862,0,0,1,2.43,1.156,5.207,5.207,0,0,1,.867,3.188Zm-2.258-.164a3.327,3.327,0,0,0-.418-1.82,1.361,1.361,0,0,0-1.215-.641,1.479,1.479,0,0,0-1.461.813V14.5a1.5,1.5,0,0,0,1.477.836Q55.039,15.336,55.039,12.688Zm3.3.008a5.013,5.013,0,0,1,.484-2.242A3.546,3.546,0,0,1,60.223,8.93a4.069,4.069,0,0,1,2.113-.539,3.849,3.849,0,0,1,2.793,1.047,4.2,4.2,0,0,1,1.207,2.844l.016.578a4.418,4.418,0,0,1-1.086,3.121,4.209,4.209,0,0,1-5.832,0,4.5,4.5,0,0,1-1.09-3.187Zm2.258.16a3.16,3.16,0,0,0,.453,1.843,1.628,1.628,0,0,0,2.578.008,3.457,3.457,0,0,0,.461-2.015,3.128,3.128,0,0,0-.461-1.831,1.5,1.5,0,0,0-1.3-.649,1.474,1.474,0,0,0-1.281.646A3.516,3.516,0,0,0,60.6,12.856ZM72.32,14.664a.727.727,0,0,0-.41-.652,4.659,4.659,0,0,0-1.316-.426q-3.016-.633-3.016-2.562a2.323,2.323,0,0,1,.934-1.879,3.766,3.766,0,0,1,2.441-.754,4.053,4.053,0,0,1,2.574.758,2.388,2.388,0,0,1,.965,1.969H72.234a1.092,1.092,0,0,0-.312-.8A1.322,1.322,0,0,0,70.945,10a1.351,1.351,0,0,0-.883.258.814.814,0,0,0-.312.656.7.7,0,0,0,.355.605,3.657,3.657,0,0,0,1.2.4,9.8,9.8,0,0,1,1.422.379,2.336,2.336,0,0,1,1.789,2.273,2.2,2.2,0,0,1-.992,1.871,4.28,4.28,0,0,1-2.562.715,4.47,4.47,0,0,1-1.887-.379,3.166,3.166,0,0,1-1.293-1.039,2.414,2.414,0,0,1-.469-1.426h2.141a1.179,1.179,0,0,0,.445.922,1.766,1.766,0,0,0,1.109.32,1.635,1.635,0,0,0,.98-.246A.766.766,0,0,0,72.32,14.664ZM78.352,17H76.086V8.547h2.266Zm-2.4-10.641a1.112,1.112,0,0,1,.34-.836,1.465,1.465,0,0,1,1.848,0,1.105,1.105,0,0,1,.344.836,1.108,1.108,0,0,1-.348.844,1.448,1.448,0,0,1-1.836,0A1.108,1.108,0,0,1,75.953,6.359Zm7.773,8.977a1.481,1.481,0,0,0,1.016-.344,1.2,1.2,0,0,0,.406-.914h2.117a2.9,2.9,0,0,1-.469,1.574,3.093,3.093,0,0,1-1.262,1.109,3.949,3.949,0,0,1-1.77.395A3.67,3.67,0,0,1,80.906,16a4.56,4.56,0,0,1-1.047-3.184v-.148A4.508,4.508,0,0,1,80.9,9.555,3.627,3.627,0,0,1,83.75,8.391a3.555,3.555,0,0,1,2.543.9,3.2,3.2,0,0,1,.973,2.4H85.148a1.551,1.551,0,0,0-.406-1.072,1.51,1.51,0,0,0-2.223.163,3.333,3.333,0,0,0-.4,1.866v.235a3.375,3.375,0,0,0,.4,1.878A1.377,1.377,0,0,0,83.727,15.336ZM90.938,17H88.672V8.547h2.266Zm-2.4-10.641a1.112,1.112,0,0,1,.34-.836,1.465,1.465,0,0,1,1.848,0,1.105,1.105,0,0,1,.344.836,1.108,1.108,0,0,1-.348.844,1.448,1.448,0,0,1-1.836,0A1.108,1.108,0,0,1,88.539,6.359ZM92.445,12.7a5.013,5.013,0,0,1,.484-2.242A3.546,3.546,0,0,1,94.324,8.93a4.069,4.069,0,0,1,2.113-.539A3.849,3.849,0,0,1,99.23,9.438a4.2,4.2,0,0,1,1.207,2.844l.016.578a4.418,4.418,0,0,1-1.086,3.121,4.209,4.209,0,0,1-5.832,0,4.5,4.5,0,0,1-1.09-3.187Zm2.258.16a3.16,3.16,0,0,0,.453,1.843,1.628,1.628,0,0,0,2.578.008,3.457,3.457,0,0,0,.461-2.015,3.128,3.128,0,0,0-.461-1.831,1.5,1.5,0,0,0-1.3-.649,1.474,1.474,0,0,0-1.281.646A3.516,3.516,0,0,0,94.7,12.856ZM96.883,5h2.461L97.18,7.422H95.344Zm7.039,3.547.07.977a2.951,2.951,0,0,1,2.43-1.133,2.453,2.453,0,0,1,2,.789,3.682,3.682,0,0,1,.672,2.359V17h-2.258V11.594a1.465,1.465,0,0,0-.312-1.043,1.4,1.4,0,0,0-1.039-.324,1.553,1.553,0,0,0-1.43.813V17H101.8V8.547Z" transform="translate(229 3773.299)" fill="#12263f"/>
    <path id="Trazado_217319" data-name="Trazado 217319" d="M31.422,14.016A1.2,1.2,0,0,0,30.953,13a6.148,6.148,0,0,0-1.687-.75,11.963,11.963,0,0,1-1.93-.777A3.153,3.153,0,0,1,25.4,8.648,2.747,2.747,0,0,1,25.918,7,3.389,3.389,0,0,1,27.41,5.875a5.616,5.616,0,0,1,2.184-.406,5.112,5.112,0,0,1,2.172.441,3.458,3.458,0,0,1,1.48,1.246,3.261,3.261,0,0,1,.527,1.828H31.43a1.534,1.534,0,0,0-.492-1.215,2.023,2.023,0,0,0-1.383-.434,2.162,2.162,0,0,0-1.336.363,1.146,1.146,0,0,0-.477.957,1.1,1.1,0,0,0,.559.93,6.311,6.311,0,0,0,1.645.7,7.106,7.106,0,0,1,2.914,1.492A2.972,2.972,0,0,1,33.773,14a2.737,2.737,0,0,1-1.117,2.316,4.891,4.891,0,0,1-3.008.84,5.808,5.808,0,0,1-2.391-.48,3.783,3.783,0,0,1-1.645-1.316,3.371,3.371,0,0,1-.566-1.937H27.4q0,1.883,2.25,1.883a2.189,2.189,0,0,0,1.3-.34A1.106,1.106,0,0,0,31.422,14.016ZM37.594,17H35.328V8.547h2.266ZM35.2,6.359a1.112,1.112,0,0,1,.34-.836,1.465,1.465,0,0,1,1.848,0,1.105,1.105,0,0,1,.344.836,1.108,1.108,0,0,1-.348.844,1.448,1.448,0,0,1-1.836,0A1.108,1.108,0,0,1,35.2,6.359ZM41.57,8.547l.07.945a2.971,2.971,0,0,1,2.43-1.1A2.255,2.255,0,0,1,46.313,9.68a2.9,2.9,0,0,1,2.539-1.289,2.521,2.521,0,0,1,2.047.8,3.681,3.681,0,0,1,.672,2.41V17H49.3V11.609a1.61,1.61,0,0,0-.281-1.051,1.246,1.246,0,0,0-.992-.332,1.409,1.409,0,0,0-1.406.969l.008,5.8H44.375V11.617a1.59,1.59,0,0,0-.289-1.062,1.259,1.259,0,0,0-.984-.328,1.463,1.463,0,0,0-1.391.8V17H39.453V8.547ZM57.2,17.156a4.15,4.15,0,0,1-3.027-1.141A4.054,4.054,0,0,1,53,12.977v-.219a5.106,5.106,0,0,1,.492-2.277,3.612,3.612,0,0,1,1.395-1.547,3.914,3.914,0,0,1,2.059-.543,3.508,3.508,0,0,1,2.73,1.094,4.444,4.444,0,0,1,1,3.1v.922H55.289a2.1,2.1,0,0,0,.66,1.328,2,2,0,0,0,1.395.5,2.437,2.437,0,0,0,2.039-.945l1.109,1.242a3.389,3.389,0,0,1-1.375,1.121A4.511,4.511,0,0,1,57.2,17.156Zm-.258-6.945a1.411,1.411,0,0,0-1.09.455,2.357,2.357,0,0,0-.535,1.3h3.141v-.181a1.681,1.681,0,0,0-.406-1.165A1.456,1.456,0,0,0,56.938,10.211ZM57.141,5H59.6L57.438,7.422H55.6Zm7.516,1.469V8.547H66.1V10.2H64.656v4.219a1.007,1.007,0,0,0,.18.672.9.9,0,0,0,.688.2,3.6,3.6,0,0,0,.664-.055v1.711a4.648,4.648,0,0,1-1.367.2,2.156,2.156,0,0,1-2.422-2.4V10.2H61.164V8.547H62.4V6.469Zm7.453,4.2A6.134,6.134,0,0,0,71.3,10.6a1.654,1.654,0,0,0-1.68.867V17H67.359V8.547h2.133l.063,1.008a2.092,2.092,0,0,1,1.883-1.164,2.366,2.366,0,0,1,.7.1ZM75.578,17H73.313V8.547h2.266ZM73.18,6.359a1.112,1.112,0,0,1,.34-.836,1.465,1.465,0,0,1,1.848,0,1.105,1.105,0,0,1,.344.836,1.108,1.108,0,0,1-.348.844,1.448,1.448,0,0,1-1.836,0A1.108,1.108,0,0,1,73.18,6.359Zm7.773,8.977a1.481,1.481,0,0,0,1.016-.344,1.2,1.2,0,0,0,.406-.914h2.117a2.9,2.9,0,0,1-.469,1.574,3.093,3.093,0,0,1-1.262,1.109,3.949,3.949,0,0,1-1.77.395A3.67,3.67,0,0,1,78.133,16a4.56,4.56,0,0,1-1.047-3.184v-.148a4.508,4.508,0,0,1,1.039-3.117,3.627,3.627,0,0,1,2.852-1.164,3.555,3.555,0,0,1,2.543.9,3.2,3.2,0,0,1,.973,2.4H82.375a1.551,1.551,0,0,0-.406-1.072,1.51,1.51,0,0,0-2.223.163,3.333,3.333,0,0,0-.4,1.866v.235a3.375,3.375,0,0,0,.4,1.878A1.377,1.377,0,0,0,80.953,15.336ZM90.68,17a2.507,2.507,0,0,1-.227-.758,2.732,2.732,0,0,1-2.133.914,3,3,0,0,1-2.059-.719,2.312,2.312,0,0,1-.816-1.812,2.389,2.389,0,0,1,1-2.062,4.915,4.915,0,0,1,2.879-.727h1.039v-.484a1.393,1.393,0,0,0-.3-.937,1.183,1.183,0,0,0-.949-.352,1.345,1.345,0,0,0-.895.273.929.929,0,0,0-.324.75H85.633a2.268,2.268,0,0,1,.453-1.359,3,3,0,0,1,1.281-.98,4.669,4.669,0,0,1,1.859-.355,3.689,3.689,0,0,1,2.48.785,2.747,2.747,0,0,1,.918,2.207v3.664a4.041,4.041,0,0,0,.336,1.82V17Zm-1.867-1.57a1.945,1.945,0,0,0,.922-.223,1.462,1.462,0,0,0,.625-.6V13.156h-.844q-1.7,0-1.8,1.172l-.008.133a.9.9,0,0,0,.3.7A1.153,1.153,0,0,0,88.813,15.43Z" transform="translate(964.5 3773.299)" fill="#12263f"/>
    <path id="Trazado_217323" data-name="Trazado 217323" d="M31.516,17V5.625h3.719a4.317,4.317,0,0,1,2.785.766,2.759,2.759,0,0,1,.934,2.266,2.31,2.31,0,0,1-.453,1.41,2.937,2.937,0,0,1-1.234.949,2.638,2.638,0,0,1,1.457.98,2.814,2.814,0,0,1,.535,1.723,3.042,3.042,0,0,1-.992,2.406,4.1,4.1,0,0,1-2.8.875Zm1.5-5.32v4.094h2.477a2.385,2.385,0,0,0,1.652-.543,1.907,1.907,0,0,0,.605-1.5q0-2.055-2.234-2.055Zm0-1.2h2.266a2.375,2.375,0,0,0,1.574-.493,1.654,1.654,0,0,0,.59-1.339A1.626,1.626,0,0,0,36.9,7.278a2.686,2.686,0,0,0-1.664-.427H33.016ZM42.82,17H41.375V5H42.82Zm1.93-4.3a4.993,4.993,0,0,1,.488-2.234A3.643,3.643,0,0,1,46.6,8.93a3.7,3.7,0,0,1,1.988-.539,3.565,3.565,0,0,1,2.793,1.2,4.6,4.6,0,0,1,1.066,3.18v.1a5.036,5.036,0,0,1-.473,2.215,3.589,3.589,0,0,1-1.352,1.527,3.743,3.743,0,0,1-2.02.547,3.556,3.556,0,0,1-2.785-1.2A4.575,4.575,0,0,1,44.75,12.8Zm1.453.172a3.616,3.616,0,0,0,.652,2.258,2.211,2.211,0,0,0,3.5-.012A3.955,3.955,0,0,0,51,12.7a3.61,3.61,0,0,0-.66-2.254,2.1,2.1,0,0,0-1.754-.863,2.075,2.075,0,0,0-1.727.852A3.925,3.925,0,0,0,46.2,12.867Zm7.7-.164a4.961,4.961,0,0,1,.914-3.152,3.226,3.226,0,0,1,4.82-.152l.063-.852h1.328v11.7H59.586V16.219a3.033,3.033,0,0,1-2.328.938,2.915,2.915,0,0,1-2.441-1.191,5.072,5.072,0,0,1-.91-3.16Zm1.445.164a3.761,3.761,0,0,0,.613,2.281,1.951,1.951,0,0,0,1.652.828,2.164,2.164,0,0,0,1.969-1.141V10.7a2.171,2.171,0,0,0-1.953-1.117,1.965,1.965,0,0,0-1.664.832A4.094,4.094,0,0,0,55.352,12.867Zm13.219,3.3a3.07,3.07,0,0,1-2.477.992,2.628,2.628,0,0,1-2.059-.785,3.4,3.4,0,0,1-.715-2.324v-5.5h1.445v5.461q0,1.922,1.563,1.922a2.163,2.163,0,0,0,2.2-1.234V8.547h1.445V17H68.6Zm7.109.992a3.693,3.693,0,0,1-2.8-1.129,4.19,4.19,0,0,1-1.078-3.02v-.266a5.073,5.073,0,0,1,.48-2.246,3.748,3.748,0,0,1,1.344-1.547A3.378,3.378,0,0,1,75.5,8.391a3.166,3.166,0,0,1,2.563,1.086,4.7,4.7,0,0,1,.914,3.109v.6H73.25a3,3,0,0,0,.73,2.02,2.3,2.3,0,0,0,1.777.77,2.517,2.517,0,0,0,1.3-.312,3.259,3.259,0,0,0,.93-.828l.883.688A3.55,3.55,0,0,1,75.68,17.156ZM75.5,9.578a1.928,1.928,0,0,0-1.469.637A3.1,3.1,0,0,0,73.3,12h4.234v-.109a2.753,2.753,0,0,0-.594-1.707A1.815,1.815,0,0,0,75.5,9.578Zm10.07,5.18a1.064,1.064,0,0,0-.441-.91,4.249,4.249,0,0,0-1.539-.559,7.277,7.277,0,0,1-1.742-.562,2.479,2.479,0,0,1-.953-.781,1.869,1.869,0,0,1-.309-1.078,2.193,2.193,0,0,1,.879-1.758,3.432,3.432,0,0,1,2.246-.719,3.532,3.532,0,0,1,2.332.742,2.357,2.357,0,0,1,.895,1.9H85.484a1.3,1.3,0,0,0-.5-1.023,1.888,1.888,0,0,0-1.27-.43,1.976,1.976,0,0,0-1.234.344,1.082,1.082,0,0,0-.445.9.877.877,0,0,0,.414.789,5.1,5.1,0,0,0,1.5.508A7.8,7.8,0,0,1,85.7,12.7a2.558,2.558,0,0,1,1,.809,1.988,1.988,0,0,1,.324,1.152,2.163,2.163,0,0,1-.906,1.816,3.8,3.8,0,0,1-2.352.684,4.257,4.257,0,0,1-1.8-.359,2.922,2.922,0,0,1-1.223-1A2.42,2.42,0,0,1,80.3,14.4h1.445a1.5,1.5,0,0,0,.582,1.152,2.258,2.258,0,0,0,1.434.426,2.331,2.331,0,0,0,1.316-.332A1.02,1.02,0,0,0,85.57,14.758Z" transform="translate(829 3962.299)" fill="#12263f"/>
    <g id="Grupo_213616" data-name="Grupo 213616" transform="translate(417.5 3535.332) rotate(-90)">
      <path id="Path-19" data-name="Path" d="M0,0H273" transform="translate(19.919 280.5) rotate(-90)" fill="none" stroke="#eaf1ff" stroke-miterlimit="10" stroke-width="10"/>
    </g>
    <g id="Grupo_213638" data-name="Grupo 213638" transform="translate(512.5 3658.408) rotate(-90)">
      <path id="Path-20" data-name="Path" d="M0,0H48.093" transform="translate(19.919 55.593) rotate(-90)" fill="none" stroke="#eaf1ff" stroke-miterlimit="10" stroke-width="10"/>
    </g>
    <g id="Grupo_213641" data-name="Grupo 213641" transform="translate(1248.95 3658.408) rotate(-90)">
      <path id="Path-21" data-name="Path" d="M0,0H48.093" transform="translate(19.919 55.593) rotate(-90)" fill="none" stroke="#eaf1ff" stroke-miterlimit="10" stroke-width="10"/>
    </g>
    <g id="Grupo_213639" data-name="Grupo 213639" transform="translate(275.507 3658.408) rotate(-90)">
      <path id="Path-22" data-name="Path" d="M0,0H46.993" transform="translate(19.919 54.493) rotate(-90)" fill="none" stroke="#eaf1ff" stroke-miterlimit="10" stroke-width="10"/>
    </g>
    <g id="Grupo_213643" data-name="Grupo 213643" transform="translate(1011.957 3658.408) rotate(-90)">
      <path id="Path-23" data-name="Path" d="M0,0H46.993" transform="translate(19.919 54.493) rotate(-90)" fill="none" stroke="#eaf1ff" stroke-miterlimit="10" stroke-width="10"/>
    </g>
    <g id="Grupo_213650" data-name="Grupo 213650" transform="translate(880.5 3874.057) rotate(-90)">
      <path id="Path-24" data-name="Path" d="M0,0H279.287" transform="translate(19.919 286.787) rotate(-90)" fill="none" stroke="#eaf1ff" stroke-miterlimit="10" stroke-width="10"/>
    </g>
    <g id="Grupo_213635" data-name="Grupo 213635" transform="translate(880.5 3535.332) rotate(-90)">
      <path id="Path-25" data-name="Path" d="M0,0H273" transform="translate(19.919 280.5) rotate(-90)" fill="none" stroke="#eaf1ff" stroke-miterlimit="10" stroke-width="10"/>
    </g>
    <g id="Grupo_213634" data-name="Grupo 213634" transform="translate(444.919 3594.85) rotate(180)">
      <path id="Path-26" data-name="Path" d="M0,0H77.38" transform="translate(19.919 84.88) rotate(-90)" fill="none" stroke="#eaf1ff" stroke-miterlimit="10" stroke-width="10"/>
    </g>
    <g id="Grupo_213637" data-name="Grupo 213637" transform="translate(582.919 3728.369) rotate(180)">
      <path id="Path-27" data-name="Path" d="M0,0H77.38" transform="translate(19.919 84.88) rotate(-90)" fill="none" stroke="#eaf1ff" stroke-miterlimit="10" stroke-width="10"/>
    </g>
    <g id="Grupo_213642" data-name="Grupo 213642" transform="translate(1319.369 3728.369) rotate(180)">
      <path id="Path-28" data-name="Path" d="M0,0H77.38" transform="translate(19.919 84.88) rotate(-90)" fill="none" stroke="#eaf1ff" stroke-miterlimit="10" stroke-width="10"/>
    </g>
    <g id="Grupo_213647" data-name="Grupo 213647" transform="translate(1182.919 3917.369) rotate(180)">
      <path id="Path-29" data-name="Path" d="M0,0H60.488" transform="translate(19.919 67.988) rotate(-90)" fill="none" stroke="#eaf1ff" stroke-miterlimit="10" stroke-width="10"/>
    </g>
    <g id="Grupo_213649" data-name="Grupo 213649" transform="translate(1044.369 3861.638) rotate(180)">
      <path id="Path-30" data-name="Path" d="M0,0H32.188" transform="translate(19.919 39.688) rotate(-90)" fill="none" stroke="#eaf1ff" stroke-miterlimit="10" stroke-width="10"/>
    </g>
    <g id="Grupo_213648" data-name="Grupo 213648" transform="translate(907.919 3917.369) rotate(180)">
      <path id="Path-31" data-name="Path" d="M0,0H60.488" transform="translate(19.919 67.988) rotate(-90)" fill="none" stroke="#eaf1ff" stroke-miterlimit="10" stroke-width="10"/>
    </g>
    <g id="Grupo_213640" data-name="Grupo 213640" transform="translate(307.919 3728.369) rotate(180)">
      <path id="Path-32" data-name="Path" d="M0,0H77.38" transform="translate(19.919 84.88) rotate(-90)" fill="none" stroke="#eaf1ff" stroke-miterlimit="10" stroke-width="10"/>
    </g>
    <g id="Grupo_213644" data-name="Grupo 213644" transform="translate(1044.369 3728.369) rotate(180)">
      <path id="Path-33" data-name="Path" d="M0,0H77.38" transform="translate(19.919 84.88) rotate(-90)" fill="none" stroke="#eaf1ff" stroke-miterlimit="10" stroke-width="10"/>
    </g>
    <g id="Grupo_213636" data-name="Grupo 213636" transform="translate(1180.919 3594.85) rotate(180)">
      <path id="Path-34" data-name="Path" d="M0,0H77.38" transform="translate(19.919 84.88) rotate(-90)" fill="none" stroke="#eaf1ff" stroke-miterlimit="10" stroke-width="10"/>
    </g>
  </g>
</svg>
