<svg xmlns="http://www.w3.org/2000/svg" xmlns:xlink="http://www.w3.org/1999/xlink" width="96" height="96" viewBox="0 0 96 96">
  <defs>
    <clipPath id="clip-path">
      <rect id="Rectángulo_66820" data-name="Rectángulo 66820" width="77.118" height="65.887" fill="#ffd800"/>
    </clipPath>
  </defs>
  <g id="Grupo_217267" data-name="Grupo 217267" transform="translate(-542 -1855)">
    <circle id="Elipse_5034" data-name="Elipse 5034" cx="48" cy="48" r="48" transform="translate(542 1855)" fill="#2754ba"/>
    <g id="Grupo_213598" data-name="Grupo 213598" transform="translate(551 1870)">
      <g id="Grupo_213597" data-name="Grupo 213597" clip-path="url(#clip-path)">
        <path id="Trazado_211814" data-name="Trazado 211814" d="M3.208,92.58a3.548,3.548,0,0,0,3.711-2.029.924.924,0,0,1,.679-.387q3.84-.041,7.681,0a1.475,1.475,0,0,1,.9.4A34.6,34.6,0,0,1,18.6,93.033a2.768,2.768,0,0,0,2.435,1.03c1.418-.075,2.844-.019,4.287-.019v2.949c-3.256.112-4.141,2.114-3.929,4.988-1.946,0-3.8-.01-5.652,0-1.022.008-1.407.407-1.419,1.421-.008.689,0,1.378,0,2.1-1.282,0-2.435-.022-3.587.011a.765.765,0,0,1-.824-.548,3.561,3.561,0,0,0-4.045-2.011,3.617,3.617,0,0,0-.254,7.005,3.578,3.578,0,0,0,4.178-1.728.8.8,0,0,1,.814-.479c1.531.022,3.062.017,4.594.005.976-.007,1.369-.4,1.381-1.371.009-.693,0-1.386,0-2.116h4.763v5.311c-1.627,0-3.2-.007-4.781,0-.972.005-1.354.4-1.365,1.376-.008.7-.03,1.407.008,2.108a.84.84,0,0,1-.539.919,3.552,3.552,0,0,0-1.763,4.4,3.622,3.622,0,0,0,6.927-.318,3.519,3.519,0,0,0-1.713-3.984,1.067,1.067,0,0,1-.67-1.224,8.092,8.092,0,0,0,.007-.981H21.4c0,.263,0,.483,0,.7,0,.251-.013.5.006.753a1.119,1.119,0,0,0,1.166,1.121,1.1,1.1,0,0,0,1.082-1.121c.014-.2.005-.4.005-.6q0-5.836,0-11.673c0-1.441.336-1.785,1.765-1.785q13.1,0,26.207,0c1.43,0,1.757.336,1.758,1.788q0,7.267,0,14.534c0,1.883,0,3.766,0,5.648,0,1.323-.374,1.681-1.716,1.692-.351,0-.7-.011-1.054.017a1.032,1.032,0,0,0-1.02,1.018,1,1,0,0,0,.859,1.152c2.915.465,5.264-.7,5.2-3.915-.054-2.836-.011-5.673-.011-8.51V111.9h3.968c.123,1.023.132,1.787-.951,2.453a3.471,3.471,0,0,0-.537,5.274,3.619,3.619,0,0,0,5.3.073,3.465,3.465,0,0,0-.4-5.281,2.16,2.16,0,0,1-1.1-2.368,7.33,7.33,0,0,0,0-.753c0-1.43-.28-1.708-1.716-1.708H55.718V104.3h4.761a1.262,1.262,0,0,1,.049.209c.005.6,0,1.2.01,1.807.01,1.065.384,1.444,1.454,1.45,1.481.007,2.963.021,4.443-.009a.9.9,0,0,1,.927.546,3.578,3.578,0,0,0,4.069,1.689,3.627,3.627,0,1,0-4.214-5.1c-.121.234-.344.581-.531.589-1.27.052-2.544.027-3.89.027,0-.782.011-1.479,0-2.175-.018-.921-.414-1.314-1.341-1.35-.326-.012-.653,0-.979,0H55.643c.233-2.941-.718-4.922-3.92-4.992V94.044c1.659,0,3.264-.013,4.869.007a1.933,1.933,0,0,0,1.537-.634c.913-.967,1.844-1.92,2.808-2.835a1.57,1.57,0,0,1,.962-.416c2.51-.034,5.02-.011,7.53-.026a.817.817,0,0,1,.865.512,3.562,3.562,0,0,0,4.12,1.858,3.62,3.62,0,0,0-.037-7.014,3.545,3.545,0,0,0-4.1,1.892.809.809,0,0,1-.865.507c-2.736-.014-5.473-.034-8.208.019a2.3,2.3,0,0,0-1.375.572c-1,.911-1.912,1.92-2.871,2.878-.169.169-.4.393-.6.4-1.546.033-3.094.018-4.649.018V88.772c1.014,0,1.987,0,2.959,0,1.217-.005,1.552-.343,1.555-1.578,0-1.732.011-3.464-.006-5.2a.814.814,0,0,1,.513-.87,3.445,3.445,0,0,0,2-3.133,3.623,3.623,0,0,0-2.9-3.63,3.624,3.624,0,0,0-2.5,6.709c.236.138.6.354.607.543.049,1.6.028,3.2.028,4.9a13.1,13.1,0,0,0-1.555.012c-.742.093-1.006-.2-1.19-.923a13.128,13.128,0,0,0-25.4-.044c-.082.309-.162.618-.235.9H23.154c0-1.535.014-3.014-.009-4.492a.813.813,0,0,1,.53-.853,3.607,3.607,0,1,0-5.158-4.128,3.507,3.507,0,0,0,1.764,4.083,1.026,1.026,0,0,1,.623,1.11c-.029,1.681-.014,3.363-.009,5.046,0,1.218.341,1.547,1.58,1.55.945,0,1.89,0,2.85,0v3.007c-1.551,0-3.052.015-4.551-.018-.206,0-.435-.22-.6-.388-.942-.939-1.884-1.88-2.795-2.849a1.908,1.908,0,0,0-1.523-.647c-2.661.025-5.322,0-7.982.022a1.03,1.03,0,0,1-1.1-.627A3.349,3.349,0,0,0,3.5,85.391,3.5,3.5,0,0,0,.284,87.618c-.089.2-.189.393-.284.589v1.506a.8.8,0,0,1,.119.185A3.459,3.459,0,0,0,3.208,92.58m3.405,15.262A1.354,1.354,0,0,1,5.278,106.5a1.386,1.386,0,0,1,1.391-1.372,1.36,1.36,0,0,1,1.322,1.428,1.327,1.327,0,0,1-1.378,1.282m11.045,9.3a1.339,1.339,0,0,1-1.322,1.416,1.357,1.357,0,1,1-.043-2.715,1.336,1.336,0,0,1,1.365,1.3m43.126-1.3a1.358,1.358,0,1,1,.04,2.716,1.329,1.329,0,0,1-1.364-1.3,1.349,1.349,0,0,1,1.323-1.419m9.675-10.705a1.387,1.387,0,0,1,1.382,1.381,1.355,1.355,0,0,1-1.344,1.329,1.324,1.324,0,0,1-1.369-1.291,1.358,1.358,0,0,1,1.33-1.419m3.013-17.494a1.387,1.387,0,0,1,1.383,1.381,1.35,1.35,0,0,1-1.341,1.329,1.324,1.324,0,0,1-1.372-1.286,1.367,1.367,0,0,1,1.329-1.424M53.759,77.867a1.317,1.317,0,0,1,1.363-1.292A1.359,1.359,0,0,1,56.473,77.9a1.4,1.4,0,0,1-1.38,1.388,1.365,1.365,0,0,1-1.333-1.419M27.717,88a10.841,10.841,0,0,1,21.525-.748,53.711,53.711,0,0,1,.163,5.786c.02,1.3,0,2.6,0,3.965H46.667c0-.332,0-.625,0-.918-.035-2.759.093-5.533-.145-8.274a7.935,7.935,0,0,0-8.163-7,8.1,8.1,0,0,0-7.916,7.246c-.011.125-.019.251-.02.376a1.146,1.146,0,0,0,1,1.274,1.134,1.134,0,0,0,1.239-1.133A5.71,5.71,0,0,1,33.991,85.2a5.862,5.862,0,0,1,10.319,2.87,7.34,7.34,0,0,1,.093,1.2c.008,2.555,0,5.111,0,7.721H32.667c0-.793,0-1.584,0-2.375a6.349,6.349,0,0,0-.024-.9,1.085,1.085,0,0,0-1.206-.986,1.037,1.037,0,0,0-1.018,1.095c-.021,1.027-.006,2.055-.006,3.153h-2.7a1.621,1.621,0,0,1-.066-.315c.012-2.886-.087-5.778.068-8.657M22,79.285a1.4,1.4,0,0,1-1.35-1.341,1.355,1.355,0,0,1,1.376-1.37,1.319,1.319,0,0,1,1.337,1.321A1.367,1.367,0,0,1,22,79.285M3.6,87.638a1.37,1.37,0,0,1,1.38,1.375,1.326,1.326,0,0,1-1.326,1.335,1.346,1.346,0,0,1-1.387-1.356A1.384,1.384,0,0,1,3.6,87.638" transform="translate(0 -59.349)" fill="#ffd800"/>
        <path id="Trazado_211815" data-name="Trazado 211815" d="M170.8,230.737c0,.376-.006.752,0,1.128a3.148,3.148,0,1,0,6.295.13c.036-.7.035-1.4,0-2.1a2.455,2.455,0,0,1,.482-1.6,4.317,4.317,0,0,0-.7-5.666,4.389,4.389,0,0,0-5.6-.224,4.238,4.238,0,0,0-1.142,5.582,4.186,4.186,0,0,1,.663,2.751m1.748-6.45a2.1,2.1,0,0,1,2.636-.125,1.9,1.9,0,0,1,.647,2.583c-1.129,1.408-.99,2.978-.986,4.57,0,1.063-.282,1.534-.91,1.523s-.876-.465-.877-1.55q0-.451,0-.9a4.586,4.586,0,0,0-.929-3.451,1.98,1.98,0,0,1,.419-2.648" transform="translate(-135.417 -176.931)" fill="#ffd800"/>
        <path id="Trazado_211816" data-name="Trazado 211816" d="M130.781,294.4c-.182-.159-.576-.1-.875-.1q-5.834-.008-11.667,0c-2.66,0-5.319,0-7.979,0-1.281,0-1.675-.4-1.679-1.657,0-.8,0-1.606,0-2.409-.006-.886-.415-1.4-1.1-1.419-.71-.014-1.146.531-1.152,1.455-.006.753,0,1.505,0,2.258,0,2.672,1.352,4.027,4.029,4.031q4.78.006,9.56,0h4.93q2.465,0,4.93,0a1.768,1.768,0,0,0,.95-.112,1.628,1.628,0,0,0,.712-1,1.678,1.678,0,0,0-.652-1.046" transform="translate(-84.925 -230.698)" fill="#ffd800"/>
        <path id="Trazado_211817" data-name="Trazado 211817" d="M126.348,327.3q4.78.006,9.56,0h0q-4.78,0-9.56,0" transform="translate(-100.924 -261.441)" fill="#ffd800"/>
        <path id="Trazado_211818" data-name="Trazado 211818" d="M148.479,0a13.729,13.729,0,0,0-6.723,1.726,14.049,14.049,0,0,0-3.905,3.26,1.158,1.158,0,0,0,.009,1.734c.53.45,1.137.355,1.709-.269.085-.093.161-.193.244-.286a11.228,11.228,0,0,1,12.739-3.072,11.893,11.893,0,0,1,4.567,3.343,1.681,1.681,0,0,0,1.221.479,1.131,1.131,0,0,0,.782-.761,1.709,1.709,0,0,0-.369-1.207A13.281,13.281,0,0,0,148.479,0" transform="translate(-109.806 0)" fill="#ffd800"/>
        <path id="Trazado_211819" data-name="Trazado 211819" d="M156.962,29.145c-.824.857-.959,1.536-.413,2.076.577.57,1.163.431,2.018-.48a6.454,6.454,0,0,1,9.554.073c.169.184.325.462.533.513a2.009,2.009,0,0,0,1.186.031c.3-.133.466-.576.717-.916a9.472,9.472,0,0,0-.656-1.027,8.722,8.722,0,0,0-12.939-.27" transform="translate(-124.786 -21.093)" fill="#ffd800"/>
        <path id="Trazado_211820" data-name="Trazado 211820" d="M179.177,52.2a3.832,3.832,0,0,0-2.857,1.218,1.15,1.15,0,0,0-.079,1.677,1.137,1.137,0,0,0,1.673-.074c.871-.757,1.4-.751,2.288.025a1.113,1.113,0,0,0,1.614.071,1.142,1.142,0,0,0-.034-1.678,3.658,3.658,0,0,0-2.6-1.24" transform="translate(-140.516 -41.697)" fill="#ffd800"/>
      </g>
    </g>
  </g>
</svg>
