<svg xmlns="http://www.w3.org/2000/svg" xmlns:xlink="http://www.w3.org/1999/xlink" width="96" height="96" viewBox="0 0 96 96">
  <defs>
    <clipPath id="clip-path">
      <rect id="Rectángulo_66819" data-name="Rectángulo 66819" width="65.621" height="46.969" fill="#ffd800"/>
    </clipPath>
  </defs>
  <g id="Grupo_217268" data-name="Grupo 217268" transform="translate(-962 -1855)">
    <circle id="Elipse_5035" data-name="Elipse 5035" cx="48" cy="48" r="48" transform="translate(962 1855)" fill="#2754ba"/>
    <g id="Grupo_213596" data-name="Grupo 213596" transform="translate(1033.969 1870) rotate(90)">
      <g id="Grupo_213595" data-name="Grupo 213595" clip-path="url(#clip-path)">
        <path id="Trazado_211811" data-name="Trazado 211811" d="M5.376,46.739A4.057,4.057,0,0,0,7.718,41.09a.708.708,0,0,1,.159-.621q1.693-1.749,3.437-3.449a1.793,1.793,0,0,0,.594-1.413c-.026-1.751-.009-3.5-.009-5.254v-.687h3.366c0,.484-.011.928,0,1.373.021.681.42,1.113.992,1.1s.909-.419.924-1.084c.01-.461,0-.923,0-1.387h2.494c0,1.144-.021,2.251.009,3.357a.85.85,0,0,1-.631.979,4,4,0,0,0-2.2,5.2,4.064,4.064,0,0,0,5.162,2.339,4.062,4.062,0,0,0,.143-7.594c-.207-.088-.523-.277-.528-.428-.042-1.274-.024-2.55-.024-3.844h3.506c0,.9,0,1.753,0,2.605,0,.772.331,1.19.93,1.206.627.016.985-.418.989-1.214,0-.868,0-1.735,0-2.6H29.5c0,2.024.01,4.006-.007,5.989a1.674,1.674,0,0,0,.538,1.306c1.133,1.1,2.227,2.243,3.366,3.338a.763.763,0,0,1,.211,1.021,4.043,4.043,0,0,0,4.668,5.514A4.05,4.05,0,1,0,35.689,39.2a.63.63,0,0,1-.869-.16c-.474-.52-.993-1-1.487-1.5-.629-.638-1.492-1.182-1.81-1.951a7.454,7.454,0,0,1-.1-2.657c-.006-1.083,0-2.166,0-3.3a6.041,6.041,0,0,0,1.09-.015,1.359,1.359,0,0,0,.818-.388,1.032,1.032,0,0,0,.11-.922,1.388,1.388,0,0,0-.948-.57c-1.921-.053-3.843-.026-5.765-.026q-10.41,0-20.82-.007c-.234,0-.57-.029-.688-.179C4.181,26.2,3.183,24.841,2.164,23.482c1.012-1.351,1.989-2.671,2.994-3.969a.851.851,0,0,1,.592-.244c1.046-.024,2.093-.03,3.138,0a1.636,1.636,0,0,1,.814.271c.888.592,1.749,1.223,2.623,1.835a1.072,1.072,0,0,0,1.608-.027c.675-.524,1.342-1.056,2.011-1.587a2.506,2.506,0,0,1,2.934-.127c.876.571,1.769,1.118,2.62,1.724a1.327,1.327,0,0,0,1.747-.016c.847-.612,1.722-1.188,2.617-1.728a2.327,2.327,0,0,1,1.113-.342c2.391-.03,4.783-.015,7.175-.015h4.23l-.626,3.272q-2.307,0-4.607,0c-.918,0-1.837-.015-2.754.02a.859.859,0,0,0-.87.925.873.873,0,0,0,.792.935,4.26,4.26,0,0,0,.7.041q3.043,0,6.086,0h.657l.623,3.255c-.39,0-.773-.007-1.156,0a.979.979,0,0,0-1.087.924c-.017.572.415.972,1.094.993a9.365,9.365,0,0,0,1.344-.007c.51-.059.746.164.98.592A13.887,13.887,0,1,0,51.594,9.578c-.7,0-1.117.392-1.109.973.008.559.394.9,1.072.941.341.021.683.03,1.023.052a11.974,11.974,0,1,1-12.648,9.722,11.737,11.737,0,0,1,7.192-8.857c.736-.324.99-.822.728-1.392-.247-.535-.771-.669-1.479-.373a13.733,13.733,0,0,0-6.865,6.168.861.861,0,0,1-.881.534c-2.114-.024-4.228-.011-6.342-.011h-.838c-.011-.25-.025-.417-.025-.584,0-1.73-.009-3.46.014-5.19a.914.914,0,0,1,.3-.528c1.032-1.051,2.087-2.081,3.114-3.137a.6.6,0,0,1,.819-.146,4.051,4.051,0,0,0,4.513-6.582,4.069,4.069,0,0,0-5.12-.476,4.027,4.027,0,0,0-1.413,5.039.631.631,0,0,1-.188.861c-1.159,1.136-2.326,2.266-3.43,3.454a2.146,2.146,0,0,0-.5,1.233c-.071,1.042-.023,2.091-.023,3.138V17.3H27.033c0-.927.008-1.819,0-2.711-.008-.7-.373-1.114-.959-1.115s-.95.413-.957,1.114c-.009.918.011,1.837-.013,2.755a.829.829,0,0,1-.237.589c-.814.581-1.659,1.119-2.477,1.661-.786-.439-.786-.439-.787-1.3,0-1.452.017-2.9-.009-4.357a.856.856,0,0,1,.632-.981,3.96,3.96,0,0,0,2.4-4.409,4.052,4.052,0,0,0-7.882-.468,3.83,3.83,0,0,0,1.884,4.636,1.6,1.6,0,0,1,1.053,1.949,5.305,5.305,0,0,0,0,.576V17.6l-2.493-.381c0-.4,0-.8,0-1.209-.009-.757-.357-1.188-.952-1.187a.96.96,0,0,0-.948,1.186,2.658,2.658,0,0,1-1.516,3.021c-.037.019-.063.061-.1.078-.248.111-.614.379-.728.3-.428-.306-1.072-.41-1.056-1.2.044-2.263,0-4.528.027-6.791a1.922,1.922,0,0,0-.641-1.522c-1.123-1.08-2.2-2.208-3.32-3.294a.669.669,0,0,1-.174-.915A4.056,4.056,0,1,0,.193,2.831C.134,3.01.065,3.185,0,3.362v1.41c.065.176.137.35.2.528A4.027,4.027,0,0,0,5.663,7.78a.714.714,0,0,1,.969.2C7.626,9.006,8.653,10,9.648,11.024a1.07,1.07,0,0,1,.313.645c.024,1.791.013,3.582.01,5.374a2.072,2.072,0,0,1-.048.292c-1.46,0-2.907.053-4.347-.019a2.065,2.065,0,0,0-1.967,1C2.448,19.938,1.208,21.507,0,23.1v.769c1.2,1.572,2.435,3.114,3.568,4.73A2.2,2.2,0,0,0,5.7,29.647c1.4-.073,2.8-.019,4.274-.019,0,1.486-.08,2.913.025,4.327a3.09,3.09,0,0,1-1.193,2.872c-.836.687-1.54,1.533-2.332,2.277a.724.724,0,0,1-.629.128A4.06,4.06,0,0,0,.113,41.971,1.251,1.251,0,0,1,0,42.192V43.6a.533.533,0,0,1,.1.159,4.024,4.024,0,0,0,5.279,2.979m31.962-5.971A2.132,2.132,0,1,1,35.2,42.844a2.118,2.118,0,0,1,2.137-2.076M22.785,37.73a2.151,2.151,0,1,1-2.158-2.156,2.184,2.184,0,0,1,2.158,2.156m14.509-35.8A2.132,2.132,0,1,1,35.2,4.052a2.117,2.117,0,0,1,2.094-2.12M18.484,9.244a2.151,2.151,0,1,1,2.106,2.145,2.179,2.179,0,0,1-2.106-2.145M4.031,6.2A2.132,2.132,0,1,1,6.2,4.082,2.128,2.128,0,0,1,4.031,6.2m.058,34.572a2.132,2.132,0,1,1-2.165,2.124,2.116,2.116,0,0,1,2.165-2.124" transform="translate(0 0)" fill="#ffd800"/>
        <path id="Trazado_211812" data-name="Trazado 211812" d="M263.974,93.757a3.444,3.444,0,0,0-3.04,3.21c-.072,1.4-.015,2.814-.015,4.221h-.025c0,.9-.015,1.792,0,2.687a10.343,10.343,0,0,0,.133,2.1,3.49,3.49,0,0,0,3.817,2.61,3.527,3.527,0,0,0,3.139-3.473c.028-2.623.015-5.247,0-7.87a3.692,3.692,0,0,0-.2-1.124,3.521,3.521,0,0,0-3.811-2.36m2.1,3.712q.006.927,0,1.854t0,1.854q0,.927,0,1.854c0,.618,0,1.236,0,1.854a1.631,1.631,0,0,1-1.592,1.789,1.611,1.611,0,0,1-1.658-1.78q-.024-3.74,0-7.481a1.6,1.6,0,0,1,1.616-1.756,1.633,1.633,0,0,1,1.634,1.811" transform="translate(-216.24 -77.685)" fill="#ffd800"/>
        <path id="Trazado_211813" data-name="Trazado 211813" d="M321.919,123.545a3.555,3.555,0,1,0-3.566-3.593,3.589,3.589,0,0,0,3.566,3.593m-.028-5.182a1.627,1.627,0,1,1-1.611,1.6,1.654,1.654,0,0,1,1.611-1.6" transform="translate(-263.869 -96.508)" fill="#ffd800"/>
      </g>
    </g>
  </g>
</svg>
