<svg xmlns="http://www.w3.org/2000/svg" xmlns:xlink="http://www.w3.org/1999/xlink" width="101" height="101" viewBox="0 0 101 101">
  <defs>
    <clipPath id="clip-path">
      <rect id="Rect치ngulo_66252" data-name="Rect치ngulo 66252" width="87.009" height="87" fill="none"/>
    </clipPath>
  </defs>
  <g id="Grupo_217270" data-name="Grupo 217270" transform="translate(-743 -1688)">
    <g id="Rect치ngulo_66253" data-name="Rect치ngulo 66253" transform="translate(743 1688)" fill="#ffd800" stroke="#f7ce48" stroke-width="2">
      <rect width="101" height="101" rx="16" stroke="none"/>
      <rect x="1" y="1" width="99" height="99" rx="15" fill="none"/>
    </g>
    <g id="Grupo_151143" data-name="Grupo 151143" transform="translate(750 1695)">
      <g id="Grupo_151142" data-name="Grupo 151142" clip-path="url(#clip-path)">
        <path id="Trazado_174568" data-name="Trazado 174568" d="M214.119,168.227h0l.007.015.042-.049C214.152,168.2,214.136,168.216,214.119,168.227Z" transform="translate(-165.483 -129.988)"/>
        <path id="Trazado_174569" data-name="Trazado 174569" d="M37.812,1.918A6.159,6.159,0,0,0,36.4,4.769a.773.773,0,0,1-.576.7Q25.685,9.024,15.557,12.624a.982.982,0,0,1-.937-.113A5.758,5.758,0,0,0,7.991,21.9a.862.862,0,0,1,.377.914Q6.811,34.033,5.3,45.258c-.019.14-.038.281-.044.422-.057,1.359-.3,2.327-1.947,2.889-2.568.873-3.79,3.842-3.132,6.5a5.737,5.737,0,0,0,5.9,4.361.977.977,0,0,1,1.176.7q2.8,6.678,5.682,13.318a1.237,1.237,0,0,1-.164,1.492,5.741,5.741,0,0,0,9.069,7.037,1.221,1.221,0,0,1,1.182-.583q7.2.55,14.4,1.028a.617.617,0,0,1,.622.542A5.744,5.744,0,0,0,49.2,82.133a.774.774,0,0,1,.65-.723q9.793-2.547,19.572-5.144c.559-.149.724.022.951.455a5.747,5.747,0,0,0,10.738-1.7,5.665,5.665,0,0,0-2.885-6.079.683.683,0,0,1-.409-.971c1.476-5.074,2.915-10.158,4.366-15.239.09-.316.112-.627.553-.752a5.675,5.675,0,0,0,4.087-4.137c.032-.111.059-.216.189-.248V45.38c-.257-.607-.468-1.238-.78-1.816a5.217,5.217,0,0,0-2.962-2.528.979.979,0,0,1-.774-1.006q-.432-4.988-.919-9.971a1.1,1.1,0,0,1,.527-1.045,5.784,5.784,0,0,0,1.629-6.4,5.864,5.864,0,0,0-5.374-3.739,5.181,5.181,0,0,0-2.375.534,1.136,1.136,0,0,1-1.108-.019q-13.258-6.1-26.526-12.176c-.339-.155-.635-.257-.563-.773A5.64,5.64,0,0,0,43.146.158c-.058-.007-.105-.1-.158-.158h-1.87a7.627,7.627,0,0,0-3.306,1.918m1.536,9.389c.17-.224.341-.3.56-.117.32.266.987-.015,1.041.654.166,2.059.32,4.119.495,6.177.036.42-.129.437-.485.4-2.137-.214-4.277-.4-6.59-.611,1.725-2.25,3.357-4.374,4.979-6.5M64.195,46.079c-1.844,2.973-3.71,5.932-5.532,8.917-.339.555-.537.66-1.021.153-.74-.776-1.541-1.5-2.344-2.21-.326-.29-.42-.486-.123-.887a13.584,13.584,0,0,0,2.648-6.5c.066-.538.284-.645.825-.59,1.929.2,3.866.318,5.793.468.06.308-.135.469-.247.65m3.443-.042a.577.577,0,0,1,.618-.31c2.227.185,4.456.357,6.684.538.216.017.452-.005.507.321.066.389-.209.481-.458.605q-4.162,2.079-8.326,4.156-1.548.772-3.093,1.547l-.123-.1q2.1-3.379,4.192-6.762m-56.152,8.71a4.455,4.455,0,0,0,.036-1.938.483.483,0,0,1,.392-.619q8.474-2.808,16.944-5.628c.08-.027.162-.051.312-.1.263-.061.206.216.247.381a14.506,14.506,0,0,0,2.827,5.722c.237.291.145.475-.045.728q-4.029,5.358-8.036,10.733c-.252.338-.4.423-.781.141q-5.78-4.312-11.591-8.582a.655.655,0,0,1-.3-.84m-1.2-5.086a1.8,1.8,0,0,1-.331,0c1.356-1.767,2.642-3.443,3.928-5.12Q19.223,37.577,24.548,30.6c.387-.509.6-.538,1.093-.139q2.737,2.211,5.551,4.326c.421.318.42.514.148.937A14.317,14.317,0,0,0,29.057,42.9c-.016.345-.076.551-.456.677Q19.439,46.6,10.287,49.66M26.442,65.807q3.938-5.215,7.834-10.462c.295-.4.489-.309.807-.079a14.1,14.1,0,0,0,9.5,2.7,13.726,13.726,0,0,0,7.646-2.9c.5-.388.766-.362,1.176.074.6.634,1.262,1.2,1.967,1.866-8.21,4.1-16.284,8.138-24.354,12.18a.745.745,0,0,1-.916-.044q-1.749-1.344-3.546-2.625c-.322-.23-.371-.368-.117-.7M53.172,49.94a11.614,11.614,0,0,1-17.621,1.989,2.152,2.152,0,0,1-.2-.263h0c-3.879-3.5-4.541-9.907-1.5-14.537a11.624,11.624,0,0,1,17.614-2.058,2.191,2.191,0,0,1,.2.264c3.9,3.479,4.572,9.991,1.509,14.6M41.8,29.137a14.188,14.188,0,0,0-7.89,3.574c-.279.25-.44.187-.7-.017q-3-2.358-6.024-4.683c-.316-.243-.353-.4-.094-.728q2.449-3.142,4.848-6.323a.789.789,0,0,1,.9-.377c2.771.262,5.5.535,8.232.765.5.042.672.2.7.695q.214,3.258.5,6.511c.036.413-.088.534-.474.582M17.671,14.977q9.176-3.263,18.365-6.487c.3-.107.635-.446.961.033a.857.857,0,0,1-.061,1.183c-1.883,2.4-3.727,4.836-5.585,7.258-.22.287-.395.656-.915.477-4.175-.381-8.4-.779-12.622-1.136-.6-.05-.672-.434-.758-.834-.106-.5.379-.409.614-.493m-.706,4.546c.133-.369.368-.362.665-.335q4.223.389,8.447.772c.872.08,1.742.17,2.765.27-1.436,1.879-2.776,3.622-4.1,5.377-.227.3-.386.2-.613.026q-3.476-2.713-6.964-5.409a.513.513,0,0,1-.2-.7m-5.313-4.992a2.89,2.89,0,1,1-2.924,2.9,2.885,2.885,0,0,1,2.924-2.9m-1.724,18.4c.416-3.053.845-6.1,1.244-9.16.052-.4.131-.566.588-.573a5.108,5.108,0,0,0,2.808-.822.554.554,0,0,1,.752.072q3.511,2.74,7.033,5.464c.267.206.347.362.1.678Q15.289,37.9,8.142,47.22c-.014.018-.049.019-.163.059.655-4.823,1.3-9.585,1.949-14.346M5.8,56.569a2.959,2.959,0,0,1-2.88-2.881,2.9,2.9,0,0,1,2.924-2.895,2.829,2.829,0,0,1,2.849,2.939A2.886,2.886,0,0,1,5.8,56.569m3.98,2.145c-.133-.312-.461-.672.161-.88.12.087.256.183.39.282q5.628,4.161,11.261,8.314c.378.277.442.452.139.845-1.245,1.61-2.478,3.232-3.665,4.886-.434.6-1.047.233-1.524.445-.825.366-.916-.234-1.137-.752Q12.6,65.28,9.78,58.714m7.638,22.5a2.883,2.883,0,0,1-2.865-2.866,2.826,2.826,0,0,1,2.878-2.909,2.894,2.894,0,0,1,2.895,2.837,2.954,2.954,0,0,1-2.907,2.938m4.247-7.364a.593.593,0,0,1-.805-.192c-.29-.3.07-.455.191-.62.985-1.346,2-2.669,2.983-4.018.26-.358.443-.495.85-.169.836.671,1.715,1.289,2.7,2.021-2.055,1.03-3.994,1.988-5.918,2.978m16.489,5.319c-.191.534-.562.327-.835.352-4.571-.332-9.086-.664-13.6-.98-.338-.024-.46-.1-.521-.464-.271-1.608-.289-1.6,1.18-2.34,1.739-.873,3.486-1.731,5.212-2.631a.978.978,0,0,1,1.207.113c2.28,1.722,4.588,3.406,6.879,5.114.263.2.675.292.481.836m5.355,4.943a2.94,2.94,0,0,1-2.889-2.847,2.89,2.89,0,0,1,2.867-2.93A2.85,2.85,0,0,1,46.4,81.2a2.9,2.9,0,0,1-2.889,2.912m2.6-8.922c-.3.488-.535.626-1.12.453a5.4,5.4,0,0,0-4.407.593c-.235.139-.412.337-.74.09-2.187-1.645-4.392-3.265-6.7-4.974L55.176,60.344c.037.323-.154.472-.265.651-2.935,4.731-5.882,9.456-8.8,14.2M70.2,71.668c-.266,1.406-1.19,1.763-2.415,2.073-6.158,1.557-12.3,3.2-18.438,4.813-.332.087-.642.258-.849-.2-.173-.382-.574-.639-.226-1.194q5.2-8.285,10.353-16.6a2.934,2.934,0,0,1,.245-.292l6.64,6.218c1.466,1.374,2.923,2.758,4.4,4.117a.942.942,0,0,1,.287,1.066m8.12,2.3a2.892,2.892,0,0,1-2.948,2.872,2.843,2.843,0,0,1-2.828-2.881,2.893,2.893,0,0,1,2.921-2.9,2.95,2.95,0,0,1,2.856,2.9m.93-21.587q-2.224,7.68-4.387,15.377a.682.682,0,0,1-.683.6,1.267,1.267,0,0,0-.65.169c-.849.628-1.4.228-2.053-.4-3.5-3.342-7.044-6.636-10.578-9.941a4.112,4.112,0,0,0-.632-.38L68.281,53.8c2.5-1.251,5.007-2.493,7.5-3.762.461-.235.755-.294,1.12.191A4.456,4.456,0,0,0,78.936,51.7c.351.131.432.283.315.686m4.865-6.025a2.9,2.9,0,0,1-2.86,2.941,2.862,2.862,0,0,1-2.919-2.865,2.9,2.9,0,0,1,2.886-2.915,2.937,2.937,0,0,1,2.894,2.839M78.289,21.771a2.935,2.935,0,0,1,2.929,2.89,2.9,2.9,0,0,1-2.912,2.888,2.856,2.856,0,0,1-2.867-2.913,2.894,2.894,0,0,1,2.849-2.865m-1.307,9.208c.427-.71.956-.532,1.506-.523.344.006.23.343.248.532.3,3.154.586,6.31.9,9.463.038.388-.151.485-.437.589a5.547,5.547,0,0,0-2.648,2.031c-.145.2-.266.413-.594.384-2.074-.182-4.15-.347-6.239-.518a1.663,1.663,0,0,1,.411-.858c2.289-3.7,4.612-7.376,6.856-11.1m-2.915-2.463c.585.551.507.917.115,1.536-2.524,3.988-5,8.008-7.494,12.015-.2.325-.331.787-.812.57-2.444-.2-4.812-.433-7.185-.574-.677-.04-.835-.329-.9-.9a10.133,10.133,0,0,0-.972-3.318c-.294-.6-.243-.875.392-1.2,4.713-2.442,9.4-4.93,14.1-7.4.549-.289,1.123-.541,1.643-.875.457-.293.7-.236,1.114.155m-1.52-3.893c.084.558-.169.786-.615,1.019q-8.174,4.274-16.325,8.591c-.509.27-.776.285-1.185-.19a13.951,13.951,0,0,0-8.615-4.8c-.364-.058-.609-.106-.64-.583-.133-2.032-.315-4.06-.488-6.191-.216-.679.154-.781.835-.715q8.7.842,17.4,1.641c2.929.272,5.86.519,8.786.815.278.028.755-.191.846.417m-26.675-14.5a.961.961,0,0,1,1.363-.239q11.678,5.4,23.376,10.749c.151.069.291.164.435.246a1.461,1.461,0,0,1,.808.379A4.092,4.092,0,0,1,70.3,21.1c-3.577-.316-7.154-.622-10.73-.949-4.618-.422-9.234-.869-13.852-1.283-1.307-.117-1.3-.083-1.4-1.349-.139-1.8-.286-3.609-.457-5.411-.05-.526-.023-.9.6-1.075a2.887,2.887,0,0,0,1.407-.913M42.118,2.918a2.947,2.947,0,0,1,2.852,2.9,2.89,2.89,0,0,1-2.944,2.869A2.833,2.833,0,0,1,39.2,5.731a2.884,2.884,0,0,1,2.918-2.813" transform="translate(0)"/>
        <path id="Trazado_174570" data-name="Trazado 174570" d="M171.932,155.561a16.46,16.46,0,0,1-2.978,2.869l-.042.049a4.344,4.344,0,0,1-.2,4.925c-.22.306-.12.49.057.74a4.3,4.3,0,0,1-2.957,6.771c-.584.059-.605.4-.553.818.071.561-.146.77-.708.706a6.125,6.125,0,0,0-1.1,0c-.706.047-1.328.045-1.116-.972.082-.394-.191-.461-.52-.455-.651.012-1.3.01-1.953,0-1.127-.015-1.473-.261-1.9-1.327l-2.352,2.208h0a2.134,2.134,0,0,0,.2.263,11.614,11.614,0,0,0,17.621-1.989c3.063-4.614,2.391-11.126-1.509-14.6" transform="translate(-120.269 -120.226)" fill="#fea02e"/>
        <path id="Trazado_174571" data-name="Trazado 174571" d="M146,158.208a.379.379,0,0,1,.367-.117q.01-5.587.02-11.174c0-1.476.508-1.988,1.978-2,.425,0,.852-.032,1.274.006.744.066,1.309-.011,1.108-.993-.067-.329.118-.448.44-.435a9.526,9.526,0,0,0,1.273,0c.793-.075,1.414-.012,1.206,1.054-.068.349.2.421.472.447a4.446,4.446,0,0,1,3.166,1.919l.05-.035a17.339,17.339,0,0,1,2.978-2.869,2.184,2.184,0,0,0-.2-.264,11.624,11.624,0,0,0-17.614,2.058c-3.038,4.629-2.376,11.033,1.5,14.537A9.209,9.209,0,0,1,146,158.208" transform="translate(-108.67 -108.671)" fill="#fcb52f"/>
        <path id="Trazado_174572" data-name="Trazado 174572" d="M157.968,217.529a.38.38,0,0,0-.367.117,9.209,9.209,0,0,0-1.985,2.129l2.352-2.208v-.038" transform="translate(-120.269 -168.109)" fill="#fcb52f"/>
        <path id="Trazado_174573" data-name="Trazado 174573" d="M214.338,158.43a16.468,16.468,0,0,0,2.978-2.869,17.329,17.329,0,0,0-2.978,2.869" transform="translate(-165.652 -120.226)" fill="#fcb52f"/>
        <path id="Trazado_174574" data-name="Trazado 174574" d="M344.874,194.5a2.862,2.862,0,0,0,2.919,2.865,2.9,2.9,0,0,0,2.86-2.941,2.937,2.937,0,0,0-2.894-2.839,2.9,2.9,0,0,0-2.886,2.915" transform="translate(-266.537 -148.07)" fill="#86cdd8"/>
        <path id="Trazado_174575" data-name="Trazado 174575" d="M334.986,101.623a2.9,2.9,0,0,0,2.912-2.888,2.935,2.935,0,0,0-2.929-2.89,2.894,2.894,0,0,0-2.849,2.865,2.856,2.856,0,0,0,2.867,2.913" transform="translate(-256.68 -74.074)" fill="#86cdd8"/>
        <path id="Trazado_174576" data-name="Trazado 174576" d="M322.3,312.857a2.893,2.893,0,0,0-2.921,2.9,2.844,2.844,0,0,0,2.829,2.881,2.892,2.892,0,0,0,2.948-2.872,2.95,2.95,0,0,0-2.856-2.9" transform="translate(-246.83 -241.793)" fill="#4397d0"/>
        <path id="Trazado_174577" data-name="Trazado 174577" d="M181.695,344.883a2.89,2.89,0,0,0-2.867,2.93,2.94,2.94,0,0,0,2.889,2.847,2.9,2.9,0,0,0,2.889-2.912,2.849,2.849,0,0,0-2.911-2.866" transform="translate(-138.207 -266.544)" fill="#86cdd8"/>
        <path id="Trazado_174578" data-name="Trazado 174578" d="M175.4,18.619a2.89,2.89,0,0,0,2.944-2.869,2.947,2.947,0,0,0-2.852-2.9,2.884,2.884,0,0,0-2.918,2.813,2.833,2.833,0,0,0,2.826,2.961" transform="translate(-133.373 -9.927)" fill="#4397d0"/>
        <path id="Trazado_174579" data-name="Trazado 174579" d="M66.95,332.137a2.826,2.826,0,0,0-2.878,2.909,2.883,2.883,0,0,0,2.865,2.866,2.954,2.954,0,0,0,2.907-2.938,2.894,2.894,0,0,0-2.895-2.837" transform="translate(-49.519 -256.694)" fill="#4397d0"/>
        <path id="Trazado_174580" data-name="Trazado 174580" d="M15.782,223.619a2.9,2.9,0,0,0-2.924,2.895,2.959,2.959,0,0,0,2.88,2.881,2.886,2.886,0,0,0,2.893-2.836,2.829,2.829,0,0,0-2.849-2.939" transform="translate(-9.937 -172.825)" fill="#4397d0"/>
        <path id="Trazado_174581" data-name="Trazado 174581" d="M41.289,69.753a2.89,2.89,0,1,0-2.867-2.876,2.887,2.887,0,0,0,2.867,2.876" transform="translate(-29.694 -49.443)" fill="#86cdd8"/>
        <path id="Trazado_174582" data-name="Trazado 174582" d="M176.992,157.611a.7.7,0,0,1-.525-.242,4.386,4.386,0,0,0-2.624-1.435.853.853,0,0,1-.691-.858c-.054-.465-.332-.607-.757-.606-.773,0-1.624-.207-1.807.966-.052.334-.475.354-.788.375-.564.039-1.132-.008-1.7.032-1.3.092-1.767.571-1.772,1.866-.012,3.28,0,6.56-.01,9.84,0,.427.1.89-.241,1.253a.394.394,0,0,1,.134.089,2.107,2.107,0,0,0,2.14,1.076c.422-.027.849.006,1.273-.005.609-.017,1.066.132,1.105.853.019.344.246.486.571.5.368.014.736,0,1.1.008.423.008.72-.126.757-.6.046-.581.435-.79.943-.93a4.068,4.068,0,0,0,2.7-6.156c-.181-.351-.458-.712-.2-1.106a4.711,4.711,0,0,0,.271-4.766l.117-.136-.007-.015Zm-5.81.926c.705,0,1.414-.028,2.115.025a1.407,1.407,0,0,1,1.449,1.446,1.428,1.428,0,0,1-1.49,1.407c-.056,0-.113,0-.169,0h-1.694c-.649,0-1.3-.015-1.947.005-.369.011-.52-.132-.476-.493a.557.557,0,0,0,0-.085c-.106-2.311-.106-2.313,2.212-2.311m2.177,8.669c-1.324.072-2.653.028-3.98.041-.278,0-.429-.1-.408-.391,0-.056-.007-.114,0-.169.1-.764-.382-1.8.211-2.227.5-.362,1.47-.075,2.232-.075,0-.007,0-.013,0-.02.621,0,1.244-.026,1.863.006a1.4,1.4,0,0,1,1.469,1.335,1.374,1.374,0,0,1-1.387,1.5" transform="translate(-128.356 -119.373)"/>
        <path id="Trazado_174583" data-name="Trazado 174583" d="M176.525,173.311c-.261.395.016.755.2,1.107a4.068,4.068,0,0,1-2.7,6.156c-.508.14-.9.349-.943.93-.037.474-.334.608-.757.6-.368-.007-.736.006-1.1-.008-.325-.013-.552-.154-.571-.5-.039-.722-.5-.87-1.105-.853-.424.012-.85-.022-1.273.005a2.106,2.106,0,0,1-2.14-1.076.4.4,0,0,0-.134-.089c-.009.01-.015.02-.025.03.423,1.066.769,1.312,1.9,1.327.651.009,1.3.011,1.953,0,.328-.006.6.061.52.455-.212,1.017.41,1.019,1.116.972a6.126,6.126,0,0,1,1.1,0c.562.064.779-.146.708-.707-.052-.415-.031-.759.553-.818a4.3,4.3,0,0,0,2.957-6.771c-.176-.25-.276-.433-.056-.74a4.344,4.344,0,0,0,.2-4.925l-.117.136a4.712,4.712,0,0,1-.271,4.766" transform="translate(-128.269 -130.156)"/>
        <path id="Trazado_174584" data-name="Trazado 174584" d="M166.235,166.567c.012-3.28,0-6.56.01-9.84,0-1.295.472-1.774,1.772-1.866.564-.04,1.131.006,1.7-.032.313-.021.736-.041.788-.375.183-1.173,1.034-.963,1.807-.966.425,0,.7.141.757.606a.853.853,0,0,0,.691.858,4.385,4.385,0,0,1,2.624,1.435.7.7,0,0,0,.525.242,4.446,4.446,0,0,0-3.166-1.919c-.273-.027-.54-.1-.472-.447.208-1.066-.413-1.129-1.206-1.054a9.485,9.485,0,0,1-1.273,0c-.323-.013-.508.106-.44.435.2.982-.364,1.059-1.108.994-.421-.037-.849-.01-1.274-.006-1.469.014-1.975.526-1.978,2q-.011,5.587-.02,11.174l.025.008c.342-.363.24-.826.241-1.252" transform="translate(-128.27 -118.391)"/>
        <path id="Trazado_174585" data-name="Trazado 174585" d="M165.969,217.571v.038c.01-.01.016-.02.025-.03l-.025-.007" transform="translate(-128.27 -168.151)"/>
        <path id="Trazado_174586" data-name="Trazado 174586" d="M182.8,197.788c-.62-.032-1.242-.006-1.864-.006v.02c-.762,0-1.732-.287-2.232.075-.593.429-.114,1.463-.211,2.227-.007.056,0,.113,0,.169-.02.3.13.393.408.391,1.327-.013,2.657.031,3.98-.041a1.374,1.374,0,0,0,1.387-1.5,1.4,1.4,0,0,0-1.469-1.335" transform="translate(-137.878 -152.788)" fill="#fda02e"/>
        <path id="Trazado_174587" data-name="Trazado 174587" d="M178.686,174.792c-.044.361.108.5.476.493.648-.02,1.3-.005,1.947-.005H182.8c.056,0,.113,0,.169-.005a1.428,1.428,0,0,0,1.49-1.407,1.407,1.407,0,0,0-1.449-1.446c-.7-.053-1.41-.024-2.116-.025-2.318,0-2.318,0-2.212,2.311a.5.5,0,0,1,0,.084" transform="translate(-138.072 -133.232)" fill="#fbb42f"/>
      </g>
    </g>
  </g>
</svg>
