<svg xmlns="http://www.w3.org/2000/svg" xmlns:xlink="http://www.w3.org/1999/xlink" width="101" height="101" viewBox="0 0 101 101">
  <defs>
    <clipPath id="clip-path">
      <rect id="Rect치ngulo_66257" data-name="Rect치ngulo 66257" width="71.675" height="65.727" fill="none"/>
    </clipPath>
  </defs>
  <g id="Grupo_217273" data-name="Grupo 217273" transform="translate(-743 -2146)">
    <g id="Grupo_217272" data-name="Grupo 217272">
      <g id="Rect치ngulo_66255" data-name="Rect치ngulo 66255" transform="translate(743 2146)" fill="#ffd800" stroke="#f7ce48" stroke-width="2">
        <rect width="101" height="101" rx="16" stroke="none"/>
        <rect x="1" y="1" width="99" height="99" rx="15" fill="none"/>
      </g>
      <g id="Grupo_151147" data-name="Grupo 151147" transform="translate(758 2164)">
        <g id="Grupo_151146" data-name="Grupo 151146" clip-path="url(#clip-path)">
          <path id="Trazado_174605" data-name="Trazado 174605" d="M71.239,27.574a1.941,1.941,0,0,0-2.073-.782.639.639,0,0,1-.784-.3Q59.223,13.5,50.06.517A1.014,1.014,0,0,0,49.009.008c-2.04.205-4.082.389-6.124.577L30.464,1.731q-6.544.6-13.088,1.216a.531.531,0,0,1-.64-.348,1.947,1.947,0,0,0-2.008-1.139,1.924,1.924,0,0,0-1.8,1.293,1.976,1.976,0,0,0,.427,2.229.534.534,0,0,1,.134.721c-.611,1.279-1.19,2.572-1.783,3.859Q5.906,22.168.1,34.77a.774.774,0,0,0,.073.875q2.337,3.249,4.647,6.517,6.9,9.759,13.805,19.517a.928.928,0,0,1,.125,1.09,2.085,2.085,0,1,0,3.89,1.48c.115-.454.337-.534.724-.569q6.658-.6,13.314-1.224,9.049-.833,18.1-1.657a.732.732,0,0,0,.678-.475q6.66-14.48,13.325-28.959c.15-.328.288-.57.667-.41a2.067,2.067,0,0,0,1.96-1.114,2.026,2.026,0,0,0-.169-2.268M50.406,2.3q.9,1.272,1.806,2.544L67.762,26.865a.212.212,0,0,1,.032.046c.063.173.375.311.169.511-.156.151-.341-.068-.489-.16-4.038-2.505-8.055-5.046-12.121-7.5A3.276,3.276,0,0,1,53.7,17.4c-1.057-4.936-2.218-9.849-3.342-14.771-.02-.089-.032-.18-.048-.27l.095-.057M46.955,37.734a.167.167,0,0,0,.114.146.812.812,0,0,0,.029.092c-.07.087-.038.2-.015.315.227,1.142.433,2.289.681,3.427a29.856,29.856,0,0,0,.648,3.088c0,.275-.24.29-.409.381a2.056,2.056,0,0,0-.947.939c-.138.13-.272.048-.412,0q-3.9-1.366-7.792-2.731c-.153-.054-.337-.072-.4-.269q3.9-3.333,7.792-6.666c.136-.116.237-.3.462-.264.082.514.166,1.028.244,1.544M15.08,22.753a1.173,1.173,0,0,1,.4-.974q2.819-2.548,5.6-5.135c.3-.276.383-.169.447.153.142.711.292,1.421.438,2.131h0a1.084,1.084,0,0,0,0,.22c.406,2.084.826,4.166,1.218,6.252a8.651,8.651,0,0,1,.347,2.248c-.146.11-.3.213-.437.332-2.124,1.83-4.252,3.656-6.361,5.5a.5.5,0,0,1-.674.082c-.042-.035-.081-.095-.128-.1-.855-.139-.869-.725-.862-1.429.032-3.094.019-6.189.006-9.284M40.452,12.66c.1.329-.167.463-.355.626C38,15.1,35.89,16.9,33.812,18.731c-.434.383-.818.669-1.4.394l-8.357-3.018-1.358-.49c.026-.21.2-.233.316-.3q5.22-2.874,10.441-5.747a1.052,1.052,0,0,1,.9-.106c1.782.546,3.573,1.066,5.366,1.577.317.09.474.2.439.568a1.432,1.432,0,0,0,.3,1.05m-2.812,30.2A1.484,1.484,0,0,1,37,42.738a25.973,25.973,0,0,0-3.37-1.069c-2.063-.722-4.123-1.455-6.192-2.16-.5-.169-.875-.374-.875-.966a.809.809,0,0,0-.09-.252h0Q25.458,33.1,24.447,27.917c-.052-.268-.185-.541.007-.808a15.9,15.9,0,0,0,1.793-1.491c2.141-1.842,4.264-3.7,6.394-5.558a12.649,12.649,0,0,1,2.75.874c2.89,1.019,5.767,2.072,8.65,3.11a1.447,1.447,0,0,0,.218.043,1.053,1.053,0,0,1,.278.65c.308,1.588.627,3.174.942,4.761l.321,1.884.71,3.894-8.87,7.586m-20.7-9.189q2.491-2.157,4.984-4.312c.559-.483,1.121-.963,1.716-1.474a1.793,1.793,0,0,1,.1.257c.262,1.334.512,2.669.783,4,.267,1.309.457,2.634.815,3.924l.445,2.232c-.08.175.083.366-.068.59l-2.5-.867c-1.914-.663-3.826-1.33-5.742-1.984-.348-.119-.582-.229-.482-.692a1.083,1.083,0,0,0-.261-.983l-.111-.213c-.037-.255.169-.351.318-.48m11.94,16.551L26.79,39.643a.2.2,0,0,1,.064-.052c.742.256,1.382.483,2.026.7,1.5.5,2.966,1.1,4.495,1.508,1.089.384,2.18.76,3.263,1.16.173.064.5.01.448.371l-7.5,6.487c-.286.025-.373.407-.711.412M41.814,13.686c.6-.048.7.309.792.807.356,2.017.757,4.026,1.139,6.038.172.905.339,1.812.515,2.752l-.546-.109L34.08,19.71c-.146-.172-.431-.107-.552-.312,0-.03,0-.056.011-.065q3.482-3.027,6.961-6.059c.159-.14.262-.058.4-.029a1.129,1.129,0,0,0,.567.311.354.354,0,0,0,.35.129M22.8,16.429q4.632,1.639,9.261,3.286c.4.171.228.331.005.523q-3.728,3.209-7.444,6.431c-.312.272-.344.16-.419-.166-.229-1-.322-2.019-.64-3q-.642-3.317-1.282-6.635c-.037-.194-.184-.435,0-.573.144-.108.349.068.52.129m-6.057,27.1c-.323-1.918-.717-3.824-1.1-5.73a.6.6,0,0,1,.189-.67.838.838,0,0,1,.1-.067,1.956,1.956,0,0,0,.8-.9,1.467,1.467,0,0,1,.543.071c1.205.429,2.41.859,3.623,1.267,1.561.525,3.093,1.136,4.681,1.581a.8.8,0,0,1,.435.531q.376,2.025.8,4.041c.333,1.616.569,3.252,1,4.847.069.384.142.767.2,1.151.029.18.155.41.015.532-.168.147-.334-.08-.482-.163-2.571-1.437-5.135-2.886-7.7-4.327-.762-.427-1.536-.835-2.3-1.251-.276-.291-.7-.386-.791-.917M28.5,51.949a.564.564,0,0,1,.812-.274c2.065.751,4.14,1.474,6.213,2.2.139.049.286.074.429.11h0c.4.253.1.338-.1.453q-6.438,3.719-12.879,7.433c-.226.13-.486.471-.725.269-.293-.247.176-.453.2-.711l.006-.056q1.653-2.555,3.305-5.111c.922-1.434,1.845-2.868,2.741-4.318m8.317,1.634q-3.556-1.268-7.118-2.521a.308.308,0,0,1-.238-.209c1.039-.9,2.094-1.808,3.151-2.717q2.44-2.1,4.881-4.191c.139-.119.261-.258.391-.387a1.307,1.307,0,0,1,.748.072c2.732.959,5.47,1.9,8.206,2.851.007.416-.133.846.108,1.242.082.27-.115.357-.3.462q-4.548,2.64-9.093,5.285a.819.819,0,0,1-.739.113m9.153-22.6a12.668,12.668,0,0,0-.349-1.87c-.263-1.447-.5-2.9-.8-4.339-.083-.4.066-.4.346-.362l7.181,2.593L55,27.961c-.873.756-1.68,1.458-2.491,2.155q-2.666,2.291-5.335,4.578c-.125.107-.233.248-.425.236-.242-1.318-.448-2.644-.776-3.945M54.6,27.036q-4.943-1.755-9.884-3.515a.789.789,0,0,1-.211-.44q-.882-4.7-1.775-9.4a1.258,1.258,0,0,0,.4-.195c.561-.607,1.031-.282,1.577.063q3.988,2.524,8.016,4.986a1.568,1.568,0,0,1,.787,1.12c.5,2.329,1.054,4.647,1.582,6.971.039.173.18.394.023.523s-.345-.049-.513-.109M49.349,1.4c1.186,5.274,2.4,10.542,3.6,15.812.077.338.136.68.2,1.013-.205.056-.3-.059-.4-.125q-4.157-2.583-8.314-5.167c-.262-.162-.406-.275-.269-.65A2.064,2.064,0,0,0,43.086,9.7a1.984,1.984,0,0,0-2.614.8.457.457,0,0,1-.609.206c-1.765-.528-3.532-1.05-5.481-1.629.948-.524,1.755-.972,2.564-1.418q5.9-3.253,11.8-6.513c.378-.21.495-.227.6.257m-32.36,2.42c.021-.106.12-.128.217-.137.427-.04.853-.082,1.279-.121Q28.142,2.676,37.8,1.787c3-.278,6.008-.566,9.012-.848.211-.02.424-.023.637-.034l.031.111q-1.062.584-2.123,1.167Q39.63,5.344,33.909,8.513a1.245,1.245,0,0,1-1.052.128Q25.17,6.361,17.473,4.115c-.107-.031-.211-.073-.317-.11-.089-.031-.189-.065-.167-.182m-.29.769c.141-.34.4-.2.617-.131Q24.877,6.68,32.435,8.907a.386.386,0,0,1,.323.232l-4.609,2.534c-1.96,1.077-3.924,2.149-5.878,3.237-.309.172-.483.225-.694-.156-1.7-3.064-3.411-6.125-5.16-9.162-.3-.526.15-.68.282-1M15.2,5.642c.325-.174.46.032.6.284q2.074,3.709,4.159,7.412c.356.634.7,1.272,1.071,1.9.116.2.172.341-.034.529q-2.831,2.576-5.651,5.165a1.029,1.029,0,0,1-.237.108c-.021-.447-.055-.849-.056-1.252q-.006-6.8,0-13.592c0-.19-.1-.424.146-.553M7.2,21.084Q10.655,13.592,14.1,6.1c.031-.068.066-.134.1-.2.064-.134.112-.3.31-.254s.172.215.173.361c.01,1.082.026,2.163.027,3.245,0,3.88-.006,7.761.012,11.641a1.277,1.277,0,0,1-.453,1.057Q8.206,27.463,2.172,33c-.123.113-.237.236-.356.355-.144-.009-.171-.073-.115-.206s.174-.272.136-.446Q4.521,26.9,7.2,21.084M1.336,34.742q5.6-5.106,11.179-10.227c.685-.627,1.368-1.257,2.044-1.879.225.1.142.274.142.4.005,3.207,0,6.415.012,9.622a.527.527,0,0,1-.461.615,1.892,1.892,0,0,0-1.446,1.672,1.915,1.915,0,0,0,1.011,2.116,1.083,1.083,0,0,0,.818.3c.467,0,.575.231.648.629.32,1.755.651,3.508,1.02,5.252.093.439-.074.411-.367.341a24.677,24.677,0,0,0-2.774-1.624C10.539,40.583,7.99,39.07,5.4,37.637c-1.338-.739-2.658-1.51-4-2.234-.434-.233-.362-.384-.057-.662M15.427,55.911Q10.574,49.03,5.71,42.157c-1.238-1.75-2.49-3.491-3.734-5.237-.082-.115-.153-.239-.239-.374.25-.083.383.087.532.171C5.1,38.3,7.92,39.9,10.755,41.479c1.822,1.014,3.662,2,5.494,2.992a1.2,1.2,0,0,1,.455.851q1.487,7.791,2.979,15.581c.048.251.267.61-.036.75-.233.108-.308-.3-.478-.458a.664.664,0,0,0-.091-.06c-1.217-1.742-2.427-3.488-3.651-5.224m6.211,5.546h0c-.3.262-.609-.027-.905.026-.455.081-.571-.165-.641-.545-.326-1.774-.667-3.546-1.005-5.317q-.968-5.07-1.937-10.14c-.029-.155-.2-.371.123-.434,1.831,1.168,3.773,2.141,5.655,3.218,1.57.9,3.145,1.791,4.736,2.653.414.225.411.393.174.762q-3.015,4.682-5.993,9.387c-.079.124-.138.261-.206.391m30.137-1.114q-9.458.869-18.916,1.734-4.812.443-9.624.9c-.237.022-.488.089-.662-.157-.032-.3.216-.356.4-.463,3.124-1.807,6.253-3.6,9.372-5.421,1.408-.82,2.852-1.579,4.211-2.483a1.259,1.259,0,0,1,.75.062c.709.255,1.428.482,2.144.72,2.436.975,4.934,1.777,7.4,2.664,1.979.711,3.968,1.4,5.952,2.094.086.03.167.073.411.181-.586.071-1.013.133-1.441.172M55,45.228c-.052,2.647-.124,5.294-.183,7.941-.046,2.051-.092,4.1-.124,6.152-.007.415-.085.559-.546.395q-8.007-2.853-16.024-5.675c-.1-.036-.2-.086-.288-.125-.036-.177.089-.212.179-.265q4.379-2.544,8.755-5.092a.53.53,0,0,1,.762.071,2.051,2.051,0,0,0,2.672.117,2.093,2.093,0,0,0,.653-2.508c-.126-.29-.175-.474.1-.716,1.282-1.111,2.542-2.248,3.81-3.376A.184.184,0,0,1,55,42.089c0,1.033.017,2.086,0,3.139m.309-14.022q-.082,4.076-.183,8.152a5.027,5.027,0,0,0-.035.945,1.865,1.865,0,0,1-.933,1.9c-1.048.833-2.046,1.735-3.008,2.666-.479.463-.89.732-1.482.252h0a1.7,1.7,0,0,0-1.034-.19c-.192-.122-.031-.321-.1-.469a3.959,3.959,0,0,0-.036-.439c-.316-1.643-.629-3.286-.96-4.925-.081-.4-.011-.856-.345-1.186a5.185,5.185,0,0,0-.309-1.739c-.06-.184.013-.286.163-.414q3.993-3.41,7.97-6.838c.067-.058.147-.1.3-.2,0,.875.014,1.682,0,2.488M54.264,19.825a3.312,3.312,0,0,1-.029-.337L58.443,22.1l8.737,5.429c.079.049.155.1.236.15.152.089.271.172.192.395s-.2.255-.423.238c-2.209-.171-4.419-.329-6.629-.49-1.318-.1-2.636-.206-3.955-.282-.409-.024-.614-.126-.712-.58-.516-2.385-1.079-4.759-1.624-7.137M67.533,30.352c-3.807,3.353-7.588,6.736-11.379,10.107-.089.079-.171.21-.223.185,0-2.315-.014-4.569,0-6.824.014-1.659.084-3.317.1-4.976,0-.459.077-.652.615-.608,3.473.28,6.949.526,10.425.772.264.019.443.086.46.363.02.322.455.58,0,.981m.639.6Q65.8,36.135,63.414,41.313,59.569,49.657,55.716,58c-.046.1-.1.195-.151.292l-.1-.014c0-1.036-.016-2.072,0-3.108.051-2.74.117-5.479.179-8.219.04-1.77.087-3.54.118-5.311a.712.712,0,0,1,.276-.57q5.88-5.211,11.753-10.43c.112-.1.2-.323.408-.179.229.162.036.341-.033.492" transform="translate(0 0)"/>
        </g>
      </g>
    </g>
  </g>
</svg>
