<svg xmlns="http://www.w3.org/2000/svg" xmlns:xlink="http://www.w3.org/1999/xlink" width="101" height="101" viewBox="0 0 101 101">
  <defs>
    <clipPath id="clip-path">
      <rect id="Rect치ngulo_66263" data-name="Rect치ngulo 66263" width="68.525" height="67.922" fill="none"/>
    </clipPath>
  </defs>
  <g id="Grupo_217275" data-name="Grupo 217275" transform="translate(-743 -2585)">
    <g id="Rect치ngulo_66260" data-name="Rect치ngulo 66260" transform="translate(743 2585)" fill="#ffd800" stroke="#f7ce48" stroke-width="2">
      <rect width="101" height="101" rx="16" stroke="none"/>
      <rect x="1" y="1" width="99" height="99" rx="15" fill="none"/>
    </g>
    <g id="Grupo_151153" data-name="Grupo 151153" transform="translate(759 2602)">
      <g id="Grupo_151152" data-name="Grupo 151152" clip-path="url(#clip-path)">
        <path id="Trazado_174665" data-name="Trazado 174665" d="M11.481,42.4c.013-2.167-.014-4.334.021-6.5a.988.988,0,0,0-.6-1.006c-3.171-1.806-6.322-3.649-9.494-5.454A2.549,2.549,0,0,1,0,27.014q.034-8.2,0-16.392A2.588,2.588,0,0,1,1.412,8.134Q8.15,4.285,14.859.383A2.291,2.291,0,0,1,17.415.4q3.4,2.177,6.788,4.37c.061.04.117.086.239.177-1.376.8-2.7,1.552-4.01,2.326a.541.541,0,0,1-.659-.02c-1.1-.723-2.219-1.421-3.318-2.147a.623.623,0,0,0-.76-.046Q10.283,8.209,4.852,11.33a.617.617,0,0,0-.36.618q.013,6.84.006,13.679c0,.229,0,.42.254.565,2.218,1.266,4.425,2.549,6.709,3.869v-9.4c.271-.09.4.088.547.173q9.217,5.312,18.431,10.628a.7.7,0,0,1,.424.7q-.017,10.712-.008,21.423v.355c-.2.089-.3-.04-.4-.1Q21.164,48.48,11.875,43.123a.707.707,0,0,1-.393-.718m45.028.8c-1.837,1.03-3.649,2.1-5.484,3.138a.7.7,0,0,0-.385.721c.008,3.391-.006,6.782.013,10.172a2.524,2.524,0,0,1-1.38,2.395q-6.852,3.929-13.682,7.9a2.45,2.45,0,0,1-2.661-.007q-6.905-4.006-13.824-7.989a2.117,2.117,0,0,1-1.2-1.8c-.041-2.368-.015-4.737-.015-7.2.558.318,1.057.6,1.553.886.815.469,1.615.969,2.449,1.4a.812.812,0,0,1,.491.886c-.033.733,0,1.469-.015,2.2a.527.527,0,0,0,.314.531q5.625,3.233,11.239,6.486a.57.57,0,0,0,.663,0q5.613-3.254,11.238-6.488c.159-.092.334-.157.333-.4-.007-2.254,0-4.509,0-6.858L37.8,53.995c-.188-.124-.111-.291-.111-.426q-.006-10.709-.009-21.417a.664.664,0,0,1,.37-.674q9.367-5.385,18.721-10.792c.06-.034.125-.06.274-.131,0,.752,0,1.44,0,2.127q0,9.8,0,19.609a.909.909,0,0,1-.544.918M68.522,27.156a2.277,2.277,0,0,1-1.145,2.124c-2.144,1.251-4.3,2.484-6.45,3.725a.285.285,0,0,1-.3.055c0-1.6.006-3.21-.006-4.824,0-.279.2-.338.367-.437.878-.511,1.753-1.027,2.643-1.516a.7.7,0,0,0,.409-.709q-.018-6.782,0-13.564a.7.7,0,0,0-.4-.709q-5.409-3.1-10.8-6.231c-.192-.111-.353-.231-.61-.064-2.366,1.536-4.743,3.056-7.179,4.622l8.581,4.963-4.645,2.684Q41.847,21.4,34.717,25.524a.784.784,0,0,1-.913-.01q-9.278-5.372-18.565-10.728c-.1-.056-.184-.125-.31-.211l7.161-4.133Q27.954,7.056,33.812,3.66a.774.774,0,0,1,.908,0c1.8,1.062,3.616,2.088,5.414,3.15a.851.851,0,0,0,1.05-.008c3.215-2.1,6.456-4.155,9.67-6.252a2.594,2.594,0,0,1,3-.076Q60.5,4.362,67.193,8.183a2.439,2.439,0,0,1,1.333,2.3q-.02,8.336,0,16.672" transform="translate(0 0)" fill="#fdfdfd"/>
        <path id="Trazado_174666" data-name="Trazado 174666" d="M30.854,53.936V53.58q0-10.712.008-21.423a.7.7,0,0,0-.424-.7q-9.22-5.307-18.431-10.628c-.148-.085-.276-.263-.547-.173v9.4c-2.283-1.32-4.491-2.6-6.709-3.87-.254-.145-.255-.335-.255-.565q0-6.84-.006-13.68a.617.617,0,0,1,.36-.618Q10.283,8.208,15.7,5.056a.622.622,0,0,1,.76.047c1.1.725,2.217,1.423,3.318,2.147a.539.539,0,0,0,.658.019c1.312-.774,2.634-1.53,4.01-2.326-.122-.091-.178-.138-.239-.177Q20.81,2.579,17.415.4A2.292,2.292,0,0,0,14.859.384Q8.142,4.27,1.412,8.135A2.588,2.588,0,0,0,0,10.622q.037,8.2,0,16.392a2.546,2.546,0,0,0,1.412,2.43c3.172,1.805,6.322,3.649,9.493,5.455a.987.987,0,0,1,.6,1.006c-.034,2.166-.008,4.333-.021,6.5a.705.705,0,0,0,.394.718q9.294,5.348,18.578,10.713c.1.06.2.189.4.1" transform="translate(0 0)" fill="#fcee21"/>
        <path id="Trazado_174667" data-name="Trazado 174667" d="M83.951,8.222Q77.271,4.389,70.614.515a2.594,2.594,0,0,0-3,.075c-3.215,2.1-6.456,4.155-9.67,6.252a.852.852,0,0,1-1.051.008c-1.8-1.063-3.616-2.088-5.414-3.15a.772.772,0,0,0-.908,0Q44.72,7.107,38.849,10.481l-7.161,4.133c.126.087.214.156.31.211q9.284,5.363,18.565,10.728a.784.784,0,0,0,.913.011Q58.6,21.423,65.74,17.316l4.645-2.684L61.8,9.669C64.24,8.1,66.616,6.583,68.982,5.047c.257-.166.418-.047.611.065q5.4,3.119,10.8,6.23a.7.7,0,0,1,.4.71q-.016,6.782,0,13.563a.7.7,0,0,1-.409.71c-.89.488-1.765,1-2.643,1.516-.17.1-.368.158-.366.437.011,1.613.006,3.227.006,4.824a.286.286,0,0,0,.3-.055c2.15-1.241,4.305-2.473,6.449-3.725A2.275,2.275,0,0,0,85.281,27.2q-.009-8.336,0-16.672a2.438,2.438,0,0,0-1.333-2.3" transform="translate(-16.759 -0.039)" fill="#0071bc"/>
        <path id="Trazado_174668" data-name="Trazado 174668" d="M77.124,45.755c0-.687,0-1.374,0-2.127-.149.071-.214.1-.274.131q-9.359,5.4-18.721,10.793a.663.663,0,0,0-.37.673q.011,10.708.009,21.417c0,.136-.078.3.111.426l8.349-4.815c0,2.349,0,4.6,0,6.859,0,.246-.175.311-.333.4Q60.278,82.757,54.661,86A.57.57,0,0,1,54,86q-5.613-3.254-11.239-6.486a.527.527,0,0,1-.314-.531c.017-.734-.018-1.47.015-2.2a.812.812,0,0,0-.491-.886c-.835-.431-1.634-.93-2.449-1.4-.5-.286-1-.568-1.553-.886,0,2.464-.026,4.833.015,7.2a2.116,2.116,0,0,0,1.2,1.8Q46.094,86.6,53,90.6a2.449,2.449,0,0,0,2.661.007q6.832-3.965,13.682-7.9a2.525,2.525,0,0,0,1.38-2.395c-.018-3.39,0-6.781-.013-10.171a.7.7,0,0,1,.385-.721c1.835-1.033,3.648-2.107,5.484-3.138a.909.909,0,0,0,.544-.918q-.021-9.8,0-19.609" transform="translate(-20.074 -23.073)" fill="red"/>
      </g>
    </g>
  </g>
</svg>
