<svg xmlns="http://www.w3.org/2000/svg" xmlns:xlink="http://www.w3.org/1999/xlink" width="101" height="101" viewBox="0 0 101 101">
  <defs>
    <clipPath id="clip-path">
      <rect id="Rect치ngulo_66262" data-name="Rect치ngulo 66262" width="71.118" height="71.12" fill="none"/>
    </clipPath>
  </defs>
  <g id="Grupo_217276" data-name="Grupo 217276" transform="translate(-743 -2884)">
    <g id="Rect치ngulo_66261" data-name="Rect치ngulo 66261" transform="translate(743 2884)" fill="#ffd800" stroke="#f7ce48" stroke-width="2">
      <rect width="101" height="101" rx="16" stroke="none"/>
      <rect x="1" y="1" width="99" height="99" rx="15" fill="none"/>
    </g>
    <g id="Grupo_151151" data-name="Grupo 151151" transform="translate(758 2899)">
      <g id="Grupo_151150" data-name="Grupo 151150" clip-path="url(#clip-path)">
        <path id="Trazado_174615" data-name="Trazado 174615" d="M71.262,66.227a1.474,1.474,0,0,0-.981-.714c-.852.182-1.092.461-1.1,1.3-.006.573-.017,1.147,0,1.72.013.341-.069.495-.451.482-.916-.031-1.834-.022-2.751-.029-4.091.007-8.183,0-12.274.036-.574,0-.5-.3-.5-.646q0-6.519,0-13.038c0-.624.016-1.249-.006-1.872-.012-.335.1-.432.434-.43q6.171.024,12.343.027c.876-.007,1.753.009,2.628-.031.452-.02.581.118.578.574-.021,2.768-.012,5.537-.009,8.305,0,.906.247,1.19,1.128,1.334h0c.439-.023.662-.376.953-.624V51.649a2.768,2.768,0,0,0-.984-.821q-3.793-2.073-7.576-4.166a2.124,2.124,0,0,0-1.326-.283c-.421.052-.545-.081-.538-.52.028-1.873.014-3.746.011-5.62,0-.981-.357-1.338-1.332-1.344-.786-.005-1.573-.015-2.359.005-.334.009-.488-.043-.483-.439q.032-2.914,0-5.828c0-.4.157-.444.484-.438.832.016,1.665.018,2.5,0a1.07,1.07,0,0,0,1.192-1.208c.01-1.919.019-3.839-.008-5.758-.006-.438.116-.579.537-.52a2.36,2.36,0,0,0,1.505-.39q3.656-2.037,7.336-4.03a2.837,2.837,0,0,0,1.046-.852V.694L70.568,0H51.825C49.25,1.432,46.7,2.91,44.088,4.274a2.05,2.05,0,0,0-1.309,2.22c.093,1.215.021,1.22-1.2,1.22-.625,0-1.25-.014-1.874.005a1.012,1.012,0,0,0-1.129,1.112c-.026.832-.028,1.666,0,2.5.014.409-.079.568-.529.56q-2.324-.041-4.649,0c-.449.008-.544-.151-.529-.56.029-.809.023-1.62,0-2.429-.02-.827-.372-1.169-1.2-1.183-.856-.014-1.712-.02-2.568,0-.364.01-.516-.1-.461-.467a1.344,1.344,0,0,0,0-.208c-.016-2.249.251-1.9-1.782-3.025L19.614,0H8.785a1.326,1.326,0,0,0-.739.988c.165.837.462,1.092,1.312,1.093,2.753,0,5.505.013,8.258-.009.467,0,.624.089.622.595q-.031,7.391,0,14.782c0,.48-.11.615-.6.613q-7.391-.03-14.781,0c-.494,0-.606-.133-.6-.613q.028-7.391,0-14.782c0-.505.152-.632.622-.593s.971.011,1.457.009c.925,0,1.153-.183,1.406-1.091A1.729,1.729,0,0,0,5.036,0H.871A2.9,2.9,0,0,0,.177.694V19.438a2.637,2.637,0,0,0,.926.783q3.736,2.035,7.455,4.1a2.358,2.358,0,0,0,1.505.39c.421-.059.544.081.538.519-.027,1.873-.014,3.746-.011,5.619,0,.98.357,1.338,1.331,1.344.786.005,1.573.015,2.359-.005.333-.009.488.042.484.438q-.032,2.914,0,5.827c.005.4-.155.446-.482.439-.809-.017-1.619-.014-2.428,0-.885.012-1.26.39-1.263,1.275-.006,1.9-.016,3.793.009,5.689.006.431-.1.585-.533.524a2.352,2.352,0,0,0-1.505.388c-2.477,1.382-4.966,2.742-7.455,4.1a2.518,2.518,0,0,0-.93.785V70.393l.694.694H19.614c2.552-1.418,5.08-2.884,7.669-4.232,1.018-.529,1.56-1.155,1.36-2.318-.035-.2.019-.419-.01-.622-.061-.427.1-.557.527-.535.737.037,1.478.013,2.218.01,1.184-.006,1.489-.306,1.495-1.469,0-.716.021-1.434-.007-2.149-.016-.407.083-.566.531-.558q2.321.042,4.644,0c.449-.008.546.153.53.559-.027.715-.01,1.432-.007,2.149.006,1.163.31,1.462,1.495,1.468.763,0,1.526.02,2.287-.008.366-.013.511.1.454.463a.842.842,0,0,0,0,.138c.019,2.333-.269,1.938,1.855,3.11,2.395,1.322,4.78,2.661,7.17,3.993H70.568l.694-.694Zm-14-25.26c1.5.006,1.5-.006,1.5,1.5,0,1.132-.024,2.264.012,3.395.015.448-.13.537-.542.522-.876-.032-1.755-.01-2.633-.01s-1.756-.017-2.633.008c-.362.011-.466-.093-.461-.459q.031-2.252,0-4.5c-.006-.383.13-.483.478-.449a5.8,5.8,0,0,0,.762,0c.483-.016.924-.113.914.678a.879.879,0,0,0,1.05.784.93.93,0,0,0,.943-.929c0-.5.2-.541.609-.54M58.608,30.1a17.187,17.187,0,0,1-1.8-.009c-.209-.014-.1-.267-.121-.413-.09-.649-.518-1.092-1.077-1.038a.985.985,0,0,0-.993,1.038c0,.386-.143.438-.48.445-1.616.032-1.616.042-1.616-1.594,0-1.11.017-2.221-.009-3.331-.009-.392.1-.51.5-.5.878.029,1.758.009,2.637.009.9,0,1.8.015,2.707-.008.335-.008.428.092.425.425-.017,1.527-.006,3.054-.011,4.581,0,.144.076.381-.156.391m-6.264-9.9a1.363,1.363,0,0,1,.606-.069c1.548-.005,3.1,0,4.644,0,1.039,0,1.367-.339,1.339-1.365a1.217,1.217,0,0,0-1.29-.724c-1.294.022-2.589-.006-3.883.015-.391.006-.56-.048-.558-.512q.029-7.49.007-14.98c0-.324.03-.494.434-.492,4.16.023,8.321.025,12.481.033.878-.008,1.757,0,2.634-.03.333-.01.43.1.429.428q-.014,7.561,0,15.123c0,.333-.1.439-.429.428-.878-.027-1.756-.022-2.634-.03-1.061.008-2.122.035-3.183.017a1.215,1.215,0,0,0-1.286.725c-.026,1.028.3,1.361,1.341,1.364.965,0,1.93,0,2.959,0a1.1,1.1,0,0,1-.563.423c-1.169.65-2.337,1.3-3.516,1.933-.6.322-.863.2-1.06-.393a.992.992,0,0,0-1.031-.759.909.909,0,0,0-.972.81c-.049.443-.22.5-.6.493-1.732-.018-3.465-.011-5.2,0-.3,0-.487,0-.524-.41a1.024,1.024,0,0,0-2.03,0c-.039.326-.119.431-.449.417a12.017,12.017,0,0,1-1.878-.135c1.4-.77,2.8-1.546,4.21-2.3M45.678,5.783c1.8-.924,3.561-1.936,5.362-2.928a.964.964,0,0,1,.087.621c0,4.786,0,9.573.014,14.359a.924.924,0,0,1-.569.959c-1.87.994-3.717,2.033-5.69,3.12,0-1.187.02-2.25-.01-3.312-.012-.429.171-.49.531-.478.623.021,1.249.025,1.872-.005.728-.036,1.133-.436,1.128-1.051s-.42-1-1.149-1.015c-.647-.015-1.3-.018-1.942,0-.329.01-.44-.1-.437-.434q.021-2.705,0-5.41c0-.355.142-.422.451-.414.624.016,1.249.021,1.873,0,.78-.028,1.205-.414,1.2-1.049s-.431-1.011-1.21-1.024c-.6-.011-1.2-.022-1.8,0-.379.016-.488-.095-.527-.494a1.277,1.277,0,0,1,.815-1.448M41,11.9c-.259-.027-.38-.126-.349-.389a.391.391,0,0,0,0-.069c-.094-1.657.149-1.862,1.854-1.651.316.039.3.195.3.407q0,1.384,0,2.768c0,.876-.017,1.753.008,2.629.011.369-.112.509-.47.456a.905.905,0,0,0-.138,0c-1.666.016-1.659.017-1.559-1.664.016-.274.071-.417.37-.454A1.02,1.02,0,0,0,41,11.9M29.088,9.8a.819.819,0,0,0,.138,0c1.669-.015,1.663-.016,1.571,1.652-.015.268-.052.42-.366.45a.948.948,0,0,0-.926,1.015.96.96,0,0,0,.93,1.016c.31.036.346.2.36.461.091,1.647-.174,1.877-1.846,1.665-.368-.047-.311-.255-.311-.475,0-.9,0-1.8,0-2.7,0-.876.016-1.753-.008-2.629-.01-.358.09-.518.458-.457M20.325,2.981a.815.815,0,0,1,.065-.15L23.5,4.6c.91.487,1.824.966,2.729,1.462.636.348.3.957.294,1.43-.01.436-.477.2-.734.223a14.636,14.636,0,0,0-2.269.1c-.661.712-.66,1.149,0,1.855a9.161,9.161,0,0,0,2.485.121c.4,0,.568.078.562.53q-.039,2.6,0,5.2c.007.447-.152.534-.559.535a11.332,11.332,0,0,0-2.489.085c-.656.712-.659,1.01-.018,1.909a20.775,20.775,0,0,0,2.619.076c.255,0,.444.014.44.358-.015,1.1-.006,2.2-.006,3.432l-3.368-1.91c-.854-.456-1.7-.918-2.564-1.362a.533.533,0,0,1-.319-.546q.017-7.562.021-15.125M11.6,21.339a.907.907,0,0,0-.976.809c-.083.778-.6.559-.925.391a45.507,45.507,0,0,1-4.165-2.407h.569q6.172,0,12.344-.006a2.02,2.02,0,0,1,1.047.27c1.26.714,2.533,1.4,3.8,2.1l-.04.131c-.621,0-1.242-.013-1.862.006-.289.009-.38-.079-.415-.378a.949.949,0,0,0-1.024-.917.936.936,0,0,0-1.019.919c-.032.381-.217.375-.489.374-1.757-.006-3.514-.014-5.27.006-.372,0-.491-.088-.548-.474a.93.93,0,0,0-1.03-.827m2.458,8.782c-1.39-.025-1.39-.007-1.39-1.4,0-1.109.042-2.22-.017-3.325-.032-.609.176-.725.727-.691.805.049,1.616.013,2.424.013.878,0,1.756.021,2.633-.01.4-.014.494.12.489.5-.021,1.478-.018,2.956,0,4.435,0,.341-.061.524-.45.476a3.943,3.943,0,0,0-.692,0c-.528.028-1.008.113-1.021-.718-.008-.491-.5-.772-1.013-.749a.9.9,0,0,0-.952.836c-.011.589-.252.646-.736.638m-1.4,11.321c0-.348.073-.518.455-.471a3.584,3.584,0,0,0,.692,0c.54-.039,1-.094,1.017.723a.869.869,0,0,0,1.017.743.926.926,0,0,0,.961-.909c.006-.537.231-.567.66-.562,1.453.017,1.453,0,1.453,1.478,0,1.109-.024,2.218.011,3.325.015.467-.08.644-.589.616-.852-.047-1.708-.013-2.563-.013-.878,0-1.755-.01-2.633.005-.321.005-.493-.025-.486-.433.028-1.5.021-3,0-4.5M18.226,61.02c0,2.429-.013,4.859.011,7.288.005.515-.091.713-.671.71q-7.322-.038-14.645,0c-.578,0-.673-.193-.671-.709q.026-7.288,0-14.576c0-.514.09-.713.67-.71q7.322.038,14.645,0c.578,0,.677.193.672.709-.024,2.429-.011,4.859-.011,7.288M15.377,50.99c-3.255-.142-6.521-.035-9.782-.035l-.054-.146c1.393-.759,2.774-1.54,4.185-2.263.379-.194.829-.284.911.446.057.511.485.748,1.021.737a.921.921,0,0,0,.977-.807c.064-.478.3-.471.646-.47q2.5.011,5,0c.372,0,.637-.014.685.508s.453.766.993.772a.912.912,0,0,0,1-.775c.067-.519.322-.512.691-.5.53.013,1.061,0,1.6,0,.017.286-.229.279-.365.365-.253.161-.551.256-.788.435a9.867,9.867,0,0,1-6.714,1.734M26.162,65.067c-.9.461-1.773.957-2.659,1.437l-3.087,1.732a.84.84,0,0,1-.1-.619c0-4.783,0-9.566-.014-14.349a.925.925,0,0,1,.563-.977c.848-.417,1.669-.889,2.5-1.339l3.186-1.78c0,1.254.011,2.412-.007,3.569-.006.351-.32.256-.533.267a19.084,19.084,0,0,0-2.485.074,1.15,1.15,0,0,0-.157,1.748l.157.116A9.069,9.069,0,0,0,26,55.087c.4-.005.573.1.568.538q-.031,2.589,0,5.178c.005.43-.145.55-.559.548a16.891,16.891,0,0,0-2.482.049h0l-.156.116a1.15,1.15,0,0,0,.158,1.748h0a8.932,8.932,0,0,0,2.253.17c.261.013.711-.195.74.235.031.472.3,1.059-.356,1.4M30.443,59.2c.254.031.38.133.347.4a.375.375,0,0,0,0,.069c.1,1.653-.173,1.883-1.847,1.657-.373-.05-.3-.267-.3-.482,0-.9,0-1.8,0-2.7,0-.876.019-1.754-.009-2.629-.012-.374.115-.5.466-.45a.93.93,0,0,0,.138,0c1.669-.014,1.661-.015,1.565,1.66-.016.276-.069.412-.374.444a.948.948,0,0,0-.919,1.021.969.969,0,0,0,.937,1.012m12.37-3.5c-.045.828-.012,1.66-.012,2.49,0,.9-.013,1.8.007,2.7.007.327-.087.477-.426.431a2.025,2.025,0,0,0-.277,0c-1.476,0-1.47,0-1.461-1.482,0-.344-.007-.607.461-.663a1,1,0,0,0,0-1.979c-.4-.044-.463-.225-.467-.58-.016-1.555-.027-1.528,1.54-1.561.531-.011.66.138.633.647m1.222-9.315c-.85.008-1.228.381-1.232,1.227-.009,1.573-.032,3.147.013,4.719.016.574-.175.694-.7.666-.784-.041-1.573-.021-2.359-.007-.827.015-1.172.358-1.191,1.194s-.02,1.666,0,2.5c.01.361-.1.481-.469.477q-2.394-.026-4.788,0c-.4.005-.455-.166-.447-.5.018-.74.009-1.48.005-2.22-.006-1.161-.288-1.449-1.425-1.454-.763,0-1.528-.028-2.289.01-.446.022-.536-.135-.529-.549.024-1.573.012-3.146.009-4.719,0-.986-.353-1.343-1.326-1.345-1.92,0-3.84-.018-5.76.011-.467.007-.565-.135-.56-.575.024-1.85.012-3.7.009-5.552,0-1.017-.351-1.361-1.381-1.365-.787,0-1.573-.015-2.359.006-.327.009-.434-.079-.431-.42q.024-2.949,0-5.9c0-.307.092-.394.392-.387.809.019,1.619.011,2.429,0,.98-.007,1.347-.368,1.349-1.333,0-1.851.018-3.7-.01-5.552-.007-.472.09-.623.593-.614,1.9.033,3.793.016,5.69.012,1.019,0,1.362-.349,1.364-1.378,0-1.573.014-3.146-.008-4.719-.006-.393.1-.514.5-.5.785.032,1.573.017,2.359.008,1.047-.012,1.374-.336,1.385-1.371.008-.786.014-1.573,0-2.359-.007-.326.1-.442.435-.439q2.394.021,4.788,0c.359,0,.49.1.479.468-.023.809-.017,1.619,0,2.428.016.911.352,1.251,1.271,1.272.786.018,1.574.034,2.359-.007.475-.025.628.1.616.595-.036,1.48-.013,2.961-.013,4.441,0,1.274.281,1.561,1.528,1.561,1.85,0,3.7.016,5.551-.011.453-.007.574.114.567.567-.027,1.85-.013,3.7-.01,5.552,0,1.021.35,1.367,1.375,1.372.787,0,1.573.014,2.359-.006.318-.008.441.062.438.413q-.025,2.949,0,5.9c0,.381-.168.4-.458.392-.74-.014-1.48-.006-2.221,0-1.173,0-1.495.317-1.5,1.464,0,1.781-.032,3.563.017,5.343.017.609-.177.721-.729.692-.923-.047-1.85-.013-2.775-.013-.971,0-1.943-.007-2.915,0m7.09,21.679c0,.039-.033.077-.079.176l-5.09-2.794c-.162-.089-.321-.183-.483-.273a1.344,1.344,0,0,1-.584-1.56c.087-.263.284-.195.45-.2.6-.011,1.2.011,1.8-.011.833-.031,1.264-.415,1.253-1.076s-.44-.992-1.3-1c-.578,0-1.157-.016-1.735,0-.348.012-.492-.085-.488-.464q.025-2.672,0-5.345c0-.394.171-.457.5-.449.624.014,1.251.025,1.874-.009.77-.043,1.177-.459,1.146-1.105-.029-.613-.438-.949-1.2-.961-.6-.01-1.2-.021-1.8,0-.38.015-.532-.092-.522-.5.026-1.062.009-2.126.009-3.319,2.057,1.132,3.994,2.2,5.938,3.264a.547.547,0,0,1,.314.553q-.01,7.532-.01,15.064m1.142-17.2c-1.369-.759-2.743-1.508-4.115-2.26l.039-.139c.389,0,.778-.006,1.167,0,.534.009,1.135-.19,1.221.717.041.434.53.6.991.568a.9.9,0,0,0,.906-.8c.047-.454.245-.492.613-.489q2.531.022,5.061,0c.38,0,.615.005.666.511a.9.9,0,0,0,.991.783.908.908,0,0,0,1-.784c.1-.81.639-.571.982-.4,1.4.713,2.756,1.5,4.14,2.259-.143.233-.347.125-.5.126q-6.24.011-12.48,0a1.292,1.292,0,0,1-.674-.1" transform="translate(-0.144)"/>
        <path id="Trazado_174616" data-name="Trazado 174616" d="M.033,379.909q-.186.881.694.694a.862.862,0,0,1-.694-.694" transform="translate(0 -309.516)" fill="#f8f8f8"/>
        <path id="Trazado_174617" data-name="Trazado 174617" d="M.87,380.6l-.694-.694a.862.862,0,0,0,.694.694" transform="translate(-0.143 -309.516)" fill="#f8f8f8"/>
        <path id="Trazado_174618" data-name="Trazado 174618" d="M15.979,5.57c0,.048.005.1,0,.145-.255.813-.556,1.061-1.372,1.114-.439.028-.879.019-1.318.013-.455-.006-.7.178-.683.652,0,.138-.005.277-.005.416q0,6.695,0,13.389c0,1.037.026,1.065,1.033,1.066q6.729,0,13.458,0c.993,0,1.031-.034,1.032-1q.006-6.8,0-13.6c0-.885-.044-.927-.951-.929-2.5-.006-4.995.01-7.492-.008-1.024-.007-1.4-.286-1.65-1.131,0-.046,0-.088,0-.131a3.033,3.033,0,0,1-2.058,0" transform="translate(-10.27 -4.538)" fill="#4fb0f4"/>
        <path id="Trazado_174619" data-name="Trazado 174619" d="M17.014,5.378c0,.043,0,.085,0,.131.246.845.625,1.124,1.65,1.131,2.5.018,4.995,0,7.492.008.907,0,.951.044.951.929q0,6.8,0,13.6c0,.962-.039,1-1.032,1q-6.729,0-13.458,0c-1.006,0-1.032-.029-1.032-1.066q0-6.695,0-13.389c0-.139.01-.278.005-.416-.015-.475.227-.659.683-.653.439.006.879.016,1.318-.013.816-.053,1.117-.3,1.372-1.114,0-.05,0-.1,0-.145-.041-.014-.081-.026-.122-.041-.253.909-.481,1.087-1.406,1.091-.486,0-.974.032-1.457-.009s-.625.088-.623.593q.031,7.391,0,14.782c0,.48.11.615.6.613q7.391-.03,14.781,0c.494,0,.606-.133.6-.613q-.028-7.391,0-14.782c0-.505-.155-.6-.622-.595-2.752.022-5.505.013-8.258.009-.85,0-1.147-.257-1.312-1.093h0c-.045.018-.089.031-.134.047" transform="translate(-9.246 -4.343)" fill="#4fb0f4"/>
        <path id="Trazado_174620" data-name="Trazado 174620" d="M32.868,5.379c0-.015,0-.032,0-.047l-2.06,0c0,.013,0,.028,0,.042a3.033,3.033,0,0,0,2.058,0" transform="translate(-25.1 -4.344)" fill="#4fb0f4"/>
        <path id="Trazado_174621" data-name="Trazado 174621" d="M30.279,5.346h-.121c.041.016.081.027.122.041,0-.014,0-.028,0-.042" transform="translate(-24.57 -4.355)" fill="#4fb0f4"/>
        <path id="Trazado_174622" data-name="Trazado 174622" d="M41.923,5.378c.045-.016.089-.029.134-.047h-.134c0,.015,0,.031,0,.047" transform="translate(-34.155 -4.343)" fill="#4fb0f4"/>
        <path id="Trazado_174623" data-name="Trazado 174623" d="M26.676,286.166q-7.322.038-14.645,0c-.58,0-.672.2-.67.71q.026,7.288,0,14.576c0,.516.093.712.671.709q7.322-.037,14.645,0c.58,0,.676-.2.671-.71-.024-2.429-.011-4.859-.011-7.288s-.013-4.859.011-7.288c.005-.516-.094-.712-.672-.709" transform="translate(-9.256 -233.143)" fill="#685c79"/>
        <path id="Trazado_174624" data-name="Trazado 174624" d="M292.715,28.278a9.925,9.925,0,0,1,1.453,0,.589.589,0,0,0,.634-.393h0a1.215,1.215,0,0,1,1.286-.725c1.061.018,2.122-.009,3.183-.016V11.224c-4.16-.008-8.321-.01-12.481-.033-.4,0-.434.168-.434.492q.011,7.49-.007,14.98c0,.464.167.518.558.512,1.294-.021,2.589.008,3.883-.015a1.217,1.217,0,0,1,1.29.724.591.591,0,0,0,.634.394" transform="translate(-233.292 -9.117)" fill="#fed559"/>
        <path id="Trazado_174625" data-name="Trazado 174625" d="M300.14,287.35c-3.772.043-7.543.007-11.314.019-1.2,0-1.2,0-1.2,1.233q0,6.56,0,13.12c0,1.162,0,1.162,1.137,1.166,3.771.013,7.543-.028,11.313.019h.1q0-7.778,0-15.556h-.027" transform="translate(-234.328 -234.107)" fill="#fe2c5c"/>
        <path id="Trazado_174626" data-name="Trazado 174626" d="M299.057,301.98c-3.77-.047-7.542-.006-11.313-.019-1.135,0-1.137,0-1.137-1.166q0-6.56,0-13.12c0-1.232,0-1.23,1.2-1.234,3.771-.011,7.543.024,11.314-.019h.027v-.184q-6.172-.011-12.343-.027c-.329,0-.446.1-.434.43.022.623.006,1.248.006,1.872q0,6.519,0,13.038c0,.348-.076.651.5.647,4.091-.034,8.182-.029,12.274-.036v-.184h-.1" transform="translate(-233.313 -233.18)" fill="#fe2c5c"/>
        <path id="Trazado_174627" data-name="Trazado 174627" d="M241.824,20.277c.6-.026,1.2-.014,1.8,0,.779.014,1.209.385,1.21,1.024s-.425,1.021-1.2,1.049c-.623.022-1.249.018-1.872,0-.309-.008-.454.059-.451.414q.024,2.7,0,5.41c0,.337.109.443.437.434.647-.019,1.295-.017,1.942,0,.728.017,1.143.4,1.149,1.015s-.4,1.015-1.128,1.051c-.623.031-1.249.026-1.872.005-.36-.012-.543.049-.531.478.029,1.062.01,2.125.01,3.312,1.972-1.087,3.819-2.126,5.69-3.12a.925.925,0,0,0,.569-.959c-.018-4.786-.01-9.573-.014-14.359a.964.964,0,0,0-.087-.621c-1.8.991-3.56,2-5.362,2.928a1.277,1.277,0,0,0-.815,1.448c.039.4.148.51.527.494" transform="translate(-196.577 -12.553)" fill="#febc54"/>
        <path id="Trazado_174628" data-name="Trazado 174628" d="M247.139,268.654c-1.944-1.06-3.881-2.131-5.938-3.264,0,1.193.017,2.256-.009,3.319-.01.41.142.518.522.5.6-.024,1.2-.013,1.8,0,.757.012,1.166.347,1.2.961.031.646-.376,1.062-1.146,1.105-.623.035-1.249.024-1.874.009-.33-.008-.505.055-.5.449q.026,2.672,0,5.345c0,.378.141.476.488.464.578-.021,1.157-.009,1.735,0,.858.007,1.286.34,1.3,1s-.419,1.044-1.253,1.075c-.6.022-1.2,0-1.8.011-.167,0-.363-.066-.45.2a1.344,1.344,0,0,0,.584,1.56c.162.09.321.184.483.273l5.09,2.794c.045-.1.078-.137.079-.176q.005-7.532.01-15.064a.547.547,0,0,0-.314-.553" transform="translate(-196.463 -216.216)" fill="#e52753"/>
        <path id="Trazado_174629" data-name="Trazado 174629" d="M360.185,297.476h0c-.962-.112-1.285-.468-1.293-1.52-.019-2.381-.005-4.761-.007-7.142,0-.185,0-.37,0-.555-.013-.824-.057-.87-.856-.882-.664-.009-1.327.01-1.991-.009a1.63,1.63,0,0,1,.094.729q.009,7.045,0,14.091a1.621,1.621,0,0,1-.1.732q1.1-.011,2.193,0c.462.006.68-.17.668-.648a14.244,14.244,0,0,1,.013-1.451,1.289,1.289,0,0,1,1.157-1.329c.031,0,.059,0,.089.006a2.777,2.777,0,0,1,.03-2.025" transform="translate(-290.065 -234.123)" fill="#e52753"/>
        <path id="Trazado_174630" data-name="Trazado 174630" d="M357.457,286.411c.8.011.843.057.856.882,0,.185,0,.37,0,.555,0,2.38-.012,4.761.007,7.142.008,1.052.331,1.408,1.293,1.52h0c.015-.037.027-.074.044-.111h0c-.881-.145-1.127-.429-1.128-1.334,0-2.769-.011-5.537.009-8.305,0-.456-.126-.594-.578-.574-.875.039-1.752.024-2.628.031a.707.707,0,0,1,.131.187c.664.019,1.328,0,1.991.009" transform="translate(-289.496 -233.155)" fill="#e52753"/>
        <path id="Trazado_174631" data-name="Trazado 174631" d="M359.586,352.817c-.03,0-.058-.006-.089-.006a1.289,1.289,0,0,0-1.157,1.329,14.21,14.21,0,0,0-.013,1.451c.012.478-.207.654-.668.648q-1.1-.014-2.193,0a.708.708,0,0,1-.129.185c.917.007,1.835,0,2.751.029.382.013.464-.141.451-.482-.022-.573-.01-1.147,0-1.72.008-.834.248-1.113,1.1-1.3h0c-.018-.046-.031-.091-.047-.137" transform="translate(-289.496 -287.439)" fill="#e52753"/>
        <path id="Trazado_174632" data-name="Trazado 174632" d="M377.5,343.925l.049,0q.012-1.015.025-2.031c-.015,0-.028,0-.043,0a2.776,2.776,0,0,0-.03,2.025" transform="translate(-307.41 -278.547)" fill="#e52753"/>
        <path id="Trazado_174633" data-name="Trazado 174633" d="M378.438,341.427c.015,0,.028,0,.043,0,0-.036,0-.072,0-.108h0c-.017.037-.029.074-.044.111" transform="translate(-308.318 -278.074)" fill="#e52753"/>
        <path id="Trazado_174634" data-name="Trazado 174634" d="M378.275,352.841c.016.046.029.091.047.137h0c0-.044,0-.089,0-.134l-.049,0" transform="translate(-308.185 -287.464)" fill="#e52753"/>
        <path id="Trazado_174635" data-name="Trazado 174635" d="M355.56,302.176q.009-7.045,0-14.091a1.632,1.632,0,0,0-.094-.729l-.131,0v15.556h.13a1.621,1.621,0,0,0,.1-.732" transform="translate(-289.496 -234.11)" fill="#e52753"/>
        <path id="Trazado_174636" data-name="Trazado 174636" d="M355.335,371.306v.184a.715.715,0,0,0,.13-.185h-.13" transform="translate(-289.496 -302.507)" fill="#e52753"/>
        <path id="Trazado_174637" data-name="Trazado 174637" d="M355.467,286.545a.71.71,0,0,0-.131-.187v.184l.131,0" transform="translate(-289.496 -233.299)" fill="#e52753"/>
        <path id="Trazado_174638" data-name="Trazado 174638" d="M109.121,31.1c.86.444,1.71.907,2.564,1.362.588-.574.2-1.306.315-1.956-.641-.9-.638-1.2.018-1.909V22.118c-.661-.706-.661-1.143,0-1.855L112,17.043l-3.111-1.768a.807.807,0,0,0-.065.151q-.009,7.562-.021,15.125a.533.533,0,0,0,.319.546" transform="translate(-88.642 -12.445)" fill="#46a3e5"/>
        <path id="Trazado_174639" data-name="Trazado 174639" d="M356.311,12.149q.009,7.043,0,14.087a1.177,1.177,0,0,1-.225.916c.878.008,1.757,0,2.634.03.333.01.43-.1.429-.429q-.014-7.561,0-15.123c0-.333-.1-.439-.429-.428-.878.027-1.756.022-2.634.03a1.177,1.177,0,0,1,.225.916" transform="translate(-290.107 -9.126)" fill="#febc54"/>
        <path id="Trazado_174640" data-name="Trazado 174640" d="M356.311,26.371q.009-7.043,0-14.087a1.177,1.177,0,0,0-.225-.916V27.287a1.177,1.177,0,0,0,.225-.916" transform="translate(-290.107 -9.262)" fill="#febc54"/>
        <path id="Trazado_174641" data-name="Trazado 174641" d="M112,287.308h0a1.15,1.15,0,0,1-.158-1.748q0-3.342,0-6.684h0a1.149,1.149,0,0,1,.157-1.748c-.127-.7.159-1.44-.162-2.13-.832.45-1.653.922-2.5,1.339a.925.925,0,0,0-.563.977c.017,4.783.009,9.566.014,14.349a.839.839,0,0,0,.1.619l3.087-1.732q.011-1.62.022-3.241h0" transform="translate(-88.618 -224.044)" fill="#594f69"/>
        <path id="Trazado_174642" data-name="Trazado 174642" d="M260.879,105.154c.33.014.41-.091.449-.417a1.024,1.024,0,0,1,2.03,0c.037.415.228.412.524.41,1.733-.006,3.465-.013,5.2.005.379,0,.549-.05.6-.493a.909.909,0,0,1,.972-.81.991.991,0,0,1,1.031.759c.2.595.46.715,1.06.393,1.179-.632,2.347-1.283,3.516-1.933a1.1,1.1,0,0,0,.563-.423c-1.029,0-1.994,0-2.959,0-1.041,0-1.367-.336-1.341-1.364h0a.93.93,0,0,1-.049.2c-.507.782-1.285.272-1.932.384a.57.57,0,0,1-.74-.583c.028,1.026-.3,1.363-1.339,1.365-1.548,0-3.1,0-4.644,0a1.361,1.361,0,0,0-.606.069c-1.41.753-2.808,1.53-4.21,2.3a12.039,12.039,0,0,0,1.878.135" transform="translate(-211.011 -82.516)" fill="#fe933d"/>
        <path id="Trazado_174643" data-name="Trazado 174643" d="M318.021,101.865c.647-.112,1.425.4,1.932-.384a.935.935,0,0,0,.049-.2h0a.589.589,0,0,1-.634.393,9.9,9.9,0,0,0-1.453,0,.591.591,0,0,1-.634-.394.57.57,0,0,0,.74.583" transform="translate(-258.493 -82.516)" fill="#fe933d"/>
        <path id="Trazado_174644" data-name="Trazado 174644" d="M36.76,111.135c1.757-.02,3.514-.011,5.27-.006.272,0,.457.007.489-.374a.936.936,0,0,1,1.019-.919.949.949,0,0,1,1.024.917c.035.3.126.387.415.378.62-.018,1.241-.006,1.862-.006l.04-.131c-1.268-.7-2.542-1.389-3.8-2.1a2.022,2.022,0,0,0-1.047-.27q-6.172.014-12.344.006h-.569a45.507,45.507,0,0,0,4.165,2.407c.33.169.842.387.925-.391a.907.907,0,0,1,.976-.809.93.93,0,0,1,1.03.827c.056.386.175.478.547.474" transform="translate(-23.722 -88.495)" fill="#3d99da"/>
        <path id="Trazado_174645" data-name="Trazado 174645" d="M46.459,261.677c.136-.087.382-.079.365-.365-.536,0-1.067.01-1.6,0-.369-.009-.625-.015-.691.5a.912.912,0,0,1-1,.775c-.539-.006-.946-.259-.992-.771s-.313-.51-.685-.508q-2.5.014-5,0c-.343,0-.582-.008-.646.47a.921.921,0,0,1-.977.807c-.537.011-.964-.226-1.021-.737-.082-.73-.532-.64-.911-.446-1.412.722-2.793,1.5-4.186,2.263l.054.146c3.261,0,6.528-.107,9.783.035a9.867,9.867,0,0,0,6.714-1.734c.237-.179.535-.274.788-.435" transform="translate(-23.724 -212.856)" fill="#50475e"/>
        <path id="Trazado_174646" data-name="Trazado 174646" d="M276.368,263.722c.158,0,.361.107.5-.126-1.384-.763-2.744-1.546-4.14-2.259-.343-.175-.879-.413-.982.4a.908.908,0,0,1-1,.784.9.9,0,0,1-.991-.783c-.051-.506-.286-.514-.666-.511q-2.531.019-5.061,0c-.368,0-.567.034-.613.489a.9.9,0,0,1-.906.8c-.461.033-.95-.134-.991-.568-.085-.908-.687-.708-1.221-.717-.389-.007-.778,0-1.166,0l-.039.139c1.372.752,2.746,1.5,4.115,2.26a1.29,1.29,0,0,0,.674.1q6.24,0,12.48,0" transform="translate(-211.092 -212.774)" fill="#d5244d"/>
        <path id="Trazado_174647" data-name="Trazado 174647" d="M126.362,57.756a1.5,1.5,0,0,1-.208.926,11.321,11.321,0,0,1,2.489-.085c.407,0,.566-.089.559-.536q-.039-2.6,0-5.2c.007-.452-.161-.529-.562-.53a9.169,9.169,0,0,1-2.485-.121,1.52,1.52,0,0,1,.207.926q0,2.312,0,4.623" transform="translate(-102.779 -42.534)" fill="#3d99da"/>
        <path id="Trazado_174648" data-name="Trazado 174648" d="M126.154,58.682a1.5,1.5,0,0,0,.208-.926q0-2.312,0-4.623a1.52,1.52,0,0,0-.207-.926v6.475" transform="translate(-102.779 -42.534)" fill="#3d99da"/>
        <path id="Trazado_174649" data-name="Trazado 174649" d="M126.214,297.3q0,2.48,0,4.961a2.279,2.279,0,0,1-.036.438v.307h0a16.863,16.863,0,0,1,2.482-.049c.414,0,.564-.118.559-.548q-.031-2.589,0-5.178c.005-.439-.166-.544-.568-.538a9.069,9.069,0,0,1-2.472-.139v.315a2.3,2.3,0,0,1,.035.431" transform="translate(-102.799 -241.606)" fill="#50475e"/>
        <path id="Trazado_174650" data-name="Trazado 174650" d="M126.214,303.645q0-2.48,0-4.961a2.3,2.3,0,0,0-.035-.431q0,2.915,0,5.83a2.279,2.279,0,0,0,.036-.438" transform="translate(-102.799 -242.99)" fill="#50475e"/>
        <path id="Trazado_174651" data-name="Trazado 174651" d="M125.611,267.48a2.983,2.983,0,0,1-.137,1.82,19.024,19.024,0,0,1,2.485-.074c.213-.01.527.084.533-.267.018-1.157.007-2.314.007-3.569l-3.186,1.78c.217-.011.282.153.3.309" transform="translate(-102.093 -216.217)" fill="#4f465d"/>
        <path id="Trazado_174652" data-name="Trazado 174652" d="M125.474,277.126a2.985,2.985,0,0,0,.137-1.82c-.018-.156-.082-.321-.3-.309.321.69.035,1.425.162,2.13" transform="translate(-102.093 -224.042)" fill="#4f465d"/>
        <path id="Trazado_174653" data-name="Trazado 174653" d="M124.789,99.058c-.042.2-.15.4-.428.354l3.368,1.91c0-1.23-.009-2.331.006-3.432,0-.344-.185-.358-.44-.358a20.775,20.775,0,0,1-2.619-.076,1.959,1.959,0,0,1,.114,1.6" transform="translate(-101.318 -79.398)" fill="#3d99da"/>
        <path id="Trazado_174654" data-name="Trazado 174654" d="M124.36,99.411c.278.047.386-.158.428-.354a1.959,1.959,0,0,0-.114-1.6c-.112.651.274,1.382-.314,1.956" transform="translate(-101.318 -79.398)" fill="#3d99da"/>
        <path id="Trazado_174655" data-name="Trazado 174655" d="M126.071,28.036a14.612,14.612,0,0,1,2.269-.1c.258-.021.724.213.734-.223.011-.472.342-1.082-.294-1.43-.905-.5-1.819-.976-2.729-1.462a5.261,5.261,0,0,1,.019,3.22" transform="translate(-102.696 -20.218)" fill="#3c98d9"/>
        <path id="Trazado_174656" data-name="Trazado 174656" d="M126.052,24.816l.019,3.22a5.261,5.261,0,0,0-.019-3.22" transform="translate(-102.696 -20.218)" fill="#3c98d9"/>
        <path id="Trazado_174657" data-name="Trazado 174657" d="M128.346,341.606a8.925,8.925,0,0,1-2.253-.169,5.42,5.42,0,0,1-.022,3.24c.885-.481,1.763-.976,2.659-1.437.661-.34.388-.927.356-1.4-.029-.43-.479-.221-.74-.235" transform="translate(-102.711 -278.173)" fill="#50475e"/>
        <path id="Trazado_174658" data-name="Trazado 174658" d="M126.092,341.437h0q-.011,1.62-.022,3.24a5.42,5.42,0,0,0,.022-3.24" transform="translate(-102.711 -278.173)" fill="#50475e"/>
        <path id="Trazado_174659" data-name="Trazado 174659" d="M125.335,331.094l.156-.116a.343.343,0,0,1-.059-.09,1.236,1.236,0,0,1-.1.206" transform="translate(-102.112 -269.578)" fill="#7d665e"/>
        <path id="Trazado_174660" data-name="Trazado 174660" d="M125.494,296.043l-.157-.116a1.263,1.263,0,0,1,.1.207.347.347,0,0,1,.06-.091" transform="translate(-102.114 -241.095)" fill="#7d665e"/>
        <path id="Trazado_174661" data-name="Trazado 174661" d="M125.335,302.611h0a1.244,1.244,0,0,0,.1-.206,1.012,1.012,0,0,1-.027-.438q-.007-2.7,0-5.4a1.007,1.007,0,0,1,.027-.437,1.26,1.26,0,0,0-.1-.207q0,3.342,0,6.684" transform="translate(-102.112 -241.095)" fill="#7d665e"/>
        <path id="Trazado_174662" data-name="Trazado 174662" d="M125.916,329.717a1.413,1.413,0,0,1-.059.217.342.342,0,0,0,.059.09v-.307" transform="translate(-102.537 -268.624)" fill="#7d665e"/>
        <path id="Trazado_174663" data-name="Trazado 174663" d="M125.917,296.87v-.315a.342.342,0,0,0-.06.091,1.455,1.455,0,0,1,.06.224" transform="translate(-102.537 -241.607)" fill="#7d665e"/>
        <path id="Trazado_174664" data-name="Trazado 174664" d="M125.752,297.27a1.456,1.456,0,0,0-.06-.224,1.008,1.008,0,0,0-.027.437q-.007,2.7,0,5.4a1.011,1.011,0,0,0,.027.438,1.434,1.434,0,0,0,.059-.217q0-2.915,0-5.83" transform="translate(-102.372 -242.007)" fill="#7d665e"/>
      </g>
    </g>
  </g>
</svg>
