<svg xmlns="http://www.w3.org/2000/svg" width="610" height="705.15" viewBox="0 0 610 705.15">
  <g id="Grupo_217269" data-name="Grupo 217269" transform="translate(-495 -2413)">
    <path id="Path" d="M0,61.714c0,2.964,3.679,5.366,8.216,5.366H181.784c4.537,0,8.216-2.4,8.216-5.366V0H0Z" transform="translate(495 2447)" fill="#d4e0f7"/>
    <path id="Path-2" data-name="Path" d="M0,61.714c0,2.964,3.679,5.366,8.216,5.366H181.784c4.537,0,8.216-2.4,8.216-5.366V0H0Z" transform="translate(915 2447)" fill="#d4e0f7"/>
    <path id="Path-3" data-name="Path" d="M0,61.714c0,2.964,3.679,5.366,8.216,5.366H181.784c4.537,0,8.216-2.4,8.216-5.366V0H0Z" transform="translate(495 2842.07)" fill="#d4e0f7"/>
    <path id="Path-4" data-name="Path" d="M0,61.714c0,2.964,3.679,5.366,8.216,5.366H181.784c4.537,0,8.216-2.4,8.216-5.366V0H0Z" transform="translate(915 2842.07)" fill="#ffee89"/>
    <path id="Path-5" data-name="Path" d="M0,61.714c0,2.964,3.679,5.366,8.216,5.366H181.784c4.537,0,8.216-2.4,8.216-5.366V0H0Z" transform="translate(915 3051.07)" fill="#d4e0f7"/>
    <g id="Grupo_213605" data-name="Grupo 213605" transform="translate(105 -144)">
      <path id="Path-6" data-name="Path" d="M0,8A8.111,8.111,0,0,1,8.216,0H181.784A8.111,8.111,0,0,1,190,8V29H0Z" transform="translate(390 2557)" fill="#78b5fa"/>
      <circle id="Oval" cx="4.32" cy="4.32" r="4.32" transform="translate(401 2566.68)" fill="#ffdd78"/>
      <circle id="Oval-2" data-name="Oval" cx="4.32" cy="4.32" r="4.32" transform="translate(414.68 2566.68)" fill="#ffdd78"/>
      <circle id="Oval-3" data-name="Oval" cx="4.32" cy="4.32" r="4.32" transform="translate(429.448 2566.68)" fill="#ffdd78"/>
    </g>
    <g id="Grupo_213612" data-name="Grupo 213612" transform="translate(525 -144)">
      <path id="Path-7" data-name="Path" d="M0,8A8.111,8.111,0,0,1,8.216,0H181.784A8.111,8.111,0,0,1,190,8V29H0Z" transform="translate(390 2557)" fill="#78b5fa"/>
      <circle id="Oval-4" data-name="Oval" cx="4.32" cy="4.32" r="4.32" transform="translate(401 2566.68)" fill="#ffdd78"/>
      <circle id="Oval-5" data-name="Oval" cx="4.32" cy="4.32" r="4.32" transform="translate(414.68 2566.68)" fill="#ffdd78"/>
      <circle id="Oval-6" data-name="Oval" cx="4.32" cy="4.32" r="4.32" transform="translate(429.448 2566.68)" fill="#ffdd78"/>
    </g>
    <g id="Grupo_213609" data-name="Grupo 213609" transform="translate(105 251.07)">
      <path id="Path-8" data-name="Path" d="M0,8A8.111,8.111,0,0,1,8.216,0H181.784A8.111,8.111,0,0,1,190,8V29H0Z" transform="translate(390 2557)" fill="#78b5fa"/>
      <circle id="Oval-7" data-name="Oval" cx="4.32" cy="4.32" r="4.32" transform="translate(401 2566.68)" fill="#ffdd78"/>
      <circle id="Oval-8" data-name="Oval" cx="4.32" cy="4.32" r="4.32" transform="translate(414.68 2566.68)" fill="#ffdd78"/>
      <circle id="Oval-9" data-name="Oval" cx="4.32" cy="4.32" r="4.32" transform="translate(429.448 2566.68)" fill="#ffdd78"/>
    </g>
    <g id="Grupo_213614" data-name="Grupo 213614" transform="translate(525 251.07)">
      <path id="Path-9" data-name="Path" d="M0,8A8.111,8.111,0,0,1,8.216,0H181.784A8.111,8.111,0,0,1,190,8V29H0Z" transform="translate(390 2557)" fill="#ffa341"/>
      <circle id="Oval-10" data-name="Oval" cx="4.32" cy="4.32" r="4.32" transform="translate(401 2566.68)" fill="#557496"/>
      <circle id="Oval-11" data-name="Oval" cx="4.32" cy="4.32" r="4.32" transform="translate(414.68 2566.68)" fill="#557496"/>
      <circle id="Oval-12" data-name="Oval" cx="4.32" cy="4.32" r="4.32" transform="translate(429.448 2566.68)" fill="#557496"/>
    </g>
    <g id="Grupo_213618" data-name="Grupo 213618" transform="translate(525 460.07)">
      <path id="Path-10" data-name="Path" d="M0,8A8.111,8.111,0,0,1,8.216,0H181.784A8.111,8.111,0,0,1,190,8V29H0Z" transform="translate(390 2557)" fill="#78b5fa"/>
      <circle id="Oval-13" data-name="Oval" cx="4.32" cy="4.32" r="4.32" transform="translate(401 2566.68)" fill="#ffdd78"/>
      <circle id="Oval-14" data-name="Oval" cx="4.32" cy="4.32" r="4.32" transform="translate(414.68 2566.68)" fill="#ffdd78"/>
      <circle id="Oval-15" data-name="Oval" cx="4.32" cy="4.32" r="4.32" transform="translate(429.448 2566.68)" fill="#ffdd78"/>
    </g>
    <g id="Grupo_213606" data-name="Grupo 213606" transform="translate(105 -212)">
      <rect id="Rectangle" width="190" height="80" rx="40" transform="translate(390 2834)" fill="#78b5fa"/>
      <rect id="Rectangle-2" data-name="Rectangle" width="174" height="65" rx="32.5" transform="translate(398 2841)" fill="#eaf1ff"/>
    </g>
    <g id="Grupo_213611" data-name="Grupo 213611" transform="translate(105 183.07)">
      <rect id="Rectangle-3" data-name="Rectangle" width="190" height="80" rx="40" transform="translate(390 2834)" fill="#78b5fa"/>
      <rect id="Rectangle-4" data-name="Rectangle" width="174" height="65" rx="32.5" transform="translate(398 2841)" fill="#eaf1ff"/>
    </g>
    <path id="Trazado_217316" data-name="Trazado 217316" d="M18.98,6.2l3.287,9.281L25.537,6.2H29V19H26.354V15.5l.264-6.038L23.164,19H21.353L17.908,9.473l.264,6.029V19H15.535V6.2ZM35.513,19.176a4.668,4.668,0,0,1-3.406-1.283,4.561,4.561,0,0,1-1.314-3.419v-.246a5.745,5.745,0,0,1,.554-2.562,4.064,4.064,0,0,1,1.569-1.74,4.4,4.4,0,0,1,2.316-.611,3.947,3.947,0,0,1,3.072,1.23,5,5,0,0,1,1.121,3.489v1.037H33.368a2.36,2.36,0,0,0,.743,1.494,2.245,2.245,0,0,0,1.569.563,2.742,2.742,0,0,0,2.294-1.063l1.248,1.4a3.813,3.813,0,0,1-1.547,1.261A5.075,5.075,0,0,1,35.513,19.176Zm-.29-7.813A1.587,1.587,0,0,0,34,11.874a2.651,2.651,0,0,0-.6,1.466h3.533v-.2a1.891,1.891,0,0,0-.457-1.311A1.638,1.638,0,0,0,35.223,11.362ZM43.2,9.49l.079,1.1a3.32,3.32,0,0,1,2.733-1.274,2.759,2.759,0,0,1,2.25.888,4.142,4.142,0,0,1,.756,2.654V19h-2.54V12.918a1.648,1.648,0,0,0-.352-1.173,1.574,1.574,0,0,0-1.169-.365,1.747,1.747,0,0,0-1.608.914V19h-2.54V9.49ZM56.1,16.372a.818.818,0,0,0-.461-.734,5.241,5.241,0,0,0-1.481-.479q-3.393-.712-3.393-2.883a2.613,2.613,0,0,1,1.05-2.114,4.237,4.237,0,0,1,2.747-.848,4.56,4.56,0,0,1,2.9.853,2.687,2.687,0,0,1,1.085,2.215H56a1.229,1.229,0,0,0-.352-.9,1.488,1.488,0,0,0-1.1-.356,1.52,1.52,0,0,0-.993.29.916.916,0,0,0-.352.738.783.783,0,0,0,.4.681,4.114,4.114,0,0,0,1.349.448,11.019,11.019,0,0,1,1.6.426,2.628,2.628,0,0,1,2.013,2.558,2.481,2.481,0,0,1-1.116,2.1,4.815,4.815,0,0,1-2.883.8,5.029,5.029,0,0,1-2.123-.426,3.561,3.561,0,0,1-1.455-1.169,2.716,2.716,0,0,1-.527-1.6h2.408a1.326,1.326,0,0,0,.5,1.037,1.987,1.987,0,0,0,1.248.36,1.839,1.839,0,0,0,1.1-.277A.861.861,0,0,0,56.1,16.372ZM65.712,19a2.821,2.821,0,0,1-.255-.853,3.073,3.073,0,0,1-2.4,1.028,3.376,3.376,0,0,1-2.316-.809,2.6,2.6,0,0,1-.918-2.039,2.687,2.687,0,0,1,1.121-2.32,5.529,5.529,0,0,1,3.239-.817h1.169v-.545a1.567,1.567,0,0,0-.338-1.055,1.331,1.331,0,0,0-1.068-.4,1.513,1.513,0,0,0-1.006.308,1.045,1.045,0,0,0-.365.844h-2.54a2.551,2.551,0,0,1,.51-1.529,3.37,3.37,0,0,1,1.441-1.1,5.253,5.253,0,0,1,2.092-.4,4.15,4.15,0,0,1,2.791.883A3.09,3.09,0,0,1,67.9,12.681V16.8a4.546,4.546,0,0,0,.378,2.048V19Zm-2.1-1.767a2.188,2.188,0,0,0,1.037-.25,1.645,1.645,0,0,0,.7-.672V14.676H64.4q-1.907,0-2.03,1.318l-.009.149a1.017,1.017,0,0,0,.334.782A1.3,1.3,0,0,0,63.611,17.233Zm8.93-7.743V19.519a3.4,3.4,0,0,1-.835,2.448,3.174,3.174,0,0,1-2.408.875,5.165,5.165,0,0,1-1.257-.149V20.679a4.768,4.768,0,0,0,.8.079q1.151,0,1.151-1.222V9.49ZM69.79,7.029a1.251,1.251,0,0,1,.382-.94,1.654,1.654,0,0,1,2.083,0,1.251,1.251,0,0,1,.382.94,1.247,1.247,0,0,1-.391.949,1.629,1.629,0,0,1-2.065,0A1.247,1.247,0,0,1,69.79,7.029ZM78.9,19.176A4.668,4.668,0,0,1,75.5,17.893a4.561,4.561,0,0,1-1.314-3.419v-.246a5.745,5.745,0,0,1,.554-2.562,4.064,4.064,0,0,1,1.569-1.74,4.4,4.4,0,0,1,2.316-.611,3.947,3.947,0,0,1,3.072,1.23,5,5,0,0,1,1.121,3.489v1.037H76.76a2.36,2.36,0,0,0,.743,1.494,2.245,2.245,0,0,0,1.569.563,2.742,2.742,0,0,0,2.294-1.063l1.248,1.4a3.813,3.813,0,0,1-1.547,1.261A5.075,5.075,0,0,1,78.9,19.176Zm-.29-7.813a1.587,1.587,0,0,0-1.226.512,2.651,2.651,0,0,0-.6,1.466h3.533v-.2a1.891,1.891,0,0,0-.457-1.311A1.638,1.638,0,0,0,78.614,11.362Z" transform="translate(541 2465.43)" fill="#12263f"/>
    <path id="Trazado_217317" data-name="Trazado 217317" d="M18.98,6.2l3.287,9.281L25.537,6.2H29V19H26.354V15.5l.264-6.038L23.164,19H21.353L17.908,9.473l.264,6.029V19H15.535V6.2ZM35.513,19.176a4.668,4.668,0,0,1-3.406-1.283,4.561,4.561,0,0,1-1.314-3.419v-.246a5.745,5.745,0,0,1,.554-2.562,4.064,4.064,0,0,1,1.569-1.74,4.4,4.4,0,0,1,2.316-.611,3.947,3.947,0,0,1,3.072,1.23,5,5,0,0,1,1.121,3.489v1.037H33.368a2.36,2.36,0,0,0,.743,1.494,2.245,2.245,0,0,0,1.569.563,2.742,2.742,0,0,0,2.294-1.063l1.248,1.4a3.813,3.813,0,0,1-1.547,1.261A5.075,5.075,0,0,1,35.513,19.176Zm-.29-7.813A1.587,1.587,0,0,0,34,11.874a2.651,2.651,0,0,0-.6,1.466h3.533v-.2a1.891,1.891,0,0,0-.457-1.311A1.638,1.638,0,0,0,35.223,11.362ZM43.2,9.49l.079,1.1a3.32,3.32,0,0,1,2.733-1.274,2.759,2.759,0,0,1,2.25.888,4.142,4.142,0,0,1,.756,2.654V19h-2.54V12.918a1.648,1.648,0,0,0-.352-1.173,1.574,1.574,0,0,0-1.169-.365,1.747,1.747,0,0,0-1.608.914V19h-2.54V9.49ZM56.1,16.372a.818.818,0,0,0-.461-.734,5.241,5.241,0,0,0-1.481-.479q-3.393-.712-3.393-2.883a2.613,2.613,0,0,1,1.05-2.114,4.237,4.237,0,0,1,2.747-.848,4.56,4.56,0,0,1,2.9.853,2.687,2.687,0,0,1,1.085,2.215H56a1.229,1.229,0,0,0-.352-.9,1.488,1.488,0,0,0-1.1-.356,1.52,1.52,0,0,0-.993.29.916.916,0,0,0-.352.738.783.783,0,0,0,.4.681,4.114,4.114,0,0,0,1.349.448,11.019,11.019,0,0,1,1.6.426,2.628,2.628,0,0,1,2.013,2.558,2.481,2.481,0,0,1-1.116,2.1,4.815,4.815,0,0,1-2.883.8,5.029,5.029,0,0,1-2.123-.426,3.561,3.561,0,0,1-1.455-1.169,2.716,2.716,0,0,1-.527-1.6h2.408a1.326,1.326,0,0,0,.5,1.037,1.987,1.987,0,0,0,1.248.36,1.839,1.839,0,0,0,1.1-.277A.861.861,0,0,0,56.1,16.372ZM65.712,19a2.821,2.821,0,0,1-.255-.853,3.073,3.073,0,0,1-2.4,1.028,3.376,3.376,0,0,1-2.316-.809,2.6,2.6,0,0,1-.918-2.039,2.687,2.687,0,0,1,1.121-2.32,5.529,5.529,0,0,1,3.239-.817h1.169v-.545a1.567,1.567,0,0,0-.338-1.055,1.331,1.331,0,0,0-1.068-.4,1.513,1.513,0,0,0-1.006.308,1.045,1.045,0,0,0-.365.844h-2.54a2.551,2.551,0,0,1,.51-1.529,3.37,3.37,0,0,1,1.441-1.1,5.253,5.253,0,0,1,2.092-.4,4.15,4.15,0,0,1,2.791.883A3.09,3.09,0,0,1,67.9,12.681V16.8a4.546,4.546,0,0,0,.378,2.048V19Zm-2.1-1.767a2.188,2.188,0,0,0,1.037-.25,1.645,1.645,0,0,0,.7-.672V14.676H64.4q-1.907,0-2.03,1.318l-.009.149a1.017,1.017,0,0,0,.334.782A1.3,1.3,0,0,0,63.611,17.233Zm8.93-7.743V19.519a3.4,3.4,0,0,1-.835,2.448,3.174,3.174,0,0,1-2.408.875,5.165,5.165,0,0,1-1.257-.149V20.679a4.768,4.768,0,0,0,.8.079q1.151,0,1.151-1.222V9.49ZM69.79,7.029a1.251,1.251,0,0,1,.382-.94,1.654,1.654,0,0,1,2.083,0,1.251,1.251,0,0,1,.382.94,1.247,1.247,0,0,1-.391.949,1.629,1.629,0,0,1-2.065,0A1.247,1.247,0,0,1,69.79,7.029ZM78.9,19.176A4.668,4.668,0,0,1,75.5,17.893a4.561,4.561,0,0,1-1.314-3.419v-.246a5.745,5.745,0,0,1,.554-2.562,4.064,4.064,0,0,1,1.569-1.74,4.4,4.4,0,0,1,2.316-.611,3.947,3.947,0,0,1,3.072,1.23,5,5,0,0,1,1.121,3.489v1.037H76.76a2.36,2.36,0,0,0,.743,1.494,2.245,2.245,0,0,0,1.569.563,2.742,2.742,0,0,0,2.294-1.063l1.248,1.4a3.813,3.813,0,0,1-1.547,1.261A5.075,5.075,0,0,1,78.9,19.176Zm-.29-7.813a1.587,1.587,0,0,0-1.226.512,2.651,2.651,0,0,0-.6,1.466h3.533v-.2a1.891,1.891,0,0,0-.457-1.311A1.638,1.638,0,0,0,78.614,11.362Z" transform="translate(961 2465.43)" fill="#12263f"/>
    <path id="Trazado_217320" data-name="Trazado 217320" d="M20.836,14.737a4.528,4.528,0,0,1-1.525,3.252,5.355,5.355,0,0,1-3.625,1.187,4.816,4.816,0,0,1-3.872-1.657A6.793,6.793,0,0,1,10.4,12.971v-.782a7.671,7.671,0,0,1,.65-3.252,4.874,4.874,0,0,1,1.859-2.158,5.207,5.207,0,0,1,2.808-.751,5.217,5.217,0,0,1,3.568,1.187,4.866,4.866,0,0,1,1.564,3.331H18.217a2.673,2.673,0,0,0-.69-1.8,2.555,2.555,0,0,0-1.806-.558,2.24,2.24,0,0,0-1.973.945,5.3,5.3,0,0,0-.672,2.931v.967a5.667,5.667,0,0,0,.628,3.032,2.2,2.2,0,0,0,1.982.958,2.6,2.6,0,0,0,1.824-.558,2.521,2.521,0,0,0,.69-1.727Zm6.908-2.865a6.9,6.9,0,0,0-.914-.07,1.86,1.86,0,0,0-1.89.976V19H22.4V9.49h2.4l.07,1.134a2.354,2.354,0,0,1,2.118-1.31,2.662,2.662,0,0,1,.791.114ZM31.646,19H29.1V9.49h2.549Zm-2.7-11.971a1.251,1.251,0,0,1,.382-.94,1.648,1.648,0,0,1,2.079,0,1.244,1.244,0,0,1,.387.94,1.247,1.247,0,0,1-.391.949,1.629,1.629,0,0,1-2.065,0A1.247,1.247,0,0,1,28.948,7.029Zm13.351,7.3a5.7,5.7,0,0,1-1,3.52,3.2,3.2,0,0,1-2.694,1.323,2.963,2.963,0,0,1-2.329-1v4.482h-2.54V9.49h2.355l.088.932A2.985,2.985,0,0,1,38.59,9.314a3.22,3.22,0,0,1,2.733,1.3A5.858,5.858,0,0,1,42.3,14.2Zm-2.54-.185a3.743,3.743,0,0,0-.47-2.048,1.532,1.532,0,0,0-1.367-.721,1.663,1.663,0,0,0-1.644.914v3.894a1.692,1.692,0,0,0,1.661.94Q39.759,17.128,39.759,14.148Zm7.154-7V9.49h1.626v1.863H46.913V16.1a1.133,1.133,0,0,0,.2.756,1.015,1.015,0,0,0,.773.229,4.051,4.051,0,0,0,.747-.062v1.925a5.229,5.229,0,0,1-1.538.229,2.425,2.425,0,0,1-2.725-2.7V11.354H42.984V9.49h1.389V7.152Zm2.382,7a5.64,5.64,0,0,1,.545-2.522,3.989,3.989,0,0,1,1.569-1.714,4.577,4.577,0,0,1,2.377-.606,4.33,4.33,0,0,1,3.142,1.178,4.727,4.727,0,0,1,1.358,3.2l.018.65a4.97,4.97,0,0,1-1.222,3.511,4.735,4.735,0,0,1-6.561,0,5.058,5.058,0,0,1-1.226-3.586Zm2.54.18a3.555,3.555,0,0,0,.51,2.073,1.831,1.831,0,0,0,2.9.009,3.89,3.89,0,0,0,.519-2.267,3.519,3.519,0,0,0-.519-2.06,1.686,1.686,0,0,0-1.459-.731,1.658,1.658,0,0,0-1.441.726A3.955,3.955,0,0,0,51.835,14.338Zm7.664-.163a5.573,5.573,0,0,1,1.042-3.524,3.375,3.375,0,0,1,2.808-1.336,2.96,2.96,0,0,1,2.435,1.072l.105-.9h2.3v9.193a4.064,4.064,0,0,1-.567,2.171,3.641,3.641,0,0,1-1.6,1.406,5.608,5.608,0,0,1-2.408.483,5.215,5.215,0,0,1-2.039-.417,3.619,3.619,0,0,1-1.5-1.077L61.2,19.7a2.975,2.975,0,0,0,2.3,1.063,2.178,2.178,0,0,0,1.573-.541,2.027,2.027,0,0,0,.563-1.534v-.51a2.938,2.938,0,0,1-2.312.993,3.366,3.366,0,0,1-2.773-1.34A5.572,5.572,0,0,1,59.5,14.28Zm2.54.189a3.47,3.47,0,0,0,.519,2.029,1.65,1.65,0,0,0,1.424.735,1.764,1.764,0,0,0,1.661-.871V12.251A1.76,1.76,0,0,0,64,11.38a1.66,1.66,0,0,0-1.437.748A3.911,3.911,0,0,0,62.039,14.364Zm13.447-2.492a6.9,6.9,0,0,0-.914-.07,1.86,1.86,0,0,0-1.89.976V19h-2.54V9.49h2.4l.07,1.134a2.354,2.354,0,0,1,2.118-1.31,2.662,2.662,0,0,1,.791.114ZM81.955,19a2.821,2.821,0,0,1-.255-.853,3.073,3.073,0,0,1-2.4,1.028,3.376,3.376,0,0,1-2.316-.809,2.6,2.6,0,0,1-.918-2.039,2.687,2.687,0,0,1,1.121-2.32,5.529,5.529,0,0,1,3.239-.817h1.169v-.545a1.567,1.567,0,0,0-.338-1.055,1.331,1.331,0,0,0-1.068-.4,1.513,1.513,0,0,0-1.006.308,1.045,1.045,0,0,0-.365.844h-2.54a2.551,2.551,0,0,1,.51-1.529,3.37,3.37,0,0,1,1.441-1.1,5.253,5.253,0,0,1,2.092-.4,4.15,4.15,0,0,1,2.791.883,3.09,3.09,0,0,1,1.033,2.483V16.8a4.546,4.546,0,0,0,.378,2.048V19Zm-2.1-1.767a2.188,2.188,0,0,0,1.037-.25,1.645,1.645,0,0,0,.7-.672V14.676h-.949q-1.907,0-2.03,1.318l-.009.149a1.017,1.017,0,0,0,.334.782A1.3,1.3,0,0,0,79.854,17.233ZM88.477,9.49l.079,1.063a3.342,3.342,0,0,1,2.733-1.239,2.536,2.536,0,0,1,2.522,1.45,3.265,3.265,0,0,1,2.856-1.45,2.836,2.836,0,0,1,2.3.9,4.141,4.141,0,0,1,.756,2.711V19H97.178V12.936a1.811,1.811,0,0,0-.316-1.182,1.4,1.4,0,0,0-1.116-.374,1.585,1.585,0,0,0-1.582,1.09L94.172,19h-2.54V12.944a1.789,1.789,0,0,0-.325-1.2A1.416,1.416,0,0,0,90.2,11.38a1.646,1.646,0,0,0-1.564.9V19h-2.54V9.49ZM107.188,19a2.821,2.821,0,0,1-.255-.853,3.073,3.073,0,0,1-2.4,1.028,3.376,3.376,0,0,1-2.316-.809,2.6,2.6,0,0,1-.918-2.039,2.687,2.687,0,0,1,1.121-2.32,5.529,5.529,0,0,1,3.239-.817h1.169v-.545a1.567,1.567,0,0,0-.338-1.055,1.331,1.331,0,0,0-1.068-.4,1.513,1.513,0,0,0-1.006.308,1.045,1.045,0,0,0-.365.844h-2.54a2.551,2.551,0,0,1,.51-1.529,3.37,3.37,0,0,1,1.441-1.1,5.253,5.253,0,0,1,2.092-.4,4.15,4.15,0,0,1,2.791.883,3.09,3.09,0,0,1,1.033,2.483V16.8a4.546,4.546,0,0,0,.378,2.048V19Zm-2.1-1.767a2.188,2.188,0,0,0,1.037-.25,1.645,1.645,0,0,0,.7-.672V14.676h-.949q-1.907,0-2.03,1.318l-.009.149a1.017,1.017,0,0,0,.334.782A1.3,1.3,0,0,0,105.088,17.233Z" transform="translate(530 2860.5)" fill="#12263f"/>
    <path id="Trazado_217318" data-name="Trazado 217318" d="M2.44,19V6.2H6.378a5.98,5.98,0,0,1,3.019.76,5.3,5.3,0,0,1,2.079,2.162,6.669,6.669,0,0,1,.747,3.186V12.9a6.688,6.688,0,0,1-.734,3.173,5.256,5.256,0,0,1-2.07,2.153A6.025,6.025,0,0,1,6.4,19ZM5.077,8.339v8.543H6.352a2.863,2.863,0,0,0,2.364-1.011,4.567,4.567,0,0,0,.835-2.892V12.3a4.64,4.64,0,0,0-.809-2.958A2.854,2.854,0,0,0,6.378,8.339ZM18.349,19.176a4.668,4.668,0,0,1-3.406-1.283,4.561,4.561,0,0,1-1.314-3.419v-.246a5.745,5.745,0,0,1,.554-2.562,4.064,4.064,0,0,1,1.569-1.74,4.4,4.4,0,0,1,2.316-.611,3.947,3.947,0,0,1,3.072,1.23,5,5,0,0,1,1.121,3.489v1.037H16.2a2.36,2.36,0,0,0,.743,1.494,2.245,2.245,0,0,0,1.569.563,2.742,2.742,0,0,0,2.294-1.063l1.248,1.4a3.813,3.813,0,0,1-1.547,1.261A5.075,5.075,0,0,1,18.349,19.176Zm-.29-7.813a1.587,1.587,0,0,0-1.226.512,2.651,2.651,0,0,0-.6,1.466h3.533v-.2a1.891,1.891,0,0,0-.457-1.311A1.638,1.638,0,0,0,18.059,11.362Zm10.793,5.01a.818.818,0,0,0-.461-.734,5.241,5.241,0,0,0-1.481-.479q-3.393-.712-3.393-2.883a2.613,2.613,0,0,1,1.05-2.114,4.237,4.237,0,0,1,2.747-.848,4.56,4.56,0,0,1,2.9.853,2.687,2.687,0,0,1,1.085,2.215h-2.54a1.229,1.229,0,0,0-.352-.9,1.488,1.488,0,0,0-1.1-.356,1.52,1.52,0,0,0-.993.29.916.916,0,0,0-.352.738.783.783,0,0,0,.4.681,4.114,4.114,0,0,0,1.349.448,11.019,11.019,0,0,1,1.6.426,2.628,2.628,0,0,1,2.013,2.558,2.481,2.481,0,0,1-1.116,2.1,4.815,4.815,0,0,1-2.883.8A5.029,5.029,0,0,1,25.2,18.75a3.561,3.561,0,0,1-1.455-1.169,2.716,2.716,0,0,1-.527-1.6h2.408a1.326,1.326,0,0,0,.5,1.037,1.987,1.987,0,0,0,1.248.36,1.839,1.839,0,0,0,1.1-.277A.861.861,0,0,0,28.852,16.372Zm8.481,2.8a4.668,4.668,0,0,1-3.406-1.283,4.561,4.561,0,0,1-1.314-3.419v-.246a5.745,5.745,0,0,1,.554-2.562,4.064,4.064,0,0,1,1.569-1.74,4.4,4.4,0,0,1,2.316-.611,3.947,3.947,0,0,1,3.072,1.23,5,5,0,0,1,1.121,3.489v1.037H35.188a2.36,2.36,0,0,0,.743,1.494,2.245,2.245,0,0,0,1.569.563,2.742,2.742,0,0,0,2.294-1.063l1.248,1.4A3.813,3.813,0,0,1,39.5,18.723,5.075,5.075,0,0,1,37.333,19.176Zm-.29-7.813a1.587,1.587,0,0,0-1.226.512,2.651,2.651,0,0,0-.6,1.466h3.533v-.2a1.891,1.891,0,0,0-.457-1.311A1.638,1.638,0,0,0,37.043,11.362Zm7.98-1.872.079,1.1a3.32,3.32,0,0,1,2.733-1.274,2.759,2.759,0,0,1,2.25.888,4.142,4.142,0,0,1,.756,2.654V19H48.3V12.918a1.648,1.648,0,0,0-.352-1.173,1.574,1.574,0,0,0-1.169-.365,1.747,1.747,0,0,0-1.608.914V19h-2.54V9.49Zm11.7,7.638a1.666,1.666,0,0,0,1.143-.387,1.355,1.355,0,0,0,.457-1.028H60.7a3.258,3.258,0,0,1-.527,1.771,3.48,3.48,0,0,1-1.419,1.248,4.442,4.442,0,0,1-1.991.444,4.129,4.129,0,0,1-3.217-1.3A5.13,5.13,0,0,1,52.371,14.3v-.167a5.071,5.071,0,0,1,1.169-3.507,4.08,4.08,0,0,1,3.208-1.31,4,4,0,0,1,2.861,1.015,3.594,3.594,0,0,1,1.094,2.7H58.321a1.745,1.745,0,0,0-.457-1.206,1.7,1.7,0,0,0-2.5.183,3.749,3.749,0,0,0-.453,2.1v.264a3.8,3.8,0,0,0,.448,2.113A1.549,1.549,0,0,0,56.722,17.128ZM67.5,11.872a6.9,6.9,0,0,0-.914-.07,1.86,1.86,0,0,0-1.89.976V19h-2.54V9.49h2.4l.07,1.134a2.354,2.354,0,0,1,2.118-1.31,2.662,2.662,0,0,1,.791.114ZM71.4,19H68.851V9.49H71.4ZM68.7,7.029a1.251,1.251,0,0,1,.382-.94,1.648,1.648,0,0,1,2.079,0,1.244,1.244,0,0,1,.387.94,1.247,1.247,0,0,1-.391.949,1.629,1.629,0,0,1-2.065,0A1.247,1.247,0,0,1,68.7,7.029Zm13.351,7.3a5.7,5.7,0,0,1-1,3.52,3.2,3.2,0,0,1-2.694,1.323,2.963,2.963,0,0,1-2.329-1v4.482h-2.54V9.49h2.355l.088.932a2.985,2.985,0,0,1,2.408-1.107,3.22,3.22,0,0,1,2.733,1.3,5.858,5.858,0,0,1,.976,3.586Zm-2.54-.185a3.743,3.743,0,0,0-.47-2.048,1.532,1.532,0,0,0-1.367-.721,1.663,1.663,0,0,0-1.644.914v3.894a1.692,1.692,0,0,0,1.661.94Q79.512,17.128,79.512,14.148Zm7.154-7V9.49h1.626v1.863H86.666V16.1a1.133,1.133,0,0,0,.2.756,1.015,1.015,0,0,0,.773.229,4.051,4.051,0,0,0,.747-.062v1.925a5.229,5.229,0,0,1-1.538.229,2.425,2.425,0,0,1-2.725-2.7V11.354H82.737V9.49h1.389V7.152ZM95.218,19a2.821,2.821,0,0,1-.255-.853,3.073,3.073,0,0,1-2.4,1.028,3.376,3.376,0,0,1-2.316-.809,2.6,2.6,0,0,1-.918-2.039,2.687,2.687,0,0,1,1.121-2.32,5.529,5.529,0,0,1,3.239-.817h1.169v-.545a1.567,1.567,0,0,0-.338-1.055,1.331,1.331,0,0,0-1.068-.4,1.513,1.513,0,0,0-1.006.308,1.045,1.045,0,0,0-.365.844H89.54a2.551,2.551,0,0,1,.51-1.529,3.37,3.37,0,0,1,1.441-1.1,5.253,5.253,0,0,1,2.092-.4,4.15,4.15,0,0,1,2.791.883,3.09,3.09,0,0,1,1.033,2.483V16.8a4.546,4.546,0,0,0,.378,2.048V19Zm-2.1-1.767a2.188,2.188,0,0,0,1.037-.25,1.645,1.645,0,0,0,.7-.672V14.676h-.949q-1.907,0-2.03,1.318l-.009.149a1.017,1.017,0,0,0,.334.782A1.3,1.3,0,0,0,93.117,17.233Zm5.845-3.059a5.731,5.731,0,0,1,1-3.542,3.237,3.237,0,0,1,2.729-1.318,2.913,2.913,0,0,1,2.294,1.037V5.5h2.549V19h-2.294l-.123-1.011a2.989,2.989,0,0,1-2.443,1.187,3.228,3.228,0,0,1-2.694-1.323A5.916,5.916,0,0,1,98.962,14.175Zm2.54.189a3.754,3.754,0,0,0,.466,2.051,1.517,1.517,0,0,0,1.354.713,1.7,1.7,0,0,0,1.661-.995V12.375a1.675,1.675,0,0,0-1.644-.995Q101.5,11.38,101.5,14.364Zm7.6-.207a5.64,5.64,0,0,1,.545-2.522,3.989,3.989,0,0,1,1.569-1.714,4.577,4.577,0,0,1,2.377-.606,4.33,4.33,0,0,1,3.142,1.178,4.727,4.727,0,0,1,1.358,3.2l.018.65a4.97,4.97,0,0,1-1.222,3.511,4.735,4.735,0,0,1-6.561,0,5.058,5.058,0,0,1-1.226-3.586Zm2.54.18a3.555,3.555,0,0,0,.51,2.073,1.831,1.831,0,0,0,2.9.009,3.89,3.89,0,0,0,.519-2.267,3.519,3.519,0,0,0-.519-2.06,1.686,1.686,0,0,0-1.459-.731,1.658,1.658,0,0,0-1.441.726A3.955,3.955,0,0,0,111.645,14.338Z" transform="translate(950 2860.5)" fill="#12263f"/>
    <path id="Trazado_217323" data-name="Trazado 217323" d="M30.144,6.2l3.287,9.281L36.7,6.2h3.463V19H37.518V15.5l.264-6.038L34.327,19H32.517L29.071,9.473l.264,6.029V19H26.7V6.2ZM46.676,19.176a4.668,4.668,0,0,1-3.406-1.283,4.561,4.561,0,0,1-1.314-3.419v-.246a5.745,5.745,0,0,1,.554-2.562,4.064,4.064,0,0,1,1.569-1.74,4.4,4.4,0,0,1,2.316-.611,3.947,3.947,0,0,1,3.072,1.23,5,5,0,0,1,1.121,3.489v1.037H44.531a2.36,2.36,0,0,0,.743,1.494,2.245,2.245,0,0,0,1.569.563,2.742,2.742,0,0,0,2.294-1.063l1.248,1.4a3.813,3.813,0,0,1-1.547,1.261A5.075,5.075,0,0,1,46.676,19.176Zm-.29-7.813a1.587,1.587,0,0,0-1.226.512,2.651,2.651,0,0,0-.6,1.466h3.533v-.2a1.891,1.891,0,0,0-.457-1.311A1.638,1.638,0,0,0,46.386,11.362Zm7.98-1.872.079,1.1a3.32,3.32,0,0,1,2.733-1.274,2.759,2.759,0,0,1,2.25.888,4.142,4.142,0,0,1,.756,2.654V19h-2.54V12.918a1.648,1.648,0,0,0-.352-1.173,1.574,1.574,0,0,0-1.169-.365,1.747,1.747,0,0,0-1.608.914V19h-2.54V9.49ZM67.26,16.372a.818.818,0,0,0-.461-.734,5.241,5.241,0,0,0-1.481-.479q-3.393-.712-3.393-2.883a2.613,2.613,0,0,1,1.05-2.114,4.237,4.237,0,0,1,2.747-.848,4.56,4.56,0,0,1,2.9.853A2.687,2.687,0,0,1,69.7,12.382h-2.54a1.229,1.229,0,0,0-.352-.9,1.488,1.488,0,0,0-1.1-.356,1.52,1.52,0,0,0-.993.29.916.916,0,0,0-.352.738.783.783,0,0,0,.4.681,4.114,4.114,0,0,0,1.349.448,11.019,11.019,0,0,1,1.6.426,2.628,2.628,0,0,1,2.013,2.558,2.481,2.481,0,0,1-1.116,2.1,4.815,4.815,0,0,1-2.883.8,5.029,5.029,0,0,1-2.123-.426,3.561,3.561,0,0,1-1.455-1.169,2.716,2.716,0,0,1-.527-1.6h2.408a1.326,1.326,0,0,0,.5,1.037,1.987,1.987,0,0,0,1.248.36,1.839,1.839,0,0,0,1.1-.277A.861.861,0,0,0,67.26,16.372ZM76.875,19a2.821,2.821,0,0,1-.255-.853,3.073,3.073,0,0,1-2.4,1.028,3.376,3.376,0,0,1-2.316-.809,2.6,2.6,0,0,1-.918-2.039,2.687,2.687,0,0,1,1.121-2.32,5.529,5.529,0,0,1,3.239-.817h1.169v-.545a1.567,1.567,0,0,0-.338-1.055,1.331,1.331,0,0,0-1.068-.4A1.513,1.513,0,0,0,74.1,11.5a1.045,1.045,0,0,0-.365.844H71.2a2.551,2.551,0,0,1,.51-1.529,3.37,3.37,0,0,1,1.441-1.1,5.253,5.253,0,0,1,2.092-.4,4.15,4.15,0,0,1,2.791.883,3.09,3.09,0,0,1,1.033,2.483V16.8a4.546,4.546,0,0,0,.378,2.048V19Zm-2.1-1.767a2.188,2.188,0,0,0,1.037-.25,1.645,1.645,0,0,0,.7-.672V14.676h-.949q-1.907,0-2.03,1.318l-.009.149a1.017,1.017,0,0,0,.334.782A1.3,1.3,0,0,0,74.774,17.233ZM83.7,9.49V19.519a3.4,3.4,0,0,1-.835,2.448,3.174,3.174,0,0,1-2.408.875,5.165,5.165,0,0,1-1.257-.149V20.679a4.768,4.768,0,0,0,.8.079q1.151,0,1.151-1.222V9.49ZM80.953,7.029a1.251,1.251,0,0,1,.382-.94,1.654,1.654,0,0,1,2.083,0,1.251,1.251,0,0,1,.382.94,1.247,1.247,0,0,1-.391.949,1.629,1.629,0,0,1-2.065,0A1.247,1.247,0,0,1,80.953,7.029Zm9.114,12.146a4.668,4.668,0,0,1-3.406-1.283,4.561,4.561,0,0,1-1.314-3.419v-.246a5.745,5.745,0,0,1,.554-2.562,4.064,4.064,0,0,1,1.569-1.74,4.4,4.4,0,0,1,2.316-.611,3.947,3.947,0,0,1,3.072,1.23,5,5,0,0,1,1.121,3.489v1.037H87.923a2.36,2.36,0,0,0,.743,1.494,2.245,2.245,0,0,0,1.569.563,2.742,2.742,0,0,0,2.294-1.063l1.248,1.4a3.813,3.813,0,0,1-1.547,1.261A5.075,5.075,0,0,1,90.067,19.176Zm-.29-7.813a1.587,1.587,0,0,0-1.226.512,2.651,2.651,0,0,0-.6,1.466h3.533v-.2a1.891,1.891,0,0,0-.457-1.311A1.638,1.638,0,0,0,89.777,11.362Z" transform="translate(950 3069.5)" fill="#12263f"/>
    <path id="Trazado_217321" data-name="Trazado 217321" d="M12.468,14.737a4.528,4.528,0,0,1-1.525,3.252,5.355,5.355,0,0,1-3.625,1.187,4.816,4.816,0,0,1-3.872-1.657,6.793,6.793,0,0,1-1.411-4.548v-.782a7.671,7.671,0,0,1,.65-3.252A4.874,4.874,0,0,1,4.544,6.779a5.207,5.207,0,0,1,2.808-.751,5.217,5.217,0,0,1,3.568,1.187,4.866,4.866,0,0,1,1.564,3.331H9.849a2.673,2.673,0,0,0-.69-1.8,2.555,2.555,0,0,0-1.806-.558,2.24,2.24,0,0,0-1.973.945,5.3,5.3,0,0,0-.672,2.931v.967a5.667,5.667,0,0,0,.628,3.032,2.2,2.2,0,0,0,1.982.958,2.6,2.6,0,0,0,1.824-.558,2.521,2.521,0,0,0,.69-1.727ZM16.713,19H14.164V9.49h2.549Zm-2.7-11.971a1.251,1.251,0,0,1,.382-.94,1.648,1.648,0,0,1,2.079,0,1.244,1.244,0,0,1,.387.94,1.247,1.247,0,0,1-.391.949,1.629,1.629,0,0,1-2.065,0A1.247,1.247,0,0,1,14.015,7.029ZM19.5,19V11.354H18.084V9.49H19.5V8.682A3.283,3.283,0,0,1,20.417,6.2a3.557,3.557,0,0,1,2.571-.883,5.938,5.938,0,0,1,1.292.176L24.254,7.46a3.238,3.238,0,0,0-.773-.079q-1.433,0-1.433,1.345V9.49h1.89v1.863h-1.89V19Zm11.1-7.128a6.9,6.9,0,0,0-.914-.07,1.86,1.86,0,0,0-1.89.976V19h-2.54V9.49h2.4l.07,1.134a2.354,2.354,0,0,1,2.118-1.31,2.662,2.662,0,0,1,.791.114ZM37.068,19a2.821,2.821,0,0,1-.255-.853,3.073,3.073,0,0,1-2.4,1.028,3.376,3.376,0,0,1-2.316-.809,2.6,2.6,0,0,1-.918-2.039,2.687,2.687,0,0,1,1.121-2.32,5.529,5.529,0,0,1,3.239-.817h1.169v-.545a1.567,1.567,0,0,0-.338-1.055,1.331,1.331,0,0,0-1.068-.4A1.513,1.513,0,0,0,34.3,11.5a1.045,1.045,0,0,0-.365.844h-2.54a2.551,2.551,0,0,1,.51-1.529,3.37,3.37,0,0,1,1.441-1.1,5.253,5.253,0,0,1,2.092-.4,4.15,4.15,0,0,1,2.791.883,3.09,3.09,0,0,1,1.033,2.483V16.8a4.546,4.546,0,0,0,.378,2.048V19Zm-2.1-1.767A2.188,2.188,0,0,0,36,16.983a1.645,1.645,0,0,0,.7-.672V14.676h-.949q-1.907,0-2.03,1.318l-.009.149a1.017,1.017,0,0,0,.334.782A1.3,1.3,0,0,0,34.968,17.233ZM43.59,9.49l.079,1.063A3.342,3.342,0,0,1,46.4,9.314a2.536,2.536,0,0,1,2.522,1.45,3.265,3.265,0,0,1,2.856-1.45,2.836,2.836,0,0,1,2.3.9,4.141,4.141,0,0,1,.756,2.711V19H52.291V12.936a1.811,1.811,0,0,0-.316-1.182,1.4,1.4,0,0,0-1.116-.374,1.585,1.585,0,0,0-1.582,1.09L49.285,19h-2.54V12.944a1.789,1.789,0,0,0-.325-1.2,1.416,1.416,0,0,0-1.107-.369,1.646,1.646,0,0,0-1.564.9V19h-2.54V9.49ZM59.472,19H56.923V9.49h2.549Zm-2.7-11.971a1.251,1.251,0,0,1,.382-.94,1.648,1.648,0,0,1,2.079,0,1.244,1.244,0,0,1,.387.94,1.247,1.247,0,0,1-.391.949,1.629,1.629,0,0,1-2.065,0A1.247,1.247,0,0,1,56.773,7.029ZM65.94,19.176a4.668,4.668,0,0,1-3.406-1.283,4.561,4.561,0,0,1-1.314-3.419v-.246a5.745,5.745,0,0,1,.554-2.562,4.064,4.064,0,0,1,1.569-1.74,4.4,4.4,0,0,1,2.316-.611,3.947,3.947,0,0,1,3.072,1.23,5,5,0,0,1,1.121,3.489v1.037H63.8a2.36,2.36,0,0,0,.743,1.494,2.245,2.245,0,0,0,1.569.563A2.742,2.742,0,0,0,68.4,16.064l1.248,1.4A3.813,3.813,0,0,1,68.1,18.723,5.075,5.075,0,0,1,65.94,19.176Zm-.29-7.813a1.587,1.587,0,0,0-1.226.512,2.651,2.651,0,0,0-.6,1.466h3.533v-.2a1.891,1.891,0,0,0-.457-1.311A1.638,1.638,0,0,0,65.65,11.362Zm7.98-1.872.079,1.1a3.32,3.32,0,0,1,2.733-1.274,2.759,2.759,0,0,1,2.25.888,4.142,4.142,0,0,1,.756,2.654V19h-2.54V12.918a1.648,1.648,0,0,0-.352-1.173,1.574,1.574,0,0,0-1.169-.365,1.747,1.747,0,0,0-1.608.914V19H71.24V9.49ZM84.415,7.152V9.49h1.626v1.863H84.415V16.1a1.133,1.133,0,0,0,.2.756,1.015,1.015,0,0,0,.773.229,4.051,4.051,0,0,0,.747-.062v1.925a5.229,5.229,0,0,1-1.538.229,2.425,2.425,0,0,1-2.725-2.7V11.354H80.486V9.49h1.389V7.152Zm2.382,7a5.64,5.64,0,0,1,.545-2.522,3.989,3.989,0,0,1,1.569-1.714,4.577,4.577,0,0,1,2.377-.606,4.33,4.33,0,0,1,3.142,1.178,4.727,4.727,0,0,1,1.358,3.2l.018.65a4.97,4.97,0,0,1-1.222,3.511,4.735,4.735,0,0,1-6.561,0A5.058,5.058,0,0,1,86.8,14.271Zm2.54.18a3.555,3.555,0,0,0,.51,2.073,1.831,1.831,0,0,0,2.9.009,3.89,3.89,0,0,0,.519-2.267,3.519,3.519,0,0,0-.519-2.06,1.686,1.686,0,0,0-1.459-.731,1.658,1.658,0,0,0-1.441.726A3.955,3.955,0,0,0,89.337,14.338Z" transform="translate(541 2651.5)" fill="#12263f"/>
    <path id="Trazado_217319" data-name="Trazado 217319" d="M40.5,6.2l2.241,10.424L48.614,6.2h2.171L48.561,19H46.917l.879-5.062,1.046-5.15L43.042,19H41.776L39.491,8.585,38.7,14.1,37.847,19H36.195L38.418,6.2ZM55.39,19.176a3.429,3.429,0,0,1-2.777-1.31,4.507,4.507,0,0,1-.844-3.261l.044-.378a6.327,6.327,0,0,1,.839-2.584,4.882,4.882,0,0,1,1.683-1.762,3.927,3.927,0,0,1,2.145-.567,3.024,3.024,0,0,1,2.3.976,4.012,4.012,0,0,1,.914,2.549,7.448,7.448,0,0,1-.035,1.143l-.1.729H53.351a3.212,3.212,0,0,0,.426,2.2,2.019,2.019,0,0,0,1.745.94,3.383,3.383,0,0,0,2.6-1.266l.914.773A4.183,4.183,0,0,1,57.5,18.706,4.371,4.371,0,0,1,55.39,19.176ZM56.4,10.642a2.324,2.324,0,0,0-1.718.668,4.748,4.748,0,0,0-1.165,2.065l4.623.009.035-.141A2.6,2.6,0,0,0,57.82,11.4,1.674,1.674,0,0,0,56.4,10.642Zm7.365-1.16-.229,1.2a3.749,3.749,0,0,1,2.918-1.371,2.359,2.359,0,0,1,1.986.932,3.619,3.619,0,0,1,.475,2.522L67.879,19H66.289l1.046-6.251a3.332,3.332,0,0,0,.009-.8,1.314,1.314,0,0,0-1.45-1.255,2.994,2.994,0,0,0-2.514,1.528L62.2,19H60.611l1.652-9.51ZM76.22,16.425q.132-.984-1.081-1.389l-1.652-.483q-2.092-.721-2.021-2.391A2.634,2.634,0,0,1,72.612,10.1a4.085,4.085,0,0,1,2.553-.787,3.406,3.406,0,0,1,2.342.839,2.659,2.659,0,0,1,.866,2.14l-1.582-.009a1.484,1.484,0,0,0-.448-1.16,1.774,1.774,0,0,0-1.239-.466,2.316,2.316,0,0,0-1.424.4,1.48,1.48,0,0,0-.642,1.037q-.114.826,1.011,1.2l.8.22a5.15,5.15,0,0,1,2.32,1.1A2.1,2.1,0,0,1,77.8,16.3a2.666,2.666,0,0,1-.58,1.547,3.317,3.317,0,0,1-1.406,1.006,4.7,4.7,0,0,1-1.872.321,3.71,3.71,0,0,1-2.5-.883,2.731,2.731,0,0,1-.949-2.228l1.591.009a1.686,1.686,0,0,0,.51,1.283,1.948,1.948,0,0,0,1.4.483,2.741,2.741,0,0,0,1.5-.365A1.4,1.4,0,0,0,76.22,16.425ZM85.238,19a2.13,2.13,0,0,1-.062-.5L85.2,18a3.9,3.9,0,0,1-2.777,1.178,2.841,2.841,0,0,1-2.043-.8,2.407,2.407,0,0,1-.716-1.947,2.927,2.927,0,0,1,1.323-2.36,5.631,5.631,0,0,1,3.248-.848l1.661.009L86,12.479a1.738,1.738,0,0,0-.33-1.349,1.591,1.591,0,0,0-1.252-.514,2.453,2.453,0,0,0-1.446.4,1.7,1.7,0,0,0-.769,1.1l-1.6.009a2.55,2.55,0,0,1,.65-1.481,3.784,3.784,0,0,1,1.468-1,4.742,4.742,0,0,1,1.854-.338,3.153,3.153,0,0,1,2.312.9,2.794,2.794,0,0,1,.694,2.3l-.773,4.711-.044.677a3.318,3.318,0,0,0,.105.958L86.855,19Zm-2.5-1.23a2.774,2.774,0,0,0,1.446-.365,3.661,3.661,0,0,0,1.173-1.059l.343-1.96-1.2-.009a4.561,4.561,0,0,0-2.3.475,1.748,1.748,0,0,0-.905,1.345,1.361,1.361,0,0,0,.312,1.112A1.486,1.486,0,0,0,82.742,17.77ZM92.3,9.49,90.5,20.134a3.362,3.362,0,0,1-.9,2.048,2.547,2.547,0,0,1-1.894.686,4.693,4.693,0,0,1-1.046-.176l.141-1.3a3.793,3.793,0,0,0,.729.1q1.134,0,1.362-1.354L90.713,9.49Zm-1.318-2.5a1.007,1.007,0,0,1,.259-.686.925.925,0,0,1,.672-.29.856.856,0,0,1,.672.25.912.912,0,0,1,.268.672.946.946,0,0,1-.272.677.978.978,0,0,1-.677.281.838.838,0,0,1-.659-.246A.894.894,0,0,1,90.986,6.994Zm6.39,12.182a3.429,3.429,0,0,1-2.777-1.31,4.507,4.507,0,0,1-.844-3.261l.044-.378a6.327,6.327,0,0,1,.839-2.584,4.882,4.882,0,0,1,1.683-1.762,3.927,3.927,0,0,1,2.145-.567,3.024,3.024,0,0,1,2.3.976,4.012,4.012,0,0,1,.914,2.549,7.448,7.448,0,0,1-.035,1.143l-.1.729H95.336a3.212,3.212,0,0,0,.426,2.2,2.019,2.019,0,0,0,1.745.94,3.383,3.383,0,0,0,2.6-1.266l.914.773a4.183,4.183,0,0,1-1.542,1.349A4.371,4.371,0,0,1,97.375,19.176Zm1.011-8.534a2.324,2.324,0,0,0-1.718.668A4.748,4.748,0,0,0,95.5,13.375l4.623.009.035-.141a2.6,2.6,0,0,0-.356-1.841A1.674,1.674,0,0,0,98.386,10.642ZM21.592,44H20.01l1.652-9.51h1.582ZM22.9,31.019a.87.87,0,0,1,.672.242.9.9,0,0,1,.268.681.938.938,0,0,1-.94.958.876.876,0,0,1-.677-.237.86.86,0,0,1-.255-.668,1,1,0,0,1,.264-.686A.93.93,0,0,1,22.9,31.019Zm4.447,3.463-.229,1.2a3.749,3.749,0,0,1,2.918-1.371,2.359,2.359,0,0,1,1.986.932,3.619,3.619,0,0,1,.475,2.522L31.462,44H29.871l1.046-6.251a3.332,3.332,0,0,0,.009-.8,1.314,1.314,0,0,0-1.45-1.255,2.994,2.994,0,0,0-2.514,1.528L25.784,44H24.193l1.652-9.51Zm10.767-2.294-.4,2.3h1.731l-.22,1.257H37.5l-.993,5.915a2.062,2.062,0,0,0-.009.422.67.67,0,0,0,.747.686,4.556,4.556,0,0,0,.773-.088L37.9,44.009a4.328,4.328,0,0,1-1.16.158,1.661,1.661,0,0,1-1.424-.7,2.7,2.7,0,0,1-.369-1.833l.967-5.889H34.23l.22-1.257h1.679l.4-2.3Zm5.7,11.988a3.429,3.429,0,0,1-2.777-1.31,4.507,4.507,0,0,1-.844-3.261l.044-.378a6.327,6.327,0,0,1,.839-2.584,4.882,4.882,0,0,1,1.683-1.762,3.927,3.927,0,0,1,2.145-.567,3.024,3.024,0,0,1,2.3.976,4.012,4.012,0,0,1,.914,2.549,7.448,7.448,0,0,1-.035,1.143l-.1.729H41.78a3.212,3.212,0,0,0,.426,2.2,2.019,2.019,0,0,0,1.745.94,3.383,3.383,0,0,0,2.6-1.266l.914.773a4.183,4.183,0,0,1-1.542,1.349A4.371,4.371,0,0,1,43.819,44.176Zm1.011-8.534a2.324,2.324,0,0,0-1.718.668,4.748,4.748,0,0,0-1.165,2.065l4.623.009.035-.141A2.6,2.6,0,0,0,46.25,36.4,1.674,1.674,0,0,0,44.83,35.642Zm10.125.3-.747-.079a2.722,2.722,0,0,0-2.408,1.38L50.631,44H49.04l1.652-9.51,1.538-.009-.237,1.107A2.843,2.843,0,0,1,54.375,34.3a2.918,2.918,0,0,1,.756.132Zm3.929,6.917a2.413,2.413,0,0,0,1.538-.5,2.362,2.362,0,0,0,.9-1.349l1.5-.009a3.391,3.391,0,0,1-.716,1.635,4.14,4.14,0,0,1-3.292,1.538,3.394,3.394,0,0,1-2.008-.62A3.469,3.469,0,0,1,55.6,41.877a5.593,5.593,0,0,1-.264-2.421l.044-.439a6.306,6.306,0,0,1,.8-2.452,4.624,4.624,0,0,1,1.652-1.683,4.1,4.1,0,0,1,2.25-.567,3.214,3.214,0,0,1,2.391,1,3.465,3.465,0,0,1,.9,2.452l-1.485-.009a2.283,2.283,0,0,0-.519-1.507,1.808,1.808,0,0,0-1.354-.611,2.536,2.536,0,0,0-2.061.923,4.834,4.834,0,0,0-1.024,2.654l-.026.229a7.623,7.623,0,0,0-.018,1.16,2.65,2.65,0,0,0,.58,1.626A1.863,1.863,0,0,0,58.884,42.857Zm9.325,1.318a3.429,3.429,0,0,1-2.777-1.31,4.507,4.507,0,0,1-.844-3.261l.044-.378a6.327,6.327,0,0,1,.839-2.584,4.882,4.882,0,0,1,1.683-1.762,3.927,3.927,0,0,1,2.145-.567,3.024,3.024,0,0,1,2.3.976,4.012,4.012,0,0,1,.914,2.549,7.448,7.448,0,0,1-.035,1.143l-.1.729H66.17a3.212,3.212,0,0,0,.426,2.2,2.019,2.019,0,0,0,1.745.94,3.383,3.383,0,0,0,2.6-1.266l.914.773a4.183,4.183,0,0,1-1.542,1.349A4.371,4.371,0,0,1,68.209,44.176Zm1.011-8.534a2.324,2.324,0,0,0-1.718.668,4.748,4.748,0,0,0-1.165,2.065l4.623.009L71,38.243a2.6,2.6,0,0,0-.356-1.841A1.674,1.674,0,0,0,69.22,35.642Zm12.823,3.647a7.545,7.545,0,0,1-.782,2.61,4.442,4.442,0,0,1-1.5,1.736,3.44,3.44,0,0,1-1.986.549,3.167,3.167,0,0,1-2.531-1.116l-.853,4.588H72.8L75.082,34.49l1.441-.009-.176,1.063a3.608,3.608,0,0,1,2.821-1.23A2.653,2.653,0,0,1,81.3,35.325a4.448,4.448,0,0,1,.809,2.689,9.464,9.464,0,0,1-.044,1.09Zm-1.564-.18.044-.737a3.34,3.34,0,0,0-.488-1.962,1.715,1.715,0,0,0-1.411-.715A2.821,2.821,0,0,0,76.242,37l-.8,4.556a1.99,1.99,0,0,0,1.925,1.3,2.5,2.5,0,0,0,2.017-.926A5.374,5.374,0,0,0,80.479,39.109Zm7.04-6.922-.4,2.3h1.731l-.22,1.257H86.9l-.993,5.915a2.062,2.062,0,0,0-.009.422.67.67,0,0,0,.747.686,4.556,4.556,0,0,0,.773-.088L87.3,44.009a4.328,4.328,0,0,1-1.16.158,1.661,1.661,0,0,1-1.424-.7,2.7,2.7,0,0,1-.369-1.833l.967-5.889H83.634l.22-1.257h1.679l.4-2.3ZM94.928,44a2.13,2.13,0,0,1-.062-.5l.026-.5a3.9,3.9,0,0,1-2.777,1.178,2.841,2.841,0,0,1-2.043-.8,2.407,2.407,0,0,1-.716-1.947,2.927,2.927,0,0,1,1.323-2.36,5.631,5.631,0,0,1,3.248-.848l1.661.009.105-.756a1.738,1.738,0,0,0-.33-1.349,1.591,1.591,0,0,0-1.252-.514,2.453,2.453,0,0,0-1.446.4,1.7,1.7,0,0,0-.769,1.1l-1.6.009a2.55,2.55,0,0,1,.65-1.481,3.784,3.784,0,0,1,1.468-1,4.742,4.742,0,0,1,1.854-.338,3.153,3.153,0,0,1,2.312.9,2.794,2.794,0,0,1,.694,2.3L96.5,42.216l-.044.677a3.318,3.318,0,0,0,.105.958L96.545,44Zm-2.5-1.23a2.774,2.774,0,0,0,1.446-.365,3.661,3.661,0,0,0,1.173-1.059l.343-1.96-1.2-.009a4.561,4.561,0,0,0-2.3.475,1.748,1.748,0,0,0-.905,1.345,1.361,1.361,0,0,0,.312,1.112A1.486,1.486,0,0,0,92.432,42.77Zm6.724-3.542a7.4,7.4,0,0,1,.8-2.619,4.534,4.534,0,0,1,1.538-1.749,3.517,3.517,0,0,1,2.013-.554,2.971,2.971,0,0,1,2.443,1.16l.914-4.966h1.591L106.116,44h-1.45l.167-1.02a3.506,3.506,0,0,1-2.777,1.2,2.627,2.627,0,0,1-2.1-1.033,4.5,4.5,0,0,1-.844-2.676A8.547,8.547,0,0,1,99.155,39.228Zm1.529.909a3.3,3.3,0,0,0,.448,1.949,1.617,1.617,0,0,0,1.389.711,2.874,2.874,0,0,0,2.452-1.387l.756-4.389a1.973,1.973,0,0,0-1.916-1.334,2.411,2.411,0,0,0-1.657.566,3.663,3.663,0,0,0-1.09,1.659A6.842,6.842,0,0,0,100.685,40.136Zm13.228-5.822a3.428,3.428,0,0,1,2.048.65,3.7,3.7,0,0,1,1.261,1.745,5.4,5.4,0,0,1,.277,2.43l-.018.193a6.4,6.4,0,0,1-.826,2.509,4.848,4.848,0,0,1-1.705,1.745,4.158,4.158,0,0,1-2.294.589,3.434,3.434,0,0,1-2.043-.65,3.611,3.611,0,0,1-1.252-1.723,5.547,5.547,0,0,1-.281-2.4,6.48,6.48,0,0,1,.8-2.654,4.96,4.96,0,0,1,1.718-1.824A4.109,4.109,0,0,1,113.912,34.314Zm-3.234,5.1a5.4,5.4,0,0,0,0,1.151,2.821,2.821,0,0,0,.62,1.652,1.86,1.86,0,0,0,1.419.642,2.534,2.534,0,0,0,1.459-.391,3.284,3.284,0,0,0,1.125-1.261,5.311,5.311,0,0,0,.589-1.872,8.431,8.431,0,0,0,.026-1.362,2.927,2.927,0,0,0-.642-1.679,1.9,1.9,0,0,0-1.424-.65,2.592,2.592,0,0,0-2.092.967,4.776,4.776,0,0,0-1.063,2.6Z" transform="translate(719 2799.57)" fill="#636363"/>
    <path id="Trazado_217322" data-name="Trazado 217322" d="M6.439,19V6.2h3.938a5.98,5.98,0,0,1,3.019.76,5.3,5.3,0,0,1,2.079,2.162,6.669,6.669,0,0,1,.747,3.186V12.9a6.688,6.688,0,0,1-.734,3.173,5.256,5.256,0,0,1-2.07,2.153A6.025,6.025,0,0,1,10.4,19ZM9.076,8.339v8.543H10.35a2.863,2.863,0,0,0,2.364-1.011,4.567,4.567,0,0,0,.835-2.892V12.3a4.64,4.64,0,0,0-.809-2.958,2.854,2.854,0,0,0-2.364-1.006ZM22.347,19.176a4.668,4.668,0,0,1-3.406-1.283,4.561,4.561,0,0,1-1.314-3.419v-.246a5.745,5.745,0,0,1,.554-2.562,4.064,4.064,0,0,1,1.569-1.74,4.4,4.4,0,0,1,2.316-.611,3.947,3.947,0,0,1,3.072,1.23,5,5,0,0,1,1.121,3.489v1.037H20.2a2.36,2.36,0,0,0,.743,1.494,2.245,2.245,0,0,0,1.569.563,2.742,2.742,0,0,0,2.294-1.063l1.248,1.4a3.813,3.813,0,0,1-1.547,1.261A5.075,5.075,0,0,1,22.347,19.176Zm-.29-7.813a1.587,1.587,0,0,0-1.226.512,2.651,2.651,0,0,0-.6,1.466h3.533v-.2a1.891,1.891,0,0,0-.457-1.311A1.638,1.638,0,0,0,22.057,11.362Zm10.793,5.01a.818.818,0,0,0-.461-.734,5.241,5.241,0,0,0-1.481-.479q-3.393-.712-3.393-2.883a2.613,2.613,0,0,1,1.05-2.114,4.237,4.237,0,0,1,2.747-.848,4.56,4.56,0,0,1,2.9.853,2.687,2.687,0,0,1,1.085,2.215h-2.54a1.229,1.229,0,0,0-.352-.9,1.488,1.488,0,0,0-1.1-.356,1.52,1.52,0,0,0-.993.29.916.916,0,0,0-.352.738.783.783,0,0,0,.4.681,4.114,4.114,0,0,0,1.349.448,11.019,11.019,0,0,1,1.6.426,2.628,2.628,0,0,1,2.013,2.558,2.481,2.481,0,0,1-1.116,2.1,4.815,4.815,0,0,1-2.883.8A5.029,5.029,0,0,1,29.2,18.75a3.561,3.561,0,0,1-1.455-1.169,2.716,2.716,0,0,1-.527-1.6h2.408a1.326,1.326,0,0,0,.5,1.037,1.987,1.987,0,0,0,1.248.36,1.839,1.839,0,0,0,1.1-.277A.861.861,0,0,0,32.85,16.372Zm8.06.756a1.666,1.666,0,0,0,1.143-.387,1.355,1.355,0,0,0,.457-1.028h2.382a3.258,3.258,0,0,1-.527,1.771,3.48,3.48,0,0,1-1.419,1.248,4.442,4.442,0,0,1-1.991.444,4.129,4.129,0,0,1-3.217-1.3A5.13,5.13,0,0,1,36.559,14.3v-.167a5.071,5.071,0,0,1,1.169-3.507,4.08,4.08,0,0,1,3.208-1.31A4,4,0,0,1,43.8,10.33a3.594,3.594,0,0,1,1.094,2.7H42.509a1.745,1.745,0,0,0-.457-1.206,1.7,1.7,0,0,0-2.5.183,3.749,3.749,0,0,0-.453,2.1v.264a3.8,3.8,0,0,0,.448,2.113A1.549,1.549,0,0,0,40.91,17.128ZM49.022,19H46.473V9.49h2.549Zm-2.7-11.971a1.251,1.251,0,0,1,.382-.94,1.648,1.648,0,0,1,2.079,0,1.244,1.244,0,0,1,.387.94,1.247,1.247,0,0,1-.391.949,1.629,1.629,0,0,1-2.065,0A1.247,1.247,0,0,1,46.324,7.029ZM51.808,19V11.354H50.393V9.49h1.415V8.682A3.283,3.283,0,0,1,52.727,6.2,3.557,3.557,0,0,1,55.3,5.315a5.938,5.938,0,0,1,1.292.176L56.563,7.46a3.238,3.238,0,0,0-.773-.079q-1.433,0-1.433,1.345V9.49h1.89v1.863h-1.89V19Zm11.1-7.128a6.9,6.9,0,0,0-.914-.07,1.86,1.86,0,0,0-1.89.976V19h-2.54V9.49h2.4l.07,1.134a2.354,2.354,0,0,1,2.118-1.31,2.662,2.662,0,0,1,.791.114ZM69.377,19a2.821,2.821,0,0,1-.255-.853,3.073,3.073,0,0,1-2.4,1.028,3.376,3.376,0,0,1-2.316-.809,2.6,2.6,0,0,1-.918-2.039,2.687,2.687,0,0,1,1.121-2.32,5.529,5.529,0,0,1,3.239-.817h1.169v-.545a1.567,1.567,0,0,0-.338-1.055,1.331,1.331,0,0,0-1.068-.4A1.513,1.513,0,0,0,66.6,11.5a1.045,1.045,0,0,0-.365.844H63.7a2.551,2.551,0,0,1,.51-1.529,3.37,3.37,0,0,1,1.441-1.1,5.253,5.253,0,0,1,2.092-.4,4.15,4.15,0,0,1,2.791.883,3.09,3.09,0,0,1,1.033,2.483V16.8a4.546,4.546,0,0,0,.378,2.048V19Zm-2.1-1.767a2.188,2.188,0,0,0,1.037-.25,1.645,1.645,0,0,0,.7-.672V14.676h-.949q-1.907,0-2.03,1.318l-.009.149a1.017,1.017,0,0,0,.334.782A1.3,1.3,0,0,0,67.277,17.233ZM75.9,9.49l.079,1.063a3.342,3.342,0,0,1,2.733-1.239,2.536,2.536,0,0,1,2.522,1.45,3.265,3.265,0,0,1,2.856-1.45,2.836,2.836,0,0,1,2.3.9,4.141,4.141,0,0,1,.756,2.711V19H84.6V12.936a1.811,1.811,0,0,0-.316-1.182,1.4,1.4,0,0,0-1.116-.374,1.585,1.585,0,0,0-1.582,1.09L81.594,19h-2.54V12.944a1.789,1.789,0,0,0-.325-1.2,1.416,1.416,0,0,0-1.107-.369,1.646,1.646,0,0,0-1.564.9V19h-2.54V9.49ZM91.781,19H89.232V9.49h2.549Zm-2.7-11.971a1.251,1.251,0,0,1,.382-.94,1.648,1.648,0,0,1,2.079,0,1.244,1.244,0,0,1,.387.94,1.247,1.247,0,0,1-.391.949,1.629,1.629,0,0,1-2.065,0A1.247,1.247,0,0,1,89.083,7.029ZM98.25,19.176a4.668,4.668,0,0,1-3.406-1.283,4.561,4.561,0,0,1-1.314-3.419v-.246a5.745,5.745,0,0,1,.554-2.562,4.064,4.064,0,0,1,1.569-1.74,4.4,4.4,0,0,1,2.316-.611,3.947,3.947,0,0,1,3.072,1.23,5,5,0,0,1,1.121,3.489v1.037H96.1a2.36,2.36,0,0,0,.743,1.494,2.245,2.245,0,0,0,1.569.563,2.742,2.742,0,0,0,2.294-1.063l1.248,1.4a3.813,3.813,0,0,1-1.547,1.261A5.075,5.075,0,0,1,98.25,19.176Zm-.29-7.813a1.587,1.587,0,0,0-1.226.512,2.651,2.651,0,0,0-.6,1.466h3.533v-.2a1.891,1.891,0,0,0-.457-1.311A1.638,1.638,0,0,0,97.959,11.362Zm7.98-1.872.079,1.1a3.32,3.32,0,0,1,2.733-1.274A2.759,2.759,0,0,1,111,10.2a4.142,4.142,0,0,1,.756,2.654V19h-2.54V12.918a1.648,1.648,0,0,0-.352-1.173,1.574,1.574,0,0,0-1.169-.365,1.747,1.747,0,0,0-1.608.914V19h-2.54V9.49Zm10.784-2.338V9.49h1.626v1.863h-1.626V16.1a1.133,1.133,0,0,0,.2.756,1.015,1.015,0,0,0,.773.229,4.051,4.051,0,0,0,.747-.062v1.925a5.229,5.229,0,0,1-1.538.229,2.425,2.425,0,0,1-2.725-2.7V11.354H112.8V9.49h1.389V7.152Zm2.382,7a5.64,5.64,0,0,1,.545-2.522,3.989,3.989,0,0,1,1.569-1.714,4.577,4.577,0,0,1,2.377-.606,4.33,4.33,0,0,1,3.142,1.178,4.727,4.727,0,0,1,1.358,3.2l.018.65a4.97,4.97,0,0,1-1.222,3.511,4.735,4.735,0,0,1-6.561,0,5.058,5.058,0,0,1-1.226-3.586Zm2.54.18a3.555,3.555,0,0,0,.51,2.073,1.831,1.831,0,0,0,2.9.009,3.89,3.89,0,0,0,.519-2.267,3.519,3.519,0,0,0-.519-2.06,1.686,1.686,0,0,0-1.459-.731,1.658,1.658,0,0,0-1.441.726A3.955,3.955,0,0,0,121.646,14.338Z" transform="translate(523 3046.57)" fill="#12263f"/>
    <g id="Grupo_213607" data-name="Grupo 213607" transform="translate(105 -153.652)">
      <path id="Path-11" data-name="Path" d="M0,0H81.072" transform="translate(485 2676.08) rotate(90)" fill="none" stroke="#eaf1ff" stroke-miterlimit="10" stroke-width="10"/>
      <path id="Path-12" data-name="Path" d="M34.5,19.919,0,39.838V0Z" transform="translate(504.919 2730.152) rotate(90)" fill="#78b5fa"/>
    </g>
    <g id="Grupo_213610" data-name="Grupo 213610" transform="translate(105 241.418)">
      <path id="Path-13" data-name="Path" d="M0,0H81.072" transform="translate(485 2676.08) rotate(90)" fill="none" stroke="#eaf1ff" stroke-miterlimit="10" stroke-width="10"/>
      <path id="Path-14" data-name="Path" d="M34.5,19.919,0,39.838V0Z" transform="translate(504.919 2730.152) rotate(90)" fill="#78b5fa"/>
    </g>
    <g id="Grupo_213608" data-name="Grupo 213608" transform="translate(105 32.418)">
      <path id="Path-15" data-name="Path" d="M0,0H81.072" transform="translate(485 2676.08) rotate(90)" fill="none" stroke="#eaf1ff" stroke-miterlimit="10" stroke-width="10"/>
      <path id="Path-16" data-name="Path" d="M34.5,19.919,0,39.838V0Z" transform="translate(504.919 2730.152) rotate(90)" fill="#78b5fa"/>
    </g>
    <g id="Grupo_213619" data-name="Grupo 213619" transform="translate(-1985.765 3345.5) rotate(-90)">
      <path id="Path-17" data-name="Path" d="M0,0H214.47" transform="translate(485 2676.08) rotate(90)" fill="none" stroke="#eaf1ff" stroke-miterlimit="10" stroke-width="10"/>
      <path id="Path-18" data-name="Path" d="M34.5,19.919,0,39.838V0Z" transform="translate(504.919 2863.551) rotate(90)" fill="#78b5fa"/>
    </g>
    <g id="Grupo_213620" data-name="Grupo 213620" transform="translate(-1985.765 3542.07) rotate(-90)">
      <path id="Path-19" data-name="Path" d="M0,0H214.47" transform="translate(485 2676.08) rotate(90)" fill="none" stroke="#eaf1ff" stroke-miterlimit="10" stroke-width="10"/>
      <path id="Path-20" data-name="Path" d="M34.5,19.919,0,39.838V0Z" transform="translate(504.919 2863.551) rotate(90)" fill="#78b5fa"/>
    </g>
    <g id="Grupo_213616" data-name="Grupo 213616" transform="translate(990.081 2522.428)">
      <path id="Path-21" data-name="Path" d="M0,0H267.143" transform="translate(19.919 274.643) rotate(-90)" fill="none" stroke="#eaf1ff" stroke-miterlimit="10" stroke-width="10"/>
      <path id="Path-22" data-name="Path" d="M34.5,19.919,0,0V39.838Z" transform="translate(0 34.5) rotate(-90)" fill="#78b5fa"/>
    </g>
  </g>
</svg>
