<svg id="Grupo_152928" data-name="Grupo 152928" xmlns="http://www.w3.org/2000/svg" xmlns:xlink="http://www.w3.org/1999/xlink" width="80.405" height="99.418" viewBox="0 0 80.405 99.418">
  <defs>
    <clipPath id="clip-path">
      <rect id="Rect치ngulo_66655" data-name="Rect치ngulo 66655" width="80.405" height="99.419" fill="none"/>
    </clipPath>
  </defs>
  <g id="Grupo_152927" data-name="Grupo 152927" clip-path="url(#clip-path)">
    <path id="Trazado_179812" data-name="Trazado 179812" d="M44.853.433a36.3,36.3,0,0,0-20.444,8.3A36.6,36.6,0,0,0,11.579,29.668a34.951,34.951,0,0,0-.866,9.729,38.659,38.659,0,0,0,3.108,13.249A37.4,37.4,0,0,0,39.108,73.953c.362.088.983.1.953.477-.041.51-.657.36-1.046.369-1.3.032-2.608-.011-3.914.034,0,3.7.011,7.4-.023,11.1-.008.81.267,1.091,1.069,1.054,1.162-.052,2.327-.014,3.491-.013,1.278,0,1.278,0,1.279,1.234l.009,10.9c2.372-.035,4.745-.042,7.117,0h.045q.005-6.069.01-12.137,0-10.582,0-21.163h0v0a28.15,28.15,0,0,1,0-56.3v0h0V0H45.572c-.024.5-.432.409-.719.433m-1.735,74.51c.541.07,1.081.151,1.624.2.412.034.44.3.44.61,0,3.524-.006,7.048.008,10.571,0,.518-.213.7-.7.658a.758.758,0,0,0-.1,0c-2.126.077-2.126.077-2.126-2.034V80.967c0-1.746.027-3.492-.013-5.237-.016-.673.258-.866.86-.788" transform="translate(-7.892)" fill="#fec638"/>
    <path id="Trazado_179813" data-name="Trazado 179813" d="M134.436,381.92c-2.372-.044-4.745-.036-7.117,0q0,.125,0,.249l7.162.008c0-.085,0-.17,0-.256h-.045" transform="translate(-94.284 -282.803)" fill="#fec638"/>
    <path id="Trazado_179814" data-name="Trazado 179814" d="M21.674,10.268C12.055,19.583,8.147,31.009,10.45,44.2c2.217,12.694,9.49,21.82,21.027,27.535a38.686,38.686,0,0,0,7.815,2.753c-.806.065-1.6.061-2.4.067s-1.615.023-2.423.036v.244c1.305-.045,2.61,0,3.914-.034.389-.01,1,.14,1.046-.37.031-.378-.591-.388-.953-.477A37.4,37.4,0,0,1,13.191,52.646,38.655,38.655,0,0,1,10.084,39.4a34.943,34.943,0,0,1,.866-9.729A36.6,36.6,0,0,1,23.78,8.735,36.3,36.3,0,0,1,44.224.434c.287-.024.694.066.719-.433A9.247,9.247,0,0,1,42.471.34a36.144,36.144,0,0,0-20.8,9.928" transform="translate(-7.262 -0.001)" fill="#fec638"/>
    <path id="Trazado_179815" data-name="Trazado 179815" d="M155.238,8.781a1.65,1.65,0,0,1-.087.47.846.846,0,0,1-.17.263,28.151,28.151,0,0,1,0,56.3.721.721,0,0,1,.161.254,2.256,2.256,0,0,1,.112.765c0,6.711.04,13.423-.016,20.134v.012l2.614.009c.614,0,1.234.041,1.841-.023.834-.088,1.113.174,1.1,1.058-.05,3.7-.024,7.395-.023,11.093h.033q3.569-.059,7.138,0h.008q0-6.068,0-12.135c-1.58,0-3.162-.044-4.74.015-.821.031-1.121-.163-1.107-1.056.054-3.453.047-6.908,0-10.362-.01-.784.211-1.128.977-1.047-.059-.135.079-.256.311-.343.514-.193,1.053-.315,1.582-.463A36.817,36.817,0,0,0,182.411,63.1,36.278,36.278,0,0,0,192.1,42.138a36.455,36.455,0,0,0-8.638-28.689A36.889,36.889,0,0,0,159.649.475c-.536-.076-1.25.3-1.591-.475h-3.106a1.276,1.276,0,0,1,.3.893c.017,2.629.037,5.259-.011,7.888" transform="translate(-114.748)" fill="#fd9c4e"/>
    <path id="Trazado_179816" data-name="Trazado 179816" d="M184.567,381.919q-3.569-.059-7.139,0H177.4c0,.085,0,.169,0,.254h7.178v-.256h-.007" transform="translate(-131.368 -282.803)" fill="#fd9c4e"/>
    <path id="Trazado_179817" data-name="Trazado 179817" d="M168.515.475a36.888,36.888,0,0,1,23.812,12.973,36.454,36.454,0,0,1,8.638,28.689A36.279,36.279,0,0,1,191.276,63.1a36.819,36.819,0,0,1-17.427,10.619c-.53.148-1.068.27-1.582.463-.232.087-.37.209-.311.343l.038,0h0c.047-.042.088-.11.142-.122a36.66,36.66,0,0,0,21.316-13.524,36.816,36.816,0,0,0,7.272-30.73,36.177,36.177,0,0,0-8.442-17.167A37.036,37.036,0,0,0,171.563.783C170.031.457,168.471.258,166.924,0c.341.775,1.055.4,1.591.475" transform="translate(-123.613)" fill="#fd9c4e"/>
    <path id="Trazado_179818" data-name="Trazado 179818" d="M154.981,9.513a.846.846,0,0,0,.17-.263,1.645,1.645,0,0,0,.087-.47c.047-2.629.027-5.259.011-7.888a1.275,1.275,0,0,0-.3-.893V9.513h.029" transform="translate(-114.748)" fill="#fd9c4e"/>
    <path id="Trazado_179819" data-name="Trazado 179819" d="M155.241,274.812c.057-6.711.019-13.423.016-20.134a2.257,2.257,0,0,0-.112-.765.725.725,0,0,0-.161-.254h-.032q0,10.581,0,21.163h.286v-.012" transform="translate(-114.748 -187.844)" fill="#fd9c4e"/>
    <path id="Trazado_179820" data-name="Trazado 179820" d="M10.555,300.6c-.837.033-1.11-.185-1.1-1.066.047-3.7.018-7.393.015-11.09-2.322.05-4.644,0-6.967.024-1.187.011-1.252.071-1.255,1.277q-.012,4.658,0,9.317c0,1.115.092,1.192,1.233,1.207,1.067.014,2.136-.021,3.2.015,1.117.037,1.363.271,1.374,1.405.03,3.17.006,6.34.012,9.51,0,1.484.014,1.489,1.527,1.5,2.232.013,4.464-.031,6.7.022h0q0-6.068.005-12.135c-1.582,0-3.166-.047-4.745.016" transform="translate(-0.92 -213.601)" fill="#fec638"/>
    <path id="Trazado_179821" data-name="Trazado 179821" d="M14.373,311.863c-2.232-.053-4.464-.008-6.7-.022-1.513-.009-1.524-.015-1.527-1.5-.006-3.17.017-6.341-.012-9.511-.01-1.134-.256-1.367-1.373-1.4-1.067-.036-2.135,0-3.2-.015C.421,299.4.333,299.32.329,298.205q-.015-4.658,0-9.317c0-1.206.068-1.267,1.255-1.277,2.322-.021,4.645.026,6.967-.024,0-.085,0-.171,0-.256-2.615-.011-5.231-.006-7.845-.043-.566-.008-.7.19-.7.724.019,3.649.028,7.3-.006,10.947-.006.684.257.792.846.777,1.355-.035,2.715.041,4.068-.03.8-.042.95.248.943.979-.035,3.552-.01,7.1-.022,10.656,0,.508.013.837.7.825,2.614-.049,5.23-.036,7.845-.047v-.256h0" transform="translate(0 -212.747)" fill="#fec638"/>
    <path id="Trazado_179822" data-name="Trazado 179822" d="M259.221,300.56c.838-.033,1.11.187,1.1,1.067-.049,3.7-.023,7.393-.022,11.089,2.325-.05,4.65,0,6.975-.024,1.189-.01,1.252-.068,1.255-1.275q.012-4.659,0-9.317c0-1.116-.091-1.194-1.231-1.209-1.067-.014-2.135.021-3.2-.014-1.119-.037-1.365-.271-1.376-1.4-.03-3.17-.006-6.341-.012-9.511,0-1.484-.016-1.491-1.526-1.5-2.232-.014-4.464.032-6.7-.022h-.009q0,6.068,0,12.135c1.582,0,3.166.047,4.746-.016" transform="translate(-188.446 -213.6)" fill="#fd9c4e"/>
    <path id="Trazado_179823" data-name="Trazado 179823" d="M254.482,287.576c2.232.053,4.464.008,6.7.022,1.51.009,1.524.017,1.526,1.5.006,3.17-.018,6.341.012,9.511.011,1.132.257,1.366,1.376,1.4,1.067.036,2.135,0,3.2.015,1.14.015,1.228.092,1.231,1.209q.015,4.659,0,9.317c0,1.207-.066,1.265-1.255,1.275-2.325.02-4.65-.026-6.975.024,0,.085,0,.17,0,.256,2.616.011,5.232.007,7.847.043.558.008.708-.178.705-.719q-.03-5.523,0-11.046c0-.591-.234-.69-.744-.68-1.388.026-2.78-.042-4.165.029-.8.041-.949-.252-.942-.982.035-3.553.009-7.106.023-10.659,0-.516-.027-.832-.7-.82-2.615.048-5.231.036-7.847.047v.255h.009" transform="translate(-188.446 -212.736)" fill="#fd9c4e"/>
    <path id="Trazado_179824" data-name="Trazado 179824" d="M67.381,300.563c-1.324.042-2.651-.027-3.974.028-.756.031-1-.19-.989-.972.036-3.727.013-7.454.01-11.181h-.019q-3.477.058-6.953,0h-.007q0,6.034,0,12.067a.591.591,0,0,1,.065.068c1.561,0,3.123.046,4.68-.016.839-.034,1.108.188,1.1,1.067-.047,3.7-.018,7.392-.014,11.088,2.322-.036,4.644-.041,6.967,0h.01c0-3.76-.008-7.52.024-11.28.006-.691-.227-.892-.893-.871" transform="translate(-41.059 -213.598)" fill="#fec638"/>
    <path id="Trazado_179825" data-name="Trazado 179825" d="M55.465,287.7q3.476.06,6.952,0h.019q0-.129,0-.258l-6.978,0q0,.128,0,.257h.007" transform="translate(-41.069 -212.861)" fill="#fec638"/>
    <path id="Trazado_179826" data-name="Trazado 179826" d="M84.872,381.918c-2.322-.041-4.644-.037-6.967,0,0,.086,0,.172,0,.257h6.976v-.258h-.01" transform="translate(-57.691 -282.802)" fill="#fec638"/>
    <path id="Trazado_179827" data-name="Trazado 179827" d="M55.509,335.016a.622.622,0,0,0-.065-.068v.068h.065" transform="translate(-41.058 -248.041)" fill="#fec638"/>
    <path id="Trazado_179828" data-name="Trazado 179828" d="M205.143,300.572c1.591,0,3.183.035,4.773-.013.748-.023,1,.181,1,.969-.04,3.728-.02,7.456-.02,11.184h0c2.326-.037,4.653-.041,6.979,0h.016q0-6.033,0-12.066a.592.592,0,0,1-.066-.069c-1.56,0-3.122-.046-4.68.017-.838.033-1.109-.188-1.1-1.068.049-3.7.023-7.392.023-11.088-2.312.035-4.624.042-6.936,0h-.06q0,6.035.007,12.069a.588.588,0,0,1,.069.068" transform="translate(-151.86 -213.597)" fill="#fd9c4e"/>
    <path id="Trazado_179829" data-name="Trazado 179829" d="M234.493,381.918c-2.326-.041-4.652-.037-6.979,0h0v.255h7q0-.128,0-.256h-.016" transform="translate(-168.482 -282.802)" fill="#fd9c4e"/>
    <path id="Trazado_179830" data-name="Trazado 179830" d="M205.126,287.711c2.312.044,4.624.036,6.936,0,0-.085,0-.17,0-.255h-7c0,.084,0,.169,0,.253h.06" transform="translate(-151.859 -212.872)" fill="#fd9c4e"/>
    <path id="Trazado_179831" data-name="Trazado 179831" d="M205.164,335.019a.588.588,0,0,0-.069-.068v.068h.069" transform="translate(-151.88 -248.043)" fill="#fd9c4e"/>
    <path id="Trazado_179832" data-name="Trazado 179832" d="M254.209,335.228a.617.617,0,0,0,.066.069v-.069h-.066" transform="translate(-188.251 -248.248)" fill="#fd9c4e"/>
    <path id="Trazado_179833" data-name="Trazado 179833" d="M94.2,311.49c-.011-3.106,0-6.213-.008-9.319,0-1.2-.074-1.265-1.258-1.281-1.035-.015-2.072.028-3.106-.019-1.081-.05-1.422-.35-1.436-1.407-.047-3.429-.027-6.859-.01-10.289a1.633,1.633,0,0,1,.13-.738l-.076,0c-1.8.018-3.6.032-5.405,0a2.68,2.68,0,0,1,.137,1.216c.011,2.943,0,5.885.005,8.828,0,1.778,0,1.777,1.826,1.78.873,0,1.747-.024,2.619.012,1.072.044,1.351.284,1.362,1.326.036,3.46.024,6.92.006,10.38a1.689,1.689,0,0,1-.123.73c1.827-.031,3.655-.034,5.482,0a2.574,2.574,0,0,1-.144-1.221" transform="translate(-61.488 -213.597)" fill="#fef159"/>
    <path id="Trazado_179834" data-name="Trazado 179834" d="M104.979,381.921a.893.893,0,0,1-.185.26l5.845-.008a1.069,1.069,0,0,1-.177-.251c-1.827-.035-3.655-.032-5.482,0" transform="translate(-77.604 -282.808)" fill="#fef159"/>
    <path id="Trazado_179835" data-name="Trazado 179835" d="M82.531,287.7c1.8.031,3.6.017,5.405,0l.076,0a.877.877,0,0,1,.185-.249l-5.842-.009h0a1.082,1.082,0,0,1,.176.261" transform="translate(-60.987 -212.86)" fill="#fef159"/>
    <path id="Trazado_179836" data-name="Trazado 179836" d="M103.6,289.16c-.017,3.43-.037,6.86.01,10.289.014,1.057.355,1.358,1.436,1.407,1.034.047,2.071,0,3.106.019,1.184.017,1.255.081,1.258,1.281.009,3.106,0,6.212.008,9.319a2.574,2.574,0,0,0,.144,1.221l.156,0h.021l-.009-10.9c0-1.233,0-1.233-1.279-1.234-1.164,0-2.329-.039-3.491.013-.8.036-1.076-.244-1.069-1.054.034-3.7.021-7.4.023-11.1l-.185,0a1.633,1.633,0,0,0-.13.738" transform="translate(-76.708 -213.583)" fill="#fef159"/>
    <path id="Trazado_179837" data-name="Trazado 179837" d="M104.342,287.72v-.244a.878.878,0,0,0-.185.249l.185,0" transform="translate(-77.132 -212.886)" fill="#fef159"/>
    <path id="Trazado_179838" data-name="Trazado 179838" d="M126.794,381.994l-.156,0a1.054,1.054,0,0,0,.177.251c0-.083,0-.166,0-.249h-.021" transform="translate(-93.78 -282.879)" fill="#fef159"/>
    <path id="Trazado_179839" data-name="Trazado 179839" d="M88.452,301.6c-.011-1.042-.29-1.282-1.362-1.326-.872-.036-1.746-.011-2.619-.012-1.825,0-1.826,0-1.826-1.78,0-2.943.005-5.885-.005-8.828a2.679,2.679,0,0,0-.137-1.215l-.175,0c0,3.727.026,7.455-.01,11.182-.008.782.234,1,.989.972,1.323-.055,2.65.015,3.974-.028.666-.021.9.179.893.871-.031,3.76-.022,7.52-.024,11.279l.185,0a1.689,1.689,0,0,0,.123-.73c.018-3.46.031-6.92-.006-10.38" transform="translate(-60.959 -213.598)" fill="#fef159"/>
    <path id="Trazado_179840" data-name="Trazado 179840" d="M82.531,287.7a1.082,1.082,0,0,0-.176-.261c0,.086,0,.172,0,.258l.175,0" transform="translate(-60.987 -212.861)" fill="#fef159"/>
    <path id="Trazado_179841" data-name="Trazado 179841" d="M104.795,381.993v.257a.893.893,0,0,0,.185-.26l-.185,0" transform="translate(-77.604 -282.877)" fill="#fef159"/>
    <path id="Trazado_179842" data-name="Trazado 179842" d="M33.761,289.666c.011,3.1,0,6.2.009,9.306,0,1.231.08,1.269,1.334,1.312a21.447,21.447,0,0,1,4.055.141c.005,0,.009.007.015.01a2.056,2.056,0,0,1-.2-1.127q-.011-4.923,0-9.845a2.25,2.25,0,0,1,.134-1.013c-1.827.031-3.655.035-5.482,0a2.671,2.671,0,0,1,.135,1.217" transform="translate(-24.901 -213.607)" fill="#fef159"/>
    <path id="Trazado_179843" data-name="Trazado 179843" d="M38.61,287.71a.984.984,0,0,1,.183-.26H32.954a1.092,1.092,0,0,1,.175.258c1.827.035,3.654.032,5.481,0" transform="translate(-24.404 -212.867)" fill="#fef159"/>
    <path id="Trazado_179844" data-name="Trazado 179844" d="M32.9,299.531c-.011.881.262,1.1,1.1,1.066,1.579-.063,3.163-.017,4.745-.016v-.006h0a1.093,1.093,0,0,1-.109-.147c-.005,0-.009-.008-.015-.01a21.446,21.446,0,0,0-4.055-.14c-1.254-.043-1.33-.082-1.334-1.313-.01-3.1,0-6.2-.009-9.306a2.673,2.673,0,0,0-.135-1.217l-.155,0h-.019c0,3.7.032,7.394-.015,11.09" transform="translate(-24.362 -213.601)" fill="#fef159"/>
    <path id="Trazado_179845" data-name="Trazado 179845" d="M32.973,287.711l.155,0a1.071,1.071,0,0,0-.175-.258q0,.128,0,.256h.019" transform="translate(-24.403 -212.871)" fill="#fef159"/>
    <path id="Trazado_179846" data-name="Trazado 179846" d="M54.218,289.457q-.014,4.922,0,9.845a2.056,2.056,0,0,0,.2,1.127.6.6,0,0,1,.114.079l0-12.067-.183,0a2.254,2.254,0,0,0-.134,1.013" transform="translate(-40.145 -213.601)" fill="#fef159"/>
    <path id="Trazado_179847" data-name="Trazado 179847" d="M54.936,287.707v-.257a.984.984,0,0,0-.183.26l.183,0" transform="translate(-40.547 -212.867)" fill="#fef159"/>
    <path id="Trazado_179848" data-name="Trazado 179848" d="M55.115,334.791h0v-.068a.609.609,0,0,0-.114-.079,1.067,1.067,0,0,0,.109.147" transform="translate(-40.734 -247.816)" fill="#fef159"/>
    <path id="Trazado_179849" data-name="Trazado 179849" d="M183.76,288.9c.023,3.1,0,6.195.013,9.292,0,1.178.083,1.225,1.27,1.269a22.116,22.116,0,0,1,4.139.146,2.055,2.055,0,0,1-.2-1.126q-.011-4.92,0-9.84a2.289,2.289,0,0,1,.129-1.023,32.335,32.335,0,0,1-4.419-.089.58.58,0,0,1-.256-.2,1.755,1.755,0,0,0-.677,1.567" transform="translate(-136.081 -212.781)" fill="#fec638"/>
    <path id="Trazado_179850" data-name="Trazado 179850" d="M186.626,287.471a32.291,32.291,0,0,0,4.419.089.981.981,0,0,1,.175-.253l-4.826-.053h0l-.025.02a.576.576,0,0,0,.256.2" transform="translate(-138.014 -212.722)" fill="#fec638"/>
    <path id="Trazado_179851" data-name="Trazado 179851" d="M188.388,299.658a1.1,1.1,0,0,1-.11-.148,22.116,22.116,0,0,0-4.139-.146c-1.187-.044-1.267-.091-1.27-1.269-.008-3.1.01-6.195-.013-9.292a1.754,1.754,0,0,1,.677-1.567.171.171,0,0,1-.013-.023c-.766-.081-.987.264-.977,1.047.044,3.454.051,6.909,0,10.362-.014.893.286,1.087,1.107,1.056,1.578-.059,3.16-.016,4.74-.015v0Z" transform="translate(-135.177 -212.683)" fill="#fec638"/>
    <path id="Trazado_179852" data-name="Trazado 179852" d="M186.332,287.269c.009-.007.016-.014.025-.021l-.038,0a.21.21,0,0,0,.013.023" transform="translate(-137.976 -212.716)" fill="#fec638"/>
    <path id="Trazado_179853" data-name="Trazado 179853" d="M203.872,289.457q-.015,4.92,0,9.84a2.057,2.057,0,0,0,.2,1.126h.006a.592.592,0,0,1,.107.079q0-6.034-.007-12.069H204a2.29,2.29,0,0,0-.129,1.023" transform="translate(-150.969 -213.596)" fill="#fec638"/>
    <path id="Trazado_179854" data-name="Trazado 179854" d="M204.566,287.711c0-.085,0-.169,0-.253a.981.981,0,0,0-.175.253h.175" transform="translate(-151.359 -212.873)" fill="#fec638"/>
    <path id="Trazado_179855" data-name="Trazado 179855" d="M204.77,334.721a.613.613,0,0,0-.107-.08h-.006a1.1,1.1,0,0,0,.11.148h0v-.067" transform="translate(-151.555 -247.813)" fill="#fec638"/>
    <path id="Trazado_179856" data-name="Trazado 179856" d="M232.82,289.669c.011,3.1,0,6.2.008,9.3,0,1.245.063,1.3,1.322,1.306,1,.007,2-.005,3,.006a1.948,1.948,0,0,1,1.038.2,2.89,2.89,0,0,1-.16-1.226q-.008-4.84,0-9.681a2.489,2.489,0,0,1,.131-1.119q-2.738.048-5.476,0a2.712,2.712,0,0,1,.131,1.219" transform="translate(-172.315 -213.608)" fill="#fec638"/>
    <path id="Trazado_179857" data-name="Trazado 179857" d="M237.676,287.714a1.017,1.017,0,0,1,.176-.258h-5.824a1.074,1.074,0,0,1,.172.258q2.738.052,5.476,0" transform="translate(-171.826 -212.872)" fill="#fec638"/>
    <path id="Trazado_179858" data-name="Trazado 179858" d="M253.269,289.561q-.014,4.84,0,9.681a2.891,2.891,0,0,0,.16,1.226,1.038,1.038,0,0,1,.147.108h0q0-6.068,0-12.136l-.176,0a2.484,2.484,0,0,0-.131,1.119" transform="translate(-187.55 -213.6)" fill="#fec638"/>
    <path id="Trazado_179859" data-name="Trazado 179859" d="M253.969,287.711v-.255a1.024,1.024,0,0,0-.176.258l.176,0" transform="translate(-187.943 -212.872)" fill="#fec638"/>
    <path id="Trazado_179860" data-name="Trazado 179860" d="M231.942,299.529c-.012.879.259,1.1,1.1,1.068,1.558-.062,3.12-.019,4.68-.017a.628.628,0,0,1-.077-.1l0-.011a1.948,1.948,0,0,0-1.038-.2c-1-.011-2,0-3-.006-1.259-.009-1.319-.06-1.322-1.306-.008-3.1,0-6.2-.008-9.3a2.712,2.712,0,0,0-.131-1.219l-.165,0h-.006c0,3.7.027,7.393-.023,11.088" transform="translate(-171.761 -213.601)" fill="#fec638"/>
    <path id="Trazado_179861" data-name="Trazado 179861" d="M232.036,287.712l.165,0a1.09,1.09,0,0,0-.172-.258c0,.085,0,.17,0,.255h.006" transform="translate(-171.826 -212.872)" fill="#fec638"/>
    <path id="Trazado_179862" data-name="Trazado 179862" d="M254.043,334.908a1.06,1.06,0,0,0-.147-.108l0,.011a.65.65,0,0,0,.077.1h.066Z" transform="translate(-188.019 -247.931)" fill="#fec638"/>
    <path id="Trazado_179863" data-name="Trazado 179863" d="M61.378,346.452c-.011-3.1,0-6.2-.008-9.3,0-1.246-.064-1.3-1.322-1.307-1-.008-2,0-3-.006a1.947,1.947,0,0,1-1.038-.2,3.147,3.147,0,0,1,.161,1.324q.008,4.745,0,9.49a2.634,2.634,0,0,1-.138,1.213q2.743-.048,5.487,0a2.669,2.669,0,0,1-.136-1.215" transform="translate(-41.475 -248.554)" fill="#fef159"/>
    <path id="Trazado_179864" data-name="Trazado 179864" d="M61.065,381.92q-2.743-.052-5.487,0a1.073,1.073,0,0,1-.177.258H61.24a1.075,1.075,0,0,1-.175-.259" transform="translate(-41.026 -282.807)" fill="#fef159"/>
    <path id="Trazado_179865" data-name="Trazado 179865" d="M55.717,346.148q.015-4.745,0-9.49a3.151,3.151,0,0,0-.161-1.324,1.069,1.069,0,0,1-.146-.107h-.006q0,6.068-.005,12.135l.177,0a2.637,2.637,0,0,0,.138-1.213" transform="translate(-41.027 -248.248)" fill="#fef159"/>
    <path id="Trazado_179866" data-name="Trazado 179866" d="M55.4,381.995v.256a1.068,1.068,0,0,0,.177-.258l-.177,0" transform="translate(-41.027 -282.879)" fill="#fef159"/>
    <path id="Trazado_179867" data-name="Trazado 179867" d="M61.471,336.208c.011-.879-.259-1.1-1.1-1.067-1.558.062-3.12.018-4.68.016a.647.647,0,0,1,.077.1l0,.01a1.947,1.947,0,0,0,1.038.2c1,.011,2,0,3,.006,1.258.009,1.318.061,1.322,1.307.009,3.1,0,6.2.008,9.3a2.67,2.67,0,0,0,.136,1.215l.163,0h.012c0-3.7-.032-7.393.014-11.088" transform="translate(-41.243 -248.181)" fill="#fef159"/>
    <path id="Trazado_179868" data-name="Trazado 179868" d="M77.394,381.994l-.163,0a1.076,1.076,0,0,0,.175.259c0-.086,0-.171,0-.257h-.012" transform="translate(-57.192 -282.879)" fill="#fef159"/>
    <path id="Trazado_179869" data-name="Trazado 179869" d="M55.444,335.214a1.071,1.071,0,0,0,.146.107l0-.011a.63.63,0,0,0-.077-.1h-.065Z" transform="translate(-41.058 -248.235)" fill="#fef159"/>
    <path id="Trazado_179870" data-name="Trazado 179870" d="M55.444,335.232Z" transform="translate(-41.058 -248.251)" fill="#fef159"/>
    <path id="Trazado_179871" data-name="Trazado 179871" d="M55.422,335.216h.006l-.006-.006Z" transform="translate(-41.042 -248.235)" fill="#fef159"/>
    <path id="Trazado_179872" data-name="Trazado 179872" d="M55.424,335.21h0l0,0,0,0" transform="translate(-41.043 -248.235)" fill="#fef159"/>
    <path id="Trazado_179873" data-name="Trazado 179873" d="M55.437,335.223h0l0,0,0,0" transform="translate(-41.052 -248.243)" fill="#fef159"/>
    <path id="Trazado_179874" data-name="Trazado 179874" d="M55.428,335.21l0,0,0,0v0h0" transform="translate(-41.046 -248.235)" fill="#fef159"/>
    <path id="Trazado_179875" data-name="Trazado 179875" d="M55.422,335.21l.006.006,0,0,0,0" transform="translate(-41.042 -248.235)" fill="#fef159"/>
    <path id="Trazado_179876" data-name="Trazado 179876" d="M211.041,346.453c-.011-3.1,0-6.2-.008-9.3,0-1.245-.063-1.3-1.322-1.305-1-.008-2,.005-3-.006a1.953,1.953,0,0,1-1.035-.194l0,0a3.277,3.277,0,0,1,.156,1.334q.007,4.738,0,9.476a2.645,2.645,0,0,1-.136,1.212c1.826-.031,3.652-.035,5.479,0a2.737,2.737,0,0,1-.129-1.22" transform="translate(-152.308 -248.559)" fill="#fec638"/>
    <path id="Trazado_179877" data-name="Trazado 179877" d="M210.718,381.921q-2.74-.051-5.479,0a1.066,1.066,0,0,1-.176.258h5.825a1.081,1.081,0,0,1-.17-.257" transform="translate(-151.857 -282.808)" fill="#fec638"/>
    <path id="Trazado_179878" data-name="Trazado 179878" d="M205.377,346.148q.015-4.738,0-9.476a3.268,3.268,0,0,0-.156-1.334l0,0a1.045,1.045,0,0,1-.15-.11h0q0,6.068,0,12.135l.176,0a2.645,2.645,0,0,0,.136-1.212" transform="translate(-151.857 -248.247)" fill="#fec638"/>
    <path id="Trazado_179879" data-name="Trazado 179879" d="M205.064,381.994v.256a1.075,1.075,0,0,0,.176-.258l-.176,0" transform="translate(-151.857 -282.878)" fill="#fec638"/>
    <path id="Trazado_179880" data-name="Trazado 179880" d="M211.128,336.127c.009-.789-.247-.992-1-.969-1.589.048-3.182.015-4.773.013a.628.628,0,0,1,.081.113,1.952,1.952,0,0,0,1.035.194c1,.011,2,0,3,.006,1.259.009,1.319.06,1.322,1.305.008,3.1,0,6.2.008,9.3a2.736,2.736,0,0,0,.129,1.22l.17,0c0-3.728-.02-7.456.02-11.184" transform="translate(-152.076 -248.195)" fill="#fec638"/>
    <path id="Trazado_179881" data-name="Trazado 179881" d="M227.03,381.994l-.17,0a1.071,1.071,0,0,0,.17.258c0-.085,0-.17,0-.255" transform="translate(-167.998 -282.878)" fill="#fec638"/>
    <path id="Trazado_179882" data-name="Trazado 179882" d="M205.1,335.212v0a1.053,1.053,0,0,0,.15.109.622.622,0,0,0-.081-.113H205.1" transform="translate(-151.88 -248.237)" fill="#fec638"/>
    <path id="Trazado_179883" data-name="Trazado 179883" d="M205.078,335.212h0l0,0,0,0" transform="translate(-151.867 -248.236)" fill="#fec638"/>
    <path id="Trazado_179884" data-name="Trazado 179884" d="M205.077,335.212v0h0Z" transform="translate(-151.867 -248.237)" fill="#fec638"/>
    <path id="Trazado_179885" data-name="Trazado 179885" d="M205.089,335.223h0l0,0,0,0" transform="translate(-151.874 -248.243)" fill="#fec638"/>
    <path id="Trazado_179886" data-name="Trazado 179886" d="M205.077,335.212l0,0,0,0,0,0" transform="translate(-151.867 -248.237)" fill="#fec638"/>
    <path id="Trazado_179887" data-name="Trazado 179887" d="M205.081,335.212l0,0,0,0v0h0" transform="translate(-151.87 -248.237)" fill="#fec638"/>
    <path id="Trazado_179888" data-name="Trazado 179888" d="M260.312,346.565c-.011-3.069,0-6.138-.008-9.207,0-1.352-.054-1.369-1.433-1.409a20.106,20.106,0,0,1-3.958-.139c-.006,0-.009-.007-.015-.01a2.055,2.055,0,0,1,.2,1.127q.011,4.921,0,9.841a2.285,2.285,0,0,1-.129,1.017c1.824-.031,3.649-.035,5.473,0a2.719,2.719,0,0,1-.13-1.219" transform="translate(-188.763 -248.671)" fill="#fec638"/>
    <path id="Trazado_179889" data-name="Trazado 179889" d="M254.657,381.92a.982.982,0,0,1-.18.258H260.3a1.08,1.08,0,0,1-.171-.258c-1.824-.035-3.648-.032-5.473,0" transform="translate(-188.449 -282.807)" fill="#fec638"/>
    <path id="Trazado_179890" data-name="Trazado 179890" d="M260.321,336.207c.012-.88-.26-1.1-1.1-1.067-1.58.063-3.164.017-4.746.016v0h0a1.1,1.1,0,0,1,.11.148l.015.01a20.106,20.106,0,0,0,3.958.139c1.379.04,1.43.058,1.433,1.409.007,3.069,0,6.138.007,9.207a2.724,2.724,0,0,0,.13,1.219l.159,0h.012c0-3.7-.027-7.393.022-11.089" transform="translate(-188.449 -248.181)" fill="#fec638"/>
    <path id="Trazado_179891" data-name="Trazado 179891" d="M276.42,381.994l-.159,0a1.08,1.08,0,0,0,.171.258c0-.085,0-.17,0-.256h-.012" transform="translate(-204.581 -282.879)" fill="#fec638"/>
    <path id="Trazado_179892" data-name="Trazado 179892" d="M254.774,346.542q.015-4.92,0-9.841a2.056,2.056,0,0,0-.2-1.127.611.611,0,0,1-.114-.079q0,6.033,0,12.066l.18,0a2.285,2.285,0,0,0,.129-1.017" transform="translate(-188.438 -248.446)" fill="#fec638"/>
    <path id="Trazado_179893" data-name="Trazado 179893" d="M254.476,381.993v.256a.98.98,0,0,0,.18-.258l-.18,0" transform="translate(-188.449 -282.877)" fill="#fec638"/>
    <path id="Trazado_179894" data-name="Trazado 179894" d="M254.466,335.23h0v.069a.6.6,0,0,0,.113.079,1.1,1.1,0,0,0-.11-.148" transform="translate(-188.439 -248.25)" fill="#fec638"/>
    <path id="Trazado_179895" data-name="Trazado 179895" d="M254.462,335.212h0l0,0,0,0" transform="translate(-188.439 -248.237)" fill="#fec638"/>
    <path id="Trazado_179896" data-name="Trazado 179896" d="M254.471,335.224h0l0,0,0,0" transform="translate(-188.444 -248.244)" fill="#fec638"/>
    <path id="Trazado_179897" data-name="Trazado 179897" d="M254.467,335.212h0l0,0Z" transform="translate(-188.438 -248.237)" fill="#fec638"/>
    <path id="Trazado_179898" data-name="Trazado 179898" d="M254.466,335.22l0,0,0,0v0h0" transform="translate(-188.439 -248.24)" fill="#fec638"/>
    <path id="Trazado_179899" data-name="Trazado 179899" d="M254.467,335.216l0,0,0,0,0,0" transform="translate(-188.438 -248.236)" fill="#fec638"/>
    <path id="Trazado_179900" data-name="Trazado 179900" d="M155.754,335.773c.052,3.723.017,7.445.016,11.168a1.848,1.848,0,0,1-.127.825c.907-.021,1.815-.025,2.723,0h.017q-.007-5.928-.015-11.855a7.867,7.867,0,0,1-2.613-.142" transform="translate(-115.259 -248.652)" fill="#fef159"/>
    <path id="Trazado_179901" data-name="Trazado 179901" d="M157.832,381.951c-.908-.03-1.815-.025-2.723,0a.913.913,0,0,1-.187.258h2.927c0-.085,0-.169,0-.254h-.017" transform="translate(-114.726 -282.833)" fill="#fef159"/>
    <path id="Trazado_179902" data-name="Trazado 179902" d="M155.238,346.536c0-3.723.036-7.445-.016-11.168a2.125,2.125,0,0,1-.288-.142q-.005,6.069-.01,12.137l.186,0a1.848,1.848,0,0,0,.128-.825" transform="translate(-114.727 -248.247)" fill="#fef159"/>
    <path id="Trazado_179903" data-name="Trazado 179903" d="M155.111,381.994l-.186,0c0,.085,0,.17,0,.256a.922.922,0,0,0,.187-.258" transform="translate(-114.727 -282.88)" fill="#fef159"/>
    <path id="Trazado_179904" data-name="Trazado 179904" d="M158.682,335.512c0-.091,0-.182,0-.273h0l-2.614-.009c0,.047,0,.094,0,.141a7.854,7.854,0,0,0,2.613.142" transform="translate(-115.573 -248.249)" fill="#fef159"/>
    <path id="Trazado_179905" data-name="Trazado 179905" d="M155.249,335.227h-.286a2.093,2.093,0,0,0,.288.142c0-.047,0-.094,0-.141" transform="translate(-114.756 -248.247)" fill="#fef159"/>
    <path id="Trazado_179906" data-name="Trazado 179906" d="M169.307,346.979c-.011-3.067,0-6.134-.008-9.2,0-1.352-.061-1.4-1.427-1.41-.332,0-.663,0-.995-.012a2.345,2.345,0,0,1,.129.991q.012,4.916,0,9.833a2.313,2.313,0,0,1-.127,1.02q1.279-.034,2.559,0a2.72,2.72,0,0,1-.13-1.22" transform="translate(-123.579 -249.085)" fill="#fec638"/>
    <path id="Trazado_179907" data-name="Trazado 179907" d="M166.38,381.953a.99.99,0,0,1-.176.257h2.9a1.083,1.083,0,0,1-.17-.257q-1.279-.032-2.559,0" transform="translate(-123.08 -282.837)" fill="#fec638"/>
    <path id="Trazado_179908" data-name="Trazado 179908" d="M167.327,335.447c1.366.009,1.424.057,1.427,1.41.007,3.067,0,6.134.008,9.2a2.723,2.723,0,0,0,.13,1.22l.17,0c0-3.7-.027-7.4.023-11.093.012-.884-.267-1.146-1.1-1.058-.608.064-1.227.019-1.841.023h0a1.054,1.054,0,0,1,.191.283c.331.016.663.01.995.012" transform="translate(-123.034 -248.163)" fill="#fec638"/>
    <path id="Trazado_179909" data-name="Trazado 179909" d="M176.742,382a1.077,1.077,0,0,0,.17.257c0-.085,0-.169,0-.254l-.17,0" transform="translate(-130.884 -282.882)" fill="#fec638"/>
    <path id="Trazado_179910" data-name="Trazado 179910" d="M166.462,347.152q.014-4.916,0-9.832a2.354,2.354,0,0,0-.129-.991c-.056,0-.112,0-.167-.009h-.023q.008,5.927.015,11.855l.176,0a2.316,2.316,0,0,0,.127-1.02" transform="translate(-123.036 -249.056)" fill="#fec638"/>
    <path id="Trazado_179911" data-name="Trazado 179911" d="M166.2,382c0,.085,0,.169,0,.254a.984.984,0,0,0,.176-.257l-.176,0" transform="translate(-123.079 -282.885)" fill="#fec638"/>
    <path id="Trazado_179912" data-name="Trazado 179912" d="M166.165,335.539c.056,0,.112.006.167.009a1.053,1.053,0,0,0-.191-.283c0,.091,0,.182,0,.273h.023" transform="translate(-123.034 -248.276)" fill="#fec638"/>
    <path id="Trazado_179913" data-name="Trazado 179913" d="M53.068,65.375A22.31,22.31,0,0,1,75.362,42.561q0-2.895.006-5.79A1.635,1.635,0,0,1,74.322,37a27.855,27.855,0,0,0-11.8,3.171c-8.418,4.653-13.549,11.7-14.784,21.285A26.645,26.645,0,0,0,54.276,83.06,27.159,27.159,0,0,0,72.86,92.614c.643.06,1.279.183,1.927.2a.9.9,0,0,1,.58.2l0-5.787a22.324,22.324,0,0,1-22.3-21.852" transform="translate(-35.165 -27.23)" fill="#fef159"/>
    <path id="Trazado_179914" data-name="Trazado 179914" d="M74.081,92.744c-.648-.021-1.284-.143-1.927-.2a27.16,27.16,0,0,1-18.585-9.554A26.646,26.646,0,0,1,47.03,61.381C48.265,51.793,53.4,44.749,61.814,40.1a27.855,27.855,0,0,1,11.8-3.171,1.635,1.635,0,0,0,1.046-.228v-.026a28.149,28.149,0,0,0,0,56.3v-.031a.9.9,0,0,0-.58-.2" transform="translate(-34.459 -27.156)" fill="#fef159"/>
    <path id="Trazado_179915" data-name="Trazado 179915" d="M132.465,294.814v3.976c0,2.111,0,2.111,2.126,2.034a.753.753,0,0,1,.1,0c.483.046.7-.139.7-.658-.015-3.523-.008-7.047-.008-10.571,0-.309-.029-.576-.44-.61-.543-.045-1.083-.126-1.624-.2-.6-.078-.875.115-.86.788.04,1.745.013,3.491.013,5.237" transform="translate(-98.085 -213.847)" fill="#fef159"/>
    <path id="Trazado_179916" data-name="Trazado 179916" d="M159.7,92.38a28.047,28.047,0,0,0,14.075-6.952,27.512,27.512,0,0,0,8.808-16.435A26.994,26.994,0,0,0,179.95,52.4a27.73,27.73,0,0,0-12.444-12.5,26.57,26.57,0,0,0-11.369-2.936,2.288,2.288,0,0,1-1.046-.145l-.095-.1,0,0a1.04,1.04,0,0,1,.265.684,33.761,33.761,0,0,1-.088,4.887.746.746,0,0,1-.169.247,22.678,22.678,0,0,1,14.713,5.673,21.683,21.683,0,0,1,7.347,13.841,21.385,21.385,0,0,1-4.322,16.174,21.955,21.955,0,0,1-13.632,8.5c-1.348.263-2.739.3-4.111.442a.675.675,0,0,1,.16.224,29.758,29.758,0,0,1,.089,5.006.942.942,0,0,1-.252.589l0,0,.093-.093c1.527-.256,3.086-.23,4.61-.519" transform="translate(-114.779 -27.192)" fill="#fec638"/>
    <path id="Trazado_179917" data-name="Trazado 179917" d="M154.945,253.655h0v0Z" transform="translate(-114.743 -187.84)" fill="#fec638"/>
    <path id="Trazado_179918" data-name="Trazado 179918" d="M154.952,36.671h0l.011.015,0,0-.013-.013" transform="translate(-114.747 -27.156)" fill="#fec638"/>
    <path id="Trazado_179919" data-name="Trazado 179919" d="M154.951,253.606h0l.015-.015,0,0-.013.017" transform="translate(-114.747 -187.792)" fill="#fec638"/>
    <path id="Trazado_179920" data-name="Trazado 179920" d="M154.945,253.654v0h0" transform="translate(-114.743 -187.84)" fill="#fec638"/>
    <path id="Trazado_179921" data-name="Trazado 179921" d="M154.948,36.664h0l0,0Z" transform="translate(-114.743 -27.151)" fill="#fec638"/>
    <path id="Trazado_179922" data-name="Trazado 179922" d="M154.946,36.665v0h0v0" transform="translate(-114.743 -27.151)" fill="#fec638"/>
    <path id="Trazado_179923" data-name="Trazado 179923" d="M155.1,36.769a2.288,2.288,0,0,0,1.046.145,26.566,26.566,0,0,1,11.369,2.936,27.73,27.73,0,0,1,12.444,12.5,27,27,0,0,1,2.634,16.591,27.513,27.513,0,0,1-8.808,16.435,28.047,28.047,0,0,1-14.075,6.952c-1.525.289-3.083.263-4.61.519l-.094.093.017.016a28.151,28.151,0,1,0,0-56.3l-.016.015.095.1" transform="translate(-114.784 -27.145)" fill="#fec638"/>
    <path id="Trazado_179924" data-name="Trazado 179924" d="M154.953,36.666l.013.013.016-.015h-.029Z" transform="translate(-114.748 -27.151)" fill="#fec638"/>
    <path id="Trazado_179925" data-name="Trazado 179925" d="M154.968,253.6l-.015.015v0h.031l-.017-.016" transform="translate(-114.748 -187.798)" fill="#fec638"/>
    <path id="Trazado_179926" data-name="Trazado 179926" d="M155.114,231.384a.672.672,0,0,0-.16-.224h0l-.018.018,0,5.787.014.014a.94.94,0,0,0,.252-.589,29.758,29.758,0,0,0-.089-5.006" transform="translate(-114.734 -171.182)" fill="#fec638"/>
    <path id="Trazado_179927" data-name="Trazado 179927" d="M154.924,42.529l.016.016h.011a.754.754,0,0,0,.169-.247,33.759,33.759,0,0,0,.088-4.887,1.039,1.039,0,0,0-.265-.684l-.012.011Q154.927,39.634,154.924,42.529Z" transform="translate(-114.727 -27.198)" fill="#fec638"/>
    <path id="Trazado_179928" data-name="Trazado 179928" d="M154.948,36.666l0,0v0Z" transform="translate(-114.743 -27.151)" fill="#fec638"/>
    <path id="Trazado_179929" data-name="Trazado 179929" d="M154.958,36.686l-.011-.015h0V36.7l.012-.011" transform="translate(-114.743 -27.156)" fill="#fec638"/>
    <path id="Trazado_179930" data-name="Trazado 179930" d="M154.947,253.654v0l0,0h0" transform="translate(-114.743 -187.84)" fill="#fec638"/>
    <path id="Trazado_179931" data-name="Trazado 179931" d="M154.96,253.549l-.015-.014c0,.01,0,.021,0,.031h0l.013-.017" transform="translate(-114.742 -187.752)" fill="#fec638"/>
    <path id="Trazado_179932" data-name="Trazado 179932" d="M92.065,99.167h0v0c-.742,0-1.484-.018-2.226.006-.49.016-.756-.159-.68-.668.25-1.675-.188-2.569-2.058-3.184-3.018-.992-4.655-3.494-5.282-6.608-.2-1.007-.052-1.195.974-1.2,1.356,0,2.712,0,4.068,0,.378,0,.675.021.8.485A2.9,2.9,0,0,0,91.1,90.241c.292-.024.586-.007.88,0,.03-.017.058-.038.088-.056V84.412h0v0a10.358,10.358,0,0,1-6.535-1.553A8.735,8.735,0,0,1,83.47,70.409a8.287,8.287,0,0,1,5.066-3.268c.5-.1.625-.364.619-.8-.009-.614.021-1.228-.007-1.841-.023-.513.2-.685.689-.669.742.024,1.485.006,2.227.006v0h0q0-2.319.008-4.638a1.373,1.373,0,0,1-.889.231,22,22,0,0,0-13.522,5.4,22.023,22.023,0,0,0-3.247,29.833,21.781,21.781,0,0,0,14.328,8.63c.857.148,1.737.149,2.6.282a1.35,1.35,0,0,1,.734.236h0q-.007-2.321-.014-4.642" transform="translate(-51.861 -43.835)" fill="#fec638"/>
    <path id="Trazado_179933" data-name="Trazado 179933" d="M90.564,103.492c-.863-.133-1.743-.134-2.6-.282a21.779,21.779,0,0,1-14.328-8.63,22.023,22.023,0,0,1,3.247-29.833,22,22,0,0,1,13.522-5.4,1.373,1.373,0,0,0,.888-.231V59.1l-.016-.017a22.333,22.333,0,0,0,0,44.666l.017-.022a1.35,1.35,0,0,0-.734-.236" transform="translate(-51.081 -43.754)" fill="#fec638"/>
    <path id="Trazado_179934" data-name="Trazado 179934" d="M155,231.143h0v0h0" transform="translate(-114.783 -171.169)" fill="#fec638"/>
    <path id="Trazado_179935" data-name="Trazado 179935" d="M154.94,59.1l-.016-.016.016.017Z" transform="translate(-114.727 -43.755)" fill="#fec638"/>
    <path id="Trazado_179936" data-name="Trazado 179936" d="M154.951,231.147l-.017.022.018-.018v0h0" transform="translate(-114.734 -171.173)" fill="#fec638"/>
    <path id="Trazado_179937" data-name="Trazado 179937" d="M155.119,63.631a.944.944,0,0,1-.142.186c.734,0,1.469.018,2.2-.005.487-.015.779.16.678.665-.359,1.783.4,2.541,2.106,3.189a8.273,8.273,0,0,1,5.233,6.574c.238,1.228.1,1.419-1.132,1.42-1.291,0-2.583,0-3.875,0-.306,0-.664.093-.784-.359-.595-2.223-2.229-2.72-4.259-2.551-.064.005-.128,0-.192,0q0,2.912,0,5.823a10.064,10.064,0,0,1,6.072,1.18,8.4,8.4,0,0,1,4.22,6.556c.411,4.007-1.314,6.877-4.7,8.865a5.881,5.881,0,0,1-1.91.668c-.592.111-.778.4-.787.993-.036,2.319-.054,2.318-2.416,2.318h-.475a1.243,1.243,0,0,1,.129.129,9.46,9.46,0,0,1-.121,4.509l.073-.093c1.04-.594,2.215-.3,3.321-.489a21.907,21.907,0,0,0,11.564-5.683,21.895,21.895,0,0,0,1.633-30.416A21.376,21.376,0,0,0,158.006,59.7a12.644,12.644,0,0,1-2.958-.438l-.082-.089,0,0a9.933,9.933,0,0,1,.155,4.456" transform="translate(-114.748 -43.82)" fill="#fd9c4e"/>
    <path id="Trazado_179938" data-name="Trazado 179938" d="M154.992,59.159l0,0,0,.007,0,0" transform="translate(-114.774 -43.806)" fill="#fd9c4e"/>
    <path id="Trazado_179939" data-name="Trazado 179939" d="M155.087,59.244a12.631,12.631,0,0,0,2.958.438,22.043,22.043,0,0,1,18.69,24.963,21.206,21.206,0,0,1-6.77,12.863A21.908,21.908,0,0,1,158.4,103.19c-1.106.187-2.281-.105-3.321.489l-.073.093,0,.006,0,0c1.372-.141,2.763-.179,4.111-.442a21.954,21.954,0,0,0,13.632-8.5,21.383,21.383,0,0,0,4.322-16.174,21.682,21.682,0,0,0-7.347-13.84,22.678,22.678,0,0,0-14.713-5.673l-.006.006.082.089" transform="translate(-114.787 -43.802)" fill="#fd9c4e"/>
    <path id="Trazado_179940" data-name="Trazado 179940" d="M154.985,59.146v0l0,0,.006-.006Z" transform="translate(-114.772 -43.8)" fill="#fd9c4e"/>
    <path id="Trazado_179941" data-name="Trazado 179941" d="M155,231.155h0l0,0v0" transform="translate(-114.786 -171.177)" fill="#fd9c4e"/>
    <path id="Trazado_179942" data-name="Trazado 179942" d="M155.088,213.382a1.24,1.24,0,0,0-.129-.129h-.009q.007,2.321.014,4.642l0,0a9.457,9.457,0,0,0,.121-4.509" transform="translate(-114.746 -157.922)" fill="#fd9c4e"/>
    <path id="Trazado_179943" data-name="Trazado 179943" d="M154.977,63.823a.962.962,0,0,0,.142-.186,9.933,9.933,0,0,0-.155-4.456l0,0q0,2.319-.008,4.638h.024" transform="translate(-114.748 -43.826)" fill="#fd9c4e"/>
    <path id="Trazado_179944" data-name="Trazado 179944" d="M154.985,59.162l0,0,0-.007h0v.011" transform="translate(-114.772 -43.803)" fill="#fd9c4e"/>
    <path id="Trazado_179945" data-name="Trazado 179945" d="M155,231.135h0l0-.007,0,0Z" transform="translate(-114.785 -171.159)" fill="#fd9c4e"/>
    <path id="Trazado_179946" data-name="Trazado 179946" d="M154.986,59.148v0h0" transform="translate(-114.772 -43.8)" fill="#fd9c4e"/>
    <path id="Trazado_179947" data-name="Trazado 179947" d="M155,231.151v0h0" transform="translate(-114.786 -171.175)" fill="#fd9c4e"/>
    <path id="Trazado_179948" data-name="Trazado 179948" d="M126.116,91.895a12.974,12.974,0,0,1-2.059-.05,2.913,2.913,0,0,1,.575-5.776c.494,0,.988,0,1.481,0,.013-.017.024-.036.039-.052l.029-.009q0-4.422,0-8.845c-.334.31-.8.223-1.224.234-1.412.037-1.412.028-1.423,1.475,0,.194-.009.388-.007.582a1.191,1.191,0,0,1-1.041,1.29,8.24,8.24,0,0,0-5.6,4.7,8.425,8.425,0,0,0,5.438,11.659,9.872,9.872,0,0,0,2.782.358,1.437,1.437,0,0,1,1.072.229q0-2.863,0-5.725a.683.683,0,0,1-.067-.073" transform="translate(-85.979 -57.142)" fill="#fef159"/>
    <path id="Trazado_179949" data-name="Trazado 179949" d="M124.35,97.38a9.873,9.873,0,0,1-2.782-.358,8.425,8.425,0,0,1-5.438-11.659,8.238,8.238,0,0,1,5.6-4.7,1.191,1.191,0,0,0,1.041-1.29c0-.194.005-.388.007-.582.011-1.447.011-1.437,1.423-1.475.423-.011.89.077,1.224-.234v-.022c-.742,0-1.485.018-2.227-.006-.49-.016-.712.156-.689.669.028.612,0,1.227.007,1.841a.676.676,0,0,1-.619.8,8.287,8.287,0,0,0-5.066,3.268,8.735,8.735,0,0,0,2.059,12.448,10.358,10.358,0,0,0,6.535,1.554v-.024a1.437,1.437,0,0,0-1.072-.229" transform="translate(-85.219 -57.057)" fill="#fef159"/>
    <path id="Trazado_179950" data-name="Trazado 179950" d="M154.683,111.312h.068v-.06l-.03.008c-.015.016-.025.035-.039.052" transform="translate(-114.548 -82.386)" fill="#fef159"/>
    <path id="Trazado_179951" data-name="Trazado 179951" d="M154.758,133.942h-.067a.686.686,0,0,0,.067.073v-.073" transform="translate(-114.554 -99.189)" fill="#fef159"/>
    <path id="Trazado_179952" data-name="Trazado 179952" d="M122.2,170.423a1.668,1.668,0,0,0-1.889-1.088c-.968.054-1.94.024-2.91.01-.75-.01-.967.326-.816,1.034A8.367,8.367,0,0,0,122.459,177c1.284.427,1.384.495,1.4,1.808,0,.227.018.454,0,.679-.056.7.255.982.963.985.564,0,1.189-.171,1.678.248q0-4.46,0-8.92h-.086a3.166,3.166,0,0,1-4.218-1.372" transform="translate(-86.302 -125.394)" fill="#fef159"/>
    <path id="Trazado_179953" data-name="Trazado 179953" d="M123.8,179.728c-.708,0-1.019-.281-.963-.985.018-.225,0-.452,0-.679-.02-1.313-.12-1.381-1.4-1.808a8.367,8.367,0,0,1-5.875-6.618c-.15-.707.066-1.044.816-1.034.97.014,1.943.045,2.91-.01a1.668,1.668,0,0,1,1.889,1.088,3.166,3.166,0,0,0,4.219,1.372c-.294,0-.589-.019-.881,0a2.9,2.9,0,0,1-3.438-2.245c-.126-.464-.422-.487-.8-.485-1.356.009-2.712,0-4.068,0-1.026,0-1.176.19-.974,1.2.627,3.114,2.264,5.616,5.282,6.608,1.87.615,2.309,1.509,2.059,3.184-.076.509.19.683.68.668.741-.024,1.484-.006,2.226-.006v-.007c-.489-.419-1.115-.245-1.678-.248" transform="translate(-85.277 -124.653)" fill="#fef159"/>
    <path id="Trazado_179954" data-name="Trazado 179954" d="M157.25,162.041a2.858,2.858,0,0,0,2.158-3.2,3.015,3.015,0,0,0-2.91-2.473c-.5-.023-1.011-.005-1.517,0a.925.925,0,0,1,.12.153,20.7,20.7,0,0,1,0,5.52c-.048.035-.1.064-.151.1v.055a9.013,9.013,0,0,0,2.3-.148" transform="translate(-114.748 -115.789)" fill="#fd9c4e"/>
    <path id="Trazado_179955" data-name="Trazado 179955" d="M155.1,156.54a.922.922,0,0,0-.12-.153h-.029v5.769c.051-.032.1-.06.151-.1a20.694,20.694,0,0,0,0-5.52" transform="translate(-114.748 -115.81)" fill="#fd9c4e"/>
    <path id="Trazado_179956" data-name="Trazado 179956" d="M154.947,156.388Z" transform="translate(-114.744 -115.811)" fill="#fd9c4e"/>
    <path id="Trazado_179957" data-name="Trazado 179957" d="M154.948,178.834h0Z" transform="translate(-114.743 -132.433)" fill="#fec638"/>
    <path id="Trazado_179958" data-name="Trazado 179958" d="M154.946,178.834v0h0Z" transform="translate(-114.743 -132.433)" fill="#fec638"/>
    <path id="Trazado_179959" data-name="Trazado 179959" d="M155.08,139.976l-.117.125.008.006a3.63,3.63,0,0,1,4.019.948,3.159,3.159,0,0,1,0,3.945,3.629,3.629,0,0,1-4.039.94h0l.128.141a2.539,2.539,0,0,1,.177,1.229q.01,3.09,0,6.181a1.915,1.915,0,0,1-.3,1.373h0l.106-.105a4.092,4.092,0,0,1,1.722-.143c.571,0,.9-.246.808-.808-.286-1.711.554-2.323,2.1-2.907a7.893,7.893,0,0,0,5.364-7.682,8.062,8.062,0,0,0-4.4-7.639,7.726,7.726,0,0,0-4.269-1.04,2.765,2.765,0,0,1-1.337-.128.548.548,0,0,1,.127.3,22.261,22.261,0,0,1-.094,5.267" transform="translate(-114.748 -99.538)" fill="#fec638"/>
    <path id="Trazado_179960" data-name="Trazado 179960" d="M154.948,156.346l.019-.008-.008-.006-.012.013h0v0l0,0Z" transform="translate(-114.743 -115.769)" fill="#fec638"/>
    <path id="Trazado_179961" data-name="Trazado 179961" d="M154.947,156.386h0" transform="translate(-114.744 -115.809)" fill="#fec638"/>
    <path id="Trazado_179962" data-name="Trazado 179962" d="M154.944,213.246v0Z" transform="translate(-114.741 -157.916)" fill="#fec638"/>
    <path id="Trazado_179963" data-name="Trazado 179963" d="M154.949,213.236h0l0,0h0l0,0" transform="translate(-114.745 -157.907)" fill="#fec638"/>
    <rect id="Rect치ngulo_66654" data-name="Rect치ngulo 66654" width="0.001" height="0.002" transform="translate(40.203 55.33)" fill="#fec638"/>
    <path id="Trazado_179964" data-name="Trazado 179964" d="M154.955,133.851c.032.04.064.081.1.123a2.768,2.768,0,0,0,1.337.128,7.723,7.723,0,0,1,4.269,1.04,8.062,8.062,0,0,1,4.4,7.639,7.893,7.893,0,0,1-5.364,7.682c-1.547.583-2.387,1.2-2.1,2.907.094.562-.237.805-.808.808a4.1,4.1,0,0,0-1.722.143l-.106.105.005,0h.475c2.362,0,2.381,0,2.416-2.318.009-.59.195-.882.786-.993a5.879,5.879,0,0,0,1.91-.668c3.383-1.989,5.108-4.858,4.7-8.866a8.4,8.4,0,0,0-4.22-6.555,10.064,10.064,0,0,0-6.072-1.18v0Z" transform="translate(-114.75 -99.098)" fill="#fec638"/>
    <path id="Trazado_179965" data-name="Trazado 179965" d="M154.95,213.238v0h.008l-.005,0,0,0" transform="translate(-114.746 -157.908)" fill="#fec638"/>
    <path id="Trazado_179966" data-name="Trazado 179966" d="M154.947,134.224v5.725l.013.011.117-.125a22.26,22.26,0,0,0,.094-5.267.548.548,0,0,0-.127-.295c-.03-.014-.06-.025-.089-.041l-.008-.008" transform="translate(-114.743 -99.398)" fill="#fec638"/>
    <path id="Trazado_179967" data-name="Trazado 179967" d="M154.96,156.3l-.013-.011v.024h0l.012-.013" transform="translate(-114.744 -115.738)" fill="#fec638"/>
    <path id="Trazado_179968" data-name="Trazado 179968" d="M154.949,134.014l.008.008c.029.016.059.027.089.041-.031-.042-.063-.083-.1-.123h0v.073" transform="translate(-114.745 -99.188)" fill="#fec638"/>
    <path id="Trazado_179969" data-name="Trazado 179969" d="M155.251,186.391q.011-3.09,0-6.181a2.541,2.541,0,0,0-.178-1.229l-.128-.141h0v8.92l0,0a1.917,1.917,0,0,0,.3-1.373" transform="translate(-114.741 -132.438)" fill="#fec638"/>
    <path id="Trazado_179970" data-name="Trazado 179970" d="M154.945,213.246v0l0,0Z" transform="translate(-114.741 -157.916)" fill="#fec638"/>
    <path id="Trazado_179971" data-name="Trazado 179971" d="M154.948,213.223l0,0v.007h0l0,0" transform="translate(-114.742 -157.897)" fill="#fec638"/>
    <path id="Trazado_179972" data-name="Trazado 179972" d="M154.948,178.834h0l0,0Z" transform="translate(-114.743 -132.433)" fill="#fec638"/>
    <path id="Trazado_179973" data-name="Trazado 179973" d="M158.992,160.526a3.159,3.159,0,0,0,0-3.945,3.63,3.63,0,0,0-4.019-.948l.01.008c.506,0,1.012-.019,1.517,0a3.015,3.015,0,0,1,2.911,2.473,2.858,2.858,0,0,1-2.158,3.2,9,9,0,0,1-2.3.148h0a3.629,3.629,0,0,0,4.039-.94" transform="translate(-114.748 -115.064)" fill="#fec638"/>
    <path id="Trazado_179974" data-name="Trazado 179974" d="M154.948,156.381l0,0h0Z" transform="translate(-114.743 -115.806)" fill="#fec638"/>
    <path id="Trazado_179975" data-name="Trazado 179975" d="M154.972,156.356l-.019.008h.029l-.01-.008" transform="translate(-114.748 -115.787)" fill="#fec638"/>
    <path id="Trazado_179976" data-name="Trazado 179976" d="M155.289,78.29q.014,3.282,0,6.564a1.758,1.758,0,0,1-.249,1.1,3.458,3.458,0,0,1,4.369,1.865,1.27,1.27,0,0,0,1.331.869c1.1-.031,2.2.009,3.3-.014.88-.018,1.047-.2.892-1.062a8.554,8.554,0,0,0-5.919-6.826c-1.31-.482-1.372-.506-1.385-1.93,0-.259-.007-.518-.005-.776,0-.481-.224-.694-.709-.711a4.7,4.7,0,0,1-1.821-.151l-.1-.1h0a1.657,1.657,0,0,1,.3,1.17" transform="translate(-114.775 -57.109)" fill="#fec638"/>
    <path id="Trazado_179977" data-name="Trazado 179977" d="M154.961,77.089l0,0-.011-.011h0l.01.012" transform="translate(-114.747 -57.078)" fill="#fec638"/>
    <path id="Trazado_179978" data-name="Trazado 179978" d="M154.948,77.07h0l0,0Z" transform="translate(-114.743 -57.073)" fill="#fec638"/>
    <path id="Trazado_179979" data-name="Trazado 179979" d="M154.946,77.07v0h0v0" transform="translate(-114.743 -57.073)" fill="#fec638"/>
    <path id="Trazado_179980" data-name="Trazado 179980" d="M155.062,77.166a4.7,4.7,0,0,0,1.821.151c.485.017.711.23.709.711,0,.259,0,.518.005.776.013,1.424.076,1.449,1.386,1.93a8.553,8.553,0,0,1,5.919,6.826c.155.861-.011,1.044-.892,1.062-1.1.023-2.2-.017-3.3.014a1.27,1.27,0,0,1-1.331-.869,3.458,3.458,0,0,0-4.369-1.865c-.02.026-.038.053-.061.078h0v0c.064,0,.128,0,.192,0,2.031-.169,3.664.328,4.259,2.551.121.451.478.357.785.359,1.292.007,2.583,0,3.875,0,1.227,0,1.37-.192,1.132-1.42a8.274,8.274,0,0,0-5.233-6.574c-1.7-.648-2.465-1.406-2.106-3.189.1-.5-.191-.68-.678-.665-.733.023-1.468.006-2.2.005l-.014.012.1.1" transform="translate(-114.747 -57.056)" fill="#fec638"/>
    <path id="Trazado_179981" data-name="Trazado 179981" d="M154.953,77.072h0l.011.011.013-.012h-.024Z" transform="translate(-114.748 -57.073)" fill="#fec638"/>
    <path id="Trazado_179982" data-name="Trazado 179982" d="M155.257,78.294a1.657,1.657,0,0,0-.3-1.17l-.011.01q0,4.422,0,8.845l.062-.018a1.758,1.758,0,0,0,.249-1.1q.014-3.282,0-6.564" transform="translate(-114.743 -57.113)" fill="#fec638"/>
    <path id="Trazado_179983" data-name="Trazado 179983" d="M154.948,77.072l0,0,0,0Z" transform="translate(-114.743 -57.073)" fill="#fec638"/>
    <path id="Trazado_179984" data-name="Trazado 179984" d="M154.957,77.089l-.01-.012h0V77.1l.011-.01" transform="translate(-114.743 -57.078)" fill="#fec638"/>
    <path id="Trazado_179985" data-name="Trazado 179985" d="M154.946,111.262h0c.023-.025.041-.052.061-.078l-.062.018Z" transform="translate(-114.743 -82.336)" fill="#fec638"/>
    <path id="Trazado_179986" data-name="Trazado 179986" d="M141.484,112.023a2.649,2.649,0,1,0-.1,5.3,2.992,2.992,0,0,1,1.448.178.716.716,0,0,1-.053-.1,29.977,29.977,0,0,1-.014-5.4.764.764,0,0,1,.062-.136,2.6,2.6,0,0,1-1.347.165" transform="translate(-102.763 -82.835)" fill="#fec638"/>
    <path id="Trazado_179987" data-name="Trazado 179987" d="M154.053,111.489a1.036,1.036,0,0,1-.136.1.749.749,0,0,0-.062.136,29.976,29.976,0,0,0,.014,5.4.733.733,0,0,0,.053.1,1.035,1.035,0,0,1,.132.09h0V111.49h0Z" transform="translate(-113.85 -82.562)" fill="#fec638"/>
    <path id="Trazado_179988" data-name="Trazado 179988" d="M140.605,111.486a2.913,2.913,0,0,0-.575,5.776,12.946,12.946,0,0,0,2.059.05.652.652,0,0,1-.064-.091,2.993,2.993,0,0,0-1.449-.178,2.649,2.649,0,1,1,.1-5.3,2.6,2.6,0,0,0,1.347-.165.8.8,0,0,1,.068-.1c-.494,0-.988,0-1.481,0" transform="translate(-101.952 -82.558)" fill="#fec638"/>
    <path id="Trazado_179989" data-name="Trazado 179989" d="M154.49,111.485a.8.8,0,0,0-.068.1,1.055,1.055,0,0,0,.136-.1h-.068" transform="translate(-114.355 -82.559)" fill="#fec638"/>
    <path id="Trazado_179990" data-name="Trazado 179990" d="M154.574,133.683h0a1.11,1.11,0,0,0-.131-.09.651.651,0,0,0,.064.091h.067" transform="translate(-114.371 -98.93)" fill="#fec638"/>
    <path id="Trazado_179991" data-name="Trazado 179991" d="M154.949,133.935h0" transform="translate(-114.746 -99.184)" fill="#fec638"/>
    <path id="Trazado_179992" data-name="Trazado 179992" d="M154.953,133.94h0" transform="translate(-114.748 -99.187)" fill="#fec638"/>
    <path id="Trazado_179993" data-name="Trazado 179993" d="M154.951,133.937v0h0Z" transform="translate(-114.745 -99.184)" fill="#fec638"/>
    <path id="Trazado_179994" data-name="Trazado 179994" d="M154.951,133.937l0,0h0" transform="translate(-114.745 -99.184)" fill="#fec638"/>
    <path id="Trazado_179995" data-name="Trazado 179995" d="M154.951,133.938h0" transform="translate(-114.746 -99.185)" fill="#fec638"/>
    <path id="Trazado_179996" data-name="Trazado 179996" d="M154.95,111.485h0" transform="translate(-114.746 -82.558)" fill="#fec638"/>
    <path id="Trazado_179997" data-name="Trazado 179997" d="M154.947,111.485l0,0h0Z" transform="translate(-114.743 -82.558)" fill="#fec638"/>
    <path id="Trazado_179998" data-name="Trazado 179998" d="M154.946,111.488h0" transform="translate(-114.743 -82.56)" fill="#fec638"/>
    <path id="Trazado_179999" data-name="Trazado 179999" d="M154.946,111.486l0,0h0" transform="translate(-114.743 -82.558)" fill="#fec638"/>
    <path id="Trazado_180000" data-name="Trazado 180000" d="M154.946,111.486h0Z" transform="translate(-114.743 -82.558)" fill="#fec638"/>
  </g>
</svg>
