<svg xmlns="http://www.w3.org/2000/svg" xmlns:xlink="http://www.w3.org/1999/xlink" width="172" height="99.418" viewBox="0 0 172 99.418">
  <defs>
    <clipPath id="clip-path">
      <rect id="Rectángulo_66645" data-name="Rectángulo 66645" width="99.418" height="99.418" fill="none"/>
    </clipPath>
  </defs>
  <g id="Grupo_217269" data-name="Grupo 217269" transform="translate(-265 -5496.387)">
    <g id="Grupo_152929" data-name="Grupo 152929" transform="translate(0 -43.001)">
      <path id="Trazado_180001" data-name="Trazado 180001" d="M-7924.291-5724.464h31.068" transform="translate(8312 11316.062)" fill="none" stroke="#3156b4" stroke-width="4"/>
    </g>
    <g id="Grupo_217268" data-name="Grupo 217268">
      <g id="Grupo_217267" data-name="Grupo 217267">
        <g id="Grupo_152909" data-name="Grupo 152909" transform="translate(265 5496.387)">
          <g id="Grupo_152908" data-name="Grupo 152908" clip-path="url(#clip-path)">
            <path id="Trazado_179319" data-name="Trazado 179319" d="M274.529,251.62h0a29.088,29.088,0,0,1-.4,7.112,24.9,24.9,0,0,1-11.952,16.855c-.384.234-.755.489-1.132.734h0c.134,1.281-.091,1.682-1.241,2.154-1.039.426-2.076.859-3.128,1.251a1.527,1.527,0,1,1-1.145-2.8c.736-.318,1.492-.587,2.239-.878a26.106,26.106,0,0,1-8.47-7.55,24.288,24.288,0,0,1-4.536-12.381c-.074-.957-.122-1.917-.181-2.875l-.013-.023c-4.55.847-9.177,1.333-13.612,2.731-3.9,1.23-7.288,3.162-8.993,7.169a14.692,14.692,0,0,0-1.072,6.24,22.021,22.021,0,0,0,1.865,9.017h0a4.226,4.226,0,0,1,1.874.393,36.313,36.313,0,0,0,6.11,1.456c.255.037.507.1.758.159a1.486,1.486,0,0,1-.419,2.939,30.2,30.2,0,0,1-4.752-.882c-.124-.031-.253-.041-.38-.061a12.734,12.734,0,0,0,5.9,2.48c2.9.608,5.835,1.012,8.721,1.655a16,16,0,0,1,11.379,8.78c.072.144.163.277.245.415h0a49.44,49.44,0,0,0,10.274-7.732,49.826,49.826,0,0,0,14.5-28.8,20.711,20.711,0,0,1,.428-3.23V251.87l-2.867-.249h0m-26.536,30.738a53.939,53.939,0,0,1-7.734,1.192c-.226.01-.452.039-.676.028a1.479,1.479,0,0,1-.266-2.94c2.757-.3,5.489-.754,8.22-1.221a1.379,1.379,0,0,1,1.761,1.212,1.476,1.476,0,0,1-1.3,1.729" transform="translate(-177.977 -202.743)" fill="#fbdf65"/>
            <path id="Trazado_179320" data-name="Trazado 179320" d="M.181,185.28a47.3,47.3,0,0,0,3.662,15.141A49.161,49.161,0,0,0,15.5,217.279a47.76,47.76,0,0,0,15.825,10.075,53.05,53.05,0,0,0-2.186-15.263,16.725,16.725,0,0,0-2.478-5,6.14,6.14,0,0,0-4.885-2.749c-3.864-.112-6.633-2.144-8.857-5.027a11.551,11.551,0,0,1-2.834-7.932,2.915,2.915,0,0,1,2.885-3.032,14.419,14.419,0,0,0,6.432-1.889h0c.2-1.107.58-1.468,1.6-1.457l.2-.117a44.454,44.454,0,0,1,.357-11.263.388.388,0,0,1-.04-.132h0a4.48,4.48,0,0,1-1.6-.649h0c-.855.621-1.863,1.006-2.661,1.716h0L18.5,178c.415,1.155.117,2.03-.8,2.344-.854.293-1.648-.152-2.027-1.275-.5-1.476-1.417-2.839-1.277-4.5l-.41-.379h0A24.8,24.8,0,0,1,3.725,163.826c-.119-.225-.259-.439-.389-.657h0a46.6,46.6,0,0,0-3.148,13.8.644.644,0,0,1-.188.524v5.631c.378.692.133,1.436.181,2.155" transform="translate(0 -131.473)" fill="#f8a43f"/>
            <path id="Trazado_179321" data-name="Trazado 179321" d="M96.855,327.573c1.871-.112,3.706-.48,5.55-.768a12.578,12.578,0,0,0-2.932-.847,51.98,51.98,0,0,1-12.221-5.534,49.255,49.255,0,0,1-10.436-8.74,48.471,48.471,0,0,1-8.7-13.424,52.149,52.149,0,0,1-2.915-8.8c-.067-.279-.086-.57-.127-.855h0c-.643-1.064-1.294-2.124-1.928-3.193a4.586,4.586,0,0,1-.8-1.7,9.76,9.76,0,0,1-4.981,1.843c-.453.033-.9.093-1.346.165-1.907.308-2.661,1.2-2.732,3.14a11.059,11.059,0,0,0,2.411,6.924,12.514,12.514,0,0,0,6.393,4.975,7.791,7.791,0,0,0,2.185.405A6.844,6.844,0,0,1,70,304.307a19.469,19.469,0,0,1,2.859,6.645,51.022,51.022,0,0,1,1.6,12.371,2.256,2.256,0,0,1-.158,1.139l-.033.024a11.392,11.392,0,0,1,3.4.967,53.372,53.372,0,0,0,10.186,2.11c.345.038.808-.089.909.46h7.379c.04-.46.419-.433.713-.45" transform="translate(-42.937 -228.605)" fill="#3c9aa4"/>
            <path id="Trazado_179322" data-name="Trazado 179322" d="M61.132,283.061A14.421,14.421,0,0,1,54.7,284.95a2.915,2.915,0,0,0-2.885,3.032,11.549,11.549,0,0,0,2.834,7.932c2.224,2.883,4.994,4.915,8.857,5.027a6.14,6.14,0,0,1,4.885,2.749,16.719,16.719,0,0,1,2.478,5,53.05,53.05,0,0,1,2.186,15.263h.01l.033-.024a2.256,2.256,0,0,0,.158-1.139,51.023,51.023,0,0,0-1.6-12.371,19.469,19.469,0,0,0-2.859-6.645,6.844,6.844,0,0,0-5.715-3.139,7.784,7.784,0,0,1-2.185-.4A12.513,12.513,0,0,1,54.5,295.26a11.058,11.058,0,0,1-2.411-6.924c.07-1.945.825-2.832,2.732-3.14.447-.072.893-.132,1.346-.165a9.762,9.762,0,0,0,4.981-1.843c-.005-.042-.014-.083-.017-.127h0" transform="translate(-41.733 -228.076)" fill="#3c9aa4"/>
            <path id="Trazado_179323" data-name="Trazado 179323" d="M280.472,505.747a2.922,2.922,0,0,0-.314-.213c-1.845.288-3.679.656-5.55.768-.294.018-.673-.01-.713.45a1.43,1.43,0,0,1,.427-.166,44.552,44.552,0,0,0,6.151-.839" transform="translate(-220.691 -407.334)" fill="#3c9aa4"/>
            <path id="Trazado_179324" data-name="Trazado 179324" d="M174.868,496.672a53.351,53.351,0,0,1-10.186-2.11,11.393,11.393,0,0,0-3.4-.967l0,0a47.86,47.86,0,0,0,10.639,2.961,26.172,26.172,0,0,1,3.857.574c-.1-.549-.564-.422-.909-.46" transform="translate(-129.952 -397.714)" fill="#3c9aa4"/>
            <path id="Trazado_179325" data-name="Trazado 179325" d="M161.248,493.592h0l.006,0,0,0h-.01" transform="translate(-129.926 -397.712)" fill="#3c9aa4"/>
            <path id="Trazado_179326" data-name="Trazado 179326" d="M147.824.44A50.8,50.8,0,0,0,133.736,3.9a34.547,34.547,0,0,0-4.565,2.139,6.487,6.487,0,0,1-1.689.813c4.06,3.136,5.789,7.4,5.954,12.418a1.242,1.242,0,0,0,.127.748,50.141,50.141,0,0,1,9.464-9.608,49.241,49.241,0,0,1,18.645-9,1.983,1.983,0,0,0,.63-.162c-1.818-.315-3.633-.636-5.473-.8-.294-.025-.673.01-.713-.451h-7.573c-.028.49-.431.413-.72.44" transform="translate(-102.719)" fill="#3c9aa4"/>
            <path id="Trazado_179327" data-name="Trazado 179327" d="M275.607.451c1.84.159,3.655.48,5.473.8a.492.492,0,0,0,.191-.237c-1.163-.2-2.327-.4-3.49-.6A16.734,16.734,0,0,1,274.895,0c.039.461.418.426.712.451" transform="translate(-221.497)" fill="#3c9aa4"/>
            <path id="Trazado_179328" data-name="Trazado 179328" d="M127.038,6.788h0l.086.068a6.484,6.484,0,0,0,1.689-.813A34.522,34.522,0,0,1,133.378,3.9,50.8,50.8,0,0,1,147.466.441c.289-.028.692.05.72-.44-1.671.261-3.349.486-5.012.79a47.3,47.3,0,0,0-16.136,6" transform="translate(-102.361 -0.001)" fill="#3c9aa4"/>
            <path id="Trazado_179329" data-name="Trazado 179329" d="M461.571,167.21a.228.228,0,0,1-.112-.076,5.087,5.087,0,0,1-.32-1.8,49.383,49.383,0,0,0-4.036-15c-.031-.071-.064-.139-.1-.21-3.54.449-5.574,2.791-7.079,5.8-.1.2-.173.414-.259.622h0a15.121,15.121,0,0,1,6.745,5.562,17.781,17.781,0,0,1,2.454,7.7c.021-.019.043-.038.067-.055a4.142,4.142,0,0,1,2.8.339v-.583a5.035,5.035,0,0,1-.167-2.3" transform="translate(-362.321 -120.967)" fill="#77c5ce"/>
            <path id="Trazado_179330" data-name="Trazado 179330" d="M497.09,250.691c-.024.018-.046.037-.067.055,0,.011,0,.023,0,.034h0l2.867.249a4.141,4.141,0,0,0-2.8-.339" transform="translate(-400.476 -201.904)" fill="#77c5ce"/>
            <path id="Trazado_179331" data-name="Trazado 179331" d="M487.548,150.223a49.378,49.378,0,0,1,4.036,15,5.087,5.087,0,0,0,.32,1.8.225.225,0,0,0,.112.076c0-.017,0-.034,0-.051h0a47.836,47.836,0,0,0-4.327-17.057c-.08.008-.158.018-.236.028.031.07.064.139.1.21" transform="translate(-392.764 -120.85)" fill="#77c5ce"/>
            <path id="Trazado_179332" data-name="Trazado 179332" d="M511.009,237.943c.183.756-.1,1.546.154,2.3v-2.33a.215.215,0,0,1-.154.033" transform="translate(-411.746 -191.696)" fill="#b8e1e5"/>
            <path id="Trazado_179333" data-name="Trazado 179333" d="M510.955,237.851a.215.215,0,0,0,.154-.033,1.129,1.129,0,0,0-.167-.022c.005.019.009.037.013.056" transform="translate(-411.692 -191.603)" fill="#b8e1e5"/>
            <path id="Trazado_179334" data-name="Trazado 179334" d="M510.747,238.061l-.013-.005a5.035,5.035,0,0,0,.167,2.3c-.259-.751.028-1.54-.154-2.3" transform="translate(-411.483 -191.814)" fill="#b8e1e5"/>
            <path id="Trazado_179335" data-name="Trazado 179335" d="M510.941,237.846l.013.005c0-.018-.008-.037-.013-.056h0c0,.017,0,.034,0,.051" transform="translate(-411.691 -191.603)" fill="#b8e1e5"/>
            <path id="Trazado_179336" data-name="Trazado 179336" d="M.1,267.973v-.057A8.572,8.572,0,0,0,0,265.9v2.136c.036-.047.07-.067.1-.062" transform="translate(0 -214.248)" fill="#d7c280"/>
            <path id="Trazado_179337" data-name="Trazado 179337" d="M.1,267.916v.057q.044.007.08.081c-.048-.72.2-1.464-.181-2.155a8.572,8.572,0,0,1,.1,2.017" transform="translate(0 -214.248)" fill="#d7c280"/>
            <path id="Trazado_179338" data-name="Trazado 179338" d="M.1,276.575c-.031-.005-.064.014-.1.062a.54.54,0,0,1,.1,0v-.065" transform="translate(0 -222.849)" fill="#d7c280"/>
            <path id="Trazado_179339" data-name="Trazado 179339" d="M.516,276.578v.065a.547.547,0,0,1,.08.016c-.024-.049-.051-.076-.08-.081" transform="translate(-0.416 -222.853)" fill="#d7c280"/>
            <path id="Trazado_179340" data-name="Trazado 179340" d="M155.4,50.263a14.074,14.074,0,0,1,9.009-9.527c.2-.075.462-.044.6-.269h0c-1.065-1.654-2.316-3.022-4.464-3.189a4.794,4.794,0,0,0-3.621,1.3,18.3,18.3,0,0,1-5.677,3.812,10.1,10.1,0,0,1-5.789.592c-3.1-.721-4.32-3.061-3.117-6.025a13.815,13.815,0,0,1,4.011-5.036c1.116-.983,2.254-1.945,3.311-2.99,1.373-1.358,1.208-2.34-.507-3.248-.739-.392-1.541-.663-2.3-1.011a3.751,3.751,0,0,1-2.187-5.16,15.345,15.345,0,0,1,2.5-4.24c1.969-2.515,4.242-4.751,6.434-7.063-1.958-.615-3.932-1.17-5.934-1.624-.134.335-.538.333-.84.4a46.885,46.885,0,0,0-11.293,4.3A47.221,47.221,0,0,0,124.776,19a57.635,57.635,0,0,0-5.314,5.771c-.188.238-.351.515-.684.577a25.539,25.539,0,0,1-8.915,19.816,9.027,9.027,0,0,1-.378,2.034c.04.032.081.063.119.1a.966.966,0,0,1,.078.2A5.738,5.738,0,0,1,113,49.521a4.1,4.1,0,0,1,.3,4.228,12.7,12.7,0,0,1-3.624,4.821.6.6,0,0,1-.532.159h0a.437.437,0,0,0,0,.113,1.541,1.541,0,0,1,1.109.847,75.528,75.528,0,0,0,4.222,6.461,2.824,2.824,0,0,1,.2.329,1.464,1.464,0,0,1-.4,2.045,1.393,1.393,0,0,1-1.983-.308c-.506-.579-.924-1.234-1.387-1.852-.2-.261-.34-.564-.555-.811a42.054,42.054,0,0,0,2.533,8.273,47.676,47.676,0,0,0,7.077,12A50.513,50.513,0,0,0,131.6,96.415a49.584,49.584,0,0,0,15.229,6.624c.307.076.708.08.841.418a49.934,49.934,0,0,0,12.951-4.669,2.848,2.848,0,0,1,1.292-.532,2.985,2.985,0,0,1-.563-.885,15.422,15.422,0,0,0-8.181-7.193,35.967,35.967,0,0,0-6.094-1.527c-3.074-.566-6.216-.859-9.116-2.166a8.355,8.355,0,0,1-1.544-.8c-.249-.182-.624-.322-.52-.739-1.027-.335-2.057-.664-3.081-1.009a1.5,1.5,0,0,1-1.221-1.413,1.469,1.469,0,0,1,1.055-1.551,1.787,1.787,0,0,1-.612-.913,22.553,22.553,0,0,1-1.114-12.021,11.708,11.708,0,0,1,7.062-8.668,34.264,34.264,0,0,1,8.357-2.442c2.194-.4,4.391-.795,6.6-1.138a3.239,3.239,0,0,1,1.53-.1c.021.033.038.067.057.1l.011,0a34.238,34.238,0,0,1,.859-5.523m-28.59,29.276a1.542,1.542,0,0,1-2.218.341,44.663,44.663,0,0,1-6.523-5.146,1.459,1.459,0,0,1-.465-1.741,1.342,1.342,0,0,1,1.349-.913,1.64,1.64,0,0,1,1.222.483,55.374,55.374,0,0,0,6.075,4.784,1.583,1.583,0,0,1,.559,2.193" transform="translate(-87.935 -5.308)" fill="#77c5ce"/>
            <path id="Trazado_179341" data-name="Trazado 179341" d="M247.352,410.709a8.342,8.342,0,0,0,1.544.8c2.9,1.307,6.042,1.6,9.116,2.167a35.986,35.986,0,0,1,6.094,1.526,15.424,15.424,0,0,1,8.181,7.193,2.985,2.985,0,0,0,.563.885,1.166,1.166,0,0,1,.232.022c-.082-.138-.173-.272-.245-.415a16,16,0,0,0-11.379-8.78c-2.887-.643-5.826-1.047-8.722-1.655a12.733,12.733,0,0,1-5.9-2.48l-.009,0c-.1.416.272.557.52.739" transform="translate(-198.87 -330.333)" fill="#77c5ce"/>
            <path id="Trazado_179342" data-name="Trazado 179342" d="M241.761,259.177c-2.2.343-4.4.736-6.6,1.138a34.276,34.276,0,0,0-8.357,2.442,11.708,11.708,0,0,0-7.061,8.668,22.55,22.55,0,0,0,1.114,12.021,1.785,1.785,0,0,0,.612.913c.022-.008.041-.018.064-.026a22.022,22.022,0,0,1-1.865-9.017,14.692,14.692,0,0,1,1.072-6.24c1.7-4.008,5.089-5.94,8.993-7.17,4.436-1.4,9.062-1.883,13.612-2.731-.019-.034-.037-.067-.057-.1a3.24,3.24,0,0,0-1.53.1" transform="translate(-176.757 -208.696)" fill="#77c5ce"/>
            <path id="Trazado_179343" data-name="Trazado 179343" d="M110.931,215.771c-.038-.037-.079-.068-.119-.1l-.032.122h0a.389.389,0,0,0,.041.132l.189.048a.949.949,0,0,0-.078-.2" transform="translate(-89.26 -173.777)" fill="#77c5ce"/>
            <path id="Trazado_179344" data-name="Trazado 179344" d="M313.42,7.092l.163-.171A53.51,53.51,0,0,0,307.532,5.2a.717.717,0,0,1-.046.27c2,.455,3.976,1.009,5.934,1.624" transform="translate(-247.757 -4.187)" fill="#77c5ce"/>
            <path id="Trazado_179345" data-name="Trazado 179345" d="M320.474,479.031a49.927,49.927,0,0,1-12.951,4.669.721.721,0,0,1,.045.264,52.16,52.16,0,0,0,14.316-5.379.978.978,0,0,1-.118-.085,2.847,2.847,0,0,0-1.292.532" transform="translate(-247.787 -385.551)" fill="#77c5ce"/>
            <path id="Trazado_179346" data-name="Trazado 179346" d="M381.078,478.521a1.167,1.167,0,0,0-.232-.022.972.972,0,0,0,.118.085l.114-.062h0" transform="translate(-306.867 -385.551)" fill="#77c5ce"/>
            <path id="Trazado_179347" data-name="Trazado 179347" d="M151.568,347.04c-.133-.339-.534-.343-.841-.418A49.583,49.583,0,0,1,135.5,340a50.513,50.513,0,0,1-11.65-10.593,47.679,47.679,0,0,1-7.077-12,42.07,42.07,0,0,1-2.533-8.273,1.4,1.4,0,0,0-.268-.243c.041.285.061.576.127.855a52.155,52.155,0,0,0,2.915,8.8,48.469,48.469,0,0,0,8.7,13.424,49.253,49.253,0,0,0,10.435,8.741,51.984,51.984,0,0,0,12.221,5.534,12.591,12.591,0,0,1,2.932.847l.143-.023.125-.028" transform="translate(-91.832 -248.891)" fill="#77c5ce"/>
            <path id="Trazado_179348" data-name="Trazado 179348" d="M306.41,505.272l-.125.028-.143.023a2.925,2.925,0,0,1,.314.213.721.721,0,0,0-.045-.264" transform="translate(-246.674 -407.123)" fill="#77c5ce"/>
            <path id="Trazado_179349" data-name="Trazado 179349" d="M159.469,24.638a57.634,57.634,0,0,1,5.314-5.771,47.226,47.226,0,0,1,10.755-7.709,46.887,46.887,0,0,1,11.293-4.3c.3-.07.706-.068.84-.4l-.12-.029-.025,0a1.984,1.984,0,0,1-.63.162,49.242,49.242,0,0,0-18.646,9,50.145,50.145,0,0,0-9.464,9.608c0,.008,0,.015,0,.023.333-.062.5-.339.684-.577" transform="translate(-127.941 -5.171)" fill="#77c5ce"/>
            <path id="Trazado_179350" data-name="Trazado 179350" d="M306.884,5.467a.713.713,0,0,0,.046-.27.493.493,0,0,1-.191.237l.025,0,.12.029" transform="translate(-247.155 -4.187)" fill="#77c5ce"/>
            <path id="Trazado_179351" data-name="Trazado 179351" d="M364.636,178.079a8.567,8.567,0,0,0-3.34.531.119.119,0,0,1,0,.014.323.323,0,0,1,.072.015c.094.035.189.1.037.163a17.924,17.924,0,0,0-2.867,1.371,14.3,14.3,0,0,0-6.418,11.215,28.034,28.034,0,0,0,.373,8.433,27.367,27.367,0,0,0,5.013,10.864,24.947,24.947,0,0,0,5.85,5.7,2.589,2.589,0,0,1,.436.5,2.253,2.253,0,0,0,2.761.219c0-.03,0-.059,0-.089a2.3,2.3,0,0,1,1.02-.862,24.614,24.614,0,0,0,12.16-18.222,13.384,13.384,0,0,0,.162-4.335,1.271,1.271,0,0,1,.232-1.268c-.44-.446-.384-1.045-.469-1.6a14.215,14.215,0,0,0-6.309-10.1,18.2,18.2,0,0,0-1.615-.876c-.335-.179-.729-.3-.869-.715l0-.009a17.68,17.68,0,0,0-6.233-.951m10.809,14.861c.267,5.124-4.173,10.209-10.15,10.274a10.27,10.27,0,1,1,.106-20.539c5.366.071,10.261,4.72,10.044,10.265" transform="translate(-283.599 -143.474)" fill="#fe616d"/>
            <path id="Trazado_179352" data-name="Trazado 179352" d="M440.39,252.779a13.39,13.39,0,0,1-.161,4.335,24.614,24.614,0,0,1-12.16,18.222,2.3,2.3,0,0,0-1.02.862c0,.031,0,.059,0,.089l.111-.053h0c.377-.245.748-.5,1.132-.734a24.9,24.9,0,0,0,11.952-16.855,29.089,29.089,0,0,0,.4-7.112h0l-.02-.021a1.271,1.271,0,0,0-.232,1.268" transform="translate(-344.091 -202.655)" fill="#fe616d"/>
            <path id="Trazado_179353" data-name="Trazado 179353" d="M449.262,183.05c.14.42.534.536.869.715a18.318,18.318,0,0,1,1.615.876,14.215,14.215,0,0,1,6.309,10.1c.085.551.029,1.15.469,1.6l.016-.013a17.779,17.779,0,0,0-2.454-7.7,15.12,15.12,0,0,0-6.745-5.562h0l-.077-.024,0,.009" transform="translate(-361.993 -147.485)" fill="#fe616d"/>
            <path id="Trazado_179354" data-name="Trazado 179354" d="M496.963,251.477l0-.034-.016.013.02.021" transform="translate(-400.412 -202.6)" fill="#fe616d"/>
            <path id="Trazado_179355" data-name="Trazado 179355" d="M349.891,217.635a25.387,25.387,0,0,0,5.08,4.223,26.565,26.565,0,0,1-10.412-18.244,21.528,21.528,0,0,1,1-10.8A13.779,13.779,0,0,1,351,186.045a8.427,8.427,0,0,1,.877-.49,14.348,14.348,0,0,0-8.557,12.806c-.031.575.036,1.176-.445,1.627,0,.008,0,.017,0,.025a7.057,7.057,0,0,1,.412,2.87,24.364,24.364,0,0,0,6.6,14.753" transform="translate(-276.269 -149.511)" fill="#e43467"/>
            <path id="Trazado_179356" data-name="Trazado 179356" d="M396.51,180.967a.626.626,0,0,1-.2.294q.28-.1.561-.195c.109-.037.146-.083.153-.13l-.023,0-.5.01c0,.008.005.016.007.025" transform="translate(-319.325 -145.786)" fill="#e43467"/>
            <path id="Trazado_179357" data-name="Trazado 179357" d="M410.754,376.478a.6.6,0,0,1,.053.19l.132.035a.715.715,0,0,0-.185-.225" transform="translate(-330.965 -303.347)" fill="#e43467"/>
            <path id="Trazado_179358" data-name="Trazado 179358" d="M356.065,282.615c-.135-.113-.3-.195-.442-.3q-.328-.239-.646-.484a25.389,25.389,0,0,1-5.08-4.223,24.364,24.364,0,0,1-6.6-14.753,7.054,7.054,0,0,0-.412-2.87c.059.958.107,1.918.181,2.875a24.288,24.288,0,0,0,4.536,12.381,26.107,26.107,0,0,0,8.47,7.55l.051.013a.594.594,0,0,0-.053-.19" transform="translate(-276.276 -209.484)" fill="#e43467"/>
            <path id="Trazado_179359" data-name="Trazado 179359" d="M353.454,181.008c0-.009,0-.016-.007-.025l-.106,0c-.138.225-.4.195-.6.269a14.073,14.073,0,0,0-9.009,9.527,34.222,34.222,0,0,0-.859,5.523c.482-.451.414-1.052.445-1.627a14.348,14.348,0,0,1,8.557-12.806,13.481,13.481,0,0,1,1.377-.57.626.626,0,0,0,.2-.294" transform="translate(-276.27 -145.827)" fill="#e43467"/>
            <path id="Trazado_179360" data-name="Trazado 179360" d="M362.171,219.156l.218.057a2.6,2.6,0,0,0-.436-.5,24.943,24.943,0,0,1-5.85-5.7,27.364,27.364,0,0,1-5.013-10.864,28.049,28.049,0,0,1-.373-8.433,14.3,14.3,0,0,1,6.418-11.215A17.945,17.945,0,0,1,360,181.128c.152-.068.057-.128-.037-.163a.323.323,0,0,0-.072-.015c-.007.047-.044.093-.153.13q-.281.094-.561.195a2.1,2.1,0,0,1-.642.277c-.251.091-.494.19-.735.293a8.4,8.4,0,0,0-.877.49,13.778,13.778,0,0,0-5.437,6.771,21.529,21.529,0,0,0-1,10.8A26.566,26.566,0,0,0,360.9,218.148c.182.113.363.227.549.335a1.229,1.229,0,0,1,.538.448.713.713,0,0,1,.186.225" transform="translate(-282.196 -145.8)" fill="#e43467"/>
            <path id="Trazado_179361" data-name="Trazado 179361" d="M405.706,372.782c-.186-.108-.367-.222-.549-.335q.318.245.646.484c.142.1.307.186.442.3a1.229,1.229,0,0,0-.538-.448" transform="translate(-326.455 -300.099)" fill="#e43467"/>
            <path id="Trazado_179362" data-name="Trazado 179362" d="M390.594,182.621a13.523,13.523,0,0,0-1.377.57c.241-.1.484-.2.735-.293a2.1,2.1,0,0,0,.642-.277" transform="translate(-313.612 -147.147)" fill="#e43467"/>
            <path id="Trazado_179363" data-name="Trazado 179363" d="M226.761,390.027c-.934.963-.747,1.886.5,2.375.718.281,1.456.507,2.193.737.294.092.638.124.747.5.005-.02.011-.041.018-.063a1.461,1.461,0,0,1,1.037.043c1.074.227,2.15.446,3.235.614,1.267.2,2-.1,2.15-.89s-.447-1.371-1.7-1.566a54.375,54.375,0,0,1-7.6-1.914,1.811,1.811,0,0,1-.336-.148c-.03.142-.154.219-.25.318" transform="translate(-182.239 -314.008)" fill="#445166"/>
            <path id="Trazado_179364" data-name="Trazado 179364" d="M230.823,389.52a54.369,54.369,0,0,0,7.6,1.914c1.25.2,1.847.773,1.7,1.566s-.883,1.086-2.15.89c-1.085-.168-2.161-.387-3.235-.614a1.461,1.461,0,0,0-1.037-.043c-.008.022-.013.042-.019.063,0,.005,0,.009.005.014.127.02.256.031.38.061a30.19,30.19,0,0,0,4.752.882,1.486,1.486,0,0,0,.419-2.939c-.251-.062-.5-.122-.758-.159a36.294,36.294,0,0,1-6.11-1.456,4.224,4.224,0,0,0-1.873-.393h0a.31.31,0,0,1-.007.064,1.811,1.811,0,0,0,.336.148" transform="translate(-185.715 -313.672)" fill="#445166"/>
            <path id="Trazado_179365" data-name="Trazado 179365" d="M228.314,392.98c-.736-.23-1.475-.456-2.193-.737-1.25-.489-1.437-1.412-.5-2.375.1-.1.22-.176.25-.318l-.018-.01c-.014-.009-.025-.019-.039-.029a1.469,1.469,0,0,0-1.055,1.551,1.5,1.5,0,0,0,1.221,1.413c1.024.345,2.054.674,3.081,1.009l0-.011c-.109-.371-.453-.4-.747-.5" transform="translate(-181.097 -313.85)" fill="#445166"/>
            <path id="Trazado_179366" data-name="Trazado 179366" d="M230.232,389.433l.018.009a.32.32,0,0,0,.007-.064c-.023.008-.042.018-.064.026.013.009.025.02.039.029" transform="translate(-185.478 -313.741)" fill="#445166"/>
            <path id="Trazado_179367" data-name="Trazado 179367" d="M246.906,409.924l.009,0c0-.005,0-.009-.005-.014l0,.011" transform="translate(-198.945 -330.287)" fill="#445166"/>
            <path id="Trazado_179368" data-name="Trazado 179368" d="M318.79,394.584c-2.732.468-5.464.916-8.221,1.221a1.479,1.479,0,0,0,.266,2.94c.225.01.451-.018.676-.028a53.951,53.951,0,0,0,7.735-1.192,1.476,1.476,0,0,0,1.3-1.729,1.379,1.379,0,0,0-1.761-1.212" transform="translate(-249.231 -317.91)" fill="#445166"/>
            <path id="Trazado_179369" data-name="Trazado 179369" d="M398.155,377.922s0-.008,0-.012a.184.184,0,0,1-.183-.083,5.285,5.285,0,0,1-1.622.783,5.321,5.321,0,0,0-.952.47,1.218,1.218,0,0,0-.5,1.446,1.094,1.094,0,0,0,1.222.738,3.343,3.343,0,0,0,1.123-.269,20.9,20.9,0,0,1,2.069-.815,2.134,2.134,0,0,0,1.767-2.058,1.98,1.98,0,0,1-2.926-.2" transform="translate(-318.131 -304.434)" fill="#445166"/>
            <path id="Trazado_179370" data-name="Trazado 179370" d="M398.02,379.826a20.857,20.857,0,0,0-2.069.815,3.338,3.338,0,0,1-1.123.269,1.094,1.094,0,0,1-1.222-.738,1.218,1.218,0,0,1,.5-1.445,5.3,5.3,0,0,1,.952-.47,5.287,5.287,0,0,0,1.622-.783.382.382,0,0,1-.047-.085c-.747.291-1.5.561-2.239.878a1.527,1.527,0,1,0,1.145,2.8c1.052-.392,2.089-.824,3.128-1.251,1.15-.472,1.375-.873,1.241-2.154h0c-.037.039-.076.072-.114.108a2.134,2.134,0,0,1-1.767,2.058" transform="translate(-316.837 -304.08)" fill="#445166"/>
            <path id="Trazado_179371" data-name="Trazado 179371" d="M412.117,377.931h0a.5.5,0,0,1-.172.063s0,.008,0,.012a1.98,1.98,0,0,0,2.926.2c0-.018,0-.037,0-.055a2.253,2.253,0,0,1-2.761-.219" transform="translate(-331.925 -304.518)" fill="#445166"/>
            <path id="Trazado_179372" data-name="Trazado 179372" d="M427.03,378.893c.038-.035.077-.069.114-.108l-.111.053c0,.018,0,.037,0,.055" transform="translate(-344.079 -305.206)" fill="#445166"/>
            <path id="Trazado_179373" data-name="Trazado 179373" d="M411.188,377.612a.635.635,0,0,0-.046-.12l-.132-.035a.587.587,0,0,1,.009.061l-.013.011a.184.184,0,0,0,.183.083" transform="translate(-331.167 -304.136)" fill="#445166"/>
            <path id="Trazado_179374" data-name="Trazado 179374" d="M410.823,377.462c0-.022-.006-.041-.008-.061l-.051-.013a.38.38,0,0,0,.047.085l.013-.011" transform="translate(-330.973 -304.08)" fill="#445166"/>
            <path id="Trazado_179375" data-name="Trazado 179375" d="M411.755,377.756a.5.5,0,0,0,.172-.063l-.218-.057a.635.635,0,0,1,.046.12" transform="translate(-331.735 -304.28)" fill="#445166"/>
            <path id="Trazado_179376" data-name="Trazado 179376" d="M32.031,57.863c.906-1.26,2.142-2.217,3.114-3.427a24.038,24.038,0,0,0,5.543-14.251,5.278,5.278,0,0,1,.4-2.131c-.013,0-.024.006-.038.008-.442-.225-.35-.652-.364-1.022a15.8,15.8,0,0,0-3.658-9.973,11.885,11.885,0,0,0-1.4-1.332c-.278-.237-.7-.4-.7-.851-.021,0-.04.01-.061.014-1.092-.316-1.976-1.058-3.045-1.446a15.881,15.881,0,0,0-9.681-.611c-.1.028-.206.058-.309.087a13.776,13.776,0,0,0-8.8,11.411,25.991,25.991,0,0,0,2.094,14.989,28.988,28.988,0,0,0,6.224,8.782c.832.8,1.779,1.479,2.672,2.216.094.077.28.109.285.236l.033.021a1.163,1.163,0,0,1,.458.555c0,.015,0,.03.005.046a3,3,0,0,0,2.579-.031,5.207,5.207,0,0,1,2.869-1.881l.04.013,1.707-1.279c.013-.048.025-.1.037-.145M26.015,47.2A10.581,10.581,0,0,1,15.821,36.833,10.61,10.61,0,0,1,26.335,26.688c5.118.111,10.223,4.841,9.937,10.267.259,5.395-4.765,10.27-10.257,10.24" transform="translate(-10.251 -18.008)" fill="#fe616d"/>
            <path id="Trazado_179377" data-name="Trazado 179377" d="M72.539,219.645a1.162,1.162,0,0,0-.459-.555l-.033-.021a.286.286,0,0,1-.069.17h0l.41.379c.052.026.1.05.156.073,0-.016,0-.031-.005-.046" transform="translate(-57.996 -176.516)" fill="#fe616d"/>
            <path id="Trazado_179378" data-name="Trazado 179378" d="M91.04,212.43a5.208,5.208,0,0,0-2.87,1.88c.043-.02.086-.039.128-.061h0a31.653,31.653,0,0,1,2.661-1.716l.118-.089-.04-.013" transform="translate(-71.043 -171.165)" fill="#fe616d"/>
            <path id="Trazado_179379" data-name="Trazado 179379" d="M59.729,21.738l-.123.052c.1-.029.2-.059.309-.087a15.881,15.881,0,0,1,9.681.61c1.069.388,1.953,1.13,3.045,1.447l.061-.014a.771.771,0,0,1,0-.089c-.165-.1-.331-.192-.494-.292A15.281,15.281,0,0,0,59.834,21.5c.15.163.026.186-.106.24" transform="translate(-48.028 -16.869)" fill="#fe616d"/>
            <path id="Trazado_179380" data-name="Trazado 179380" d="M127.725,36.163a11.918,11.918,0,0,1,1.4,1.332,15.8,15.8,0,0,1,3.658,9.973c.014.37-.078.8.364,1.022.013,0,.025-.006.038-.008l.011-.025a1.242,1.242,0,0,1-.127-.748c-.165-5.021-1.895-9.282-5.954-12.418l-.09.021c.007.453.426.614.7.851" transform="translate(-102.347 -28.436)" fill="#fe616d"/>
            <path id="Trazado_179381" data-name="Trazado 179381" d="M127.11,35.01l-.086-.068a.822.822,0,0,0,0,.089l.09-.021" transform="translate(-102.346 -28.155)" fill="#fe616d"/>
            <path id="Trazado_179382" data-name="Trazado 179382" d="M115.086,119.569c-.972,1.21-2.208,2.167-3.114,3.427-.012.048-.024.1-.037.144l.186-.139h0a25.539,25.539,0,0,0,8.915-19.816l-.011,0a5.278,5.278,0,0,0-.4,2.131,24.039,24.039,0,0,1-5.543,14.251" transform="translate(-90.192 -83.142)" fill="#fe616d"/>
            <path id="Trazado_179383" data-name="Trazado 179383" d="M158.741,103.093c0-.008,0-.015,0-.023l-.011.025.011,0" transform="translate(-127.897 -83.049)" fill="#fe616d"/>
            <path id="Trazado_179384" data-name="Trazado 179384" d="M6.765,46.8A21.866,21.866,0,0,1,7.932,35.535a12.976,12.976,0,0,1,6.054-6.771,13.211,13.211,0,0,0-7.8,9.075A23.721,23.721,0,0,0,7.334,53.5c.171.425.474.824.327,1.323.363-.083.456.34.577.579a24.711,24.711,0,0,0,5.155,6.721,22.6,22.6,0,0,0,2.937,2.309,8.3,8.3,0,0,1-.784-.657A27.733,27.733,0,0,1,6.765,46.8" transform="translate(-4.31 -23.177)" fill="#e43467"/>
            <path id="Trazado_179385" data-name="Trazado 179385" d="M22.918,170.161a24.712,24.712,0,0,1-5.155-6.721c-.121-.239-.214-.663-.577-.579-.005.017-.009.034-.015.051.13.219.27.433.389.657A24.8,24.8,0,0,0,27.817,173.94c-.61-.545-1.309-.979-1.961-1.47a22.6,22.6,0,0,1-2.937-2.309" transform="translate(-13.836 -131.216)" fill="#e43467"/>
            <path id="Trazado_179386" data-name="Trazado 179386" d="M6.515,49.521A23.721,23.721,0,0,1,5.369,33.862a13.211,13.211,0,0,1,7.8-9.075,13.639,13.639,0,0,1,1.915-.809c.095-.032.175-.054.216-.15a13.011,13.011,0,0,0-7.347,4.518c-3.244,3.859-3.823,8.465-3.564,13.274a25.6,25.6,0,0,0,2.42,9.231l.034-.008c.148-.5-.155-.9-.327-1.323" transform="translate(-3.491 -19.2)" fill="#e43467"/>
            <path id="Trazado_179387" data-name="Trazado 179387" d="M17.073,162.913l.019.043h0c.006-.017.01-.034.015-.051l-.034.008" transform="translate(-13.757 -131.261)" fill="#e43467"/>
            <path id="Trazado_179388" data-name="Trazado 179388" d="M22.963,62.728c-.893-.736-1.84-1.416-2.672-2.216a28.983,28.983,0,0,1-6.224-8.782,25.99,25.99,0,0,1-2.094-14.989,13.775,13.775,0,0,1,8.8-11.411,16.642,16.642,0,0,0-1.9.667,12.976,12.976,0,0,0-6.054,6.771,21.866,21.866,0,0,0-1.167,11.264,27.732,27.732,0,0,0,8.781,16.976,8.273,8.273,0,0,0,.784.657c.665.449,1.346.877,2.03,1.3,0-.127-.191-.159-.285-.236" transform="translate(-9.196 -20.41)" fill="#e43467"/>
            <path id="Trazado_179389" data-name="Trazado 179389" d="M63.912,213.678c-.685-.422-1.365-.851-2.03-1.3.652.49,1.351.924,1.961,1.469h0a.286.286,0,0,0,.069-.17" transform="translate(-49.861 -171.124)" fill="#e43467"/>
            <path id="Trazado_179390" data-name="Trazado 179390" d="M51.726,23.979a13.632,13.632,0,0,0-1.915.809,16.639,16.639,0,0,1,1.9-.667l.123-.052c.132-.053.256-.077.106-.24-.041.1-.121.118-.216.15" transform="translate(-40.135 -19.2)" fill="#e43467"/>
            <path id="Trazado_179391" data-name="Trazado 179391" d="M112.776,225.1a9.071,9.071,0,0,0,.559-1.125c.934-2.407.238-4.2-2.057-5.388a8.422,8.422,0,0,1-1.307-.625,57.553,57.553,0,0,0-.378,10.732.949.949,0,0,1-.1.273,14.766,14.766,0,0,0,3.288-3.867" transform="translate(-88.198 -175.62)" fill="#fbdf65"/>
            <path id="Trazado_179392" data-name="Trazado 179392" d="M109.15,274.874l.037-.032-.038.023v.01h0" transform="translate(-87.946 -221.454)" fill="#fbdf65"/>
            <path id="Trazado_179393" data-name="Trazado 179393" d="M108.275,228.173a.949.949,0,0,0,.1-.273,57.553,57.553,0,0,1,.378-10.732,1.523,1.523,0,0,1-.213-.191,44.454,44.454,0,0,0-.357,11.263l.038-.023.05-.044" transform="translate(-86.985 -174.829)" fill="#fbdf65"/>
            <path id="Trazado_179394" data-name="Trazado 179394" d="M109.688,228.29a12.7,12.7,0,0,0,3.624-4.821,4.1,4.1,0,0,0-.3-4.228,5.737,5.737,0,0,0-3.314-2.017,1.048,1.048,0,0,1,.027.113c0,.01,0,.02,0,.03a8.412,8.412,0,0,0,1.307.625c2.294,1.185,2.991,2.982,2.057,5.388a9.073,9.073,0,0,1-.559,1.125,14.769,14.769,0,0,1-3.288,3.867c0,.007-.006.014-.01.021l-.04.023-.037.033a.6.6,0,0,0,.532-.159" transform="translate(-87.952 -175.029)" fill="#fbdf65"/>
            <path id="Trazado_179395" data-name="Trazado 179395" d="M109.394,274.613l-.05.044.04-.024c0-.007.006-.014.01-.021" transform="translate(-88.104 -221.269)" fill="#fbdf65"/>
            <path id="Trazado_179396" data-name="Trazado 179396" d="M111.2,217.138a1.038,1.038,0,0,0-.027-.113l-.189-.048a1.536,1.536,0,0,0,.214.191l0-.03" transform="translate(-89.428 -174.829)" fill="#fbdf65"/>
            <path id="Trazado_179397" data-name="Trazado 179397" d="M100.156,277.111c.944,1.651,2.071,3.194,2.9,4.912l0,.013c.331.063.447.41.619.656a22.33,22.33,0,0,0,1.376,1.871c.636.732,1.276.876,1.852.456s.68-1.081.166-1.895c-1.1-1.746-2.377-3.379-3.406-5.174a8.334,8.334,0,0,0-1.763-2.386c-.07,0-.137-.006-.2-.006-.652.371-1.325.722-1.546,1.553" transform="translate(-80.701 -222.031)" fill="#445166"/>
            <path id="Trazado_179398" data-name="Trazado 179398" d="M101.471,275.557c-1.021-.011-1.4.351-1.6,1.457h0l.056.095c.221-.831.894-1.182,1.546-1.553" transform="translate(-80.469 -222.03)" fill="#445166"/>
            <path id="Trazado_179399" data-name="Trazado 179399" d="M102.9,288.478l0-.013c-.831-1.719-1.957-3.262-2.9-4.912l0,.006-.037.025a4.582,4.582,0,0,0,.8,1.7c.634,1.07,1.284,2.129,1.928,3.193a.65.65,0,0,1,.221,0" transform="translate(-80.539 -228.473)" fill="#445166"/>
            <path id="Trazado_179400" data-name="Trazado 179400" d="M99.926,283.159l-.056-.1c0,.044.011.085.017.127l.037-.025,0-.006" transform="translate(-80.47 -228.079)" fill="#445166"/>
            <path id="Trazado_179401" data-name="Trazado 179401" d="M112.3,284.965a1.393,1.393,0,0,0,1.983.308,1.464,1.464,0,0,0,.4-2.045,2.8,2.8,0,0,0-.2-.329,75.567,75.567,0,0,1-4.222-6.462,1.54,1.54,0,0,0-1.109-.847,8.335,8.335,0,0,1,1.764,2.386c1.028,1.8,2.3,3.428,3.406,5.174.514.814.422,1.466-.166,1.895s-1.216.276-1.852-.456a22.334,22.334,0,0,1-1.376-1.871c-.172-.245-.288-.592-.618-.656.014.08.032.16.047.24.215.247.359.549.555.811.462.618.881,1.272,1.387,1.852" transform="translate(-87.948 -222.057)" fill="#445166"/>
            <path id="Trazado_179402" data-name="Trazado 179402" d="M114.239,309.1c-.015-.08-.033-.16-.047-.24a.649.649,0,0,0-.221,0,1.4,1.4,0,0,1,.268.243" transform="translate(-91.832 -248.857)" fill="#445166"/>
            <path id="Trazado_179403" data-name="Trazado 179403" d="M74.915,222.326a15.7,15.7,0,0,0,1.415,4.423c.367.864,1.033,1.189,1.666.924a1.4,1.4,0,0,0,.651-1.826,23.014,23.014,0,0,1-1.159-3.553,1.766,1.766,0,0,1-2.572.032" transform="translate(-60.363 -179.113)" fill="#445166"/>
            <path id="Trazado_179404" data-name="Trazado 179404" d="M77.923,225.442a1.4,1.4,0,0,1-.651,1.826c-.633.264-1.3-.06-1.666-.924a15.687,15.687,0,0,1-1.415-4.423l-.16-.11c-.139,1.658.779,3.021,1.277,4.5.379,1.123,1.173,1.569,2.027,1.275.916-.314,1.214-1.189.8-2.344L76.9,221.792h0l-.131.1a23.042,23.042,0,0,0,1.16,3.553" transform="translate(-59.639 -178.709)" fill="#445166"/>
            <path id="Trazado_179405" data-name="Trazado 179405" d="M74.893,222.141l0,.037a1.766,1.766,0,0,0,2.572-.032c0-.009,0-.017,0-.026l.006-.009a3,3,0,0,1-2.579.031" transform="translate(-60.345 -178.965)" fill="#445166"/>
            <path id="Trazado_179406" data-name="Trazado 179406" d="M88.137,221.867c0,.009,0,.017,0,.026l.131-.1c-.043.022-.085.041-.128.061l-.006.009" transform="translate(-71.016 -178.713)" fill="#445166"/>
            <path id="Trazado_179407" data-name="Trazado 179407" d="M74.246,221.966c-.052-.023-.1-.047-.156-.073l.16.11,0-.037" transform="translate(-59.698 -178.79)" fill="#445166"/>
            <path id="Trazado_179408" data-name="Trazado 179408" d="M105.212,206.874A2.98,2.98,0,0,1,103.656,208a4.794,4.794,0,0,1,1.335.518,3.335,3.335,0,0,1,.221-1.644" transform="translate(-83.521 -166.689)" fill="#409aa4"/>
            <path id="Trazado_179409" data-name="Trazado 179409" d="M102.756,212.669c-.071.02-.141.041-.217.055a4.474,4.474,0,0,0,1.6.649,1.737,1.737,0,0,1-.049-.186,4.8,4.8,0,0,0-1.335-.518" transform="translate(-82.621 -171.358)" fill="#409aa4"/>
            <path id="Trazado_179410" data-name="Trazado 179410" d="M110.825,205.2c-.077.112-.157.22-.239.326a3.338,3.338,0,0,0-.221,1.644c.028.02.054.043.082.065A9.019,9.019,0,0,0,110.825,205.2Z" transform="translate(-88.896 -165.338)" fill="#409aa4"/>
            <path id="Trazado_179411" data-name="Trazado 179411" d="M110.608,215.4c-.027-.022-.054-.045-.081-.065a1.747,1.747,0,0,0,.049.186h0l.032-.122" transform="translate(-89.057 -173.509)" fill="#409aa4"/>
            <path id="Trazado_179412" data-name="Trazado 179412" d="M104.8,206.1c.018-.062.036-.124.053-.186l-1.707,1.279.1.033A2.98,2.98,0,0,0,104.8,206.1" transform="translate(-83.112 -165.915)" fill="#409aa4"/>
            <path id="Trazado_179413" data-name="Trazado 179413" d="M102.657,212.5l-.118.089c.075-.014.145-.036.217-.055l-.1-.033" transform="translate(-82.621 -171.221)" fill="#409aa4"/>
            <path id="Trazado_179414" data-name="Trazado 179414" d="M111.717,205.336c-.017.062-.035.124-.053.186.082-.105.162-.213.239-.326h0l-.186.139" transform="translate(-89.973 -165.337)" fill="#409aa4"/>
            <path id="Trazado_179415" data-name="Trazado 179415" d="M290.121,16.082a74.584,74.584,0,0,0-5.788,6.388,16.286,16.286,0,0,0-2.251,3.723,3.61,3.61,0,0,0,1.847,5.174c.577.294,1.184.518,1.78.767a4.963,4.963,0,0,1,1.1.614c1.232.933,1.34,1.865.311,3.028a37.03,37.03,0,0,1-3.559,3.282,17.386,17.386,0,0,0-3.094,3.325,6.52,6.52,0,0,0-1.255,3.709A3.2,3.2,0,0,0,280.821,49a6.734,6.734,0,0,0,4.491.829,12.991,12.991,0,0,0,7.095-3.308,11.879,11.879,0,0,1,2.784-2.078,4.5,4.5,0,0,1,4.772.395,4.756,4.756,0,0,1,2.169,2.511.41.41,0,0,1,.515.054l.024-.011c0-.1-.11-.2.012-.235a8.332,8.332,0,0,1,3.6-.594,16.791,16.791,0,0,1,4.97.673,1.84,1.84,0,0,1,1.008.516,8.8,8.8,0,0,1,2.888-4.509,7.735,7.735,0,0,1,3.646-1.929,1.746,1.746,0,0,1,.781-.089,48.685,48.685,0,0,0-8.809-13.064A49.738,49.738,0,0,0,297.422,18a35.949,35.949,0,0,0-6.621-2.795c-.053.4-.418.618-.68.874" transform="translate(-224.972 -12.254)" fill="#fbdf65"/>
            <path id="Trazado_179416" data-name="Trazado 179416" d="M338.875,14.289a35.964,35.964,0,0,1,6.621,2.795A49.746,49.746,0,0,1,358.838,27.24,48.684,48.684,0,0,1,367.647,40.3a.724.724,0,0,1,.325.165c-.044-.12-.079-.244-.133-.359a49.336,49.336,0,0,0-17.547-20.445,43.465,43.465,0,0,0-11.417-5.6.817.817,0,0,1,0,.222" transform="translate(-273.048 -11.334)" fill="#fbdf65"/>
            <path id="Trazado_179417" data-name="Trazado 179417" d="M455.871,149.146a7.733,7.733,0,0,0-3.646,1.929,8.8,8.8,0,0,0-2.888,4.509,1.008,1.008,0,0,1,.064.083h0c.086-.208.159-.422.259-.622,1.505-3,3.539-5.347,7.079-5.8-.029-.064-.059-.128-.088-.193a1.743,1.743,0,0,0-.781.089" transform="translate(-362.053 -120.087)" fill="#fbdf65"/>
            <path id="Trazado_179418" data-name="Trazado 179418" d="M487.085,149.33c.078-.01.157-.02.236-.028a.724.724,0,0,0-.325-.165l.088.193" transform="translate(-392.398 -120.167)" fill="#fbdf65"/>
            <path id="Trazado_179419" data-name="Trazado 179419" d="M280.5,26.252a3.751,3.751,0,0,0,2.188,5.16c.763.348,1.565.619,2.3,1.011,1.714.908,1.879,1.89.506,3.248-1.056,1.044-2.195,2.006-3.31,2.99a13.811,13.811,0,0,0-4.011,5.036c-1.2,2.964.017,5.3,3.116,6.025a10.094,10.094,0,0,0,5.79-.592,18.3,18.3,0,0,0,5.677-3.812,4.793,4.793,0,0,1,3.621-1.3c2.148.168,3.4,1.535,4.464,3.189a.618.618,0,0,1,.088-.066,4.755,4.755,0,0,0-2.169-2.511,4.5,4.5,0,0,0-4.772-.395,11.876,11.876,0,0,0-2.784,2.078,12.991,12.991,0,0,1-7.095,3.308,6.734,6.734,0,0,1-4.491-.829,3.2,3.2,0,0,1-1.612-2.905,6.518,6.518,0,0,1,1.255-3.709,17.368,17.368,0,0,1,3.094-3.325,37.035,37.035,0,0,0,3.559-3.282c1.028-1.163.921-2.1-.311-3.028a4.96,4.96,0,0,0-1.1-.614c-.6-.249-1.2-.472-1.78-.767a3.61,3.61,0,0,1-1.847-5.174,16.284,16.284,0,0,1,2.251-3.722,74.554,74.554,0,0,1,5.789-6.388c.261-.255.627-.472.679-.874-.054-.016-.106-.033-.16-.049h0c-2.191,2.312-4.465,4.548-6.434,7.063a15.35,15.35,0,0,0-2.5,4.24" transform="translate(-223.772 -12.046)" fill="#fbdf65"/>
            <path id="Trazado_179420" data-name="Trazado 179420" d="M338.038,14.241c.054.015.106.033.16.049a.807.807,0,0,0,0-.221h0l-.163.171h0" transform="translate(-272.371 -11.335)" fill="#fbdf65"/>
            <path id="Trazado_179421" data-name="Trazado 179421" d="M408.381,177.272a16.8,16.8,0,0,0-4.97-.673,8.335,8.335,0,0,0-3.6.594c-.123.035-.01.137-.012.235a8.566,8.566,0,0,1,3.34-.531,17.682,17.682,0,0,1,6.233.951c0-.02.009-.039.013-.059a1.84,1.84,0,0,0-1.008-.517" transform="translate(-322.105 -142.292)" fill="#fbdf65"/>
            <path id="Trazado_179422" data-name="Trazado 179422" d="M449.272,182.8l.077.024a1,1,0,0,0-.064-.083c0,.02-.009.039-.012.059" transform="translate(-362.001 -147.24)" fill="#fbdf65"/>
            <path id="Trazado_179423" data-name="Trazado 179423" d="M397.732,180.427a.41.41,0,0,0-.515-.054c.006.021.013.042.018.064l.5-.01" transform="translate(-320.058 -145.281)" fill="#fbdf65"/>
            <path id="Trazado_179424" data-name="Trazado 179424" d="M396.872,180.718c-.005-.022-.012-.043-.018-.064a.631.631,0,0,0-.088.066l.106,0" transform="translate(-319.694 -145.562)" fill="#fbdf65"/>
            <path id="Trazado_179425" data-name="Trazado 179425" d="M160.833,348.986a55.4,55.4,0,0,1-6.075-4.784,1.639,1.639,0,0,0-1.222-.482,1.342,1.342,0,0,0-1.349.913,1.459,1.459,0,0,0,.465,1.741,44.678,44.678,0,0,0,6.523,5.146,1.542,1.542,0,0,0,2.217-.341,1.582,1.582,0,0,0-.559-2.193" transform="translate(-122.521 -276.948)" fill="#445166"/>
            <path id="Trazado_179426" data-name="Trazado 179426" d="M367.646,211.863a10.362,10.362,0,0,0,10.28,10.478c5.977-.065,10.417-5.15,10.15-10.274.216-5.545-4.679-10.195-10.045-10.265a10.428,10.428,0,0,0-10.386,10.062m11.5-7.713a8.014,8.014,0,0,1,6.763,6.857,8.142,8.142,0,0,1-6.678,9.027,5.52,5.52,0,0,1-.868.021,8.006,8.006,0,0,1-1.493-15.935,4,4,0,0,1,2.276.03" transform="translate(-296.23 -162.601)" fill="#e43467"/>
            <path id="Trazado_179427" data-name="Trazado 179427" d="M49.124,54.939c.286-5.427-4.819-10.156-9.937-10.267A10.61,10.61,0,0,0,28.673,54.817,10.582,10.582,0,0,0,38.867,65.179c5.492.03,10.516-4.845,10.257-10.24m-7.873,7.724a6.062,6.062,0,0,1-.852.137h0a7.455,7.455,0,0,1-5.971-1.211,8.054,8.054,0,0,1-2.964-9.68,8.308,8.308,0,0,1,8.58-5.013,1.281,1.281,0,0,1,.342.162,7.539,7.539,0,0,1,6.09,5.038,8.042,8.042,0,0,1-5.225,10.568" transform="translate(-23.103 -35.993)" fill="#e43467"/>
            <path id="Trazado_179428" data-name="Trazado 179428" d="M388.617,221.418a8.2,8.2,0,0,0,5.645,8.086c.332.112.728-.032,1,.273a5.473,5.473,0,0,0,.868-.021,8.142,8.142,0,0,0,6.678-9.027,8.014,8.014,0,0,0-6.764-6.857c-3.494-.168-7.367,3.5-7.426,7.545" transform="translate(-313.127 -172.323)" fill="#fbfbfb"/>
            <path id="Trazado_179429" data-name="Trazado 179429" d="M378.879,221.533a7.991,7.991,0,0,0,8.511,7.489,7.223,7.223,0,0,1-6.448-5.348,7.8,7.8,0,0,1,1.837-8.341c1.478-1.513,3.164-2.529,5.394-2.216a4,4,0,0,0-2.276-.03,8.008,8.008,0,0,0-7.018,8.446" transform="translate(-305.257 -171.568)" fill="#e4e4e4"/>
            <path id="Trazado_179430" data-name="Trazado 179430" d="M389.452,215.878a7.8,7.8,0,0,0-1.837,8.341,7.223,7.223,0,0,0,6.447,5.348c-.271-.305-.667-.161-1-.273a8.2,8.2,0,0,1-5.645-8.086c.059-4.041,3.932-7.713,7.426-7.545-2.23-.312-3.916.7-5.394,2.216" transform="translate(-311.93 -172.112)" fill="#e4e4e4"/>
            <path id="Trazado_179431" data-name="Trazado 179431" d="M63.311,61.906a7.539,7.539,0,0,0-6.09-5.038c-3.942-.364-7.413,3.857-7.639,7.293-.3,4.543,3.651,8.81,7.652,8.449h0a6.031,6.031,0,0,0,.853-.137,8.043,8.043,0,0,0,5.225-10.568" transform="translate(-39.938 -45.804)" fill="#fbfbfb"/>
            <path id="Trazado_179432" data-name="Trazado 179432" d="M44.016,69.61A8.3,8.3,0,0,1,46,56.639a5.039,5.039,0,0,1,3.628-.63,1.281,1.281,0,0,0-.342-.162,8.308,8.308,0,0,0-8.58,5.014,8.054,8.054,0,0,0,2.963,9.68,7.456,7.456,0,0,0,5.971,1.211,5.986,5.986,0,0,1-5.628-2.141" transform="translate(-32.348 -44.945)" fill="#e4e4e4"/>
            <path id="Trazado_179433" data-name="Trazado 179433" d="M48.582,63.787c.226-3.436,3.7-7.657,7.639-7.293a5.037,5.037,0,0,0-3.628.63A8.3,8.3,0,0,0,50.606,70.1a5.986,5.986,0,0,0,5.628,2.141h0c-4,.361-7.951-3.907-7.652-8.449" transform="translate(-38.938 -45.43)" fill="#e4e4e4"/>
          </g>
        </g>
        <path id="Polígono_5" data-name="Polígono 5" d="M13,0,26,22H0Z" transform="translate(437 5535.096) rotate(90)" fill="#2754ba"/>
      </g>
    </g>
  </g>
</svg>
