<svg xmlns="http://www.w3.org/2000/svg" xmlns:xlink="http://www.w3.org/1999/xlink" width="169.371" height="99.418" viewBox="0 0 169.371 99.418">
  <defs>
    <clipPath id="clip-path">
      <rect id="Rectángulo_66647" data-name="Rectángulo 66647" width="95.451" height="99.418" fill="none"/>
    </clipPath>
  </defs>
  <g id="Grupo_217271" data-name="Grupo 217271" transform="translate(-655.274 -5496.387)">
    <g id="Grupo_152913" data-name="Grupo 152913" transform="translate(655.274 5496.387)">
      <g id="Grupo_152912" data-name="Grupo 152912" clip-path="url(#clip-path)">
        <path id="Trazado_179533" data-name="Trazado 179533" d="M191.3,13.331c.193-.295.373-.6.559-.9a10.1,10.1,0,0,0,.59-5.612l-.072-.019c-.377-.268-.416-.715-.572-1.1A8.439,8.439,0,0,0,185.757.455c-.275-.07-.7.049-.711-.455h-1.165q0,8.722,0,17.443a8.483,8.483,0,0,0,7.414-4.112" transform="translate(-136.16)" fill="#f76d24"/>
        <path id="Trazado_179534" data-name="Trazado 179534" d="M189.081.454a8.438,8.438,0,0,1,6.045,5.252c.156.382.2.83.572,1.1l.072.019c-.013-.07-.025-.139-.039-.209a9.748,9.748,0,0,0-2.925-4.588A10.527,10.527,0,0,0,188.37,0c.01.5.436.385.711.455" transform="translate(-139.484 0.001)" fill="#f76d24"/>
        <path id="Trazado_179535" data-name="Trazado 179535" d="M157.1.477a8.336,8.336,0,0,0-6.15,5.482,1.562,1.562,0,0,1-.461.832c-.031.015-.064.026-.1.04a10.468,10.468,0,0,0,.578,5.607,9.48,9.48,0,0,0,4.353,4.231,7.992,7.992,0,0,0,3.571.776,1.018,1.018,0,0,1-.133-.214,3.463,3.463,0,0,1-.107-1.056q-.007-7.4,0-14.794A1.91,1.91,0,0,1,158.967,0H157.8c0,.494-.428.412-.7.477" transform="translate(-111.246)" fill="#f88725"/>
        <path id="Trazado_179536" data-name="Trazado 179536" d="M150.886,6.606c-.016.075-.028.149-.042.224.032-.014.065-.025.1-.04a1.563,1.563,0,0,0,.461-.832,8.336,8.336,0,0,1,6.15-5.481c.273-.066.7.017.7-.477a9.18,9.18,0,0,0-7.367,6.606" transform="translate(-111.696)" fill="#f88725"/>
        <path id="Trazado_179537" data-name="Trazado 179537" d="M182.669,1.38q-.009,7.4,0,14.795a3.462,3.462,0,0,0,.107,1.056,1.017,1.017,0,0,0,.133.214h.074L182.98,0a1.91,1.91,0,0,0-.311,1.38" transform="translate(-135.259)" fill="#f88725"/>
        <path id="Trazado_179538" data-name="Trazado 179538" d="M242.994,38.55h0a8.817,8.817,0,0,0,6.305,9.409,9.423,9.423,0,0,0,6.676-.689,10.726,10.726,0,0,0,3.816-4.213c-.023-.045-.049-.088-.07-.135a1.861,1.861,0,0,1,.121-.947,8.493,8.493,0,0,0-7.963-10.9,7.829,7.829,0,0,0-4.682,1.327,2.44,2.44,0,0,1-1.294.607l-.044-.019a10.083,10.083,0,0,0-2.866,5.555" transform="translate(-179.91 -23.009)" fill="#fe3cac"/>
        <path id="Trazado_179539" data-name="Trazado 179539" d="M254.165,32.364a2.442,2.442,0,0,0,1.294-.607,7.831,7.831,0,0,1,4.682-1.327,8.493,8.493,0,0,1,7.963,10.9,1.865,1.865,0,0,0-.121.947c.02.047.047.09.069.135.011-.021.023-.04.033-.062h0c.092-.342.178-.685.276-1.025a8.719,8.719,0,0,0-9.548-11.047,10.725,10.725,0,0,0-4.645,2.02c-.017.017-.031.034-.048.051l.044.019" transform="translate(-188.171 -22.36)" fill="#fe3cac"/>
        <path id="Trazado_179540" data-name="Trazado 179540" d="M302.934,111.692h0a8.471,8.471,0,0,0-2.113,8.938,8.38,8.38,0,0,0,6.926,5.888.91.91,0,0,1,.249.138h0a10.1,10.1,0,0,0,5.6-1.236,2.128,2.128,0,0,1,.767-.908,8.441,8.441,0,0,0-5.176-15.056,2,2,0,0,1-.758-.125,1.174,1.174,0,0,1-.179-.141,9.113,9.113,0,0,0-5.318,2.5h0" transform="translate(-222.392 -80.854)" fill="#fe70c2"/>
        <path id="Trazado_179541" data-name="Trazado 179541" d="M331.016,109.261a1.991,1.991,0,0,0,.758.124,8.441,8.441,0,0,1,5.176,15.056,2.129,2.129,0,0,0-.767.908c.064-.035.129-.065.193-.1h0c.249-.2.5-.4.747-.608a8.748,8.748,0,0,0-6.159-15.536l-.127.017a1.185,1.185,0,0,0,.179.141" transform="translate(-244.977 -80.783)" fill="#fe70c2"/>
        <path id="Trazado_179542" data-name="Trazado 179542" d="M256.017,286.689h0a9.231,9.231,0,0,0-6.763-.659,8.723,8.723,0,0,0-6.231,8.593q.007.387.013.774h0a9.985,9.985,0,0,0,2.851,5.54l.045-.018c.434-.06.721.227,1.039.441a8.379,8.379,0,0,0,9.869-.2,8.611,8.611,0,0,0,3.129-8.875,2.77,2.77,0,0,1-.211-1.228c.024-.052.052-.1.078-.151a10.514,10.514,0,0,0-3.819-4.22" transform="translate(-179.952 -211.524)" fill="#0a77e7"/>
        <path id="Trazado_179543" data-name="Trazado 179543" d="M268.013,305.891c-.026.05-.055.1-.078.151a2.766,2.766,0,0,0,.211,1.228,8.611,8.611,0,0,1-3.129,8.874,8.378,8.378,0,0,1-9.869.2c-.317-.214-.605-.5-1.039-.441l-.045.017.061.063h0c.267.178.538.351.8.535a8.744,8.744,0,0,0,13.063-3.77,9.281,9.281,0,0,0,.052-6.8h0c-.009-.018-.02-.035-.029-.053" transform="translate(-188.129 -226.505)" fill="#0a77e7"/>
        <path id="Trazado_179544" data-name="Trazado 179544" d="M62.719,47.272a9.45,9.45,0,0,0,6.285.8,8.766,8.766,0,0,0,6.713-8.4c0-.418-.017-.837-.027-1.255h0a10.113,10.113,0,0,0-2.847-5.383l-.041.017c-.434.058-.722-.229-1.039-.443a8.334,8.334,0,0,0-9.875.207A8.614,8.614,0,0,0,58.773,41.7a2.591,2.591,0,0,1,.2,1.229c-.021.043-.047.083-.069.126a10.48,10.48,0,0,0,3.814,4.219" transform="translate(-43.342 -23.016)" fill="#f9a42d"/>
        <path id="Trazado_179545" data-name="Trazado 179545" d="M58.167,42.242a2.6,2.6,0,0,0-.2-1.229,8.613,8.613,0,0,1,3.115-8.889,8.334,8.334,0,0,1,9.875-.207c.318.214.606.5,1.039.443l.041-.017c-.019-.019-.035-.039-.054-.057h0c-.24-.161-.484-.317-.718-.486a8.728,8.728,0,0,0-13.1,3.625,9.166,9.166,0,0,0-.091,6.89c.009.018.019.035.028.052.023-.042.048-.082.069-.125" transform="translate(-42.535 -22.331)" fill="#f9a42d"/>
        <path id="Trazado_179546" data-name="Trazado 179546" d="M10.6,126.6h0a9.41,9.41,0,0,0,5.688-3.22,8.714,8.714,0,0,0-.2-11.235c-.232-.269-.458-.543-.687-.814h0a9.562,9.562,0,0,0-5.462-2.191,2.372,2.372,0,0,1-.93.2,8.781,8.781,0,0,0-6.392,3.591,8.416,8.416,0,0,0,1.259,11.238c.424.374,1,.635,1.19,1.234a9.7,9.7,0,0,0,5.529,1.2" transform="translate(-0.763 -80.815)" fill="#fec045"/>
        <path id="Trazado_179547" data-name="Trazado 179547" d="M4.405,125.136c-.193-.6-.766-.86-1.19-1.234a8.417,8.417,0,0,1-1.259-11.238,8.78,8.78,0,0,1,6.392-3.59,2.378,2.378,0,0,0,.93-.2c-.286-.016-.577-.018-.873-.005a2.008,2.008,0,0,0,.566-.088c-.186.022-.374.049-.566.088-.1.01-.192.022-.288.03a8.71,8.71,0,0,0-7.925,9.716,8.807,8.807,0,0,0,4.1,6.465h0c.037.021.074.038.111.058" transform="translate(-0.096 -80.548)" fill="#fec045"/>
        <path id="Trazado_179548" data-name="Trazado 179548" d="M15.529,221.875a9.263,9.263,0,0,0,2.815-6.783,8.749,8.749,0,0,0-7.077-8.336c-.186-.035-.365-.1-.547-.153A9.681,9.681,0,0,0,5.2,207.794c-.106.453-.515.66-.833.924a8.489,8.489,0,0,0,.194,13.408,7.851,7.851,0,0,0,4.868,1.662,2.017,2.017,0,0,1,.856.126.861.861,0,0,1,.187.142,10.139,10.139,0,0,0,5.054-2.18h0" transform="translate(-0.88 -152.964)" fill="#fed64f"/>
        <path id="Trazado_179549" data-name="Trazado 179549" d="M9.594,227.531a.866.866,0,0,0-.186-.142,2.015,2.015,0,0,0-.856-.126A7.853,7.853,0,0,1,3.684,225.6a8.489,8.489,0,0,1-.194-13.408c.318-.264.727-.472.833-.924-.041.023-.083.042-.124.066h0c-.21.15-.424.295-.629.451a8.758,8.758,0,0,0,5.893,15.761l.131-.016" transform="translate(0 -156.441)" fill="#fed64f"/>
        <path id="Trazado_179550" data-name="Trazado 179550" d="M307.642,206.775h0a8.781,8.781,0,0,0-4.621,14.913,9.584,9.584,0,0,0,5.271,2.42,1.206,1.206,0,0,1,.161-.135,14.018,14.018,0,0,1,2.294-.267,8.412,8.412,0,0,0,6.86-8.332,8.079,8.079,0,0,0-2.948-6.382c-.377-.329-.835-.6-1.006-1.106a9.034,9.034,0,0,0-6.011-1.111" transform="translate(-222.435 -153.016)" fill="#085aad"/>
        <path id="Trazado_179551" data-name="Trazado 179551" d="M337.192,212.533a8.079,8.079,0,0,1,2.949,6.382,8.413,8.413,0,0,1-6.86,8.332,14.017,14.017,0,0,0-2.294.267,1.224,1.224,0,0,0-.161.135c.044.005.085.015.129.019.257-.007.515-.017.772-.02a8.665,8.665,0,0,0,8.2-5.945,8.8,8.8,0,0,0-3.56-10.176c-.062-.035-.123-.067-.185-.1.171.51.629.776,1.006,1.105" transform="translate(-244.968 -156.558)" fill="#085aad"/>
        <path id="Trazado_179552" data-name="Trazado 179552" d="M75.7,295.549c.1-4.612-1.848-7.877-5.583-9.31a9.15,9.15,0,0,0-7.387.455,10.456,10.456,0,0,0-3.807,4.206,1.331,1.331,0,0,1,.06.139,1.877,1.877,0,0,1-.122.948,8.49,8.49,0,0,0,7.979,10.893,7.75,7.75,0,0,0,4.841-1.451c.335-.24.644-.559,1.116-.511l.051.021a10.093,10.093,0,0,0,2.851-5.391" transform="translate(-43.353 -211.525)" fill="#0fdafe"/>
        <path id="Trazado_179553" data-name="Trazado 179553" d="M71.972,315.869c-.472-.049-.781.271-1.115.511a7.753,7.753,0,0,1-4.842,1.451,8.49,8.49,0,0,1-7.979-10.893,1.877,1.877,0,0,0,.122-.948,1.332,1.332,0,0,0-.06-.139c-.011.023-.024.043-.035.066-.087.31-.171.621-.262.929a8.722,8.722,0,0,0,9.536,11.135,10.109,10.109,0,0,0,4.634-2.036h0c.018-.018.034-.037.052-.055l-.051-.021" transform="translate(-42.527 -226.475)" fill="#0fdafe"/>
        <path id="Trazado_179554" data-name="Trazado 179554" d="M191.859,320.907h0a8.926,8.926,0,0,0-6.82-4.953c-.378-.054-.767-.037-1.15-.053q0,8.593,0,17.187a8.453,8.453,0,0,0,7.975-5.6c.132-.322.179-.691.487-.922l.094-.033a10.045,10.045,0,0,0-.587-5.622" transform="translate(-136.166 -233.918)" fill="#0f99ef"/>
        <path id="Trazado_179555" data-name="Trazado 179555" d="M192.352,356.883c-.309.23-.356.6-.487.922a8.453,8.453,0,0,1-7.975,5.6v.221a5.693,5.693,0,0,0,2.193-.263,8.85,8.85,0,0,0,6.33-6.318c.014-.067.021-.133.033-.2l-.095.033" transform="translate(-136.166 -264.239)" fill="#0f99ef"/>
        <path id="Trazado_179556" data-name="Trazado 179556" d="M158.662,316.915a2.721,2.721,0,0,1,.09-.766.983.983,0,0,1,.135-.235,8.51,8.51,0,0,0-7.335,4.107c-.193.295-.371.6-.556.9a10.039,10.039,0,0,0-.615,5.5h0c.387.208.443.612.576.972a8.463,8.463,0,0,0,7.843,5.7,1.819,1.819,0,0,1-.137-.857q-.019-7.658,0-15.317" transform="translate(-111.248 -233.927)" fill="#13bcf6"/>
        <path id="Trazado_179557" data-name="Trazado 179557" d="M151.366,357.37c-.132-.359-.189-.764-.576-.972h0c.008.046.012.092.021.138h0c.072.213.15.423.216.637a8.709,8.709,0,0,0,8.354,6.123.906.906,0,0,1-.171-.23,8.463,8.463,0,0,1-7.843-5.7" transform="translate(-111.656 -263.904)" fill="#13bcf6"/>
        <path id="Trazado_179558" data-name="Trazado 179558" d="M182.9,315.905a.983.983,0,0,0-.135.236,2.708,2.708,0,0,0-.09.766q-.018,7.658,0,15.317a1.821,1.821,0,0,0,.137.857c.053,0,.1.008.156.01h.014V315.9l-.084,0" transform="translate(-135.26 -233.918)" fill="#13bcf6"/>
        <path id="Trazado_179559" data-name="Trazado 179559" d="M183.388,382.1c-.053,0-.1-.007-.156-.01a.912.912,0,0,0,.171.23V382.1h-.014" transform="translate(-135.679 -282.93)" fill="#13bcf6"/>
        <path id="Trazado_179560" data-name="Trazado 179560" d="M41.7,87.712l.031.033c.7-.584.934-1.5,1.5-2.185,1.017-1.241,1.979-2.528,2.961-3.8a10.129,10.129,0,0,1-3.3-3.17,1.89,1.89,0,0,1-.447-1.121,20.621,20.621,0,0,1-1.913,2.372,32.714,32.714,0,0,0-3.073,4.434,3.213,3.213,0,0,1-1.1,1.281A8.438,8.438,0,0,1,41.7,87.712" transform="translate(-26.922 -57.366)" fill="#f1f1f1"/>
        <path id="Trazado_179561" data-name="Trazado 179561" d="M35.861,83.93A32.715,32.715,0,0,1,38.935,79.5a20.659,20.659,0,0,0,1.913-2.372.985.985,0,0,1,.01-.122,32.549,32.549,0,0,0-5.035,6.515c-.438.73-.817,1.481-1.624,1.732.189-.022.376-.034.56-.038a3.212,3.212,0,0,0,1.1-1.281" transform="translate(-25.324 -57.019)" fill="#f1f1f1"/>
        <path id="Trazado_179562" data-name="Trazado 179562" d="M60.262,78.4a10.126,10.126,0,0,0,3.3,3.17l.108-.14a10.48,10.48,0,0,1-3.814-4.219l-.038.069a1.888,1.888,0,0,0,.447,1.121" transform="translate(-44.29 -57.169)" fill="#f1f1f1"/>
        <path id="Trazado_179563" data-name="Trazado 179563" d="M59.856,77.056c-.009-.018-.019-.035-.028-.052a1.037,1.037,0,0,0-.01.121l.038-.069" transform="translate(-44.294 -57.02)" fill="#f1f1f1"/>
        <path id="Trazado_179564" data-name="Trazado 179564" d="M40.842,110.948h0a2.105,2.105,0,0,0,.167-.136l-.031-.033a8.437,8.437,0,0,0-5.344-2.154,2.127,2.127,0,0,1-.254.132,9.562,9.562,0,0,1,5.462,2.191h0" transform="translate(-26.198 -80.433)" fill="#f1f1f1"/>
        <path id="Trazado_179565" data-name="Trazado 179565" d="M32.892,108.764a2.07,2.07,0,0,0,.253-.132c-.184,0-.37.016-.56.038a1.989,1.989,0,0,1-.566.088q.443-.018.873.005" transform="translate(-23.709 -80.439)" fill="#f1f1f1"/>
        <path id="Trazado_179566" data-name="Trazado 179566" d="M216.111,29.617a8.8,8.8,0,0,1-.653,2.317c-.016.032-.033.063-.049.094a48.341,48.341,0,0,1,6.557,2.131,1.109,1.109,0,0,1,.516.389,9.359,9.359,0,0,1,1.979-4.284,1.835,1.835,0,0,1,.929-.771,62.212,62.212,0,0,0-9.507-3.112,5.186,5.186,0,0,1,.228,3.235" transform="translate(-159.505 -19.535)" fill="#dadada"/>
        <path id="Trazado_179567" data-name="Trazado 179567" d="M226.373,28.828a1.077,1.077,0,0,1,.113-.023,9.23,9.23,0,0,0-2.58-1.222,45.9,45.9,0,0,0-7.17-2.1c.047.077.09.155.13.233a62.274,62.274,0,0,1,9.507,3.111" transform="translate(-160.488 -18.87)" fill="#dadada"/>
        <path id="Trazado_179568" data-name="Trazado 179568" d="M214.818,31.961c.016-.032.033-.062.049-.094a8.8,8.8,0,0,0,.653-2.317,5.187,5.187,0,0,0-.228-3.235l-.091-.023a10.1,10.1,0,0,1-.59,5.612l.207.058" transform="translate(-158.914 -19.468)" fill="#dadada"/>
        <path id="Trazado_179569" data-name="Trazado 179569" d="M216.865,25.717c-.04-.078-.082-.156-.13-.233.014.07.026.14.039.209l.091.024" transform="translate(-160.487 -18.87)" fill="#dadada"/>
        <path id="Trazado_179570" data-name="Trazado 179570" d="M244.644,39.142a9.359,9.359,0,0,0-1.979,4.284.821.821,0,0,1,.107.528h0a10.086,10.086,0,0,1,2.866-5.555l-.066-.028a1.838,1.838,0,0,0-.929.771" transform="translate(-179.688 -28.413)" fill="#dadada"/>
        <path id="Trazado_179571" data-name="Trazado 179571" d="M253.935,38.333c.017-.017.031-.034.048-.051a.959.959,0,0,0-.113.023l.066.028" transform="translate(-187.984 -28.347)" fill="#dadada"/>
        <path id="Trazado_179572" data-name="Trazado 179572" d="M293.533,81.739a50.57,50.57,0,0,1,3.955,5.378,2.553,2.553,0,0,1,.386.779,8.8,8.8,0,0,1,4.355-2.287,1.871,1.871,0,0,1,.849-.075,4.963,4.963,0,0,1-.39-.618A40.312,40.312,0,0,0,298,78.431a4.971,4.971,0,0,1-.739-.995,3.3,3.3,0,0,1-.994,1.913,10.1,10.1,0,0,1-2.734,2.39" transform="translate(-217.354 -57.34)" fill="#dadada"/>
        <path id="Trazado_179573" data-name="Trazado 179573" d="M308.635,78.118a40.312,40.312,0,0,1,4.689,6.484,4.938,4.938,0,0,0,.39.619.774.774,0,0,1,.263.127,31.27,31.27,0,0,0-3.208-5,22.7,22.7,0,0,0-2.864-3.335c0,.038-.006.073-.009.109a4.991,4.991,0,0,0,.739,1" transform="translate(-227.99 -57.027)" fill="#dadada"/>
        <path id="Trazado_179574" data-name="Trazado 179574" d="M293.1,81.465h0l.112.138a10.113,10.113,0,0,0,2.734-2.39,3.306,3.306,0,0,0,.994-1.913l-.024-.048a10.722,10.722,0,0,1-3.816,4.213" transform="translate(-217.034 -57.203)" fill="#dadada"/>
        <path id="Trazado_179575" data-name="Trazado 179575" d="M307.827,77.124c0-.037.009-.072.009-.109-.011.021-.023.04-.034.062l.025.048" transform="translate(-227.92 -57.028)" fill="#dadada"/>
        <path id="Trazado_179576" data-name="Trazado 179576" d="M314.617,108.632a8.8,8.8,0,0,0-4.355,2.287,1.032,1.032,0,0,1,.022.282h0a9.11,9.11,0,0,1,5.317-2.5,1.45,1.45,0,0,1-.136-.144,1.877,1.877,0,0,0-.849.075" transform="translate(-229.742 -80.364)" fill="#dadada"/>
        <path id="Trazado_179577" data-name="Trazado 179577" d="M330.45,108.782l.127-.017a.77.77,0,0,0-.263-.127,1.444,1.444,0,0,0,.135.144" transform="translate(-244.591 -80.444)" fill="#dadada"/>
        <path id="Trazado_179578" data-name="Trazado 179578" d="M300.636,267.227a10.022,10.022,0,0,1-2.808-1.777,24.506,24.506,0,0,1-3.223,4.782c-.356.456-.722.9-1.085,1.356a10.193,10.193,0,0,1,3.244,3.088,2.064,2.064,0,0,1,.5,1.2,13.4,13.4,0,0,1,1.54-1.9,41.708,41.708,0,0,0,3.912-5.626,3.532,3.532,0,0,1,.4-.615,4.288,4.288,0,0,1-2.485-.505" transform="translate(-217.345 -196.56)" fill="#dadada"/>
        <path id="Trazado_179579" data-name="Trazado 179579" d="M313.381,274.684a41.727,41.727,0,0,1-3.912,5.626,13.38,13.38,0,0,0-1.54,1.9,1.152,1.152,0,0,1-.007.122c.577-.24.785-.833,1.161-1.256a34.214,34.214,0,0,0,4.912-7.072,2.058,2.058,0,0,1-.209.061,3.525,3.525,0,0,0-.4.615" transform="translate(-228.009 -202.896)" fill="#dadada"/>
        <path id="Trazado_179580" data-name="Trazado 179580" d="M296.449,292.191a10.2,10.2,0,0,0-3.244-3.088l-.11.137a10.516,10.516,0,0,1,3.819,4.22c.012-.023.023-.046.036-.069a2.066,2.066,0,0,0-.5-1.2" transform="translate(-217.03 -214.074)" fill="#dadada"/>
        <path id="Trazado_179581" data-name="Trazado 179581" d="M307.811,305.7c.009.018.02.035.029.053a1.142,1.142,0,0,0,.007-.122l-.036.069" transform="translate(-227.927 -226.31)" fill="#dadada"/>
        <path id="Trazado_179582" data-name="Trazado 179582" d="M310.222,264.61c-.032.074-.069.145-.1.218a10.013,10.013,0,0,0,2.808,1.777,4.284,4.284,0,0,0,2.485.505c.025-.028.053-.055.08-.081a9.585,9.585,0,0,1-5.271-2.42" transform="translate(-229.636 -195.938)" fill="#dadada"/>
        <path id="Trazado_179583" data-name="Trazado 179583" d="M330.516,274.013a2.065,2.065,0,0,0,.209-.061c-.044,0-.085-.014-.129-.019-.027.026-.055.053-.08.081" transform="translate(-244.739 -202.84)" fill="#dadada"/>
        <path id="Trazado_179584" data-name="Trazado 179584" d="M224.455,329.516a9.353,9.353,0,0,1-1.979-4.29,1.049,1.049,0,0,1-.508.4,48.493,48.493,0,0,1-6.565,2.13c.015.031.032.06.048.091a9.6,9.6,0,0,1,.778,4.049,3.318,3.318,0,0,1-.325,1.5c1.385-.491,2.84-.729,4.242-1.168,1.772-.555,3.472-1.286,5.2-1.951a1.838,1.838,0,0,1-.889-.755" transform="translate(-159.5 -240.822)" fill="#dadada"/>
        <path id="Trazado_179585" data-name="Trazado 179585" d="M221.131,346.619c-1.4.439-2.857.677-4.242,1.168a1.918,1.918,0,0,1-.155.243,48.624,48.624,0,0,0,5.64-1.551,16.308,16.308,0,0,0,4.109-1.783.982.982,0,0,1-.152-.028c-1.727.665-3.427,1.4-5.2,1.951" transform="translate(-160.486 -255.219)" fill="#dadada"/>
        <path id="Trazado_179586" data-name="Trazado 179586" d="M242.767,323.186a.9.9,0,0,1-.108.529,9.356,9.356,0,0,0,1.979,4.29,1.837,1.837,0,0,0,.89.755l.091-.035a9.983,9.983,0,0,1-2.851-5.54" transform="translate(-179.683 -239.312)" fill="#dadada"/>
        <path id="Trazado_179587" data-name="Trazado 179587" d="M253.8,344.532l-.091.035a.95.95,0,0,0,.152.028l-.061-.063" transform="translate(-187.868 -255.118)" fill="#dadada"/>
        <path id="Trazado_179588" data-name="Trazado 179588" d="M214.856,335.055c-.015-.031-.032-.06-.047-.091l-.208.058a10.045,10.045,0,0,1,.587,5.622l.122-.043a3.318,3.318,0,0,0,.325-1.5,9.6,9.6,0,0,0-.778-4.049" transform="translate(-158.906 -248.033)" fill="#dadada"/>
        <path id="Trazado_179589" data-name="Trazado 179589" d="M216.766,356.728c-.012.067-.02.133-.033.2a1.948,1.948,0,0,0,.156-.243l-.122.043" transform="translate(-160.486 -264.117)" fill="#dadada"/>
        <path id="Trazado_179590" data-name="Trazado 179590" d="M46.986,271.961a50.054,50.054,0,0,1-4.14-5.661,1.243,1.243,0,0,0-.283-.345c-.011.009-.019.02-.03.029a10.041,10.041,0,0,1-4.242,2.109,1.905,1.905,0,0,1-.85.07,2.021,2.021,0,0,1,.14.213,43.368,43.368,0,0,0,5.242,7.272,2.988,2.988,0,0,1,.444.6,3.246,3.246,0,0,1,.986-1.9,10.06,10.06,0,0,1,2.733-2.39" transform="translate(-27.723 -196.934)" fill="#f1f1f1"/>
        <path id="Trazado_179591" data-name="Trazado 179591" d="M42.1,281.6a43.354,43.354,0,0,1-5.242-7.272,1.985,1.985,0,0,0-.141-.213.767.767,0,0,1-.254-.123,24.942,24.942,0,0,0,2.345,3.848,28.924,28.924,0,0,0,3.728,4.487c0-.044.006-.085.008-.128a3,3,0,0,0-.444-.6" transform="translate(-26.999 -202.883)" fill="#f1f1f1"/>
        <path id="Trazado_179592" data-name="Trazado 179592" d="M37.94,267.777a10.041,10.041,0,0,0,4.242-2.109c.011-.009.02-.019.03-.029a.677.677,0,0,0-.19-.11h0a10.138,10.138,0,0,1-5.054,2.18,1.174,1.174,0,0,1,.122.139,1.909,1.909,0,0,0,.85-.07" transform="translate(-27.374 -196.618)" fill="#f1f1f1"/>
        <path id="Trazado_179593" data-name="Trazado 179593" d="M36.592,273.929l-.131.016a.763.763,0,0,0,.254.123,1.149,1.149,0,0,0-.122-.139" transform="translate(-26.999 -202.838)" fill="#f1f1f1"/>
        <path id="Trazado_179594" data-name="Trazado 179594" d="M63.726,289.239h0l-.115-.142a10.065,10.065,0,0,0-2.733,2.39,3.245,3.245,0,0,0-.986,1.9c.01.02.017.042.027.063a10.456,10.456,0,0,1,3.807-4.206" transform="translate(-44.349 -214.07)" fill="#f1f1f1"/>
        <path id="Trazado_179595" data-name="Trazado 179595" d="M59.869,305.609c0,.043-.009.084-.008.128.011-.022.024-.043.035-.066-.009-.021-.017-.042-.027-.063" transform="translate(-44.326 -226.296)" fill="#f1f1f1"/>
        <path id="Trazado_179596" data-name="Trazado 179596" d="M123.136,330.6a8.913,8.913,0,0,1,.711-2.7c.017-.034.035-.066.052-.1a59.026,59.026,0,0,1-6.219-1.98,1.631,1.631,0,0,1-.837-.536,10,10,0,0,1-1.879,4.114c-.286.368-.539.8-1.037.91a58.965,58.965,0,0,0,7.226,2.516c.75.2,1.511.336,2.264.516a4.3,4.3,0,0,1-.281-2.742" transform="translate(-84.36 -240.869)" fill="#f1f1f1"/>
        <path id="Trazado_179597" data-name="Trazado 179597" d="M120.8,347.162a58.919,58.919,0,0,1-7.226-2.516,1.053,1.053,0,0,1-.123.026,1.033,1.033,0,0,0,.615.44,43.522,43.522,0,0,0,5.442,1.94,12.722,12.722,0,0,0,3.654.782c-.035-.051-.067-.1-.1-.156-.753-.18-1.515-.318-2.264-.516" transform="translate(-84.009 -255.202)" fill="#f1f1f1"/>
        <path id="Trazado_179598" data-name="Trazado 179598" d="M114.76,328.273a10,10,0,0,0,1.879-4.114.909.909,0,0,1-.136-.4h0a10.091,10.091,0,0,1-2.851,5.391l.071.029c.5-.115.751-.542,1.037-.91" transform="translate(-84.157 -239.739)" fill="#f1f1f1"/>
        <path id="Trazado_179599" data-name="Trazado 179599" d="M113.5,344.535c-.018.018-.034.037-.052.055a1.056,1.056,0,0,0,.123-.026l-.071-.029" transform="translate(-84.009 -255.12)" fill="#f1f1f1"/>
        <path id="Trazado_179600" data-name="Trazado 179600" d="M150.128,335.043l-.21-.058c-.017.034-.036.066-.052.1a8.919,8.919,0,0,0-.711,2.7,4.3,4.3,0,0,0,.281,2.742l.077.018a10.039,10.039,0,0,1,.615-5.5" transform="translate(-110.38 -248.049)" fill="#f1f1f1"/>
        <path id="Trazado_179601" data-name="Trazado 179601" d="M150.571,356.349l-.077-.018c.03.052.062.1.1.156h0c-.009-.046-.013-.092-.021-.138" transform="translate(-111.437 -263.855)" fill="#f1f1f1"/>
        <path id="Trazado_179602" data-name="Trazado 179602" d="M115.606,31.561a9.211,9.211,0,0,1,1.175,3.083,1.623,1.623,0,0,1,.837-.536,58.937,58.937,0,0,1,6.22-1.981c-.017-.035-.036-.067-.053-.1a9.481,9.481,0,0,1-.762-4.232,3.209,3.209,0,0,1,.3-1.271,24.223,24.223,0,0,1-2.561.669,62.06,62.06,0,0,0-6.916,2.443c.918.329,1.295,1.19,1.764,1.928" transform="translate(-84.297 -19.638)" fill="#f1f1f1"/>
        <path id="Trazado_179603" data-name="Trazado 179603" d="M120.476,26.4a24.224,24.224,0,0,0,2.561-.669,1.935,1.935,0,0,1,.169-.277,50.21,50.21,0,0,0-6.626,1.931,9.668,9.668,0,0,0-3.117,1.418c.036.011.065.028.1.04a62.041,62.041,0,0,1,6.916-2.443" transform="translate(-84.016 -18.849)" fill="#f1f1f1"/>
        <path id="Trazado_179604" data-name="Trazado 179604" d="M149.164,27.643a9.477,9.477,0,0,0,.762,4.232c.017.035.036.068.053.1l.185-.051a10.468,10.468,0,0,1-.578-5.607l-.127.053a3.209,3.209,0,0,0-.3,1.271" transform="translate(-110.439 -19.489)" fill="#f1f1f1"/>
        <path id="Trazado_179605" data-name="Trazado 179605" d="M150.483,25.68c.014-.074.026-.149.042-.224a1.929,1.929,0,0,0-.169.276l.127-.053" transform="translate(-111.335 -18.85)" fill="#f1f1f1"/>
        <path id="Trazado_179606" data-name="Trazado 179606" d="M116.52,43.913h0a.9.9,0,0,1,.135-.391,9.209,9.209,0,0,0-1.175-3.083c-.469-.738-.845-1.6-1.764-1.928l-.044.018a10.116,10.116,0,0,1,2.847,5.383" transform="translate(-84.172 -28.517)" fill="#f1f1f1"/>
        <path id="Trazado_179607" data-name="Trazado 179607" d="M113.561,38.4c-.034-.012-.063-.029-.1-.039.019.018.036.039.055.057l.044-.018" transform="translate(-84.017 -28.405)" fill="#f1f1f1"/>
        <path id="Trazado_179608" data-name="Trazado 179608" d="M334.175,173.08a9.146,9.146,0,0,1-4.783.79l-.039-.008a34.868,34.868,0,0,1,.128,5.391,4.067,4.067,0,0,1-.336,2.07A8.559,8.559,0,0,1,334.1,182a2.221,2.221,0,0,1,.791.467,37.927,37.927,0,0,1,.176-4.8,46.651,46.651,0,0,1-.181-5.016,2.118,2.118,0,0,1-.711.426" transform="translate(-243.724 -127.846)" fill="#dadada"/>
        <path id="Trazado_179609" data-name="Trazado 179609" d="M351.3,176.693a37.982,37.982,0,0,0-.176,4.8,1.142,1.142,0,0,1,.236.347,65.824,65.824,0,0,0,0-10.506h0a1.1,1.1,0,0,1-.237.343,46.641,46.641,0,0,0,.181,5.016" transform="translate(-259.954 -126.869)" fill="#dadada"/>
        <path id="Trazado_179610" data-name="Trazado 179610" d="M329.858,172.961h0c.009.071.015.143.023.214l.039.008a9.144,9.144,0,0,0,4.783-.79,2.118,2.118,0,0,0,.711-.426c0-.033,0-.067.008-.1a1.094,1.094,0,0,1,.036-.141,10.1,10.1,0,0,1-5.6,1.236" transform="translate(-244.252 -127.158)" fill="#dadada"/>
        <path id="Trazado_179611" data-name="Trazado 179611" d="M351.275,171.576c0,.033,0,.067-.008.1a1.107,1.107,0,0,0,.236-.343c-.063.036-.128.066-.192.1a1.015,1.015,0,0,0-.036.141" transform="translate(-260.105 -126.869)" fill="#dadada"/>
        <path id="Trazado_179612" data-name="Trazado 179612" d="M333.489,206.366a8.559,8.559,0,0,0-4.956-.679,1.778,1.778,0,0,1-.215.281,9.034,9.034,0,0,1,6.011,1.112,1.179,1.179,0,0,1-.039-.122c-.006-.042-.007-.083-.012-.125a2.218,2.218,0,0,0-.79-.467" transform="translate(-243.113 -152.209)" fill="#dadada"/>
        <path id="Trazado_179613" data-name="Trazado 179613" d="M351.3,210.6a1.147,1.147,0,0,0,.039.122c.062.033.124.066.185.1a1.137,1.137,0,0,0-.236-.347c.005.042.006.083.012.125" transform="translate(-260.119 -155.853)" fill="#dadada"/>
        <path id="Trazado_179614" data-name="Trazado 179614" d="M17.022,181.749a9.163,9.163,0,0,1,4.536-.679l.046.009a40.163,40.163,0,0,1,0-7.4l-.035.007a9.164,9.164,0,0,1-4.456-.637,2.027,2.027,0,0,1-.993-.639,59.979,59.979,0,0,0,0,9.932,1.909,1.909,0,0,1,.9-.6" transform="translate(-11.784 -127.669)" fill="#f1f1f1"/>
        <path id="Trazado_179615" data-name="Trazado 179615" d="M15.154,171.8a1.356,1.356,0,0,1-.137-.216,1.736,1.736,0,0,0-.158.453,45.178,45.178,0,0,0-.165,6.763,13.224,13.224,0,0,0,.323,3.149,1.333,1.333,0,0,1,.138-.218,59.92,59.92,0,0,1,0-9.932" transform="translate(-10.818 -127.053)" fill="#f1f1f1"/>
        <path id="Trazado_179616" data-name="Trazado 179616" d="M17.623,172.6a9.163,9.163,0,0,0,4.456.637l.035-.007c.007-.077.012-.154.02-.231a9.7,9.7,0,0,1-5.53-1.2c.01.031.023.058.031.09s0,.045,0,.067a2.027,2.027,0,0,0,.993.639" transform="translate(-12.295 -127.219)" fill="#f1f1f1"/>
        <path id="Trazado_179617" data-name="Trazado 179617" d="M16.32,171.731c-.008-.032-.021-.06-.031-.09-.037-.02-.074-.037-.111-.058a1.355,1.355,0,0,0,.137.216c0-.023,0-.045,0-.067" transform="translate(-11.979 -127.053)" fill="#f1f1f1"/>
        <path id="Trazado_179618" data-name="Trazado 179618" d="M22.173,205.8c-.008-.076-.013-.152-.02-.228l-.046-.009a9.163,9.163,0,0,0-4.536.679,1.906,1.906,0,0,0-.9.6c0,.024,0,.048.005.073s-.013.053-.019.079a9.683,9.683,0,0,1,5.517-1.191" transform="translate(-12.333 -152.163)" fill="#f1f1f1"/>
        <path id="Trazado_179619" data-name="Trazado 179619" d="M16.3,210.835c.006-.027.015-.051.019-.079s0-.049-.005-.073a1.336,1.336,0,0,0-.138.218h0c.041-.024.083-.043.124-.066" transform="translate(-11.979 -156.006)" fill="#f1f1f1"/>
        <path id="Trazado_179620" data-name="Trazado 179620" d="M184.917,53.119a8.924,8.924,0,0,0,6.963-5,.758.758,0,0,1-.131-.2c-.186.3-.366.6-.559.9a8.482,8.482,0,0,1-7.414,4.112c-.013.016-.027.026-.04.04.312.334.764.218,1.181.157" transform="translate(-136.052 -35.479)" fill="#f8fcfe"/>
        <path id="Trazado_179621" data-name="Trazado 179621" d="M159.672,53.139c.361.055.739.144,1.033-.169-.012-.013-.023-.025-.035-.039a7.991,7.991,0,0,1-3.571-.776,9.479,9.479,0,0,1-4.353-4.231.747.747,0,0,1-.113.19,9,9,0,0,0,7.038,5.025" transform="translate(-113.022 -35.487)" fill="#f8fcfe"/>
        <path id="Trazado_179622" data-name="Trazado 179622" d="M183.676,67.212H183.6c.011.014.023.026.035.039.013-.014.027-.024.04-.04" transform="translate(-135.952 -49.769)" fill="#f8fcfe"/>
        <path id="Trazado_179623" data-name="Trazado 179623" d="M242.116,59.413a8.553,8.553,0,0,0,3.792,8.269,8.673,8.673,0,0,0,9.336.6l.028-.015a.374.374,0,0,1,.038-.222,9.422,9.422,0,0,1-6.676.689,8.817,8.817,0,0,1-6.305-9.409h0a2.469,2.469,0,0,0-.164-.2c-.016.095-.035.189-.049.284" transform="translate(-179.244 -43.784)" fill="#f8fcfe"/>
        <path id="Trazado_179624" data-name="Trazado 179624" d="M302.091,118.149a8.942,8.942,0,0,0-.645,11.992,9.464,9.464,0,0,0,5.735,3.286.7.7,0,0,1,.155-.178.918.918,0,0,0-.249-.138,8.38,8.38,0,0,1-6.927-5.888,8.472,8.472,0,0,1,2.113-8.938h0l-.123-.189c-.019.018-.039.035-.058.053" transform="translate(-221.73 -87.447)" fill="#f8fcfe"/>
        <path id="Trazado_179625" data-name="Trazado 179625" d="M255.281,285.633l-.029-.017a8.672,8.672,0,0,0-9.26.552,8.57,8.57,0,0,0-3.865,8.331c.012.091.031.179.045.268a2.326,2.326,0,0,0,.164-.2h0q-.006-.387-.013-.774a8.724,8.724,0,0,1,6.231-8.593,9.23,9.23,0,0,1,6.763.659.374.374,0,0,1-.037-.227" transform="translate(-179.254 -210.694)" fill="#f8fcfe"/>
        <path id="Trazado_179626" data-name="Trazado 179626" d="M74.731,68.049A9.019,9.019,0,0,0,87.855,58.98c-.011-.058-.023-.116-.035-.174-.062.045-.126.086-.186.134.009.418.03.837.027,1.255a8.766,8.766,0,0,1-6.713,8.4,9.449,9.449,0,0,1-6.285-.8.462.462,0,0,1,.037.229l.031.019" transform="translate(-55.286 -43.544)" fill="#f8fcfe"/>
        <path id="Trazado_179627" data-name="Trazado 179627" d="M38.707,132.9a9.028,9.028,0,0,0,4.316-15.308.558.558,0,0,1-.307-.012c.229.271.455.545.686.814a8.714,8.714,0,0,1,.2,11.235,9.41,9.41,0,0,1-5.687,3.22.774.774,0,0,1,.156.194c.215-.045.43-.086.641-.142" transform="translate(-28.072 -87.065)" fill="#f8fcfe"/>
        <path id="Trazado_179628" data-name="Trazado 179628" d="M43.041,221.392c.27-.268.482-.586.73-.874a9.049,9.049,0,0,0,.452-10.747,9.533,9.533,0,0,0-6.156-3.833.775.775,0,0,1-.154.193c.182.052.362.118.547.153a8.75,8.75,0,0,1,7.077,8.336,9.263,9.263,0,0,1-2.815,6.783.439.439,0,0,1,.319-.012" transform="translate(-28.074 -152.493)" fill="#f8fcfe"/>
        <path id="Trazado_179629" data-name="Trazado 179629" d="M306.974,206.212a8.992,8.992,0,0,0-4.832,15.287.5.5,0,0,1,.194-.133,8.781,8.781,0,0,1,4.621-14.913c.011-.081.019-.162.03-.243l-.013,0" transform="translate(-221.75 -152.693)" fill="#f8fcfe"/>
        <path id="Trazado_179630" data-name="Trazado 179630" d="M87.859,294.8a8.58,8.58,0,0,0-1.164-5.591,8.889,8.889,0,0,0-11.963-3.462l-.026.015a.34.34,0,0,1-.041.229,9.149,9.149,0,0,1,7.387-.455c3.736,1.433,5.684,4.7,5.583,9.31.063.043.127.083.191.124.011-.057.024-.113.034-.17" transform="translate(-55.287 -210.821)" fill="#f8fcfe"/>
        <path id="Trazado_179631" data-name="Trazado 179631" d="M191.864,319.942a8.918,8.918,0,0,0-7.007-5.009c-.409-.058-.848-.155-1.141.161.015.015.03.027.045.045.384.016.772,0,1.151.053a8.926,8.926,0,0,1,6.82,4.953h0a.774.774,0,0,1,.133-.2" transform="translate(-136.037 -233.155)" fill="#f8fcfe"/>
        <path id="Trazado_179632" data-name="Trazado 179632" d="M159.672,314.932a9.013,9.013,0,0,0-7.039,5.023.9.9,0,0,1,.137.2c.185-.3.362-.605.556-.9a8.51,8.51,0,0,1,7.335-4.108c.013-.016.025-.033.039-.048-.293-.309-.669-.221-1.028-.166" transform="translate(-113.021 -233.16)" fill="#f8fcfe"/>
        <path id="Trazado_179633" data-name="Trazado 179633" d="M183.6,315.729c-.013.015-.026.031-.039.048l.084,0c-.014-.018-.03-.029-.045-.045" transform="translate(-135.926 -233.79)" fill="#f8fcfe"/>
        <path id="Trazado_179634" data-name="Trazado 179634" d="M57.7,99.593a45.943,45.943,0,0,1,3.634-4.979c.127-.162.314-.31.337-.521-.05-.029-.1-.06-.145-.089-.982,1.27-1.944,2.556-2.961,3.8-.563.687-.8,1.6-1.5,2.185.048.049.093.1.14.148.248-.067.37-.334.493-.542" transform="translate(-42.259 -69.608)" fill="#f8fcfe"/>
        <path id="Trazado_179635" data-name="Trazado 179635" d="M74.354,93.463l-.108.14c.049.029.1.06.145.089a.462.462,0,0,0-.037-.229" transform="translate(-54.977 -69.207)" fill="#f8fcfe"/>
        <path id="Trazado_179636" data-name="Trazado 179636" d="M56.732,117.205c-.047-.049-.092-.1-.14-.148a1.958,1.958,0,0,1-.167.135h0a.561.561,0,0,0,.307.012" transform="translate(-41.781 -86.678)" fill="#f8fcfe"/>
        <path id="Trazado_179637" data-name="Trazado 179637" d="M216.034,48.647a44.956,44.956,0,0,1,4.5,1.392,3.857,3.857,0,0,1,1.677.951c.018-.111.035-.223.057-.333a1.108,1.108,0,0,0-.516-.389,48.341,48.341,0,0,0-6.557-2.131c-.025.049-.051.1-.076.145a1.581,1.581,0,0,0,.918.364" transform="translate(-159.288 -35.645)" fill="#f8fcfe"/>
        <path id="Trazado_179638" data-name="Trazado 179638" d="M214.818,47.972l-.207-.058a.752.752,0,0,0,.131.2c.025-.049.051-.1.076-.145" transform="translate(-158.914 -35.479)" fill="#f8fcfe"/>
        <path id="Trazado_179639" data-name="Trazado 179639" d="M242.611,58.376a.819.819,0,0,0-.107-.528c-.021.11-.038.221-.057.332a2.471,2.471,0,0,1,.164.2" transform="translate(-179.526 -42.835)" fill="#f8fcfe"/>
        <path id="Trazado_179640" data-name="Trazado 179640" d="M293.177,94.48a54.987,54.987,0,0,1,4.166,5.786c.033-.032.067-.061.1-.092a2.545,2.545,0,0,0-.386-.779,50.549,50.549,0,0,0-3.955-5.378c-.051.028-.1.058-.151.085a.8.8,0,0,0,.226.379" transform="translate(-216.923 -69.617)" fill="#f8fcfe"/>
        <path id="Trazado_179641" data-name="Trazado 179641" d="M292.941,93.706c.052-.027.1-.057.151-.084l-.112-.138h0a.374.374,0,0,0-.038.222" transform="translate(-216.913 -69.223)" fill="#f8fcfe"/>
        <path id="Trazado_179642" data-name="Trazado 179642" d="M310,118.021a1.042,1.042,0,0,0-.022-.282c-.033.031-.068.061-.1.093l.123.189" transform="translate(-229.455 -87.183)" fill="#f8fcfe"/>
        <path id="Trazado_179643" data-name="Trazado 179643" d="M297.316,265.123a.285.285,0,0,0-.035.036,45.984,45.984,0,0,1-4.108,5.722.834.834,0,0,0-.221.375c.05.029.1.06.147.09.363-.451.729-.9,1.085-1.356a24.509,24.509,0,0,0,3.223-4.782l-.047-.037-.044-.048" transform="translate(-216.924 -196.317)" fill="#f8fcfe"/>
        <path id="Trazado_179644" data-name="Trazado 179644" d="M292.977,288.983h0l.11-.137c-.049-.03-.1-.061-.147-.09a.374.374,0,0,0,.037.227" transform="translate(-216.912 -213.817)" fill="#f8fcfe"/>
        <path id="Trazado_179645" data-name="Trazado 179645" d="M309.768,264.743l.044.048.047.037c.033-.073.071-.144.1-.218a.5.5,0,0,0-.194.133" transform="translate(-229.376 -195.938)" fill="#f8fcfe"/>
        <path id="Trazado_179646" data-name="Trazado 179646" d="M220.533,324.907a45.1,45.1,0,0,1-4.5,1.393,1.6,1.6,0,0,0-.919.364c.025.048.051.1.075.144a48.465,48.465,0,0,0,6.566-2.13,1.048,1.048,0,0,0,.508-.4c-.021-.109-.038-.221-.056-.331a3.818,3.818,0,0,1-1.672.958" transform="translate(-159.285 -239.877)" fill="#f8fcfe"/>
        <path id="Trazado_179647" data-name="Trazado 179647" d="M242.5,323.716a.9.9,0,0,0,.108-.529,2.371,2.371,0,0,1-.164.2c.018.111.035.222.056.331" transform="translate(-179.524 -239.312)" fill="#f8fcfe"/>
        <path id="Trazado_179648" data-name="Trazado 179648" d="M214.6,334.61h0l.208-.058c-.024-.049-.05-.1-.075-.144a.757.757,0,0,0-.133.2" transform="translate(-158.906 -247.621)" fill="#f8fcfe"/>
        <path id="Trazado_179649" data-name="Trazado 179649" d="M61.595,271.23a53.289,53.289,0,0,1-3.92-5.362.846.846,0,0,0-.369-.384c-.042.042-.084.084-.129.122a1.244,1.244,0,0,1,.283.345,50.055,50.055,0,0,0,4.14,5.661c.052-.029.1-.06.156-.087a.686.686,0,0,0-.161-.3" transform="translate(-42.338 -196.585)" fill="#f8fcfe"/>
        <path id="Trazado_179650" data-name="Trazado 179650" d="M56.444,265.426h0a.675.675,0,0,1,.19.11c.045-.039.087-.081.129-.122a.439.439,0,0,0-.319.012" transform="translate(-41.795 -196.515)" fill="#f8fcfe"/>
        <path id="Trazado_179651" data-name="Trazado 179651" d="M74.378,288.762c-.053.027-.1.058-.156.087l.115.142a.339.339,0,0,0,.041-.229" transform="translate(-54.96 -213.822)" fill="#f8fcfe"/>
        <path id="Trazado_179652" data-name="Trazado 179652" d="M131.1,326.448a22.552,22.552,0,0,1-5.88-2.206q-.026.137-.054.272a1.63,1.63,0,0,0,.837.536,59,59,0,0,0,6.219,1.98c.024-.048.049-.093.073-.141-.305-.34-.789-.317-1.194-.441" transform="translate(-92.682 -240.094)" fill="#f8fcfe"/>
        <path id="Trazado_179653" data-name="Trazado 179653" d="M124.64,323.764h0a.906.906,0,0,0,.136.4q.029-.135.054-.272c-.064-.041-.128-.081-.191-.124" transform="translate(-92.293 -239.74)" fill="#f8fcfe"/>
        <path id="Trazado_179654" data-name="Trazado 179654" d="M152.425,334.443c-.024.047-.049.093-.073.141l.21.058a.9.9,0,0,0-.137-.2" transform="translate(-112.813 -247.647)" fill="#f8fcfe"/>
        <path id="Trazado_179655" data-name="Trazado 179655" d="M125.166,50.637c.018.085.034.171.051.256a5.981,5.981,0,0,1,1.484-.774,43,43,0,0,1,4.664-1.484c.325-.078.7-.092.93-.376-.024-.047-.049-.092-.072-.14A58.9,58.9,0,0,0,126,50.1a1.623,1.623,0,0,0-.837.536" transform="translate(-92.683 -35.632)" fill="#f8fcfe"/>
        <path id="Trazado_179656" data-name="Trazado 179656" d="M152.428,48.114a.748.748,0,0,0,.113-.19l-.185.051c.024.047.048.093.072.14" transform="translate(-112.816 -35.487)" fill="#f8fcfe"/>
        <path id="Trazado_179657" data-name="Trazado 179657" d="M124.779,57.819a.907.907,0,0,0-.135.391c.06-.048.124-.09.186-.134-.017-.085-.033-.171-.051-.256" transform="translate(-92.296 -42.814)" fill="#f8fcfe"/>
        <path id="Trazado_179658" data-name="Trazado 179658" d="M328.548,177.782a28.618,28.618,0,0,1-.113,6.926c.062-.015.123-.026.185-.038a4.067,4.067,0,0,0,.336-2.07,34.865,34.865,0,0,0-.128-5.391l-.179-.036a.943.943,0,0,0-.1.61" transform="translate(-243.199 -131.192)" fill="#f8fcfe"/>
        <path id="Trazado_179659" data-name="Trazado 179659" d="M329.26,176.664l.178.037c-.008-.071-.015-.143-.023-.214h0a.7.7,0,0,0-.155.178" transform="translate(-243.809 -130.684)" fill="#f8fcfe"/>
        <path id="Trazado_179660" data-name="Trazado 179660" d="M328.319,206.342a1.792,1.792,0,0,0,.215-.281c-.062.012-.123.024-.185.038-.01.081-.019.162-.03.243" transform="translate(-243.113 -152.583)" fill="#f8fcfe"/>
        <path id="Trazado_179661" data-name="Trazado 179661" d="M37.621,183.835a29.852,29.852,0,0,1,0-5.882,1.3,1.3,0,0,0-.1-.793c-.059.012-.117.024-.175.037a40.14,40.14,0,0,0,0,7.4l.174.036a1.3,1.3,0,0,0,.1-.794" transform="translate(-27.53 -131.184)" fill="#f8fcfe"/>
        <path id="Trazado_179662" data-name="Trazado 179662" d="M37.855,176.415h0c-.008.077-.013.154-.02.231.058-.013.117-.025.175-.037a.779.779,0,0,0-.156-.194" transform="translate(-28.016 -130.631)" fill="#f8fcfe"/>
        <path id="Trazado_179663" data-name="Trazado 179663" d="M37.838,205.8c.007.076.012.152.02.228a.785.785,0,0,0,.154-.193c-.058-.012-.115-.025-.174-.036" transform="translate(-28.018 -152.392)" fill="#f8fcfe"/>
        <path id="Trazado_179664" data-name="Trazado 179664" d="M183.841,116.267h.005v0l13.211.007,13.17-.014h0a27.363,27.363,0,0,0-.679-5.985,25.147,25.147,0,0,0-6.058-11.631,25.942,25.942,0,0,0-19.618-8.753q-.011,11.782-.022,23.564c0,.936-.006,1.872-.01,2.809" transform="translate(-136.13 -66.564)" fill="#0fdafe"/>
        <path id="Trazado_179665" data-name="Trazado 179665" d="M186.664,217.471a13,13,0,0,0,5.833-5.827,34.563,34.563,0,0,0,4.005-12.4,50.948,50.948,0,0,0,.57-7.286c-4.039.056-8.079.019-12.118.018a1.663,1.663,0,0,1-1.092-.267l.005,26.335a6.666,6.666,0,0,0,2.352-.138c-.1-.4.269-.354.445-.434" transform="translate(-136.145 -141.955)" fill="#13bcf6"/>
        <path id="Trazado_179666" data-name="Trazado 179666" d="M184.952,191.841c4.039,0,8.079.038,12.118-.018,0-.1,0-.193,0-.289l-13.211-.007v.047a1.662,1.662,0,0,0,1.092.267" transform="translate(-136.144 -141.821)" fill="#13bcf6"/>
        <path id="Trazado_179667" data-name="Trazado 179667" d="M87.512,100.353A25.777,25.777,0,0,0,82.2,116.269l13.188-.015A43.834,43.834,0,0,1,98.5,99.217a17.734,17.734,0,0,1,5.87-7.981,9.232,9.232,0,0,1,3.251-1.379,25.554,25.554,0,0,0-5.887.893,25.982,25.982,0,0,0-14.225,9.6" transform="translate(-60.865 -66.537)" fill="#c1f6fe"/>
        <path id="Trazado_179668" data-name="Trazado 179668" d="M144.974,90.267a10.114,10.114,0,0,0-5.6,4.081,26.7,26.7,0,0,0-4.4,9.624,48.485,48.485,0,0,0-1.529,11.194,1.994,1.994,0,0,1-.194,1.087l13.093-.015a2.111,2.111,0,0,1-.266-1.351q-.011-11.826,0-23.651a1.757,1.757,0,0,1,.334-1.371l-.982-.01h0c0,.305-.241.36-.453.411" transform="translate(-98.666 -66.536)" fill="#7fedfe"/>
        <path id="Trazado_179669" data-name="Trazado 179669" d="M182.659,91.265q-.01,11.826,0,23.651a2.112,2.112,0,0,0,.266,1.351h.037c0-.936.009-1.872.01-2.809q.011-11.782.021-23.564a1.756,1.756,0,0,0-.334,1.371" transform="translate(-135.251 -66.564)" fill="#7fedfe"/>
        <line id="Línea_1700" data-name="Línea 1700" transform="translate(47.716 49.702)" fill="#7fedfe"/>
        <path id="Trazado_179670" data-name="Trazado 179670" d="M136.132,99.216a43.842,43.842,0,0,0-3.119,17.037h.061a1.994,1.994,0,0,0,.194-1.087,48.484,48.484,0,0,1,1.529-11.194,26.7,26.7,0,0,1,4.4-9.624,10.114,10.114,0,0,1,5.6-4.081c.212-.05.455-.106.453-.411h0A9.239,9.239,0,0,0,142,91.235a17.733,17.733,0,0,0-5.87,7.981" transform="translate(-98.493 -66.536)" fill="#7fedfe"/>
        <path id="Trazado_179671" data-name="Trazado 179671" d="M145.909,216.682q-.012-11.91,0-23.82a2.39,2.39,0,0,1,.173-1.137l.109-.124,0,0a1.763,1.763,0,0,1-1.251.3q-5.32.011-10.639,0a1.73,1.73,0,0,1-1.238-.273l0,0c-.012.01-.025.017-.037.026.068,6.927,1.111,13.642,4.513,19.8a13.255,13.255,0,0,0,5.72,5.863c.648.315,1.359.378,2.01.651h0l.957-.005a1.646,1.646,0,0,1-.31-1.279" transform="translate(-98.498 -141.873)" fill="#0fdafe"/>
        <path id="Trazado_179672" data-name="Trazado 179672" d="M183.756,191.553l0,0,.017-.019c-.006.006-.013.01-.02.016" transform="translate(-136.067 -141.829)" fill="#0fdafe"/>
        <path id="Trazado_179673" data-name="Trazado 179673" d="M183.848,191.517v0l0,0Z" transform="translate(-136.132 -141.812)" fill="#0fdafe"/>
        <path id="Trazado_179674" data-name="Trazado 179674" d="M183.841,191.517l0,0h0Z" transform="translate(-136.13 -141.812)" fill="#0fdafe"/>
        <path id="Trazado_179675" data-name="Trazado 179675" d="M182.974,191.637l-.015-.01-.01-.015c-.037.041-.073.082-.109.124a2.391,2.391,0,0,0-.173,1.137q-.008,11.91,0,23.82a1.645,1.645,0,0,0,.31,1.279q0-13.168-.005-26.335" transform="translate(-135.257 -141.884)" fill="#0fdafe"/>
        <path id="Trazado_179676" data-name="Trazado 179676" d="M183.783,191.53l-.017.019.01.015.015.01v-.047h0l0,0" transform="translate(-136.074 -141.821)" fill="#0fdafe"/>
        <path id="Trazado_179677" data-name="Trazado 179677" d="M183.841,191.527Z" transform="translate(-136.13 -141.821)" fill="#0fdafe"/>
        <path id="Trazado_179678" data-name="Trazado 179678" d="M133.017,191.634c.012-.009.025-.016.037-.026l0,0c-.013-.011-.027-.02-.04-.033,0,.021,0,.042,0,.062" transform="translate(-98.495 -141.855)" fill="#0fdafe"/>
        <path id="Trazado_179679" data-name="Trazado 179679" d="M134.408,191.836q5.319.015,10.639,0a1.763,1.763,0,0,0,1.251-.3l-.015-.021-13.093.015c-.007.011-.012.022-.02.033a1.73,1.73,0,0,0,1.238.273" transform="translate(-98.609 -141.812)" fill="#0fdafe"/>
        <path id="Trazado_179680" data-name="Trazado 179680" d="M183.842,191.517l0,0,0,0Z" transform="translate(-136.13 -141.812)" fill="#0fdafe"/>
        <path id="Trazado_179681" data-name="Trazado 179681" d="M183.734,191.521l0,0h0v0H183.7l.015.021.02-.016" transform="translate(-136.025 -141.812)" fill="#0fdafe"/>
        <path id="Trazado_179682" data-name="Trazado 179682" d="M183.834,191.527h0l0,0,0,0Z" transform="translate(-136.123 -141.821)" fill="#0fdafe"/>
        <path id="Trazado_179683" data-name="Trazado 179683" d="M133.055,191.6c.008-.011.013-.022.02-.033h-.06c.013.013.027.021.04.033" transform="translate(-98.495 -141.854)" fill="#0fdafe"/>
        <path id="Trazado_179684" data-name="Trazado 179684" d="M101.15,213.927a24.033,24.033,0,0,1-3.77-7.3,45.841,45.841,0,0,1-2.32-13.722,1.94,1.94,0,0,1,.158-1.157.92.92,0,0,1-.165.073,17.738,17.738,0,0,1-3.1.092q-4.218.022-8.435,0a1.922,1.922,0,0,1-1.388-.287,19.127,19.127,0,0,0,.444,4.9,26.078,26.078,0,0,0,11.938,17.451,25.758,25.758,0,0,0,13.05,4.013h0c-2.881-.181-4.746-1.979-6.416-4.062" transform="translate(-60.802 -141.895)" fill="#7fedfe"/>
        <path id="Trazado_179685" data-name="Trazado 179685" d="M83.585,191.872c2.812.01,5.624.014,8.435,0a17.764,17.764,0,0,0,3.1-.092.94.94,0,0,0,.165-.073,1,1,0,0,1,.1-.137h0l-13.188.015h0a1.923,1.923,0,0,0,1.388.287" transform="translate(-60.865 -141.853)" fill="#7fedfe"/>
        <path id="Trazado_179686" data-name="Trazado 179686" d="M133.013,191.571Z" transform="translate(-98.493 -141.854)" fill="#7fedfe"/>
        <path id="Trazado_179687" data-name="Trazado 179687" d="M133.014,191.569h0Z" transform="translate(-98.493 -141.853)" fill="#7fedfe"/>
        <path id="Trazado_179688" data-name="Trazado 179688" d="M133.014,191.57h0Z" transform="translate(-98.493 -141.853)" fill="#7fedfe"/>
        <path id="Trazado_179689" data-name="Trazado 179689" d="M136.739,211.612c-3.4-6.158-4.444-12.873-4.513-19.8a.882.882,0,0,1-.106.074,1.94,1.94,0,0,0-.158,1.157,45.841,45.841,0,0,0,2.32,13.722,24.021,24.021,0,0,0,3.77,7.3c1.67,2.083,3.535,3.881,6.416,4.062-.651-.273-1.361-.336-2.01-.651a13.257,13.257,0,0,1-5.72-5.863" transform="translate(-97.704 -142.032)" fill="#7fedfe"/>
        <path id="Trazado_179690" data-name="Trazado 179690" d="M132.717,191.571a1,1,0,0,0-.1.137.883.883,0,0,0,.106-.074c0-.021,0-.042,0-.062h0" transform="translate(-98.197 -141.854)" fill="#7fedfe"/>
        <path id="Trazado_179691" data-name="Trazado 179691" d="M133.014,191.571h0" transform="translate(-98.494 -141.854)" fill="#7fedfe"/>
        <path id="Trazado_179692" data-name="Trazado 179692" d="M133.014,191.57h0Z" transform="translate(-98.494 -141.852)" fill="#7fedfe"/>
        <path id="Trazado_179693" data-name="Trazado 179693" d="M203.949,191.8a4.42,4.42,0,0,1,.082,2.073,51.811,51.811,0,0,1-1.53,10.144,31.926,31.926,0,0,1-3.12,7.713c-1.538,2.627-3.459,4.9-6.437,6.017a24.146,24.146,0,0,0,13.156-4.895A25.822,25.822,0,0,0,216.967,191.5h0a1.361,1.361,0,0,1-1.079.32c-3.98,0-7.959.039-11.939-.016" transform="translate(-142.87 -141.801)" fill="#0f99ef"/>
        <path id="Trazado_179694" data-name="Trazado 179694" d="M234.915,191.8c3.98.055,7.959.016,11.939.016a1.361,1.361,0,0,0,1.079-.32l-13.17.014a1.875,1.875,0,0,1,.152.29" transform="translate(-173.837 -141.801)" fill="#0f99ef"/>
        <path id="Trazado_179695" data-name="Trazado 179695" d="M199.329,212.6a31.935,31.935,0,0,0,3.12-7.713,51.833,51.833,0,0,0,1.53-10.144,4.421,4.421,0,0,0-.082-2.073h-.152a50.981,50.981,0,0,1-.57,7.286,34.566,34.566,0,0,1-4.005,12.4,13,13,0,0,1-5.833,5.827c-.177.08-.55.037-.446.434,2.978-1.115,4.9-3.39,6.437-6.017" transform="translate(-142.818 -142.667)" fill="#0f99ef"/>
        <path id="Trazado_179696" data-name="Trazado 179696" d="M234.769,191.844h.146a1.878,1.878,0,0,0-.152-.29c0,.1,0,.193,0,.289h.006" transform="translate(-173.836 -141.842)" fill="#0f99ef"/>
      </g>
    </g>
    <g id="Grupo_152931" data-name="Grupo 152931" transform="translate(387.646 -43.001)">
      <path id="Trazado_180001" data-name="Trazado 180001" d="M-7924.291-5724.464h31.068" transform="translate(8312 11316.062)" fill="none" stroke="#3156b4" stroke-width="4"/>
      <path id="Polígono_5" data-name="Polígono 5" d="M13,0,26,22H0Z" transform="translate(437 5578.097) rotate(90)" fill="#2754ba"/>
    </g>
  </g>
</svg>
