<svg id="Grupo_213043" data-name="Grupo 213043" xmlns="http://www.w3.org/2000/svg" xmlns:xlink="http://www.w3.org/1999/xlink" width="49.343" height="49.409" viewBox="0 0 49.343 49.409">
  <defs>
    <clipPath id="clip-path">
      <rect id="Rectángulo_66682" data-name="Rectángulo 66682" width="49.343" height="49.409" fill="#ff8900"/>
    </clipPath>
  </defs>
  <g id="Grupo_212915" data-name="Grupo 212915" clip-path="url(#clip-path)">
    <path id="Trazado_210425" data-name="Trazado 210425" d="M358.354,11.581a1.027,1.027,0,0,0,.546.981q3.132,1.938,6.244,3.911a.931.931,0,0,0,1.113,0q3.133-1.982,6.283-3.938a.805.805,0,0,0,.417-.785c-.016-2.252-.023-4.5,0-6.755a.942.942,0,0,0-.526-.919C370.252,2.725,368.079,1.36,365.9,0h-.483c-.085.168-.265.211-.407.3-2.025,1.272-4.05,2.544-6.086,3.8a1.063,1.063,0,0,0-.574,1.015q.029,3.233,0,6.466M371.591,6.2V8.537c0,.851-.006,1.7,0,2.553a.476.476,0,0,1-.234.476q-2.369,1.469-4.729,2.953a.167.167,0,0,1-.217,0c0-1.411.038-2.851-.018-4.288a1.235,1.235,0,0,1,.714-1.283c1.384-.805,2.726-1.683,4.086-2.531.106-.066.216-.125.393-.228m-6.8-4.073a1.356,1.356,0,0,1,1.8-.008c1.4.963,2.864,1.819,4.351,2.75-1.7,1.066-3.344,2.1-4.987,3.123-.132.083-.244.176-.431.058-1.676-1.058-3.361-2.1-5.081-3.178,1.478-.926,2.944-1.786,4.343-2.745M359.81,6.183c.369.226.68.413.989.606,1.266.79,2.527,1.588,3.8,2.368a.651.651,0,0,1,.379.64c-.022,1.463-.009,2.927-.01,4.39,0,.123-.012.246-.023.439-.955-.6-1.862-1.16-2.768-1.726q-1.062-.663-2.121-1.33c-.117-.074-.25-.124-.249-.314.006-1.667,0-3.334,0-5.072" transform="translate(-323.618)" fill="#ff8900"/>
    <path id="Trazado_210426" data-name="Trazado 210426" d="M.534,12.54q3.129,1.939,6.24,3.909a.986.986,0,0,0,1.195-.006q3.087-1.961,6.2-3.885a1.034,1.034,0,0,0,.538-.987c-.016-2.154-.019-4.308,0-6.462a1.057,1.057,0,0,0-.572-1.016Q12.2,2.918,10.3,1.7C9.411,1.138,8.482.641,7.647,0H7.164c-.729.551-.7,1.018.085,1.509q1.143.713,2.287,1.426c1.015.635,2.028,1.271,3.079,1.93-1.709,1.068-3.369,2.1-5.025,3.146a.347.347,0,0,1-.431.01C5.493,6.972,3.822,5.931,2.148,4.885A.618.618,0,0,1,2.234,4.8c.72-.452,1.443-.9,2.161-1.354.49-.311.611-.68.369-1.077S4.14,1.9,3.645,2.206c-1.036.642-2.064,1.3-3.106,1.931a.99.99,0,0,0-.524.945q.02,3.255,0,6.51a1,1,0,0,0,.519.947M8.3,9.265c1.611-.992,3.213-2,4.82-3,.022-.014.059,0,.128-.007,0,1.667,0,3.332,0,5,0,.161-.1.221-.207.29q-2.405,1.506-4.811,3.011c-.022.014-.06,0-.139,0V12.694q0-1.47,0-2.941c0-.194,0-.359.207-.488M1.47,6.253c.186-.031.283.1.4.169C3.34,7.336,4.805,8.26,6.28,9.168a.658.658,0,0,1,.376.643c-.021,1.573-.009,3.147-.009,4.837L4.418,13.256C3.534,12.7,2.652,12.147,1.766,11.6c-.166-.1-.306-.182-.3-.43.013-1.638.007-3.275.007-4.915" transform="translate(-0.014)" fill="#ff8900"/>
    <path id="Trazado_210427" data-name="Trazado 210427" d="M14.164,342.173q-3.129-1.938-6.243-3.9a.958.958,0,0,0-1.152.012q-3.089,1.958-6.2,3.874A1.065,1.065,0,0,0,0,343.177q.026,3.206,0,6.413a1.067,1.067,0,0,0,.559,1.024q3.131,1.936,6.24,3.907a.9.9,0,0,0,1.07.02q3.175-2,6.361-3.984a.9.9,0,0,0,.458-.837c-.014-1.109-.005-2.218,0-3.327,0-1.093-.015-2.186.008-3.279a.98.98,0,0,0-.527-.94M6.633,352.693c-.431-.267-.781-.481-1.129-.7q-1.875-1.175-3.749-2.35c-.164-.1-.308-.176-.306-.425.014-1.638.007-3.275.007-4.914.185-.037.282.093.4.165q2.227,1.383,4.45,2.773c.178.111.339.2.337.468-.013,1.621-.006,3.242-.006,4.983m.923-6.621a.352.352,0,0,1-.435-.022c-1.655-1.039-3.313-2.072-5.019-3.137l3.557-2.224c.475-.3.952-.593,1.425-.894.154-.1.277-.168.473-.043,1.663,1.052,3.336,2.09,5.047,3.158-1.71,1.07-3.382,2.112-5.048,3.163m5.482,3.522q-2.409,1.5-4.811,3c-.022.014-.06,0-.146,0V350.84c0-1.012.007-2.023,0-3.035a.54.54,0,0,1,.288-.541c1.557-.955,3.1-1.928,4.652-2.9.05-.031.1-.054.22-.114,0,1.7,0,3.326,0,4.948a.4.4,0,0,1-.2.392" transform="translate(0 -305.313)" fill="#ff8900"/>
    <path id="Trazado_210428" data-name="Trazado 210428" d="M187.117,185.592q3.134-1.981,6.282-3.94a.97.97,0,0,0,.5-.913q-.016-3.305,0-6.611a.891.891,0,0,0-.462-.832q-3.188-1.984-6.37-3.979a.873.873,0,0,0-1.028.009q-3.158,1.988-6.331,3.952a.952.952,0,0,0-.5.911c.016,1.077.005,2.155.005,3.233,0,1.126.008,2.252,0,3.378a.886.886,0,0,0,.464.831q3.168,1.972,6.325,3.962a.938.938,0,0,0,1.115,0m5.331-5.263a.324.324,0,0,1-.163.315c-1.645,1.026-3.287,2.056-5.007,3.133,0-1.738,0-3.375,0-5.012a.33.33,0,0,1,.148-.327c1.655-1.031,3.309-2.065,5.021-3.134,0,1.725,0,3.375,0,5.025m-6.1-9.5a.35.35,0,0,1,.431,0c1.653,1.041,3.309,2.078,5.028,3.156l-1.12.7-3.833,2.4c-.143.089-.26.215-.468.083-1.665-1.053-3.336-2.094-5.075-3.182,1.726-1.08,3.384-2.114,5.036-3.157m-.514,12.941c-1.712-1.074-3.34-2.095-4.969-3.113-.113-.071-.2-.134-.2-.292.005-1.665,0-3.33,0-5.07,1.281.8,2.5,1.558,3.718,2.322.474.3,1.094.509,1.368.939s.072,1.093.077,1.653c.01,1.156,0,2.312,0,3.561" transform="translate(-161.841 -152.759)" fill="#ff8900"/>
    <path id="Trazado_210429" data-name="Trazado 210429" d="M372.968,342.957a.8.8,0,0,0-.429-.776q-3.132-1.937-6.247-3.9a.959.959,0,0,0-1.153-.007q-3.111,1.97-6.246,3.9a.992.992,0,0,0-.528.941q.022,3.256,0,6.512a1.028,1.028,0,0,0,.548.98c2.074,1.284,4.137,2.583,6.2,3.882a.842.842,0,0,0,.939.135c.349-.2.375-.523.374-.875-.005-1.785.041-3.571-.023-5.354a1.416,1.416,0,0,1,.825-1.469c1.454-.84,2.861-1.762,4.372-2.7,0,1.741-.005,3.378.006,5.016,0,.23-.139.3-.287.391q-1.182.742-2.362,1.488c-.469.3-.607.707-.375,1.081s.65.437,1.137.137c.943-.581,1.875-1.178,2.821-1.753a.8.8,0,0,0,.428-.779q-.026-3.425,0-6.85m-7.991,9.465a1.075,1.075,0,0,1-.023.164c-.136.06-.2-.035-.279-.082-1.523-.951-3.041-1.91-4.567-2.856a.5.5,0,0,1-.294-.484c.012-1.558.006-3.116.007-4.674,0-.058.01-.117.022-.248.26.161.473.292.684.424,1.386.867,2.769,1.739,4.162,2.6a.5.5,0,0,1,.295.487c-.011,1.558-.005,3.116-.007,4.674m1.777-6.847a1.542,1.542,0,0,1-2.093-.006c-1.332-.94-2.755-1.753-4.2-2.658,1.706-1.065,3.364-2.1,5.02-3.137a.347.347,0,0,1,.432-.026c1.666,1.052,3.339,2.093,5.049,3.161-1.429.895-2.866,1.712-4.207,2.665" transform="translate(-323.629 -305.313)" fill="#ff8900"/>
    <path id="Trazado_210430" data-name="Trazado 210430" d="M181.579,76.133c2.12.006,4.241,0,6.361,0q3.132,0,6.265,0c.575,0,.881-.252.885-.714s-.3-.73-.87-.732c-1.173,0-2.345,0-3.518,0q-4.53,0-9.06,0c-.363,0-.679.06-.827.436-.215.547.129,1.01.763,1.012" transform="translate(-163.232 -67.446)" fill="#ff8900"/>
    <path id="Trazado_210431" data-name="Trazado 210431" d="M194.666,420.166q-3.59.008-7.18,0c-1.8,0-3.6,0-5.4,0a.775.775,0,0,0-.78.361c-.3.536.07,1.086.735,1.087q3.156.006,6.313,0,3.181,0,6.361,0c.618,0,.953-.414.785-.959-.127-.412-.451-.491-.836-.49" transform="translate(-163.64 -379.44)" fill="#ff8900"/>
    <path id="Trazado_210432" data-name="Trazado 210432" d="M427.722,203.989c0-.589-.237-.876-.712-.883s-.734.281-.734.856q0,4.142,0,8.285c0,.571.256.89.707.9.469.009.738-.32.739-.919q0-2.047,0-4.094,0-2.071,0-4.142" transform="translate(-384.956 -183.419)" fill="#ff8900"/>
    <path id="Trazado_210433" data-name="Trazado 210433" d="M69.487,203.331c-.461.014-.7.317-.7.9q0,2.047,0,4.094,0,2.071,0,4.142c0,.6.27.921.744.908.45-.012.7-.328.7-.9q0-4.118,0-8.236c0-.6-.267-.92-.745-.905" transform="translate(-62.117 -183.621)" fill="#ff8900"/>
    <path id="Trazado_210434" data-name="Trazado 210434" d="M137.991,155.563q1.54,1.03,3.09,2.045c.472.31.891.256,1.13-.131s.129-.769-.351-1.089q-1.482-.988-2.97-1.964a.86.86,0,0,0-.53-.208.731.731,0,0,0-.675.522.646.646,0,0,0,.306.825" transform="translate(-124.293 -139.267)" fill="#ff8900"/>
    <path id="Trazado_210435" data-name="Trazado 210435" d="M138.408,326.925a.838.838,0,0,0,.261-.082c1.14-.747,2.285-1.488,3.407-2.261a.609.609,0,0,0,.109-.9.625.625,0,0,0-.912-.256c-1.136.724-2.258,1.47-3.373,2.226a.626.626,0,0,0-.216.814.7.7,0,0,0,.724.463" transform="translate(-124.28 -291.974)" fill="#ff8900"/>
    <path id="Trazado_210436" data-name="Trazado 210436" d="M324.07,324.7c1.1.747,2.207,1.489,3.333,2.2a.714.714,0,0,0,1.075-.666.7.7,0,0,0-.289-.52c-1.109-.736-2.214-1.479-3.334-2.2a.651.651,0,0,0-.953.252.632.632,0,0,0,.167.933" transform="translate(-292.387 -292.054)" fill="#ff8900"/>
    <path id="Trazado_210437" data-name="Trazado 210437" d="M327.413,154.4c-1.1.7-2.176,1.42-3.254,2.146a.7.7,0,0,0-.211,1.011.7.7,0,0,0,1.017.186c1.077-.7,2.143-1.412,3.212-2.122a.709.709,0,0,0,.343-.568.728.728,0,0,0-1.107-.652" transform="translate(-292.429 -139.331)" fill="#ff8900"/>
  </g>
</svg>
