<svg xmlns="http://www.w3.org/2000/svg" xmlns:xlink="http://www.w3.org/1999/xlink" width="78.144" height="49.409" viewBox="0 0 78.144 49.409">
  <defs>
    <clipPath id="clip-path">
      <rect id="Rectángulo_66680" data-name="Rectángulo 66680" width="78.144" height="49.409" fill="#ff8900"/>
    </clipPath>
  </defs>
  <g id="Grupo_217274" data-name="Grupo 217274" transform="translate(6069.072 3795.34)">
    <g id="Grupo_213027" data-name="Grupo 213027" transform="translate(-6069.072 -3795.34)">
      <g id="Grupo_212911" data-name="Grupo 212911" clip-path="url(#clip-path)">
        <path id="Trazado_210415" data-name="Trazado 210415" d="M.922,29.162Q8,32.58,15.1,35.939a1.914,1.914,0,0,0,1.749,0c1.523-.7,3.025-1.456,4.536-2.184,3.092-1.491,6.267-2.827,9.259-4.5a4.559,4.559,0,0,1,1.067-.445c.041-.03.083-.059.124-.09a.338.338,0,0,1,.339,0,3.668,3.668,0,0,1,1.68.22,2.205,2.205,0,0,0,.752.115c.671-.007.989-.281,1.03-.956.049-.812,0-1.628.021-2.441.023-.868.178-1,1.137-1.007,1.051-.011,1.238.119,1.263.96s0,1.678.006,2.518a1.053,1.053,0,0,1-.77,1.088,5.234,5.234,0,0,0-3.668,5.087c0,.153-.051.3-.049.455a2.333,2.333,0,0,1-.228,1.194.342.342,0,0,1-.263.336,2.286,2.286,0,0,1-1.005.493c-1.374.356-1.564,1.4-1.613,3.273a2.78,2.78,0,0,0,.175.9.771.771,0,0,0,.791.593.785.785,0,0,0,.8-.59,5.78,5.78,0,0,0,.225-1.5c.043-.826.248-1.049,1.07-1.054q5.57-.032,11.141,0c.781.005,1.011.238,1.018,1.015q.037,4.12,0,8.241c-.007.863-.249,1.071-1.2,1.075-3.129.014-6.257,0-9.386.005-.483,0-.967.009-1.45,0-.993-.025-1.183-.219-1.2-1.238a8.411,8.411,0,0,0-.136-1.821c-.117-.494-.332-.867-.9-.852-.527.014-.73.37-.841.833a6.852,6.852,0,0,0,.137,3.322,2.357,2.357,0,0,0,2.353,1.611c1.042.033,2.086.009,3.129.009,2.823,0,5.647-.026,8.47.01a2.592,2.592,0,0,0,2.964-2.551c.118-1.476.079-2.948.075-4.42a30.852,30.852,0,0,0-.131-4.874,2.224,2.224,0,0,0-1.929-2.152c-.77-.147-.943-.536-1.012-1.241a8.036,8.036,0,0,0-.744-3.623,5.285,5.285,0,0,0-2.821-2.44,1.253,1.253,0,0,1-.991-1.4c.039-.787.009-1.576.011-2.365,0-.6.284-.89.886-.88.254,0,.508,0,.763.008a.693.693,0,0,1,.749.768c.021.788,0,1.577.013,2.365.02,1.073.425,1.4,1.5,1.211.551-.1,1.087-.267,1.633-.39a1.094,1.094,0,0,1,.883.077,71.423,71.423,0,0,0,7.156,3.579c2.538,1.233,5.081,2.458,7.639,3.651a2.006,2.006,0,0,0,1.82,0c1.5-.69,2.981-1.43,4.468-2.149,3.091-1.495,6.211-2.927,9.29-4.445.425-.21.755-.607,1.262-.652V17.695c-.384-.5-.8-.941-1.515-.678s-.783.837-.78,1.489c.013,2.822,0,5.643.012,8.465a.7.7,0,0,1-.419.772q-5.909,2.793-11.8,5.62a1.048,1.048,0,0,1-.215.051c-.158-.187-.081-.4-.081-.583q-.008-7.4,0-14.8c0-.348-.051-.651.4-.862,3.943-1.853,7.871-3.74,11.8-5.616a3.149,3.149,0,0,1,.314-.107c0,.556.016,1.061,0,1.565a1.168,1.168,0,0,0,.733,1.288,1.106,1.106,0,0,0,1.435-.531c.018-.03.083-.031.126-.046V9.148a12.336,12.336,0,0,1-1.8-.927c-4.135-2.016-8.336-3.9-12.434-5.986a3.265,3.265,0,0,0-3.293-.059c-2.456,1.281-4.987,2.412-7.482,3.616-1.877.906-3.762,1.8-5.64,2.7a1.6,1.6,0,0,0-1.055,1.649c.038,2.033.016,4.067.011,6.1,0,1.083-.078,1.171-1.15,1.447-.566.146-1.138.27-1.7.436-.907.27-1.1.533-1.116,1.466-.011.788,0,1.576-.006,2.364,0,.574-.277.827-.844.828-1.7,0-3.407,0-5.11,0-.619,0-.866-.3-.863-.891,0-.788.015-1.576-.007-2.364a1.207,1.207,0,0,0-1.04-1.383c-.582-.182-1.181-.306-1.772-.459-1.07-.276-1.146-.365-1.149-1.448-.005-2.034-.031-4.068.012-6.1a1.652,1.652,0,0,0-1.115-1.7C27.488,6.978,24.4,5.482,21.3,4.014c-1.516-.718-3.012-1.477-4.54-2.17a1.791,1.791,0,0,0-1.6.013C12.362,3.143,9.605,4.506,6.827,5.825,4.945,6.719,3.06,7.608,1.186,8.52c-.4.2-.695.6-1.186.628V21.51c.34.57.8.959,1.5.733s.8-.815.8-1.476c-.015-2.847-.006-5.7-.006-8.543V11.4l7.06,3.372q2.47,1.179,4.941,2.353c.31.147.528.281.526.71C14.8,22.968,14.8,28.1,14.8,33.239a1.269,1.269,0,0,1-.059.223c-1.057-.5-2.1-.988-3.145-1.485-2.9-1.387-5.8-2.792-8.712-4.155-.46-.215-.693-.448-.6-.957a3.039,3.039,0,0,0,0-.381c.035-.647-.058-1.226-.762-1.5S.4,25.163,0,25.63v3.052c.4-.026.609.328.922.479M61.9,3.915a.717.717,0,0,1,.707.052c3.863,1.849,7.727,3.7,11.738,5.615-2.172,1.04-4.2,2.012-6.229,2.981-1.806.863-3.615,1.72-5.419,2.587a.864.864,0,0,1-.84.086Q56.173,12.5,50.477,9.782c-.116-.055-.237-.1-.277-.273q5.842-2.788,11.7-5.6M53.132,16.586c-.166-.667-.752-.955-1.566-.752-.982.245-1.961.5-2.988.767V11.425c1.1.52,2.188,1.031,3.274,1.549q4.353,2.079,8.707,4.158a.7.7,0,0,1,.5.724c-.018,5.108-.012,10.216-.014,15.324a2.1,2.1,0,0,1-.056.3l-11.728-5.6c1.072-.28,1.943-.5,2.811-.735s1.234-.761,1.058-1.473c-.17-.688-.78-.973-1.65-.754-.786.2-1.584.367-2.348.632-.578.2-.613-.024-.608-.5.02-1.8.039-3.609-.01-5.412-.016-.569.206-.729.689-.839.987-.227,1.965-.5,2.942-.768.817-.228,1.157-.743.984-1.436M45.952,23.56a.971.971,0,0,0-.906-.965c-.47-.032-.521-.23-.5-.609a13.448,13.448,0,0,0,0-1.521c-.023-.356.125-.457.446-.549,1.262-.363,1.257-.379,1.257.94,0,1.547-.036,3.1.018,4.642.022.623-.144.937-.769,1.009a8.726,8.726,0,0,0-.943.217,9.915,9.915,0,0,0-.006-1.03c-.058-.533.024-.86.67-.968a.958.958,0,0,0,.738-1.165M42.459,33.953c.293,2.36.293,2.36-2.013,2.36H39c-.964,0-1.929-.015-2.892.007-.354.008-.5-.073-.477-.458.042-.632-.008-1.271.059-1.9a3.411,3.411,0,0,1,6.768-.01M32.412,19.7c1.179.258,1.181.25,1.181,1.434,0,.254-.013.508,0,.761.025.41.013.691-.56.714a.938.938,0,0,0-.845.935c-.058.537.136,1.067.653,1.145.831.127.8.623.753,1.215-.02.249,0,.5,0,.8-1.695-.392-1.695-.392-1.695-1.954s.018-3.1-.011-4.643c-.009-.457.153-.489.525-.408m-2.831-8.2v5.1c-1.039-.266-2.043-.529-3.05-.779a1.128,1.128,0,0,0-1.514.736c-.19.688.151,1.231.953,1.457q1.611.454,3.233.865c.241.062.414.1.412.417-.011,2.105-.006,4.21-.006,6.391-1.048-.278-2.022-.55-3-.793-.88-.218-1.522.151-1.622.9a1.153,1.153,0,0,0,.994,1.316c.9.246,1.816.469,2.925.754l-11.66,5.572c-.239-.148-.143-.345-.143-.5q-.009-7.476-.006-14.953c0-.328-.032-.6.379-.8,3.989-1.879,7.965-3.787,11.945-5.684a.467.467,0,0,1,.164,0M4.258,9.79c-.109-.052-.208-.122-.394-.232C6.423,8.333,8.9,7.145,11.378,5.96c1.371-.656,2.746-1.3,4.116-1.965a.856.856,0,0,1,.846-.047C20.173,5.8,24.017,7.631,27.857,9.469c.035.017.056.062.14.159-1.386.665-2.748,1.32-4.112,1.971q-3.7,1.769-7.408,3.539a.926.926,0,0,1-.911.079Q9.92,12.487,4.258,9.79" transform="translate(0 -1.408)" fill="#ff8900"/>
        <path id="Trazado_210416" data-name="Trazado 210416" d="M235.652,161.405c-1.487.719-2.966,1.459-4.468,2.149a2.006,2.006,0,0,1-1.82,0c-2.558-1.193-5.1-2.417-7.639-3.651a71.423,71.423,0,0,1-7.156-3.579,1.093,1.093,0,0,0-.883-.078c-.546.122-1.082.291-1.633.39-1.073.192-1.478-.138-1.5-1.211-.015-.788.008-1.577-.013-2.365a.693.693,0,0,0-.749-.768c-.254-.009-.509,0-.763-.008-.6-.01-.884.277-.886.88,0,.789.027,1.578-.012,2.365a1.254,1.254,0,0,0,.991,1.4,5.284,5.284,0,0,1,2.821,2.44,8.034,8.034,0,0,1,.744,3.623c.069.705.242,1.094,1.012,1.241a2.224,2.224,0,0,1,1.929,2.152,30.832,30.832,0,0,1,.131,4.874c0,1.472.044,2.944-.075,4.42a2.592,2.592,0,0,1-2.964,2.551c-2.823-.036-5.647-.009-8.47-.01-1.043,0-2.086.023-3.129-.009a2.357,2.357,0,0,1-2.353-1.611,6.852,6.852,0,0,1-.137-3.322c.111-.463.314-.818.841-.833.57-.015.785.358.9.852a8.409,8.409,0,0,1,.136,1.821c.016,1.019.206,1.213,1.2,1.238.483.012.967,0,1.45,0,3.129,0,6.257.009,9.386-.005.953,0,1.195-.212,1.2-1.075q.033-4.12,0-8.24c-.007-.777-.237-1.01-1.018-1.015q-5.57-.037-11.141,0c-.822,0-1.027.228-1.07,1.054a5.778,5.778,0,0,1-.225,1.5.785.785,0,0,1-.8.59.771.771,0,0,1-.791-.593,2.782,2.782,0,0,1-.175-.9c.049-1.874.238-2.917,1.613-3.273a2.282,2.282,0,0,0,1.005-.493,1.149,1.149,0,0,1-.256.041,2.6,2.6,0,0,0-2.52,2.558,15.308,15.308,0,0,0,0,1.754,1.107,1.107,0,0,0,1.146,1.163,1.123,1.123,0,0,0,1.125-1.189,9.16,9.16,0,0,0,0-1.22c-.041-.577.154-.812.776-.808q5.721.035,11.443,0c.559,0,.769.175.765.742q-.027,4.233,0,8.467c0,.5-.149.732-.7.729q-5.8-.025-11.6,0c-.491,0-.7-.171-.685-.663.017-.711.025-1.425-.008-2.135a1.135,1.135,0,1,0-2.268,0,25.3,25.3,0,0,0,.014,2.592,2.6,2.6,0,0,0,2.671,2.487q6.065.022,12.129,0a2.564,2.564,0,0,0,2.7-2.535c.057-3.126.053-6.255,0-9.381a2.538,2.538,0,0,0-2.51-2.558c-.451-.03-.566-.17-.522-.579a7.638,7.638,0,0,0,.005-.838c-.013-3.1-1.28-4.94-4.174-6.009-.275-.1-.417-.2-.411-.515.019-1.042.007-2.085.007-3.127,0-.2-.021-.366.283-.423,1.444-.272,1.761-.034,1.761,1.393,0,.331.02.662,0,.991-.165,2.3.779,2.38,2.438,1.849.784-.251,1.605-.633,2.284.242.042.054.131.074.2.107,4.711,2.247,9.427,4.485,14.127,6.753a1.872,1.872,0,0,0,1.794,0q6.915-3.335,13.854-6.619a3.48,3.48,0,0,0,1.189-.868c-.508.045-.837.442-1.262.652-3.08,1.517-6.2,2.95-9.29,4.445" transform="translate(-168.061 -129.034)" fill="#ff8900"/>
        <path id="Trazado_210417" data-name="Trazado 210417" d="M212.2,161.915a5.234,5.234,0,0,1,3.668-5.087,1.053,1.053,0,0,0,.769-1.088c0-.839.019-1.679-.006-2.518s-.212-.971-1.263-.96c-.96.01-1.114.14-1.137,1.007-.022.813.027,1.629-.021,2.441-.04.675-.359.949-1.03.956a2.2,2.2,0,0,1-.752-.115,3.67,3.67,0,0,0-1.68-.22c.057.021.114.045.17.06.662.176,1.321.367,1.99.507.984.206,1.525-.234,1.545-1.228.012-.585,0-1.169,0-1.754,0-1.517,0-1.494,1.531-1.473.469.006.531.186.521.582-.024.889-.04,1.781,0,2.669a.755.755,0,0,1-.631.9,5.528,5.528,0,0,0-3.82,4.181,9.489,9.489,0,0,0-.131,2.583,1.381,1.381,0,0,1-.007.2,2.332,2.332,0,0,0,.228-1.194c0-.15.044-.3.049-.455" transform="translate(-178.569 -129.015)" fill="#ff8900"/>
        <path id="Trazado_210418" data-name="Trazado 210418" d="M15.185,186.185a1.652,1.652,0,0,0,1.582-.022c2.552-1.24,5.144-2.4,7.672-3.687,2.423-1.234,5.052-2.072,7.272-3.7a4.561,4.561,0,0,0-1.067.445c-2.992,1.676-6.166,3.012-9.258,4.5-1.511.729-3.013,1.48-4.536,2.184a1.915,1.915,0,0,1-1.749,0Q8,182.526.922,179.122c-.313-.151-.519-.506-.922-.48a3.9,3.9,0,0,0,.913.74q7.145,3.382,14.272,6.8" transform="translate(0 -151.368)" fill="#ff8900"/>
        <path id="Trazado_210419" data-name="Trazado 210419" d="M6.827,4.417C9.605,3.1,12.362,1.735,15.156.45a1.791,1.791,0,0,1,1.6-.013c1.528.692,3.024,1.452,4.54,2.17,3.1,1.468,6.189,2.964,9.292,4.427a1.652,1.652,0,0,1,1.115,1.7c-.043,2.033-.018,4.067-.012,6.1,0,1.082.079,1.171,1.149,1.448.591.153,1.189.277,1.772.459a1.207,1.207,0,0,1,1.04,1.383c.022.788.01,1.576.007,2.364,0,.595.244.892.863.891,1.7,0,3.407,0,5.11,0,.567,0,.841-.254.844-.828,0-.788,0-1.576.006-2.364.013-.934.209-1.2,1.116-1.466.56-.167,1.133-.291,1.7-.436,1.072-.276,1.147-.364,1.15-1.447.005-2.034.027-4.068-.011-6.1a1.6,1.6,0,0,1,1.055-1.649c1.878-.9,3.763-1.792,5.64-2.7,2.495-1.2,5.026-2.335,7.482-3.616a3.265,3.265,0,0,1,3.292.059c4.1,2.089,8.3,3.971,12.434,5.986a12.335,12.335,0,0,0,1.8.927A4.061,4.061,0,0,0,77.233,7Q70.123,3.628,63.03.226a1.722,1.722,0,0,0-1.65,0Q54.294,3.638,47.179,7a1.46,1.46,0,0,0-.943,1.484c.024,2.237-.009,4.475.022,6.712.007.508-.155.7-.636.8-.794.162-1.571.4-2.357.6a1.2,1.2,0,0,0-1.008,1.318c.018.889-.012,1.78.011,2.669.01.4-.057.589-.528.582q-2.669-.041-5.34,0c-.471.007-.538-.184-.527-.582.023-.889-.006-1.78.011-2.669a1.2,1.2,0,0,0-1.008-1.318c-.786-.2-1.564-.441-2.357-.6-.482-.1-.642-.293-.635-.8.031-2.237,0-4.475.022-6.712a1.426,1.426,0,0,0-.873-1.455Q23.862,3.612,16.7.183A1.6,1.6,0,0,0,15.184.2Q8.2,3.561,1.19,6.877A3.334,3.334,0,0,0,0,7.74c.491-.024.781-.432,1.185-.628,1.874-.912,3.76-1.8,5.642-2.695" transform="translate(0 0)" fill="#ff8900"/>
        <path id="Trazado_210420" data-name="Trazado 210420" d="M234.424,251.958a2.582,2.582,0,0,1,1.314,2.424c-.048.556.475.875,1.05.882a1.028,1.028,0,0,0,1.122-.921,3.566,3.566,0,0,0,.037-.911.806.806,0,0,1,.512-.879,3.3,3.3,0,0,0,1.769-2.914,3.422,3.422,0,0,0-6.393-1.783,3.234,3.234,0,0,0,.589,4.1m2.376-3.521a1.127,1.127,0,1,1-1.12,1.1,1.108,1.108,0,0,1,1.12-1.1" transform="translate(-197.736 -208.555)" fill="#ff8900"/>
      </g>
    </g>
  </g>
</svg>
