<svg id="Grupo_212910" data-name="Grupo 212910" xmlns="http://www.w3.org/2000/svg" xmlns:xlink="http://www.w3.org/1999/xlink" width="72.558" height="49.409" viewBox="0 0 72.558 49.409">
  <defs>
    <clipPath id="clip-path">
      <rect id="Rectángulo_66679" data-name="Rectángulo 66679" width="72.558" height="49.409" fill="#ff8900"/>
    </clipPath>
  </defs>
  <g id="Grupo_212909" data-name="Grupo 212909" clip-path="url(#clip-path)">
    <path id="Trazado_210409" data-name="Trazado 210409" d="M.856,27.213c4.289,2.085,8.611,4.1,12.9,6.185a2.219,2.219,0,0,0,2.082.018c.608-.285.918-.417,1.093-.317l.022-.011c0,.01,0,.019,0,.028.157.116.2.447.269,1.066a4.863,4.863,0,0,0,.608,1.725c.378.716.335.859-.455,1.114a6.96,6.96,0,0,0-3.854,3.06,5.821,5.821,0,0,0-.859,2.813,16.644,16.644,0,0,0-.041,3.811c.163.941.349,1.112,1.3,1.114q5.562.009,11.124,0c.26,0,.519,0,.779.009a.642.642,0,0,1,.714.7,8.788,8.788,0,0,0,.164,1.334.85.85,0,0,0,.872.774c1.322.041,2.645.047,3.966,0a.876.876,0,0,0,.95-.848c-.007-.458-.37-.8-.967-.838-.754-.053-1.511-.018-2.267-.02-.553,0-.833-.238-.831-.806,0-.85-.05-1.7.019-2.549a4.905,4.905,0,0,1,4.673-4.248c2.1-.068,4.205-.072,6.3,0a4.835,4.835,0,0,1,4.7,4.883c0,.52,0,1.039,0,1.559-.009,1.058-.107,1.157-1.193,1.16-1.984.006-3.968,0-5.951,0a3.482,3.482,0,0,0-.777.044.787.787,0,0,0-.69.85.775.775,0,0,0,.676.789,3.123,3.123,0,0,0,.706.044q3.755,0,7.51,0c1.181,0,1.345-.144,1.524-1.285a1.439,1.439,0,0,0,.031-.21c.008-1.4.243-1.338,1.548-1.338q5.455,0,10.911,0c1.211,0,1.4-.142,1.542-1.337a13.678,13.678,0,0,0-.248-4.645,6.475,6.475,0,0,0-4.158-4.675c-.241-.1-.493-.164-.73-.272a.58.58,0,0,1-.291-.248l-.034-.009.016-.023a.48.48,0,0,1,.053-.406,6.006,6.006,0,0,0,.816-2.684.412.412,0,0,1,.23-.414v0l.005,0a.6.6,0,0,1,.407.016,1.735,1.735,0,0,1,.394.158,2.591,2.591,0,0,0,2.794-.06c4.073-2.044,8.224-3.927,12.318-5.928a1.293,1.293,0,0,0,.819-1.275c-.007-2.858,0-5.715-.005-8.572a1.757,1.757,0,0,0-.067-.561.791.791,0,0,0-.791-.592.78.78,0,0,0-.793.586,2.619,2.619,0,0,0-.073.843c0,2.385-.016,4.77.009,7.155a1.313,1.313,0,0,1-.856,1.374c-3.152,1.452-6.279,2.958-9.4,4.483a8.9,8.9,0,0,1-1.043.443c-.455.155-.672-.033-.713-.485-.019-.212-.018-.425-.018-.637,0-4.251.016-8.5-.014-12.752a1.576,1.576,0,0,1,1.013-1.654c3.315-1.549,6.625-3.11,9.911-4.72.435-.213.7-.284.869-.181l.038-.018v.05c.135.122.186.391.2.837a4.661,4.661,0,0,0,.052.988.811.811,0,0,0,.833.722.75.75,0,0,0,.778-.693,19.387,19.387,0,0,0,.006-3.745c-.047-.5-.529-.688-.936-.884-3.977-1.918-7.976-3.788-11.945-5.723-.3-.145-.6-.276-.9-.416a1.712,1.712,0,0,0-1.5,0C55.581,2.475,54.2,3.2,52.794,3.871c-2.918,1.4-5.844,2.774-8.753,4.188a1.422,1.422,0,0,0-.914,1.435c.02,1.913.013,3.826,0,5.739,0,.949-.114,1.079-1.027,1.322-.571.152-1.147.279-1.715.443a1.174,1.174,0,0,0-.938,1.245c0,.732.019,1.465-.01,2.2-.027.682-.171.84-.853.85-1.558.024-3.117.012-4.676.006-.565,0-.811-.274-.81-.829,0-.732.013-1.464-.007-2.2a1.126,1.126,0,0,0-.973-1.281c-.609-.189-1.232-.332-1.853-.475a.987.987,0,0,1-.857-1.1c.01-1.913-.029-3.827.019-5.738A1.668,1.668,0,0,0,28.3,7.935c-2.735-1.284-5.458-2.595-8.182-3.9-1.362-.655-2.747-1.262-4.081-1.973a2.307,2.307,0,0,0-2.283-.067C12.441,2.64,11.115,3.262,9.8,3.9,6.926,5.283,4.038,6.63,1.172,8.025c-.4.193-.7.563-1.172.606v8.785c.381.424.766.839,1.425.583s.709-.794.705-1.393c-.013-1.932,0-3.863,0-5.888,1.323.634,2.587,1.242,3.853,1.846q3.628,1.73,7.259,3.454c.312.148.522.282.521.711-.02,4.717-.013,9.435-.014,14.152,0,.086-.012.172-.026.348L9.542,29.235C7.272,28.151,5.011,27.051,2.727,26a.9.9,0,0,1-.615-1c.046-1.012,0-2.028.019-3.042.011-.6-.045-1.154-.686-1.407S.389,20.672,0,21.1v5.668c.374-.025.566.3.856.446M28.828,41.08a6.536,6.536,0,0,0-2.338,4.447c-.044.461-.329.368-.594.368q-2.724.005-5.449,0c-1.793,0-3.586-.013-5.378.01-.419.005-.583-.077-.554-.534a14.774,14.774,0,0,1,.2-3.235A4.734,4.734,0,0,1,19.2,38.676q3.043-.036,6.086,0a4.706,4.706,0,0,1,3.581,1.72c.229.261.25.429-.043.682M25.3,34.27a3.2,3.2,0,0,1-3.358,2.263,3.157,3.157,0,0,1-2.844-2.868,12.8,12.8,0,0,1-.022-1.768,3.179,3.179,0,0,1,6.358.05c.009.212,0,.425,0,.637A5.736,5.736,0,0,1,25.3,34.27m14.16,1.238a5.054,5.054,0,0,1-.185,1.748,3.2,3.2,0,0,1-3.325,2.11A3.15,3.15,0,0,1,33.13,36.55a12.957,12.957,0,0,1-.03-1.839,3.178,3.178,0,0,1,6.355.018c.014.259,0,.519,0,.779m18.526,7.5c.064.8.008,1.6.052,2.4.024.429-.15.493-.524.49-1.816-.017-3.632-.008-5.449-.008s-3.632-.01-5.448.008c-.375,0-.52-.081-.566-.488A6.477,6.477,0,0,0,43.8,41.148c-.377-.327-.332-.519-.043-.835a4.674,4.674,0,0,1,3.478-1.632c2.052-.031,4.1-.035,6.156,0a4.706,4.706,0,0,1,4.6,4.332M47.133,31.841a3.172,3.172,0,0,1,6.339-.051c.022.3,0,.613,0,.92.015,2.124-.8,3.342-2.482,3.75a3.14,3.14,0,0,1-3.809-2.57,11.552,11.552,0,0,1-.052-2.049M57.42,3.8a.667.667,0,0,1,.655,0q5.4,2.6,10.822,5.175c-.117.271-.375.3-.578.4q-5.028,2.409-10.061,4.81a.858.858,0,0,1-.844.1c-3.538-1.709-7.084-3.4-10.628-5.1A2,2,0,0,1,46.543,9c3.663-1.748,7.272-3.468,10.877-5.2M45.054,18.164c0-.323.1-.434.416-.509.985-.234,1.96-.508,2.934-.782.764-.215,1.081-.683.927-1.326-.149-.622-.7-.9-1.447-.71-.912.228-1.822.468-2.78.714V10.74l3.859,1.845q3.631,1.733,7.265,3.46a.65.65,0,0,1,.462.676c-.015,4.793-.01,9.586-.01,14.457-.641-.229-1.172-.387-1.441-1.134a5.169,5.169,0,0,0-6.295-3.212,2.183,2.183,0,0,1-1.915-.192c-.355-.214-.743-.373-1.272-.633.976-.254,1.775-.456,2.57-.671.838-.227,1.193-.744.993-1.421-.183-.618-.746-.85-1.57-.634-.752.2-1.5.4-2.249.613-.335.1-.45.026-.447-.347q.025-2.691,0-5.384m-3.037,4.91c.482-.046.688-.531.65-1.033a.894.894,0,0,0-.815-.918c-.478-.032-.526-.244-.493-.614.017-.187,0-.377,0-.565,0-1.368.064-1.432,1.573-1.531,0,1.932-.008,3.861,0,5.791,0,.62-.527.408-.814.557-.646.335-.839.061-.773-.6.049-.483-.156-1.01.664-1.087m-11.9-4.642c1.064.257,1.067.243,1.067,1.357,0,.236-.01.472,0,.707.019.35.019.6-.479.625a.889.889,0,0,0-.827.906c-.044.533.177,1,.7,1.071.642.086.638.443.607.908-.02.3,0,.6,0,.9a1.191,1.191,0,0,1-.207,0c-1.366-.332-1.366-.332-1.366-1.748,0-1.437.016-2.874-.01-4.31-.008-.431.114-.512.516-.415m-1.515,9.043c.975-.862,1.931-.56,2.941-.229a2.651,2.651,0,0,0,.551.121,1.007,1.007,0,0,0,1.207-1.048q.037-1.274,0-2.549c-.012-.4.04-.586.52-.577q2.442.05,4.886,0c.459-.008.55.145.534.564-.032.825-.022,1.652-.005,2.478a1.02,1.02,0,0,0,1.337,1.106c.669-.129,1.325-.327,1.985-.5.158-.041.352-.157.467-.018.716.863,1.828,1.017,2.728,1.548.255.15.394.2.188.556-1.483,2.555-1.269,5.107.058,7.721-.3.1-.672.2-1.031.327a5.988,5.988,0,0,0-2.894,2.067c-.455.63-.882.834-1.568.384a7.231,7.231,0,0,0,.832-6.141,5.215,5.215,0,0,0-5.594-3.808A5.283,5.283,0,0,0,31,34.309c-.13,1.8-.169,3.6,1.06,5.1-.688.425-1.111.29-1.589-.355a6.412,6.412,0,0,0-3.942-2.388c1.341-2.645,1.556-5.213.038-7.789-.154-.262-.1-.352.148-.466a7.422,7.422,0,0,0,1.887-.94m-1.147-16.7V15.55c-.949-.243-1.879-.487-2.812-.718a1.06,1.06,0,1,0-.553,2.029c1,.282,2,.552,3,.8.265.066.4.138.4.447-.013,1.934-.007,3.868-.007,5.878-.96-.254-1.863-.5-2.769-.73a1.117,1.117,0,0,0-1.416.475A1.074,1.074,0,0,0,24.1,25.3c.848.237,1.7.444,2.718.705-.812.392-1.48.718-2.152,1.036-.187.088-.36-.006-.542-.066a5.291,5.291,0,0,0-6.917,3.283c-.19.509-.384.64-1.335.884V27.4q0-5.276,0-10.551c0-.343.014-.593.408-.778,3.661-1.722,7.309-3.473,10.961-5.214a2.17,2.17,0,0,1,.224-.075M3.922,9.217c-.109-.052-.218-.094-.25-.251Q9.067,6.391,14.477,3.8a.737.737,0,0,1,.721.022c3.585,1.721,7.172,3.436,10.888,5.213-2.019.967-3.9,1.87-5.787,2.77-1.677.8-3.356,1.6-5.032,2.4a.8.8,0,0,1-.781.075Q9.211,11.735,3.922,9.217" transform="translate(0 -1.452)" fill="#ff8900"/>
    <path id="Trazado_210410" data-name="Trazado 210410" d="M405.541,65.353c-3.286,1.61-6.6,3.171-9.911,4.72a1.576,1.576,0,0,0-1.013,1.653c.03,4.251.014,8.5.014,12.752,0,.212,0,.425.018.637.041.451.258.64.713.485a8.886,8.886,0,0,0,1.043-.443c3.117-1.525,6.244-3.032,9.4-4.483a1.313,1.313,0,0,0,.856-1.374c-.025-2.385-.011-4.77-.009-7.155a2.619,2.619,0,0,1,.073-.843.78.78,0,0,1,.793-.586.791.791,0,0,1,.791.592,1.753,1.753,0,0,1,.067.561c0,2.857,0,5.715.005,8.572a1.292,1.292,0,0,1-.819,1.275c-4.094,2-8.245,3.885-12.318,5.928a2.591,2.591,0,0,1-2.795.06,1.727,1.727,0,0,0-.394-.158.6.6,0,0,0-.407-.016c.561.266,1.041.488,1.516.72a1.242,1.242,0,0,0,1.152.023q6.78-3.248,13.565-6.485a1.1,1.1,0,0,0,.694-1.055q0-4.569,0-9.138a1.039,1.039,0,0,0-.683-1.052c-.769-.31-1.437.232-1.44,1.187-.007,2.574-.014,5.147.008,7.721a.872.872,0,0,1-.578.951c-3.514,1.65-7.009,3.34-10.514,5.009-.155.074-.3.251-.538.12,0-4.8.007-9.621-.012-14.437,0-.416.237-.514.511-.645l7.521-3.58,3.561-1.7c-.164-.1-.434-.032-.869.181" transform="translate(-336.023 -55.876)" fill="#ff8900"/>
    <path id="Trazado_210411" data-name="Trazado 210411" d="M384.589,223.309a6.006,6.006,0,0,1-.816,2.684.479.479,0,0,0-.053.406,5.684,5.684,0,0,0,1.1-3.5.412.412,0,0,0-.23.414" transform="translate(-329.202 -191.239)" fill="#ff8900"/>
    <path id="Trazado_210412" data-name="Trazado 210412" d="M9.8,2.446c1.318-.636,2.644-1.258,3.955-1.907a2.307,2.307,0,0,1,2.283.067c1.335.71,2.719,1.318,4.081,1.973,2.723,1.31,5.447,2.62,8.182,3.9a1.668,1.668,0,0,1,1.134,1.734c-.048,1.912-.008,3.825-.018,5.738a.987.987,0,0,0,.857,1.1c.621.143,1.244.286,1.853.475a1.126,1.126,0,0,1,.973,1.281c.02.732.008,1.464.007,2.2,0,.555.245.827.81.829,1.559.006,3.117.018,4.676-.006.681-.01.826-.168.853-.85.029-.731.011-1.464.01-2.2a1.174,1.174,0,0,1,.938-1.245c.568-.164,1.144-.291,1.715-.443.913-.243,1.022-.373,1.027-1.322.009-1.913.016-3.826,0-5.739a1.422,1.422,0,0,1,.914-1.435c2.909-1.414,5.835-2.793,8.753-4.188,1.405-.672,2.786-1.4,4.221-2.009a1.712,1.712,0,0,1,1.5,0c.3.14.6.271.9.416,3.969,1.935,7.968,3.8,11.944,5.723.407.2.889.382.936.884a19.4,19.4,0,0,1-.006,3.745.751.751,0,0,1-.778.693.811.811,0,0,1-.833-.722,4.661,4.661,0,0,1-.052-.988c-.011-.446-.062-.715-.2-.837,0,.562,0,1.042,0,1.521.009.806.429,1.3,1.082,1.288.63-.014,1.034-.491,1.04-1.26.008-1.015-.016-2.031.009-3.046a1.3,1.3,0,0,0-.84-1.329Q65.086,3.353,58.467.178A1.537,1.537,0,0,0,57,.195Q50.417,3.363,43.812,6.483a1.392,1.392,0,0,0-.887,1.441c.03,2.077,0,4.156.024,6.233.006.419-.133.576-.511.663-.757.174-1.5.387-2.258.576a1.112,1.112,0,0,0-.945,1.215c.015.85-.014,1.7.011,2.55.011.376-.111.481-.481.477-1.653-.018-3.306-.022-4.958,0-.426.006-.509-.154-.5-.533.024-.8-.012-1.606.012-2.408a1.159,1.159,0,0,0-1-1.316c-.688-.16-1.358-.4-2.051-.528-.512-.093-.676-.29-.667-.824.036-2.054,0-4.108.024-6.162a1.354,1.354,0,0,0-.872-1.38Q22.153,3.358,15.568.2a1.6,1.6,0,0,0-1.533.011Q7.581,3.316,1.1,6.378a3.135,3.135,0,0,0-1.1.8c.471-.042.775-.413,1.172-.606C4.038,5.179,6.926,3.831,9.8,2.446" transform="translate(0 0)" fill="#ff8900"/>
    <path id="Trazado_210413" data-name="Trazado 210413" d="M14.161,185.287a1.361,1.361,0,0,0,1.285,0c.462-.234.935-.451,1.487-.715-.176-.1-.485.032-1.093.317a2.219,2.219,0,0,1-2.082-.018c-4.29-2.084-8.611-4.1-12.9-6.185-.29-.141-.482-.47-.856-.446a3.385,3.385,0,0,0,.786.652q6.694,3.182,13.375,6.391" transform="translate(0 -152.928)" fill="#ff8900"/>
    <path id="Trazado_210414" data-name="Trazado 210414" d="M129.485,226.737c.237.108.489.175.73.272a6.475,6.475,0,0,1,4.158,4.675,13.674,13.674,0,0,1,.248,4.645c-.138,1.195-.332,1.336-1.542,1.337q-5.456,0-10.911,0c-1.305,0-1.541-.063-1.548,1.338a1.44,1.44,0,0,1-.031.21c-.179,1.141-.343,1.283-1.524,1.285q-3.755,0-7.51,0a3.121,3.121,0,0,1-.706-.044.775.775,0,0,1-.676-.789.787.787,0,0,1,.69-.85,3.481,3.481,0,0,1,.776-.044c1.984,0,3.968,0,5.951,0,1.086,0,1.184-.1,1.193-1.16,0-.52,0-1.039,0-1.559a4.835,4.835,0,0,0-4.7-4.883c-2.1-.072-4.2-.069-6.3,0a4.906,4.906,0,0,0-4.674,4.248c-.069.847-.015,1.7-.018,2.549,0,.568.278.8.831.806.756,0,1.513-.033,2.267.02.6.042.961.38.967.838a.876.876,0,0,1-.95.848c-1.321.049-2.645.043-3.966,0a.85.85,0,0,1-.872-.774,8.787,8.787,0,0,1-.164-1.334.642.642,0,0,0-.714-.7c-.26-.007-.52-.009-.779-.009q-5.562,0-11.123,0c-.954,0-1.14-.173-1.3-1.114a16.644,16.644,0,0,1,.041-3.811,5.82,5.82,0,0,1,.859-2.813,6.96,6.96,0,0,1,3.854-3.06c.79-.255.832-.4.455-1.114a4.86,4.86,0,0,1-.608-1.725c-.069-.619-.112-.95-.269-1.066a5.636,5.636,0,0,0,1.077,3.517,6.9,6.9,0,0,0-5.5,5.524,22.158,22.158,0,0,0-.131,4.382c-.01,1.155.324,1.481,1.458,1.481q5.455,0,10.909,0c.539,0,1.248-.228,1.566.1.264.276.074.984.094,1.5.033.834.4,1.217,1.219,1.223q1.948.016,3.9,0c.767-.006,1.217-.424,1.206-1.081s-.462-1.032-1.248-1.039c-.85-.008-1.7-.012-2.55,0-.3.006-.416-.075-.4-.392.028-.825-.019-1.655.045-2.477a4.714,4.714,0,0,1,4.654-4.357q3.045-.038,6.092,0a4.751,4.751,0,0,1,4.549,3.758,19.225,19.225,0,0,1,.12,2.9c.025.478-.138.578-.587.574-2.29-.022-4.581-.012-6.871-.009-.839,0-1.311.377-1.324,1.039-.014.691.468,1.084,1.35,1.085q3.719,0,7.438,0c2.03,0,2.129-.077,2.1-2.11-.009-.566.1-.746.713-.741,3.943.032,7.887.017,11.83.016,1.183,0,1.494-.314,1.5-1.516,0-.826,0-1.653,0-2.479a7.906,7.906,0,0,0-.469-3.054,7,7,0,0,0-5.148-4.327.581.581,0,0,0,.291.248" transform="translate(-74.659 -191.296)" fill="#ff8900"/>
  </g>
</svg>
