<svg xmlns="http://www.w3.org/2000/svg" xmlns:xlink="http://www.w3.org/1999/xlink" width="433" height="255" viewBox="0 0 433 255">
  <defs>
    <clipPath id="clip-path">
      <rect id="Rectángulo_66696" data-name="Rectángulo 66696" width="30.404" height="34.598" fill="#ccac00"/>
    </clipPath>
  </defs>
  <g id="Grupo_217270" data-name="Grupo 217270" transform="translate(5743 3577)">
    <g id="Rectángulo_66699" data-name="Rectángulo 66699" transform="translate(-5743 -3541)" fill="none" stroke="#f08e35" stroke-width="1">
      <rect width="126" height="30" stroke="none"/>
      <rect x="0.5" y="0.5" width="125" height="29" fill="none"/>
    </g>
    <g id="Rectángulo_66701" data-name="Rectángulo 66701" transform="translate(-5743 -3375)" fill="none" stroke="#f08e35" stroke-width="1">
      <rect width="126" height="53" stroke="none"/>
      <rect x="0.5" y="0.5" width="125" height="52" fill="none"/>
    </g>
    <g id="Rectángulo_66700" data-name="Rectángulo 66700" transform="translate(-5416 -3577)" fill="none" stroke="#f08e35" stroke-width="1">
      <rect width="106" height="30" stroke="none"/>
      <rect x="0.5" y="0.5" width="105" height="29" fill="none"/>
    </g>
    <path id="Trazado_217326" data-name="Trazado 217326" d="M4.75,15.773h5.391V17h-6.9V5.625H4.75Zm10.383,1.383a3.693,3.693,0,0,1-2.8-1.129,4.19,4.19,0,0,1-1.078-3.02v-.266a5.073,5.073,0,0,1,.48-2.246,3.748,3.748,0,0,1,1.344-1.547,3.378,3.378,0,0,1,1.871-.559,3.166,3.166,0,0,1,2.563,1.086,4.7,4.7,0,0,1,.914,3.109v.6H12.7a3,3,0,0,0,.73,2.02,2.3,2.3,0,0,0,1.777.77,2.517,2.517,0,0,0,1.3-.312,3.259,3.259,0,0,0,.93-.828l.883.688A3.55,3.55,0,0,1,15.133,17.156Zm-.18-7.578a1.928,1.928,0,0,0-1.469.637A3.1,3.1,0,0,0,12.75,12h4.234v-.109a2.753,2.753,0,0,0-.594-1.707A1.815,1.815,0,0,0,14.953,9.578Zm4.8,3.125a4.952,4.952,0,0,1,.922-3.129,3.137,3.137,0,0,1,4.766-.168V5h1.445V17H25.555l-.07-.906a2.943,2.943,0,0,1-2.414,1.063,2.887,2.887,0,0,1-2.395-1.2,5.008,5.008,0,0,1-.926-3.141Zm1.445.164a3.749,3.749,0,0,0,.594,2.25,1.92,1.92,0,0,0,1.641.813A2.108,2.108,0,0,0,25.438,14.7V10.813a2.125,2.125,0,0,0-1.992-1.2,1.929,1.929,0,0,0-1.656.82A4.128,4.128,0,0,0,21.2,12.867Zm7.586-.164A4.968,4.968,0,0,1,29.7,9.559a3.151,3.151,0,0,1,4.836-.074l.07-.937h1.32V16.8a3.439,3.439,0,0,1-.973,2.586,3.589,3.589,0,0,1-2.613.945,4.348,4.348,0,0,1-1.789-.391,3.08,3.08,0,0,1-1.336-1.07l.75-.867a2.826,2.826,0,0,0,2.273,1.148,2.214,2.214,0,0,0,1.645-.594,2.269,2.269,0,0,0,.59-1.672v-.727a2.971,2.971,0,0,1-2.367,1,2.887,2.887,0,0,1-2.4-1.2A5.224,5.224,0,0,1,28.781,12.7Zm1.453.164a3.79,3.79,0,0,0,.586,2.246,1.9,1.9,0,0,0,1.641.816,2.117,2.117,0,0,0,2.008-1.242V10.828a2.142,2.142,0,0,0-1.992-1.211,1.921,1.921,0,0,0-1.648.82A4.128,4.128,0,0,0,30.234,12.867Zm11.375,4.289a3.693,3.693,0,0,1-2.8-1.129,4.19,4.19,0,0,1-1.078-3.02v-.266a5.073,5.073,0,0,1,.48-2.246,3.748,3.748,0,0,1,1.344-1.547,3.378,3.378,0,0,1,1.871-.559,3.166,3.166,0,0,1,2.563,1.086,4.7,4.7,0,0,1,.914,3.109v.6H39.18a3,3,0,0,0,.73,2.02,2.3,2.3,0,0,0,1.777.77,2.517,2.517,0,0,0,1.3-.312,3.259,3.259,0,0,0,.93-.828l.883.688A3.55,3.55,0,0,1,41.609,17.156Zm-.18-7.578a1.928,1.928,0,0,0-1.469.637A3.1,3.1,0,0,0,39.227,12h4.234v-.109a2.753,2.753,0,0,0-.594-1.707A1.815,1.815,0,0,0,41.43,9.578Zm9.234.266a4.331,4.331,0,0,0-.711-.055A1.9,1.9,0,0,0,48.023,11v6H46.578V8.547h1.406l.023.977a2.251,2.251,0,0,1,2.016-1.133,1.477,1.477,0,0,1,.641.109Zm8.68,6.133a2.082,2.082,0,0,0,1.352-.469,1.649,1.649,0,0,0,.641-1.172H62.7a2.621,2.621,0,0,1-.5,1.383,3.293,3.293,0,0,1-1.23,1.047,3.55,3.55,0,0,1-1.629.391A3.482,3.482,0,0,1,56.6,16a4.59,4.59,0,0,1-1.02-3.152v-.242a5.089,5.089,0,0,1,.453-2.2,3.451,3.451,0,0,1,1.3-1.492,3.7,3.7,0,0,1,2-.531,3.39,3.39,0,0,1,2.363.852,3.043,3.043,0,0,1,1,2.211H61.336a1.992,1.992,0,0,0-.621-1.348,1.932,1.932,0,0,0-1.379-.527,2.023,2.023,0,0,0-1.707.793,3.724,3.724,0,0,0-.605,2.293v.273a3.65,3.65,0,0,0,.6,2.25A2.033,2.033,0,0,0,59.344,15.977Zm8.492,1.18a3.693,3.693,0,0,1-2.8-1.129,4.19,4.19,0,0,1-1.078-3.02v-.266a5.073,5.073,0,0,1,.48-2.246,3.748,3.748,0,0,1,1.344-1.547,3.378,3.378,0,0,1,1.871-.559,3.166,3.166,0,0,1,2.563,1.086,4.7,4.7,0,0,1,.914,3.109v.6H65.406a3,3,0,0,0,.73,2.02,2.3,2.3,0,0,0,1.777.77,2.517,2.517,0,0,0,1.3-.312,3.259,3.259,0,0,0,.93-.828l.883.688A3.55,3.55,0,0,1,67.836,17.156Zm-.18-7.578a1.928,1.928,0,0,0-1.469.637A3.1,3.1,0,0,0,65.453,12h4.234v-.109a2.753,2.753,0,0,0-.594-1.707A1.815,1.815,0,0,0,67.656,9.578Zm9.234.266a4.331,4.331,0,0,0-.711-.055A1.9,1.9,0,0,0,74.25,11v6H72.8V8.547h1.406l.023.977A2.251,2.251,0,0,1,76.25,8.391a1.477,1.477,0,0,1,.641.109Zm5.414,0a4.331,4.331,0,0,0-.711-.055A1.9,1.9,0,0,0,79.664,11v6H78.219V8.547h1.406l.023.977a2.251,2.251,0,0,1,2.016-1.133A1.477,1.477,0,0,1,82.3,8.5ZM88.539,17a3.036,3.036,0,0,1-.2-.891,3.225,3.225,0,0,1-2.406,1.047,2.984,2.984,0,0,1-2.051-.707,2.288,2.288,0,0,1-.8-1.793,2.39,2.39,0,0,1,1-2.051,4.733,4.733,0,0,1,2.824-.73h1.406v-.664A1.623,1.623,0,0,0,87.859,10a1.821,1.821,0,0,0-1.336-.449,2.108,2.108,0,0,0-1.3.391,1.151,1.151,0,0,0-.523.945H83.25A2,2,0,0,1,83.7,9.668a3.066,3.066,0,0,1,1.219-.934,4.1,4.1,0,0,1,1.691-.344,3.342,3.342,0,0,1,2.289.73,2.635,2.635,0,0,1,.859,2.012v3.891a4.757,4.757,0,0,0,.3,1.852V17Zm-2.4-1.1a2.54,2.54,0,0,0,1.289-.352,2.127,2.127,0,0,0,.883-.914V12.9H87.18q-2.656,0-2.656,1.555a1.316,1.316,0,0,0,.453,1.063A1.742,1.742,0,0,0,86.141,15.9Zm5.531-3.2a4.952,4.952,0,0,1,.922-3.129,3.137,3.137,0,0,1,4.766-.168V5H98.8V17H97.477l-.07-.906a2.943,2.943,0,0,1-2.414,1.063,2.887,2.887,0,0,1-2.395-1.2,5.008,5.008,0,0,1-.926-3.141Zm1.445.164a3.749,3.749,0,0,0,.594,2.25,1.92,1.92,0,0,0,1.641.813A2.108,2.108,0,0,0,97.359,14.7V10.813a2.125,2.125,0,0,0-1.992-1.2,1.929,1.929,0,0,0-1.656.82A4.128,4.128,0,0,0,93.117,12.867Zm7.547-.172a4.993,4.993,0,0,1,.488-2.234,3.643,3.643,0,0,1,1.359-1.531,3.7,3.7,0,0,1,1.988-.539,3.565,3.565,0,0,1,2.793,1.2,4.6,4.6,0,0,1,1.066,3.18v.1a5.036,5.036,0,0,1-.473,2.215,3.589,3.589,0,0,1-1.352,1.527,3.743,3.743,0,0,1-2.02.547,3.556,3.556,0,0,1-2.785-1.2,4.575,4.575,0,0,1-1.066-3.164Zm1.453.172a3.616,3.616,0,0,0,.652,2.258,2.211,2.211,0,0,0,3.5-.012,3.955,3.955,0,0,0,.648-2.418,3.61,3.61,0,0,0-.66-2.254,2.1,2.1,0,0,0-1.754-.863,2.075,2.075,0,0,0-1.727.852A3.925,3.925,0,0,0,102.117,12.867Z" transform="translate(-5735 -3535)" fill="#12263f"/>
    <path id="Trazado_217327" data-name="Trazado 217327" d="M18.746,11.68a7.037,7.037,0,0,1-.562,2.918,4.261,4.261,0,0,1-1.594,1.9,4.385,4.385,0,0,1-2.406.656,4.244,4.244,0,0,1-4-2.543,6.752,6.752,0,0,1-.59-2.832v-.82a6.953,6.953,0,0,1,.57-2.9,4.218,4.218,0,0,1,4-2.594,4.41,4.41,0,0,1,2.41.66,4.253,4.253,0,0,1,1.605,1.914,7.071,7.071,0,0,1,.563,2.918Zm-1.492-.734a5.1,5.1,0,0,0-.812-3.105,2.68,2.68,0,0,0-2.273-1.082A2.651,2.651,0,0,0,11.93,7.84a5,5,0,0,0-.84,3v.836a5.107,5.107,0,0,0,.824,3.082,2.662,2.662,0,0,0,2.27,1.121,2.652,2.652,0,0,0,2.25-1.059,5.079,5.079,0,0,0,.82-3.035Zm7.6-1.1a4.331,4.331,0,0,0-.711-.055A1.9,1.9,0,0,0,22.215,11v6H20.77V8.547h1.406l.023.977a2.251,2.251,0,0,1,2.016-1.133,1.477,1.477,0,0,1,.641.109ZM25.84,12.7a4.968,4.968,0,0,1,.914-3.145,3.151,3.151,0,0,1,4.836-.074l.07-.937h1.32V16.8a3.439,3.439,0,0,1-.973,2.586,3.589,3.589,0,0,1-2.613.945,4.348,4.348,0,0,1-1.789-.391,3.08,3.08,0,0,1-1.336-1.07L27.02,18a2.826,2.826,0,0,0,2.273,1.148,2.214,2.214,0,0,0,1.645-.594,2.269,2.269,0,0,0,.59-1.672v-.727a2.971,2.971,0,0,1-2.367,1,2.887,2.887,0,0,1-2.4-1.2A5.224,5.224,0,0,1,25.84,12.7Zm1.453.164a3.79,3.79,0,0,0,.586,2.246,1.9,1.9,0,0,0,1.641.816,2.117,2.117,0,0,0,2.008-1.242V10.828a2.142,2.142,0,0,0-1.992-1.211,1.921,1.921,0,0,0-1.648.82A4.128,4.128,0,0,0,27.293,12.867ZM40.379,17a3.036,3.036,0,0,1-.2-.891,3.225,3.225,0,0,1-2.406,1.047,2.984,2.984,0,0,1-2.051-.707,2.287,2.287,0,0,1-.8-1.793,2.39,2.39,0,0,1,1-2.051,4.733,4.733,0,0,1,2.824-.73h1.406v-.664A1.623,1.623,0,0,0,39.7,10a1.821,1.821,0,0,0-1.336-.449,2.107,2.107,0,0,0-1.3.391,1.151,1.151,0,0,0-.523.945H35.09a2,2,0,0,1,.449-1.223,3.066,3.066,0,0,1,1.219-.934,4.1,4.1,0,0,1,1.691-.344,3.342,3.342,0,0,1,2.289.73,2.635,2.635,0,0,1,.859,2.012v3.891a4.757,4.757,0,0,0,.3,1.852V17Zm-2.4-1.1a2.54,2.54,0,0,0,1.289-.352,2.127,2.127,0,0,0,.883-.914V12.9H39.02q-2.656,0-2.656,1.555a1.316,1.316,0,0,0,.453,1.063A1.742,1.742,0,0,0,37.98,15.9Zm7.25-7.352.047,1.063a3.08,3.08,0,0,1,2.531-1.219q2.68,0,2.7,3.023V17H49.066V11.406a1.946,1.946,0,0,0-.418-1.352,1.675,1.675,0,0,0-1.277-.437,2.086,2.086,0,0,0-1.234.375,2.546,2.546,0,0,0-.828.984V17H43.863V8.547ZM54.262,17H52.816V8.547h1.445ZM52.7,6.3a.863.863,0,0,1,.215-.594.807.807,0,0,1,.637-.242.819.819,0,0,1,.641.242.854.854,0,0,1,.219.594.826.826,0,0,1-.219.586.834.834,0,0,1-.641.234.821.821,0,0,1-.637-.234A.834.834,0,0,1,52.7,6.3Zm5.234,9.516h4.945V17H56.168V15.938l4.664-6.2H56.238v-1.2h6.406V9.57ZM69.723,17a3.036,3.036,0,0,1-.2-.891,3.225,3.225,0,0,1-2.406,1.047,2.984,2.984,0,0,1-2.051-.707,2.288,2.288,0,0,1-.8-1.793,2.39,2.39,0,0,1,1-2.051,4.733,4.733,0,0,1,2.824-.73H69.5v-.664A1.623,1.623,0,0,0,69.043,10a1.821,1.821,0,0,0-1.336-.449,2.108,2.108,0,0,0-1.3.391,1.151,1.151,0,0,0-.523.945H64.434a2,2,0,0,1,.449-1.223A3.066,3.066,0,0,1,66.1,8.734a4.1,4.1,0,0,1,1.691-.344,3.342,3.342,0,0,1,2.289.73,2.635,2.635,0,0,1,.859,2.012v3.891a4.757,4.757,0,0,0,.3,1.852V17Zm-2.4-1.1a2.54,2.54,0,0,0,1.289-.352,2.127,2.127,0,0,0,.883-.914V12.9H68.363q-2.656,0-2.656,1.555a1.316,1.316,0,0,0,.453,1.063A1.742,1.742,0,0,0,67.324,15.9Zm9.273.078a2.082,2.082,0,0,0,1.352-.469,1.649,1.649,0,0,0,.641-1.172h1.367a2.621,2.621,0,0,1-.5,1.383,3.293,3.293,0,0,1-1.23,1.047,3.55,3.55,0,0,1-1.629.391A3.482,3.482,0,0,1,73.852,16a4.59,4.59,0,0,1-1.02-3.152v-.242a5.089,5.089,0,0,1,.453-2.2,3.451,3.451,0,0,1,1.3-1.492,3.7,3.7,0,0,1,2-.531,3.39,3.39,0,0,1,2.363.852,3.043,3.043,0,0,1,1,2.211H78.59a1.992,1.992,0,0,0-.621-1.348,1.932,1.932,0,0,0-1.379-.527,2.023,2.023,0,0,0-1.707.793,3.724,3.724,0,0,0-.605,2.293v.273a3.65,3.65,0,0,0,.6,2.25A2.033,2.033,0,0,0,76.6,15.977ZM83.152,17H81.707V8.547h1.445ZM81.59,6.3a.863.863,0,0,1,.215-.594.807.807,0,0,1,.637-.242.819.819,0,0,1,.641.242A.854.854,0,0,1,83.3,6.3a.826.826,0,0,1-.219.586.834.834,0,0,1-.641.234.821.821,0,0,1-.637-.234A.834.834,0,0,1,81.59,6.3ZM85.082,12.7a4.993,4.993,0,0,1,.488-2.234A3.643,3.643,0,0,1,86.93,8.93a3.7,3.7,0,0,1,1.988-.539,3.565,3.565,0,0,1,2.793,1.2,4.6,4.6,0,0,1,1.066,3.18v.1a5.036,5.036,0,0,1-.473,2.215,3.589,3.589,0,0,1-1.352,1.527,3.743,3.743,0,0,1-2.02.547,3.556,3.556,0,0,1-2.785-1.2A4.575,4.575,0,0,1,85.082,12.8Zm1.453.172a3.616,3.616,0,0,0,.652,2.258,2.211,2.211,0,0,0,3.5-.012,3.955,3.955,0,0,0,.648-2.418,3.61,3.61,0,0,0-.66-2.254,2.1,2.1,0,0,0-1.754-.863,2.075,2.075,0,0,0-1.727.852A3.925,3.925,0,0,0,86.535,12.867ZM89.574,5h1.75L89.23,7.3l-1.164,0Zm6.383,3.547L96,9.609a3.08,3.08,0,0,1,2.531-1.219q2.68,0,2.7,3.023V17H99.793V11.406a1.946,1.946,0,0,0-.418-1.352A1.675,1.675,0,0,0,98.1,9.617a2.086,2.086,0,0,0-1.234.375,2.546,2.546,0,0,0-.828.984V17H94.59V8.547ZM24.324,41H22.879V32.547h1.445ZM22.762,30.3a.863.863,0,0,1,.215-.594.807.807,0,0,1,.637-.242.819.819,0,0,1,.641.242.854.854,0,0,1,.219.594.826.826,0,0,1-.219.586.834.834,0,0,1-.641.234.821.821,0,0,1-.637-.234A.834.834,0,0,1,22.762,30.3ZM28,32.547l.047,1.063a3.08,3.08,0,0,1,2.531-1.219q2.68,0,2.7,3.023V41H31.84V35.406a1.946,1.946,0,0,0-.418-1.352,1.675,1.675,0,0,0-1.277-.437,2.086,2.086,0,0,0-1.234.375,2.546,2.546,0,0,0-.828.984V41H26.637V32.547ZM35.113,36.7a4.952,4.952,0,0,1,.922-3.129,3.137,3.137,0,0,1,4.766-.168V29h1.445V41H40.918l-.07-.906a2.943,2.943,0,0,1-2.414,1.063,2.887,2.887,0,0,1-2.395-1.2,5.008,5.008,0,0,1-.926-3.141Zm1.445.164a3.749,3.749,0,0,0,.594,2.25,1.919,1.919,0,0,0,1.641.813A2.108,2.108,0,0,0,40.8,38.7V34.813a2.125,2.125,0,0,0-1.992-1.2,1.929,1.929,0,0,0-1.656.82A4.128,4.128,0,0,0,36.559,36.867ZM46.059,41H44.613V32.547h1.445ZM44.5,30.3a.863.863,0,0,1,.215-.594.807.807,0,0,1,.637-.242.819.819,0,0,1,.641.242.854.854,0,0,1,.219.594.826.826,0,0,1-.219.586.834.834,0,0,1-.641.234.821.821,0,0,1-.637-.234A.834.834,0,0,1,44.5,30.3Zm6.664,8.734,2.094-6.492H54.73L51.7,41H50.6l-3.062-8.453h1.477ZM57.691,41H56.246V32.547h1.445ZM56.129,30.3a.863.863,0,0,1,.215-.594.807.807,0,0,1,.637-.242.819.819,0,0,1,.641.242.854.854,0,0,1,.219.594.826.826,0,0,1-.219.586.834.834,0,0,1-.641.234.821.821,0,0,1-.637-.234A.834.834,0,0,1,56.129,30.3Zm3.523,6.4a4.952,4.952,0,0,1,.922-3.129,3.137,3.137,0,0,1,4.766-.168V29h1.445V41H65.457l-.07-.906a2.943,2.943,0,0,1-2.414,1.063,2.887,2.887,0,0,1-2.395-1.2,5.008,5.008,0,0,1-.926-3.141Zm1.445.164a3.749,3.749,0,0,0,.594,2.25,1.919,1.919,0,0,0,1.641.813A2.108,2.108,0,0,0,65.34,38.7V34.813a2.125,2.125,0,0,0-1.992-1.2,1.929,1.929,0,0,0-1.656.82A4.128,4.128,0,0,0,61.1,36.867Zm13.148,3.3a3.07,3.07,0,0,1-2.477.992,2.628,2.628,0,0,1-2.059-.785A3.4,3.4,0,0,1,69,38.047v-5.5h1.445v5.461q0,1.922,1.563,1.922a2.163,2.163,0,0,0,2.2-1.234V32.547h1.445V41H74.277Zm8.82.836a3.036,3.036,0,0,1-.2-.891,3.225,3.225,0,0,1-2.406,1.047,2.984,2.984,0,0,1-2.051-.707,2.288,2.288,0,0,1-.8-1.793,2.39,2.39,0,0,1,1-2.051,4.733,4.733,0,0,1,2.824-.73H82.84v-.664A1.623,1.623,0,0,0,82.387,34a1.821,1.821,0,0,0-1.336-.449,2.107,2.107,0,0,0-1.3.391,1.151,1.151,0,0,0-.523.945H77.777a2,2,0,0,1,.449-1.223,3.066,3.066,0,0,1,1.219-.934,4.1,4.1,0,0,1,1.691-.344,3.342,3.342,0,0,1,2.289.73,2.635,2.635,0,0,1,.859,2.012v3.891a4.757,4.757,0,0,0,.3,1.852V41Zm-2.4-1.1a2.54,2.54,0,0,0,1.289-.352,2.127,2.127,0,0,0,.883-.914V36.9H81.707q-2.656,0-2.656,1.555a1.316,1.316,0,0,0,.453,1.063A1.742,1.742,0,0,0,80.668,39.9ZM88.121,41H86.676V29h1.445Z" transform="translate(-5735 -3370)" fill="#12263f"/>
    <path id="Trazado_217328" data-name="Trazado 217328" d="M9.438,12.4H6.766V17H5.258V5.625H9.023A4.457,4.457,0,0,1,11.98,6.5a3.148,3.148,0,0,1,1.035,2.547,3.062,3.062,0,0,1-.574,1.852,3.428,3.428,0,0,1-1.6,1.18l2.672,4.828V17H11.906ZM6.766,11.172h2.3a2.6,2.6,0,0,0,1.777-.579,1.959,1.959,0,0,0,.66-1.55,2.062,2.062,0,0,0-.629-1.62,2.663,2.663,0,0,0-1.816-.571h-2.3ZM18.4,17.156a3.693,3.693,0,0,1-2.8-1.129,4.19,4.19,0,0,1-1.078-3.02v-.266A5.073,5.073,0,0,1,15,10.5a3.748,3.748,0,0,1,1.344-1.547,3.378,3.378,0,0,1,1.871-.559,3.166,3.166,0,0,1,2.563,1.086,4.7,4.7,0,0,1,.914,3.109v.6H15.969a3,3,0,0,0,.73,2.02,2.3,2.3,0,0,0,1.777.77,2.517,2.517,0,0,0,1.3-.312,3.259,3.259,0,0,0,.93-.828l.883.688A3.55,3.55,0,0,1,18.4,17.156Zm-.18-7.578a1.928,1.928,0,0,0-1.469.637A3.1,3.1,0,0,0,16.016,12H20.25v-.109a2.753,2.753,0,0,0-.594-1.707A1.815,1.815,0,0,0,18.219,9.578Zm4.8,3.125a4.952,4.952,0,0,1,.922-3.129A3.137,3.137,0,0,1,28.7,9.406V5h1.445V17H28.82l-.07-.906a2.943,2.943,0,0,1-2.414,1.063,2.887,2.887,0,0,1-2.395-1.2,5.008,5.008,0,0,1-.926-3.141Zm1.445.164a3.749,3.749,0,0,0,.594,2.25,1.92,1.92,0,0,0,1.641.813A2.108,2.108,0,0,0,28.7,14.7V10.813a2.125,2.125,0,0,0-1.992-1.2,1.929,1.929,0,0,0-1.656.82A4.128,4.128,0,0,0,24.461,12.867Zm15.281,3.109a2.082,2.082,0,0,0,1.352-.469,1.649,1.649,0,0,0,.641-1.172H43.1a2.621,2.621,0,0,1-.5,1.383,3.293,3.293,0,0,1-1.23,1.047,3.55,3.55,0,0,1-1.629.391A3.482,3.482,0,0,1,37,16a4.59,4.59,0,0,1-1.02-3.152v-.242a5.089,5.089,0,0,1,.453-2.2,3.451,3.451,0,0,1,1.3-1.492,3.7,3.7,0,0,1,2-.531,3.39,3.39,0,0,1,2.363.852,3.043,3.043,0,0,1,1,2.211H41.734a1.992,1.992,0,0,0-.621-1.348,1.932,1.932,0,0,0-1.379-.527,2.023,2.023,0,0,0-1.707.793,3.724,3.724,0,0,0-.605,2.293v.273a3.65,3.65,0,0,0,.6,2.25A2.033,2.033,0,0,0,39.742,15.977Zm8.492,1.18a3.693,3.693,0,0,1-2.8-1.129,4.19,4.19,0,0,1-1.078-3.02v-.266a5.073,5.073,0,0,1,.48-2.246,3.748,3.748,0,0,1,1.344-1.547,3.378,3.378,0,0,1,1.871-.559,3.166,3.166,0,0,1,2.563,1.086,4.7,4.7,0,0,1,.914,3.109v.6H45.8a3,3,0,0,0,.73,2.02,2.3,2.3,0,0,0,1.777.77,2.517,2.517,0,0,0,1.3-.312,3.259,3.259,0,0,0,.93-.828l.883.688A3.55,3.55,0,0,1,48.234,17.156Zm-.18-7.578a1.928,1.928,0,0,0-1.469.637A3.1,3.1,0,0,0,45.852,12h4.234v-.109a2.753,2.753,0,0,0-.594-1.707A1.815,1.815,0,0,0,48.055,9.578Zm9.234.266a4.331,4.331,0,0,0-.711-.055A1.9,1.9,0,0,0,54.648,11v6H53.2V8.547h1.406l.023.977a2.251,2.251,0,0,1,2.016-1.133,1.477,1.477,0,0,1,.641.109Zm5.414,0a4.331,4.331,0,0,0-.711-.055A1.9,1.9,0,0,0,60.063,11v6H58.617V8.547h1.406l.023.977a2.251,2.251,0,0,1,2.016-1.133A1.477,1.477,0,0,1,62.7,8.5ZM68.938,17a3.036,3.036,0,0,1-.2-.891,3.225,3.225,0,0,1-2.406,1.047,2.984,2.984,0,0,1-2.051-.707,2.287,2.287,0,0,1-.8-1.793,2.39,2.39,0,0,1,1-2.051,4.733,4.733,0,0,1,2.824-.73h1.406v-.664A1.623,1.623,0,0,0,68.258,10a1.821,1.821,0,0,0-1.336-.449,2.108,2.108,0,0,0-1.3.391,1.151,1.151,0,0,0-.523.945H63.648A2,2,0,0,1,64.1,9.668a3.066,3.066,0,0,1,1.219-.934,4.1,4.1,0,0,1,1.691-.344,3.342,3.342,0,0,1,2.289.73,2.635,2.635,0,0,1,.859,2.012v3.891a4.757,4.757,0,0,0,.3,1.852V17Zm-2.4-1.1a2.54,2.54,0,0,0,1.289-.352,2.127,2.127,0,0,0,.883-.914V12.9H67.578q-2.656,0-2.656,1.555a1.316,1.316,0,0,0,.453,1.063A1.742,1.742,0,0,0,66.539,15.9Zm5.531-3.2a4.952,4.952,0,0,1,.922-3.129,3.137,3.137,0,0,1,4.766-.168V5H79.2V17H77.875l-.07-.906a2.943,2.943,0,0,1-2.414,1.063A2.887,2.887,0,0,1,73,15.953a5.008,5.008,0,0,1-.926-3.141Zm1.445.164a3.749,3.749,0,0,0,.594,2.25,1.92,1.92,0,0,0,1.641.813A2.108,2.108,0,0,0,77.758,14.7V10.813a2.125,2.125,0,0,0-1.992-1.2,1.929,1.929,0,0,0-1.656.82A4.128,4.128,0,0,0,73.516,12.867ZM86.664,17a3.036,3.036,0,0,1-.2-.891,3.225,3.225,0,0,1-2.406,1.047A2.984,2.984,0,0,1,82,16.449a2.288,2.288,0,0,1-.8-1.793,2.39,2.39,0,0,1,1-2.051,4.733,4.733,0,0,1,2.824-.73h1.406v-.664A1.623,1.623,0,0,0,85.984,10a1.821,1.821,0,0,0-1.336-.449,2.108,2.108,0,0,0-1.3.391,1.151,1.151,0,0,0-.523.945H81.375a2,2,0,0,1,.449-1.223,3.066,3.066,0,0,1,1.219-.934,4.1,4.1,0,0,1,1.691-.344,3.342,3.342,0,0,1,2.289.73,2.635,2.635,0,0,1,.859,2.012v3.891a4.757,4.757,0,0,0,.3,1.852V17Zm-2.4-1.1a2.54,2.54,0,0,0,1.289-.352,2.127,2.127,0,0,0,.883-.914V12.9H85.3q-2.656,0-2.656,1.555a1.316,1.316,0,0,0,.453,1.063A1.742,1.742,0,0,0,84.266,15.9Z" transform="translate(-5409 -3571)" fill="#12263f"/>
    <g id="Grupo_213031" data-name="Grupo 213031" transform="translate(-5431 -3587.703)">
      <path id="Trazado_210453" data-name="Trazado 210453" d="M15.728,0,0,14.095" transform="translate(0.001 39.906)" fill="none" stroke="#f08e35" stroke-width="1"/>
      <path id="Trazado_210454" data-name="Trazado 210454" d="M0,0V6.136l5.942.535" transform="translate(0 48.031)" fill="none" stroke="#f08e35" stroke-width="1"/>
    </g>
    <g id="Grupo_213030" data-name="Grupo 213030" transform="translate(-6748.125 -12051.551)">
      <g id="Grupo_213014" data-name="Grupo 213014" transform="translate(1140.523 8503.9)">
        <g id="Grupo_212980" data-name="Grupo 212980" transform="translate(46.774 52.207)">
          <g id="Grupo_212921" data-name="Grupo 212921" transform="translate(2.378 1.586)">
            <g id="Grupo_212920" data-name="Grupo 212920" transform="translate(0 1.585)">
              <g id="Rectángulo_66683" data-name="Rectángulo 66683" transform="translate(13.514 13.464)" fill="none" stroke="#243f5b" stroke-width="1">
                <rect width="65.008" height="65.008" stroke="none"/>
                <rect x="0.5" y="0.5" width="64.008" height="64.008" fill="none"/>
              </g>
              <g id="Rectángulo_66684" data-name="Rectángulo 66684" transform="translate(0.051 45.968) rotate(-45)" fill="none" stroke="#243f5b" stroke-width="1">
                <rect width="65.008" height="65.008" stroke="none"/>
                <rect x="0.5" y="0.5" width="64.008" height="64.008" fill="none"/>
              </g>
              <path id="Trazado_210442" data-name="Trazado 210442" d="M-7500.695-2909.491l31.985,13.944,13.32,32.032-13.32,31.753-31.985,13.342-32.119-13.342-13.385-31.753,13.385-32.032Z" transform="translate(7546.714 2909.491)" fill="none" stroke="#243f5b" stroke-width="1"/>
              <path id="Trazado_210443" data-name="Trazado 210443" d="M-7517.562-2818.431v-91.042" transform="translate(7563.482 2909.502)" fill="none" stroke="#243f5b" stroke-width="1"/>
              <path id="Trazado_210444" data-name="Trazado 210444" d="M-7473.233-2901l-64.354,64.48" transform="translate(7551.755 2914.464)" fill="none" stroke="#243f5b" stroke-width="1"/>
              <path id="Trazado_210445" data-name="Trazado 210445" d="M-7455.2-2880.5h-91.324" transform="translate(7546.523 2926.468)" fill="none" stroke="#243f5b" stroke-width="1"/>
              <path id="Trazado_210446" data-name="Trazado 210446" d="M-7474.293-2836.815l-63.421-63.682" transform="translate(7551.68 2914.759)" fill="none" stroke="#243f5b" stroke-width="1"/>
            </g>
            <g id="Elipse_5015" data-name="Elipse 5015" fill="none" stroke="#3156b4" stroke-width="1">
              <circle cx="46.774" cy="46.774" r="46.774" stroke="none"/>
              <circle cx="46.774" cy="46.774" r="46.274" fill="none"/>
            </g>
          </g>
          <g id="Grupo_212922" data-name="Grupo 212922" transform="translate(45.188)">
            <circle id="Elipse_5016" data-name="Elipse 5016" cx="3.964" cy="3.964" r="3.964" fill="#5079d6"/>
            <circle id="Elipse_5017" data-name="Elipse 5017" cx="3.964" cy="3.964" r="3.964" transform="translate(0 90.377)" fill="#5079d6"/>
          </g>
          <g id="Grupo_212923" data-name="Grupo 212923" transform="translate(98.305 45.188) rotate(90)">
            <circle id="Elipse_5016-2" data-name="Elipse 5016" cx="3.964" cy="3.964" r="3.964" transform="translate(0 0)" fill="#5079d6"/>
            <circle id="Elipse_5017-2" data-name="Elipse 5017" cx="3.964" cy="3.964" r="3.964" transform="translate(0 90.377)" fill="#5079d6"/>
          </g>
          <g id="Grupo_212924" data-name="Grupo 212924" transform="translate(81.105 11.593) rotate(45)">
            <circle id="Elipse_5016-3" data-name="Elipse 5016" cx="3.964" cy="3.964" r="3.964" transform="translate(0 0)" fill="#5079d6"/>
            <circle id="Elipse_5017-3" data-name="Elipse 5017" cx="3.964" cy="3.964" r="3.964" transform="translate(0 90.377)" fill="#5079d6"/>
          </g>
          <g id="Grupo_212925" data-name="Grupo 212925" transform="translate(86.712 81.106) rotate(135)">
            <circle id="Elipse_5016-4" data-name="Elipse 5016" cx="3.964" cy="3.964" r="3.964" transform="translate(0 0)" fill="#5079d6"/>
            <circle id="Elipse_5017-4" data-name="Elipse 5017" cx="3.964" cy="3.964" r="3.964" transform="translate(0 90.377)" fill="#5079d6"/>
          </g>
        </g>
        <g id="Grupo_212981" data-name="Grupo 212981" transform="translate(148.81 100.907) rotate(-45)">
          <path id="Trazado_210453-2" data-name="Trazado 210453" d="M8.348,7.313,0,0" transform="translate(0.001 0.702)" fill="none" stroke="#f08e35" stroke-width="1"/>
          <path id="Trazado_210454-2" data-name="Trazado 210454" d="M0,6.671V.535L5.942,0" transform="translate(0 0)" fill="none" stroke="#f08e35" stroke-width="1"/>
        </g>
        <g id="Grupo_212982" data-name="Grupo 212982" transform="translate(37.033 106.576) rotate(-135)">
          <path id="Trazado_210453-3" data-name="Trazado 210453" d="M8.349,0,0,7.313" transform="translate(0 0)" fill="none" stroke="#f08e35" stroke-width="1"/>
          <path id="Trazado_210454-3" data-name="Trazado 210454" d="M0,0V6.136l5.943.535" transform="translate(0 1.343)" fill="none" stroke="#f08e35" stroke-width="1"/>
        </g>
        <g id="Grupo_212983" data-name="Grupo 212983" transform="translate(133.355 63.357) rotate(-90)">
          <path id="Trazado_210453-4" data-name="Trazado 210453" d="M8.348,7.313,0,0" transform="translate(0.001 0.702)" fill="none" stroke="#f08e35" stroke-width="1"/>
          <path id="Trazado_210454-4" data-name="Trazado 210454" d="M0,6.671V.535L5.942,0" transform="translate(0 0)" fill="none" stroke="#f08e35" stroke-width="1"/>
        </g>
        <g id="Grupo_212984" data-name="Grupo 212984" transform="translate(58.323 146.404) rotate(180)">
          <path id="Trazado_210453-5" data-name="Trazado 210453" d="M8.349,0,0,7.313" transform="translate(0)" fill="none" stroke="#f08e35" stroke-width="1"/>
          <path id="Trazado_210454-5" data-name="Trazado 210454" d="M0,0V6.136l5.943.535" transform="translate(0 1.343)" fill="none" stroke="#f08e35" stroke-width="1"/>
        </g>
        <g id="Grupo_212985" data-name="Grupo 212985" transform="translate(95.908 47.651) rotate(-135)">
          <path id="Trazado_210453-6" data-name="Trazado 210453" d="M8.348,7.313,0,0" transform="translate(0.001 0.702)" fill="none" stroke="#f08e35" stroke-width="1"/>
          <path id="Trazado_210454-6" data-name="Trazado 210454" d="M0,6.671V.535L5.942,0" transform="translate(0 0)" fill="none" stroke="#f08e35" stroke-width="1"/>
        </g>
        <g id="Grupo_212986" data-name="Grupo 212986" transform="translate(101.575 159.429) rotate(135)">
          <path id="Trazado_210453-7" data-name="Trazado 210453" d="M8.349,0,0,7.313" transform="translate(0 0)" fill="none" stroke="#f08e35" stroke-width="1"/>
          <path id="Trazado_210454-7" data-name="Trazado 210454" d="M0,0V6.136l5.943.535" transform="translate(0 1.343)" fill="none" stroke="#f08e35" stroke-width="1"/>
        </g>
        <g id="Grupo_212987" data-name="Grupo 212987" transform="translate(58.357 63.107) rotate(180)">
          <path id="Trazado_210453-8" data-name="Trazado 210453" d="M8.348,7.313,0,0" transform="translate(0.001 0.702)" fill="none" stroke="#f08e35" stroke-width="1"/>
          <path id="Trazado_210454-8" data-name="Trazado 210454" d="M0,6.671V.535L5.942,0" transform="translate(0 0)" fill="none" stroke="#f08e35" stroke-width="1"/>
        </g>
        <g id="Grupo_212988" data-name="Grupo 212988" transform="translate(141.403 138.137) rotate(90)">
          <path id="Trazado_210453-9" data-name="Trazado 210453" d="M8.349,0,0,7.313" transform="translate(0)" fill="none" stroke="#f08e35" stroke-width="1"/>
          <path id="Trazado_210454-9" data-name="Trazado 210454" d="M0,0V6.136l5.943.535" transform="translate(0 1.343)" fill="none" stroke="#f08e35" stroke-width="1"/>
        </g>
        <g id="Grupo_212989" data-name="Grupo 212989" transform="translate(0 84.035)">
          <g id="Grupo_212972" data-name="Grupo 212972" transform="translate(0 0)" clip-path="url(#clip-path)">
            <path id="Trazado_210458" data-name="Trazado 210458" d="M17.6.083,5.392,9.464c-.423.324-.253,1.2.232,1.2H30.038c.485,0,.654-.876.232-1.2L18.063.083a.366.366,0,0,0-.464,0" transform="translate(-2.629 0)" fill="#ccac00"/>
            <path id="Trazado_210459" data-name="Trazado 210459" d="M29.768,19.134H4.6c-.394,0-.716-.439-.716-.975s.322-.974.716-.974H29.768c.394,0,.717.438.717.974s-.323.975-.717.975" transform="translate(-1.982 -5.742)" fill="#ccac00"/>
            <rect id="Rectángulo_66687" data-name="Rectángulo 66687" width="1.873" height="14.553" transform="translate(4.271 14.12)" fill="#ccac00"/>
            <rect id="Rectángulo_66688" data-name="Rectángulo 66688" width="1.873" height="14.553" transform="translate(8.269 14.12)" fill="#ccac00"/>
            <rect id="Rectángulo_66689" data-name="Rectángulo 66689" width="1.873" height="14.553" transform="translate(12.267 14.12)" fill="#ccac00"/>
            <rect id="Rectángulo_66690" data-name="Rectángulo 66690" width="1.873" height="14.553" transform="translate(16.265 14.12)" fill="#ccac00"/>
            <rect id="Rectángulo_66691" data-name="Rectángulo 66691" width="1.873" height="14.553" transform="translate(20.263 14.12)" fill="#ccac00"/>
            <rect id="Rectángulo_66692" data-name="Rectángulo 66692" width="1.873" height="14.553" transform="translate(24.26 14.12)" fill="#ccac00"/>
            <path id="Trazado_210460" data-name="Trazado 210460" d="M29.768,46.3H4.6c-.394,0-.716-.439-.716-.975s.322-.974.716-.974H29.768c.394,0,.717.439.717.974s-.323.975-.717.975" transform="translate(-1.982 -14.818)" fill="#ccac00"/>
            <path id="Trazado_210461" data-name="Trazado 210461" d="M29.689,50.98H.717c-.394,0-.716-.438-.716-.974v0c0-.535.322-.974.716-.974H29.689c.394,0,.716.438.716.974v0c0,.535-.322.974-.716.974" transform="translate(-0.001 -16.383)" fill="#ccac00"/>
            <rect id="Rectángulo_66693" data-name="Rectángulo 66693" width="1.873" height="14.553" transform="translate(4.271 14.12)" fill="#ccac00"/>
            <rect id="Rectángulo_66694" data-name="Rectángulo 66694" width="1.873" height="14.553" transform="translate(8.269 14.12)" fill="#ccac00"/>
            <rect id="Rectángulo_66695" data-name="Rectángulo 66695" width="1.873" height="14.553" transform="translate(12.267 14.12)" fill="#ccac00"/>
            <path id="Trazado_210462" data-name="Trazado 210462" d="M17.818,0A.381.381,0,0,0,17.6.084L5.392,9.464c-.423.324-.253,1.2.232,1.2H17.818Z" transform="translate(-2.629 -0.001)" fill="#ccac00"/>
            <path id="Trazado_210463" data-name="Trazado 210463" d="M17.17,17.185H4.6c-.394,0-.717.439-.717.975s.323.974.717.974H17.17Z" transform="translate(-1.981 -5.742)" fill="#ccac00"/>
            <path id="Trazado_210464" data-name="Trazado 210464" d="M17.17,44.348H4.6c-.394,0-.717.439-.717.975s.323.974.717.974H17.17Z" transform="translate(-1.981 -14.818)" fill="#ccac00"/>
            <path id="Trazado_210465" data-name="Trazado 210465" d="M15.189,49.031H.716C.322,49.031,0,49.469,0,50v0c0,.535.322.974.716.974H15.189Z" transform="translate(0 -16.383)" fill="#ccac00"/>
          </g>
        </g>
        <g id="Grupo_212990" data-name="Grupo 212990" transform="translate(15.202 22.198)">
          <g id="Grupo_212972-2" data-name="Grupo 212972" transform="translate(0 0)" clip-path="url(#clip-path)">
            <path id="Trazado_210458-2" data-name="Trazado 210458" d="M17.6.083,5.392,9.464c-.423.324-.253,1.2.232,1.2H30.038c.485,0,.654-.876.232-1.2L18.063.083a.366.366,0,0,0-.464,0" transform="translate(-2.629 0)" fill="#ccac00"/>
            <path id="Trazado_210459-2" data-name="Trazado 210459" d="M29.768,19.134H4.6c-.394,0-.716-.439-.716-.975s.322-.974.716-.974H29.768c.394,0,.717.438.717.974s-.323.975-.717.975" transform="translate(-1.982 -5.742)" fill="#ccac00"/>
            <rect id="Rectángulo_66687-2" data-name="Rectángulo 66687" width="1.873" height="14.553" transform="translate(4.271 14.12)" fill="#ccac00"/>
            <rect id="Rectángulo_66688-2" data-name="Rectángulo 66688" width="1.873" height="14.553" transform="translate(8.269 14.12)" fill="#ccac00"/>
            <rect id="Rectángulo_66689-2" data-name="Rectángulo 66689" width="1.873" height="14.553" transform="translate(12.267 14.12)" fill="#ccac00"/>
            <rect id="Rectángulo_66690-2" data-name="Rectángulo 66690" width="1.873" height="14.553" transform="translate(16.265 14.12)" fill="#ccac00"/>
            <rect id="Rectángulo_66691-2" data-name="Rectángulo 66691" width="1.873" height="14.553" transform="translate(20.263 14.12)" fill="#ccac00"/>
            <rect id="Rectángulo_66692-2" data-name="Rectángulo 66692" width="1.873" height="14.553" transform="translate(24.26 14.12)" fill="#ccac00"/>
            <path id="Trazado_210460-2" data-name="Trazado 210460" d="M29.768,46.3H4.6c-.394,0-.716-.439-.716-.975s.322-.974.716-.974H29.768c.394,0,.717.439.717.974s-.323.975-.717.975" transform="translate(-1.982 -14.818)" fill="#ccac00"/>
            <path id="Trazado_210461-2" data-name="Trazado 210461" d="M29.689,50.98H.717c-.394,0-.716-.438-.716-.974v0c0-.535.322-.974.716-.974H29.689c.394,0,.716.438.716.974v0c0,.535-.322.974-.716.974" transform="translate(-0.001 -16.383)" fill="#ccac00"/>
            <rect id="Rectángulo_66693-2" data-name="Rectángulo 66693" width="1.873" height="14.553" transform="translate(4.271 14.12)" fill="#ccac00"/>
            <rect id="Rectángulo_66694-2" data-name="Rectángulo 66694" width="1.873" height="14.553" transform="translate(8.269 14.12)" fill="#ccac00"/>
            <rect id="Rectángulo_66695-2" data-name="Rectángulo 66695" width="1.873" height="14.553" transform="translate(12.267 14.12)" fill="#ccac00"/>
            <path id="Trazado_210462-2" data-name="Trazado 210462" d="M17.818,0A.381.381,0,0,0,17.6.084L5.392,9.464c-.423.324-.253,1.2.232,1.2H17.818Z" transform="translate(-2.629 -0.001)" fill="#ccac00"/>
            <path id="Trazado_210463-2" data-name="Trazado 210463" d="M17.17,17.185H4.6c-.394,0-.717.439-.717.975s.323.974.717.974H17.17Z" transform="translate(-1.981 -5.742)" fill="#ccac00"/>
            <path id="Trazado_210464-2" data-name="Trazado 210464" d="M17.17,44.348H4.6c-.394,0-.717.439-.717.975s.323.974.717.974H17.17Z" transform="translate(-1.981 -14.818)" fill="#ccac00"/>
            <path id="Trazado_210465-2" data-name="Trazado 210465" d="M15.189,49.031H.716C.322,49.031,0,49.469,0,50v0c0,.535.322.974.716.974H15.189Z" transform="translate(0 -16.383)" fill="#ccac00"/>
          </g>
        </g>
        <g id="Grupo_212991" data-name="Grupo 212991" transform="translate(80.724 0)">
          <g id="Grupo_212972-3" data-name="Grupo 212972" transform="translate(0 0)" clip-path="url(#clip-path)">
            <path id="Trazado_210458-3" data-name="Trazado 210458" d="M17.6.083,5.392,9.464c-.423.324-.253,1.2.232,1.2H30.038c.485,0,.654-.876.232-1.2L18.063.083a.366.366,0,0,0-.464,0" transform="translate(-2.629 0)" fill="#ccac00"/>
            <path id="Trazado_210459-3" data-name="Trazado 210459" d="M29.768,19.134H4.6c-.394,0-.716-.439-.716-.975s.322-.974.716-.974H29.768c.394,0,.717.438.717.974s-.323.975-.717.975" transform="translate(-1.982 -5.742)" fill="#ccac00"/>
            <rect id="Rectángulo_66687-3" data-name="Rectángulo 66687" width="1.873" height="14.553" transform="translate(4.271 14.12)" fill="#ccac00"/>
            <rect id="Rectángulo_66688-3" data-name="Rectángulo 66688" width="1.873" height="14.553" transform="translate(8.269 14.12)" fill="#ccac00"/>
            <rect id="Rectángulo_66689-3" data-name="Rectángulo 66689" width="1.873" height="14.553" transform="translate(12.267 14.12)" fill="#ccac00"/>
            <rect id="Rectángulo_66690-3" data-name="Rectángulo 66690" width="1.873" height="14.553" transform="translate(16.265 14.12)" fill="#ccac00"/>
            <rect id="Rectángulo_66691-3" data-name="Rectángulo 66691" width="1.873" height="14.553" transform="translate(20.263 14.12)" fill="#ccac00"/>
            <rect id="Rectángulo_66692-3" data-name="Rectángulo 66692" width="1.873" height="14.553" transform="translate(24.26 14.12)" fill="#ccac00"/>
            <path id="Trazado_210460-3" data-name="Trazado 210460" d="M29.768,46.3H4.6c-.394,0-.716-.439-.716-.975s.322-.974.716-.974H29.768c.394,0,.717.439.717.974s-.323.975-.717.975" transform="translate(-1.982 -14.818)" fill="#ccac00"/>
            <path id="Trazado_210461-3" data-name="Trazado 210461" d="M29.689,50.98H.717c-.394,0-.716-.438-.716-.974v0c0-.535.322-.974.716-.974H29.689c.394,0,.716.438.716.974v0c0,.535-.322.974-.716.974" transform="translate(-0.001 -16.383)" fill="#ccac00"/>
            <rect id="Rectángulo_66693-3" data-name="Rectángulo 66693" width="1.873" height="14.553" transform="translate(4.271 14.12)" fill="#ccac00"/>
            <rect id="Rectángulo_66694-3" data-name="Rectángulo 66694" width="1.873" height="14.553" transform="translate(8.269 14.12)" fill="#ccac00"/>
            <rect id="Rectángulo_66695-3" data-name="Rectángulo 66695" width="1.873" height="14.553" transform="translate(12.267 14.12)" fill="#ccac00"/>
            <path id="Trazado_210462-3" data-name="Trazado 210462" d="M17.818,0A.381.381,0,0,0,17.6.084L5.392,9.464c-.423.324-.253,1.2.232,1.2H17.818Z" transform="translate(-2.629 -0.001)" fill="#ccac00"/>
            <path id="Trazado_210463-3" data-name="Trazado 210463" d="M17.17,17.185H4.6c-.394,0-.717.439-.717.975s.323.974.717.974H17.17Z" transform="translate(-1.981 -5.742)" fill="#ccac00"/>
            <path id="Trazado_210464-3" data-name="Trazado 210464" d="M17.17,44.348H4.6c-.394,0-.717.439-.717.975s.323.974.717.974H17.17Z" transform="translate(-1.981 -14.818)" fill="#ccac00"/>
            <path id="Trazado_210465-3" data-name="Trazado 210465" d="M15.189,49.031H.716C.322,49.031,0,49.469,0,50v0c0,.535.322.974.716.974H15.189Z" transform="translate(0 -16.383)" fill="#ccac00"/>
          </g>
        </g>
        <g id="Grupo_212992" data-name="Grupo 212992" transform="translate(148.81 25.367)">
          <g id="Grupo_212972-4" data-name="Grupo 212972" transform="translate(0 0)" clip-path="url(#clip-path)">
            <path id="Trazado_210458-4" data-name="Trazado 210458" d="M17.6.083,5.392,9.464c-.423.324-.253,1.2.232,1.2H30.038c.485,0,.654-.876.232-1.2L18.063.083a.366.366,0,0,0-.464,0" transform="translate(-2.629 0)" fill="#ccac00"/>
            <path id="Trazado_210459-4" data-name="Trazado 210459" d="M29.768,19.134H4.6c-.394,0-.716-.439-.716-.975s.322-.974.716-.974H29.768c.394,0,.717.438.717.974s-.323.975-.717.975" transform="translate(-1.982 -5.742)" fill="#ccac00"/>
            <rect id="Rectángulo_66687-4" data-name="Rectángulo 66687" width="1.873" height="14.553" transform="translate(4.271 14.12)" fill="#ccac00"/>
            <rect id="Rectángulo_66688-4" data-name="Rectángulo 66688" width="1.873" height="14.553" transform="translate(8.269 14.12)" fill="#ccac00"/>
            <rect id="Rectángulo_66689-4" data-name="Rectángulo 66689" width="1.873" height="14.553" transform="translate(12.267 14.12)" fill="#ccac00"/>
            <rect id="Rectángulo_66690-4" data-name="Rectángulo 66690" width="1.873" height="14.553" transform="translate(16.265 14.12)" fill="#ccac00"/>
            <rect id="Rectángulo_66691-4" data-name="Rectángulo 66691" width="1.873" height="14.553" transform="translate(20.263 14.12)" fill="#ccac00"/>
            <rect id="Rectángulo_66692-4" data-name="Rectángulo 66692" width="1.873" height="14.553" transform="translate(24.26 14.12)" fill="#ccac00"/>
            <path id="Trazado_210460-4" data-name="Trazado 210460" d="M29.768,46.3H4.6c-.394,0-.716-.439-.716-.975s.322-.974.716-.974H29.768c.394,0,.717.439.717.974s-.323.975-.717.975" transform="translate(-1.982 -14.818)" fill="#ccac00"/>
            <path id="Trazado_210461-4" data-name="Trazado 210461" d="M29.689,50.98H.717c-.394,0-.716-.438-.716-.974v0c0-.535.322-.974.716-.974H29.689c.394,0,.716.438.716.974v0c0,.535-.322.974-.716.974" transform="translate(-0.001 -16.383)" fill="#ccac00"/>
            <rect id="Rectángulo_66693-4" data-name="Rectángulo 66693" width="1.873" height="14.553" transform="translate(4.271 14.12)" fill="#ccac00"/>
            <rect id="Rectángulo_66694-4" data-name="Rectángulo 66694" width="1.873" height="14.553" transform="translate(8.269 14.12)" fill="#ccac00"/>
            <rect id="Rectángulo_66695-4" data-name="Rectángulo 66695" width="1.873" height="14.553" transform="translate(12.267 14.12)" fill="#ccac00"/>
            <path id="Trazado_210462-4" data-name="Trazado 210462" d="M17.818,0A.381.381,0,0,0,17.6.084L5.392,9.464c-.423.324-.253,1.2.232,1.2H17.818Z" transform="translate(-2.629 -0.001)" fill="#ccac00"/>
            <path id="Trazado_210463-4" data-name="Trazado 210463" d="M17.17,17.185H4.6c-.394,0-.717.439-.717.975s.323.974.717.974H17.17Z" transform="translate(-1.981 -5.742)" fill="#ccac00"/>
            <path id="Trazado_210464-4" data-name="Trazado 210464" d="M17.17,44.348H4.6c-.394,0-.717.439-.717.975s.323.974.717.974H17.17Z" transform="translate(-1.981 -14.818)" fill="#ccac00"/>
            <path id="Trazado_210465-4" data-name="Trazado 210465" d="M15.189,49.031H.716C.322,49.031,0,49.469,0,50v0c0,.535.322.974.716.974H15.189Z" transform="translate(0 -16.383)" fill="#ccac00"/>
          </g>
        </g>
        <g id="Grupo_212993" data-name="Grupo 212993" transform="translate(164.898 84.061)">
          <g id="Grupo_212972-5" data-name="Grupo 212972" transform="translate(0 0)" clip-path="url(#clip-path)">
            <path id="Trazado_210458-5" data-name="Trazado 210458" d="M17.6.083,5.392,9.464c-.423.324-.253,1.2.232,1.2H30.038c.485,0,.654-.876.232-1.2L18.063.083a.366.366,0,0,0-.464,0" transform="translate(-2.629 0)" fill="#ccac00"/>
            <path id="Trazado_210459-5" data-name="Trazado 210459" d="M29.768,19.134H4.6c-.394,0-.716-.439-.716-.975s.322-.974.716-.974H29.768c.394,0,.717.438.717.974s-.323.975-.717.975" transform="translate(-1.982 -5.742)" fill="#ccac00"/>
            <rect id="Rectángulo_66687-5" data-name="Rectángulo 66687" width="1.873" height="14.553" transform="translate(4.271 14.12)" fill="#ccac00"/>
            <rect id="Rectángulo_66688-5" data-name="Rectángulo 66688" width="1.873" height="14.553" transform="translate(8.269 14.12)" fill="#ccac00"/>
            <rect id="Rectángulo_66689-5" data-name="Rectángulo 66689" width="1.873" height="14.553" transform="translate(12.267 14.12)" fill="#ccac00"/>
            <rect id="Rectángulo_66690-5" data-name="Rectángulo 66690" width="1.873" height="14.553" transform="translate(16.265 14.12)" fill="#ccac00"/>
            <rect id="Rectángulo_66691-5" data-name="Rectángulo 66691" width="1.873" height="14.553" transform="translate(20.263 14.12)" fill="#ccac00"/>
            <rect id="Rectángulo_66692-5" data-name="Rectángulo 66692" width="1.873" height="14.553" transform="translate(24.26 14.12)" fill="#ccac00"/>
            <path id="Trazado_210460-5" data-name="Trazado 210460" d="M29.768,46.3H4.6c-.394,0-.716-.439-.716-.975s.322-.974.716-.974H29.768c.394,0,.717.439.717.974s-.323.975-.717.975" transform="translate(-1.982 -14.818)" fill="#ccac00"/>
            <path id="Trazado_210461-5" data-name="Trazado 210461" d="M29.689,50.98H.717c-.394,0-.716-.438-.716-.974v0c0-.535.322-.974.716-.974H29.689c.394,0,.716.438.716.974v0c0,.535-.322.974-.716.974" transform="translate(-0.001 -16.383)" fill="#ccac00"/>
            <rect id="Rectángulo_66693-5" data-name="Rectángulo 66693" width="1.873" height="14.553" transform="translate(4.271 14.12)" fill="#ccac00"/>
            <rect id="Rectángulo_66694-5" data-name="Rectángulo 66694" width="1.873" height="14.553" transform="translate(8.269 14.12)" fill="#ccac00"/>
            <rect id="Rectángulo_66695-5" data-name="Rectángulo 66695" width="1.873" height="14.553" transform="translate(12.267 14.12)" fill="#ccac00"/>
            <path id="Trazado_210462-5" data-name="Trazado 210462" d="M17.818,0A.381.381,0,0,0,17.6.084L5.392,9.464c-.423.324-.253,1.2.232,1.2H17.818Z" transform="translate(-2.629 -0.001)" fill="#ccac00"/>
            <path id="Trazado_210463-5" data-name="Trazado 210463" d="M17.17,17.185H4.6c-.394,0-.717.439-.717.975s.323.974.717.974H17.17Z" transform="translate(-1.981 -5.742)" fill="#ccac00"/>
            <path id="Trazado_210464-5" data-name="Trazado 210464" d="M17.17,44.348H4.6c-.394,0-.717.439-.717.975s.323.974.717.974H17.17Z" transform="translate(-1.981 -14.818)" fill="#ccac00"/>
            <path id="Trazado_210465-5" data-name="Trazado 210465" d="M15.189,49.031H.716C.322,49.031,0,49.469,0,50v0c0,.535.322.974.716.974H15.189Z" transform="translate(0 -16.383)" fill="#ccac00"/>
          </g>
        </g>
        <g id="Grupo_212994" data-name="Grupo 212994" transform="translate(148.11 135.11)">
          <g id="Grupo_212972-6" data-name="Grupo 212972" transform="translate(0 0)" clip-path="url(#clip-path)">
            <path id="Trazado_210458-6" data-name="Trazado 210458" d="M17.6.083,5.392,9.464c-.423.324-.253,1.2.232,1.2H30.038c.485,0,.654-.876.232-1.2L18.063.083a.366.366,0,0,0-.464,0" transform="translate(-2.629 0)" fill="#ccac00"/>
            <path id="Trazado_210459-6" data-name="Trazado 210459" d="M29.768,19.134H4.6c-.394,0-.716-.439-.716-.975s.322-.974.716-.974H29.768c.394,0,.717.438.717.974s-.323.975-.717.975" transform="translate(-1.982 -5.742)" fill="#ccac00"/>
            <rect id="Rectángulo_66687-6" data-name="Rectángulo 66687" width="1.873" height="14.553" transform="translate(4.271 14.12)" fill="#ccac00"/>
            <rect id="Rectángulo_66688-6" data-name="Rectángulo 66688" width="1.873" height="14.553" transform="translate(8.269 14.12)" fill="#ccac00"/>
            <rect id="Rectángulo_66689-6" data-name="Rectángulo 66689" width="1.873" height="14.553" transform="translate(12.267 14.12)" fill="#ccac00"/>
            <rect id="Rectángulo_66690-6" data-name="Rectángulo 66690" width="1.873" height="14.553" transform="translate(16.265 14.12)" fill="#ccac00"/>
            <rect id="Rectángulo_66691-6" data-name="Rectángulo 66691" width="1.873" height="14.553" transform="translate(20.263 14.12)" fill="#ccac00"/>
            <rect id="Rectángulo_66692-6" data-name="Rectángulo 66692" width="1.873" height="14.553" transform="translate(24.26 14.12)" fill="#ccac00"/>
            <path id="Trazado_210460-6" data-name="Trazado 210460" d="M29.768,46.3H4.6c-.394,0-.716-.439-.716-.975s.322-.974.716-.974H29.768c.394,0,.717.439.717.974s-.323.975-.717.975" transform="translate(-1.982 -14.818)" fill="#ccac00"/>
            <path id="Trazado_210461-6" data-name="Trazado 210461" d="M29.689,50.98H.717c-.394,0-.716-.438-.716-.974v0c0-.535.322-.974.716-.974H29.689c.394,0,.716.438.716.974v0c0,.535-.322.974-.716.974" transform="translate(-0.001 -16.383)" fill="#ccac00"/>
            <rect id="Rectángulo_66693-6" data-name="Rectángulo 66693" width="1.873" height="14.553" transform="translate(4.271 14.12)" fill="#ccac00"/>
            <rect id="Rectángulo_66694-6" data-name="Rectángulo 66694" width="1.873" height="14.553" transform="translate(8.269 14.12)" fill="#ccac00"/>
            <rect id="Rectángulo_66695-6" data-name="Rectángulo 66695" width="1.873" height="14.553" transform="translate(12.267 14.12)" fill="#ccac00"/>
            <path id="Trazado_210462-6" data-name="Trazado 210462" d="M17.818,0A.381.381,0,0,0,17.6.084L5.392,9.464c-.423.324-.253,1.2.232,1.2H17.818Z" transform="translate(-2.629 -0.001)" fill="#ccac00"/>
            <path id="Trazado_210463-6" data-name="Trazado 210463" d="M17.17,17.185H4.6c-.394,0-.717.439-.717.975s.323.974.717.974H17.17Z" transform="translate(-1.981 -5.742)" fill="#ccac00"/>
            <path id="Trazado_210464-6" data-name="Trazado 210464" d="M17.17,44.348H4.6c-.394,0-.717.439-.717.975s.323.974.717.974H17.17Z" transform="translate(-1.981 -14.818)" fill="#ccac00"/>
            <path id="Trazado_210465-6" data-name="Trazado 210465" d="M15.189,49.031H.716C.322,49.031,0,49.469,0,50v0c0,.535.322.974.716.974H15.189Z" transform="translate(0 -16.383)" fill="#ccac00"/>
          </g>
        </g>
        <g id="Grupo_212995" data-name="Grupo 212995" transform="translate(80.724 168.583)">
          <g id="Grupo_212972-7" data-name="Grupo 212972" transform="translate(0 0)" clip-path="url(#clip-path)">
            <path id="Trazado_210458-7" data-name="Trazado 210458" d="M17.6.083,5.392,9.464c-.423.324-.253,1.2.232,1.2H30.038c.485,0,.654-.876.232-1.2L18.063.083a.366.366,0,0,0-.464,0" transform="translate(-2.629 0)" fill="#ccac00"/>
            <path id="Trazado_210459-7" data-name="Trazado 210459" d="M29.768,19.134H4.6c-.394,0-.716-.439-.716-.975s.322-.974.716-.974H29.768c.394,0,.717.438.717.974s-.323.975-.717.975" transform="translate(-1.982 -5.742)" fill="#ccac00"/>
            <rect id="Rectángulo_66687-7" data-name="Rectángulo 66687" width="1.873" height="14.553" transform="translate(4.271 14.12)" fill="#ccac00"/>
            <rect id="Rectángulo_66688-7" data-name="Rectángulo 66688" width="1.873" height="14.553" transform="translate(8.269 14.12)" fill="#ccac00"/>
            <rect id="Rectángulo_66689-7" data-name="Rectángulo 66689" width="1.873" height="14.553" transform="translate(12.267 14.12)" fill="#ccac00"/>
            <rect id="Rectángulo_66690-7" data-name="Rectángulo 66690" width="1.873" height="14.553" transform="translate(16.265 14.12)" fill="#ccac00"/>
            <rect id="Rectángulo_66691-7" data-name="Rectángulo 66691" width="1.873" height="14.553" transform="translate(20.263 14.12)" fill="#ccac00"/>
            <rect id="Rectángulo_66692-7" data-name="Rectángulo 66692" width="1.873" height="14.553" transform="translate(24.26 14.12)" fill="#ccac00"/>
            <path id="Trazado_210460-7" data-name="Trazado 210460" d="M29.768,46.3H4.6c-.394,0-.716-.439-.716-.975s.322-.974.716-.974H29.768c.394,0,.717.439.717.974s-.323.975-.717.975" transform="translate(-1.982 -14.818)" fill="#ccac00"/>
            <path id="Trazado_210461-7" data-name="Trazado 210461" d="M29.689,50.98H.717c-.394,0-.716-.438-.716-.974v0c0-.535.322-.974.716-.974H29.689c.394,0,.716.438.716.974v0c0,.535-.322.974-.716.974" transform="translate(-0.001 -16.383)" fill="#ccac00"/>
            <rect id="Rectángulo_66693-7" data-name="Rectángulo 66693" width="1.873" height="14.553" transform="translate(4.271 14.12)" fill="#ccac00"/>
            <rect id="Rectángulo_66694-7" data-name="Rectángulo 66694" width="1.873" height="14.553" transform="translate(8.269 14.12)" fill="#ccac00"/>
            <rect id="Rectángulo_66695-7" data-name="Rectángulo 66695" width="1.873" height="14.553" transform="translate(12.267 14.12)" fill="#ccac00"/>
            <path id="Trazado_210462-7" data-name="Trazado 210462" d="M17.818,0A.381.381,0,0,0,17.6.084L5.392,9.464c-.423.324-.253,1.2.232,1.2H17.818Z" transform="translate(-2.629 -0.001)" fill="#ccac00"/>
            <path id="Trazado_210463-7" data-name="Trazado 210463" d="M17.17,17.185H4.6c-.394,0-.717.439-.717.975s.323.974.717.974H17.17Z" transform="translate(-1.981 -5.742)" fill="#ccac00"/>
            <path id="Trazado_210464-7" data-name="Trazado 210464" d="M17.17,44.348H4.6c-.394,0-.717.439-.717.975s.323.974.717.974H17.17Z" transform="translate(-1.981 -14.818)" fill="#ccac00"/>
            <path id="Trazado_210465-7" data-name="Trazado 210465" d="M15.189,49.031H.716C.322,49.031,0,49.469,0,50v0c0,.535.322.974.716.974H15.189Z" transform="translate(0 -16.383)" fill="#ccac00"/>
          </g>
        </g>
        <g id="Grupo_212996" data-name="Grupo 212996" transform="translate(15.202 135.11)">
          <g id="Grupo_212972-8" data-name="Grupo 212972" transform="translate(0 0)" clip-path="url(#clip-path)">
            <path id="Trazado_210458-8" data-name="Trazado 210458" d="M17.6.083,5.392,9.464c-.423.324-.253,1.2.232,1.2H30.038c.485,0,.654-.876.232-1.2L18.063.083a.366.366,0,0,0-.464,0" transform="translate(-2.629 0)" fill="#ccac00"/>
            <path id="Trazado_210459-8" data-name="Trazado 210459" d="M29.768,19.134H4.6c-.394,0-.716-.439-.716-.975s.322-.974.716-.974H29.768c.394,0,.717.438.717.974s-.323.975-.717.975" transform="translate(-1.982 -5.742)" fill="#ccac00"/>
            <rect id="Rectángulo_66687-8" data-name="Rectángulo 66687" width="1.873" height="14.553" transform="translate(4.271 14.12)" fill="#ccac00"/>
            <rect id="Rectángulo_66688-8" data-name="Rectángulo 66688" width="1.873" height="14.553" transform="translate(8.269 14.12)" fill="#ccac00"/>
            <rect id="Rectángulo_66689-8" data-name="Rectángulo 66689" width="1.873" height="14.553" transform="translate(12.267 14.12)" fill="#ccac00"/>
            <rect id="Rectángulo_66690-8" data-name="Rectángulo 66690" width="1.873" height="14.553" transform="translate(16.265 14.12)" fill="#ccac00"/>
            <rect id="Rectángulo_66691-8" data-name="Rectángulo 66691" width="1.873" height="14.553" transform="translate(20.263 14.12)" fill="#ccac00"/>
            <rect id="Rectángulo_66692-8" data-name="Rectángulo 66692" width="1.873" height="14.553" transform="translate(24.26 14.12)" fill="#ccac00"/>
            <path id="Trazado_210460-8" data-name="Trazado 210460" d="M29.768,46.3H4.6c-.394,0-.716-.439-.716-.975s.322-.974.716-.974H29.768c.394,0,.717.439.717.974s-.323.975-.717.975" transform="translate(-1.982 -14.818)" fill="#ccac00"/>
            <path id="Trazado_210461-8" data-name="Trazado 210461" d="M29.689,50.98H.717c-.394,0-.716-.438-.716-.974v0c0-.535.322-.974.716-.974H29.689c.394,0,.716.438.716.974v0c0,.535-.322.974-.716.974" transform="translate(-0.001 -16.383)" fill="#ccac00"/>
            <rect id="Rectángulo_66693-8" data-name="Rectángulo 66693" width="1.873" height="14.553" transform="translate(4.271 14.12)" fill="#ccac00"/>
            <rect id="Rectángulo_66694-8" data-name="Rectángulo 66694" width="1.873" height="14.553" transform="translate(8.269 14.12)" fill="#ccac00"/>
            <rect id="Rectángulo_66695-8" data-name="Rectángulo 66695" width="1.873" height="14.553" transform="translate(12.267 14.12)" fill="#ccac00"/>
            <path id="Trazado_210462-8" data-name="Trazado 210462" d="M17.818,0A.381.381,0,0,0,17.6.084L5.392,9.464c-.423.324-.253,1.2.232,1.2H17.818Z" transform="translate(-2.629 -0.001)" fill="#ccac00"/>
            <path id="Trazado_210463-8" data-name="Trazado 210463" d="M17.17,17.185H4.6c-.394,0-.717.439-.717.975s.323.974.717.974H17.17Z" transform="translate(-1.981 -5.742)" fill="#ccac00"/>
            <path id="Trazado_210464-8" data-name="Trazado 210464" d="M17.17,44.348H4.6c-.394,0-.717.439-.717.975s.323.974.717.974H17.17Z" transform="translate(-1.981 -14.818)" fill="#ccac00"/>
            <path id="Trazado_210465-8" data-name="Trazado 210465" d="M15.189,49.031H.716C.322,49.031,0,49.469,0,50v0c0,.535.322.974.716.974H15.189Z" transform="translate(0 -16.383)" fill="#ccac00"/>
          </g>
        </g>
      </g>
      <g id="Trazado_216940" data-name="Trazado 216940" transform="translate(1123.53 8489.725)" fill="none">
        <path d="M115.3,0c63.677,0,115.3,51.857,115.3,115.827S178.975,231.653,115.3,231.653,0,179.8,0,115.827,51.621,0,115.3,0Z" stroke="none"/>
        <path d="M 115.2976226806641 1.999984741210938 C 107.6098098754883 1.999984741210938 99.92742919921875 2.777923583984375 92.46383666992188 4.312210083007812 C 85.19087219238281 5.807296752929688 78.03694152832031 8.0382080078125 71.20071411132812 10.94291687011719 C 64.48799133300781 13.79519653320312 58.01339721679688 17.32563781738281 51.95674133300781 21.43620300292969 C 45.95697021484375 25.5081787109375 40.31491088867188 30.18467712402344 35.18734741210938 35.33576965332031 C 30.05958557128906 40.48701477050781 25.40428161621094 46.15519714355469 21.35061645507812 52.18289184570312 C 17.25837707519531 58.26805114746094 13.74359130859375 64.77320861816406 10.9039306640625 71.5177001953125 C 8.01190185546875 78.38658142089844 5.790771484375 85.57476806640625 4.30218505859375 92.88261413574219 C 2.774566650390625 100.3821716308594 2 108.1016082763672 2 115.8265151977539 C 2 123.5514221191406 2.774566650390625 131.2708587646484 4.30218505859375 138.7703857421875 C 5.790771484375 146.0782623291016 8.01190185546875 153.2664489746094 10.9039306640625 160.1353302001953 C 13.74359130859375 166.8797912597656 17.25837707519531 173.3849792480469 21.35061645507812 179.4701080322266 C 25.40428161621094 185.497802734375 30.05958557128906 191.1659851074219 35.18734741210938 196.3172302246094 C 40.31491088867188 201.4683532714844 45.95697021484375 206.1448211669922 51.95674133300781 210.216796875 C 58.01339721679688 214.3273620605469 64.48799133300781 217.8578338623047 71.20071411132812 220.7100830078125 C 78.03694152832031 223.6147918701172 85.19087219238281 225.845703125 92.46383666992188 227.3407897949219 C 99.92742919921875 228.8750762939453 107.6098098754883 229.6530151367188 115.2976226806641 229.6530151367188 C 122.9854354858398 229.6530151367188 130.6678161621094 228.8750762939453 138.1314086914062 227.3407897949219 C 145.4043731689453 225.845703125 152.5583190917969 223.6147918701172 159.39453125 220.7100830078125 C 166.1072082519531 217.8578338623047 172.5818481445312 214.3273620605469 178.6384582519531 210.216796875 C 184.6382751464844 206.1448211669922 190.2803039550781 201.4683532714844 195.4078979492188 196.3172302246094 C 200.5356292724609 191.1659851074219 205.1909637451172 185.497802734375 209.2445983886719 179.4701080322266 C 213.3368682861328 173.3849792480469 216.8516540527344 166.8797912597656 219.6913146972656 160.1353302001953 C 222.5833435058594 153.2664489746094 224.8044738769531 146.0782623291016 226.2930603027344 138.7703857421875 C 227.8206787109375 131.2708587646484 228.5952453613281 123.5514221191406 228.5952453613281 115.8265151977539 C 228.5952453613281 108.1016082763672 227.8206787109375 100.3821716308594 226.2930603027344 92.88264465332031 C 224.8044738769531 85.57476806640625 222.5833435058594 78.38658142089844 219.6913146972656 71.5177001953125 C 216.8516540527344 64.77320861816406 213.3368682861328 58.26805114746094 209.2445983886719 52.18289184570312 C 205.1909637451172 46.15519714355469 200.5356292724609 40.48701477050781 195.4078979492188 35.33576965332031 C 190.2803039550781 30.18467712402344 184.6382751464844 25.5081787109375 178.6384582519531 21.43620300292969 C 172.5818481445312 17.32563781738281 166.1072082519531 13.79519653320312 159.39453125 10.94291687011719 C 152.5583190917969 8.0382080078125 145.4043731689453 5.807296752929688 138.1314086914062 4.312210083007812 C 130.6678161621094 2.777923583984375 122.9854354858398 1.999984741210938 115.2976226806641 1.999984741210938 M 115.2976226806641 -1.52587890625e-05 C 178.9747161865234 -1.52587890625e-05 230.5952453613281 51.8572998046875 230.5952453613281 115.8265151977539 C 230.5952453613281 179.7957305908203 178.9747161865234 231.6530151367188 115.2976226806641 231.6530151367188 C 51.62049865722656 231.6530151367188 0 179.7957305908203 0 115.8265151977539 C 0 51.8572998046875 51.62049865722656 -1.52587890625e-05 115.2976226806641 -1.52587890625e-05 Z" stroke="none" fill="#2754ba"/>
      </g>
    </g>
    <g id="Grupo_213025" data-name="Grupo 213025" transform="translate(-5558.659 -3457.251) rotate(180)">
      <path id="Trazado_210453-10" data-name="Trazado 210453" d="M59.34,54,0,0" transform="translate(0.001 0.702)" fill="none" stroke="#f08e35" stroke-width="1"/>
      <path id="Trazado_210454-10" data-name="Trazado 210454" d="M0,6.671V.535L5.942,0" transform="translate(0 0)" fill="none" stroke="#f08e35" stroke-width="1"/>
    </g>
    <g id="Grupo_213032" data-name="Grupo 213032" transform="translate(-5593.659 -3342.648) rotate(180)">
      <path id="Trazado_210453-11" data-name="Trazado 210453" d="M24.263,0,0,22.648" transform="translate(0.001 31.353)" fill="none" stroke="#f08e35" stroke-width="1"/>
      <path id="Trazado_210454-11" data-name="Trazado 210454" d="M0,0V6.136l5.942.535" transform="translate(0 48.031)" fill="none" stroke="#f08e35" stroke-width="1"/>
    </g>
    <g id="Grupo_216487" data-name="Grupo 216487" transform="translate(-5526.867 -3463.048)">
      <path id="Trazado_210447" data-name="Trazado 210447" d="M15.322,0,1.357,8.116l14.056,8.116L29.379,8.116Z" transform="translate(-1.22 0)" fill="#ff8900"/>
      <path id="Trazado_210448" data-name="Trazado 210448" d="M139,88.289l-.137,17.524L152.831,97.7l.137-17.524Z" transform="translate(-124.809 -72.058)" fill="#2754ba"/>
      <path id="Trazado_210449" data-name="Trazado 210449" d="M0,97.7l14.056,8.116.137-17.524L.137,80.175Z" transform="translate(0 -72.06)" fill="#5079d6"/>
    </g>
  </g>
</svg>
